G04 #@! TF.GenerationSoftware,KiCad,Pcbnew,9.0.0*
G04 #@! TF.CreationDate,2025-03-04T12:56:27-06:00*
G04 #@! TF.ProjectId,PCB,5043422e-6b69-4636-9164-5f7063625858,rev?*
G04 #@! TF.SameCoordinates,Original*
G04 #@! TF.FileFunction,Copper,L4,Bot*
G04 #@! TF.FilePolarity,Positive*
%FSLAX46Y46*%
G04 Gerber Fmt 4.6, Leading zero omitted, Abs format (unit mm)*
G04 Created by KiCad (PCBNEW 9.0.0) date 2025-03-04 12:56:27*
%MOMM*%
%LPD*%
G01*
G04 APERTURE LIST*
G04 #@! TA.AperFunction,ComponentPad*
%ADD10C,2.000000*%
G04 #@! TD*
G04 #@! TA.AperFunction,ComponentPad*
%ADD11C,1.695000*%
G04 #@! TD*
G04 #@! TA.AperFunction,ComponentPad*
%ADD12R,1.500000X1.500000*%
G04 #@! TD*
G04 #@! TA.AperFunction,ComponentPad*
%ADD13C,1.500000*%
G04 #@! TD*
G04 #@! TA.AperFunction,ComponentPad*
%ADD14C,0.630000*%
G04 #@! TD*
G04 #@! TA.AperFunction,SMDPad,CuDef*
%ADD15R,2.600000X3.300000*%
G04 #@! TD*
G04 #@! TA.AperFunction,ComponentPad*
%ADD16R,1.508000X1.508000*%
G04 #@! TD*
G04 #@! TA.AperFunction,ComponentPad*
%ADD17C,1.508000*%
G04 #@! TD*
G04 #@! TA.AperFunction,ComponentPad*
%ADD18C,0.600000*%
G04 #@! TD*
G04 #@! TA.AperFunction,ComponentPad*
%ADD19C,1.650000*%
G04 #@! TD*
G04 #@! TA.AperFunction,ComponentPad*
%ADD20O,1.308000X2.616000*%
G04 #@! TD*
G04 #@! TA.AperFunction,ComponentPad*
%ADD21O,1.660000X3.320000*%
G04 #@! TD*
G04 #@! TA.AperFunction,ViaPad*
%ADD22C,0.600000*%
G04 #@! TD*
G04 #@! TA.AperFunction,Conductor*
%ADD23C,0.600000*%
G04 #@! TD*
G04 #@! TA.AperFunction,Conductor*
%ADD24C,0.200000*%
G04 #@! TD*
G04 APERTURE END LIST*
D10*
X123698000Y-104140000D03*
X114554000Y-104140000D03*
D11*
X121168491Y-129794508D03*
X121168491Y-127254508D03*
X121168491Y-124714508D03*
X121168491Y-122174508D03*
X121168491Y-119634508D03*
X121168491Y-117094508D03*
D12*
X182424000Y-118110000D03*
D13*
X185924000Y-123110000D03*
X189424000Y-118110000D03*
X192924000Y-123110000D03*
X196424000Y-118110000D03*
X199924000Y-123110000D03*
X203424000Y-118110000D03*
X206924000Y-123110000D03*
X210424000Y-118110000D03*
X213924000Y-123110000D03*
X217424000Y-118110000D03*
X220924000Y-123110000D03*
D14*
X190720000Y-85813000D03*
X190720000Y-87113000D03*
X190720000Y-88413000D03*
D15*
X191370000Y-87113000D03*
D14*
X192020000Y-85813000D03*
X192020000Y-87113000D03*
X192020000Y-88413000D03*
D16*
X217958000Y-109604000D03*
D17*
X212958000Y-106104000D03*
X217958000Y-102604000D03*
D18*
X169388000Y-94559000D03*
X169388000Y-95347000D03*
X169388000Y-96134000D03*
X170038000Y-94559000D03*
X170038000Y-95347000D03*
X170038000Y-96134000D03*
X171338000Y-94559000D03*
X171338000Y-95347000D03*
X171338000Y-96134000D03*
X171988000Y-94559000D03*
X171988000Y-95347000D03*
X171988000Y-96134000D03*
X190720000Y-73367000D03*
X190720000Y-74667000D03*
X190720000Y-75967000D03*
D15*
X191370000Y-74667000D03*
D18*
X192020000Y-73367000D03*
X192020000Y-74667000D03*
X192020000Y-75967000D03*
D16*
X217958000Y-95888000D03*
D17*
X212958000Y-92388000D03*
X217958000Y-88888000D03*
D11*
X141105000Y-129836000D03*
X141105000Y-127296000D03*
X141105000Y-124756000D03*
X141105000Y-122216000D03*
X141105000Y-119676000D03*
X141105000Y-117136000D03*
D10*
X128270000Y-104140000D03*
X119126000Y-104140000D03*
D19*
X165100000Y-76200000D03*
X167640000Y-76200000D03*
X165100000Y-78740000D03*
X167640000Y-78740000D03*
X165100000Y-81280000D03*
X167640000Y-81280000D03*
D16*
X212958000Y-82398000D03*
D17*
X217958000Y-78898000D03*
X212958000Y-75398000D03*
X217958000Y-71898000D03*
D20*
X174400000Y-78674000D03*
X183000000Y-78674000D03*
X177800000Y-78674000D03*
D21*
X183900000Y-71374000D03*
X174000000Y-71374000D03*
D22*
X179529096Y-88067264D03*
X169033477Y-89221920D03*
X155956000Y-104902000D03*
X148844000Y-96774000D03*
X103886000Y-94234000D03*
X167361325Y-99067097D03*
X191516000Y-80772000D03*
X189738000Y-78740000D03*
X154178000Y-104902000D03*
X190838203Y-108268122D03*
X163784530Y-93126347D03*
X172442407Y-97278784D03*
X171115215Y-98983974D03*
X126492000Y-70358000D03*
X148844000Y-99060000D03*
X169164000Y-98806000D03*
X147148614Y-76161574D03*
X179324000Y-79756000D03*
X149959194Y-76191959D03*
X131388076Y-89154000D03*
X190500000Y-81788000D03*
X104140000Y-100838000D03*
X109728000Y-72390000D03*
X194564000Y-71120000D03*
X105410000Y-96520000D03*
X151197368Y-78751865D03*
X198255855Y-107311006D03*
X139954000Y-104140000D03*
X183757828Y-108272365D03*
X195760516Y-108336488D03*
X140462000Y-99314000D03*
X145933229Y-77331383D03*
X140462000Y-97790000D03*
X171972010Y-98076780D03*
X147186595Y-81387733D03*
X131064000Y-72136000D03*
X178264335Y-91331714D03*
X188513778Y-106866631D03*
X148576693Y-76191959D03*
X148569097Y-81364945D03*
X165258185Y-90786730D03*
X188565052Y-108216848D03*
X206248000Y-74168000D03*
X160446894Y-71599572D03*
X173234792Y-94206383D03*
X156210000Y-103632000D03*
X174760606Y-88169812D03*
X202955980Y-106046245D03*
X168106746Y-92070481D03*
X109982000Y-121412000D03*
X196596000Y-82550000D03*
X179578000Y-78486000D03*
X198119124Y-105926606D03*
X110744000Y-70358000D03*
X104140000Y-120904000D03*
X130048000Y-80264000D03*
X186182000Y-72898000D03*
X143256000Y-70104000D03*
X186074657Y-108340730D03*
X117602000Y-73660000D03*
X163068000Y-98806000D03*
X151189772Y-80134367D03*
X199644000Y-74168000D03*
X188513778Y-105687326D03*
X205232000Y-73152000D03*
X180594000Y-77470000D03*
X112522000Y-71628000D03*
X199644000Y-73152000D03*
X138430000Y-99314000D03*
X183735039Y-105894766D03*
X208280000Y-106426000D03*
X174111134Y-86870868D03*
X193196811Y-105687326D03*
X157226000Y-103124000D03*
X192024000Y-82042000D03*
X139192000Y-101346000D03*
X187960000Y-70358000D03*
X176948300Y-86768320D03*
X160528000Y-69850000D03*
X205232000Y-74168000D03*
X200660000Y-73152000D03*
X138130147Y-100284147D03*
X129794000Y-73660000D03*
X139700000Y-98552000D03*
X131064000Y-70612000D03*
X177016665Y-88135629D03*
X180594000Y-79502000D03*
X180742583Y-91365897D03*
X145542000Y-98298000D03*
X168167515Y-90771537D03*
X200529006Y-108268122D03*
X139192000Y-102870000D03*
X195580000Y-83312000D03*
X196088000Y-70612000D03*
X200660000Y-70358000D03*
X193350634Y-108370670D03*
X197982393Y-108302305D03*
X200660000Y-74168000D03*
X181177166Y-107142126D03*
X143510000Y-71120000D03*
X203075619Y-108302305D03*
X156718000Y-71882000D03*
X132694413Y-89124231D03*
X140208000Y-102108000D03*
X146812000Y-97790000D03*
X115316000Y-73660000D03*
X154178000Y-101600000D03*
X143002000Y-72136000D03*
X151166984Y-77369364D03*
X186436000Y-71374000D03*
X108966000Y-131572000D03*
X179614553Y-86717046D03*
X105410000Y-104648000D03*
X179222421Y-108301807D03*
X128524000Y-70358000D03*
X181610000Y-79756000D03*
X112268000Y-123952000D03*
X145925632Y-80134367D03*
X139791666Y-70319012D03*
X194056000Y-83058000D03*
X114554000Y-70612000D03*
X165211612Y-99029117D03*
X150004771Y-81380137D03*
X188976000Y-70866000D03*
X183388000Y-76200000D03*
X205365862Y-108251031D03*
X202904705Y-107071727D03*
X175717722Y-91314623D03*
X104902000Y-123190000D03*
X105410000Y-110998000D03*
X116332000Y-72136000D03*
X208280000Y-104648000D03*
X193213903Y-106934996D03*
X145895248Y-78721481D03*
X206248000Y-73152000D03*
X205232000Y-70358000D03*
X103886000Y-108712000D03*
X117348000Y-70358000D03*
X183598308Y-107011402D03*
X111760000Y-73660000D03*
X181610000Y-76708000D03*
X177800000Y-76200000D03*
X154940000Y-104394000D03*
X138176000Y-101854000D03*
X181356000Y-78486000D03*
X139446000Y-100076000D03*
X179578000Y-76708000D03*
X171367214Y-97278784D03*
X171897230Y-87930573D03*
X208280000Y-108458000D03*
X146558000Y-99060000D03*
X149098000Y-100824000D03*
X208534000Y-97536000D03*
X114200280Y-113426966D03*
X152294005Y-123136584D03*
X130048000Y-102362000D03*
X148619768Y-119345365D03*
X122270350Y-92632937D03*
X128677707Y-119274841D03*
X173228000Y-107950000D03*
X206248000Y-77216000D03*
X176445499Y-94865922D03*
X183642000Y-96520000D03*
X182372000Y-97790000D03*
X177292000Y-107188000D03*
X195834000Y-114300000D03*
X178054000Y-98044000D03*
X185420000Y-114300000D03*
X196460000Y-76572000D03*
X174498000Y-98552000D03*
X174752000Y-108458000D03*
X197866000Y-76708000D03*
X185928000Y-96520000D03*
X175768000Y-109220000D03*
X188976000Y-114300000D03*
X177038000Y-96774000D03*
X199644000Y-89662000D03*
X197612000Y-89154000D03*
X190500000Y-114300000D03*
X174244000Y-107188000D03*
X205740000Y-114300000D03*
X171958000Y-105918000D03*
X200914000Y-114554000D03*
X182097043Y-94831739D03*
X184150000Y-95250000D03*
X180340000Y-98044000D03*
X176022000Y-107442000D03*
X187706000Y-97282000D03*
X184658000Y-97790000D03*
X186436000Y-98298000D03*
X176022000Y-97790000D03*
X175066796Y-94865922D03*
X205232000Y-78486000D03*
X184150000Y-114300000D03*
X205740000Y-89916000D03*
X200406000Y-78486000D03*
X179070000Y-96266000D03*
X205232000Y-90932000D03*
X200152000Y-90932000D03*
X180524638Y-94854528D03*
X177915356Y-94877316D03*
X172720000Y-107188000D03*
X181356000Y-96520000D03*
X179294059Y-94877316D03*
X199898000Y-77216000D03*
X199644000Y-114300000D03*
X171958000Y-108204000D03*
X194564000Y-114300000D03*
X176530000Y-106172000D03*
X175514000Y-96520000D03*
X204216000Y-114300000D03*
X172974000Y-109220000D03*
X176530000Y-108204000D03*
X196342000Y-89154000D03*
X173736000Y-106172000D03*
X175006000Y-106172000D03*
X147828000Y-102616000D03*
X143151766Y-107727529D03*
X201930000Y-96266000D03*
X132842000Y-82550000D03*
X132199998Y-103045175D03*
X134989989Y-72490500D03*
X143002000Y-73551681D03*
X149352000Y-92710000D03*
X135890000Y-95504000D03*
X113425498Y-94118616D03*
X186187195Y-87757880D03*
X142874119Y-81209057D03*
X124999529Y-83406589D03*
X150368000Y-84836000D03*
X109474000Y-87589185D03*
X138303000Y-91821000D03*
X106161404Y-91582000D03*
X138268000Y-90678000D03*
X106172000Y-82550000D03*
X104394000Y-77470000D03*
X143002000Y-77470000D03*
X142959835Y-76117389D03*
X104902000Y-76108592D03*
X133118894Y-95705852D03*
X156464000Y-101854000D03*
X142775170Y-82462456D03*
X138430000Y-82470000D03*
X142984861Y-74852874D03*
X105664000Y-75184000D03*
X106178623Y-92573343D03*
X142859403Y-78631681D03*
X138430000Y-89662000D03*
X109418822Y-81583056D03*
X143529198Y-83731531D03*
X133858000Y-96012000D03*
X138176000Y-83740000D03*
X155859649Y-101134039D03*
X142861847Y-79915400D03*
X186221323Y-86472115D03*
X156066354Y-85841490D03*
X202987173Y-104449177D03*
X198149768Y-104443892D03*
X155378000Y-85090000D03*
X154778000Y-85765471D03*
X193383304Y-104453954D03*
X151130000Y-85598000D03*
X160705773Y-108123413D03*
X151975500Y-87301851D03*
X164172112Y-106883840D03*
X188590507Y-104444728D03*
X154178000Y-85090000D03*
X153416000Y-85598000D03*
X183810129Y-104443892D03*
X152654000Y-90424000D03*
X178816000Y-104453536D03*
X196342000Y-72644000D03*
X119380000Y-90678000D03*
X135632262Y-101284147D03*
X113030000Y-99314000D03*
X115570000Y-107442000D03*
X115316000Y-99314000D03*
X125984000Y-90932000D03*
X125984000Y-92710000D03*
X113030000Y-96774000D03*
X150036877Y-123081407D03*
X117856000Y-99314000D03*
X113030000Y-107442000D03*
X121412000Y-90678000D03*
X127254000Y-92710000D03*
X127254000Y-90932000D03*
X118110000Y-107442000D03*
X117348000Y-90678000D03*
X129803643Y-122808119D03*
X147066000Y-122682000D03*
X127254000Y-122428000D03*
D23*
X149098000Y-100824000D02*
X149098000Y-108712000D01*
X153416000Y-131826000D02*
X116332000Y-131826000D01*
X149098000Y-108712000D02*
X155956000Y-115570000D01*
X114200280Y-129694280D02*
X114200280Y-113426966D01*
X155956000Y-129286000D02*
X153416000Y-131826000D01*
X155956000Y-115570000D02*
X155956000Y-129286000D01*
X116332000Y-131826000D02*
X114200280Y-129694280D01*
D24*
X136652000Y-110490000D02*
X130048000Y-103886000D01*
X144272000Y-110490000D02*
X136652000Y-110490000D01*
X130048000Y-103886000D02*
X130048000Y-102362000D01*
X152294005Y-118512005D02*
X144272000Y-110490000D01*
X152294005Y-123136584D02*
X152294005Y-118512005D01*
X122270350Y-112867484D02*
X123448866Y-114046000D01*
X122270350Y-92632937D02*
X122270350Y-112867484D01*
X143320403Y-114046000D02*
X148619768Y-119345365D01*
X122270350Y-112867484D02*
X128677707Y-119274841D01*
X123448866Y-114046000D02*
X143320403Y-114046000D01*
X132199998Y-103045175D02*
X136882352Y-107727529D01*
X136882352Y-107727529D02*
X143151766Y-107727529D01*
D23*
X147828000Y-97536000D02*
X132842000Y-82550000D01*
X147828000Y-102616000D02*
X147828000Y-97536000D01*
D24*
X143002000Y-73551681D02*
X145687681Y-70866000D01*
X163068000Y-70866000D02*
X165100000Y-72898000D01*
X165100000Y-72898000D02*
X165100000Y-76200000D01*
X145687681Y-70866000D02*
X163068000Y-70866000D01*
X135890000Y-95504000D02*
X134366000Y-97028000D01*
X113425498Y-90790502D02*
X113425498Y-94118616D01*
X128270000Y-88900000D02*
X115316000Y-88900000D01*
X131826000Y-96266000D02*
X131826000Y-92456000D01*
X131826000Y-92456000D02*
X128270000Y-88900000D01*
X115316000Y-88900000D02*
X113425498Y-90790502D01*
X134366000Y-97028000D02*
X132588000Y-97028000D01*
X132588000Y-97028000D02*
X131826000Y-96266000D01*
X143947057Y-81209057D02*
X146558000Y-83820000D01*
X182249315Y-83820000D02*
X186187195Y-87757880D01*
X146558000Y-83820000D02*
X182249315Y-83820000D01*
X142874119Y-81209057D02*
X143947057Y-81209057D01*
X150368000Y-84836000D02*
X146558000Y-84836000D01*
X146558000Y-84836000D02*
X144018000Y-82296000D01*
X144018000Y-82296000D02*
X143532057Y-81810057D01*
X126596061Y-81810057D02*
X124999529Y-83406589D01*
X143532057Y-81810057D02*
X126596061Y-81810057D01*
X138303000Y-91821000D02*
X134071185Y-87589185D01*
X134071185Y-87589185D02*
X109474000Y-87589185D01*
X138268000Y-90678000D02*
X134458000Y-86868000D01*
X106161404Y-91582000D02*
X106161404Y-91506068D01*
X134458000Y-86868000D02*
X110490000Y-86868000D01*
X106172000Y-91495472D02*
X106172000Y-82550000D01*
X106161404Y-91506068D02*
X106172000Y-91495472D01*
X110490000Y-86868000D02*
X106172000Y-82550000D01*
X143002000Y-77470000D02*
X104394000Y-77470000D01*
X104902000Y-76108592D02*
X104910797Y-76117389D01*
X104910797Y-76117389D02*
X142959835Y-76117389D01*
X142775170Y-82462456D02*
X142775170Y-88927170D01*
X142775170Y-88927170D02*
X155702000Y-101854000D01*
X155702000Y-101854000D02*
X156464000Y-101854000D01*
X105664000Y-75184000D02*
X142653735Y-75184000D01*
X142653735Y-75184000D02*
X142984861Y-74852874D01*
X104394000Y-90788720D02*
X106178623Y-92573343D01*
X104394000Y-79756000D02*
X104394000Y-90788720D01*
X142859403Y-78631681D02*
X105518319Y-78631681D01*
X105518319Y-78631681D02*
X104394000Y-79756000D01*
X134874000Y-86106000D02*
X126492000Y-86106000D01*
X113941766Y-86106000D02*
X109418822Y-81583056D01*
X126492000Y-86106000D02*
X113941766Y-86106000D01*
X138430000Y-89662000D02*
X134874000Y-86106000D01*
X143529198Y-88803588D02*
X155859649Y-101134039D01*
X143529198Y-83731531D02*
X143529198Y-88803588D01*
X143923400Y-79915400D02*
X147066000Y-83058000D01*
X142861847Y-79915400D02*
X143923400Y-79915400D01*
X147066000Y-83058000D02*
X182807208Y-83058000D01*
X182807208Y-83058000D02*
X186221323Y-86472115D01*
X156066354Y-95106354D02*
X160782000Y-99822000D01*
X198359996Y-99822000D02*
X202987173Y-104449177D01*
X160782000Y-99822000D02*
X198359996Y-99822000D01*
X156066354Y-85841490D02*
X156066354Y-95106354D01*
X160782000Y-100584000D02*
X194289876Y-100584000D01*
X155378000Y-85090000D02*
X155378000Y-95180000D01*
X155378000Y-95180000D02*
X160782000Y-100584000D01*
X194289876Y-100584000D02*
X198149768Y-104443892D01*
X190529350Y-101600000D02*
X193383304Y-104453954D01*
X154778000Y-95342000D02*
X161036000Y-101600000D01*
X154778000Y-85765471D02*
X154778000Y-95342000D01*
X161036000Y-101600000D02*
X190529350Y-101600000D01*
X151130000Y-85598000D02*
X151130000Y-95504000D01*
X151130000Y-95504000D02*
X160705773Y-105079773D01*
X160705773Y-105079773D02*
X160705773Y-108123413D01*
X151975500Y-87301851D02*
X151975500Y-95587500D01*
X151975500Y-95587500D02*
X163271840Y-106883840D01*
X163271840Y-106883840D02*
X164172112Y-106883840D01*
X161290000Y-102616000D02*
X186761779Y-102616000D01*
X154178000Y-95504000D02*
X161290000Y-102616000D01*
X154178000Y-85090000D02*
X154178000Y-95504000D01*
X186761779Y-102616000D02*
X188590507Y-104444728D01*
X161544000Y-103632000D02*
X182998237Y-103632000D01*
X182998237Y-103632000D02*
X183810129Y-104443892D01*
X153416000Y-85598000D02*
X153416000Y-95504000D01*
X153416000Y-95504000D02*
X161544000Y-103632000D01*
X178816000Y-104453536D02*
X161603536Y-104453536D01*
X152654000Y-95504000D02*
X152654000Y-90424000D01*
X161603536Y-104453536D02*
X152654000Y-95504000D01*
D23*
X196342000Y-72644000D02*
X197088000Y-71898000D01*
X197088000Y-71898000D02*
X217958000Y-71898000D01*
G04 #@! TA.AperFunction,Conductor*
G36*
X178251039Y-105073721D02*
G01*
X178296794Y-105126525D01*
X178308000Y-105178036D01*
X178308000Y-109982000D01*
X179578000Y-109982000D01*
X179578000Y-113284000D01*
X170688000Y-113284000D01*
X170688000Y-105178036D01*
X170707685Y-105110997D01*
X170760489Y-105065242D01*
X170812000Y-105054036D01*
X178184000Y-105054036D01*
X178251039Y-105073721D01*
G37*
G04 #@! TD.AperFunction*
G04 #@! TA.AperFunction,Conductor*
G36*
X176473039Y-75457685D02*
G01*
X176518794Y-75510489D01*
X176530000Y-75562000D01*
X176530000Y-80772000D01*
X189106000Y-80772000D01*
X189173039Y-80791685D01*
X189218794Y-80844489D01*
X189230000Y-80896000D01*
X189230000Y-99097500D01*
X189210315Y-99164539D01*
X189157511Y-99210294D01*
X189106000Y-99221500D01*
X173270487Y-99221500D01*
X173203448Y-99201815D01*
X173157693Y-99149011D01*
X173147749Y-99079853D01*
X173161309Y-99038712D01*
X174244000Y-97028000D01*
X174244000Y-91818000D01*
X174263685Y-91750961D01*
X174316489Y-91705206D01*
X174368000Y-91694000D01*
X174942181Y-91694000D01*
X175009220Y-91713685D01*
X175045283Y-91749110D01*
X175095929Y-91824907D01*
X175095935Y-91824915D01*
X175207429Y-91936409D01*
X175207433Y-91936412D01*
X175338536Y-92024013D01*
X175338549Y-92024020D01*
X175484220Y-92084358D01*
X175484225Y-92084360D01*
X175638875Y-92115122D01*
X175638878Y-92115123D01*
X175638880Y-92115123D01*
X175796566Y-92115123D01*
X175796567Y-92115122D01*
X175951219Y-92084360D01*
X176096901Y-92024017D01*
X176228011Y-91936412D01*
X176339511Y-91824912D01*
X176388924Y-91750961D01*
X176390161Y-91749110D01*
X176443773Y-91704304D01*
X176493263Y-91694000D01*
X177477374Y-91694000D01*
X177544413Y-91713685D01*
X177580476Y-91749109D01*
X177642545Y-91842003D01*
X177754042Y-91953500D01*
X177754046Y-91953503D01*
X177885149Y-92041104D01*
X177885162Y-92041111D01*
X178030833Y-92101449D01*
X178030838Y-92101451D01*
X178185488Y-92132213D01*
X178185491Y-92132214D01*
X178185493Y-92132214D01*
X178343179Y-92132214D01*
X178343180Y-92132213D01*
X178497832Y-92101451D01*
X178643514Y-92041108D01*
X178774624Y-91953503D01*
X178886124Y-91842003D01*
X178902162Y-91818000D01*
X178948194Y-91749109D01*
X179001806Y-91704304D01*
X179051296Y-91694000D01*
X179932781Y-91694000D01*
X179999820Y-91713685D01*
X180035883Y-91749109D01*
X180120793Y-91876185D01*
X180120796Y-91876189D01*
X180232290Y-91987683D01*
X180232294Y-91987686D01*
X180363397Y-92075287D01*
X180363410Y-92075294D01*
X180500827Y-92132213D01*
X180509086Y-92135634D01*
X180663736Y-92166396D01*
X180663739Y-92166397D01*
X180663741Y-92166397D01*
X180821427Y-92166397D01*
X180821428Y-92166396D01*
X180976080Y-92135634D01*
X181121762Y-92075291D01*
X181252872Y-91987686D01*
X181364372Y-91876186D01*
X181403890Y-91817041D01*
X181449283Y-91749109D01*
X181502895Y-91704304D01*
X181552385Y-91694000D01*
X181610000Y-91694000D01*
X181610000Y-85344000D01*
X172844000Y-85344000D01*
X172776961Y-85324315D01*
X172731206Y-85271511D01*
X172720000Y-85220000D01*
X172720000Y-84544500D01*
X172739685Y-84477461D01*
X172792489Y-84431706D01*
X172844000Y-84420500D01*
X181949218Y-84420500D01*
X182016257Y-84440185D01*
X182036899Y-84456819D01*
X185352620Y-87772540D01*
X185386105Y-87833863D01*
X185386556Y-87836029D01*
X185417456Y-87991371D01*
X185417459Y-87991381D01*
X185477797Y-88137052D01*
X185477804Y-88137065D01*
X185565405Y-88268168D01*
X185565408Y-88268172D01*
X185676902Y-88379666D01*
X185676906Y-88379669D01*
X185808009Y-88467270D01*
X185808022Y-88467277D01*
X185922774Y-88514808D01*
X185953698Y-88527617D01*
X186061152Y-88548991D01*
X186108348Y-88558379D01*
X186108351Y-88558380D01*
X186108353Y-88558380D01*
X186266039Y-88558380D01*
X186266040Y-88558379D01*
X186420692Y-88527617D01*
X186566374Y-88467274D01*
X186697484Y-88379669D01*
X186808984Y-88268169D01*
X186896589Y-88137059D01*
X186956932Y-87991377D01*
X186987695Y-87836722D01*
X186987695Y-87679038D01*
X186987695Y-87679035D01*
X186987694Y-87679033D01*
X186956933Y-87524390D01*
X186956932Y-87524383D01*
X186930437Y-87460418D01*
X186896592Y-87378707D01*
X186896585Y-87378694D01*
X186808984Y-87247591D01*
X186808981Y-87247587D01*
X186781136Y-87219742D01*
X186747651Y-87158419D01*
X186752635Y-87088727D01*
X186781134Y-87044381D01*
X186843112Y-86982404D01*
X186930717Y-86851294D01*
X186991060Y-86705612D01*
X187021823Y-86550957D01*
X187021823Y-86393273D01*
X187021823Y-86393270D01*
X187021822Y-86393268D01*
X187010802Y-86337867D01*
X186991060Y-86238618D01*
X186952917Y-86146531D01*
X186930720Y-86092942D01*
X186930713Y-86092929D01*
X186843112Y-85961826D01*
X186843109Y-85961822D01*
X186731615Y-85850328D01*
X186731611Y-85850325D01*
X186600508Y-85762724D01*
X186600495Y-85762717D01*
X186454824Y-85702379D01*
X186454814Y-85702376D01*
X186299474Y-85671477D01*
X186237564Y-85639092D01*
X186235985Y-85637541D01*
X183294798Y-82696355D01*
X183294796Y-82696352D01*
X183175925Y-82577481D01*
X183175924Y-82577480D01*
X183089112Y-82527360D01*
X183089112Y-82527359D01*
X183089108Y-82527358D01*
X183038993Y-82498423D01*
X182886265Y-82457499D01*
X182728151Y-82457499D01*
X182720555Y-82457499D01*
X182720539Y-82457500D01*
X172844000Y-82457500D01*
X172776961Y-82437815D01*
X172731206Y-82385011D01*
X172720000Y-82333500D01*
X172720000Y-77929178D01*
X173246000Y-77929178D01*
X173246000Y-78424000D01*
X174000000Y-78424000D01*
X174000000Y-78924000D01*
X173246000Y-78924000D01*
X173246000Y-79418821D01*
X173274415Y-79598225D01*
X173330548Y-79770984D01*
X173413011Y-79932828D01*
X173519780Y-80079781D01*
X173519780Y-80079782D01*
X173648217Y-80208219D01*
X173795171Y-80314988D01*
X173957015Y-80397451D01*
X174129774Y-80453584D01*
X174150000Y-80456788D01*
X174150000Y-79589686D01*
X174154394Y-79594080D01*
X174245606Y-79646741D01*
X174347339Y-79674000D01*
X174452661Y-79674000D01*
X174554394Y-79646741D01*
X174645606Y-79594080D01*
X174650000Y-79589686D01*
X174650000Y-80456787D01*
X174670225Y-80453584D01*
X174842984Y-80397451D01*
X175004828Y-80314988D01*
X175151781Y-80208219D01*
X175151782Y-80208219D01*
X175280219Y-80079782D01*
X175280219Y-80079781D01*
X175386988Y-79932828D01*
X175469451Y-79770984D01*
X175525584Y-79598225D01*
X175554000Y-79418821D01*
X175554000Y-78924000D01*
X174800000Y-78924000D01*
X174800000Y-78424000D01*
X175554000Y-78424000D01*
X175554000Y-77929178D01*
X175525584Y-77749774D01*
X175469451Y-77577015D01*
X175386988Y-77415171D01*
X175280219Y-77268218D01*
X175280219Y-77268217D01*
X175151782Y-77139780D01*
X175004828Y-77033011D01*
X174842984Y-76950548D01*
X174670231Y-76894416D01*
X174670224Y-76894415D01*
X174650000Y-76891210D01*
X174650000Y-77758314D01*
X174645606Y-77753920D01*
X174554394Y-77701259D01*
X174452661Y-77674000D01*
X174347339Y-77674000D01*
X174245606Y-77701259D01*
X174154394Y-77753920D01*
X174150000Y-77758314D01*
X174150000Y-76891211D01*
X174149999Y-76891210D01*
X174129775Y-76894415D01*
X174129768Y-76894416D01*
X173957015Y-76950548D01*
X173795171Y-77033011D01*
X173648218Y-77139780D01*
X173648217Y-77139780D01*
X173519780Y-77268217D01*
X173519780Y-77268218D01*
X173413011Y-77415171D01*
X173330548Y-77577015D01*
X173274415Y-77749774D01*
X173246000Y-77929178D01*
X172720000Y-77929178D01*
X172720000Y-75562000D01*
X172739685Y-75494961D01*
X172792489Y-75449206D01*
X172844000Y-75438000D01*
X176406000Y-75438000D01*
X176473039Y-75457685D01*
G37*
G04 #@! TD.AperFunction*
G04 #@! TA.AperFunction,Conductor*
G36*
X166372415Y-93219168D02*
G01*
X166439381Y-93239100D01*
X166484941Y-93292072D01*
X166495956Y-93342637D01*
X166501600Y-94663044D01*
X166501601Y-94663045D01*
X166791613Y-95102844D01*
X167956358Y-95102844D01*
X168749689Y-94149880D01*
X168807709Y-94110951D01*
X168844988Y-94105215D01*
X170597361Y-94105215D01*
X170664400Y-94124900D01*
X170710155Y-94177704D01*
X170721361Y-94229215D01*
X170721361Y-96412086D01*
X170701676Y-96479125D01*
X170648872Y-96524880D01*
X170597462Y-96536086D01*
X164596353Y-96540950D01*
X164529297Y-96521320D01*
X164483499Y-96468553D01*
X164472252Y-96416950D01*
X164472252Y-95254097D01*
X164475608Y-95225444D01*
X164930611Y-93309638D01*
X164965254Y-93248963D01*
X165027201Y-93216648D01*
X165051703Y-93214294D01*
X166372415Y-93219168D01*
G37*
G04 #@! TD.AperFunction*
G04 #@! TA.AperFunction,Conductor*
G36*
X229414496Y-69334771D02*
G01*
X229702298Y-69352180D01*
X229720134Y-69354346D01*
X229999307Y-69405506D01*
X230016772Y-69409811D01*
X230287730Y-69494245D01*
X230304546Y-69500622D01*
X230563362Y-69617106D01*
X230579293Y-69625468D01*
X230822163Y-69772288D01*
X230836971Y-69782509D01*
X230913241Y-69842263D01*
X231060377Y-69957536D01*
X231073845Y-69969467D01*
X231274532Y-70170154D01*
X231286463Y-70183622D01*
X231461490Y-70407028D01*
X231471711Y-70421836D01*
X231618531Y-70664706D01*
X231626893Y-70680637D01*
X231743375Y-70939449D01*
X231749755Y-70956273D01*
X231834187Y-71227225D01*
X231838493Y-71244695D01*
X231889651Y-71523852D01*
X231891820Y-71541714D01*
X231909228Y-71829503D01*
X231909500Y-71838499D01*
X231909500Y-130853500D01*
X231909228Y-130862496D01*
X231891820Y-131150285D01*
X231889651Y-131168147D01*
X231838493Y-131447304D01*
X231834187Y-131464774D01*
X231749755Y-131735726D01*
X231743375Y-131752550D01*
X231626893Y-132011362D01*
X231618531Y-132027293D01*
X231471711Y-132270163D01*
X231461490Y-132284971D01*
X231286463Y-132508377D01*
X231274532Y-132521845D01*
X231073845Y-132722532D01*
X231060377Y-132734463D01*
X230836971Y-132909490D01*
X230822163Y-132919711D01*
X230579293Y-133066531D01*
X230563362Y-133074893D01*
X230304550Y-133191375D01*
X230287726Y-133197755D01*
X230016774Y-133282187D01*
X229999304Y-133286493D01*
X229720147Y-133337651D01*
X229702285Y-133339820D01*
X229414497Y-133357228D01*
X229405501Y-133357500D01*
X170329000Y-133357500D01*
X170254500Y-133337538D01*
X170199962Y-133283000D01*
X170180000Y-133208500D01*
X170180000Y-128910706D01*
X226009800Y-128910706D01*
X226009800Y-129153293D01*
X226041460Y-129393781D01*
X226041461Y-129393787D01*
X226041462Y-129393789D01*
X226104246Y-129628100D01*
X226197076Y-129852212D01*
X226318364Y-130062289D01*
X226466035Y-130254738D01*
X226637562Y-130426265D01*
X226830011Y-130573936D01*
X227040088Y-130695224D01*
X227264200Y-130788054D01*
X227498511Y-130850838D01*
X227498517Y-130850838D01*
X227498518Y-130850839D01*
X227518731Y-130853500D01*
X227739012Y-130882500D01*
X227981588Y-130882500D01*
X228222089Y-130850838D01*
X228456400Y-130788054D01*
X228680512Y-130695224D01*
X228890589Y-130573936D01*
X229083038Y-130426265D01*
X229254565Y-130254738D01*
X229402236Y-130062289D01*
X229523524Y-129852212D01*
X229616354Y-129628100D01*
X229679138Y-129393789D01*
X229710800Y-129153288D01*
X229710800Y-128910712D01*
X229679138Y-128670211D01*
X229616354Y-128435900D01*
X229523524Y-128211788D01*
X229402236Y-128001711D01*
X229254565Y-127809262D01*
X229083038Y-127637735D01*
X228890589Y-127490064D01*
X228820563Y-127449634D01*
X228680516Y-127368778D01*
X228680514Y-127368777D01*
X228680512Y-127368776D01*
X228549232Y-127314398D01*
X228456403Y-127275947D01*
X228456401Y-127275946D01*
X228456400Y-127275946D01*
X228222089Y-127213162D01*
X228222087Y-127213161D01*
X228222081Y-127213160D01*
X227981593Y-127181500D01*
X227981588Y-127181500D01*
X227739012Y-127181500D01*
X227739006Y-127181500D01*
X227498518Y-127213160D01*
X227264196Y-127275947D01*
X227040083Y-127368778D01*
X226830012Y-127490063D01*
X226830011Y-127490064D01*
X226637562Y-127637735D01*
X226637560Y-127637736D01*
X226637556Y-127637740D01*
X226466040Y-127809256D01*
X226318363Y-128001712D01*
X226197078Y-128211783D01*
X226104247Y-128435896D01*
X226041460Y-128670218D01*
X226009800Y-128910706D01*
X170180000Y-128910706D01*
X170180000Y-123011627D01*
X184674000Y-123011627D01*
X184674000Y-123208372D01*
X184704779Y-123402708D01*
X184765578Y-123589826D01*
X184765585Y-123589843D01*
X184854905Y-123765145D01*
X184880320Y-123800124D01*
X185441036Y-123239407D01*
X185458075Y-123302993D01*
X185523901Y-123417007D01*
X185616993Y-123510099D01*
X185731007Y-123575925D01*
X185794590Y-123592962D01*
X185233874Y-124153678D01*
X185268861Y-124179098D01*
X185444155Y-124268414D01*
X185444173Y-124268421D01*
X185631291Y-124329220D01*
X185825628Y-124360000D01*
X186022372Y-124360000D01*
X186216708Y-124329220D01*
X186403826Y-124268421D01*
X186403844Y-124268414D01*
X186579138Y-124179098D01*
X186614123Y-124153678D01*
X186053408Y-123592962D01*
X186116993Y-123575925D01*
X186231007Y-123510099D01*
X186324099Y-123417007D01*
X186389925Y-123302993D01*
X186406962Y-123239407D01*
X186967678Y-123800123D01*
X186993098Y-123765138D01*
X187082414Y-123589844D01*
X187082421Y-123589826D01*
X187143220Y-123402708D01*
X187174000Y-123208372D01*
X187174000Y-123011627D01*
X191674000Y-123011627D01*
X191674000Y-123208372D01*
X191704779Y-123402708D01*
X191765578Y-123589826D01*
X191765585Y-123589843D01*
X191854905Y-123765145D01*
X191880320Y-123800124D01*
X192441036Y-123239407D01*
X192458075Y-123302993D01*
X192523901Y-123417007D01*
X192616993Y-123510099D01*
X192731007Y-123575925D01*
X192794590Y-123592962D01*
X192233874Y-124153678D01*
X192268861Y-124179098D01*
X192444155Y-124268414D01*
X192444173Y-124268421D01*
X192631291Y-124329220D01*
X192825628Y-124360000D01*
X193022372Y-124360000D01*
X193216708Y-124329220D01*
X193403826Y-124268421D01*
X193403844Y-124268414D01*
X193579138Y-124179098D01*
X193614123Y-124153678D01*
X193053408Y-123592962D01*
X193116993Y-123575925D01*
X193231007Y-123510099D01*
X193324099Y-123417007D01*
X193389925Y-123302993D01*
X193406962Y-123239407D01*
X193967678Y-123800123D01*
X193993098Y-123765138D01*
X194082414Y-123589844D01*
X194082421Y-123589826D01*
X194143220Y-123402708D01*
X194174000Y-123208372D01*
X194174000Y-123011627D01*
X198674000Y-123011627D01*
X198674000Y-123208372D01*
X198704779Y-123402708D01*
X198765578Y-123589826D01*
X198765585Y-123589843D01*
X198854905Y-123765145D01*
X198880320Y-123800124D01*
X199441036Y-123239407D01*
X199458075Y-123302993D01*
X199523901Y-123417007D01*
X199616993Y-123510099D01*
X199731007Y-123575925D01*
X199794590Y-123592962D01*
X199233874Y-124153678D01*
X199268861Y-124179098D01*
X199444155Y-124268414D01*
X199444173Y-124268421D01*
X199631291Y-124329220D01*
X199825628Y-124360000D01*
X200022372Y-124360000D01*
X200216708Y-124329220D01*
X200403826Y-124268421D01*
X200403844Y-124268414D01*
X200579138Y-124179098D01*
X200614123Y-124153678D01*
X200053408Y-123592962D01*
X200116993Y-123575925D01*
X200231007Y-123510099D01*
X200324099Y-123417007D01*
X200389925Y-123302993D01*
X200406962Y-123239407D01*
X200967678Y-123800123D01*
X200993098Y-123765138D01*
X201082414Y-123589844D01*
X201082421Y-123589826D01*
X201143220Y-123402708D01*
X201174000Y-123208372D01*
X201174000Y-123011627D01*
X205674000Y-123011627D01*
X205674000Y-123208372D01*
X205704779Y-123402708D01*
X205765578Y-123589826D01*
X205765585Y-123589843D01*
X205854905Y-123765145D01*
X205880320Y-123800124D01*
X206441036Y-123239407D01*
X206458075Y-123302993D01*
X206523901Y-123417007D01*
X206616993Y-123510099D01*
X206731007Y-123575925D01*
X206794590Y-123592962D01*
X206233874Y-124153678D01*
X206268861Y-124179098D01*
X206444155Y-124268414D01*
X206444173Y-124268421D01*
X206631291Y-124329220D01*
X206825628Y-124360000D01*
X207022372Y-124360000D01*
X207216708Y-124329220D01*
X207403826Y-124268421D01*
X207403844Y-124268414D01*
X207579138Y-124179098D01*
X207614123Y-124153678D01*
X207053408Y-123592962D01*
X207116993Y-123575925D01*
X207231007Y-123510099D01*
X207324099Y-123417007D01*
X207389925Y-123302993D01*
X207406962Y-123239407D01*
X207967678Y-123800123D01*
X207993098Y-123765138D01*
X208082414Y-123589844D01*
X208082421Y-123589826D01*
X208143220Y-123402708D01*
X208174000Y-123208372D01*
X208174000Y-123011627D01*
X212674000Y-123011627D01*
X212674000Y-123208372D01*
X212704779Y-123402708D01*
X212765578Y-123589826D01*
X212765585Y-123589843D01*
X212854905Y-123765145D01*
X212880320Y-123800124D01*
X213441036Y-123239407D01*
X213458075Y-123302993D01*
X213523901Y-123417007D01*
X213616993Y-123510099D01*
X213731007Y-123575925D01*
X213794590Y-123592962D01*
X213233874Y-124153678D01*
X213268861Y-124179098D01*
X213444155Y-124268414D01*
X213444173Y-124268421D01*
X213631291Y-124329220D01*
X213825628Y-124360000D01*
X214022372Y-124360000D01*
X214216708Y-124329220D01*
X214403826Y-124268421D01*
X214403844Y-124268414D01*
X214579138Y-124179098D01*
X214614123Y-124153678D01*
X214053408Y-123592962D01*
X214116993Y-123575925D01*
X214231007Y-123510099D01*
X214324099Y-123417007D01*
X214389925Y-123302993D01*
X214406962Y-123239407D01*
X214967678Y-123800123D01*
X214993098Y-123765138D01*
X215082414Y-123589844D01*
X215082421Y-123589826D01*
X215143220Y-123402708D01*
X215174000Y-123208372D01*
X215174000Y-123011627D01*
X219674000Y-123011627D01*
X219674000Y-123208372D01*
X219704779Y-123402708D01*
X219765578Y-123589826D01*
X219765585Y-123589843D01*
X219854905Y-123765145D01*
X219880320Y-123800124D01*
X220441036Y-123239407D01*
X220458075Y-123302993D01*
X220523901Y-123417007D01*
X220616993Y-123510099D01*
X220731007Y-123575925D01*
X220794590Y-123592962D01*
X220233874Y-124153678D01*
X220268861Y-124179098D01*
X220444155Y-124268414D01*
X220444173Y-124268421D01*
X220631291Y-124329220D01*
X220825628Y-124360000D01*
X221022372Y-124360000D01*
X221216708Y-124329220D01*
X221403826Y-124268421D01*
X221403844Y-124268414D01*
X221579138Y-124179098D01*
X221614123Y-124153678D01*
X221053408Y-123592962D01*
X221116993Y-123575925D01*
X221231007Y-123510099D01*
X221324099Y-123417007D01*
X221389925Y-123302993D01*
X221406962Y-123239407D01*
X221967678Y-123800123D01*
X221993098Y-123765138D01*
X222082414Y-123589844D01*
X222082421Y-123589826D01*
X222143220Y-123402708D01*
X222174000Y-123208372D01*
X222174000Y-123011627D01*
X222143220Y-122817291D01*
X222082421Y-122630173D01*
X222082414Y-122630155D01*
X221993098Y-122454861D01*
X221967678Y-122419874D01*
X221406962Y-122980590D01*
X221389925Y-122917007D01*
X221324099Y-122802993D01*
X221231007Y-122709901D01*
X221116993Y-122644075D01*
X221053407Y-122627036D01*
X221614124Y-122066320D01*
X221614124Y-122066319D01*
X221579145Y-122040905D01*
X221403843Y-121951585D01*
X221403826Y-121951578D01*
X221216708Y-121890779D01*
X221022372Y-121860000D01*
X220825628Y-121860000D01*
X220631291Y-121890779D01*
X220444173Y-121951578D01*
X220444155Y-121951585D01*
X220268860Y-122040901D01*
X220268859Y-122040902D01*
X220233874Y-122066319D01*
X220794591Y-122627037D01*
X220731007Y-122644075D01*
X220616993Y-122709901D01*
X220523901Y-122802993D01*
X220458075Y-122917007D01*
X220441037Y-122980591D01*
X219880319Y-122419874D01*
X219854902Y-122454859D01*
X219854901Y-122454860D01*
X219765585Y-122630155D01*
X219765578Y-122630173D01*
X219704779Y-122817291D01*
X219674000Y-123011627D01*
X215174000Y-123011627D01*
X215143220Y-122817291D01*
X215082421Y-122630173D01*
X215082414Y-122630155D01*
X214993098Y-122454861D01*
X214967678Y-122419874D01*
X214406962Y-122980590D01*
X214389925Y-122917007D01*
X214324099Y-122802993D01*
X214231007Y-122709901D01*
X214116993Y-122644075D01*
X214053407Y-122627036D01*
X214614124Y-122066320D01*
X214614124Y-122066319D01*
X214579145Y-122040905D01*
X214403843Y-121951585D01*
X214403826Y-121951578D01*
X214216708Y-121890779D01*
X214022372Y-121860000D01*
X213825628Y-121860000D01*
X213631291Y-121890779D01*
X213444173Y-121951578D01*
X213444155Y-121951585D01*
X213268860Y-122040901D01*
X213268859Y-122040902D01*
X213233874Y-122066319D01*
X213794591Y-122627037D01*
X213731007Y-122644075D01*
X213616993Y-122709901D01*
X213523901Y-122802993D01*
X213458075Y-122917007D01*
X213441037Y-122980591D01*
X212880319Y-122419874D01*
X212854902Y-122454859D01*
X212854901Y-122454860D01*
X212765585Y-122630155D01*
X212765578Y-122630173D01*
X212704779Y-122817291D01*
X212674000Y-123011627D01*
X208174000Y-123011627D01*
X208143220Y-122817291D01*
X208082421Y-122630173D01*
X208082414Y-122630155D01*
X207993098Y-122454861D01*
X207967678Y-122419874D01*
X207406962Y-122980590D01*
X207389925Y-122917007D01*
X207324099Y-122802993D01*
X207231007Y-122709901D01*
X207116993Y-122644075D01*
X207053407Y-122627036D01*
X207614124Y-122066320D01*
X207614124Y-122066319D01*
X207579145Y-122040905D01*
X207403843Y-121951585D01*
X207403826Y-121951578D01*
X207216708Y-121890779D01*
X207022372Y-121860000D01*
X206825628Y-121860000D01*
X206631291Y-121890779D01*
X206444173Y-121951578D01*
X206444155Y-121951585D01*
X206268860Y-122040901D01*
X206268859Y-122040902D01*
X206233874Y-122066319D01*
X206794591Y-122627037D01*
X206731007Y-122644075D01*
X206616993Y-122709901D01*
X206523901Y-122802993D01*
X206458075Y-122917007D01*
X206441037Y-122980591D01*
X205880319Y-122419874D01*
X205854902Y-122454859D01*
X205854901Y-122454860D01*
X205765585Y-122630155D01*
X205765578Y-122630173D01*
X205704779Y-122817291D01*
X205674000Y-123011627D01*
X201174000Y-123011627D01*
X201143220Y-122817291D01*
X201082421Y-122630173D01*
X201082414Y-122630155D01*
X200993098Y-122454861D01*
X200967678Y-122419874D01*
X200406962Y-122980590D01*
X200389925Y-122917007D01*
X200324099Y-122802993D01*
X200231007Y-122709901D01*
X200116993Y-122644075D01*
X200053407Y-122627036D01*
X200614124Y-122066320D01*
X200614124Y-122066319D01*
X200579145Y-122040905D01*
X200403843Y-121951585D01*
X200403826Y-121951578D01*
X200216708Y-121890779D01*
X200022372Y-121860000D01*
X199825628Y-121860000D01*
X199631291Y-121890779D01*
X199444173Y-121951578D01*
X199444155Y-121951585D01*
X199268860Y-122040901D01*
X199268859Y-122040902D01*
X199233874Y-122066319D01*
X199794591Y-122627037D01*
X199731007Y-122644075D01*
X199616993Y-122709901D01*
X199523901Y-122802993D01*
X199458075Y-122917007D01*
X199441037Y-122980591D01*
X198880319Y-122419874D01*
X198854902Y-122454859D01*
X198854901Y-122454860D01*
X198765585Y-122630155D01*
X198765578Y-122630173D01*
X198704779Y-122817291D01*
X198674000Y-123011627D01*
X194174000Y-123011627D01*
X194143220Y-122817291D01*
X194082421Y-122630173D01*
X194082414Y-122630155D01*
X193993098Y-122454861D01*
X193967678Y-122419874D01*
X193406962Y-122980590D01*
X193389925Y-122917007D01*
X193324099Y-122802993D01*
X193231007Y-122709901D01*
X193116993Y-122644075D01*
X193053407Y-122627036D01*
X193614124Y-122066320D01*
X193614124Y-122066319D01*
X193579145Y-122040905D01*
X193403843Y-121951585D01*
X193403826Y-121951578D01*
X193216708Y-121890779D01*
X193022372Y-121860000D01*
X192825628Y-121860000D01*
X192631291Y-121890779D01*
X192444173Y-121951578D01*
X192444155Y-121951585D01*
X192268860Y-122040901D01*
X192268859Y-122040902D01*
X192233874Y-122066319D01*
X192794591Y-122627037D01*
X192731007Y-122644075D01*
X192616993Y-122709901D01*
X192523901Y-122802993D01*
X192458075Y-122917007D01*
X192441037Y-122980591D01*
X191880319Y-122419874D01*
X191854902Y-122454859D01*
X191854901Y-122454860D01*
X191765585Y-122630155D01*
X191765578Y-122630173D01*
X191704779Y-122817291D01*
X191674000Y-123011627D01*
X187174000Y-123011627D01*
X187143220Y-122817291D01*
X187082421Y-122630173D01*
X187082414Y-122630155D01*
X186993098Y-122454861D01*
X186967678Y-122419874D01*
X186406962Y-122980590D01*
X186389925Y-122917007D01*
X186324099Y-122802993D01*
X186231007Y-122709901D01*
X186116993Y-122644075D01*
X186053407Y-122627036D01*
X186614124Y-122066320D01*
X186614124Y-122066319D01*
X186579145Y-122040905D01*
X186403843Y-121951585D01*
X186403826Y-121951578D01*
X186216708Y-121890779D01*
X186022372Y-121860000D01*
X185825628Y-121860000D01*
X185631291Y-121890779D01*
X185444173Y-121951578D01*
X185444155Y-121951585D01*
X185268860Y-122040901D01*
X185268859Y-122040902D01*
X185233874Y-122066319D01*
X185794591Y-122627037D01*
X185731007Y-122644075D01*
X185616993Y-122709901D01*
X185523901Y-122802993D01*
X185458075Y-122917007D01*
X185441037Y-122980591D01*
X184880319Y-122419874D01*
X184854902Y-122454859D01*
X184854901Y-122454860D01*
X184765585Y-122630155D01*
X184765578Y-122630173D01*
X184704779Y-122817291D01*
X184674000Y-123011627D01*
X170180000Y-123011627D01*
X170180000Y-117312114D01*
X181173500Y-117312114D01*
X181173500Y-118907863D01*
X181173502Y-118907888D01*
X181179908Y-118967478D01*
X181179909Y-118967484D01*
X181230202Y-119102329D01*
X181230204Y-119102333D01*
X181316452Y-119217544D01*
X181316455Y-119217547D01*
X181431666Y-119303795D01*
X181431670Y-119303797D01*
X181566517Y-119354091D01*
X181626114Y-119360499D01*
X181626118Y-119360499D01*
X181626127Y-119360500D01*
X183221872Y-119360499D01*
X183281483Y-119354091D01*
X183377447Y-119318298D01*
X183416329Y-119303797D01*
X183416333Y-119303795D01*
X183473938Y-119260671D01*
X183531546Y-119217546D01*
X183617796Y-119102331D01*
X183632155Y-119063834D01*
X183638174Y-119047693D01*
X183668091Y-118967483D01*
X183672698Y-118924636D01*
X183674499Y-118907885D01*
X183674499Y-118907882D01*
X183674500Y-118907873D01*
X183674499Y-118011583D01*
X188173500Y-118011583D01*
X188173500Y-118208417D01*
X188204291Y-118402826D01*
X188265116Y-118590025D01*
X188265119Y-118590030D01*
X188265121Y-118590036D01*
X188349179Y-118755010D01*
X188354476Y-118765405D01*
X188470172Y-118924646D01*
X188609354Y-119063828D01*
X188768595Y-119179524D01*
X188943975Y-119268884D01*
X189131174Y-119329709D01*
X189325583Y-119360500D01*
X189325588Y-119360500D01*
X189522412Y-119360500D01*
X189522417Y-119360500D01*
X189716826Y-119329709D01*
X189904025Y-119268884D01*
X190079405Y-119179524D01*
X190238646Y-119063828D01*
X190377828Y-118924646D01*
X190493524Y-118765405D01*
X190582884Y-118590025D01*
X190643709Y-118402826D01*
X190674500Y-118208417D01*
X190674500Y-118011583D01*
X195173500Y-118011583D01*
X195173500Y-118208417D01*
X195204291Y-118402826D01*
X195265116Y-118590025D01*
X195265119Y-118590030D01*
X195265121Y-118590036D01*
X195349179Y-118755010D01*
X195354476Y-118765405D01*
X195470172Y-118924646D01*
X195609354Y-119063828D01*
X195768595Y-119179524D01*
X195943975Y-119268884D01*
X196131174Y-119329709D01*
X196325583Y-119360500D01*
X196325588Y-119360500D01*
X196522412Y-119360500D01*
X196522417Y-119360500D01*
X196716826Y-119329709D01*
X196904025Y-119268884D01*
X197079405Y-119179524D01*
X197238646Y-119063828D01*
X197377828Y-118924646D01*
X197493524Y-118765405D01*
X197582884Y-118590025D01*
X197643709Y-118402826D01*
X197674500Y-118208417D01*
X197674500Y-118011583D01*
X202173500Y-118011583D01*
X202173500Y-118208417D01*
X202204291Y-118402826D01*
X202265116Y-118590025D01*
X202265119Y-118590030D01*
X202265121Y-118590036D01*
X202349179Y-118755010D01*
X202354476Y-118765405D01*
X202470172Y-118924646D01*
X202609354Y-119063828D01*
X202768595Y-119179524D01*
X202943975Y-119268884D01*
X203131174Y-119329709D01*
X203325583Y-119360500D01*
X203325588Y-119360500D01*
X203522412Y-119360500D01*
X203522417Y-119360500D01*
X203716826Y-119329709D01*
X203904025Y-119268884D01*
X204079405Y-119179524D01*
X204238646Y-119063828D01*
X204377828Y-118924646D01*
X204493524Y-118765405D01*
X204582884Y-118590025D01*
X204643709Y-118402826D01*
X204674500Y-118208417D01*
X204674500Y-118011583D01*
X209173500Y-118011583D01*
X209173500Y-118208417D01*
X209204291Y-118402826D01*
X209265116Y-118590025D01*
X209265119Y-118590030D01*
X209265121Y-118590036D01*
X209349179Y-118755010D01*
X209354476Y-118765405D01*
X209470172Y-118924646D01*
X209609354Y-119063828D01*
X209768595Y-119179524D01*
X209943975Y-119268884D01*
X210131174Y-119329709D01*
X210325583Y-119360500D01*
X210325588Y-119360500D01*
X210522412Y-119360500D01*
X210522417Y-119360500D01*
X210716826Y-119329709D01*
X210904025Y-119268884D01*
X211079405Y-119179524D01*
X211238646Y-119063828D01*
X211377828Y-118924646D01*
X211493524Y-118765405D01*
X211582884Y-118590025D01*
X211643709Y-118402826D01*
X211674500Y-118208417D01*
X211674500Y-118011583D01*
X216173500Y-118011583D01*
X216173500Y-118208417D01*
X216204291Y-118402826D01*
X216265116Y-118590025D01*
X216265119Y-118590030D01*
X216265121Y-118590036D01*
X216349179Y-118755010D01*
X216354476Y-118765405D01*
X216470172Y-118924646D01*
X216609354Y-119063828D01*
X216768595Y-119179524D01*
X216943975Y-119268884D01*
X217131174Y-119329709D01*
X217325583Y-119360500D01*
X217325588Y-119360500D01*
X217522412Y-119360500D01*
X217522417Y-119360500D01*
X217716826Y-119329709D01*
X217904025Y-119268884D01*
X218079405Y-119179524D01*
X218238646Y-119063828D01*
X218377828Y-118924646D01*
X218493524Y-118765405D01*
X218582884Y-118590025D01*
X218643709Y-118402826D01*
X218674500Y-118208417D01*
X218674500Y-118011583D01*
X218643709Y-117817174D01*
X218582884Y-117629975D01*
X218493524Y-117454595D01*
X218377828Y-117295354D01*
X218238646Y-117156172D01*
X218079405Y-117040476D01*
X218069010Y-117035179D01*
X217904036Y-116951121D01*
X217904030Y-116951119D01*
X217904025Y-116951116D01*
X217716826Y-116890291D01*
X217522417Y-116859500D01*
X217325583Y-116859500D01*
X217131174Y-116890291D01*
X216943975Y-116951116D01*
X216943972Y-116951117D01*
X216943963Y-116951121D01*
X216768598Y-117040474D01*
X216768593Y-117040477D01*
X216609363Y-117156165D01*
X216609352Y-117156174D01*
X216470174Y-117295352D01*
X216470165Y-117295363D01*
X216354477Y-117454593D01*
X216354474Y-117454598D01*
X216265121Y-117629963D01*
X216265117Y-117629972D01*
X216265116Y-117629975D01*
X216204291Y-117817174D01*
X216173500Y-118011583D01*
X211674500Y-118011583D01*
X211643709Y-117817174D01*
X211582884Y-117629975D01*
X211493524Y-117454595D01*
X211377828Y-117295354D01*
X211238646Y-117156172D01*
X211079405Y-117040476D01*
X211069010Y-117035179D01*
X210904036Y-116951121D01*
X210904030Y-116951119D01*
X210904025Y-116951116D01*
X210716826Y-116890291D01*
X210522417Y-116859500D01*
X210325583Y-116859500D01*
X210131174Y-116890291D01*
X209943975Y-116951116D01*
X209943972Y-116951117D01*
X209943963Y-116951121D01*
X209768598Y-117040474D01*
X209768593Y-117040477D01*
X209609363Y-117156165D01*
X209609352Y-117156174D01*
X209470174Y-117295352D01*
X209470165Y-117295363D01*
X209354477Y-117454593D01*
X209354474Y-117454598D01*
X209265121Y-117629963D01*
X209265117Y-117629972D01*
X209265116Y-117629975D01*
X209204291Y-117817174D01*
X209173500Y-118011583D01*
X204674500Y-118011583D01*
X204643709Y-117817174D01*
X204582884Y-117629975D01*
X204493524Y-117454595D01*
X204377828Y-117295354D01*
X204238646Y-117156172D01*
X204079405Y-117040476D01*
X204069010Y-117035179D01*
X203904036Y-116951121D01*
X203904030Y-116951119D01*
X203904025Y-116951116D01*
X203716826Y-116890291D01*
X203522417Y-116859500D01*
X203325583Y-116859500D01*
X203131174Y-116890291D01*
X202943975Y-116951116D01*
X202943972Y-116951117D01*
X202943963Y-116951121D01*
X202768598Y-117040474D01*
X202768593Y-117040477D01*
X202609363Y-117156165D01*
X202609352Y-117156174D01*
X202470174Y-117295352D01*
X202470165Y-117295363D01*
X202354477Y-117454593D01*
X202354474Y-117454598D01*
X202265121Y-117629963D01*
X202265117Y-117629972D01*
X202265116Y-117629975D01*
X202204291Y-117817174D01*
X202173500Y-118011583D01*
X197674500Y-118011583D01*
X197643709Y-117817174D01*
X197582884Y-117629975D01*
X197493524Y-117454595D01*
X197377828Y-117295354D01*
X197238646Y-117156172D01*
X197079405Y-117040476D01*
X197069010Y-117035179D01*
X196904036Y-116951121D01*
X196904030Y-116951119D01*
X196904025Y-116951116D01*
X196716826Y-116890291D01*
X196522417Y-116859500D01*
X196325583Y-116859500D01*
X196131174Y-116890291D01*
X195943975Y-116951116D01*
X195943972Y-116951117D01*
X195943963Y-116951121D01*
X195768598Y-117040474D01*
X195768593Y-117040477D01*
X195609363Y-117156165D01*
X195609352Y-117156174D01*
X195470174Y-117295352D01*
X195470165Y-117295363D01*
X195354477Y-117454593D01*
X195354474Y-117454598D01*
X195265121Y-117629963D01*
X195265117Y-117629972D01*
X195265116Y-117629975D01*
X195204291Y-117817174D01*
X195173500Y-118011583D01*
X190674500Y-118011583D01*
X190643709Y-117817174D01*
X190582884Y-117629975D01*
X190493524Y-117454595D01*
X190377828Y-117295354D01*
X190238646Y-117156172D01*
X190079405Y-117040476D01*
X190069010Y-117035179D01*
X189904036Y-116951121D01*
X189904030Y-116951119D01*
X189904025Y-116951116D01*
X189716826Y-116890291D01*
X189522417Y-116859500D01*
X189325583Y-116859500D01*
X189131174Y-116890291D01*
X188943975Y-116951116D01*
X188943972Y-116951117D01*
X188943963Y-116951121D01*
X188768598Y-117040474D01*
X188768593Y-117040477D01*
X188609363Y-117156165D01*
X188609352Y-117156174D01*
X188470174Y-117295352D01*
X188470165Y-117295363D01*
X188354477Y-117454593D01*
X188354474Y-117454598D01*
X188265121Y-117629963D01*
X188265117Y-117629972D01*
X188265116Y-117629975D01*
X188204291Y-117817174D01*
X188173500Y-118011583D01*
X183674499Y-118011583D01*
X183674499Y-117312128D01*
X183668091Y-117252517D01*
X183653588Y-117213633D01*
X183617797Y-117117670D01*
X183617795Y-117117666D01*
X183531547Y-117002455D01*
X183531544Y-117002452D01*
X183416333Y-116916204D01*
X183416329Y-116916202D01*
X183281482Y-116865908D01*
X183221876Y-116859500D01*
X181626136Y-116859500D01*
X181626111Y-116859502D01*
X181566521Y-116865908D01*
X181566515Y-116865909D01*
X181431670Y-116916202D01*
X181431666Y-116916204D01*
X181316455Y-117002452D01*
X181316452Y-117002455D01*
X181230204Y-117117666D01*
X181230202Y-117117670D01*
X181179908Y-117252517D01*
X181173500Y-117312114D01*
X170180000Y-117312114D01*
X170180000Y-110131000D01*
X170199962Y-110056500D01*
X170254500Y-110001962D01*
X170329000Y-109982000D01*
X170688000Y-109982000D01*
X214376000Y-109982000D01*
X214376000Y-108802177D01*
X216704000Y-108802177D01*
X216704000Y-109354000D01*
X217524988Y-109354000D01*
X217492075Y-109411007D01*
X217458000Y-109538174D01*
X217458000Y-109669826D01*
X217492075Y-109796993D01*
X217524988Y-109854000D01*
X216704000Y-109854000D01*
X216704000Y-110405822D01*
X216704001Y-110405842D01*
X216710401Y-110465377D01*
X216760645Y-110600084D01*
X216760650Y-110600094D01*
X216846809Y-110715187D01*
X216846812Y-110715190D01*
X216961905Y-110801349D01*
X216961915Y-110801354D01*
X217096623Y-110851598D01*
X217096621Y-110851598D01*
X217156157Y-110857998D01*
X217156177Y-110858000D01*
X217708000Y-110858000D01*
X217708000Y-110037012D01*
X217765007Y-110069925D01*
X217892174Y-110104000D01*
X218023826Y-110104000D01*
X218150993Y-110069925D01*
X218208000Y-110037012D01*
X218208000Y-110858000D01*
X218759823Y-110858000D01*
X218759842Y-110857998D01*
X218819377Y-110851598D01*
X218954084Y-110801354D01*
X218954094Y-110801349D01*
X219069187Y-110715190D01*
X219069190Y-110715187D01*
X219155349Y-110600094D01*
X219155354Y-110600084D01*
X219205598Y-110465377D01*
X219211998Y-110405842D01*
X219212000Y-110405822D01*
X219212000Y-109854000D01*
X218391012Y-109854000D01*
X218423925Y-109796993D01*
X218458000Y-109669826D01*
X218458000Y-109538174D01*
X218423925Y-109411007D01*
X218391012Y-109354000D01*
X219212000Y-109354000D01*
X219212000Y-108802177D01*
X219211998Y-108802157D01*
X219205598Y-108742622D01*
X219155354Y-108607915D01*
X219155349Y-108607905D01*
X219069190Y-108492812D01*
X219069187Y-108492809D01*
X218954094Y-108406650D01*
X218954084Y-108406645D01*
X218819376Y-108356401D01*
X218819378Y-108356401D01*
X218759842Y-108350001D01*
X218759823Y-108350000D01*
X218208000Y-108350000D01*
X218208000Y-109170988D01*
X218150993Y-109138075D01*
X218023826Y-109104000D01*
X217892174Y-109104000D01*
X217765007Y-109138075D01*
X217708000Y-109170988D01*
X217708000Y-108350000D01*
X217156177Y-108350000D01*
X217156157Y-108350001D01*
X217096622Y-108356401D01*
X216961915Y-108406645D01*
X216961905Y-108406650D01*
X216846812Y-108492809D01*
X216846809Y-108492812D01*
X216760650Y-108607905D01*
X216760645Y-108607915D01*
X216710401Y-108742622D01*
X216704001Y-108802157D01*
X216704000Y-108802177D01*
X214376000Y-108802177D01*
X214376000Y-102505269D01*
X216703500Y-102505269D01*
X216703500Y-102702731D01*
X216717228Y-102789411D01*
X216734390Y-102897768D01*
X216795410Y-103085565D01*
X216885054Y-103261497D01*
X216885057Y-103261503D01*
X216943088Y-103341376D01*
X217001121Y-103421252D01*
X217140748Y-103560879D01*
X217300499Y-103676944D01*
X217367449Y-103711057D01*
X217476434Y-103766589D01*
X217476436Y-103766589D01*
X217476439Y-103766591D01*
X217647288Y-103822103D01*
X217664231Y-103827608D01*
X217664231Y-103827609D01*
X217664236Y-103827609D01*
X217664237Y-103827610D01*
X217859269Y-103858500D01*
X217859273Y-103858500D01*
X218056727Y-103858500D01*
X218056731Y-103858500D01*
X218251763Y-103827610D01*
X218251764Y-103827609D01*
X218251768Y-103827609D01*
X218251768Y-103827608D01*
X218439561Y-103766591D01*
X218615501Y-103676944D01*
X218775252Y-103560879D01*
X218914879Y-103421252D01*
X219030944Y-103261501D01*
X219120591Y-103085561D01*
X219181608Y-102897768D01*
X219181609Y-102897768D01*
X219189526Y-102847784D01*
X219212500Y-102702731D01*
X219212500Y-102505269D01*
X219181610Y-102310237D01*
X219181609Y-102310236D01*
X219181609Y-102310231D01*
X219120589Y-102122434D01*
X219042264Y-101968716D01*
X219030944Y-101946499D01*
X218914879Y-101786748D01*
X218775252Y-101647121D01*
X218695376Y-101589088D01*
X218615503Y-101531057D01*
X218615497Y-101531054D01*
X218439565Y-101441410D01*
X218251768Y-101380391D01*
X218251768Y-101380390D01*
X218143411Y-101363228D01*
X218056731Y-101349500D01*
X217859269Y-101349500D01*
X217781256Y-101361856D01*
X217664231Y-101380390D01*
X217664231Y-101380391D01*
X217476434Y-101441410D01*
X217300502Y-101531054D01*
X217300496Y-101531057D01*
X217140749Y-101647120D01*
X217140746Y-101647122D01*
X217001122Y-101786746D01*
X217001120Y-101786749D01*
X216885057Y-101946496D01*
X216885054Y-101946502D01*
X216795410Y-102122434D01*
X216734391Y-102310231D01*
X216734390Y-102310231D01*
X216713796Y-102440258D01*
X216703500Y-102505269D01*
X214376000Y-102505269D01*
X214376000Y-95086177D01*
X216704000Y-95086177D01*
X216704000Y-95638000D01*
X217524988Y-95638000D01*
X217492075Y-95695007D01*
X217458000Y-95822174D01*
X217458000Y-95953826D01*
X217492075Y-96080993D01*
X217524988Y-96138000D01*
X216704000Y-96138000D01*
X216704000Y-96689822D01*
X216704001Y-96689842D01*
X216710401Y-96749377D01*
X216760645Y-96884084D01*
X216760650Y-96884094D01*
X216846809Y-96999187D01*
X216846812Y-96999190D01*
X216961905Y-97085349D01*
X216961915Y-97085354D01*
X217096623Y-97135598D01*
X217096621Y-97135598D01*
X217156157Y-97141998D01*
X217156177Y-97142000D01*
X217708000Y-97142000D01*
X217708000Y-96321012D01*
X217765007Y-96353925D01*
X217892174Y-96388000D01*
X218023826Y-96388000D01*
X218150993Y-96353925D01*
X218208000Y-96321012D01*
X218208000Y-97142000D01*
X218759823Y-97142000D01*
X218759842Y-97141998D01*
X218819377Y-97135598D01*
X218954084Y-97085354D01*
X218954094Y-97085349D01*
X219069187Y-96999190D01*
X219069190Y-96999187D01*
X219155349Y-96884094D01*
X219155354Y-96884084D01*
X219205598Y-96749377D01*
X219211998Y-96689842D01*
X219212000Y-96689822D01*
X219212000Y-96138000D01*
X218391012Y-96138000D01*
X218423925Y-96080993D01*
X218458000Y-95953826D01*
X218458000Y-95822174D01*
X218423925Y-95695007D01*
X218391012Y-95638000D01*
X219212000Y-95638000D01*
X219212000Y-95086177D01*
X219211998Y-95086157D01*
X219205598Y-95026622D01*
X219155354Y-94891915D01*
X219155349Y-94891905D01*
X219069190Y-94776812D01*
X219069187Y-94776809D01*
X218954094Y-94690650D01*
X218954084Y-94690645D01*
X218819376Y-94640401D01*
X218819378Y-94640401D01*
X218759842Y-94634001D01*
X218759823Y-94634000D01*
X218208000Y-94634000D01*
X218208000Y-95454988D01*
X218150993Y-95422075D01*
X218023826Y-95388000D01*
X217892174Y-95388000D01*
X217765007Y-95422075D01*
X217708000Y-95454988D01*
X217708000Y-94634000D01*
X217156177Y-94634000D01*
X217156157Y-94634001D01*
X217096622Y-94640401D01*
X216961915Y-94690645D01*
X216961905Y-94690650D01*
X216846812Y-94776809D01*
X216846809Y-94776812D01*
X216760650Y-94891905D01*
X216760645Y-94891915D01*
X216710401Y-95026622D01*
X216704001Y-95086157D01*
X216704000Y-95086177D01*
X214376000Y-95086177D01*
X214376000Y-93726000D01*
X213709258Y-93726000D01*
X213634758Y-93706038D01*
X213580220Y-93651500D01*
X213560258Y-93577000D01*
X213580220Y-93502500D01*
X213621678Y-93456456D01*
X213775252Y-93344879D01*
X213914879Y-93205252D01*
X214030944Y-93045501D01*
X214120591Y-92869561D01*
X214181608Y-92681768D01*
X214181609Y-92681768D01*
X214181610Y-92681763D01*
X214212500Y-92486731D01*
X214212500Y-92289269D01*
X214181610Y-92094237D01*
X214181609Y-92094236D01*
X214181609Y-92094231D01*
X214120589Y-91906434D01*
X214038371Y-91745076D01*
X214030944Y-91730499D01*
X213914879Y-91570748D01*
X213775252Y-91431121D01*
X213695376Y-91373088D01*
X213615503Y-91315057D01*
X213615497Y-91315054D01*
X213439565Y-91225410D01*
X213251768Y-91164391D01*
X213251768Y-91164390D01*
X213143411Y-91147228D01*
X213056731Y-91133500D01*
X212859269Y-91133500D01*
X212781256Y-91145856D01*
X212664231Y-91164390D01*
X212664231Y-91164391D01*
X212476434Y-91225410D01*
X212300502Y-91315054D01*
X212300496Y-91315057D01*
X212140749Y-91431120D01*
X212140746Y-91431122D01*
X212001122Y-91570746D01*
X212001120Y-91570749D01*
X211885057Y-91730496D01*
X211885054Y-91730502D01*
X211795410Y-91906434D01*
X211734391Y-92094231D01*
X211734390Y-92094231D01*
X211727833Y-92135634D01*
X211703500Y-92289269D01*
X211703500Y-92486731D01*
X211717228Y-92573411D01*
X211734390Y-92681768D01*
X211795410Y-92869565D01*
X211881878Y-93039264D01*
X211885056Y-93045501D01*
X212001121Y-93205252D01*
X212140748Y-93344879D01*
X212294322Y-93456456D01*
X212342860Y-93516396D01*
X212354926Y-93592574D01*
X212327286Y-93664580D01*
X212267346Y-93713118D01*
X212206742Y-93726000D01*
X192935000Y-93726000D01*
X192860500Y-93706038D01*
X192805962Y-93651500D01*
X192786000Y-93577000D01*
X192786000Y-89357367D01*
X192805962Y-89282867D01*
X192860500Y-89228329D01*
X192882932Y-89217761D01*
X192912331Y-89206796D01*
X192945771Y-89181763D01*
X193027546Y-89120546D01*
X193113796Y-89005331D01*
X193120734Y-88986731D01*
X193151080Y-88905366D01*
X193164091Y-88870483D01*
X193170500Y-88810873D01*
X193170500Y-88789269D01*
X216703500Y-88789269D01*
X216703500Y-88986731D01*
X216717228Y-89073411D01*
X216734390Y-89181768D01*
X216795410Y-89369565D01*
X216881878Y-89539264D01*
X216885056Y-89545501D01*
X217001121Y-89705252D01*
X217140748Y-89844879D01*
X217300499Y-89960944D01*
X217386909Y-90004973D01*
X217476434Y-90050589D01*
X217476436Y-90050589D01*
X217476439Y-90050591D01*
X217664231Y-90111608D01*
X217664231Y-90111609D01*
X217664236Y-90111609D01*
X217664237Y-90111610D01*
X217859269Y-90142500D01*
X217859273Y-90142500D01*
X218056727Y-90142500D01*
X218056731Y-90142500D01*
X218251763Y-90111610D01*
X218251764Y-90111609D01*
X218251768Y-90111609D01*
X218251768Y-90111608D01*
X218439561Y-90050591D01*
X218615501Y-89960944D01*
X218775252Y-89844879D01*
X218914879Y-89705252D01*
X219030944Y-89545501D01*
X219120591Y-89369561D01*
X219181608Y-89181768D01*
X219181609Y-89181768D01*
X219181610Y-89181763D01*
X219212500Y-88986731D01*
X219212500Y-88789269D01*
X219181610Y-88594237D01*
X219181609Y-88594236D01*
X219181609Y-88594231D01*
X219120589Y-88406434D01*
X219050138Y-88268169D01*
X219030944Y-88230499D01*
X218914879Y-88070748D01*
X218775252Y-87931121D01*
X218641255Y-87833767D01*
X218615503Y-87815057D01*
X218615497Y-87815054D01*
X218439565Y-87725410D01*
X218251768Y-87664391D01*
X218251768Y-87664390D01*
X218143411Y-87647228D01*
X218056731Y-87633500D01*
X217859269Y-87633500D01*
X217781256Y-87645856D01*
X217664231Y-87664390D01*
X217664231Y-87664391D01*
X217476434Y-87725410D01*
X217300502Y-87815054D01*
X217300496Y-87815057D01*
X217140749Y-87931120D01*
X217140746Y-87931122D01*
X217001122Y-88070746D01*
X217001120Y-88070749D01*
X216885057Y-88230496D01*
X216885054Y-88230502D01*
X216795410Y-88406434D01*
X216734391Y-88594231D01*
X216734390Y-88594231D01*
X216717590Y-88700310D01*
X216703500Y-88789269D01*
X193170500Y-88789269D01*
X193170500Y-87525000D01*
X193190462Y-87450500D01*
X193245000Y-87395962D01*
X193319500Y-87376000D01*
X208788000Y-87376000D01*
X208788000Y-81596114D01*
X211703500Y-81596114D01*
X211703500Y-83199863D01*
X211703502Y-83199888D01*
X211709908Y-83259478D01*
X211709909Y-83259484D01*
X211760202Y-83394329D01*
X211760204Y-83394333D01*
X211846452Y-83509544D01*
X211846455Y-83509547D01*
X211961666Y-83595795D01*
X211961670Y-83595797D01*
X212096517Y-83646091D01*
X212156114Y-83652499D01*
X212156118Y-83652499D01*
X212156127Y-83652500D01*
X213759872Y-83652499D01*
X213819483Y-83646091D01*
X213915447Y-83610298D01*
X213954329Y-83595797D01*
X213954333Y-83595795D01*
X214021522Y-83545497D01*
X214069546Y-83509546D01*
X214155796Y-83394331D01*
X214157098Y-83390842D01*
X214183618Y-83319737D01*
X214206091Y-83259483D01*
X214210390Y-83219500D01*
X214212499Y-83199885D01*
X214212499Y-83199882D01*
X214212500Y-83199873D01*
X214212499Y-81596128D01*
X214206091Y-81536517D01*
X214158464Y-81408821D01*
X214155797Y-81401670D01*
X214155795Y-81401666D01*
X214069547Y-81286455D01*
X214069544Y-81286452D01*
X213954333Y-81200204D01*
X213954329Y-81200202D01*
X213819482Y-81149908D01*
X213759876Y-81143500D01*
X212156136Y-81143500D01*
X212156111Y-81143502D01*
X212096521Y-81149908D01*
X212096515Y-81149909D01*
X211961670Y-81200202D01*
X211961666Y-81200204D01*
X211846455Y-81286452D01*
X211846452Y-81286455D01*
X211760204Y-81401666D01*
X211760202Y-81401670D01*
X211709908Y-81536517D01*
X211703500Y-81596114D01*
X208788000Y-81596114D01*
X208788000Y-81280000D01*
X192935000Y-81280000D01*
X192860500Y-81260038D01*
X192805962Y-81205500D01*
X192786000Y-81131000D01*
X192786000Y-78799269D01*
X216703500Y-78799269D01*
X216703500Y-78996731D01*
X216717228Y-79083411D01*
X216734390Y-79191768D01*
X216795410Y-79379565D01*
X216881878Y-79549264D01*
X216885056Y-79555501D01*
X217001121Y-79715252D01*
X217140748Y-79854879D01*
X217300499Y-79970944D01*
X217386909Y-80014973D01*
X217476434Y-80060589D01*
X217476436Y-80060589D01*
X217476439Y-80060591D01*
X217664231Y-80121608D01*
X217664231Y-80121609D01*
X217664236Y-80121609D01*
X217664237Y-80121610D01*
X217859269Y-80152500D01*
X217859273Y-80152500D01*
X218056727Y-80152500D01*
X218056731Y-80152500D01*
X218251763Y-80121610D01*
X218251764Y-80121609D01*
X218251768Y-80121609D01*
X218251768Y-80121608D01*
X218439561Y-80060591D01*
X218615501Y-79970944D01*
X218775252Y-79854879D01*
X218914879Y-79715252D01*
X219030944Y-79555501D01*
X219120591Y-79379561D01*
X219181608Y-79191768D01*
X219181609Y-79191768D01*
X219193106Y-79119179D01*
X219212500Y-78996731D01*
X219212500Y-78799269D01*
X219181610Y-78604237D01*
X219181609Y-78604236D01*
X219181609Y-78604231D01*
X219120589Y-78416434D01*
X219037060Y-78252503D01*
X219030944Y-78240499D01*
X219030390Y-78239737D01*
X218942097Y-78118211D01*
X218914879Y-78080748D01*
X218775252Y-77941121D01*
X218669394Y-77864211D01*
X218615503Y-77825057D01*
X218615497Y-77825054D01*
X218439565Y-77735410D01*
X218251768Y-77674391D01*
X218251768Y-77674390D01*
X218143411Y-77657228D01*
X218056731Y-77643500D01*
X217859269Y-77643500D01*
X217781256Y-77655856D01*
X217664231Y-77674390D01*
X217664231Y-77674391D01*
X217476434Y-77735410D01*
X217300502Y-77825054D01*
X217300496Y-77825057D01*
X217140749Y-77941120D01*
X217140746Y-77941122D01*
X217001122Y-78080746D01*
X217001120Y-78080749D01*
X216885057Y-78240496D01*
X216885054Y-78240502D01*
X216795410Y-78416434D01*
X216734391Y-78604231D01*
X216734390Y-78604231D01*
X216718985Y-78701500D01*
X216703500Y-78799269D01*
X192786000Y-78799269D01*
X192786000Y-76911367D01*
X192805962Y-76836867D01*
X192860500Y-76782329D01*
X192882932Y-76771761D01*
X192912331Y-76760796D01*
X193027546Y-76674546D01*
X193112853Y-76560591D01*
X193113795Y-76559333D01*
X193113797Y-76559329D01*
X193164091Y-76424482D01*
X193170499Y-76364885D01*
X193170500Y-76364867D01*
X193170500Y-75841000D01*
X193190462Y-75766500D01*
X193245000Y-75711962D01*
X193319500Y-75692000D01*
X209296000Y-75692000D01*
X209296000Y-75299269D01*
X211703500Y-75299269D01*
X211703500Y-75496731D01*
X211716405Y-75578211D01*
X211734390Y-75691768D01*
X211795410Y-75879565D01*
X211856066Y-75998606D01*
X211885056Y-76055501D01*
X212001121Y-76215252D01*
X212140748Y-76354879D01*
X212300499Y-76470944D01*
X212386909Y-76514973D01*
X212476434Y-76560589D01*
X212476436Y-76560589D01*
X212476439Y-76560591D01*
X212664231Y-76621608D01*
X212664231Y-76621609D01*
X212664236Y-76621609D01*
X212664237Y-76621610D01*
X212859269Y-76652500D01*
X212859273Y-76652500D01*
X213056727Y-76652500D01*
X213056731Y-76652500D01*
X213251763Y-76621610D01*
X213251764Y-76621609D01*
X213251768Y-76621609D01*
X213251768Y-76621608D01*
X213439561Y-76560591D01*
X213615501Y-76470944D01*
X213775252Y-76354879D01*
X213914879Y-76215252D01*
X214030944Y-76055501D01*
X214120591Y-75879561D01*
X214181608Y-75691768D01*
X214181609Y-75691768D01*
X214181935Y-75689711D01*
X214212500Y-75496731D01*
X214212500Y-75299269D01*
X214181610Y-75104237D01*
X214181609Y-75104236D01*
X214181609Y-75104231D01*
X214120589Y-74916434D01*
X214056059Y-74789789D01*
X214030944Y-74740499D01*
X213914879Y-74580748D01*
X213775252Y-74441121D01*
X213695376Y-74383088D01*
X213615503Y-74325057D01*
X213615497Y-74325054D01*
X213439565Y-74235410D01*
X213251768Y-74174391D01*
X213251768Y-74174390D01*
X213143411Y-74157228D01*
X213056731Y-74143500D01*
X212859269Y-74143500D01*
X212781256Y-74155856D01*
X212664231Y-74174390D01*
X212664231Y-74174391D01*
X212476434Y-74235410D01*
X212300502Y-74325054D01*
X212300496Y-74325057D01*
X212140749Y-74441120D01*
X212140746Y-74441122D01*
X212001122Y-74580746D01*
X212001120Y-74580749D01*
X211885057Y-74740496D01*
X211885054Y-74740502D01*
X211795410Y-74916434D01*
X211734391Y-75104231D01*
X211734390Y-75104231D01*
X211713796Y-75234258D01*
X211703500Y-75299269D01*
X209296000Y-75299269D01*
X209296000Y-72847500D01*
X209315962Y-72773000D01*
X209370500Y-72718462D01*
X209445000Y-72698500D01*
X216922651Y-72698500D01*
X216997151Y-72718462D01*
X217028010Y-72742141D01*
X217140748Y-72854879D01*
X217300499Y-72970944D01*
X217386909Y-73014973D01*
X217476434Y-73060589D01*
X217476436Y-73060589D01*
X217476439Y-73060591D01*
X217664231Y-73121608D01*
X217664231Y-73121609D01*
X217664236Y-73121609D01*
X217664237Y-73121610D01*
X217859269Y-73152500D01*
X217859273Y-73152500D01*
X218056727Y-73152500D01*
X218056731Y-73152500D01*
X218251763Y-73121610D01*
X218251764Y-73121609D01*
X218251768Y-73121609D01*
X218251768Y-73121608D01*
X218439561Y-73060591D01*
X218615501Y-72970944D01*
X218775252Y-72854879D01*
X218914879Y-72715252D01*
X219030944Y-72555501D01*
X219120591Y-72379561D01*
X219181608Y-72191768D01*
X219181609Y-72191768D01*
X219182110Y-72188606D01*
X219212500Y-71996731D01*
X219212500Y-71799269D01*
X219181610Y-71604237D01*
X219181609Y-71604236D01*
X219181609Y-71604231D01*
X219120589Y-71416434D01*
X219058794Y-71295158D01*
X219030944Y-71240499D01*
X218914879Y-71080748D01*
X218775252Y-70941121D01*
X218675007Y-70868289D01*
X218615503Y-70825057D01*
X218615497Y-70825054D01*
X218439565Y-70735410D01*
X218251768Y-70674391D01*
X218251768Y-70674390D01*
X218143411Y-70657228D01*
X218056731Y-70643500D01*
X217859269Y-70643500D01*
X217781256Y-70655856D01*
X217664231Y-70674390D01*
X217664231Y-70674391D01*
X217476434Y-70735410D01*
X217300502Y-70825054D01*
X217300496Y-70825057D01*
X217140749Y-70941120D01*
X217140746Y-70941122D01*
X217028010Y-71053859D01*
X216961215Y-71092423D01*
X216922651Y-71097500D01*
X209445000Y-71097500D01*
X209370500Y-71077538D01*
X209315962Y-71023000D01*
X209296000Y-70948500D01*
X209296000Y-69483500D01*
X209315962Y-69409000D01*
X209370500Y-69354462D01*
X209445000Y-69334500D01*
X229344108Y-69334500D01*
X229405501Y-69334500D01*
X229414496Y-69334771D01*
G37*
G04 #@! TD.AperFunction*
G04 #@! TA.AperFunction,Conductor*
G36*
X173096273Y-69354185D02*
G01*
X173142028Y-69406989D01*
X173151972Y-69476147D01*
X173122947Y-69539703D01*
X173116915Y-69546181D01*
X172985535Y-69677560D01*
X172985535Y-69677561D01*
X172862482Y-69846927D01*
X172767439Y-70033456D01*
X172767438Y-70033459D01*
X172702749Y-70232556D01*
X172670000Y-70439327D01*
X172670000Y-71124000D01*
X173600000Y-71124000D01*
X173600000Y-71624000D01*
X172670000Y-71624000D01*
X172670000Y-72308672D01*
X172702749Y-72515443D01*
X172767438Y-72714540D01*
X172767439Y-72714543D01*
X172862482Y-72901072D01*
X172985535Y-73070438D01*
X172985535Y-73070439D01*
X173133560Y-73218464D01*
X173302927Y-73341517D01*
X173489456Y-73436560D01*
X173489459Y-73436561D01*
X173688555Y-73501250D01*
X173750000Y-73510982D01*
X173750000Y-72439686D01*
X173754394Y-72444080D01*
X173845606Y-72496741D01*
X173947339Y-72524000D01*
X174052661Y-72524000D01*
X174154394Y-72496741D01*
X174245606Y-72444080D01*
X174250000Y-72439686D01*
X174250000Y-73510981D01*
X174311442Y-73501250D01*
X174311445Y-73501250D01*
X174510540Y-73436561D01*
X174510543Y-73436560D01*
X174697072Y-73341517D01*
X174866438Y-73218464D01*
X174866439Y-73218464D01*
X175014464Y-73070439D01*
X175014464Y-73070438D01*
X175137517Y-72901072D01*
X175232560Y-72714543D01*
X175232561Y-72714540D01*
X175297250Y-72515443D01*
X175330000Y-72308672D01*
X175330000Y-71624000D01*
X174400000Y-71624000D01*
X174400000Y-71408108D01*
X176299500Y-71408108D01*
X176299500Y-73208108D01*
X176299500Y-73339892D01*
X176306764Y-73367001D01*
X176333608Y-73467187D01*
X176350742Y-73496863D01*
X176399500Y-73581314D01*
X176492686Y-73674500D01*
X176606814Y-73740392D01*
X176734108Y-73774500D01*
X176734110Y-73774500D01*
X178665890Y-73774500D01*
X178665892Y-73774500D01*
X178793186Y-73740392D01*
X178907314Y-73674500D01*
X179000500Y-73581314D01*
X179066392Y-73467186D01*
X179100500Y-73339892D01*
X179100500Y-71408108D01*
X179066392Y-71280814D01*
X179000500Y-71166686D01*
X178907314Y-71073500D01*
X178850250Y-71040554D01*
X178793187Y-71007608D01*
X178729539Y-70990554D01*
X178665892Y-70973500D01*
X176865892Y-70973500D01*
X176734108Y-70973500D01*
X176606812Y-71007608D01*
X176492686Y-71073500D01*
X176492683Y-71073502D01*
X176399502Y-71166683D01*
X176399500Y-71166686D01*
X176333608Y-71280812D01*
X176305687Y-71385016D01*
X176299500Y-71408108D01*
X174400000Y-71408108D01*
X174400000Y-71124000D01*
X175330000Y-71124000D01*
X175330000Y-70439327D01*
X175297250Y-70232556D01*
X175232561Y-70033459D01*
X175232560Y-70033456D01*
X175137517Y-69846927D01*
X175014464Y-69677561D01*
X175014464Y-69677560D01*
X174883085Y-69546181D01*
X174849600Y-69484858D01*
X174854584Y-69415166D01*
X174896456Y-69359233D01*
X174961920Y-69334816D01*
X174970766Y-69334500D01*
X182929234Y-69334500D01*
X182996273Y-69354185D01*
X183042028Y-69406989D01*
X183051972Y-69476147D01*
X183022947Y-69539703D01*
X183016915Y-69546181D01*
X182885535Y-69677560D01*
X182885535Y-69677561D01*
X182762482Y-69846927D01*
X182667439Y-70033456D01*
X182667438Y-70033459D01*
X182602749Y-70232556D01*
X182570000Y-70439327D01*
X182570000Y-71124000D01*
X183500000Y-71124000D01*
X183500000Y-71624000D01*
X182570000Y-71624000D01*
X182570000Y-72308672D01*
X182602749Y-72515443D01*
X182667438Y-72714540D01*
X182667439Y-72714543D01*
X182762482Y-72901072D01*
X182885535Y-73070438D01*
X182885535Y-73070439D01*
X183033560Y-73218464D01*
X183202927Y-73341517D01*
X183389456Y-73436560D01*
X183389459Y-73436561D01*
X183588555Y-73501250D01*
X183650000Y-73510982D01*
X183650000Y-72439686D01*
X183654394Y-72444080D01*
X183745606Y-72496741D01*
X183847339Y-72524000D01*
X183952661Y-72524000D01*
X184054394Y-72496741D01*
X184145606Y-72444080D01*
X184150000Y-72439686D01*
X184150000Y-73510981D01*
X184211442Y-73501250D01*
X184211445Y-73501250D01*
X184410540Y-73436561D01*
X184410543Y-73436560D01*
X184597072Y-73341517D01*
X184766438Y-73218464D01*
X184766439Y-73218464D01*
X184914464Y-73070439D01*
X184914464Y-73070438D01*
X184988051Y-72969155D01*
X189570000Y-72969155D01*
X189570000Y-74417000D01*
X190116447Y-74417000D01*
X190116447Y-74416999D01*
X189973295Y-74273847D01*
X189939810Y-74212524D01*
X189944794Y-74142832D01*
X189973295Y-74098484D01*
X190054779Y-74017000D01*
X190423553Y-74017000D01*
X190720000Y-74313446D01*
X190720001Y-74313446D01*
X191016446Y-74017001D01*
X191016446Y-74017000D01*
X191723553Y-74017000D01*
X192020000Y-74313446D01*
X192020001Y-74313446D01*
X192316446Y-74017001D01*
X192316446Y-74016999D01*
X192020001Y-73720553D01*
X192020000Y-73720553D01*
X191723553Y-74017000D01*
X191016446Y-74017000D01*
X191016446Y-74016999D01*
X190720001Y-73720553D01*
X190720000Y-73720553D01*
X190423553Y-74017000D01*
X190054779Y-74017000D01*
X190054780Y-74016999D01*
X189973294Y-73935513D01*
X189939809Y-73874190D01*
X189944793Y-73804498D01*
X189973294Y-73760151D01*
X190396283Y-73337163D01*
X190570000Y-73337163D01*
X190570000Y-73396837D01*
X190592836Y-73451968D01*
X190635032Y-73494164D01*
X190690163Y-73517000D01*
X190749837Y-73517000D01*
X190804968Y-73494164D01*
X190847164Y-73451968D01*
X190870000Y-73396837D01*
X190870000Y-73367000D01*
X191073553Y-73367000D01*
X191119999Y-73413446D01*
X191120000Y-73413446D01*
X191620000Y-73413446D01*
X191666446Y-73367001D01*
X191666446Y-73366999D01*
X191636610Y-73337163D01*
X191870000Y-73337163D01*
X191870000Y-73396837D01*
X191892836Y-73451968D01*
X191935032Y-73494164D01*
X191990163Y-73517000D01*
X192049837Y-73517000D01*
X192104968Y-73494164D01*
X192147164Y-73451968D01*
X192170000Y-73396837D01*
X192170000Y-73337163D01*
X192147164Y-73282032D01*
X192104968Y-73239836D01*
X192049837Y-73217000D01*
X191990163Y-73217000D01*
X191935032Y-73239836D01*
X191892836Y-73282032D01*
X191870000Y-73337163D01*
X191636610Y-73337163D01*
X191620000Y-73320553D01*
X191620000Y-73413446D01*
X191120000Y-73413446D01*
X191120000Y-73320553D01*
X191073553Y-73367000D01*
X190870000Y-73367000D01*
X190870000Y-73337163D01*
X190847164Y-73282032D01*
X190804968Y-73239836D01*
X190749837Y-73217000D01*
X190690163Y-73217000D01*
X190635032Y-73239836D01*
X190592836Y-73282032D01*
X190570000Y-73337163D01*
X190396283Y-73337163D01*
X190505489Y-73227957D01*
X190543223Y-73190223D01*
X191119999Y-72613446D01*
X191620000Y-72613446D01*
X192196777Y-73190223D01*
X192766704Y-73760151D01*
X192800189Y-73821474D01*
X192795205Y-73891166D01*
X192766704Y-73935513D01*
X192685218Y-74016999D01*
X192766704Y-74098485D01*
X192800189Y-74159808D01*
X192795205Y-74229500D01*
X192766704Y-74273848D01*
X192623552Y-74416999D01*
X192623553Y-74417000D01*
X193170000Y-74417000D01*
X193170000Y-72969172D01*
X193169999Y-72969155D01*
X193163598Y-72909627D01*
X193163596Y-72909620D01*
X193113354Y-72774913D01*
X193113350Y-72774906D01*
X193027190Y-72659812D01*
X193027187Y-72659809D01*
X192912093Y-72573649D01*
X192912086Y-72573645D01*
X192777379Y-72523403D01*
X192777372Y-72523401D01*
X192717844Y-72517000D01*
X191620000Y-72517000D01*
X191620000Y-72613446D01*
X191119999Y-72613446D01*
X191120000Y-72613445D01*
X191120000Y-72517000D01*
X190022155Y-72517000D01*
X189962627Y-72523401D01*
X189962620Y-72523403D01*
X189827913Y-72573645D01*
X189827906Y-72573649D01*
X189712812Y-72659809D01*
X189712809Y-72659812D01*
X189626649Y-72774906D01*
X189626645Y-72774913D01*
X189576403Y-72909620D01*
X189576401Y-72909627D01*
X189570000Y-72969155D01*
X184988051Y-72969155D01*
X185037517Y-72901072D01*
X185132560Y-72714543D01*
X185132561Y-72714540D01*
X185197250Y-72515443D01*
X185230000Y-72308672D01*
X185230000Y-71624000D01*
X184300000Y-71624000D01*
X184300000Y-71124000D01*
X185230000Y-71124000D01*
X185230000Y-70439327D01*
X185197250Y-70232556D01*
X185132561Y-70033459D01*
X185132560Y-70033456D01*
X185037517Y-69846927D01*
X184914464Y-69677561D01*
X184914464Y-69677560D01*
X184783085Y-69546181D01*
X184749600Y-69484858D01*
X184754584Y-69415166D01*
X184796456Y-69359233D01*
X184861920Y-69334816D01*
X184870766Y-69334500D01*
X208668721Y-69334500D01*
X208735760Y-69354185D01*
X208781515Y-69406989D01*
X208791661Y-69474681D01*
X208790500Y-69483501D01*
X208790500Y-70948500D01*
X208807723Y-71079328D01*
X208807726Y-71079341D01*
X208827684Y-71153825D01*
X208827686Y-71153832D01*
X208837127Y-71177415D01*
X208843768Y-71246969D01*
X208811751Y-71309071D01*
X208751242Y-71344005D01*
X208722009Y-71347500D01*
X197015525Y-71347500D01*
X196910517Y-71375637D01*
X196875514Y-71385016D01*
X196749986Y-71457489D01*
X196749983Y-71457491D01*
X195901491Y-72305983D01*
X195901485Y-72305991D01*
X195838230Y-72415553D01*
X195838231Y-72415554D01*
X195836803Y-72418027D01*
X195829016Y-72431515D01*
X195791500Y-72571525D01*
X195791500Y-72571527D01*
X195791500Y-72716474D01*
X195813501Y-72798586D01*
X195829014Y-72856480D01*
X195829016Y-72856485D01*
X195901490Y-72982015D01*
X196003985Y-73084510D01*
X196119464Y-73151181D01*
X196119466Y-73151182D01*
X196119467Y-73151183D01*
X196129511Y-73156982D01*
X196129512Y-73156982D01*
X196129515Y-73156984D01*
X196269525Y-73194500D01*
X196269526Y-73194500D01*
X196269528Y-73194500D01*
X196414472Y-73194500D01*
X196414474Y-73194500D01*
X196414475Y-73194500D01*
X196554485Y-73156984D01*
X196564536Y-73151181D01*
X196680015Y-73084510D01*
X197279706Y-72484819D01*
X197341029Y-72451334D01*
X197367387Y-72448500D01*
X208722628Y-72448500D01*
X208789667Y-72468185D01*
X208835422Y-72520989D01*
X208845366Y-72590147D01*
X208836617Y-72621311D01*
X208827687Y-72642163D01*
X208827684Y-72642174D01*
X208807726Y-72716658D01*
X208807723Y-72716671D01*
X208790500Y-72847499D01*
X208790500Y-75062500D01*
X208770815Y-75129539D01*
X208718011Y-75175294D01*
X208666500Y-75186500D01*
X193319497Y-75186500D01*
X193310183Y-75187726D01*
X193241148Y-75176959D01*
X193188893Y-75130579D01*
X193170000Y-75064787D01*
X193170000Y-74917000D01*
X192623552Y-74917000D01*
X192766704Y-75060151D01*
X192800189Y-75121474D01*
X192795205Y-75191165D01*
X192766704Y-75235513D01*
X192685218Y-75316999D01*
X192733300Y-75365081D01*
X192743225Y-75383258D01*
X192757156Y-75398582D01*
X192759631Y-75413303D01*
X192766785Y-75426404D01*
X192765307Y-75447060D01*
X192768742Y-75467484D01*
X192762065Y-75492402D01*
X192761801Y-75496096D01*
X192759607Y-75501576D01*
X192709572Y-75618419D01*
X192683265Y-75657287D01*
X192196777Y-76143777D01*
X191620000Y-76720552D01*
X191620000Y-76817000D01*
X192156500Y-76817000D01*
X192223539Y-76836685D01*
X192269294Y-76889489D01*
X192280500Y-76941000D01*
X192280500Y-81131000D01*
X192297723Y-81261828D01*
X192297726Y-81261841D01*
X192308879Y-81303464D01*
X192317686Y-81336332D01*
X192348264Y-81412711D01*
X192362295Y-81447760D01*
X192448513Y-81562934D01*
X192448519Y-81562940D01*
X192448520Y-81562942D01*
X192503058Y-81617480D01*
X192597405Y-81691676D01*
X192597407Y-81691677D01*
X192597410Y-81691679D01*
X192729657Y-81748310D01*
X192729662Y-81748311D01*
X192729668Y-81748314D01*
X192804168Y-81768276D01*
X192902292Y-81781194D01*
X192934999Y-81785500D01*
X192935000Y-81785500D01*
X208158500Y-81785500D01*
X208225539Y-81805185D01*
X208271294Y-81857989D01*
X208282500Y-81909500D01*
X208282500Y-86746500D01*
X208262815Y-86813539D01*
X208210011Y-86859294D01*
X208158500Y-86870500D01*
X193319497Y-86870500D01*
X193310183Y-86871726D01*
X193241148Y-86860959D01*
X193188893Y-86814579D01*
X193170000Y-86748787D01*
X193170000Y-85415172D01*
X193169999Y-85415155D01*
X193163598Y-85355627D01*
X193163596Y-85355620D01*
X193113354Y-85220913D01*
X193113350Y-85220906D01*
X193027190Y-85105812D01*
X193027187Y-85105809D01*
X192912093Y-85019649D01*
X192912086Y-85019645D01*
X192777379Y-84969403D01*
X192777372Y-84969401D01*
X192717844Y-84963000D01*
X191620000Y-84963000D01*
X191620000Y-85059446D01*
X192777312Y-86216758D01*
X192810797Y-86278081D01*
X192805813Y-86347773D01*
X192777312Y-86392120D01*
X192706432Y-86463000D01*
X192777312Y-86533880D01*
X192810797Y-86595203D01*
X192805813Y-86664895D01*
X192777312Y-86709242D01*
X192373554Y-87113000D01*
X192635784Y-87375230D01*
X192669269Y-87436553D01*
X192671043Y-87479093D01*
X192667294Y-87507568D01*
X192666092Y-87516710D01*
X192665000Y-87525003D01*
X192665000Y-88070192D01*
X192645315Y-88137231D01*
X192628681Y-88157873D01*
X191620000Y-89166553D01*
X191620000Y-89263000D01*
X192156500Y-89263000D01*
X192223539Y-89282685D01*
X192269294Y-89335489D01*
X192280500Y-89387000D01*
X192280500Y-93577000D01*
X192297723Y-93707828D01*
X192297726Y-93707841D01*
X192315380Y-93773726D01*
X192317686Y-93782332D01*
X192348147Y-93858420D01*
X192362295Y-93893760D01*
X192448513Y-94008934D01*
X192448519Y-94008940D01*
X192448520Y-94008942D01*
X192503058Y-94063480D01*
X192597405Y-94137676D01*
X192597407Y-94137677D01*
X192597410Y-94137679D01*
X192729657Y-94194310D01*
X192729662Y-94194311D01*
X192729668Y-94194314D01*
X192804168Y-94214276D01*
X192902292Y-94227194D01*
X192934999Y-94231500D01*
X192935000Y-94231500D01*
X212206738Y-94231500D01*
X212206742Y-94231500D01*
X212311843Y-94220453D01*
X212372447Y-94207571D01*
X212461901Y-94179678D01*
X212585466Y-94105967D01*
X212645406Y-94057429D01*
X212729059Y-93971351D01*
X212799212Y-93845732D01*
X212826852Y-93773726D01*
X212837690Y-93730834D01*
X212873198Y-93670661D01*
X212935602Y-93639236D01*
X213005089Y-93646539D01*
X213059597Y-93690249D01*
X213077686Y-93729120D01*
X213091944Y-93782332D01*
X213122405Y-93858420D01*
X213136553Y-93893760D01*
X213222771Y-94008934D01*
X213222777Y-94008940D01*
X213222778Y-94008942D01*
X213277316Y-94063480D01*
X213371663Y-94137676D01*
X213371665Y-94137677D01*
X213371668Y-94137679D01*
X213503915Y-94194310D01*
X213503920Y-94194311D01*
X213503926Y-94194314D01*
X213578426Y-94214276D01*
X213676550Y-94227194D01*
X213709257Y-94231500D01*
X213709258Y-94231500D01*
X213746500Y-94231500D01*
X213813539Y-94251185D01*
X213859294Y-94303989D01*
X213870500Y-94355500D01*
X213870500Y-105296560D01*
X213850815Y-105363599D01*
X213798011Y-105409354D01*
X213728853Y-105419298D01*
X213665297Y-105390273D01*
X213658819Y-105384241D01*
X213598334Y-105323756D01*
X213598330Y-105323753D01*
X213433815Y-105213827D01*
X213433802Y-105213820D01*
X213251006Y-105138104D01*
X213250996Y-105138101D01*
X213056937Y-105099500D01*
X213056935Y-105099500D01*
X212859065Y-105099500D01*
X212859063Y-105099500D01*
X212665003Y-105138101D01*
X212664993Y-105138104D01*
X212482197Y-105213820D01*
X212482184Y-105213827D01*
X212317669Y-105323753D01*
X212317665Y-105323756D01*
X212177756Y-105463665D01*
X212177753Y-105463669D01*
X212067827Y-105628184D01*
X212067820Y-105628197D01*
X211992104Y-105810993D01*
X211992101Y-105811003D01*
X211953500Y-106005062D01*
X211953500Y-106005065D01*
X211953500Y-106202935D01*
X211953500Y-106202937D01*
X211953499Y-106202937D01*
X211992101Y-106396996D01*
X211992104Y-106397006D01*
X212067820Y-106579802D01*
X212067827Y-106579815D01*
X212177753Y-106744330D01*
X212177756Y-106744334D01*
X212317665Y-106884243D01*
X212317669Y-106884246D01*
X212482184Y-106994172D01*
X212482197Y-106994179D01*
X212664993Y-107069895D01*
X212664998Y-107069897D01*
X212665002Y-107069897D01*
X212665003Y-107069898D01*
X212859062Y-107108500D01*
X212859065Y-107108500D01*
X213056937Y-107108500D01*
X213187495Y-107082529D01*
X213251002Y-107069897D01*
X213433809Y-106994176D01*
X213598331Y-106884246D01*
X213598334Y-106884243D01*
X213658819Y-106823759D01*
X213720142Y-106790274D01*
X213789834Y-106795258D01*
X213845767Y-106837130D01*
X213870184Y-106902594D01*
X213870500Y-106911440D01*
X213870500Y-109352500D01*
X213850815Y-109419539D01*
X213798011Y-109465294D01*
X213746500Y-109476500D01*
X178937500Y-109476500D01*
X178870461Y-109456815D01*
X178824706Y-109404011D01*
X178813500Y-109352500D01*
X178813500Y-105178046D01*
X178813500Y-105178037D01*
X178813500Y-105178036D01*
X178808764Y-105133987D01*
X178821169Y-105065229D01*
X178868779Y-105014092D01*
X178899953Y-105000960D01*
X179028485Y-104966520D01*
X179154015Y-104894045D01*
X179256509Y-104791551D01*
X179328984Y-104666021D01*
X179366500Y-104526011D01*
X179366500Y-104381061D01*
X179328984Y-104241051D01*
X179328982Y-104241047D01*
X179287097Y-104168500D01*
X179270624Y-104100600D01*
X179293476Y-104034573D01*
X179348398Y-103991382D01*
X179394484Y-103982500D01*
X182801693Y-103982500D01*
X182868732Y-104002185D01*
X182889374Y-104018819D01*
X183223310Y-104352755D01*
X183256795Y-104414078D01*
X183259629Y-104440436D01*
X183259629Y-104516367D01*
X183297145Y-104656377D01*
X183297146Y-104656380D01*
X183369617Y-104781903D01*
X183369619Y-104781905D01*
X183369620Y-104781907D01*
X183472114Y-104884401D01*
X183472115Y-104884402D01*
X183472117Y-104884403D01*
X183597640Y-104956874D01*
X183597641Y-104956874D01*
X183597644Y-104956876D01*
X183737654Y-104994392D01*
X183737657Y-104994392D01*
X183882601Y-104994392D01*
X183882604Y-104994392D01*
X184022614Y-104956876D01*
X184148144Y-104884401D01*
X184250638Y-104781907D01*
X184323113Y-104656377D01*
X184360629Y-104516367D01*
X184360629Y-104371417D01*
X184323113Y-104231407D01*
X184256447Y-104115939D01*
X184250640Y-104105880D01*
X184250635Y-104105874D01*
X184148146Y-104003385D01*
X184148140Y-104003380D01*
X184022617Y-103930909D01*
X184022618Y-103930909D01*
X184011135Y-103927832D01*
X183882604Y-103893392D01*
X183882601Y-103893392D01*
X183806673Y-103893392D01*
X183739634Y-103873707D01*
X183718992Y-103857073D01*
X183213450Y-103351531D01*
X183213445Y-103351527D01*
X183133527Y-103305387D01*
X183133526Y-103305386D01*
X183133525Y-103305386D01*
X183044381Y-103281500D01*
X183044380Y-103281500D01*
X161740544Y-103281500D01*
X161711103Y-103272855D01*
X161681117Y-103266332D01*
X161676101Y-103262577D01*
X161673505Y-103261815D01*
X161652863Y-103245181D01*
X161585863Y-103178181D01*
X161552378Y-103116858D01*
X161557362Y-103047166D01*
X161599234Y-102991233D01*
X161664698Y-102966816D01*
X161673544Y-102966500D01*
X186565235Y-102966500D01*
X186632274Y-102986185D01*
X186652916Y-103002819D01*
X188003688Y-104353591D01*
X188037173Y-104414914D01*
X188040007Y-104441272D01*
X188040007Y-104517203D01*
X188077299Y-104656377D01*
X188077524Y-104657216D01*
X188149995Y-104782739D01*
X188149997Y-104782741D01*
X188149998Y-104782743D01*
X188252492Y-104885237D01*
X188252493Y-104885238D01*
X188252495Y-104885239D01*
X188378018Y-104957710D01*
X188378019Y-104957710D01*
X188378022Y-104957712D01*
X188518032Y-104995228D01*
X188518035Y-104995228D01*
X188662979Y-104995228D01*
X188662982Y-104995228D01*
X188802992Y-104957712D01*
X188928522Y-104885237D01*
X189031016Y-104782743D01*
X189103491Y-104657213D01*
X189141007Y-104517203D01*
X189141007Y-104372253D01*
X189103491Y-104232243D01*
X189103008Y-104231407D01*
X189031018Y-104106716D01*
X189031013Y-104106710D01*
X188928524Y-104004221D01*
X188928518Y-104004216D01*
X188802995Y-103931745D01*
X188802996Y-103931745D01*
X188791513Y-103928668D01*
X188662982Y-103894228D01*
X188662979Y-103894228D01*
X188587051Y-103894228D01*
X188520012Y-103874543D01*
X188499370Y-103857909D01*
X186976992Y-102335531D01*
X186976987Y-102335527D01*
X186897069Y-102289387D01*
X186897068Y-102289386D01*
X186897067Y-102289386D01*
X186807923Y-102265500D01*
X186807922Y-102265500D01*
X161486544Y-102265500D01*
X161457103Y-102256855D01*
X161427117Y-102250332D01*
X161422101Y-102246577D01*
X161419505Y-102245815D01*
X161398863Y-102229181D01*
X161331863Y-102162181D01*
X161298378Y-102100858D01*
X161303362Y-102031166D01*
X161345234Y-101975233D01*
X161410698Y-101950816D01*
X161419544Y-101950500D01*
X190332806Y-101950500D01*
X190399845Y-101970185D01*
X190420487Y-101986819D01*
X192796485Y-104362817D01*
X192829970Y-104424140D01*
X192832804Y-104450498D01*
X192832804Y-104526429D01*
X192867624Y-104656377D01*
X192870321Y-104666442D01*
X192942792Y-104791965D01*
X192942794Y-104791967D01*
X192942795Y-104791969D01*
X193045289Y-104894463D01*
X193045290Y-104894464D01*
X193045292Y-104894465D01*
X193170815Y-104966936D01*
X193170816Y-104966936D01*
X193170819Y-104966938D01*
X193310829Y-105004454D01*
X193310832Y-105004454D01*
X193455776Y-105004454D01*
X193455779Y-105004454D01*
X193595789Y-104966938D01*
X193721319Y-104894463D01*
X193823813Y-104791969D01*
X193896288Y-104666439D01*
X193933804Y-104526429D01*
X193933804Y-104381479D01*
X193896288Y-104241469D01*
X193896044Y-104241047D01*
X193823815Y-104115942D01*
X193823810Y-104115936D01*
X193721321Y-104013447D01*
X193721315Y-104013442D01*
X193595792Y-103940971D01*
X193595793Y-103940971D01*
X193558241Y-103930909D01*
X193455779Y-103903454D01*
X193455776Y-103903454D01*
X193379848Y-103903454D01*
X193312809Y-103883769D01*
X193292167Y-103867135D01*
X190744563Y-101319531D01*
X190744558Y-101319527D01*
X190664640Y-101273387D01*
X190664639Y-101273386D01*
X190664638Y-101273386D01*
X190575494Y-101249500D01*
X190575493Y-101249500D01*
X161232544Y-101249500D01*
X161203103Y-101240855D01*
X161173117Y-101234332D01*
X161168101Y-101230577D01*
X161165505Y-101229815D01*
X161144863Y-101213181D01*
X161077863Y-101146181D01*
X161044378Y-101084858D01*
X161049362Y-101015166D01*
X161091234Y-100959233D01*
X161156698Y-100934816D01*
X161165544Y-100934500D01*
X194093332Y-100934500D01*
X194160371Y-100954185D01*
X194181013Y-100970819D01*
X197562949Y-104352755D01*
X197596434Y-104414078D01*
X197599268Y-104440436D01*
X197599268Y-104516367D01*
X197636784Y-104656377D01*
X197636785Y-104656380D01*
X197709256Y-104781903D01*
X197709258Y-104781905D01*
X197709259Y-104781907D01*
X197811753Y-104884401D01*
X197811754Y-104884402D01*
X197811756Y-104884403D01*
X197937279Y-104956874D01*
X197937280Y-104956874D01*
X197937283Y-104956876D01*
X198077293Y-104994392D01*
X198077296Y-104994392D01*
X198222240Y-104994392D01*
X198222243Y-104994392D01*
X198362253Y-104956876D01*
X198487783Y-104884401D01*
X198590277Y-104781907D01*
X198662752Y-104656377D01*
X198700268Y-104516367D01*
X198700268Y-104371417D01*
X198662752Y-104231407D01*
X198596086Y-104115939D01*
X198590279Y-104105880D01*
X198590274Y-104105874D01*
X198487785Y-104003385D01*
X198487779Y-104003380D01*
X198362256Y-103930909D01*
X198362257Y-103930909D01*
X198350774Y-103927832D01*
X198222243Y-103893392D01*
X198222240Y-103893392D01*
X198146312Y-103893392D01*
X198079273Y-103873707D01*
X198058631Y-103857073D01*
X194585739Y-100384181D01*
X194552254Y-100322858D01*
X194557238Y-100253166D01*
X194599110Y-100197233D01*
X194664574Y-100172816D01*
X194673420Y-100172500D01*
X198163452Y-100172500D01*
X198230491Y-100192185D01*
X198251133Y-100208819D01*
X202400354Y-104358040D01*
X202433839Y-104419363D01*
X202436673Y-104445721D01*
X202436673Y-104521652D01*
X202472773Y-104656377D01*
X202474190Y-104661665D01*
X202546661Y-104787188D01*
X202546663Y-104787190D01*
X202546664Y-104787192D01*
X202649158Y-104889686D01*
X202649159Y-104889687D01*
X202649161Y-104889688D01*
X202774684Y-104962159D01*
X202774685Y-104962159D01*
X202774688Y-104962161D01*
X202914698Y-104999677D01*
X202914701Y-104999677D01*
X203059645Y-104999677D01*
X203059648Y-104999677D01*
X203199658Y-104962161D01*
X203325188Y-104889686D01*
X203427682Y-104787192D01*
X203500157Y-104661662D01*
X203537673Y-104521652D01*
X203537673Y-104376702D01*
X203500157Y-104236692D01*
X203497588Y-104232243D01*
X203427684Y-104111165D01*
X203427679Y-104111159D01*
X203325190Y-104008670D01*
X203325184Y-104008665D01*
X203199661Y-103936194D01*
X203199662Y-103936194D01*
X203179934Y-103930908D01*
X203059648Y-103898677D01*
X203059645Y-103898677D01*
X202983717Y-103898677D01*
X202916678Y-103878992D01*
X202896036Y-103862358D01*
X198575209Y-99541531D01*
X198575204Y-99541527D01*
X198495286Y-99495387D01*
X198495285Y-99495386D01*
X198495284Y-99495386D01*
X198406140Y-99471500D01*
X198406139Y-99471500D01*
X189812561Y-99471500D01*
X189745522Y-99451815D01*
X189699767Y-99399011D01*
X189689823Y-99329853D01*
X189694549Y-99311341D01*
X189694090Y-99311207D01*
X189695336Y-99306963D01*
X189695338Y-99306959D01*
X189715023Y-99239920D01*
X189715024Y-99239916D01*
X189735500Y-99097500D01*
X189735500Y-97463525D01*
X207983500Y-97463525D01*
X207983500Y-97608475D01*
X208021016Y-97748485D01*
X208021017Y-97748488D01*
X208093488Y-97874011D01*
X208093490Y-97874013D01*
X208093491Y-97874015D01*
X208195985Y-97976509D01*
X208195986Y-97976510D01*
X208195988Y-97976511D01*
X208321511Y-98048982D01*
X208321512Y-98048982D01*
X208321515Y-98048984D01*
X208461525Y-98086500D01*
X208461528Y-98086500D01*
X208606472Y-98086500D01*
X208606475Y-98086500D01*
X208746485Y-98048984D01*
X208872015Y-97976509D01*
X208974509Y-97874015D01*
X209046984Y-97748485D01*
X209084500Y-97608475D01*
X209084500Y-97463525D01*
X209046984Y-97323515D01*
X209038294Y-97308464D01*
X208974511Y-97197988D01*
X208974506Y-97197982D01*
X208872017Y-97095493D01*
X208872011Y-97095488D01*
X208746488Y-97023017D01*
X208746489Y-97023017D01*
X208735006Y-97019940D01*
X208606475Y-96985500D01*
X208461525Y-96985500D01*
X208332993Y-97019940D01*
X208321511Y-97023017D01*
X208195988Y-97095488D01*
X208195982Y-97095493D01*
X208093493Y-97197982D01*
X208093488Y-97197988D01*
X208021017Y-97323511D01*
X208021016Y-97323515D01*
X207983500Y-97463525D01*
X189735500Y-97463525D01*
X189735500Y-96193525D01*
X201379500Y-96193525D01*
X201379500Y-96338475D01*
X201415283Y-96472017D01*
X201417017Y-96478488D01*
X201489488Y-96604011D01*
X201489490Y-96604013D01*
X201489491Y-96604015D01*
X201591985Y-96706509D01*
X201591986Y-96706510D01*
X201591988Y-96706511D01*
X201717511Y-96778982D01*
X201717512Y-96778982D01*
X201717515Y-96778984D01*
X201857525Y-96816500D01*
X201857528Y-96816500D01*
X202002472Y-96816500D01*
X202002475Y-96816500D01*
X202142485Y-96778984D01*
X202268015Y-96706509D01*
X202370509Y-96604015D01*
X202442984Y-96478485D01*
X202480500Y-96338475D01*
X202480500Y-96193525D01*
X202442984Y-96053515D01*
X202370509Y-95927985D01*
X202268015Y-95825491D01*
X202268013Y-95825490D01*
X202268011Y-95825488D01*
X202142488Y-95753017D01*
X202142489Y-95753017D01*
X202131006Y-95749940D01*
X202002475Y-95715500D01*
X201857525Y-95715500D01*
X201728993Y-95749940D01*
X201717511Y-95753017D01*
X201591988Y-95825488D01*
X201591982Y-95825493D01*
X201489493Y-95927982D01*
X201489488Y-95927988D01*
X201417017Y-96053511D01*
X201417016Y-96053515D01*
X201379500Y-96193525D01*
X189735500Y-96193525D01*
X189735500Y-89350479D01*
X189755185Y-89283440D01*
X189807989Y-89237685D01*
X189877147Y-89227741D01*
X189902834Y-89234297D01*
X189962623Y-89256597D01*
X189962627Y-89256598D01*
X190022155Y-89262999D01*
X190022172Y-89263000D01*
X191120000Y-89263000D01*
X191120000Y-89166554D01*
X190333625Y-88380179D01*
X190555000Y-88380179D01*
X190555000Y-88445821D01*
X190580119Y-88506465D01*
X190626535Y-88552881D01*
X190687179Y-88578000D01*
X190752821Y-88578000D01*
X190813465Y-88552881D01*
X190859881Y-88506465D01*
X190885000Y-88445821D01*
X190885000Y-88413000D01*
X191073554Y-88413000D01*
X191120000Y-88459445D01*
X191120000Y-88459444D01*
X191620000Y-88459444D01*
X191666445Y-88413000D01*
X191633624Y-88380179D01*
X191855000Y-88380179D01*
X191855000Y-88445821D01*
X191880119Y-88506465D01*
X191926535Y-88552881D01*
X191987179Y-88578000D01*
X192052821Y-88578000D01*
X192113465Y-88552881D01*
X192159881Y-88506465D01*
X192185000Y-88445821D01*
X192185000Y-88380179D01*
X192159881Y-88319535D01*
X192113465Y-88273119D01*
X192052821Y-88248000D01*
X191987179Y-88248000D01*
X191926535Y-88273119D01*
X191880119Y-88319535D01*
X191855000Y-88380179D01*
X191633624Y-88380179D01*
X191620000Y-88366555D01*
X191620000Y-88459444D01*
X191120000Y-88459444D01*
X191120000Y-88366554D01*
X191073554Y-88413000D01*
X190885000Y-88413000D01*
X190885000Y-88380179D01*
X190859881Y-88319535D01*
X190813465Y-88273119D01*
X190752821Y-88248000D01*
X190687179Y-88248000D01*
X190626535Y-88273119D01*
X190580119Y-88319535D01*
X190555000Y-88380179D01*
X190333625Y-88380179D01*
X189962688Y-88009242D01*
X189929203Y-87947919D01*
X189934187Y-87878227D01*
X189939935Y-87865167D01*
X189992107Y-87763000D01*
X190423554Y-87763000D01*
X190720000Y-88059446D01*
X191016446Y-87763000D01*
X191723554Y-87763000D01*
X192020000Y-88059446D01*
X192316446Y-87763000D01*
X192020000Y-87466554D01*
X191723554Y-87763000D01*
X191016446Y-87763000D01*
X190720000Y-87466554D01*
X190423554Y-87763000D01*
X189992107Y-87763000D01*
X190006122Y-87735554D01*
X189962688Y-87692120D01*
X189929203Y-87630797D01*
X189934187Y-87561105D01*
X189962688Y-87516758D01*
X190366446Y-87113000D01*
X190333625Y-87080179D01*
X190555000Y-87080179D01*
X190555000Y-87145821D01*
X190580119Y-87206465D01*
X190626535Y-87252881D01*
X190687179Y-87278000D01*
X190752821Y-87278000D01*
X190813465Y-87252881D01*
X190859881Y-87206465D01*
X190885000Y-87145821D01*
X190885000Y-87113000D01*
X191073554Y-87113000D01*
X191120000Y-87159445D01*
X191120000Y-87159444D01*
X191620000Y-87159444D01*
X191666445Y-87113000D01*
X191633624Y-87080179D01*
X191855000Y-87080179D01*
X191855000Y-87145821D01*
X191880119Y-87206465D01*
X191926535Y-87252881D01*
X191987179Y-87278000D01*
X192052821Y-87278000D01*
X192113465Y-87252881D01*
X192159881Y-87206465D01*
X192185000Y-87145821D01*
X192185000Y-87080179D01*
X192159881Y-87019535D01*
X192113465Y-86973119D01*
X192052821Y-86948000D01*
X191987179Y-86948000D01*
X191926535Y-86973119D01*
X191880119Y-87019535D01*
X191855000Y-87080179D01*
X191633624Y-87080179D01*
X191620000Y-87066555D01*
X191620000Y-87159444D01*
X191120000Y-87159444D01*
X191120000Y-87066554D01*
X191073554Y-87113000D01*
X190885000Y-87113000D01*
X190885000Y-87080179D01*
X190859881Y-87019535D01*
X190813465Y-86973119D01*
X190752821Y-86948000D01*
X190687179Y-86948000D01*
X190626535Y-86973119D01*
X190580119Y-87019535D01*
X190555000Y-87080179D01*
X190333625Y-87080179D01*
X189962688Y-86709242D01*
X189929203Y-86647919D01*
X189934187Y-86578227D01*
X189939935Y-86565167D01*
X189992107Y-86463000D01*
X190423554Y-86463000D01*
X190720000Y-86759446D01*
X191016446Y-86463000D01*
X191723554Y-86463000D01*
X192020000Y-86759446D01*
X192316446Y-86463000D01*
X192020000Y-86166554D01*
X191723554Y-86463000D01*
X191016446Y-86463000D01*
X190720000Y-86166554D01*
X190423554Y-86463000D01*
X189992107Y-86463000D01*
X190006122Y-86435554D01*
X189962688Y-86392120D01*
X189929203Y-86330797D01*
X189934187Y-86261105D01*
X189962688Y-86216758D01*
X190399267Y-85780179D01*
X190555000Y-85780179D01*
X190555000Y-85845821D01*
X190580119Y-85906465D01*
X190626535Y-85952881D01*
X190687179Y-85978000D01*
X190752821Y-85978000D01*
X190813465Y-85952881D01*
X190859881Y-85906465D01*
X190885000Y-85845821D01*
X190885000Y-85813000D01*
X191073554Y-85813000D01*
X191120000Y-85859445D01*
X191120000Y-85859444D01*
X191620000Y-85859444D01*
X191666445Y-85813000D01*
X191633624Y-85780179D01*
X191855000Y-85780179D01*
X191855000Y-85845821D01*
X191880119Y-85906465D01*
X191926535Y-85952881D01*
X191987179Y-85978000D01*
X192052821Y-85978000D01*
X192113465Y-85952881D01*
X192159881Y-85906465D01*
X192185000Y-85845821D01*
X192185000Y-85780179D01*
X192159881Y-85719535D01*
X192113465Y-85673119D01*
X192052821Y-85648000D01*
X191987179Y-85648000D01*
X191926535Y-85673119D01*
X191880119Y-85719535D01*
X191855000Y-85780179D01*
X191633624Y-85780179D01*
X191620000Y-85766555D01*
X191620000Y-85859444D01*
X191120000Y-85859444D01*
X191120000Y-85766554D01*
X191073554Y-85813000D01*
X190885000Y-85813000D01*
X190885000Y-85780179D01*
X190859881Y-85719535D01*
X190813465Y-85673119D01*
X190752821Y-85648000D01*
X190687179Y-85648000D01*
X190626535Y-85673119D01*
X190580119Y-85719535D01*
X190555000Y-85780179D01*
X190399267Y-85780179D01*
X190505489Y-85673957D01*
X191119999Y-85059446D01*
X191120000Y-85059445D01*
X191120000Y-84963000D01*
X190022155Y-84963000D01*
X189962627Y-84969401D01*
X189962617Y-84969403D01*
X189902832Y-84991702D01*
X189833141Y-84996686D01*
X189771818Y-84963200D01*
X189738334Y-84901877D01*
X189735500Y-84875520D01*
X189735500Y-80896010D01*
X189735500Y-80896000D01*
X189723947Y-80788544D01*
X189712741Y-80737033D01*
X189710696Y-80730888D01*
X189678616Y-80634502D01*
X189678613Y-80634496D01*
X189600828Y-80513462D01*
X189600825Y-80513457D01*
X189559617Y-80465900D01*
X189555076Y-80460659D01*
X189555072Y-80460656D01*
X189555070Y-80460653D01*
X189446336Y-80366433D01*
X189446333Y-80366431D01*
X189446331Y-80366430D01*
X189315465Y-80306664D01*
X189315460Y-80306662D01*
X189315459Y-80306662D01*
X189248420Y-80286977D01*
X189248422Y-80286977D01*
X189248417Y-80286976D01*
X189200944Y-80280150D01*
X189106000Y-80266500D01*
X189105998Y-80266500D01*
X183987925Y-80266500D01*
X183920886Y-80246815D01*
X183875131Y-80194011D01*
X183865187Y-80124853D01*
X183887607Y-80069614D01*
X183986988Y-79932828D01*
X184069451Y-79770984D01*
X184125584Y-79598225D01*
X184154000Y-79418821D01*
X184154000Y-78924000D01*
X183400000Y-78924000D01*
X183400000Y-78424000D01*
X184154000Y-78424000D01*
X184154000Y-77929178D01*
X184125584Y-77749774D01*
X184069451Y-77577015D01*
X183986988Y-77415171D01*
X183880219Y-77268218D01*
X183880219Y-77268217D01*
X183751782Y-77139780D01*
X183604828Y-77033011D01*
X183442984Y-76950548D01*
X183270231Y-76894416D01*
X183270224Y-76894415D01*
X183250000Y-76891210D01*
X183250000Y-77758314D01*
X183245606Y-77753920D01*
X183154394Y-77701259D01*
X183052661Y-77674000D01*
X182947339Y-77674000D01*
X182845606Y-77701259D01*
X182754394Y-77753920D01*
X182750000Y-77758314D01*
X182750000Y-76891211D01*
X182749999Y-76891210D01*
X182729775Y-76894415D01*
X182729768Y-76894416D01*
X182557015Y-76950548D01*
X182395171Y-77033011D01*
X182248218Y-77139780D01*
X182248217Y-77139780D01*
X182119780Y-77268217D01*
X182119780Y-77268218D01*
X182013011Y-77415171D01*
X181930548Y-77577015D01*
X181874415Y-77749774D01*
X181846000Y-77929178D01*
X181846000Y-78424000D01*
X182600000Y-78424000D01*
X182600000Y-78924000D01*
X181846000Y-78924000D01*
X181846000Y-79418821D01*
X181874415Y-79598225D01*
X181930548Y-79770984D01*
X182013011Y-79932828D01*
X182112393Y-80069614D01*
X182135873Y-80135420D01*
X182120048Y-80203474D01*
X182069942Y-80252169D01*
X182012075Y-80266500D01*
X178787925Y-80266500D01*
X178720886Y-80246815D01*
X178675131Y-80194011D01*
X178665187Y-80124853D01*
X178687607Y-80069614D01*
X178786988Y-79932828D01*
X178869451Y-79770984D01*
X178925584Y-79598225D01*
X178954000Y-79418821D01*
X178954000Y-78924000D01*
X178200000Y-78924000D01*
X178200000Y-78424000D01*
X178954000Y-78424000D01*
X178954000Y-77929178D01*
X178925584Y-77749774D01*
X178869451Y-77577015D01*
X178786988Y-77415171D01*
X178680219Y-77268218D01*
X178680219Y-77268217D01*
X178551782Y-77139780D01*
X178404828Y-77033011D01*
X178242984Y-76950548D01*
X178070231Y-76894416D01*
X178070224Y-76894415D01*
X178050000Y-76891210D01*
X178050000Y-77758314D01*
X178045606Y-77753920D01*
X177954394Y-77701259D01*
X177852661Y-77674000D01*
X177747339Y-77674000D01*
X177645606Y-77701259D01*
X177554394Y-77753920D01*
X177550000Y-77758314D01*
X177550000Y-76891211D01*
X177549999Y-76891210D01*
X177529775Y-76894415D01*
X177529768Y-76894416D01*
X177357012Y-76950549D01*
X177215794Y-77022503D01*
X177147125Y-77035399D01*
X177082385Y-77009122D01*
X177042128Y-76952016D01*
X177035500Y-76912018D01*
X177035500Y-76364844D01*
X189570000Y-76364844D01*
X189576401Y-76424372D01*
X189576403Y-76424379D01*
X189626645Y-76559086D01*
X189626649Y-76559093D01*
X189712809Y-76674187D01*
X189712812Y-76674190D01*
X189827906Y-76760350D01*
X189827913Y-76760354D01*
X189962620Y-76810596D01*
X189962627Y-76810598D01*
X190022155Y-76816999D01*
X190022172Y-76817000D01*
X191120000Y-76817000D01*
X191120000Y-76720553D01*
X191119999Y-76720552D01*
X190543223Y-76143777D01*
X190336609Y-75937163D01*
X190570000Y-75937163D01*
X190570000Y-75996837D01*
X190592836Y-76051968D01*
X190635032Y-76094164D01*
X190690163Y-76117000D01*
X190749837Y-76117000D01*
X190804968Y-76094164D01*
X190847164Y-76051968D01*
X190870000Y-75996837D01*
X190870000Y-75967000D01*
X191073553Y-75967000D01*
X191119999Y-76013446D01*
X191120000Y-76013446D01*
X191620000Y-76013446D01*
X191666446Y-75967001D01*
X191666446Y-75966999D01*
X191636610Y-75937163D01*
X191870000Y-75937163D01*
X191870000Y-75996837D01*
X191892836Y-76051968D01*
X191935032Y-76094164D01*
X191990163Y-76117000D01*
X192049837Y-76117000D01*
X192104968Y-76094164D01*
X192147164Y-76051968D01*
X192170000Y-75996837D01*
X192170000Y-75937163D01*
X192147164Y-75882032D01*
X192104968Y-75839836D01*
X192049837Y-75817000D01*
X191990163Y-75817000D01*
X191935032Y-75839836D01*
X191892836Y-75882032D01*
X191870000Y-75937163D01*
X191636610Y-75937163D01*
X191620000Y-75920553D01*
X191620000Y-76013446D01*
X191120000Y-76013446D01*
X191120000Y-75920553D01*
X191073553Y-75967000D01*
X190870000Y-75967000D01*
X190870000Y-75937163D01*
X190847164Y-75882032D01*
X190804968Y-75839836D01*
X190749837Y-75817000D01*
X190690163Y-75817000D01*
X190635032Y-75839836D01*
X190592836Y-75882032D01*
X190570000Y-75937163D01*
X190336609Y-75937163D01*
X189973294Y-75573848D01*
X189939809Y-75512525D01*
X189944793Y-75442833D01*
X189973294Y-75398485D01*
X190054779Y-75317000D01*
X190423553Y-75317000D01*
X190720000Y-75613446D01*
X190720001Y-75613446D01*
X191016446Y-75317001D01*
X191016446Y-75317000D01*
X191723553Y-75317000D01*
X192020000Y-75613446D01*
X192020001Y-75613446D01*
X192316446Y-75317001D01*
X192316446Y-75316999D01*
X192020001Y-75020553D01*
X192020000Y-75020553D01*
X191723553Y-75317000D01*
X191016446Y-75317000D01*
X191016446Y-75316999D01*
X190720001Y-75020553D01*
X190720000Y-75020553D01*
X190423553Y-75317000D01*
X190054779Y-75317000D01*
X190054780Y-75316999D01*
X189973295Y-75235514D01*
X189939810Y-75174191D01*
X189944794Y-75104499D01*
X189973295Y-75060152D01*
X190116447Y-74917000D01*
X189570000Y-74917000D01*
X189570000Y-76364844D01*
X177035500Y-76364844D01*
X177035500Y-75562010D01*
X177035500Y-75562000D01*
X177023947Y-75454544D01*
X177012741Y-75403033D01*
X177004401Y-75377975D01*
X176978616Y-75300502D01*
X176978613Y-75300496D01*
X176936850Y-75235513D01*
X176900825Y-75179457D01*
X176900820Y-75179451D01*
X176855076Y-75126659D01*
X176855072Y-75126656D01*
X176855070Y-75126653D01*
X176746336Y-75032433D01*
X176746333Y-75032431D01*
X176746331Y-75032430D01*
X176628094Y-74978432D01*
X176628093Y-74978432D01*
X176615462Y-74972663D01*
X176611552Y-74971515D01*
X176548420Y-74952977D01*
X176548422Y-74952977D01*
X176548417Y-74952976D01*
X176486347Y-74944052D01*
X176406000Y-74932500D01*
X172844000Y-74932500D01*
X172843991Y-74932500D01*
X172843990Y-74932501D01*
X172736549Y-74944052D01*
X172736537Y-74944054D01*
X172685027Y-74955260D01*
X172582502Y-74989383D01*
X172582496Y-74989386D01*
X172461462Y-75067171D01*
X172461451Y-75067179D01*
X172408659Y-75112923D01*
X172314433Y-75221664D01*
X172314430Y-75221668D01*
X172254664Y-75352534D01*
X172234976Y-75419582D01*
X172222925Y-75503405D01*
X172214500Y-75562000D01*
X172214500Y-82333500D01*
X172214501Y-82333509D01*
X172226052Y-82440950D01*
X172226054Y-82440962D01*
X172237259Y-82492469D01*
X172254524Y-82544340D01*
X172257018Y-82614166D01*
X172221366Y-82674255D01*
X172158887Y-82705530D01*
X172136870Y-82707500D01*
X147262544Y-82707500D01*
X147195505Y-82687815D01*
X147174863Y-82671181D01*
X145699032Y-81195350D01*
X164024500Y-81195350D01*
X164024500Y-81364649D01*
X164050981Y-81531847D01*
X164103296Y-81692853D01*
X164180152Y-81843688D01*
X164279648Y-81980634D01*
X164279652Y-81980639D01*
X164399360Y-82100347D01*
X164399365Y-82100351D01*
X164486133Y-82163391D01*
X164536315Y-82199850D01*
X164601466Y-82233046D01*
X164687146Y-82276703D01*
X164687148Y-82276703D01*
X164687151Y-82276705D01*
X164773450Y-82304745D01*
X164848152Y-82329018D01*
X165015351Y-82355500D01*
X165015356Y-82355500D01*
X165184649Y-82355500D01*
X165351847Y-82329018D01*
X165357541Y-82327168D01*
X165512849Y-82276705D01*
X165663685Y-82199850D01*
X165800641Y-82100346D01*
X165920346Y-81980641D01*
X166019850Y-81843685D01*
X166096705Y-81692849D01*
X166149018Y-81531847D01*
X166156684Y-81483444D01*
X166175500Y-81364649D01*
X166175500Y-81195350D01*
X166149018Y-81028152D01*
X166106082Y-80896010D01*
X166096705Y-80867151D01*
X166096703Y-80867148D01*
X166096703Y-80867146D01*
X166056655Y-80788549D01*
X166019850Y-80716315D01*
X165985884Y-80669565D01*
X165920351Y-80579365D01*
X165920347Y-80579360D01*
X165800639Y-80459652D01*
X165800634Y-80459648D01*
X165663688Y-80360152D01*
X165663687Y-80360151D01*
X165663685Y-80360150D01*
X165616582Y-80336150D01*
X165512853Y-80283296D01*
X165351847Y-80230981D01*
X165184649Y-80204500D01*
X165184644Y-80204500D01*
X165015356Y-80204500D01*
X165015351Y-80204500D01*
X164848152Y-80230981D01*
X164687146Y-80283296D01*
X164536311Y-80360152D01*
X164399365Y-80459648D01*
X164399360Y-80459652D01*
X164279652Y-80579360D01*
X164279648Y-80579365D01*
X164180152Y-80716311D01*
X164103296Y-80867146D01*
X164050981Y-81028152D01*
X164024500Y-81195350D01*
X145699032Y-81195350D01*
X144138613Y-79634931D01*
X144138608Y-79634927D01*
X144058690Y-79588787D01*
X144058689Y-79588786D01*
X144058688Y-79588786D01*
X143969544Y-79564900D01*
X143969543Y-79564900D01*
X143341233Y-79564900D01*
X143274194Y-79545215D01*
X143253552Y-79528581D01*
X143199864Y-79474893D01*
X143199858Y-79474888D01*
X143074335Y-79402417D01*
X143074336Y-79402417D01*
X143071083Y-79401545D01*
X143039141Y-79392986D01*
X142979484Y-79356623D01*
X142948955Y-79293776D01*
X142957250Y-79224400D01*
X143001735Y-79170522D01*
X143039142Y-79153439D01*
X143071888Y-79144665D01*
X143197418Y-79072190D01*
X143299912Y-78969696D01*
X143372387Y-78844166D01*
X143409903Y-78704156D01*
X143409903Y-78655350D01*
X164024500Y-78655350D01*
X164024500Y-78824649D01*
X164050981Y-78991847D01*
X164103296Y-79152853D01*
X164180152Y-79303688D01*
X164279648Y-79440634D01*
X164279652Y-79440639D01*
X164399360Y-79560347D01*
X164399365Y-79560351D01*
X164451495Y-79598225D01*
X164536315Y-79659850D01*
X164620827Y-79702911D01*
X164687146Y-79736703D01*
X164687148Y-79736703D01*
X164687151Y-79736705D01*
X164773450Y-79764745D01*
X164848152Y-79789018D01*
X165015351Y-79815500D01*
X165015356Y-79815500D01*
X165184649Y-79815500D01*
X165351847Y-79789018D01*
X165512849Y-79736705D01*
X165663685Y-79659850D01*
X165800641Y-79560346D01*
X165920346Y-79440641D01*
X166019850Y-79303685D01*
X166096705Y-79152849D01*
X166120899Y-79078386D01*
X166160337Y-79020712D01*
X166224696Y-78993514D01*
X166293542Y-79005429D01*
X166345018Y-79052673D01*
X166356761Y-79078388D01*
X166412075Y-79248625D01*
X166506759Y-79434451D01*
X166542627Y-79483818D01*
X166542627Y-79483819D01*
X167116212Y-78910234D01*
X167127482Y-78952292D01*
X167199890Y-79077708D01*
X167302292Y-79180110D01*
X167427708Y-79252518D01*
X167469765Y-79263787D01*
X166896179Y-79837371D01*
X166896180Y-79837372D01*
X166945543Y-79873236D01*
X166945556Y-79873244D01*
X167131374Y-79967924D01*
X167301611Y-80023238D01*
X167359287Y-80062675D01*
X167386485Y-80127034D01*
X167374570Y-80195880D01*
X167327326Y-80247356D01*
X167301614Y-80259099D01*
X167227149Y-80283295D01*
X167076311Y-80360152D01*
X166939365Y-80459648D01*
X166939360Y-80459652D01*
X166819652Y-80579360D01*
X166819648Y-80579365D01*
X166720152Y-80716311D01*
X166643296Y-80867146D01*
X166590981Y-81028152D01*
X166564500Y-81195350D01*
X166564500Y-81364649D01*
X166590981Y-81531847D01*
X166643296Y-81692853D01*
X166720152Y-81843688D01*
X166819648Y-81980634D01*
X166819652Y-81980639D01*
X166939360Y-82100347D01*
X166939365Y-82100351D01*
X167026133Y-82163391D01*
X167076315Y-82199850D01*
X167141466Y-82233046D01*
X167227146Y-82276703D01*
X167227148Y-82276703D01*
X167227151Y-82276705D01*
X167313450Y-82304745D01*
X167388152Y-82329018D01*
X167555351Y-82355500D01*
X167555356Y-82355500D01*
X167724649Y-82355500D01*
X167891847Y-82329018D01*
X167897541Y-82327168D01*
X168052849Y-82276705D01*
X168203685Y-82199850D01*
X168340641Y-82100346D01*
X168460346Y-81980641D01*
X168559850Y-81843685D01*
X168636705Y-81692849D01*
X168689018Y-81531847D01*
X168696684Y-81483444D01*
X168715500Y-81364649D01*
X168715500Y-81195350D01*
X168689018Y-81028152D01*
X168646082Y-80896010D01*
X168636705Y-80867151D01*
X168636703Y-80867148D01*
X168636703Y-80867146D01*
X168596655Y-80788549D01*
X168559850Y-80716315D01*
X168525884Y-80669565D01*
X168460351Y-80579365D01*
X168460347Y-80579360D01*
X168340639Y-80459652D01*
X168340634Y-80459648D01*
X168203688Y-80360152D01*
X168203687Y-80360151D01*
X168203685Y-80360150D01*
X168155361Y-80335527D01*
X168052849Y-80283294D01*
X167978386Y-80259099D01*
X167920711Y-80219661D01*
X167893514Y-80155302D01*
X167905430Y-80086456D01*
X167952675Y-80034981D01*
X167978388Y-80023238D01*
X168148625Y-79967924D01*
X168334451Y-79873240D01*
X168383818Y-79837372D01*
X168383818Y-79837371D01*
X167810234Y-79263787D01*
X167852292Y-79252518D01*
X167977708Y-79180110D01*
X168080110Y-79077708D01*
X168152518Y-78952292D01*
X168163787Y-78910234D01*
X168737371Y-79483818D01*
X168737372Y-79483818D01*
X168773240Y-79434451D01*
X168867924Y-79248627D01*
X168932373Y-79050272D01*
X168965000Y-78844279D01*
X168965000Y-78635720D01*
X168932373Y-78429727D01*
X168867924Y-78231372D01*
X168773244Y-78045556D01*
X168773236Y-78045543D01*
X168737372Y-77996180D01*
X168737371Y-77996179D01*
X168163787Y-78569764D01*
X168152518Y-78527708D01*
X168080110Y-78402292D01*
X167977708Y-78299890D01*
X167852292Y-78227482D01*
X167810233Y-78216212D01*
X168383819Y-77642627D01*
X168334451Y-77606759D01*
X168148625Y-77512075D01*
X167978388Y-77456761D01*
X167920712Y-77417323D01*
X167893514Y-77352965D01*
X167905429Y-77284118D01*
X167952673Y-77232643D01*
X167978384Y-77220900D01*
X168052849Y-77196705D01*
X168203685Y-77119850D01*
X168340641Y-77020346D01*
X168460346Y-76900641D01*
X168559850Y-76763685D01*
X168636705Y-76612849D01*
X168689018Y-76451847D01*
X168693288Y-76424887D01*
X168715500Y-76284649D01*
X168715500Y-76115350D01*
X168689018Y-75948152D01*
X168653823Y-75839836D01*
X168636705Y-75787151D01*
X168636703Y-75787148D01*
X168636703Y-75787146D01*
X168590762Y-75696984D01*
X168559850Y-75636315D01*
X168536666Y-75604405D01*
X168460351Y-75499365D01*
X168460347Y-75499360D01*
X168340639Y-75379652D01*
X168340634Y-75379648D01*
X168203688Y-75280152D01*
X168203687Y-75280151D01*
X168203685Y-75280150D01*
X168156582Y-75256150D01*
X168052853Y-75203296D01*
X167891847Y-75150981D01*
X167724649Y-75124500D01*
X167724644Y-75124500D01*
X167555356Y-75124500D01*
X167555351Y-75124500D01*
X167388152Y-75150981D01*
X167227146Y-75203296D01*
X167076311Y-75280152D01*
X166939365Y-75379648D01*
X166939360Y-75379652D01*
X166819652Y-75499360D01*
X166819648Y-75499365D01*
X166720152Y-75636311D01*
X166643296Y-75787146D01*
X166590981Y-75948152D01*
X166564500Y-76115350D01*
X166564500Y-76284649D01*
X166590981Y-76451847D01*
X166643296Y-76612853D01*
X166720152Y-76763688D01*
X166819648Y-76900634D01*
X166819652Y-76900639D01*
X166939360Y-77020347D01*
X166939365Y-77020351D01*
X167025844Y-77083181D01*
X167076315Y-77119850D01*
X167227151Y-77196705D01*
X167299002Y-77220051D01*
X167301612Y-77220899D01*
X167359287Y-77260337D01*
X167386485Y-77324696D01*
X167374570Y-77393542D01*
X167327325Y-77445018D01*
X167301612Y-77456761D01*
X167131372Y-77512075D01*
X166945552Y-77606757D01*
X166896180Y-77642627D01*
X167469766Y-78216212D01*
X167427708Y-78227482D01*
X167302292Y-78299890D01*
X167199890Y-78402292D01*
X167127482Y-78527708D01*
X167116212Y-78569765D01*
X166542627Y-77996180D01*
X166506757Y-78045552D01*
X166412075Y-78231372D01*
X166356761Y-78401612D01*
X166317323Y-78459287D01*
X166252964Y-78486485D01*
X166184118Y-78474570D01*
X166132642Y-78427326D01*
X166120899Y-78401612D01*
X166115971Y-78386446D01*
X166096705Y-78327151D01*
X166019850Y-78176315D01*
X165962810Y-78097806D01*
X165920351Y-78039365D01*
X165920347Y-78039360D01*
X165800639Y-77919652D01*
X165800634Y-77919648D01*
X165663688Y-77820152D01*
X165663687Y-77820151D01*
X165663685Y-77820150D01*
X165616582Y-77796150D01*
X165512853Y-77743296D01*
X165351847Y-77690981D01*
X165184649Y-77664500D01*
X165184644Y-77664500D01*
X165015356Y-77664500D01*
X165015351Y-77664500D01*
X164848152Y-77690981D01*
X164687146Y-77743296D01*
X164536311Y-77820152D01*
X164399365Y-77919648D01*
X164399360Y-77919652D01*
X164279652Y-78039360D01*
X164279648Y-78039365D01*
X164180152Y-78176311D01*
X164103296Y-78327146D01*
X164050981Y-78488152D01*
X164024500Y-78655350D01*
X143409903Y-78655350D01*
X143409903Y-78559206D01*
X143372387Y-78419196D01*
X143362627Y-78402292D01*
X143299914Y-78293669D01*
X143299909Y-78293663D01*
X143197420Y-78191174D01*
X143197418Y-78191172D01*
X143197415Y-78191170D01*
X143197150Y-78190967D01*
X143196979Y-78190733D01*
X143191671Y-78185425D01*
X143192498Y-78184597D01*
X143155948Y-78134538D01*
X143151794Y-78064792D01*
X143186008Y-78003872D01*
X143210638Y-77985205D01*
X143241929Y-77967139D01*
X143340015Y-77910509D01*
X143442509Y-77808015D01*
X143514984Y-77682485D01*
X143552500Y-77542475D01*
X143552500Y-77397525D01*
X143514984Y-77257515D01*
X143510078Y-77249018D01*
X143442511Y-77131988D01*
X143442506Y-77131982D01*
X143340017Y-77029493D01*
X143340011Y-77029488D01*
X143214488Y-76957017D01*
X143214489Y-76957017D01*
X143190346Y-76950548D01*
X143074475Y-76919500D01*
X142929525Y-76919500D01*
X142813654Y-76950548D01*
X142789511Y-76957017D01*
X142663988Y-77029488D01*
X142663982Y-77029493D01*
X142610295Y-77083181D01*
X142548972Y-77116666D01*
X142522614Y-77119500D01*
X104873386Y-77119500D01*
X104806347Y-77099815D01*
X104785705Y-77083181D01*
X104732017Y-77029493D01*
X104732011Y-77029488D01*
X104606488Y-76957017D01*
X104606489Y-76957017D01*
X104582346Y-76950548D01*
X104466475Y-76919500D01*
X104321525Y-76919500D01*
X104205654Y-76950548D01*
X104181511Y-76957017D01*
X104055988Y-77029488D01*
X104055982Y-77029493D01*
X103953493Y-77131982D01*
X103953488Y-77131988D01*
X103881017Y-77257511D01*
X103881016Y-77257515D01*
X103843500Y-77397525D01*
X103843500Y-77542475D01*
X103881016Y-77682485D01*
X103881017Y-77682488D01*
X103953488Y-77808011D01*
X103953490Y-77808013D01*
X103953491Y-77808015D01*
X104055985Y-77910509D01*
X104055986Y-77910510D01*
X104055988Y-77910511D01*
X104181511Y-77982982D01*
X104181512Y-77982982D01*
X104181515Y-77982984D01*
X104321525Y-78020500D01*
X104321528Y-78020500D01*
X104466472Y-78020500D01*
X104466475Y-78020500D01*
X104606485Y-77982984D01*
X104732015Y-77910509D01*
X104785705Y-77856819D01*
X104847028Y-77823334D01*
X104873386Y-77820500D01*
X142522614Y-77820500D01*
X142551371Y-77828944D01*
X142580736Y-77834966D01*
X142586571Y-77839280D01*
X142589653Y-77840185D01*
X142609241Y-77855778D01*
X142609791Y-77856315D01*
X142663985Y-77910509D01*
X142667191Y-77912360D01*
X142675391Y-77920366D01*
X142689027Y-77944644D01*
X142705453Y-77967139D01*
X142705902Y-77974689D01*
X142709607Y-77981284D01*
X142707951Y-78009086D01*
X142709608Y-78036885D01*
X142705904Y-78043479D01*
X142705455Y-78051030D01*
X142689033Y-78073522D01*
X142675396Y-78097806D01*
X142666232Y-78104751D01*
X142664255Y-78107460D01*
X142660996Y-78108719D01*
X142650765Y-78116475D01*
X142521388Y-78191172D01*
X142521385Y-78191174D01*
X142467698Y-78244862D01*
X142406375Y-78278347D01*
X142380017Y-78281181D01*
X105472175Y-78281181D01*
X105383031Y-78305067D01*
X105383028Y-78305068D01*
X105303110Y-78351208D01*
X105303105Y-78351212D01*
X104113532Y-79540785D01*
X104113528Y-79540791D01*
X104083890Y-79592126D01*
X104067387Y-79620709D01*
X104067386Y-79620712D01*
X104043500Y-79709856D01*
X104043500Y-90834866D01*
X104067322Y-90923772D01*
X104067382Y-90924000D01*
X104067386Y-90924010D01*
X104113527Y-91003928D01*
X104113531Y-91003933D01*
X105591804Y-92482206D01*
X105625289Y-92543529D01*
X105628123Y-92569887D01*
X105628123Y-92645818D01*
X105664740Y-92782472D01*
X105665640Y-92785831D01*
X105738111Y-92911354D01*
X105738113Y-92911356D01*
X105738114Y-92911358D01*
X105840608Y-93013852D01*
X105840609Y-93013853D01*
X105840611Y-93013854D01*
X105966134Y-93086325D01*
X105966135Y-93086325D01*
X105966138Y-93086327D01*
X106106148Y-93123843D01*
X106106151Y-93123843D01*
X106251095Y-93123843D01*
X106251098Y-93123843D01*
X106391108Y-93086327D01*
X106516638Y-93013852D01*
X106619132Y-92911358D01*
X106691607Y-92785828D01*
X106729123Y-92645818D01*
X106729123Y-92500868D01*
X106691607Y-92360858D01*
X106676091Y-92333984D01*
X106619134Y-92235331D01*
X106619129Y-92235325D01*
X106540547Y-92156743D01*
X106507062Y-92095420D01*
X106512046Y-92025728D01*
X106540547Y-91981381D01*
X106601913Y-91920015D01*
X106674388Y-91794485D01*
X106711904Y-91654475D01*
X106711904Y-91509525D01*
X106674388Y-91369515D01*
X106674050Y-91368930D01*
X106601915Y-91243988D01*
X106601910Y-91243982D01*
X106558819Y-91200891D01*
X106525334Y-91139568D01*
X106522500Y-91113210D01*
X106522500Y-83695544D01*
X106542185Y-83628505D01*
X106594989Y-83582750D01*
X106664147Y-83572806D01*
X106727703Y-83601831D01*
X106734181Y-83607863D01*
X110153322Y-87027004D01*
X110163934Y-87046440D01*
X110178435Y-87063174D01*
X110180351Y-87076505D01*
X110186807Y-87088327D01*
X110185227Y-87110413D01*
X110188379Y-87132332D01*
X110182783Y-87144583D01*
X110181823Y-87158019D01*
X110168552Y-87175745D01*
X110159354Y-87195888D01*
X110148022Y-87203170D01*
X110139951Y-87213952D01*
X110119205Y-87221689D01*
X110100576Y-87233662D01*
X110078657Y-87236813D01*
X110074487Y-87238369D01*
X110065641Y-87238685D01*
X109953386Y-87238685D01*
X109886347Y-87219000D01*
X109865705Y-87202366D01*
X109812017Y-87148678D01*
X109812011Y-87148673D01*
X109686488Y-87076202D01*
X109686489Y-87076202D01*
X109675006Y-87073125D01*
X109546475Y-87038685D01*
X109401525Y-87038685D01*
X109272993Y-87073125D01*
X109261511Y-87076202D01*
X109135988Y-87148673D01*
X109135982Y-87148678D01*
X109033493Y-87251167D01*
X109033488Y-87251173D01*
X108961017Y-87376696D01*
X108961016Y-87376700D01*
X108923500Y-87516710D01*
X108923500Y-87661660D01*
X108955541Y-87781237D01*
X108961017Y-87801673D01*
X109033488Y-87927196D01*
X109033490Y-87927198D01*
X109033491Y-87927200D01*
X109135985Y-88029694D01*
X109135986Y-88029695D01*
X109135988Y-88029696D01*
X109261511Y-88102167D01*
X109261512Y-88102167D01*
X109261515Y-88102169D01*
X109401525Y-88139685D01*
X109401528Y-88139685D01*
X109546472Y-88139685D01*
X109546475Y-88139685D01*
X109686485Y-88102169D01*
X109812015Y-88029694D01*
X109865705Y-87976004D01*
X109927028Y-87942519D01*
X109953386Y-87939685D01*
X116282356Y-87939685D01*
X116349395Y-87959370D01*
X116395150Y-88012174D01*
X116405094Y-88081332D01*
X116376069Y-88144888D01*
X116372256Y-88149090D01*
X116028532Y-88510905D01*
X115968087Y-88545951D01*
X115938632Y-88549500D01*
X115269856Y-88549500D01*
X115180712Y-88573386D01*
X115180709Y-88573387D01*
X115100791Y-88619527D01*
X115100786Y-88619531D01*
X113145030Y-90575287D01*
X113145026Y-90575293D01*
X113112369Y-90631857D01*
X113098885Y-90655211D01*
X113098884Y-90655214D01*
X113074998Y-90744358D01*
X113074998Y-91570376D01*
X113055313Y-91637415D01*
X113040898Y-91655781D01*
X109982000Y-94875674D01*
X109982000Y-94875675D01*
X109982000Y-111506000D01*
X115954000Y-111506000D01*
X116021039Y-111525685D01*
X116066794Y-111578489D01*
X116078000Y-111630000D01*
X116078000Y-130494113D01*
X116058315Y-130561152D01*
X116005511Y-130606907D01*
X115936353Y-130616851D01*
X115872797Y-130587826D01*
X115866319Y-130581794D01*
X114787099Y-129502574D01*
X114753614Y-129441251D01*
X114750780Y-129414893D01*
X114750780Y-113354493D01*
X114750780Y-113354491D01*
X114713264Y-113214481D01*
X114640789Y-113088951D01*
X114538295Y-112986457D01*
X114538293Y-112986456D01*
X114538291Y-112986454D01*
X114412768Y-112913983D01*
X114412769Y-112913983D01*
X114401286Y-112910906D01*
X114272755Y-112876466D01*
X114127805Y-112876466D01*
X113999273Y-112910906D01*
X113987791Y-112913983D01*
X113862268Y-112986454D01*
X113862262Y-112986459D01*
X113759773Y-113088948D01*
X113759768Y-113088954D01*
X113687297Y-113214477D01*
X113687296Y-113214481D01*
X113649780Y-113354491D01*
X113649780Y-113354493D01*
X113649780Y-129766754D01*
X113678737Y-129874826D01*
X113687294Y-129906760D01*
X113687296Y-129906765D01*
X113759770Y-130032295D01*
X115993985Y-132266510D01*
X115993986Y-132266511D01*
X115993988Y-132266512D01*
X116015998Y-132279219D01*
X116064214Y-132329785D01*
X116078000Y-132386607D01*
X116078000Y-133233500D01*
X116058315Y-133300539D01*
X116005511Y-133346294D01*
X115954000Y-133357500D01*
X105365751Y-133357500D01*
X105358264Y-133357274D01*
X105068205Y-133339728D01*
X105053340Y-133337923D01*
X104771201Y-133286219D01*
X104756663Y-133282635D01*
X104482832Y-133197306D01*
X104468831Y-133191997D01*
X104207263Y-133074275D01*
X104194004Y-133067316D01*
X103948540Y-132918928D01*
X103936217Y-132910422D01*
X103710426Y-132733526D01*
X103699218Y-132723596D01*
X103496403Y-132520781D01*
X103486473Y-132509573D01*
X103309573Y-132283776D01*
X103301075Y-132271465D01*
X103152680Y-132025989D01*
X103145727Y-132012743D01*
X103028000Y-131751163D01*
X103022693Y-131737167D01*
X102937364Y-131463336D01*
X102933780Y-131448798D01*
X102882076Y-131166659D01*
X102880271Y-131151794D01*
X102862726Y-130861736D01*
X102862500Y-130854249D01*
X102862500Y-126370711D01*
X106353500Y-126370711D01*
X106353500Y-126613288D01*
X106385161Y-126853785D01*
X106447947Y-127088104D01*
X106498267Y-127209586D01*
X106540776Y-127312212D01*
X106662064Y-127522289D01*
X106662066Y-127522292D01*
X106662067Y-127522293D01*
X106809733Y-127714736D01*
X106809739Y-127714743D01*
X106981256Y-127886260D01*
X106981262Y-127886265D01*
X107173711Y-128033936D01*
X107383788Y-128155224D01*
X107607900Y-128248054D01*
X107842211Y-128310838D01*
X108022586Y-128334584D01*
X108082711Y-128342500D01*
X108082712Y-128342500D01*
X108325289Y-128342500D01*
X108373388Y-128336167D01*
X108565789Y-128310838D01*
X108800100Y-128248054D01*
X109024212Y-128155224D01*
X109234289Y-128033936D01*
X109426738Y-127886265D01*
X109598265Y-127714738D01*
X109745936Y-127522289D01*
X109867224Y-127312212D01*
X109960054Y-127088100D01*
X110022838Y-126853789D01*
X110054500Y-126613288D01*
X110054500Y-126370712D01*
X110052682Y-126356906D01*
X110022838Y-126130214D01*
X110022838Y-126130211D01*
X109960054Y-125895900D01*
X109867224Y-125671788D01*
X109745936Y-125461711D01*
X109598265Y-125269262D01*
X109598260Y-125269256D01*
X109426743Y-125097739D01*
X109426736Y-125097733D01*
X109234293Y-124950067D01*
X109234292Y-124950066D01*
X109234289Y-124950064D01*
X109024212Y-124828776D01*
X109024205Y-124828773D01*
X108800104Y-124735947D01*
X108565785Y-124673161D01*
X108325289Y-124641500D01*
X108325288Y-124641500D01*
X108082712Y-124641500D01*
X108082711Y-124641500D01*
X107842214Y-124673161D01*
X107607895Y-124735947D01*
X107383794Y-124828773D01*
X107383785Y-124828777D01*
X107173706Y-124950067D01*
X106981263Y-125097733D01*
X106981256Y-125097739D01*
X106809739Y-125269256D01*
X106809733Y-125269263D01*
X106662067Y-125461706D01*
X106540777Y-125671785D01*
X106540773Y-125671794D01*
X106447947Y-125895895D01*
X106385161Y-126130214D01*
X106353500Y-126370711D01*
X102862500Y-126370711D01*
X102862500Y-76036117D01*
X104351500Y-76036117D01*
X104351500Y-76181067D01*
X104389016Y-76321077D01*
X104389017Y-76321080D01*
X104461488Y-76446603D01*
X104461490Y-76446605D01*
X104461491Y-76446607D01*
X104563985Y-76549101D01*
X104563986Y-76549102D01*
X104563988Y-76549103D01*
X104689511Y-76621574D01*
X104689512Y-76621574D01*
X104689515Y-76621576D01*
X104829525Y-76659092D01*
X104829528Y-76659092D01*
X104974472Y-76659092D01*
X104974475Y-76659092D01*
X105114485Y-76621576D01*
X105240015Y-76549101D01*
X105284908Y-76504208D01*
X105346231Y-76470723D01*
X105372589Y-76467889D01*
X142480449Y-76467889D01*
X142547488Y-76487574D01*
X142568130Y-76504208D01*
X142621820Y-76557898D01*
X142621821Y-76557899D01*
X142621823Y-76557900D01*
X142747346Y-76630371D01*
X142747347Y-76630371D01*
X142747350Y-76630373D01*
X142887360Y-76667889D01*
X142887363Y-76667889D01*
X143032307Y-76667889D01*
X143032310Y-76667889D01*
X143172320Y-76630373D01*
X143297850Y-76557898D01*
X143400344Y-76455404D01*
X143472819Y-76329874D01*
X143510335Y-76189864D01*
X143510335Y-76044914D01*
X143472819Y-75904904D01*
X143422067Y-75817000D01*
X143400346Y-75779377D01*
X143400341Y-75779371D01*
X143297852Y-75676882D01*
X143297846Y-75676877D01*
X143172323Y-75604406D01*
X143169942Y-75603420D01*
X143168241Y-75602049D01*
X143165282Y-75600341D01*
X143165548Y-75599879D01*
X143115539Y-75559578D01*
X143093475Y-75493284D01*
X143110755Y-75425585D01*
X143161892Y-75377975D01*
X143185295Y-75369086D01*
X143197346Y-75365858D01*
X143197349Y-75365856D01*
X143197350Y-75365856D01*
X143260111Y-75329620D01*
X143322876Y-75293383D01*
X143425370Y-75190889D01*
X143497845Y-75065359D01*
X143535361Y-74925349D01*
X143535361Y-74780399D01*
X143497845Y-74640389D01*
X143495982Y-74637163D01*
X143425372Y-74514862D01*
X143425367Y-74514856D01*
X143322878Y-74412367D01*
X143322872Y-74412362D01*
X143197349Y-74339891D01*
X143197344Y-74339889D01*
X143139342Y-74324347D01*
X143079682Y-74287982D01*
X143049154Y-74225135D01*
X143057449Y-74155759D01*
X143101935Y-74101882D01*
X143139337Y-74084800D01*
X143214485Y-74064665D01*
X143340015Y-73992190D01*
X143442509Y-73889696D01*
X143514984Y-73764166D01*
X143552500Y-73624156D01*
X143552500Y-73548225D01*
X143572185Y-73481186D01*
X143588819Y-73460544D01*
X145796544Y-71252819D01*
X145857867Y-71219334D01*
X145884225Y-71216500D01*
X162871456Y-71216500D01*
X162938495Y-71236185D01*
X162959137Y-71252819D01*
X164713181Y-73006863D01*
X164746666Y-73068186D01*
X164749500Y-73094544D01*
X164749500Y-75095539D01*
X164729815Y-75162578D01*
X164681795Y-75206024D01*
X164536311Y-75280152D01*
X164399365Y-75379648D01*
X164399360Y-75379652D01*
X164279652Y-75499360D01*
X164279648Y-75499365D01*
X164180152Y-75636311D01*
X164103296Y-75787146D01*
X164050981Y-75948152D01*
X164024500Y-76115350D01*
X164024500Y-76284649D01*
X164050981Y-76451847D01*
X164103296Y-76612853D01*
X164180152Y-76763688D01*
X164279648Y-76900634D01*
X164279652Y-76900639D01*
X164399360Y-77020347D01*
X164399365Y-77020351D01*
X164485844Y-77083181D01*
X164536315Y-77119850D01*
X164632425Y-77168820D01*
X164687146Y-77196703D01*
X164687148Y-77196703D01*
X164687151Y-77196705D01*
X164761612Y-77220899D01*
X164848152Y-77249018D01*
X165015351Y-77275500D01*
X165015356Y-77275500D01*
X165184649Y-77275500D01*
X165351847Y-77249018D01*
X165512849Y-77196705D01*
X165663685Y-77119850D01*
X165800641Y-77020346D01*
X165920346Y-76900641D01*
X166019850Y-76763685D01*
X166096705Y-76612849D01*
X166149018Y-76451847D01*
X166153288Y-76424887D01*
X166175500Y-76284649D01*
X166175500Y-76115350D01*
X166149018Y-75948152D01*
X166113823Y-75839836D01*
X166096705Y-75787151D01*
X166096703Y-75787148D01*
X166096703Y-75787146D01*
X166050762Y-75696984D01*
X166019850Y-75636315D01*
X165996666Y-75604405D01*
X165920351Y-75499365D01*
X165920347Y-75499360D01*
X165800639Y-75379652D01*
X165800634Y-75379648D01*
X165663688Y-75280152D01*
X165663687Y-75280151D01*
X165663685Y-75280150D01*
X165518205Y-75206024D01*
X165467409Y-75158049D01*
X165450500Y-75095539D01*
X165450500Y-74637163D01*
X190570000Y-74637163D01*
X190570000Y-74696837D01*
X190592836Y-74751968D01*
X190635032Y-74794164D01*
X190690163Y-74817000D01*
X190749837Y-74817000D01*
X190804968Y-74794164D01*
X190847164Y-74751968D01*
X190870000Y-74696837D01*
X190870000Y-74637163D01*
X191870000Y-74637163D01*
X191870000Y-74696837D01*
X191892836Y-74751968D01*
X191935032Y-74794164D01*
X191990163Y-74817000D01*
X192049837Y-74817000D01*
X192104968Y-74794164D01*
X192147164Y-74751968D01*
X192170000Y-74696837D01*
X192170000Y-74637163D01*
X192147164Y-74582032D01*
X192104968Y-74539836D01*
X192049837Y-74517000D01*
X191990163Y-74517000D01*
X191935032Y-74539836D01*
X191892836Y-74582032D01*
X191870000Y-74637163D01*
X190870000Y-74637163D01*
X190847164Y-74582032D01*
X190804968Y-74539836D01*
X190749837Y-74517000D01*
X190690163Y-74517000D01*
X190635032Y-74539836D01*
X190592836Y-74582032D01*
X190570000Y-74637163D01*
X165450500Y-74637163D01*
X165450500Y-72851858D01*
X165450500Y-72851856D01*
X165426614Y-72762712D01*
X165411430Y-72736413D01*
X165411430Y-72736412D01*
X165380472Y-72682791D01*
X165380468Y-72682786D01*
X163283213Y-70585531D01*
X163283208Y-70585527D01*
X163203290Y-70539387D01*
X163203289Y-70539386D01*
X163203288Y-70539386D01*
X163114144Y-70515500D01*
X145641537Y-70515500D01*
X145552392Y-70539386D01*
X145472468Y-70585531D01*
X145472465Y-70585533D01*
X143093137Y-72964862D01*
X143031814Y-72998347D01*
X143005456Y-73001181D01*
X142929525Y-73001181D01*
X142800993Y-73035621D01*
X142789511Y-73038698D01*
X142663988Y-73111169D01*
X142663982Y-73111174D01*
X142561493Y-73213663D01*
X142561488Y-73213669D01*
X142489017Y-73339192D01*
X142488394Y-73341517D01*
X142451500Y-73479206D01*
X142451500Y-73624156D01*
X142482646Y-73740392D01*
X142489017Y-73764169D01*
X142561488Y-73889692D01*
X142561490Y-73889694D01*
X142561491Y-73889696D01*
X142663985Y-73992190D01*
X142663986Y-73992191D01*
X142663988Y-73992192D01*
X142789511Y-74064663D01*
X142789512Y-74064663D01*
X142789515Y-74064665D01*
X142847519Y-74080207D01*
X142907177Y-74116571D01*
X142937706Y-74179418D01*
X142929411Y-74248794D01*
X142884926Y-74302672D01*
X142847518Y-74319755D01*
X142830383Y-74324347D01*
X142772372Y-74339891D01*
X142646849Y-74412362D01*
X142646843Y-74412367D01*
X142544354Y-74514856D01*
X142544349Y-74514862D01*
X142471878Y-74640385D01*
X142471878Y-74640386D01*
X142471877Y-74640388D01*
X142471877Y-74640389D01*
X142444758Y-74741595D01*
X142408395Y-74801254D01*
X142345548Y-74831783D01*
X142324985Y-74833500D01*
X106143386Y-74833500D01*
X106076347Y-74813815D01*
X106055705Y-74797181D01*
X106002017Y-74743493D01*
X106002011Y-74743488D01*
X105876488Y-74671017D01*
X105876489Y-74671017D01*
X105865006Y-74667940D01*
X105736475Y-74633500D01*
X105591525Y-74633500D01*
X105462993Y-74667940D01*
X105451511Y-74671017D01*
X105325988Y-74743488D01*
X105325982Y-74743493D01*
X105223493Y-74845982D01*
X105223488Y-74845988D01*
X105151017Y-74971511D01*
X105151016Y-74971515D01*
X105113500Y-75111525D01*
X105113500Y-75256475D01*
X105146506Y-75379652D01*
X105151017Y-75396489D01*
X105152130Y-75399175D01*
X105152392Y-75401621D01*
X105153120Y-75404335D01*
X105152696Y-75404448D01*
X105159596Y-75468645D01*
X105128318Y-75531123D01*
X105068228Y-75566772D01*
X105005475Y-75566398D01*
X104974476Y-75558092D01*
X104974475Y-75558092D01*
X104829525Y-75558092D01*
X104700993Y-75592532D01*
X104689511Y-75595609D01*
X104563988Y-75668080D01*
X104563982Y-75668085D01*
X104461493Y-75770574D01*
X104461488Y-75770580D01*
X104389017Y-75896103D01*
X104389016Y-75896107D01*
X104351500Y-76036117D01*
X102862500Y-76036117D01*
X102862500Y-72418025D01*
X134439489Y-72418025D01*
X134439489Y-72562975D01*
X134460708Y-72642163D01*
X134477006Y-72702988D01*
X134549477Y-72828511D01*
X134549479Y-72828513D01*
X134549480Y-72828515D01*
X134651974Y-72931009D01*
X134651975Y-72931010D01*
X134651977Y-72931011D01*
X134777500Y-73003482D01*
X134777501Y-73003482D01*
X134777504Y-73003484D01*
X134917514Y-73041000D01*
X134917517Y-73041000D01*
X135062461Y-73041000D01*
X135062464Y-73041000D01*
X135202474Y-73003484D01*
X135328004Y-72931009D01*
X135430498Y-72828515D01*
X135502973Y-72702985D01*
X135540489Y-72562975D01*
X135540489Y-72418025D01*
X135502973Y-72278015D01*
X135430498Y-72152485D01*
X135328004Y-72049991D01*
X135328002Y-72049990D01*
X135328000Y-72049988D01*
X135202477Y-71977517D01*
X135202478Y-71977517D01*
X135190995Y-71974440D01*
X135062464Y-71940000D01*
X134917514Y-71940000D01*
X134788982Y-71974440D01*
X134777500Y-71977517D01*
X134651977Y-72049988D01*
X134651971Y-72049993D01*
X134549482Y-72152482D01*
X134549477Y-72152488D01*
X134477006Y-72278011D01*
X134477005Y-72278015D01*
X134439489Y-72418025D01*
X102862500Y-72418025D01*
X102862500Y-71837750D01*
X102862726Y-71830263D01*
X102872902Y-71662031D01*
X102880271Y-71540201D01*
X102882076Y-71525340D01*
X102907792Y-71385016D01*
X102933780Y-71243197D01*
X102937364Y-71228663D01*
X102941154Y-71216500D01*
X103022696Y-70954822D01*
X103027998Y-70940841D01*
X103145731Y-70679249D01*
X103152676Y-70666016D01*
X103301080Y-70420526D01*
X103309567Y-70408230D01*
X103486480Y-70182417D01*
X103496395Y-70171226D01*
X103699226Y-69968395D01*
X103710417Y-69958480D01*
X103936230Y-69781567D01*
X103948526Y-69773080D01*
X104194016Y-69624676D01*
X104207249Y-69617731D01*
X104468841Y-69499998D01*
X104482822Y-69494696D01*
X104756668Y-69409362D01*
X104771197Y-69405780D01*
X105053344Y-69354075D01*
X105068201Y-69352271D01*
X105358264Y-69334726D01*
X105365751Y-69334500D01*
X105427892Y-69334500D01*
X173029234Y-69334500D01*
X173096273Y-69354185D01*
G37*
G04 #@! TD.AperFunction*
G04 #@! TA.AperFunction,Conductor*
G36*
X137848435Y-82180242D02*
G01*
X137894190Y-82233046D01*
X137904134Y-82302204D01*
X137901173Y-82316641D01*
X137879500Y-82397525D01*
X137879500Y-82542475D01*
X137917016Y-82682485D01*
X137917017Y-82682488D01*
X137989488Y-82808011D01*
X137989490Y-82808013D01*
X137989491Y-82808015D01*
X138091985Y-82910509D01*
X138146018Y-82941705D01*
X138174437Y-82958113D01*
X138222653Y-83008680D01*
X138235875Y-83077287D01*
X138209907Y-83142152D01*
X138152993Y-83182680D01*
X138112437Y-83189500D01*
X138103525Y-83189500D01*
X137978917Y-83222889D01*
X137963511Y-83227017D01*
X137837988Y-83299488D01*
X137837982Y-83299493D01*
X137735493Y-83401982D01*
X137735488Y-83401988D01*
X137663017Y-83527511D01*
X137663016Y-83527515D01*
X137625500Y-83667525D01*
X137625500Y-83812475D01*
X137654197Y-83919571D01*
X137663017Y-83952488D01*
X137735488Y-84078011D01*
X137735490Y-84078013D01*
X137735491Y-84078015D01*
X137837985Y-84180509D01*
X137837986Y-84180510D01*
X137837988Y-84180511D01*
X137963511Y-84252982D01*
X137963512Y-84252982D01*
X137963515Y-84252984D01*
X138103525Y-84290500D01*
X138103528Y-84290500D01*
X138248472Y-84290500D01*
X138248475Y-84290500D01*
X138388485Y-84252984D01*
X138514015Y-84180509D01*
X138616509Y-84078015D01*
X138688984Y-83952485D01*
X138726500Y-83812475D01*
X138726500Y-83667525D01*
X138688984Y-83527515D01*
X138684094Y-83519046D01*
X138616511Y-83401988D01*
X138616506Y-83401982D01*
X138514017Y-83299493D01*
X138514015Y-83299491D01*
X138431563Y-83251887D01*
X138383347Y-83201320D01*
X138370125Y-83132713D01*
X138396093Y-83067848D01*
X138453007Y-83027320D01*
X138493563Y-83020500D01*
X138502472Y-83020500D01*
X138502475Y-83020500D01*
X138642485Y-82982984D01*
X138768015Y-82910509D01*
X138870509Y-82808015D01*
X138942984Y-82682485D01*
X138980500Y-82542475D01*
X138980500Y-82397525D01*
X138958829Y-82316648D01*
X138960492Y-82246801D01*
X138999654Y-82188938D01*
X139063883Y-82161434D01*
X139078604Y-82160557D01*
X142124545Y-82160557D01*
X142191584Y-82180242D01*
X142237339Y-82233046D01*
X142247283Y-82302204D01*
X142244323Y-82316634D01*
X142224670Y-82389981D01*
X142224670Y-82534931D01*
X142262002Y-82674255D01*
X142262187Y-82674944D01*
X142334658Y-82800467D01*
X142334663Y-82800473D01*
X142388351Y-82854161D01*
X142421836Y-82915484D01*
X142424670Y-82941842D01*
X142424670Y-88973313D01*
X142441275Y-89035286D01*
X142448556Y-89062457D01*
X142448557Y-89062460D01*
X142494697Y-89142378D01*
X142494699Y-89142381D01*
X142494700Y-89142382D01*
X155421531Y-102069212D01*
X155486788Y-102134469D01*
X155486791Y-102134470D01*
X155486794Y-102134473D01*
X155566706Y-102180611D01*
X155566707Y-102180611D01*
X155566712Y-102180614D01*
X155655856Y-102204500D01*
X155984614Y-102204500D01*
X156051653Y-102224185D01*
X156072295Y-102240819D01*
X156125985Y-102294509D01*
X156125986Y-102294510D01*
X156125988Y-102294511D01*
X156251511Y-102366982D01*
X156251512Y-102366982D01*
X156251515Y-102366984D01*
X156391525Y-102404500D01*
X156391528Y-102404500D01*
X156536472Y-102404500D01*
X156536475Y-102404500D01*
X156676485Y-102366984D01*
X156802015Y-102294509D01*
X156904509Y-102192015D01*
X156976645Y-102067072D01*
X157027209Y-102018859D01*
X157095816Y-102005635D01*
X157160681Y-102031603D01*
X157171711Y-102041393D01*
X160318954Y-105188636D01*
X160352439Y-105249959D01*
X160355273Y-105276317D01*
X160355273Y-107644027D01*
X160335588Y-107711066D01*
X160318954Y-107731708D01*
X160265266Y-107785395D01*
X160265261Y-107785401D01*
X160192790Y-107910924D01*
X160192789Y-107910928D01*
X160155273Y-108050938D01*
X160155273Y-108195888D01*
X160177283Y-108278029D01*
X160192790Y-108335901D01*
X160265261Y-108461424D01*
X160265263Y-108461426D01*
X160265264Y-108461428D01*
X160367758Y-108563922D01*
X160367759Y-108563923D01*
X160367761Y-108563924D01*
X160493284Y-108636395D01*
X160493285Y-108636395D01*
X160493288Y-108636397D01*
X160633298Y-108673913D01*
X160633301Y-108673913D01*
X160778245Y-108673913D01*
X160778248Y-108673913D01*
X160918258Y-108636397D01*
X161043788Y-108563922D01*
X161146282Y-108461428D01*
X161218757Y-108335898D01*
X161256273Y-108195888D01*
X161256273Y-108050938D01*
X161218757Y-107910928D01*
X161202349Y-107882509D01*
X161146284Y-107785401D01*
X161146279Y-107785395D01*
X161092592Y-107731708D01*
X161059107Y-107670385D01*
X161056273Y-107644027D01*
X161056273Y-105463316D01*
X161075958Y-105396277D01*
X161128762Y-105350522D01*
X161197920Y-105340578D01*
X161261476Y-105369603D01*
X161267954Y-105375635D01*
X162991371Y-107099052D01*
X163056628Y-107164309D01*
X163056631Y-107164310D01*
X163056634Y-107164313D01*
X163136546Y-107210451D01*
X163136547Y-107210451D01*
X163136552Y-107210454D01*
X163225696Y-107234340D01*
X163692726Y-107234340D01*
X163759765Y-107254025D01*
X163780407Y-107270659D01*
X163834097Y-107324349D01*
X163834098Y-107324350D01*
X163834100Y-107324351D01*
X163959623Y-107396822D01*
X163959624Y-107396822D01*
X163959627Y-107396824D01*
X164099637Y-107434340D01*
X164099640Y-107434340D01*
X164244584Y-107434340D01*
X164244587Y-107434340D01*
X164384597Y-107396824D01*
X164510127Y-107324349D01*
X164612621Y-107221855D01*
X164685096Y-107096325D01*
X164722612Y-106956315D01*
X164722612Y-106811365D01*
X164685096Y-106671355D01*
X164612621Y-106545825D01*
X164510127Y-106443331D01*
X164510125Y-106443330D01*
X164510123Y-106443328D01*
X164384600Y-106370857D01*
X164384601Y-106370857D01*
X164373118Y-106367780D01*
X164244587Y-106333340D01*
X164099637Y-106333340D01*
X163971105Y-106367780D01*
X163959623Y-106370857D01*
X163834100Y-106443328D01*
X163834094Y-106443333D01*
X163780407Y-106497021D01*
X163753479Y-106511724D01*
X163727661Y-106528317D01*
X163721460Y-106529208D01*
X163719084Y-106530506D01*
X163692726Y-106533340D01*
X163468383Y-106533340D01*
X163401344Y-106513655D01*
X163380702Y-106497021D01*
X161899398Y-105015717D01*
X161865913Y-104954394D01*
X161870897Y-104884702D01*
X161912769Y-104828769D01*
X161978233Y-104804352D01*
X161987079Y-104804036D01*
X170105439Y-104804036D01*
X170172478Y-104823721D01*
X170218233Y-104876525D01*
X170228177Y-104945683D01*
X170223450Y-104964194D01*
X170223910Y-104964329D01*
X170222663Y-104968573D01*
X170222662Y-104968577D01*
X170213530Y-104999677D01*
X170202976Y-105035618D01*
X170182500Y-105178037D01*
X170182500Y-109406207D01*
X170162815Y-109473246D01*
X170110011Y-109519001D01*
X170104587Y-109521324D01*
X170012241Y-109558294D01*
X169897065Y-109644513D01*
X169897055Y-109644522D01*
X169842519Y-109699059D01*
X169768320Y-109793410D01*
X169711689Y-109925657D01*
X169711684Y-109925674D01*
X169691726Y-110000158D01*
X169691723Y-110000171D01*
X169674500Y-110130999D01*
X169674500Y-133208498D01*
X169675661Y-133217319D01*
X169664893Y-133286354D01*
X169618511Y-133338608D01*
X169552721Y-133357500D01*
X155064000Y-133357500D01*
X154996961Y-133337815D01*
X154951206Y-133285011D01*
X154940000Y-133233500D01*
X154940000Y-131131887D01*
X154959685Y-131064848D01*
X154976319Y-131044206D01*
X155650540Y-130369985D01*
X156396510Y-129624015D01*
X156468984Y-129498485D01*
X156474628Y-129477420D01*
X156477887Y-129465261D01*
X156485553Y-129436647D01*
X156506500Y-129358475D01*
X156506500Y-124741920D01*
X164857499Y-124741920D01*
X164886340Y-124886907D01*
X164886343Y-124886917D01*
X164942912Y-125023488D01*
X164942919Y-125023501D01*
X165025048Y-125146415D01*
X165025051Y-125146419D01*
X165129580Y-125250948D01*
X165129584Y-125250951D01*
X165252498Y-125333080D01*
X165252511Y-125333087D01*
X165389082Y-125389656D01*
X165389087Y-125389658D01*
X165389091Y-125389658D01*
X165389092Y-125389659D01*
X165534079Y-125418500D01*
X165534082Y-125418500D01*
X165681920Y-125418500D01*
X165779462Y-125399096D01*
X165826913Y-125389658D01*
X165963495Y-125333084D01*
X166086416Y-125250951D01*
X166190951Y-125146416D01*
X166273084Y-125023495D01*
X166329658Y-124886913D01*
X166358500Y-124741918D01*
X166358500Y-124594082D01*
X166358500Y-124594079D01*
X166329659Y-124449092D01*
X166329658Y-124449091D01*
X166329658Y-124449087D01*
X166329656Y-124449082D01*
X166273087Y-124312511D01*
X166273080Y-124312498D01*
X166190951Y-124189584D01*
X166190948Y-124189580D01*
X166086419Y-124085051D01*
X166086415Y-124085048D01*
X165963501Y-124002919D01*
X165963488Y-124002912D01*
X165826917Y-123946343D01*
X165826907Y-123946340D01*
X165681920Y-123917500D01*
X165681918Y-123917500D01*
X165534082Y-123917500D01*
X165534080Y-123917500D01*
X165389092Y-123946340D01*
X165389082Y-123946343D01*
X165252511Y-124002912D01*
X165252498Y-124002919D01*
X165129584Y-124085048D01*
X165129580Y-124085051D01*
X165025051Y-124189580D01*
X165025048Y-124189584D01*
X164942919Y-124312498D01*
X164942912Y-124312511D01*
X164886343Y-124449082D01*
X164886340Y-124449092D01*
X164857500Y-124594079D01*
X164857500Y-124594082D01*
X164857500Y-124741918D01*
X164857500Y-124741920D01*
X164857499Y-124741920D01*
X156506500Y-124741920D01*
X156506500Y-117089304D01*
X164707500Y-117089304D01*
X164707500Y-117266695D01*
X164742103Y-117440658D01*
X164742106Y-117440667D01*
X164809983Y-117604540D01*
X164809990Y-117604553D01*
X164908535Y-117752034D01*
X164908538Y-117752038D01*
X165033961Y-117877461D01*
X165033965Y-117877464D01*
X165181446Y-117976009D01*
X165181459Y-117976016D01*
X165304363Y-118026923D01*
X165345334Y-118043894D01*
X165345336Y-118043894D01*
X165345341Y-118043896D01*
X165519304Y-118078499D01*
X165519307Y-118078500D01*
X165519309Y-118078500D01*
X165696693Y-118078500D01*
X165696694Y-118078499D01*
X165754682Y-118066964D01*
X165870658Y-118043896D01*
X165870661Y-118043894D01*
X165870666Y-118043894D01*
X166034547Y-117976013D01*
X166182035Y-117877464D01*
X166307464Y-117752035D01*
X166406013Y-117604547D01*
X166473894Y-117440666D01*
X166483353Y-117393116D01*
X166508499Y-117266695D01*
X166508500Y-117266693D01*
X166508500Y-117089306D01*
X166508499Y-117089304D01*
X166473896Y-116915341D01*
X166473893Y-116915332D01*
X166406016Y-116751459D01*
X166406009Y-116751446D01*
X166307464Y-116603965D01*
X166307461Y-116603961D01*
X166182038Y-116478538D01*
X166182034Y-116478535D01*
X166034553Y-116379990D01*
X166034540Y-116379983D01*
X165870667Y-116312106D01*
X165870658Y-116312103D01*
X165696694Y-116277500D01*
X165696691Y-116277500D01*
X165519309Y-116277500D01*
X165519306Y-116277500D01*
X165345341Y-116312103D01*
X165345332Y-116312106D01*
X165181459Y-116379983D01*
X165181446Y-116379990D01*
X165033965Y-116478535D01*
X165033961Y-116478538D01*
X164908538Y-116603961D01*
X164908535Y-116603965D01*
X164809990Y-116751446D01*
X164809983Y-116751459D01*
X164742106Y-116915332D01*
X164742103Y-116915341D01*
X164707500Y-117089304D01*
X156506500Y-117089304D01*
X156506500Y-115497525D01*
X156468984Y-115357515D01*
X156396509Y-115231985D01*
X156294015Y-115129491D01*
X154976319Y-113811794D01*
X154942834Y-113750471D01*
X154940000Y-113724113D01*
X154940000Y-105664000D01*
X149772500Y-105664000D01*
X149705461Y-105644315D01*
X149659706Y-105591511D01*
X149648500Y-105540000D01*
X149648500Y-100751527D01*
X149648500Y-100751525D01*
X149610984Y-100611515D01*
X149550316Y-100506436D01*
X149538511Y-100485988D01*
X149538506Y-100485982D01*
X149436017Y-100383493D01*
X149436011Y-100383488D01*
X149310488Y-100311017D01*
X149310489Y-100311017D01*
X149282547Y-100303530D01*
X149170475Y-100273500D01*
X149025525Y-100273500D01*
X148913453Y-100303530D01*
X148885511Y-100311017D01*
X148759988Y-100383488D01*
X148759982Y-100383493D01*
X148657493Y-100485982D01*
X148657491Y-100485985D01*
X148609887Y-100568437D01*
X148559319Y-100616652D01*
X148490712Y-100629874D01*
X148425848Y-100603906D01*
X148385320Y-100546992D01*
X148378500Y-100506436D01*
X148378500Y-97463527D01*
X148378500Y-97463525D01*
X148340984Y-97323515D01*
X148332297Y-97308469D01*
X148332295Y-97308465D01*
X148332295Y-97308464D01*
X148268514Y-97197991D01*
X148268508Y-97197983D01*
X133442763Y-82372238D01*
X133409278Y-82310915D01*
X133414262Y-82241223D01*
X133456134Y-82185290D01*
X133521598Y-82160873D01*
X133530444Y-82160557D01*
X137781396Y-82160557D01*
X137848435Y-82180242D01*
G37*
G04 #@! TD.AperFunction*
G04 #@! TA.AperFunction,Conductor*
G36*
X139150017Y-89649104D02*
G01*
X139188886Y-89675411D01*
X147241181Y-97727706D01*
X147274666Y-97789029D01*
X147277500Y-97815387D01*
X147277500Y-102688475D01*
X147313639Y-102823347D01*
X147315017Y-102828488D01*
X147387488Y-102954011D01*
X147387490Y-102954013D01*
X147387491Y-102954015D01*
X147489985Y-103056509D01*
X147489986Y-103056510D01*
X147489988Y-103056511D01*
X147615511Y-103128982D01*
X147615512Y-103128982D01*
X147615515Y-103128984D01*
X147755525Y-103166500D01*
X147755528Y-103166500D01*
X147900472Y-103166500D01*
X147900475Y-103166500D01*
X148040485Y-103128984D01*
X148166015Y-103056509D01*
X148268509Y-102954015D01*
X148316113Y-102871563D01*
X148366680Y-102823347D01*
X148435287Y-102810125D01*
X148500152Y-102836093D01*
X148540680Y-102893007D01*
X148547500Y-102933563D01*
X148547500Y-105540000D01*
X148527815Y-105607039D01*
X148475011Y-105652794D01*
X148423500Y-105664000D01*
X137792000Y-105664000D01*
X137724961Y-105644315D01*
X137679206Y-105591511D01*
X137668000Y-105540000D01*
X137668000Y-92263886D01*
X137687685Y-92196847D01*
X137740489Y-92151092D01*
X137809647Y-92141148D01*
X137873203Y-92170173D01*
X137879681Y-92176205D01*
X137964985Y-92261509D01*
X137964986Y-92261510D01*
X137964988Y-92261511D01*
X138090511Y-92333982D01*
X138090512Y-92333982D01*
X138090515Y-92333984D01*
X138230525Y-92371500D01*
X138230528Y-92371500D01*
X138375472Y-92371500D01*
X138375475Y-92371500D01*
X138515485Y-92333984D01*
X138641015Y-92261509D01*
X138743509Y-92159015D01*
X138815984Y-92033485D01*
X138853500Y-91893475D01*
X138853500Y-91748525D01*
X138815984Y-91608515D01*
X138810078Y-91598286D01*
X138743511Y-91482988D01*
X138743506Y-91482982D01*
X138641017Y-91380493D01*
X138641015Y-91380491D01*
X138582630Y-91346782D01*
X138534416Y-91296215D01*
X138521194Y-91227608D01*
X138547162Y-91162744D01*
X138582632Y-91132009D01*
X138606015Y-91118509D01*
X138708509Y-91016015D01*
X138780984Y-90890485D01*
X138818500Y-90750475D01*
X138818500Y-90605525D01*
X138780984Y-90465515D01*
X138708509Y-90339985D01*
X138694004Y-90325480D01*
X138660519Y-90264157D01*
X138665503Y-90194465D01*
X138707375Y-90138532D01*
X138719679Y-90130415D01*
X138768015Y-90102509D01*
X138870509Y-90000015D01*
X138942984Y-89874485D01*
X138980500Y-89734475D01*
X138980500Y-89734469D01*
X138981430Y-89730999D01*
X139017795Y-89671338D01*
X139080642Y-89640809D01*
X139150017Y-89649104D01*
G37*
G04 #@! TD.AperFunction*
G04 #@! TA.AperFunction,Conductor*
G36*
X172204478Y-84190185D02*
G01*
X172250233Y-84242989D01*
X172260177Y-84312147D01*
X172255450Y-84330658D01*
X172255910Y-84330793D01*
X172254663Y-84335037D01*
X172254662Y-84335041D01*
X172243196Y-84374087D01*
X172234976Y-84402082D01*
X172224226Y-84476855D01*
X172214500Y-84544500D01*
X172214500Y-85220000D01*
X172214501Y-85220009D01*
X172226052Y-85327450D01*
X172226054Y-85327462D01*
X172237260Y-85378972D01*
X172271383Y-85481497D01*
X172271386Y-85481503D01*
X172349171Y-85602537D01*
X172349179Y-85602548D01*
X172394923Y-85655340D01*
X172394926Y-85655343D01*
X172394930Y-85655347D01*
X172503664Y-85749567D01*
X172503667Y-85749568D01*
X172503668Y-85749569D01*
X172568956Y-85779386D01*
X172634541Y-85809338D01*
X172701580Y-85829023D01*
X172701584Y-85829024D01*
X172844000Y-85849500D01*
X180980500Y-85849500D01*
X181047539Y-85869185D01*
X181093294Y-85921989D01*
X181104500Y-85973500D01*
X181104500Y-91336672D01*
X181098067Y-91358577D01*
X181096178Y-91381334D01*
X181086984Y-91396324D01*
X181084815Y-91403711D01*
X181078909Y-91412115D01*
X181075972Y-91415945D01*
X181028982Y-91468258D01*
X180983589Y-91536190D01*
X180983577Y-91536207D01*
X180982225Y-91538229D01*
X180982216Y-91538242D01*
X180978493Y-91543814D01*
X180963080Y-91562592D01*
X180939276Y-91586396D01*
X180920486Y-91601817D01*
X180892468Y-91620538D01*
X180871029Y-91631997D01*
X180839911Y-91644886D01*
X180816654Y-91651942D01*
X180803936Y-91654472D01*
X180783614Y-91658514D01*
X180759424Y-91660897D01*
X180725742Y-91660897D01*
X180701553Y-91658514D01*
X180668507Y-91651941D01*
X180645250Y-91644885D01*
X180614130Y-91631995D01*
X180592690Y-91620535D01*
X180564682Y-91601820D01*
X180545895Y-91586402D01*
X180522081Y-91562589D01*
X180506658Y-91543797D01*
X180506634Y-91543761D01*
X180456190Y-91468266D01*
X180456183Y-91468258D01*
X180390120Y-91388491D01*
X180390116Y-91388486D01*
X180354053Y-91353062D01*
X180273117Y-91288433D01*
X180178853Y-91245383D01*
X180142243Y-91228663D01*
X180138650Y-91227608D01*
X180082973Y-91211259D01*
X180075198Y-91208976D01*
X180006590Y-91199112D01*
X179932781Y-91188500D01*
X179051296Y-91188500D01*
X179029415Y-91190753D01*
X178948265Y-91199112D01*
X178948261Y-91199112D01*
X178948259Y-91199113D01*
X178921297Y-91204726D01*
X178898768Y-91209417D01*
X178800058Y-91240808D01*
X178800057Y-91240808D01*
X178677646Y-91316424D01*
X178624028Y-91361233D01*
X178527888Y-91468265D01*
X178500261Y-91509612D01*
X178484841Y-91528400D01*
X178461028Y-91552213D01*
X178442238Y-91567634D01*
X178414220Y-91586355D01*
X178392783Y-91597814D01*
X178385893Y-91600668D01*
X178361663Y-91610703D01*
X178338406Y-91617759D01*
X178324451Y-91620535D01*
X178305366Y-91624331D01*
X178281176Y-91626714D01*
X178247494Y-91626714D01*
X178223305Y-91624331D01*
X178190259Y-91617758D01*
X178167002Y-91610702D01*
X178135882Y-91597812D01*
X178114442Y-91586352D01*
X178086434Y-91567637D01*
X178067645Y-91552217D01*
X178043831Y-91528403D01*
X178043829Y-91528400D01*
X178028410Y-91509612D01*
X178000794Y-91468282D01*
X178000786Y-91468271D01*
X177947318Y-91403711D01*
X177934709Y-91388486D01*
X177898646Y-91353062D01*
X177817710Y-91288433D01*
X177723446Y-91245383D01*
X177686836Y-91228663D01*
X177683243Y-91227608D01*
X177627566Y-91211259D01*
X177619791Y-91208976D01*
X177551183Y-91199112D01*
X177477374Y-91188500D01*
X176493263Y-91188500D01*
X176471382Y-91190753D01*
X176390232Y-91199112D01*
X176390228Y-91199112D01*
X176390226Y-91199113D01*
X176378830Y-91201485D01*
X176340732Y-91209417D01*
X176242032Y-91240808D01*
X176242016Y-91240813D01*
X176119608Y-91316429D01*
X176095723Y-91336390D01*
X176065995Y-91361235D01*
X175969857Y-91468263D01*
X175969853Y-91468268D01*
X175953644Y-91492525D01*
X175938226Y-91511311D01*
X175914415Y-91535122D01*
X175895625Y-91550543D01*
X175867607Y-91569264D01*
X175846168Y-91580723D01*
X175815050Y-91593612D01*
X175791793Y-91600668D01*
X175775062Y-91603996D01*
X175758753Y-91607240D01*
X175734563Y-91609623D01*
X175700881Y-91609623D01*
X175676692Y-91607240D01*
X175643646Y-91600667D01*
X175620389Y-91593611D01*
X175589269Y-91580721D01*
X175567829Y-91569261D01*
X175539821Y-91550546D01*
X175521034Y-91535128D01*
X175497219Y-91511314D01*
X175497217Y-91511311D01*
X175481798Y-91492525D01*
X175465589Y-91468266D01*
X175399521Y-91388492D01*
X175363458Y-91353067D01*
X175282517Y-91288433D01*
X175151643Y-91228663D01*
X175148050Y-91227608D01*
X175092373Y-91211259D01*
X175084598Y-91208976D01*
X175015990Y-91199112D01*
X174942181Y-91188500D01*
X174368000Y-91188500D01*
X174367991Y-91188500D01*
X174367990Y-91188501D01*
X174260549Y-91200052D01*
X174260537Y-91200054D01*
X174209027Y-91211260D01*
X174106502Y-91245383D01*
X174106496Y-91245386D01*
X173985462Y-91323171D01*
X173985451Y-91323179D01*
X173932659Y-91368923D01*
X173838433Y-91477664D01*
X173838430Y-91477668D01*
X173778664Y-91608534D01*
X173758976Y-91675582D01*
X173745950Y-91766182D01*
X173741881Y-91794488D01*
X173738500Y-91818001D01*
X173738500Y-96869293D01*
X173723678Y-96928081D01*
X172716235Y-98799045D01*
X172681215Y-98880470D01*
X172667653Y-98921615D01*
X172667653Y-98921617D01*
X172647394Y-99007915D01*
X172647394Y-99151793D01*
X172647395Y-99151797D01*
X172657339Y-99220955D01*
X172657340Y-99220960D01*
X172657341Y-99220963D01*
X172684238Y-99312565D01*
X172684238Y-99382435D01*
X172646464Y-99441213D01*
X172582908Y-99470238D01*
X172565261Y-99471500D01*
X160978544Y-99471500D01*
X160911505Y-99451815D01*
X160890863Y-99435181D01*
X156709756Y-95254074D01*
X164216752Y-95254074D01*
X164216752Y-95254097D01*
X164216752Y-96416950D01*
X164222613Y-96471360D01*
X164222614Y-96471365D01*
X164233859Y-96522963D01*
X164233861Y-96522971D01*
X164241139Y-96549434D01*
X164241144Y-96549445D01*
X164290538Y-96636023D01*
X164290540Y-96636025D01*
X164290541Y-96636027D01*
X164300051Y-96646984D01*
X164336339Y-96688794D01*
X164369141Y-96720394D01*
X164457504Y-96766525D01*
X164457510Y-96766527D01*
X164457514Y-96766529D01*
X164500053Y-96778982D01*
X164524559Y-96786156D01*
X164524561Y-96786156D01*
X164524570Y-96786159D01*
X164596560Y-96796450D01*
X164596560Y-96796449D01*
X164596561Y-96796450D01*
X164601448Y-96796446D01*
X170597669Y-96791586D01*
X170651876Y-96785724D01*
X170703286Y-96774518D01*
X170729559Y-96767305D01*
X170816189Y-96717974D01*
X170868993Y-96672219D01*
X170900618Y-96639445D01*
X170900618Y-96639444D01*
X170906777Y-96633062D01*
X170908840Y-96635053D01*
X170952510Y-96601121D01*
X171022101Y-96594883D01*
X171059927Y-96609117D01*
X171125511Y-96646982D01*
X171125512Y-96646982D01*
X171125515Y-96646984D01*
X171265525Y-96684500D01*
X171265528Y-96684500D01*
X171410472Y-96684500D01*
X171410475Y-96684500D01*
X171550485Y-96646984D01*
X171601000Y-96617818D01*
X171668899Y-96601346D01*
X171724999Y-96617818D01*
X171775515Y-96646984D01*
X171915525Y-96684500D01*
X171915528Y-96684500D01*
X172060472Y-96684500D01*
X172060475Y-96684500D01*
X172200485Y-96646984D01*
X172326015Y-96574509D01*
X172428509Y-96472015D01*
X172500984Y-96346485D01*
X172538500Y-96206475D01*
X172538500Y-96061525D01*
X172500984Y-95921515D01*
X172432269Y-95802497D01*
X172415797Y-95734601D01*
X172432268Y-95678502D01*
X172500984Y-95559485D01*
X172538500Y-95419475D01*
X172538500Y-95274525D01*
X172500984Y-95134515D01*
X172431980Y-95014996D01*
X172415508Y-94947101D01*
X172431979Y-94891003D01*
X172500984Y-94771485D01*
X172538500Y-94631475D01*
X172538500Y-94486525D01*
X172500984Y-94346515D01*
X172428509Y-94220985D01*
X172326015Y-94118491D01*
X172326013Y-94118490D01*
X172326011Y-94118488D01*
X172200488Y-94046017D01*
X172200489Y-94046017D01*
X172189006Y-94042940D01*
X172060475Y-94008500D01*
X171915525Y-94008500D01*
X171810517Y-94036637D01*
X171775514Y-94046016D01*
X171724999Y-94075181D01*
X171657099Y-94091652D01*
X171601001Y-94075181D01*
X171550485Y-94046016D01*
X171550486Y-94046016D01*
X171515482Y-94036637D01*
X171410475Y-94008500D01*
X171265525Y-94008500D01*
X171125515Y-94046016D01*
X171125514Y-94046016D01*
X171125512Y-94046017D01*
X171081538Y-94071405D01*
X171013637Y-94087876D01*
X170947611Y-94065023D01*
X170911785Y-94025377D01*
X170903249Y-94010387D01*
X170869424Y-93971351D01*
X170857497Y-93957586D01*
X170824720Y-93925958D01*
X170736383Y-93879749D01*
X170736383Y-93879748D01*
X170669351Y-93860066D01*
X170669339Y-93860063D01*
X170597362Y-93849715D01*
X170597361Y-93849715D01*
X168844988Y-93849715D01*
X168820261Y-93851606D01*
X168806128Y-93852687D01*
X168806097Y-93852691D01*
X168768868Y-93858420D01*
X168757387Y-93860455D01*
X168757379Y-93860457D01*
X168665354Y-93898782D01*
X168665348Y-93898785D01*
X168607336Y-93937709D01*
X168607329Y-93937714D01*
X168553323Y-93986414D01*
X167873794Y-94802679D01*
X167815774Y-94841608D01*
X167778495Y-94847344D01*
X166995946Y-94847344D01*
X166987964Y-94845000D01*
X166979745Y-94846281D01*
X166954935Y-94835301D01*
X166928907Y-94827659D01*
X166921805Y-94820640D01*
X166915852Y-94818006D01*
X166892427Y-94791607D01*
X166777094Y-94616707D01*
X166756622Y-94549904D01*
X166756614Y-94548974D01*
X166756347Y-94486525D01*
X166751454Y-93341545D01*
X166745601Y-93288255D01*
X166734586Y-93237690D01*
X166727662Y-93212279D01*
X166678650Y-93125467D01*
X166633090Y-93072495D01*
X166600433Y-93040751D01*
X166586311Y-93033297D01*
X166512272Y-92994218D01*
X166512269Y-92994217D01*
X166445299Y-92974283D01*
X166385807Y-92965506D01*
X166373358Y-92963670D01*
X166373355Y-92963669D01*
X166373351Y-92963669D01*
X165052651Y-92958795D01*
X165027282Y-92959964D01*
X165027273Y-92959964D01*
X165027269Y-92959965D01*
X165002767Y-92962319D01*
X165002765Y-92962319D01*
X165002759Y-92962320D01*
X164909033Y-92990117D01*
X164909022Y-92990121D01*
X164847085Y-93022431D01*
X164808743Y-93047010D01*
X164808740Y-93047013D01*
X164743375Y-93122274D01*
X164743374Y-93122276D01*
X164708732Y-93182947D01*
X164708731Y-93182950D01*
X164682024Y-93250605D01*
X164227023Y-95166399D01*
X164227022Y-95166406D01*
X164221845Y-95195702D01*
X164221840Y-95195740D01*
X164218487Y-95224369D01*
X164218486Y-95224386D01*
X164216752Y-95254074D01*
X156709756Y-95254074D01*
X156453173Y-94997491D01*
X156419688Y-94936168D01*
X156416854Y-94909810D01*
X156416854Y-86320876D01*
X156436539Y-86253837D01*
X156453173Y-86233195D01*
X156469610Y-86216758D01*
X156506863Y-86179505D01*
X156579338Y-86053975D01*
X156616854Y-85913965D01*
X156616854Y-85769015D01*
X156579338Y-85629005D01*
X156511164Y-85510925D01*
X156506865Y-85503478D01*
X156506860Y-85503472D01*
X156404371Y-85400983D01*
X156404365Y-85400978D01*
X156278842Y-85328507D01*
X156278843Y-85328507D01*
X156267360Y-85325430D01*
X156138829Y-85290990D01*
X156052500Y-85290990D01*
X155985461Y-85271305D01*
X155939706Y-85218501D01*
X155928500Y-85166990D01*
X155928500Y-85017527D01*
X155928500Y-85017525D01*
X155890984Y-84877515D01*
X155818509Y-84751985D01*
X155716015Y-84649491D01*
X155716013Y-84649490D01*
X155716011Y-84649488D01*
X155590488Y-84577017D01*
X155590489Y-84577017D01*
X155579006Y-84573940D01*
X155450475Y-84539500D01*
X155305525Y-84539500D01*
X155176993Y-84573940D01*
X155165511Y-84577017D01*
X155039988Y-84649488D01*
X155039982Y-84649493D01*
X154937493Y-84751982D01*
X154937491Y-84751985D01*
X154885387Y-84842231D01*
X154834819Y-84890446D01*
X154766212Y-84903668D01*
X154701347Y-84877700D01*
X154670613Y-84842231D01*
X154658932Y-84822000D01*
X154618509Y-84751985D01*
X154516015Y-84649491D01*
X154516013Y-84649490D01*
X154516011Y-84649488D01*
X154390488Y-84577017D01*
X154390489Y-84577017D01*
X154379006Y-84573940D01*
X154250475Y-84539500D01*
X154105525Y-84539500D01*
X153976993Y-84573940D01*
X153965511Y-84577017D01*
X153839988Y-84649488D01*
X153839982Y-84649493D01*
X153737493Y-84751982D01*
X153737488Y-84751988D01*
X153665017Y-84877510D01*
X153642787Y-84960475D01*
X153606421Y-85020135D01*
X153543574Y-85050663D01*
X153496549Y-85048423D01*
X153496531Y-85048561D01*
X153494890Y-85048345D01*
X153490923Y-85048156D01*
X153488475Y-85047500D01*
X153343525Y-85047500D01*
X153214993Y-85081940D01*
X153203511Y-85085017D01*
X153077988Y-85157488D01*
X153077982Y-85157493D01*
X152975493Y-85259982D01*
X152975488Y-85259988D01*
X152903017Y-85385511D01*
X152903016Y-85385515D01*
X152865500Y-85525525D01*
X152865500Y-85670475D01*
X152902708Y-85809335D01*
X152903017Y-85810488D01*
X152975488Y-85936011D01*
X152975493Y-85936017D01*
X153029181Y-85989705D01*
X153062666Y-86051028D01*
X153065500Y-86077386D01*
X153065500Y-89811142D01*
X153045815Y-89878181D01*
X152993011Y-89923936D01*
X152923853Y-89933880D01*
X152879502Y-89918531D01*
X152873244Y-89914918D01*
X152866485Y-89911016D01*
X152726475Y-89873500D01*
X152581525Y-89873500D01*
X152482093Y-89900143D01*
X152412244Y-89898480D01*
X152354381Y-89859317D01*
X152326877Y-89795089D01*
X152326000Y-89780368D01*
X152326000Y-87781237D01*
X152345685Y-87714198D01*
X152362319Y-87693556D01*
X152363755Y-87692120D01*
X152416009Y-87639866D01*
X152488484Y-87514336D01*
X152526000Y-87374326D01*
X152526000Y-87229376D01*
X152488484Y-87089366D01*
X152475313Y-87066554D01*
X152416011Y-86963839D01*
X152416006Y-86963833D01*
X152313517Y-86861344D01*
X152313511Y-86861339D01*
X152187988Y-86788868D01*
X152187989Y-86788868D01*
X152167164Y-86783288D01*
X152047975Y-86751351D01*
X151903025Y-86751351D01*
X151783836Y-86783288D01*
X151763011Y-86788868D01*
X151666500Y-86844589D01*
X151598600Y-86861062D01*
X151532573Y-86838209D01*
X151489382Y-86783288D01*
X151480500Y-86737202D01*
X151480500Y-86077386D01*
X151500185Y-86010347D01*
X151516819Y-85989705D01*
X151541500Y-85965024D01*
X151570509Y-85936015D01*
X151642984Y-85810485D01*
X151680500Y-85670475D01*
X151680500Y-85525525D01*
X151642984Y-85385515D01*
X151639206Y-85378972D01*
X151570511Y-85259988D01*
X151570506Y-85259982D01*
X151468017Y-85157493D01*
X151468011Y-85157488D01*
X151342488Y-85085017D01*
X151342489Y-85085017D01*
X151331006Y-85081940D01*
X151202475Y-85047500D01*
X151057525Y-85047500D01*
X151049398Y-85047500D01*
X151049398Y-85046201D01*
X150988592Y-85036713D01*
X150936341Y-84990327D01*
X150917463Y-84923056D01*
X150918500Y-84908564D01*
X150918500Y-84763527D01*
X150918500Y-84763525D01*
X150880984Y-84623515D01*
X150854138Y-84577017D01*
X150808511Y-84497988D01*
X150808506Y-84497982D01*
X150706017Y-84395493D01*
X150706015Y-84395491D01*
X150706012Y-84395489D01*
X150702605Y-84392875D01*
X150700456Y-84389932D01*
X150700268Y-84389744D01*
X150700297Y-84389714D01*
X150661403Y-84336446D01*
X150657249Y-84266700D01*
X150691463Y-84205780D01*
X150753180Y-84173028D01*
X150778093Y-84170500D01*
X172137439Y-84170500D01*
X172204478Y-84190185D01*
G37*
G04 #@! TD.AperFunction*
G04 #@! TA.AperFunction,Conductor*
G36*
X142409457Y-78990825D02*
G01*
X142439444Y-78997349D01*
X142444459Y-79001103D01*
X142447056Y-79001866D01*
X142467698Y-79018500D01*
X142521388Y-79072190D01*
X142521389Y-79072191D01*
X142521391Y-79072192D01*
X142646914Y-79144663D01*
X142646916Y-79144664D01*
X142646918Y-79144665D01*
X142682105Y-79154093D01*
X142741764Y-79190456D01*
X142772294Y-79253302D01*
X142764000Y-79322678D01*
X142719516Y-79376556D01*
X142682108Y-79393641D01*
X142649360Y-79402416D01*
X142649358Y-79402417D01*
X142523835Y-79474888D01*
X142523829Y-79474893D01*
X142421340Y-79577382D01*
X142421335Y-79577388D01*
X142348864Y-79702911D01*
X142348863Y-79702915D01*
X142311347Y-79842925D01*
X142311347Y-79987875D01*
X142337762Y-80086456D01*
X142348864Y-80127888D01*
X142421335Y-80253411D01*
X142421337Y-80253413D01*
X142421338Y-80253415D01*
X142523832Y-80355909D01*
X142523833Y-80355910D01*
X142523835Y-80355911D01*
X142649358Y-80428382D01*
X142649359Y-80428382D01*
X142649362Y-80428384D01*
X142708008Y-80444098D01*
X142767667Y-80480462D01*
X142798196Y-80543309D01*
X142789901Y-80612684D01*
X142745416Y-80666562D01*
X142708009Y-80683646D01*
X142661633Y-80696073D01*
X142661630Y-80696074D01*
X142536107Y-80768545D01*
X142536101Y-80768550D01*
X142433612Y-80871039D01*
X142433607Y-80871045D01*
X142361136Y-80996568D01*
X142361135Y-80996572D01*
X142323619Y-81136582D01*
X142323619Y-81136584D01*
X142323619Y-81281531D01*
X142329496Y-81303464D01*
X142327833Y-81373314D01*
X142288670Y-81431176D01*
X142224442Y-81458680D01*
X142209721Y-81459557D01*
X126549917Y-81459557D01*
X126460773Y-81483443D01*
X126460770Y-81483444D01*
X126380852Y-81529584D01*
X126380847Y-81529588D01*
X125090666Y-82819770D01*
X125029343Y-82853255D01*
X125002985Y-82856089D01*
X124927054Y-82856089D01*
X124798707Y-82890480D01*
X124787040Y-82893606D01*
X124661517Y-82966077D01*
X124661511Y-82966082D01*
X124559022Y-83068571D01*
X124559017Y-83068577D01*
X124486546Y-83194100D01*
X124485709Y-83197224D01*
X124449029Y-83334114D01*
X124449029Y-83479064D01*
X124476812Y-83582750D01*
X124486546Y-83619077D01*
X124559017Y-83744600D01*
X124559019Y-83744602D01*
X124559020Y-83744604D01*
X124661514Y-83847098D01*
X124661515Y-83847099D01*
X124661517Y-83847100D01*
X124787040Y-83919571D01*
X124787041Y-83919571D01*
X124787044Y-83919573D01*
X124927054Y-83957089D01*
X124927057Y-83957089D01*
X125072001Y-83957089D01*
X125072004Y-83957089D01*
X125212014Y-83919573D01*
X125337544Y-83847098D01*
X125440038Y-83744604D01*
X125512513Y-83619074D01*
X125550029Y-83479064D01*
X125550029Y-83403133D01*
X125569714Y-83336094D01*
X125586348Y-83315452D01*
X126704924Y-82196876D01*
X126766247Y-82163391D01*
X126792605Y-82160557D01*
X132216735Y-82160557D01*
X132283774Y-82180242D01*
X132329529Y-82233046D01*
X132339473Y-82302204D01*
X132331297Y-82332009D01*
X132329018Y-82337511D01*
X132329016Y-82337515D01*
X132291500Y-82477525D01*
X132291500Y-82477527D01*
X132291500Y-82622474D01*
X132316536Y-82715912D01*
X132329014Y-82762480D01*
X132329016Y-82762485D01*
X132355302Y-82808015D01*
X132401489Y-82888013D01*
X132401491Y-82888016D01*
X135069425Y-85555950D01*
X135102910Y-85617273D01*
X135097926Y-85686965D01*
X135056054Y-85742898D01*
X134990590Y-85767315D01*
X134949653Y-85763406D01*
X134920148Y-85755500D01*
X134920144Y-85755500D01*
X126538144Y-85755500D01*
X114138310Y-85755500D01*
X114071271Y-85735815D01*
X114050629Y-85719181D01*
X110005641Y-81674193D01*
X109994610Y-81653991D01*
X109979791Y-81636378D01*
X109976541Y-81620902D01*
X109972156Y-81612870D01*
X109970341Y-81602373D01*
X109969322Y-81594471D01*
X109969322Y-81510581D01*
X109943098Y-81412711D01*
X112703500Y-81412711D01*
X112703500Y-81655288D01*
X112735161Y-81895785D01*
X112797947Y-82130104D01*
X112890773Y-82354205D01*
X112890777Y-82354214D01*
X112901183Y-82372238D01*
X113012064Y-82564289D01*
X113012066Y-82564292D01*
X113012067Y-82564293D01*
X113159733Y-82756736D01*
X113159739Y-82756743D01*
X113331256Y-82928260D01*
X113331263Y-82928266D01*
X113380546Y-82966082D01*
X113523711Y-83075936D01*
X113733788Y-83197224D01*
X113957900Y-83290054D01*
X114192211Y-83352838D01*
X114372586Y-83376584D01*
X114432711Y-83384500D01*
X114432712Y-83384500D01*
X114675289Y-83384500D01*
X114723388Y-83378167D01*
X114915789Y-83352838D01*
X115150100Y-83290054D01*
X115374212Y-83197224D01*
X115584289Y-83075936D01*
X115776738Y-82928265D01*
X115948265Y-82756738D01*
X116095936Y-82564289D01*
X116217224Y-82354212D01*
X116310054Y-82130100D01*
X116372838Y-81895789D01*
X116404500Y-81655288D01*
X116404500Y-81412712D01*
X116398172Y-81364649D01*
X116384638Y-81261841D01*
X116372838Y-81172211D01*
X116310054Y-80937900D01*
X116217224Y-80713788D01*
X116095936Y-80503711D01*
X115982524Y-80355909D01*
X115948266Y-80311263D01*
X115948260Y-80311256D01*
X115776743Y-80139739D01*
X115776736Y-80139733D01*
X115584293Y-79992067D01*
X115584292Y-79992066D01*
X115584289Y-79992064D01*
X115374212Y-79870776D01*
X115359937Y-79864863D01*
X115150104Y-79777947D01*
X114915785Y-79715161D01*
X114675289Y-79683500D01*
X114675288Y-79683500D01*
X114432712Y-79683500D01*
X114432711Y-79683500D01*
X114192214Y-79715161D01*
X113957895Y-79777947D01*
X113733794Y-79870773D01*
X113733785Y-79870777D01*
X113523706Y-79992067D01*
X113331263Y-80139733D01*
X113331256Y-80139739D01*
X113159739Y-80311256D01*
X113159733Y-80311263D01*
X113012067Y-80503706D01*
X112890777Y-80713785D01*
X112890773Y-80713794D01*
X112797947Y-80937895D01*
X112735161Y-81172214D01*
X112703500Y-81412711D01*
X109943098Y-81412711D01*
X109931806Y-81370571D01*
X109869025Y-81261832D01*
X109859333Y-81245044D01*
X109859328Y-81245038D01*
X109756839Y-81142549D01*
X109756833Y-81142544D01*
X109631310Y-81070073D01*
X109631311Y-81070073D01*
X109619828Y-81066996D01*
X109491297Y-81032556D01*
X109346347Y-81032556D01*
X109217815Y-81066996D01*
X109206333Y-81070073D01*
X109080810Y-81142544D01*
X109080804Y-81142549D01*
X108978315Y-81245038D01*
X108978310Y-81245044D01*
X108905839Y-81370567D01*
X108905838Y-81370571D01*
X108868322Y-81510581D01*
X108868322Y-81655531D01*
X108905838Y-81795541D01*
X108905839Y-81795544D01*
X108978310Y-81921067D01*
X108978312Y-81921069D01*
X108978313Y-81921071D01*
X109080807Y-82023565D01*
X109080808Y-82023566D01*
X109080810Y-82023567D01*
X109206333Y-82096038D01*
X109206334Y-82096038D01*
X109206337Y-82096040D01*
X109346347Y-82133556D01*
X109422278Y-82133556D01*
X109489317Y-82153241D01*
X109509959Y-82169875D01*
X113645903Y-86305819D01*
X113679388Y-86367142D01*
X113674404Y-86436834D01*
X113632532Y-86492767D01*
X113567068Y-86517184D01*
X113558222Y-86517500D01*
X110686544Y-86517500D01*
X110619505Y-86497815D01*
X110598863Y-86481181D01*
X106758819Y-82641137D01*
X106725334Y-82579814D01*
X106722500Y-82553456D01*
X106722500Y-82477527D01*
X106722500Y-82477525D01*
X106684984Y-82337515D01*
X106681612Y-82331675D01*
X106612511Y-82211988D01*
X106612506Y-82211982D01*
X106510017Y-82109493D01*
X106510011Y-82109488D01*
X106384488Y-82037017D01*
X106384489Y-82037017D01*
X106373006Y-82033940D01*
X106244475Y-81999500D01*
X106099525Y-81999500D01*
X105970993Y-82033940D01*
X105959511Y-82037017D01*
X105833988Y-82109488D01*
X105833982Y-82109493D01*
X105731493Y-82211982D01*
X105731488Y-82211988D01*
X105659017Y-82337511D01*
X105659016Y-82337515D01*
X105621500Y-82477525D01*
X105621500Y-82622475D01*
X105659015Y-82762480D01*
X105659017Y-82762488D01*
X105731488Y-82888011D01*
X105731493Y-82888017D01*
X105785181Y-82941705D01*
X105818666Y-83003028D01*
X105821500Y-83029386D01*
X105821500Y-91092018D01*
X105801815Y-91159057D01*
X105796818Y-91166260D01*
X105791483Y-91173396D01*
X105720895Y-91243985D01*
X105660423Y-91348724D01*
X105656018Y-91354618D01*
X105633701Y-91371348D01*
X105613519Y-91390592D01*
X105606133Y-91392015D01*
X105600114Y-91396528D01*
X105572293Y-91398536D01*
X105544911Y-91403814D01*
X105537927Y-91401018D01*
X105530426Y-91401560D01*
X105505941Y-91388212D01*
X105480047Y-91377846D01*
X105469101Y-91368130D01*
X105469081Y-91368119D01*
X105469077Y-91368115D01*
X105469070Y-91368102D01*
X105469019Y-91368057D01*
X104780819Y-90679857D01*
X104747334Y-90618534D01*
X104744500Y-90592176D01*
X104744500Y-79952544D01*
X104764185Y-79885505D01*
X104780819Y-79864863D01*
X105627182Y-79018500D01*
X105688505Y-78985015D01*
X105714863Y-78982181D01*
X142380017Y-78982181D01*
X142409457Y-78990825D01*
G37*
G04 #@! TD.AperFunction*
M02*
