%TF.GenerationSoftware,KiCad,Pcbnew,9.0.0*%
%TF.CreationDate,2025-03-05T08:43:47-06:00*%
%TF.ProjectId,PCB,5043422e-6b69-4636-9164-5f7063625858,rev?*%
%TF.SameCoordinates,Original*%
%TF.FileFunction,Drillmap*%
%TF.FilePolarity,Positive*%
%FSLAX45Y45*%
G04 Gerber Fmt 4.5, Leading zero omitted, Abs format (unit mm)*
G04 Created by KiCad (PCBNEW 9.0.0) date 2025-03-05 08:43:47*
%MOMM*%
%LPD*%
G01*
G04 APERTURE LIST*
%ADD10C,0.050000*%
%ADD11C,0.200000*%
%ADD12C,0.100000*%
%ADD13C,0.110000*%
%ADD14C,0.113000*%
%ADD15C,0.140000*%
G04 APERTURE END LIST*
D10*
X17551400Y-2971800D02*
X27051000Y-2971800D01*
X27051000Y-10021800D01*
X17551400Y-10021800D01*
X17551400Y-2971800D01*
D11*
D12*
X17790400Y-7757400D02*
X17820400Y-7787400D01*
X17820400Y-7757400D02*
X17790400Y-7787400D01*
X17841200Y-4607800D02*
X17871200Y-4637800D01*
X17871200Y-4607800D02*
X17841200Y-4637800D01*
X17841200Y-5014200D02*
X17871200Y-5044200D01*
X17871200Y-5014200D02*
X17841200Y-5044200D01*
X17841200Y-5192000D02*
X17871200Y-5222000D01*
X17871200Y-5192000D02*
X17841200Y-5222000D01*
X17841200Y-7503400D02*
X17871200Y-7533400D01*
X17871200Y-7503400D02*
X17841200Y-7533400D01*
X17866600Y-5344400D02*
X17896600Y-5374400D01*
X17896600Y-5344400D02*
X17866600Y-5374400D01*
X17917400Y-4455400D02*
X17947400Y-4485400D01*
X17947400Y-4455400D02*
X17917400Y-4485400D01*
X17917400Y-4658600D02*
X17947400Y-4688600D01*
X17947400Y-4658600D02*
X17917400Y-4688600D01*
X17917400Y-4912600D02*
X17947400Y-4942600D01*
X17947400Y-4912600D02*
X17917400Y-4942600D01*
X17917400Y-5090400D02*
X17947400Y-5120400D01*
X17947400Y-5090400D02*
X17917400Y-5120400D01*
X17917400Y-5268200D02*
X17947400Y-5298200D01*
X17947400Y-5268200D02*
X17917400Y-5298200D01*
X17917400Y-7325600D02*
X17947400Y-7355600D01*
X17947400Y-7325600D02*
X17917400Y-7355600D01*
X18069800Y-9713200D02*
X18099800Y-9743200D01*
X18099800Y-9713200D02*
X18069800Y-9743200D01*
X18089501Y-6817600D02*
X18119501Y-6847600D01*
X18119501Y-6817600D02*
X18089501Y-6847600D01*
X18146000Y-7376400D02*
X18176000Y-7406400D01*
X18176000Y-7376400D02*
X18146000Y-7406400D01*
X18298400Y-8468600D02*
X18328400Y-8498600D01*
X18328400Y-8468600D02*
X18298400Y-8498600D01*
X18349200Y-8113000D02*
X18379200Y-8143000D01*
X18379200Y-8113000D02*
X18349200Y-8143000D01*
X18373198Y-5900200D02*
X18403198Y-5930200D01*
X18403198Y-5900200D02*
X18373198Y-5930200D01*
X18425400Y-6817600D02*
X18455400Y-6847600D01*
X18455400Y-6817600D02*
X18425400Y-6847600D01*
X18425400Y-8976600D02*
X18455400Y-9006600D01*
X18455400Y-8976600D02*
X18425400Y-9006600D01*
X18471853Y-5671600D02*
X18501853Y-5701600D01*
X18501853Y-5671600D02*
X18471853Y-5701600D01*
X18501600Y-8341600D02*
X18531600Y-8371600D01*
X18531600Y-8341600D02*
X18501600Y-8371600D01*
X18587922Y-8745963D02*
X18617922Y-8775963D01*
X18617922Y-8745963D02*
X18587922Y-8775963D01*
X18651944Y-7739469D02*
X18681944Y-7769469D01*
X18681944Y-7739469D02*
X18651944Y-7769469D01*
X18654000Y-4455400D02*
X18684000Y-4485400D01*
X18684000Y-4455400D02*
X18654000Y-4485400D01*
X18654000Y-6766800D02*
X18684000Y-6796800D01*
X18684000Y-6766800D02*
X18654000Y-6796800D01*
X18712949Y-6834143D02*
X18742949Y-6864143D01*
X18742949Y-6834143D02*
X18712949Y-6864143D01*
X18763457Y-6771289D02*
X18793457Y-6801289D01*
X18793457Y-6771289D02*
X18763457Y-6801289D01*
X18781000Y-4455400D02*
X18811000Y-4485400D01*
X18811000Y-4455400D02*
X18781000Y-4485400D01*
X18806400Y-9687800D02*
X18836400Y-9717800D01*
X18836400Y-9687800D02*
X18806400Y-9717800D01*
X18842710Y-4845371D02*
X18872710Y-4875371D01*
X18872710Y-4845371D02*
X18842710Y-4875371D01*
X18857200Y-6768150D02*
X18887200Y-6798150D01*
X18887200Y-6768150D02*
X18857200Y-6798150D01*
X18857200Y-7655800D02*
X18887200Y-7685800D01*
X18887200Y-7655800D02*
X18857200Y-7685800D01*
X18857200Y-8011400D02*
X18887200Y-8041400D01*
X18887200Y-8011400D02*
X18857200Y-8041400D01*
X18908000Y-4455400D02*
X18938000Y-4485400D01*
X18938000Y-4455400D02*
X18908000Y-4485400D01*
X18933400Y-5192000D02*
X18963400Y-5222000D01*
X18963400Y-5192000D02*
X18933400Y-5222000D01*
X18933400Y-5319000D02*
X18963400Y-5349000D01*
X18963400Y-5319000D02*
X18933400Y-5349000D01*
X18933400Y-6766800D02*
X18963400Y-6796800D01*
X18963400Y-6766800D02*
X18933400Y-6796800D01*
X18958800Y-4582400D02*
X18988800Y-4612400D01*
X18988800Y-4582400D02*
X18958800Y-4612400D01*
X18958800Y-7782800D02*
X18988800Y-7812800D01*
X18988800Y-7782800D02*
X18958800Y-7812800D01*
X18958800Y-8138400D02*
X18988800Y-8168400D01*
X18988800Y-8138400D02*
X18958800Y-8168400D01*
X18958800Y-8748000D02*
X18988800Y-8778000D01*
X18988800Y-8748000D02*
X18958800Y-8778000D01*
X19009600Y-6766800D02*
X19039600Y-6796800D01*
X19039600Y-6766800D02*
X19009600Y-6796800D01*
X19009600Y-7579600D02*
X19039600Y-7609600D01*
X19039600Y-7579600D02*
X19009600Y-7609600D01*
X19060400Y-4734800D02*
X19090400Y-4764800D01*
X19090400Y-4734800D02*
X19060400Y-4764800D01*
X19067979Y-5454485D02*
X19097979Y-5484485D01*
X19097979Y-5454485D02*
X19067979Y-5484485D01*
X19085800Y-4912600D02*
X19115800Y-4942600D01*
X19115800Y-4912600D02*
X19085800Y-4942600D01*
X19085800Y-5014200D02*
X19115800Y-5044200D01*
X19115800Y-5014200D02*
X19085800Y-5044200D01*
X19085800Y-6766800D02*
X19115800Y-6796800D01*
X19115800Y-6766800D02*
X19085800Y-6796800D01*
X19085800Y-9484600D02*
X19115800Y-9514600D01*
X19115800Y-9484600D02*
X19085800Y-9514600D01*
X19098574Y-7737885D02*
X19128574Y-7767885D01*
X19128574Y-7737885D02*
X19098574Y-7767885D01*
X19238200Y-6766800D02*
X19268200Y-6796800D01*
X19268200Y-6766800D02*
X19238200Y-6796800D01*
X19360957Y-5043171D02*
X19390957Y-5073171D01*
X19390957Y-5043171D02*
X19360957Y-5073171D01*
X19390600Y-8265400D02*
X19420600Y-8295400D01*
X19420600Y-8265400D02*
X19390600Y-8295400D01*
X19441400Y-9560800D02*
X19471400Y-9590800D01*
X19471400Y-9560800D02*
X19441400Y-9590800D01*
X19466800Y-7147800D02*
X19496800Y-7177800D01*
X19496800Y-7147800D02*
X19466800Y-7177800D01*
X19568400Y-7198600D02*
X19598400Y-7228600D01*
X19598400Y-7198600D02*
X19568400Y-7228600D01*
X19619200Y-6919200D02*
X19649200Y-6949200D01*
X19649200Y-6919200D02*
X19619200Y-6949200D01*
X19666476Y-8889253D02*
X19696476Y-8919253D01*
X19696476Y-8889253D02*
X19666476Y-8919253D01*
X19695400Y-7274800D02*
X19725400Y-7304800D01*
X19725400Y-7274800D02*
X19695400Y-7304800D01*
X19720800Y-7173200D02*
X19750800Y-7203200D01*
X19750800Y-7173200D02*
X19720800Y-7203200D01*
X19797000Y-7376400D02*
X19827000Y-7406400D01*
X19827000Y-7376400D02*
X19797000Y-7406400D01*
X19847800Y-9687800D02*
X19877800Y-9717800D01*
X19877800Y-9687800D02*
X19847800Y-9717800D01*
X19910419Y-6188711D02*
X19940419Y-6218711D01*
X19940419Y-6188711D02*
X19910419Y-6218711D01*
X19910496Y-7636889D02*
X19940496Y-7666889D01*
X19940496Y-7636889D02*
X19910496Y-7666889D01*
X20000200Y-7198600D02*
X20030200Y-7228600D01*
X20030200Y-7198600D02*
X20000200Y-7228600D01*
X20004678Y-6783059D02*
X20034678Y-6813059D01*
X20034678Y-6783059D02*
X20004678Y-6813059D01*
X20017251Y-8891425D02*
X20047251Y-8921425D01*
X20047251Y-8891425D02*
X20017251Y-8921425D01*
X20025600Y-7401800D02*
X20055600Y-7431800D01*
X20055600Y-7401800D02*
X20025600Y-7431800D01*
X20101800Y-9484600D02*
X20131800Y-9514600D01*
X20131800Y-9484600D02*
X20101800Y-9514600D01*
X20178000Y-9052800D02*
X20208000Y-9082800D01*
X20208000Y-9052800D02*
X20178000Y-9082800D01*
X20203400Y-8468600D02*
X20233400Y-8498600D01*
X20233400Y-8468600D02*
X20203400Y-8498600D01*
X20230422Y-7087822D02*
X20260422Y-7117822D01*
X20260422Y-7087822D02*
X20230422Y-7117822D01*
X20254200Y-7478000D02*
X20284200Y-7508000D01*
X20284200Y-7478000D02*
X20254200Y-7508000D01*
X20254200Y-7782800D02*
X20284200Y-7812800D01*
X20284200Y-7782800D02*
X20254200Y-7812800D01*
X20292245Y-4207549D02*
X20322245Y-4237549D01*
X20322245Y-4207549D02*
X20292245Y-4237549D01*
X20305000Y-5547600D02*
X20335000Y-5577600D01*
X20335000Y-5547600D02*
X20305000Y-5577600D01*
X20330400Y-7376400D02*
X20360400Y-7406400D01*
X20360400Y-7376400D02*
X20330400Y-7406400D01*
X20355800Y-6360400D02*
X20385800Y-6390400D01*
X20385800Y-6360400D02*
X20355800Y-6390400D01*
X20355800Y-6462000D02*
X20385800Y-6492000D01*
X20385800Y-6462000D02*
X20355800Y-6492000D01*
X20355800Y-6563600D02*
X20385800Y-6593600D01*
X20385800Y-6563600D02*
X20355800Y-6593600D01*
X20355800Y-6792200D02*
X20385800Y-6822200D01*
X20385800Y-6792200D02*
X20355800Y-6822200D01*
X20355800Y-6893800D02*
X20385800Y-6923800D01*
X20385800Y-6893800D02*
X20355800Y-6923800D01*
X20355800Y-9256000D02*
X20385800Y-9286000D01*
X20385800Y-9256000D02*
X20355800Y-9286000D01*
X20381200Y-7935200D02*
X20411200Y-7965200D01*
X20411200Y-7935200D02*
X20381200Y-7965200D01*
X20381200Y-8392400D02*
X20411200Y-8422400D01*
X20411200Y-8392400D02*
X20381200Y-8422400D01*
X20381200Y-9738600D02*
X20411200Y-9768600D01*
X20411200Y-9738600D02*
X20381200Y-9768600D01*
X20381879Y-4435708D02*
X20411879Y-4465708D01*
X20411879Y-4435708D02*
X20381879Y-4465708D01*
X20533600Y-7427200D02*
X20563600Y-7457200D01*
X20563600Y-7427200D02*
X20533600Y-7457200D01*
X20635200Y-7960600D02*
X20665200Y-7990600D01*
X20665200Y-7960600D02*
X20635200Y-7990600D01*
X20711400Y-7579600D02*
X20741400Y-7609600D01*
X20741400Y-7579600D02*
X20711400Y-7609600D01*
X20714611Y-4153904D02*
X20744611Y-4183904D01*
X20744611Y-4153904D02*
X20714611Y-4183904D01*
X20762200Y-7249400D02*
X20792200Y-7279400D01*
X20792200Y-7249400D02*
X20762200Y-7279400D01*
X20796767Y-5263171D02*
X20826767Y-5293171D01*
X20826767Y-5263171D02*
X20796767Y-5293171D01*
X21324392Y-4451326D02*
X21354392Y-4481326D01*
X21354392Y-4451326D02*
X21324392Y-4481326D01*
X21651200Y-8748000D02*
X21681200Y-8778000D01*
X21681200Y-8748000D02*
X21651200Y-8778000D01*
X21651200Y-8976600D02*
X21681200Y-9006600D01*
X21681200Y-8976600D02*
X21651200Y-9006600D01*
X21752800Y-8748000D02*
X21782800Y-8778000D01*
X21782800Y-8748000D02*
X21752800Y-8778000D01*
X21752800Y-8976600D02*
X21782800Y-9006600D01*
X21782800Y-8976600D02*
X21752800Y-9006600D01*
X21755200Y-4252200D02*
X21785200Y-4282200D01*
X21785200Y-4252200D02*
X21755200Y-4282200D01*
X21829000Y-8595600D02*
X21859000Y-8625600D01*
X21859000Y-8595600D02*
X21829000Y-8625600D01*
X21836194Y-8817960D02*
X21866194Y-8847960D01*
X21866194Y-8817960D02*
X21836194Y-8847960D01*
X21993104Y-8529023D02*
X22023104Y-8559023D01*
X22023104Y-8529023D02*
X21993104Y-8559023D01*
X22057600Y-3871200D02*
X22087600Y-3901200D01*
X22087600Y-3871200D02*
X22057600Y-3901200D01*
X22174641Y-4262159D02*
X22204641Y-4292159D01*
X22204641Y-4262159D02*
X22174641Y-4292159D01*
X22210000Y-7605000D02*
X22240000Y-7635000D01*
X22240000Y-7605000D02*
X22210000Y-7635000D01*
X22350599Y-8515910D02*
X22380599Y-8545910D01*
X22380599Y-8515910D02*
X22350599Y-8545910D01*
X22353891Y-8389792D02*
X22383891Y-8419792D01*
X22383891Y-8389792D02*
X22353891Y-8419792D01*
X22354215Y-8261910D02*
X22384215Y-8291910D01*
X22384215Y-8261910D02*
X22354215Y-8291910D01*
X22360397Y-9403353D02*
X22390397Y-9433353D01*
X22390397Y-9403353D02*
X22360397Y-9433353D01*
X22362922Y-8643270D02*
X22392922Y-8673270D01*
X22392922Y-8643270D02*
X22362922Y-8673270D01*
X22384279Y-7391987D02*
X22414279Y-7421987D01*
X22414279Y-7391987D02*
X22384279Y-7421987D01*
X22614666Y-9230600D02*
X22644666Y-9260600D01*
X22644666Y-9230600D02*
X22614666Y-9260600D01*
X22641800Y-8621000D02*
X22671800Y-8651000D01*
X22671800Y-8621000D02*
X22641800Y-8651000D01*
X22903269Y-4498289D02*
X22933269Y-4528289D01*
X22933269Y-4498289D02*
X22903269Y-4528289D01*
X22903545Y-4062856D02*
X22933545Y-4092856D01*
X22933545Y-4062856D02*
X22903545Y-4092856D01*
X22976919Y-8630488D02*
X23006919Y-8660488D01*
X23006919Y-8630488D02*
X22976919Y-8660488D01*
X22977598Y-8493321D02*
X23007598Y-8523321D01*
X23007598Y-8493321D02*
X22977598Y-8523321D01*
X22978956Y-8771729D02*
X23008956Y-8801729D01*
X23008956Y-8771729D02*
X22978956Y-8801729D01*
X23018726Y-7788911D02*
X23048726Y-7818911D01*
X23048726Y-7788911D02*
X23018726Y-7818911D01*
X23038014Y-5837461D02*
X23068014Y-5867461D01*
X23068014Y-5837461D02*
X23038014Y-5867461D01*
X23091558Y-8381176D02*
X23121558Y-8411176D01*
X23121558Y-8381176D02*
X23091558Y-8411176D01*
X23149800Y-7859000D02*
X23179800Y-7889000D01*
X23179800Y-7859000D02*
X23149800Y-7889000D01*
X23165693Y-4753979D02*
X23195693Y-4783979D01*
X23195693Y-4753979D02*
X23165693Y-4783979D01*
X23166331Y-5702157D02*
X23196331Y-5732157D01*
X23196331Y-5702157D02*
X23166331Y-5732157D01*
X23231561Y-8384674D02*
X23261561Y-8414674D01*
X23261561Y-8384674D02*
X23231561Y-8414674D01*
X23273231Y-7868031D02*
X23303231Y-7898031D01*
X23303231Y-7868031D02*
X23273231Y-7898031D01*
X23292972Y-5707141D02*
X23322972Y-5737141D01*
X23322972Y-5707141D02*
X23292972Y-5737141D01*
X23372480Y-8387976D02*
X23402480Y-8417976D01*
X23402480Y-8387976D02*
X23372480Y-8417976D01*
X23490374Y-8493400D02*
X23520374Y-8523400D01*
X23520374Y-8493400D02*
X23490374Y-8523400D01*
X23494351Y-8773766D02*
X23524351Y-8803766D01*
X23524351Y-8773766D02*
X23494351Y-8803766D01*
X23499783Y-8632525D02*
X23529783Y-8662525D01*
X23529783Y-8632525D02*
X23499783Y-8662525D01*
X23581030Y-5968260D02*
X23611030Y-5998260D01*
X23611030Y-5968260D02*
X23581030Y-5998260D01*
X23740092Y-5046666D02*
X23770092Y-5076666D01*
X23770092Y-5046666D02*
X23740092Y-5076666D01*
X23744250Y-8008344D02*
X23774250Y-8038344D01*
X23774250Y-8008344D02*
X23744250Y-8038344D01*
X23782824Y-8135301D02*
X23812824Y-8165301D01*
X23812824Y-8135301D02*
X23782824Y-8165301D01*
X23808566Y-9402289D02*
X23838566Y-9432289D01*
X23838566Y-9402289D02*
X23808566Y-9432289D01*
X23817945Y-8260647D02*
X23847945Y-8290647D01*
X23847945Y-8260647D02*
X23817945Y-8290647D01*
X24070990Y-4505925D02*
X24100990Y-4535925D01*
X24100990Y-4505925D02*
X24070990Y-4535925D01*
X24073303Y-4051716D02*
X24103303Y-4081716D01*
X24103303Y-4051716D02*
X24073303Y-4081716D01*
X24140400Y-8697200D02*
X24170400Y-8727200D01*
X24170400Y-8697200D02*
X24140400Y-8727200D01*
X24205056Y-5710295D02*
X24235056Y-5740295D01*
X24235056Y-5710295D02*
X24205056Y-5740295D01*
X24292800Y-8646400D02*
X24322800Y-8676400D01*
X24322800Y-8646400D02*
X24292800Y-8676400D01*
X24333139Y-4742839D02*
X24363139Y-4772839D01*
X24363139Y-4742839D02*
X24333139Y-4772839D01*
X24333250Y-7696250D02*
X24363250Y-7726250D01*
X24363250Y-7696250D02*
X24333250Y-7726250D01*
X24384075Y-8861507D02*
X24414075Y-8891507D01*
X24414075Y-8861507D02*
X24384075Y-8891507D01*
X24692134Y-9435158D02*
X24722134Y-9465158D01*
X24722134Y-9435158D02*
X24692134Y-9465158D01*
X24724600Y-9281400D02*
X24754600Y-9311400D01*
X24754600Y-9281400D02*
X24724600Y-9311400D01*
X24745473Y-5967581D02*
X24775473Y-5997581D01*
X24775473Y-5967581D02*
X24745473Y-5997581D01*
X24775400Y-8138400D02*
X24805400Y-8168400D01*
X24805400Y-8138400D02*
X24775400Y-8168400D01*
X24877000Y-7859000D02*
X24907000Y-7889000D01*
X24907000Y-7859000D02*
X24877000Y-7889000D01*
X24877000Y-8255820D02*
X24907000Y-8285820D01*
X24907000Y-8255820D02*
X24877000Y-8285820D01*
X24902853Y-5048201D02*
X24932853Y-5078201D01*
X24932853Y-5048201D02*
X24902853Y-5078201D01*
X25003217Y-9510000D02*
X25033217Y-9540000D01*
X25033217Y-9510000D02*
X25003217Y-9540000D01*
X25004000Y-9433800D02*
X25034000Y-9463800D01*
X25034000Y-9433800D02*
X25004000Y-9463800D01*
X25008869Y-6490182D02*
X25038869Y-6520182D01*
X25038869Y-6490182D02*
X25008869Y-6520182D01*
X25022262Y-7445557D02*
X25052262Y-7475557D01*
X25052262Y-7445557D02*
X25022262Y-7475557D01*
X25131000Y-5674600D02*
X25161000Y-5704600D01*
X25161000Y-5674600D02*
X25131000Y-5704600D01*
X25131000Y-8570200D02*
X25161000Y-8600200D01*
X25161000Y-8570200D02*
X25131000Y-8600200D01*
X25134000Y-4681000D02*
X25164000Y-4711000D01*
X25164000Y-4681000D02*
X25134000Y-4711000D01*
X25309705Y-8570151D02*
X25339705Y-8600151D01*
X25339705Y-8570151D02*
X25309705Y-8600151D01*
X25309763Y-5663425D02*
X25339763Y-5693425D01*
X25339763Y-5663425D02*
X25309763Y-5693425D01*
X25310442Y-6631794D02*
X25340442Y-6661794D01*
X25340442Y-6631794D02*
X25310442Y-6661794D01*
X25310709Y-9505632D02*
X25340709Y-9535632D01*
X25340709Y-9505632D02*
X25310709Y-9535632D01*
X25310837Y-7596833D02*
X25340837Y-7626833D01*
X25340837Y-7596833D02*
X25310837Y-7626833D01*
X25311112Y-4691322D02*
X25341112Y-4721322D01*
X25341112Y-4691322D02*
X25311112Y-4721322D01*
X25792815Y-8818805D02*
X25822815Y-8848805D01*
X25822815Y-8818805D02*
X25792815Y-8848805D01*
X18116200Y-5204000D02*
G75*
G02*
X18086200Y-5204000I-15000J0D01*
G01*
X18086200Y-5204000D02*
G75*
G02*
X18116200Y-5204000I15000J0D01*
G01*
X18116200Y-5334000D02*
G75*
G02*
X18086200Y-5334000I-15000J0D01*
G01*
X18086200Y-5334000D02*
G75*
G02*
X18116200Y-5334000I15000J0D01*
G01*
X18246200Y-5204000D02*
G75*
G02*
X18216200Y-5204000I-15000J0D01*
G01*
X18216200Y-5204000D02*
G75*
G02*
X18246200Y-5204000I15000J0D01*
G01*
X18246200Y-5334000D02*
G75*
G02*
X18216200Y-5334000I-15000J0D01*
G01*
X18216200Y-5334000D02*
G75*
G02*
X18246200Y-5334000I15000J0D01*
G01*
X18376200Y-5204000D02*
G75*
G02*
X18346200Y-5204000I-15000J0D01*
G01*
X18346200Y-5204000D02*
G75*
G02*
X18376200Y-5204000I15000J0D01*
G01*
X18376200Y-5334000D02*
G75*
G02*
X18346200Y-5334000I-15000J0D01*
G01*
X18346200Y-5334000D02*
G75*
G02*
X18376200Y-5334000I15000J0D01*
G01*
X18506200Y-5204000D02*
G75*
G02*
X18476200Y-5204000I-15000J0D01*
G01*
X18476200Y-5204000D02*
G75*
G02*
X18506200Y-5204000I15000J0D01*
G01*
X18506200Y-5334000D02*
G75*
G02*
X18476200Y-5334000I-15000J0D01*
G01*
X18476200Y-5334000D02*
G75*
G02*
X18506200Y-5334000I15000J0D01*
G01*
X19217400Y-8432800D02*
G75*
G02*
X19187400Y-8432800I-15000J0D01*
G01*
X19187400Y-8432800D02*
G75*
G02*
X19217400Y-8432800I15000J0D01*
G01*
X19483300Y-9233600D02*
G75*
G02*
X19453300Y-9233600I-15000J0D01*
G01*
X19453300Y-9233600D02*
G75*
G02*
X19483300Y-9233600I15000J0D01*
G01*
X19750800Y-7919600D02*
G75*
G02*
X19720800Y-7919600I-15000J0D01*
G01*
X19720800Y-7919600D02*
G75*
G02*
X19750800Y-7919600I15000J0D01*
G01*
X23128900Y-5176229D02*
G75*
G02*
X23098900Y-5176229I-15000J0D01*
G01*
X23098900Y-5176229D02*
G75*
G02*
X23128900Y-5176229I15000J0D01*
G01*
X23128900Y-5306229D02*
G75*
G02*
X23098900Y-5306229I-15000J0D01*
G01*
X23098900Y-5306229D02*
G75*
G02*
X23128900Y-5306229I15000J0D01*
G01*
X23258900Y-5176229D02*
G75*
G02*
X23228900Y-5176229I-15000J0D01*
G01*
X23228900Y-5176229D02*
G75*
G02*
X23258900Y-5176229I15000J0D01*
G01*
X23258900Y-5306229D02*
G75*
G02*
X23228900Y-5306229I-15000J0D01*
G01*
X23228900Y-5306229D02*
G75*
G02*
X23258900Y-5306229I15000J0D01*
G01*
X23388900Y-5176229D02*
G75*
G02*
X23358900Y-5176229I-15000J0D01*
G01*
X23358900Y-5176229D02*
G75*
G02*
X23388900Y-5176229I15000J0D01*
G01*
X23388900Y-5306229D02*
G75*
G02*
X23358900Y-5306229I-15000J0D01*
G01*
X23358900Y-5306229D02*
G75*
G02*
X23388900Y-5306229I15000J0D01*
G01*
X24297400Y-5176229D02*
G75*
G02*
X24267400Y-5176229I-15000J0D01*
G01*
X24267400Y-5176229D02*
G75*
G02*
X24297400Y-5176229I15000J0D01*
G01*
X24297400Y-5306229D02*
G75*
G02*
X24267400Y-5306229I-15000J0D01*
G01*
X24267400Y-5306229D02*
G75*
G02*
X24297400Y-5306229I15000J0D01*
G01*
X24427400Y-5176229D02*
G75*
G02*
X24397400Y-5176229I-15000J0D01*
G01*
X24397400Y-5176229D02*
G75*
G02*
X24427400Y-5176229I15000J0D01*
G01*
X24427400Y-5306229D02*
G75*
G02*
X24397400Y-5306229I-15000J0D01*
G01*
X24397400Y-5306229D02*
G75*
G02*
X24427400Y-5306229I15000J0D01*
G01*
X24557400Y-5176229D02*
G75*
G02*
X24527400Y-5176229I-15000J0D01*
G01*
X24527400Y-5176229D02*
G75*
G02*
X24557400Y-5176229I15000J0D01*
G01*
X24557400Y-5306229D02*
G75*
G02*
X24527400Y-5306229I-15000J0D01*
G01*
X24527400Y-5306229D02*
G75*
G02*
X24557400Y-5306229I15000J0D01*
G01*
X18783200Y-3806000D02*
X18783200Y-3906000D01*
X18733200Y-3856000D02*
X18833200Y-3856000D01*
X18733200Y-3756000D02*
X18733200Y-3956000D01*
X18833200Y-3956000D02*
G75*
G02*
X18733200Y-3956000I-50000J0D01*
G01*
X18833200Y-3956000D02*
X18833200Y-3756000D01*
X18833200Y-3756000D02*
G75*
G03*
X18733200Y-3756000I-50000J0D01*
G01*
X19253200Y-3506000D02*
X19253200Y-3606000D01*
X19203200Y-3556000D02*
X19303200Y-3556000D01*
X19353200Y-3506000D02*
X19153200Y-3506000D01*
X19153200Y-3606000D02*
G75*
G02*
X19153200Y-3506000I0J50000D01*
G01*
X19153200Y-3606000D02*
X19353200Y-3606000D01*
X19353200Y-3606000D02*
G75*
G03*
X19353200Y-3506000I0J50000D01*
G01*
X19253200Y-4106000D02*
X19253200Y-4206000D01*
X19203200Y-4156000D02*
X19303200Y-4156000D01*
X19353200Y-4106000D02*
X19153200Y-4106000D01*
X19153200Y-4206000D02*
G75*
G02*
X19153200Y-4106000I0J50000D01*
G01*
X19153200Y-4206000D02*
X19353200Y-4206000D01*
X19353200Y-4206000D02*
G75*
G03*
X19353200Y-4106000I0J50000D01*
G01*
D13*
X22060691Y-6414291D02*
X22060691Y-6336509D01*
X21982909Y-6336509D01*
X21982909Y-6414291D01*
X22060691Y-6414291D01*
X22060691Y-6668291D02*
X22060691Y-6590509D01*
X21982909Y-6590509D01*
X21982909Y-6668291D01*
X22060691Y-6668291D01*
X22314691Y-6414291D02*
X22314691Y-6336509D01*
X22236909Y-6336509D01*
X22236909Y-6414291D01*
X22314691Y-6414291D01*
X22314691Y-6668291D02*
X22314691Y-6590509D01*
X22236909Y-6590509D01*
X22236909Y-6668291D01*
X22314691Y-6668291D01*
X22568691Y-6414291D02*
X22568691Y-6336509D01*
X22490909Y-6336509D01*
X22490909Y-6414291D01*
X22568691Y-6414291D01*
X22568691Y-6668291D02*
X22568691Y-6590509D01*
X22490909Y-6590509D01*
X22490909Y-6668291D01*
X22568691Y-6668291D01*
D14*
X17995100Y-8197900D02*
X18051600Y-8141400D01*
X17995100Y-8084900D01*
X17938600Y-8141400D01*
X17995100Y-8197900D01*
X17995100Y-8451900D02*
X18051600Y-8395400D01*
X17995100Y-8338900D01*
X17938600Y-8395400D01*
X17995100Y-8451900D01*
X17995100Y-8705900D02*
X18051600Y-8649400D01*
X17995100Y-8592900D01*
X17938600Y-8649400D01*
X17995100Y-8705900D01*
X17995100Y-8959900D02*
X18051600Y-8903400D01*
X17995100Y-8846900D01*
X17938600Y-8903400D01*
X17995100Y-8959900D01*
X17995100Y-9213900D02*
X18051600Y-9157400D01*
X17995100Y-9100900D01*
X17938600Y-9157400D01*
X17995100Y-9213900D01*
X17995100Y-9467900D02*
X18051600Y-9411400D01*
X17995100Y-9354900D01*
X17938600Y-9411400D01*
X17995100Y-9467900D01*
X20675600Y-8311500D02*
X20732100Y-8255000D01*
X20675600Y-8198500D01*
X20619100Y-8255000D01*
X20675600Y-8311500D01*
X20675600Y-8565500D02*
X20732100Y-8509000D01*
X20675600Y-8452500D01*
X20619100Y-8509000D01*
X20675600Y-8565500D01*
X20675600Y-8819500D02*
X20732100Y-8763000D01*
X20675600Y-8706500D01*
X20619100Y-8763000D01*
X20675600Y-8819500D01*
X20675600Y-9073500D02*
X20732100Y-9017000D01*
X20675600Y-8960500D01*
X20619100Y-9017000D01*
X20675600Y-9073500D01*
X20675600Y-9327500D02*
X20732100Y-9271000D01*
X20675600Y-9214500D01*
X20619100Y-9271000D01*
X20675600Y-9327500D01*
X20675600Y-9581500D02*
X20732100Y-9525000D01*
X20675600Y-9468500D01*
X20619100Y-9525000D01*
X20675600Y-9581500D01*
D15*
X20199729Y-3498080D02*
X20339729Y-3638080D01*
X20339729Y-3498080D02*
X20199729Y-3638080D01*
X20339729Y-3568080D02*
G75*
G02*
X20199729Y-3568080I-70000J0D01*
G01*
X20199729Y-3568080D02*
G75*
G02*
X20339729Y-3568080I70000J0D01*
G01*
X20580729Y-3498080D02*
X20720729Y-3638080D01*
X20720729Y-3498080D02*
X20580729Y-3638080D01*
X20720729Y-3568080D02*
G75*
G02*
X20580729Y-3568080I-70000J0D01*
G01*
X20580729Y-3568080D02*
G75*
G02*
X20720729Y-3568080I70000J0D01*
G01*
X20961729Y-3498080D02*
X21101729Y-3638080D01*
X21101729Y-3498080D02*
X20961729Y-3638080D01*
X21101729Y-3568080D02*
G75*
G02*
X20961729Y-3568080I-70000J0D01*
G01*
X20961729Y-3568080D02*
G75*
G02*
X21101729Y-3568080I70000J0D01*
G01*
X21545929Y-3498080D02*
X21685929Y-3638080D01*
X21685929Y-3498080D02*
X21545929Y-3638080D01*
X21685929Y-3568080D02*
G75*
G02*
X21545929Y-3568080I-70000J0D01*
G01*
X21545929Y-3568080D02*
G75*
G02*
X21685929Y-3568080I70000J0D01*
G01*
X21926929Y-3498080D02*
X22066929Y-3638080D01*
X22066929Y-3498080D02*
X21926929Y-3638080D01*
X22066929Y-3568080D02*
G75*
G02*
X21926929Y-3568080I-70000J0D01*
G01*
X21926929Y-3568080D02*
G75*
G02*
X22066929Y-3568080I70000J0D01*
G01*
X22307929Y-3498080D02*
X22447929Y-3638080D01*
X22447929Y-3498080D02*
X22307929Y-3638080D01*
X22447929Y-3568080D02*
G75*
G02*
X22307929Y-3568080I-70000J0D01*
G01*
X22307929Y-3568080D02*
G75*
G02*
X22447929Y-3568080I70000J0D01*
G01*
X22970400Y-3509029D02*
X23110400Y-3649029D01*
X23110400Y-3509029D02*
X22970400Y-3649029D01*
X23110400Y-3579029D02*
G75*
G02*
X22970400Y-3579029I-70000J0D01*
G01*
X22970400Y-3579029D02*
G75*
G02*
X23110400Y-3579029I70000J0D01*
G01*
X23351400Y-3509029D02*
X23491400Y-3649029D01*
X23491400Y-3509029D02*
X23351400Y-3649029D01*
X23491400Y-3579029D02*
G75*
G02*
X23351400Y-3579029I-70000J0D01*
G01*
X23351400Y-3579029D02*
G75*
G02*
X23491400Y-3579029I70000J0D01*
G01*
X24138900Y-3509029D02*
X24278900Y-3649029D01*
X24278900Y-3509029D02*
X24138900Y-3649029D01*
X24278900Y-3579029D02*
G75*
G02*
X24138900Y-3579029I-70000J0D01*
G01*
X24138900Y-3579029D02*
G75*
G02*
X24278900Y-3579029I70000J0D01*
G01*
X24519900Y-3509029D02*
X24659900Y-3649029D01*
X24659900Y-3509029D02*
X24519900Y-3649029D01*
X24659900Y-3579029D02*
G75*
G02*
X24519900Y-3579029I-70000J0D01*
G01*
X24519900Y-3579029D02*
G75*
G02*
X24659900Y-3579029I70000J0D01*
G01*
X26382100Y-4123700D02*
X26522100Y-4263700D01*
X26522100Y-4123700D02*
X26382100Y-4263700D01*
X26522100Y-4193700D02*
G75*
G02*
X26382100Y-4193700I-70000J0D01*
G01*
X26382100Y-4193700D02*
G75*
G02*
X26522100Y-4193700I70000J0D01*
G01*
X26382100Y-4504700D02*
X26522100Y-4644700D01*
X26522100Y-4504700D02*
X26382100Y-4644700D01*
X26522100Y-4574700D02*
G75*
G02*
X26382100Y-4574700I-70000J0D01*
G01*
X26382100Y-4574700D02*
G75*
G02*
X26522100Y-4574700I70000J0D01*
G01*
X26382100Y-5088900D02*
X26522100Y-5228900D01*
X26522100Y-5088900D02*
X26382100Y-5228900D01*
X26522100Y-5158900D02*
G75*
G02*
X26382100Y-5158900I-70000J0D01*
G01*
X26382100Y-5158900D02*
G75*
G02*
X26522100Y-5158900I70000J0D01*
G01*
X26382100Y-5469900D02*
X26522100Y-5609900D01*
X26522100Y-5469900D02*
X26382100Y-5609900D01*
X26522100Y-5539900D02*
G75*
G02*
X26382100Y-5539900I-70000J0D01*
G01*
X26382100Y-5539900D02*
G75*
G02*
X26522100Y-5539900I70000J0D01*
G01*
X26382100Y-6054100D02*
X26522100Y-6194100D01*
X26522100Y-6054100D02*
X26382100Y-6194100D01*
X26522100Y-6124100D02*
G75*
G02*
X26382100Y-6124100I-70000J0D01*
G01*
X26382100Y-6124100D02*
G75*
G02*
X26522100Y-6124100I70000J0D01*
G01*
X26382100Y-6435100D02*
X26522100Y-6575100D01*
X26522100Y-6435100D02*
X26382100Y-6575100D01*
X26522100Y-6505100D02*
G75*
G02*
X26382100Y-6505100I-70000J0D01*
G01*
X26382100Y-6505100D02*
G75*
G02*
X26522100Y-6505100I70000J0D01*
G01*
X26382100Y-7009200D02*
X26522100Y-7149200D01*
X26522100Y-7009200D02*
X26382100Y-7149200D01*
X26522100Y-7079200D02*
G75*
G02*
X26382100Y-7079200I-70000J0D01*
G01*
X26382100Y-7079200D02*
G75*
G02*
X26522100Y-7079200I70000J0D01*
G01*
X26382100Y-7390200D02*
X26522100Y-7530200D01*
X26522100Y-7390200D02*
X26382100Y-7530200D01*
X26522100Y-7460200D02*
G75*
G02*
X26382100Y-7460200I-70000J0D01*
G01*
X26382100Y-7460200D02*
G75*
G02*
X26522100Y-7460200I70000J0D01*
G01*
X26382100Y-7974400D02*
X26522100Y-8114400D01*
X26522100Y-7974400D02*
X26382100Y-8114400D01*
X26522100Y-8044400D02*
G75*
G02*
X26382100Y-8044400I-70000J0D01*
G01*
X26382100Y-8044400D02*
G75*
G02*
X26522100Y-8044400I70000J0D01*
G01*
X26382100Y-8355400D02*
X26522100Y-8495400D01*
X26522100Y-8355400D02*
X26382100Y-8495400D01*
X26522100Y-8425400D02*
G75*
G02*
X26382100Y-8425400I-70000J0D01*
G01*
X26382100Y-8425400D02*
G75*
G02*
X26522100Y-8425400I70000J0D01*
G01*
X26382100Y-8939600D02*
X26522100Y-9079600D01*
X26522100Y-8939600D02*
X26382100Y-9079600D01*
X26522100Y-9009600D02*
G75*
G02*
X26382100Y-9009600I-70000J0D01*
G01*
X26382100Y-9009600D02*
G75*
G02*
X26522100Y-9009600I70000J0D01*
G01*
X26382100Y-9320600D02*
X26522100Y-9460600D01*
X26522100Y-9320600D02*
X26382100Y-9460600D01*
X26522100Y-9390600D02*
G75*
G02*
X26382100Y-9390600I-70000J0D01*
G01*
X26382100Y-9390600D02*
G75*
G02*
X26522100Y-9390600I70000J0D01*
G01*
D11*
X17809677Y-10335784D02*
X17809677Y-10135784D01*
X17809677Y-10135784D02*
X17857296Y-10135784D01*
X17857296Y-10135784D02*
X17885867Y-10145308D01*
X17885867Y-10145308D02*
X17904915Y-10164355D01*
X17904915Y-10164355D02*
X17914439Y-10183403D01*
X17914439Y-10183403D02*
X17923963Y-10221498D01*
X17923963Y-10221498D02*
X17923963Y-10250070D01*
X17923963Y-10250070D02*
X17914439Y-10288165D01*
X17914439Y-10288165D02*
X17904915Y-10307212D01*
X17904915Y-10307212D02*
X17885867Y-10326260D01*
X17885867Y-10326260D02*
X17857296Y-10335784D01*
X17857296Y-10335784D02*
X17809677Y-10335784D01*
X18009677Y-10335784D02*
X18009677Y-10202450D01*
X18009677Y-10240546D02*
X18019201Y-10221498D01*
X18019201Y-10221498D02*
X18028724Y-10211974D01*
X18028724Y-10211974D02*
X18047772Y-10202450D01*
X18047772Y-10202450D02*
X18066820Y-10202450D01*
X18133486Y-10335784D02*
X18133486Y-10202450D01*
X18133486Y-10135784D02*
X18123963Y-10145308D01*
X18123963Y-10145308D02*
X18133486Y-10154831D01*
X18133486Y-10154831D02*
X18143010Y-10145308D01*
X18143010Y-10145308D02*
X18133486Y-10135784D01*
X18133486Y-10135784D02*
X18133486Y-10154831D01*
X18257296Y-10335784D02*
X18238248Y-10326260D01*
X18238248Y-10326260D02*
X18228724Y-10307212D01*
X18228724Y-10307212D02*
X18228724Y-10135784D01*
X18362058Y-10335784D02*
X18343010Y-10326260D01*
X18343010Y-10326260D02*
X18333486Y-10307212D01*
X18333486Y-10307212D02*
X18333486Y-10135784D01*
X18590629Y-10335784D02*
X18590629Y-10135784D01*
X18590629Y-10135784D02*
X18657296Y-10278641D01*
X18657296Y-10278641D02*
X18723963Y-10135784D01*
X18723963Y-10135784D02*
X18723963Y-10335784D01*
X18904915Y-10335784D02*
X18904915Y-10231022D01*
X18904915Y-10231022D02*
X18895391Y-10211974D01*
X18895391Y-10211974D02*
X18876344Y-10202450D01*
X18876344Y-10202450D02*
X18838248Y-10202450D01*
X18838248Y-10202450D02*
X18819201Y-10211974D01*
X18904915Y-10326260D02*
X18885867Y-10335784D01*
X18885867Y-10335784D02*
X18838248Y-10335784D01*
X18838248Y-10335784D02*
X18819201Y-10326260D01*
X18819201Y-10326260D02*
X18809677Y-10307212D01*
X18809677Y-10307212D02*
X18809677Y-10288165D01*
X18809677Y-10288165D02*
X18819201Y-10269117D01*
X18819201Y-10269117D02*
X18838248Y-10259593D01*
X18838248Y-10259593D02*
X18885867Y-10259593D01*
X18885867Y-10259593D02*
X18904915Y-10250070D01*
X19000153Y-10202450D02*
X19000153Y-10402450D01*
X19000153Y-10211974D02*
X19019201Y-10202450D01*
X19019201Y-10202450D02*
X19057296Y-10202450D01*
X19057296Y-10202450D02*
X19076344Y-10211974D01*
X19076344Y-10211974D02*
X19085867Y-10221498D01*
X19085867Y-10221498D02*
X19095391Y-10240546D01*
X19095391Y-10240546D02*
X19095391Y-10297689D01*
X19095391Y-10297689D02*
X19085867Y-10316736D01*
X19085867Y-10316736D02*
X19076344Y-10326260D01*
X19076344Y-10326260D02*
X19057296Y-10335784D01*
X19057296Y-10335784D02*
X19019201Y-10335784D01*
X19019201Y-10335784D02*
X19000153Y-10326260D01*
X19181105Y-10316736D02*
X19190629Y-10326260D01*
X19190629Y-10326260D02*
X19181105Y-10335784D01*
X19181105Y-10335784D02*
X19171582Y-10326260D01*
X19171582Y-10326260D02*
X19181105Y-10316736D01*
X19181105Y-10316736D02*
X19181105Y-10335784D01*
X19181105Y-10211974D02*
X19190629Y-10221498D01*
X19190629Y-10221498D02*
X19181105Y-10231022D01*
X19181105Y-10231022D02*
X19171582Y-10221498D01*
X19171582Y-10221498D02*
X19181105Y-10211974D01*
X19181105Y-10211974D02*
X19181105Y-10231022D01*
D12*
X17518900Y-10649300D02*
X17548900Y-10679300D01*
X17548900Y-10649300D02*
X17518900Y-10679300D01*
D11*
X17847772Y-10555784D02*
X17866820Y-10555784D01*
X17866820Y-10555784D02*
X17885867Y-10565308D01*
X17885867Y-10565308D02*
X17895391Y-10574831D01*
X17895391Y-10574831D02*
X17904915Y-10593879D01*
X17904915Y-10593879D02*
X17914439Y-10631974D01*
X17914439Y-10631974D02*
X17914439Y-10679593D01*
X17914439Y-10679593D02*
X17904915Y-10717689D01*
X17904915Y-10717689D02*
X17895391Y-10736736D01*
X17895391Y-10736736D02*
X17885867Y-10746260D01*
X17885867Y-10746260D02*
X17866820Y-10755784D01*
X17866820Y-10755784D02*
X17847772Y-10755784D01*
X17847772Y-10755784D02*
X17828724Y-10746260D01*
X17828724Y-10746260D02*
X17819201Y-10736736D01*
X17819201Y-10736736D02*
X17809677Y-10717689D01*
X17809677Y-10717689D02*
X17800153Y-10679593D01*
X17800153Y-10679593D02*
X17800153Y-10631974D01*
X17800153Y-10631974D02*
X17809677Y-10593879D01*
X17809677Y-10593879D02*
X17819201Y-10574831D01*
X17819201Y-10574831D02*
X17828724Y-10565308D01*
X17828724Y-10565308D02*
X17847772Y-10555784D01*
X18000153Y-10736736D02*
X18009677Y-10746260D01*
X18009677Y-10746260D02*
X18000153Y-10755784D01*
X18000153Y-10755784D02*
X17990629Y-10746260D01*
X17990629Y-10746260D02*
X18000153Y-10736736D01*
X18000153Y-10736736D02*
X18000153Y-10755784D01*
X18076344Y-10555784D02*
X18200153Y-10555784D01*
X18200153Y-10555784D02*
X18133486Y-10631974D01*
X18133486Y-10631974D02*
X18162058Y-10631974D01*
X18162058Y-10631974D02*
X18181105Y-10641498D01*
X18181105Y-10641498D02*
X18190629Y-10651022D01*
X18190629Y-10651022D02*
X18200153Y-10670070D01*
X18200153Y-10670070D02*
X18200153Y-10717689D01*
X18200153Y-10717689D02*
X18190629Y-10736736D01*
X18190629Y-10736736D02*
X18181105Y-10746260D01*
X18181105Y-10746260D02*
X18162058Y-10755784D01*
X18162058Y-10755784D02*
X18104915Y-10755784D01*
X18104915Y-10755784D02*
X18085867Y-10746260D01*
X18085867Y-10746260D02*
X18076344Y-10736736D01*
X18323963Y-10555784D02*
X18343010Y-10555784D01*
X18343010Y-10555784D02*
X18362058Y-10565308D01*
X18362058Y-10565308D02*
X18371582Y-10574831D01*
X18371582Y-10574831D02*
X18381105Y-10593879D01*
X18381105Y-10593879D02*
X18390629Y-10631974D01*
X18390629Y-10631974D02*
X18390629Y-10679593D01*
X18390629Y-10679593D02*
X18381105Y-10717689D01*
X18381105Y-10717689D02*
X18371582Y-10736736D01*
X18371582Y-10736736D02*
X18362058Y-10746260D01*
X18362058Y-10746260D02*
X18343010Y-10755784D01*
X18343010Y-10755784D02*
X18323963Y-10755784D01*
X18323963Y-10755784D02*
X18304915Y-10746260D01*
X18304915Y-10746260D02*
X18295391Y-10736736D01*
X18295391Y-10736736D02*
X18285867Y-10717689D01*
X18285867Y-10717689D02*
X18276344Y-10679593D01*
X18276344Y-10679593D02*
X18276344Y-10631974D01*
X18276344Y-10631974D02*
X18285867Y-10593879D01*
X18285867Y-10593879D02*
X18295391Y-10574831D01*
X18295391Y-10574831D02*
X18304915Y-10565308D01*
X18304915Y-10565308D02*
X18323963Y-10555784D01*
X18514439Y-10555784D02*
X18533486Y-10555784D01*
X18533486Y-10555784D02*
X18552534Y-10565308D01*
X18552534Y-10565308D02*
X18562058Y-10574831D01*
X18562058Y-10574831D02*
X18571582Y-10593879D01*
X18571582Y-10593879D02*
X18581105Y-10631974D01*
X18581105Y-10631974D02*
X18581105Y-10679593D01*
X18581105Y-10679593D02*
X18571582Y-10717689D01*
X18571582Y-10717689D02*
X18562058Y-10736736D01*
X18562058Y-10736736D02*
X18552534Y-10746260D01*
X18552534Y-10746260D02*
X18533486Y-10755784D01*
X18533486Y-10755784D02*
X18514439Y-10755784D01*
X18514439Y-10755784D02*
X18495391Y-10746260D01*
X18495391Y-10746260D02*
X18485867Y-10736736D01*
X18485867Y-10736736D02*
X18476344Y-10717689D01*
X18476344Y-10717689D02*
X18466820Y-10679593D01*
X18466820Y-10679593D02*
X18466820Y-10631974D01*
X18466820Y-10631974D02*
X18476344Y-10593879D01*
X18476344Y-10593879D02*
X18485867Y-10574831D01*
X18485867Y-10574831D02*
X18495391Y-10565308D01*
X18495391Y-10565308D02*
X18514439Y-10555784D01*
X18666820Y-10755784D02*
X18666820Y-10622450D01*
X18666820Y-10641498D02*
X18676344Y-10631974D01*
X18676344Y-10631974D02*
X18695391Y-10622450D01*
X18695391Y-10622450D02*
X18723963Y-10622450D01*
X18723963Y-10622450D02*
X18743010Y-10631974D01*
X18743010Y-10631974D02*
X18752534Y-10651022D01*
X18752534Y-10651022D02*
X18752534Y-10755784D01*
X18752534Y-10651022D02*
X18762058Y-10631974D01*
X18762058Y-10631974D02*
X18781105Y-10622450D01*
X18781105Y-10622450D02*
X18809677Y-10622450D01*
X18809677Y-10622450D02*
X18828725Y-10631974D01*
X18828725Y-10631974D02*
X18838248Y-10651022D01*
X18838248Y-10651022D02*
X18838248Y-10755784D01*
X18933486Y-10755784D02*
X18933486Y-10622450D01*
X18933486Y-10641498D02*
X18943010Y-10631974D01*
X18943010Y-10631974D02*
X18962058Y-10622450D01*
X18962058Y-10622450D02*
X18990629Y-10622450D01*
X18990629Y-10622450D02*
X19009677Y-10631974D01*
X19009677Y-10631974D02*
X19019201Y-10651022D01*
X19019201Y-10651022D02*
X19019201Y-10755784D01*
X19019201Y-10651022D02*
X19028725Y-10631974D01*
X19028725Y-10631974D02*
X19047772Y-10622450D01*
X19047772Y-10622450D02*
X19076344Y-10622450D01*
X19076344Y-10622450D02*
X19095391Y-10631974D01*
X19095391Y-10631974D02*
X19104915Y-10651022D01*
X19104915Y-10651022D02*
X19104915Y-10755784D01*
X19495391Y-10546260D02*
X19323963Y-10803403D01*
X19752534Y-10555784D02*
X19771582Y-10555784D01*
X19771582Y-10555784D02*
X19790629Y-10565308D01*
X19790629Y-10565308D02*
X19800153Y-10574831D01*
X19800153Y-10574831D02*
X19809677Y-10593879D01*
X19809677Y-10593879D02*
X19819201Y-10631974D01*
X19819201Y-10631974D02*
X19819201Y-10679593D01*
X19819201Y-10679593D02*
X19809677Y-10717689D01*
X19809677Y-10717689D02*
X19800153Y-10736736D01*
X19800153Y-10736736D02*
X19790629Y-10746260D01*
X19790629Y-10746260D02*
X19771582Y-10755784D01*
X19771582Y-10755784D02*
X19752534Y-10755784D01*
X19752534Y-10755784D02*
X19733487Y-10746260D01*
X19733487Y-10746260D02*
X19723963Y-10736736D01*
X19723963Y-10736736D02*
X19714439Y-10717689D01*
X19714439Y-10717689D02*
X19704915Y-10679593D01*
X19704915Y-10679593D02*
X19704915Y-10631974D01*
X19704915Y-10631974D02*
X19714439Y-10593879D01*
X19714439Y-10593879D02*
X19723963Y-10574831D01*
X19723963Y-10574831D02*
X19733487Y-10565308D01*
X19733487Y-10565308D02*
X19752534Y-10555784D01*
X19904915Y-10736736D02*
X19914439Y-10746260D01*
X19914439Y-10746260D02*
X19904915Y-10755784D01*
X19904915Y-10755784D02*
X19895391Y-10746260D01*
X19895391Y-10746260D02*
X19904915Y-10736736D01*
X19904915Y-10736736D02*
X19904915Y-10755784D01*
X20038248Y-10555784D02*
X20057296Y-10555784D01*
X20057296Y-10555784D02*
X20076344Y-10565308D01*
X20076344Y-10565308D02*
X20085868Y-10574831D01*
X20085868Y-10574831D02*
X20095391Y-10593879D01*
X20095391Y-10593879D02*
X20104915Y-10631974D01*
X20104915Y-10631974D02*
X20104915Y-10679593D01*
X20104915Y-10679593D02*
X20095391Y-10717689D01*
X20095391Y-10717689D02*
X20085868Y-10736736D01*
X20085868Y-10736736D02*
X20076344Y-10746260D01*
X20076344Y-10746260D02*
X20057296Y-10755784D01*
X20057296Y-10755784D02*
X20038248Y-10755784D01*
X20038248Y-10755784D02*
X20019201Y-10746260D01*
X20019201Y-10746260D02*
X20009677Y-10736736D01*
X20009677Y-10736736D02*
X20000153Y-10717689D01*
X20000153Y-10717689D02*
X19990629Y-10679593D01*
X19990629Y-10679593D02*
X19990629Y-10631974D01*
X19990629Y-10631974D02*
X20000153Y-10593879D01*
X20000153Y-10593879D02*
X20009677Y-10574831D01*
X20009677Y-10574831D02*
X20019201Y-10565308D01*
X20019201Y-10565308D02*
X20038248Y-10555784D01*
X20295391Y-10755784D02*
X20181106Y-10755784D01*
X20238248Y-10755784D02*
X20238248Y-10555784D01*
X20238248Y-10555784D02*
X20219201Y-10584355D01*
X20219201Y-10584355D02*
X20200153Y-10603403D01*
X20200153Y-10603403D02*
X20181106Y-10612927D01*
X20485868Y-10755784D02*
X20371582Y-10755784D01*
X20428725Y-10755784D02*
X20428725Y-10555784D01*
X20428725Y-10555784D02*
X20409677Y-10584355D01*
X20409677Y-10584355D02*
X20390629Y-10603403D01*
X20390629Y-10603403D02*
X20371582Y-10612927D01*
X20600153Y-10641498D02*
X20581106Y-10631974D01*
X20581106Y-10631974D02*
X20571582Y-10622450D01*
X20571582Y-10622450D02*
X20562058Y-10603403D01*
X20562058Y-10603403D02*
X20562058Y-10593879D01*
X20562058Y-10593879D02*
X20571582Y-10574831D01*
X20571582Y-10574831D02*
X20581106Y-10565308D01*
X20581106Y-10565308D02*
X20600153Y-10555784D01*
X20600153Y-10555784D02*
X20638249Y-10555784D01*
X20638249Y-10555784D02*
X20657296Y-10565308D01*
X20657296Y-10565308D02*
X20666820Y-10574831D01*
X20666820Y-10574831D02*
X20676344Y-10593879D01*
X20676344Y-10593879D02*
X20676344Y-10603403D01*
X20676344Y-10603403D02*
X20666820Y-10622450D01*
X20666820Y-10622450D02*
X20657296Y-10631974D01*
X20657296Y-10631974D02*
X20638249Y-10641498D01*
X20638249Y-10641498D02*
X20600153Y-10641498D01*
X20600153Y-10641498D02*
X20581106Y-10651022D01*
X20581106Y-10651022D02*
X20571582Y-10660546D01*
X20571582Y-10660546D02*
X20562058Y-10679593D01*
X20562058Y-10679593D02*
X20562058Y-10717689D01*
X20562058Y-10717689D02*
X20571582Y-10736736D01*
X20571582Y-10736736D02*
X20581106Y-10746260D01*
X20581106Y-10746260D02*
X20600153Y-10755784D01*
X20600153Y-10755784D02*
X20638249Y-10755784D01*
X20638249Y-10755784D02*
X20657296Y-10746260D01*
X20657296Y-10746260D02*
X20666820Y-10736736D01*
X20666820Y-10736736D02*
X20676344Y-10717689D01*
X20676344Y-10717689D02*
X20676344Y-10679593D01*
X20676344Y-10679593D02*
X20666820Y-10660546D01*
X20666820Y-10660546D02*
X20657296Y-10651022D01*
X20657296Y-10651022D02*
X20638249Y-10641498D01*
X20752534Y-10555784D02*
X20752534Y-10593879D01*
X20828725Y-10555784D02*
X20828725Y-10593879D01*
X21123963Y-10831974D02*
X21114439Y-10822450D01*
X21114439Y-10822450D02*
X21095391Y-10793879D01*
X21095391Y-10793879D02*
X21085868Y-10774831D01*
X21085868Y-10774831D02*
X21076344Y-10746260D01*
X21076344Y-10746260D02*
X21066820Y-10698641D01*
X21066820Y-10698641D02*
X21066820Y-10660546D01*
X21066820Y-10660546D02*
X21076344Y-10612927D01*
X21076344Y-10612927D02*
X21085868Y-10584355D01*
X21085868Y-10584355D02*
X21095391Y-10565308D01*
X21095391Y-10565308D02*
X21114439Y-10536736D01*
X21114439Y-10536736D02*
X21123963Y-10527212D01*
X21304915Y-10755784D02*
X21190630Y-10755784D01*
X21247772Y-10755784D02*
X21247772Y-10555784D01*
X21247772Y-10555784D02*
X21228725Y-10584355D01*
X21228725Y-10584355D02*
X21209677Y-10603403D01*
X21209677Y-10603403D02*
X21190630Y-10612927D01*
X21476344Y-10555784D02*
X21438249Y-10555784D01*
X21438249Y-10555784D02*
X21419201Y-10565308D01*
X21419201Y-10565308D02*
X21409677Y-10574831D01*
X21409677Y-10574831D02*
X21390630Y-10603403D01*
X21390630Y-10603403D02*
X21381106Y-10641498D01*
X21381106Y-10641498D02*
X21381106Y-10717689D01*
X21381106Y-10717689D02*
X21390630Y-10736736D01*
X21390630Y-10736736D02*
X21400153Y-10746260D01*
X21400153Y-10746260D02*
X21419201Y-10755784D01*
X21419201Y-10755784D02*
X21457296Y-10755784D01*
X21457296Y-10755784D02*
X21476344Y-10746260D01*
X21476344Y-10746260D02*
X21485868Y-10736736D01*
X21485868Y-10736736D02*
X21495391Y-10717689D01*
X21495391Y-10717689D02*
X21495391Y-10670070D01*
X21495391Y-10670070D02*
X21485868Y-10651022D01*
X21485868Y-10651022D02*
X21476344Y-10641498D01*
X21476344Y-10641498D02*
X21457296Y-10631974D01*
X21457296Y-10631974D02*
X21419201Y-10631974D01*
X21419201Y-10631974D02*
X21400153Y-10641498D01*
X21400153Y-10641498D02*
X21390630Y-10651022D01*
X21390630Y-10651022D02*
X21381106Y-10670070D01*
X21562058Y-10555784D02*
X21695391Y-10555784D01*
X21695391Y-10555784D02*
X21609677Y-10755784D01*
X21923963Y-10755784D02*
X21923963Y-10555784D01*
X22009677Y-10755784D02*
X22009677Y-10651022D01*
X22009677Y-10651022D02*
X22000153Y-10631974D01*
X22000153Y-10631974D02*
X21981106Y-10622450D01*
X21981106Y-10622450D02*
X21952534Y-10622450D01*
X21952534Y-10622450D02*
X21933487Y-10631974D01*
X21933487Y-10631974D02*
X21923963Y-10641498D01*
X22133487Y-10755784D02*
X22114439Y-10746260D01*
X22114439Y-10746260D02*
X22104915Y-10736736D01*
X22104915Y-10736736D02*
X22095392Y-10717689D01*
X22095392Y-10717689D02*
X22095392Y-10660546D01*
X22095392Y-10660546D02*
X22104915Y-10641498D01*
X22104915Y-10641498D02*
X22114439Y-10631974D01*
X22114439Y-10631974D02*
X22133487Y-10622450D01*
X22133487Y-10622450D02*
X22162058Y-10622450D01*
X22162058Y-10622450D02*
X22181106Y-10631974D01*
X22181106Y-10631974D02*
X22190630Y-10641498D01*
X22190630Y-10641498D02*
X22200153Y-10660546D01*
X22200153Y-10660546D02*
X22200153Y-10717689D01*
X22200153Y-10717689D02*
X22190630Y-10736736D01*
X22190630Y-10736736D02*
X22181106Y-10746260D01*
X22181106Y-10746260D02*
X22162058Y-10755784D01*
X22162058Y-10755784D02*
X22133487Y-10755784D01*
X22314439Y-10755784D02*
X22295392Y-10746260D01*
X22295392Y-10746260D02*
X22285868Y-10727212D01*
X22285868Y-10727212D02*
X22285868Y-10555784D01*
X22466820Y-10746260D02*
X22447772Y-10755784D01*
X22447772Y-10755784D02*
X22409677Y-10755784D01*
X22409677Y-10755784D02*
X22390630Y-10746260D01*
X22390630Y-10746260D02*
X22381106Y-10727212D01*
X22381106Y-10727212D02*
X22381106Y-10651022D01*
X22381106Y-10651022D02*
X22390630Y-10631974D01*
X22390630Y-10631974D02*
X22409677Y-10622450D01*
X22409677Y-10622450D02*
X22447772Y-10622450D01*
X22447772Y-10622450D02*
X22466820Y-10631974D01*
X22466820Y-10631974D02*
X22476344Y-10651022D01*
X22476344Y-10651022D02*
X22476344Y-10670070D01*
X22476344Y-10670070D02*
X22381106Y-10689117D01*
X22552534Y-10746260D02*
X22571582Y-10755784D01*
X22571582Y-10755784D02*
X22609677Y-10755784D01*
X22609677Y-10755784D02*
X22628725Y-10746260D01*
X22628725Y-10746260D02*
X22638249Y-10727212D01*
X22638249Y-10727212D02*
X22638249Y-10717689D01*
X22638249Y-10717689D02*
X22628725Y-10698641D01*
X22628725Y-10698641D02*
X22609677Y-10689117D01*
X22609677Y-10689117D02*
X22581106Y-10689117D01*
X22581106Y-10689117D02*
X22562058Y-10679593D01*
X22562058Y-10679593D02*
X22552534Y-10660546D01*
X22552534Y-10660546D02*
X22552534Y-10651022D01*
X22552534Y-10651022D02*
X22562058Y-10631974D01*
X22562058Y-10631974D02*
X22581106Y-10622450D01*
X22581106Y-10622450D02*
X22609677Y-10622450D01*
X22609677Y-10622450D02*
X22628725Y-10631974D01*
X22704915Y-10831974D02*
X22714439Y-10822450D01*
X22714439Y-10822450D02*
X22733487Y-10793879D01*
X22733487Y-10793879D02*
X22743011Y-10774831D01*
X22743011Y-10774831D02*
X22752534Y-10746260D01*
X22752534Y-10746260D02*
X22762058Y-10698641D01*
X22762058Y-10698641D02*
X22762058Y-10660546D01*
X22762058Y-10660546D02*
X22752534Y-10612927D01*
X22752534Y-10612927D02*
X22743011Y-10584355D01*
X22743011Y-10584355D02*
X22733487Y-10565308D01*
X22733487Y-10565308D02*
X22714439Y-10536736D01*
X22714439Y-10536736D02*
X22704915Y-10527212D01*
D12*
X17548900Y-10928300D02*
G75*
G02*
X17518900Y-10928300I-15000J0D01*
G01*
X17518900Y-10928300D02*
G75*
G02*
X17548900Y-10928300I15000J0D01*
G01*
D11*
X17847772Y-10819784D02*
X17866820Y-10819784D01*
X17866820Y-10819784D02*
X17885867Y-10829308D01*
X17885867Y-10829308D02*
X17895391Y-10838831D01*
X17895391Y-10838831D02*
X17904915Y-10857879D01*
X17904915Y-10857879D02*
X17914439Y-10895974D01*
X17914439Y-10895974D02*
X17914439Y-10943593D01*
X17914439Y-10943593D02*
X17904915Y-10981689D01*
X17904915Y-10981689D02*
X17895391Y-11000736D01*
X17895391Y-11000736D02*
X17885867Y-11010260D01*
X17885867Y-11010260D02*
X17866820Y-11019784D01*
X17866820Y-11019784D02*
X17847772Y-11019784D01*
X17847772Y-11019784D02*
X17828724Y-11010260D01*
X17828724Y-11010260D02*
X17819201Y-11000736D01*
X17819201Y-11000736D02*
X17809677Y-10981689D01*
X17809677Y-10981689D02*
X17800153Y-10943593D01*
X17800153Y-10943593D02*
X17800153Y-10895974D01*
X17800153Y-10895974D02*
X17809677Y-10857879D01*
X17809677Y-10857879D02*
X17819201Y-10838831D01*
X17819201Y-10838831D02*
X17828724Y-10829308D01*
X17828724Y-10829308D02*
X17847772Y-10819784D01*
X18000153Y-11000736D02*
X18009677Y-11010260D01*
X18009677Y-11010260D02*
X18000153Y-11019784D01*
X18000153Y-11019784D02*
X17990629Y-11010260D01*
X17990629Y-11010260D02*
X18000153Y-11000736D01*
X18000153Y-11000736D02*
X18000153Y-11019784D01*
X18076344Y-10819784D02*
X18200153Y-10819784D01*
X18200153Y-10819784D02*
X18133486Y-10895974D01*
X18133486Y-10895974D02*
X18162058Y-10895974D01*
X18162058Y-10895974D02*
X18181105Y-10905498D01*
X18181105Y-10905498D02*
X18190629Y-10915022D01*
X18190629Y-10915022D02*
X18200153Y-10934070D01*
X18200153Y-10934070D02*
X18200153Y-10981689D01*
X18200153Y-10981689D02*
X18190629Y-11000736D01*
X18190629Y-11000736D02*
X18181105Y-11010260D01*
X18181105Y-11010260D02*
X18162058Y-11019784D01*
X18162058Y-11019784D02*
X18104915Y-11019784D01*
X18104915Y-11019784D02*
X18085867Y-11010260D01*
X18085867Y-11010260D02*
X18076344Y-11000736D01*
X18323963Y-10819784D02*
X18343010Y-10819784D01*
X18343010Y-10819784D02*
X18362058Y-10829308D01*
X18362058Y-10829308D02*
X18371582Y-10838831D01*
X18371582Y-10838831D02*
X18381105Y-10857879D01*
X18381105Y-10857879D02*
X18390629Y-10895974D01*
X18390629Y-10895974D02*
X18390629Y-10943593D01*
X18390629Y-10943593D02*
X18381105Y-10981689D01*
X18381105Y-10981689D02*
X18371582Y-11000736D01*
X18371582Y-11000736D02*
X18362058Y-11010260D01*
X18362058Y-11010260D02*
X18343010Y-11019784D01*
X18343010Y-11019784D02*
X18323963Y-11019784D01*
X18323963Y-11019784D02*
X18304915Y-11010260D01*
X18304915Y-11010260D02*
X18295391Y-11000736D01*
X18295391Y-11000736D02*
X18285867Y-10981689D01*
X18285867Y-10981689D02*
X18276344Y-10943593D01*
X18276344Y-10943593D02*
X18276344Y-10895974D01*
X18276344Y-10895974D02*
X18285867Y-10857879D01*
X18285867Y-10857879D02*
X18295391Y-10838831D01*
X18295391Y-10838831D02*
X18304915Y-10829308D01*
X18304915Y-10829308D02*
X18323963Y-10819784D01*
X18514439Y-10819784D02*
X18533486Y-10819784D01*
X18533486Y-10819784D02*
X18552534Y-10829308D01*
X18552534Y-10829308D02*
X18562058Y-10838831D01*
X18562058Y-10838831D02*
X18571582Y-10857879D01*
X18571582Y-10857879D02*
X18581105Y-10895974D01*
X18581105Y-10895974D02*
X18581105Y-10943593D01*
X18581105Y-10943593D02*
X18571582Y-10981689D01*
X18571582Y-10981689D02*
X18562058Y-11000736D01*
X18562058Y-11000736D02*
X18552534Y-11010260D01*
X18552534Y-11010260D02*
X18533486Y-11019784D01*
X18533486Y-11019784D02*
X18514439Y-11019784D01*
X18514439Y-11019784D02*
X18495391Y-11010260D01*
X18495391Y-11010260D02*
X18485867Y-11000736D01*
X18485867Y-11000736D02*
X18476344Y-10981689D01*
X18476344Y-10981689D02*
X18466820Y-10943593D01*
X18466820Y-10943593D02*
X18466820Y-10895974D01*
X18466820Y-10895974D02*
X18476344Y-10857879D01*
X18476344Y-10857879D02*
X18485867Y-10838831D01*
X18485867Y-10838831D02*
X18495391Y-10829308D01*
X18495391Y-10829308D02*
X18514439Y-10819784D01*
X18666820Y-11019784D02*
X18666820Y-10886450D01*
X18666820Y-10905498D02*
X18676344Y-10895974D01*
X18676344Y-10895974D02*
X18695391Y-10886450D01*
X18695391Y-10886450D02*
X18723963Y-10886450D01*
X18723963Y-10886450D02*
X18743010Y-10895974D01*
X18743010Y-10895974D02*
X18752534Y-10915022D01*
X18752534Y-10915022D02*
X18752534Y-11019784D01*
X18752534Y-10915022D02*
X18762058Y-10895974D01*
X18762058Y-10895974D02*
X18781105Y-10886450D01*
X18781105Y-10886450D02*
X18809677Y-10886450D01*
X18809677Y-10886450D02*
X18828725Y-10895974D01*
X18828725Y-10895974D02*
X18838248Y-10915022D01*
X18838248Y-10915022D02*
X18838248Y-11019784D01*
X18933486Y-11019784D02*
X18933486Y-10886450D01*
X18933486Y-10905498D02*
X18943010Y-10895974D01*
X18943010Y-10895974D02*
X18962058Y-10886450D01*
X18962058Y-10886450D02*
X18990629Y-10886450D01*
X18990629Y-10886450D02*
X19009677Y-10895974D01*
X19009677Y-10895974D02*
X19019201Y-10915022D01*
X19019201Y-10915022D02*
X19019201Y-11019784D01*
X19019201Y-10915022D02*
X19028725Y-10895974D01*
X19028725Y-10895974D02*
X19047772Y-10886450D01*
X19047772Y-10886450D02*
X19076344Y-10886450D01*
X19076344Y-10886450D02*
X19095391Y-10895974D01*
X19095391Y-10895974D02*
X19104915Y-10915022D01*
X19104915Y-10915022D02*
X19104915Y-11019784D01*
X19495391Y-10810260D02*
X19323963Y-11067403D01*
X19752534Y-10819784D02*
X19771582Y-10819784D01*
X19771582Y-10819784D02*
X19790629Y-10829308D01*
X19790629Y-10829308D02*
X19800153Y-10838831D01*
X19800153Y-10838831D02*
X19809677Y-10857879D01*
X19809677Y-10857879D02*
X19819201Y-10895974D01*
X19819201Y-10895974D02*
X19819201Y-10943593D01*
X19819201Y-10943593D02*
X19809677Y-10981689D01*
X19809677Y-10981689D02*
X19800153Y-11000736D01*
X19800153Y-11000736D02*
X19790629Y-11010260D01*
X19790629Y-11010260D02*
X19771582Y-11019784D01*
X19771582Y-11019784D02*
X19752534Y-11019784D01*
X19752534Y-11019784D02*
X19733487Y-11010260D01*
X19733487Y-11010260D02*
X19723963Y-11000736D01*
X19723963Y-11000736D02*
X19714439Y-10981689D01*
X19714439Y-10981689D02*
X19704915Y-10943593D01*
X19704915Y-10943593D02*
X19704915Y-10895974D01*
X19704915Y-10895974D02*
X19714439Y-10857879D01*
X19714439Y-10857879D02*
X19723963Y-10838831D01*
X19723963Y-10838831D02*
X19733487Y-10829308D01*
X19733487Y-10829308D02*
X19752534Y-10819784D01*
X19904915Y-11000736D02*
X19914439Y-11010260D01*
X19914439Y-11010260D02*
X19904915Y-11019784D01*
X19904915Y-11019784D02*
X19895391Y-11010260D01*
X19895391Y-11010260D02*
X19904915Y-11000736D01*
X19904915Y-11000736D02*
X19904915Y-11019784D01*
X20038248Y-10819784D02*
X20057296Y-10819784D01*
X20057296Y-10819784D02*
X20076344Y-10829308D01*
X20076344Y-10829308D02*
X20085868Y-10838831D01*
X20085868Y-10838831D02*
X20095391Y-10857879D01*
X20095391Y-10857879D02*
X20104915Y-10895974D01*
X20104915Y-10895974D02*
X20104915Y-10943593D01*
X20104915Y-10943593D02*
X20095391Y-10981689D01*
X20095391Y-10981689D02*
X20085868Y-11000736D01*
X20085868Y-11000736D02*
X20076344Y-11010260D01*
X20076344Y-11010260D02*
X20057296Y-11019784D01*
X20057296Y-11019784D02*
X20038248Y-11019784D01*
X20038248Y-11019784D02*
X20019201Y-11010260D01*
X20019201Y-11010260D02*
X20009677Y-11000736D01*
X20009677Y-11000736D02*
X20000153Y-10981689D01*
X20000153Y-10981689D02*
X19990629Y-10943593D01*
X19990629Y-10943593D02*
X19990629Y-10895974D01*
X19990629Y-10895974D02*
X20000153Y-10857879D01*
X20000153Y-10857879D02*
X20009677Y-10838831D01*
X20009677Y-10838831D02*
X20019201Y-10829308D01*
X20019201Y-10829308D02*
X20038248Y-10819784D01*
X20295391Y-11019784D02*
X20181106Y-11019784D01*
X20238248Y-11019784D02*
X20238248Y-10819784D01*
X20238248Y-10819784D02*
X20219201Y-10848355D01*
X20219201Y-10848355D02*
X20200153Y-10867403D01*
X20200153Y-10867403D02*
X20181106Y-10876927D01*
X20485868Y-11019784D02*
X20371582Y-11019784D01*
X20428725Y-11019784D02*
X20428725Y-10819784D01*
X20428725Y-10819784D02*
X20409677Y-10848355D01*
X20409677Y-10848355D02*
X20390629Y-10867403D01*
X20390629Y-10867403D02*
X20371582Y-10876927D01*
X20600153Y-10905498D02*
X20581106Y-10895974D01*
X20581106Y-10895974D02*
X20571582Y-10886450D01*
X20571582Y-10886450D02*
X20562058Y-10867403D01*
X20562058Y-10867403D02*
X20562058Y-10857879D01*
X20562058Y-10857879D02*
X20571582Y-10838831D01*
X20571582Y-10838831D02*
X20581106Y-10829308D01*
X20581106Y-10829308D02*
X20600153Y-10819784D01*
X20600153Y-10819784D02*
X20638249Y-10819784D01*
X20638249Y-10819784D02*
X20657296Y-10829308D01*
X20657296Y-10829308D02*
X20666820Y-10838831D01*
X20666820Y-10838831D02*
X20676344Y-10857879D01*
X20676344Y-10857879D02*
X20676344Y-10867403D01*
X20676344Y-10867403D02*
X20666820Y-10886450D01*
X20666820Y-10886450D02*
X20657296Y-10895974D01*
X20657296Y-10895974D02*
X20638249Y-10905498D01*
X20638249Y-10905498D02*
X20600153Y-10905498D01*
X20600153Y-10905498D02*
X20581106Y-10915022D01*
X20581106Y-10915022D02*
X20571582Y-10924546D01*
X20571582Y-10924546D02*
X20562058Y-10943593D01*
X20562058Y-10943593D02*
X20562058Y-10981689D01*
X20562058Y-10981689D02*
X20571582Y-11000736D01*
X20571582Y-11000736D02*
X20581106Y-11010260D01*
X20581106Y-11010260D02*
X20600153Y-11019784D01*
X20600153Y-11019784D02*
X20638249Y-11019784D01*
X20638249Y-11019784D02*
X20657296Y-11010260D01*
X20657296Y-11010260D02*
X20666820Y-11000736D01*
X20666820Y-11000736D02*
X20676344Y-10981689D01*
X20676344Y-10981689D02*
X20676344Y-10943593D01*
X20676344Y-10943593D02*
X20666820Y-10924546D01*
X20666820Y-10924546D02*
X20657296Y-10915022D01*
X20657296Y-10915022D02*
X20638249Y-10905498D01*
X20752534Y-10819784D02*
X20752534Y-10857879D01*
X20828725Y-10819784D02*
X20828725Y-10857879D01*
X21123963Y-11095974D02*
X21114439Y-11086450D01*
X21114439Y-11086450D02*
X21095391Y-11057879D01*
X21095391Y-11057879D02*
X21085868Y-11038831D01*
X21085868Y-11038831D02*
X21076344Y-11010260D01*
X21076344Y-11010260D02*
X21066820Y-10962641D01*
X21066820Y-10962641D02*
X21066820Y-10924546D01*
X21066820Y-10924546D02*
X21076344Y-10876927D01*
X21076344Y-10876927D02*
X21085868Y-10848355D01*
X21085868Y-10848355D02*
X21095391Y-10829308D01*
X21095391Y-10829308D02*
X21114439Y-10800736D01*
X21114439Y-10800736D02*
X21123963Y-10791212D01*
X21190630Y-10838831D02*
X21200153Y-10829308D01*
X21200153Y-10829308D02*
X21219201Y-10819784D01*
X21219201Y-10819784D02*
X21266820Y-10819784D01*
X21266820Y-10819784D02*
X21285868Y-10829308D01*
X21285868Y-10829308D02*
X21295391Y-10838831D01*
X21295391Y-10838831D02*
X21304915Y-10857879D01*
X21304915Y-10857879D02*
X21304915Y-10876927D01*
X21304915Y-10876927D02*
X21295391Y-10905498D01*
X21295391Y-10905498D02*
X21181106Y-11019784D01*
X21181106Y-11019784D02*
X21304915Y-11019784D01*
X21371582Y-10819784D02*
X21495391Y-10819784D01*
X21495391Y-10819784D02*
X21428725Y-10895974D01*
X21428725Y-10895974D02*
X21457296Y-10895974D01*
X21457296Y-10895974D02*
X21476344Y-10905498D01*
X21476344Y-10905498D02*
X21485868Y-10915022D01*
X21485868Y-10915022D02*
X21495391Y-10934070D01*
X21495391Y-10934070D02*
X21495391Y-10981689D01*
X21495391Y-10981689D02*
X21485868Y-11000736D01*
X21485868Y-11000736D02*
X21476344Y-11010260D01*
X21476344Y-11010260D02*
X21457296Y-11019784D01*
X21457296Y-11019784D02*
X21400153Y-11019784D01*
X21400153Y-11019784D02*
X21381106Y-11010260D01*
X21381106Y-11010260D02*
X21371582Y-11000736D01*
X21733487Y-11019784D02*
X21733487Y-10819784D01*
X21819201Y-11019784D02*
X21819201Y-10915022D01*
X21819201Y-10915022D02*
X21809677Y-10895974D01*
X21809677Y-10895974D02*
X21790630Y-10886450D01*
X21790630Y-10886450D02*
X21762058Y-10886450D01*
X21762058Y-10886450D02*
X21743011Y-10895974D01*
X21743011Y-10895974D02*
X21733487Y-10905498D01*
X21943011Y-11019784D02*
X21923963Y-11010260D01*
X21923963Y-11010260D02*
X21914439Y-11000736D01*
X21914439Y-11000736D02*
X21904915Y-10981689D01*
X21904915Y-10981689D02*
X21904915Y-10924546D01*
X21904915Y-10924546D02*
X21914439Y-10905498D01*
X21914439Y-10905498D02*
X21923963Y-10895974D01*
X21923963Y-10895974D02*
X21943011Y-10886450D01*
X21943011Y-10886450D02*
X21971582Y-10886450D01*
X21971582Y-10886450D02*
X21990630Y-10895974D01*
X21990630Y-10895974D02*
X22000153Y-10905498D01*
X22000153Y-10905498D02*
X22009677Y-10924546D01*
X22009677Y-10924546D02*
X22009677Y-10981689D01*
X22009677Y-10981689D02*
X22000153Y-11000736D01*
X22000153Y-11000736D02*
X21990630Y-11010260D01*
X21990630Y-11010260D02*
X21971582Y-11019784D01*
X21971582Y-11019784D02*
X21943011Y-11019784D01*
X22123963Y-11019784D02*
X22104915Y-11010260D01*
X22104915Y-11010260D02*
X22095392Y-10991212D01*
X22095392Y-10991212D02*
X22095392Y-10819784D01*
X22276344Y-11010260D02*
X22257296Y-11019784D01*
X22257296Y-11019784D02*
X22219201Y-11019784D01*
X22219201Y-11019784D02*
X22200153Y-11010260D01*
X22200153Y-11010260D02*
X22190630Y-10991212D01*
X22190630Y-10991212D02*
X22190630Y-10915022D01*
X22190630Y-10915022D02*
X22200153Y-10895974D01*
X22200153Y-10895974D02*
X22219201Y-10886450D01*
X22219201Y-10886450D02*
X22257296Y-10886450D01*
X22257296Y-10886450D02*
X22276344Y-10895974D01*
X22276344Y-10895974D02*
X22285868Y-10915022D01*
X22285868Y-10915022D02*
X22285868Y-10934070D01*
X22285868Y-10934070D02*
X22190630Y-10953117D01*
X22362058Y-11010260D02*
X22381106Y-11019784D01*
X22381106Y-11019784D02*
X22419201Y-11019784D01*
X22419201Y-11019784D02*
X22438249Y-11010260D01*
X22438249Y-11010260D02*
X22447772Y-10991212D01*
X22447772Y-10991212D02*
X22447772Y-10981689D01*
X22447772Y-10981689D02*
X22438249Y-10962641D01*
X22438249Y-10962641D02*
X22419201Y-10953117D01*
X22419201Y-10953117D02*
X22390630Y-10953117D01*
X22390630Y-10953117D02*
X22371582Y-10943593D01*
X22371582Y-10943593D02*
X22362058Y-10924546D01*
X22362058Y-10924546D02*
X22362058Y-10915022D01*
X22362058Y-10915022D02*
X22371582Y-10895974D01*
X22371582Y-10895974D02*
X22390630Y-10886450D01*
X22390630Y-10886450D02*
X22419201Y-10886450D01*
X22419201Y-10886450D02*
X22438249Y-10895974D01*
X22514439Y-11095974D02*
X22523963Y-11086450D01*
X22523963Y-11086450D02*
X22543011Y-11057879D01*
X22543011Y-11057879D02*
X22552534Y-11038831D01*
X22552534Y-11038831D02*
X22562058Y-11010260D01*
X22562058Y-11010260D02*
X22571582Y-10962641D01*
X22571582Y-10962641D02*
X22571582Y-10924546D01*
X22571582Y-10924546D02*
X22562058Y-10876927D01*
X22562058Y-10876927D02*
X22552534Y-10848355D01*
X22552534Y-10848355D02*
X22543011Y-10829308D01*
X22543011Y-10829308D02*
X22523963Y-10800736D01*
X22523963Y-10800736D02*
X22514439Y-10791212D01*
D12*
X17498900Y-11142300D02*
X17498900Y-11242300D01*
X17448900Y-11192300D02*
X17548900Y-11192300D01*
D11*
X17914439Y-11283784D02*
X17800153Y-11283784D01*
X17857296Y-11283784D02*
X17857296Y-11083784D01*
X17857296Y-11083784D02*
X17838248Y-11112355D01*
X17838248Y-11112355D02*
X17819201Y-11131403D01*
X17819201Y-11131403D02*
X17800153Y-11140927D01*
X18000153Y-11264736D02*
X18009677Y-11274260D01*
X18009677Y-11274260D02*
X18000153Y-11283784D01*
X18000153Y-11283784D02*
X17990629Y-11274260D01*
X17990629Y-11274260D02*
X18000153Y-11264736D01*
X18000153Y-11264736D02*
X18000153Y-11283784D01*
X18133486Y-11083784D02*
X18152534Y-11083784D01*
X18152534Y-11083784D02*
X18171582Y-11093308D01*
X18171582Y-11093308D02*
X18181105Y-11102831D01*
X18181105Y-11102831D02*
X18190629Y-11121879D01*
X18190629Y-11121879D02*
X18200153Y-11159974D01*
X18200153Y-11159974D02*
X18200153Y-11207593D01*
X18200153Y-11207593D02*
X18190629Y-11245688D01*
X18190629Y-11245688D02*
X18181105Y-11264736D01*
X18181105Y-11264736D02*
X18171582Y-11274260D01*
X18171582Y-11274260D02*
X18152534Y-11283784D01*
X18152534Y-11283784D02*
X18133486Y-11283784D01*
X18133486Y-11283784D02*
X18114439Y-11274260D01*
X18114439Y-11274260D02*
X18104915Y-11264736D01*
X18104915Y-11264736D02*
X18095391Y-11245688D01*
X18095391Y-11245688D02*
X18085867Y-11207593D01*
X18085867Y-11207593D02*
X18085867Y-11159974D01*
X18085867Y-11159974D02*
X18095391Y-11121879D01*
X18095391Y-11121879D02*
X18104915Y-11102831D01*
X18104915Y-11102831D02*
X18114439Y-11093308D01*
X18114439Y-11093308D02*
X18133486Y-11083784D01*
X18323963Y-11083784D02*
X18343010Y-11083784D01*
X18343010Y-11083784D02*
X18362058Y-11093308D01*
X18362058Y-11093308D02*
X18371582Y-11102831D01*
X18371582Y-11102831D02*
X18381105Y-11121879D01*
X18381105Y-11121879D02*
X18390629Y-11159974D01*
X18390629Y-11159974D02*
X18390629Y-11207593D01*
X18390629Y-11207593D02*
X18381105Y-11245688D01*
X18381105Y-11245688D02*
X18371582Y-11264736D01*
X18371582Y-11264736D02*
X18362058Y-11274260D01*
X18362058Y-11274260D02*
X18343010Y-11283784D01*
X18343010Y-11283784D02*
X18323963Y-11283784D01*
X18323963Y-11283784D02*
X18304915Y-11274260D01*
X18304915Y-11274260D02*
X18295391Y-11264736D01*
X18295391Y-11264736D02*
X18285867Y-11245688D01*
X18285867Y-11245688D02*
X18276344Y-11207593D01*
X18276344Y-11207593D02*
X18276344Y-11159974D01*
X18276344Y-11159974D02*
X18285867Y-11121879D01*
X18285867Y-11121879D02*
X18295391Y-11102831D01*
X18295391Y-11102831D02*
X18304915Y-11093308D01*
X18304915Y-11093308D02*
X18323963Y-11083784D01*
X18514439Y-11083784D02*
X18533486Y-11083784D01*
X18533486Y-11083784D02*
X18552534Y-11093308D01*
X18552534Y-11093308D02*
X18562058Y-11102831D01*
X18562058Y-11102831D02*
X18571582Y-11121879D01*
X18571582Y-11121879D02*
X18581105Y-11159974D01*
X18581105Y-11159974D02*
X18581105Y-11207593D01*
X18581105Y-11207593D02*
X18571582Y-11245688D01*
X18571582Y-11245688D02*
X18562058Y-11264736D01*
X18562058Y-11264736D02*
X18552534Y-11274260D01*
X18552534Y-11274260D02*
X18533486Y-11283784D01*
X18533486Y-11283784D02*
X18514439Y-11283784D01*
X18514439Y-11283784D02*
X18495391Y-11274260D01*
X18495391Y-11274260D02*
X18485867Y-11264736D01*
X18485867Y-11264736D02*
X18476344Y-11245688D01*
X18476344Y-11245688D02*
X18466820Y-11207593D01*
X18466820Y-11207593D02*
X18466820Y-11159974D01*
X18466820Y-11159974D02*
X18476344Y-11121879D01*
X18476344Y-11121879D02*
X18485867Y-11102831D01*
X18485867Y-11102831D02*
X18495391Y-11093308D01*
X18495391Y-11093308D02*
X18514439Y-11083784D01*
X18666820Y-11283784D02*
X18666820Y-11150450D01*
X18666820Y-11169498D02*
X18676344Y-11159974D01*
X18676344Y-11159974D02*
X18695391Y-11150450D01*
X18695391Y-11150450D02*
X18723963Y-11150450D01*
X18723963Y-11150450D02*
X18743010Y-11159974D01*
X18743010Y-11159974D02*
X18752534Y-11179022D01*
X18752534Y-11179022D02*
X18752534Y-11283784D01*
X18752534Y-11179022D02*
X18762058Y-11159974D01*
X18762058Y-11159974D02*
X18781105Y-11150450D01*
X18781105Y-11150450D02*
X18809677Y-11150450D01*
X18809677Y-11150450D02*
X18828725Y-11159974D01*
X18828725Y-11159974D02*
X18838248Y-11179022D01*
X18838248Y-11179022D02*
X18838248Y-11283784D01*
X18933486Y-11283784D02*
X18933486Y-11150450D01*
X18933486Y-11169498D02*
X18943010Y-11159974D01*
X18943010Y-11159974D02*
X18962058Y-11150450D01*
X18962058Y-11150450D02*
X18990629Y-11150450D01*
X18990629Y-11150450D02*
X19009677Y-11159974D01*
X19009677Y-11159974D02*
X19019201Y-11179022D01*
X19019201Y-11179022D02*
X19019201Y-11283784D01*
X19019201Y-11179022D02*
X19028725Y-11159974D01*
X19028725Y-11159974D02*
X19047772Y-11150450D01*
X19047772Y-11150450D02*
X19076344Y-11150450D01*
X19076344Y-11150450D02*
X19095391Y-11159974D01*
X19095391Y-11159974D02*
X19104915Y-11179022D01*
X19104915Y-11179022D02*
X19104915Y-11283784D01*
X19495391Y-11074260D02*
X19323963Y-11331403D01*
X19752534Y-11083784D02*
X19771582Y-11083784D01*
X19771582Y-11083784D02*
X19790629Y-11093308D01*
X19790629Y-11093308D02*
X19800153Y-11102831D01*
X19800153Y-11102831D02*
X19809677Y-11121879D01*
X19809677Y-11121879D02*
X19819201Y-11159974D01*
X19819201Y-11159974D02*
X19819201Y-11207593D01*
X19819201Y-11207593D02*
X19809677Y-11245688D01*
X19809677Y-11245688D02*
X19800153Y-11264736D01*
X19800153Y-11264736D02*
X19790629Y-11274260D01*
X19790629Y-11274260D02*
X19771582Y-11283784D01*
X19771582Y-11283784D02*
X19752534Y-11283784D01*
X19752534Y-11283784D02*
X19733487Y-11274260D01*
X19733487Y-11274260D02*
X19723963Y-11264736D01*
X19723963Y-11264736D02*
X19714439Y-11245688D01*
X19714439Y-11245688D02*
X19704915Y-11207593D01*
X19704915Y-11207593D02*
X19704915Y-11159974D01*
X19704915Y-11159974D02*
X19714439Y-11121879D01*
X19714439Y-11121879D02*
X19723963Y-11102831D01*
X19723963Y-11102831D02*
X19733487Y-11093308D01*
X19733487Y-11093308D02*
X19752534Y-11083784D01*
X19904915Y-11264736D02*
X19914439Y-11274260D01*
X19914439Y-11274260D02*
X19904915Y-11283784D01*
X19904915Y-11283784D02*
X19895391Y-11274260D01*
X19895391Y-11274260D02*
X19904915Y-11264736D01*
X19904915Y-11264736D02*
X19904915Y-11283784D01*
X20038248Y-11083784D02*
X20057296Y-11083784D01*
X20057296Y-11083784D02*
X20076344Y-11093308D01*
X20076344Y-11093308D02*
X20085868Y-11102831D01*
X20085868Y-11102831D02*
X20095391Y-11121879D01*
X20095391Y-11121879D02*
X20104915Y-11159974D01*
X20104915Y-11159974D02*
X20104915Y-11207593D01*
X20104915Y-11207593D02*
X20095391Y-11245688D01*
X20095391Y-11245688D02*
X20085868Y-11264736D01*
X20085868Y-11264736D02*
X20076344Y-11274260D01*
X20076344Y-11274260D02*
X20057296Y-11283784D01*
X20057296Y-11283784D02*
X20038248Y-11283784D01*
X20038248Y-11283784D02*
X20019201Y-11274260D01*
X20019201Y-11274260D02*
X20009677Y-11264736D01*
X20009677Y-11264736D02*
X20000153Y-11245688D01*
X20000153Y-11245688D02*
X19990629Y-11207593D01*
X19990629Y-11207593D02*
X19990629Y-11159974D01*
X19990629Y-11159974D02*
X20000153Y-11121879D01*
X20000153Y-11121879D02*
X20009677Y-11102831D01*
X20009677Y-11102831D02*
X20019201Y-11093308D01*
X20019201Y-11093308D02*
X20038248Y-11083784D01*
X20171582Y-11083784D02*
X20295391Y-11083784D01*
X20295391Y-11083784D02*
X20228725Y-11159974D01*
X20228725Y-11159974D02*
X20257296Y-11159974D01*
X20257296Y-11159974D02*
X20276344Y-11169498D01*
X20276344Y-11169498D02*
X20285868Y-11179022D01*
X20285868Y-11179022D02*
X20295391Y-11198069D01*
X20295391Y-11198069D02*
X20295391Y-11245688D01*
X20295391Y-11245688D02*
X20285868Y-11264736D01*
X20285868Y-11264736D02*
X20276344Y-11274260D01*
X20276344Y-11274260D02*
X20257296Y-11283784D01*
X20257296Y-11283784D02*
X20200153Y-11283784D01*
X20200153Y-11283784D02*
X20181106Y-11274260D01*
X20181106Y-11274260D02*
X20171582Y-11264736D01*
X20390629Y-11283784D02*
X20428725Y-11283784D01*
X20428725Y-11283784D02*
X20447772Y-11274260D01*
X20447772Y-11274260D02*
X20457296Y-11264736D01*
X20457296Y-11264736D02*
X20476344Y-11236165D01*
X20476344Y-11236165D02*
X20485868Y-11198069D01*
X20485868Y-11198069D02*
X20485868Y-11121879D01*
X20485868Y-11121879D02*
X20476344Y-11102831D01*
X20476344Y-11102831D02*
X20466820Y-11093308D01*
X20466820Y-11093308D02*
X20447772Y-11083784D01*
X20447772Y-11083784D02*
X20409677Y-11083784D01*
X20409677Y-11083784D02*
X20390629Y-11093308D01*
X20390629Y-11093308D02*
X20381106Y-11102831D01*
X20381106Y-11102831D02*
X20371582Y-11121879D01*
X20371582Y-11121879D02*
X20371582Y-11169498D01*
X20371582Y-11169498D02*
X20381106Y-11188546D01*
X20381106Y-11188546D02*
X20390629Y-11198069D01*
X20390629Y-11198069D02*
X20409677Y-11207593D01*
X20409677Y-11207593D02*
X20447772Y-11207593D01*
X20447772Y-11207593D02*
X20466820Y-11198069D01*
X20466820Y-11198069D02*
X20476344Y-11188546D01*
X20476344Y-11188546D02*
X20485868Y-11169498D01*
X20657296Y-11150450D02*
X20657296Y-11283784D01*
X20609677Y-11074260D02*
X20562058Y-11217117D01*
X20562058Y-11217117D02*
X20685868Y-11217117D01*
X20752534Y-11083784D02*
X20752534Y-11121879D01*
X20828725Y-11083784D02*
X20828725Y-11121879D01*
X21123963Y-11359974D02*
X21114439Y-11350450D01*
X21114439Y-11350450D02*
X21095391Y-11321879D01*
X21095391Y-11321879D02*
X21085868Y-11302831D01*
X21085868Y-11302831D02*
X21076344Y-11274260D01*
X21076344Y-11274260D02*
X21066820Y-11226641D01*
X21066820Y-11226641D02*
X21066820Y-11188546D01*
X21066820Y-11188546D02*
X21076344Y-11140927D01*
X21076344Y-11140927D02*
X21085868Y-11112355D01*
X21085868Y-11112355D02*
X21095391Y-11093308D01*
X21095391Y-11093308D02*
X21114439Y-11064736D01*
X21114439Y-11064736D02*
X21123963Y-11055212D01*
X21238249Y-11083784D02*
X21257296Y-11083784D01*
X21257296Y-11083784D02*
X21276344Y-11093308D01*
X21276344Y-11093308D02*
X21285868Y-11102831D01*
X21285868Y-11102831D02*
X21295391Y-11121879D01*
X21295391Y-11121879D02*
X21304915Y-11159974D01*
X21304915Y-11159974D02*
X21304915Y-11207593D01*
X21304915Y-11207593D02*
X21295391Y-11245688D01*
X21295391Y-11245688D02*
X21285868Y-11264736D01*
X21285868Y-11264736D02*
X21276344Y-11274260D01*
X21276344Y-11274260D02*
X21257296Y-11283784D01*
X21257296Y-11283784D02*
X21238249Y-11283784D01*
X21238249Y-11283784D02*
X21219201Y-11274260D01*
X21219201Y-11274260D02*
X21209677Y-11264736D01*
X21209677Y-11264736D02*
X21200153Y-11245688D01*
X21200153Y-11245688D02*
X21190630Y-11207593D01*
X21190630Y-11207593D02*
X21190630Y-11159974D01*
X21190630Y-11159974D02*
X21200153Y-11121879D01*
X21200153Y-11121879D02*
X21209677Y-11102831D01*
X21209677Y-11102831D02*
X21219201Y-11093308D01*
X21219201Y-11093308D02*
X21238249Y-11083784D01*
X21543011Y-11283784D02*
X21543011Y-11083784D01*
X21628725Y-11283784D02*
X21628725Y-11179022D01*
X21628725Y-11179022D02*
X21619201Y-11159974D01*
X21619201Y-11159974D02*
X21600153Y-11150450D01*
X21600153Y-11150450D02*
X21571582Y-11150450D01*
X21571582Y-11150450D02*
X21552534Y-11159974D01*
X21552534Y-11159974D02*
X21543011Y-11169498D01*
X21752534Y-11283784D02*
X21733487Y-11274260D01*
X21733487Y-11274260D02*
X21723963Y-11264736D01*
X21723963Y-11264736D02*
X21714439Y-11245688D01*
X21714439Y-11245688D02*
X21714439Y-11188546D01*
X21714439Y-11188546D02*
X21723963Y-11169498D01*
X21723963Y-11169498D02*
X21733487Y-11159974D01*
X21733487Y-11159974D02*
X21752534Y-11150450D01*
X21752534Y-11150450D02*
X21781106Y-11150450D01*
X21781106Y-11150450D02*
X21800153Y-11159974D01*
X21800153Y-11159974D02*
X21809677Y-11169498D01*
X21809677Y-11169498D02*
X21819201Y-11188546D01*
X21819201Y-11188546D02*
X21819201Y-11245688D01*
X21819201Y-11245688D02*
X21809677Y-11264736D01*
X21809677Y-11264736D02*
X21800153Y-11274260D01*
X21800153Y-11274260D02*
X21781106Y-11283784D01*
X21781106Y-11283784D02*
X21752534Y-11283784D01*
X21933487Y-11283784D02*
X21914439Y-11274260D01*
X21914439Y-11274260D02*
X21904915Y-11255212D01*
X21904915Y-11255212D02*
X21904915Y-11083784D01*
X22085868Y-11274260D02*
X22066820Y-11283784D01*
X22066820Y-11283784D02*
X22028725Y-11283784D01*
X22028725Y-11283784D02*
X22009677Y-11274260D01*
X22009677Y-11274260D02*
X22000153Y-11255212D01*
X22000153Y-11255212D02*
X22000153Y-11179022D01*
X22000153Y-11179022D02*
X22009677Y-11159974D01*
X22009677Y-11159974D02*
X22028725Y-11150450D01*
X22028725Y-11150450D02*
X22066820Y-11150450D01*
X22066820Y-11150450D02*
X22085868Y-11159974D01*
X22085868Y-11159974D02*
X22095392Y-11179022D01*
X22095392Y-11179022D02*
X22095392Y-11198069D01*
X22095392Y-11198069D02*
X22000153Y-11217117D01*
X22171582Y-11274260D02*
X22190630Y-11283784D01*
X22190630Y-11283784D02*
X22228725Y-11283784D01*
X22228725Y-11283784D02*
X22247773Y-11274260D01*
X22247773Y-11274260D02*
X22257296Y-11255212D01*
X22257296Y-11255212D02*
X22257296Y-11245688D01*
X22257296Y-11245688D02*
X22247773Y-11226641D01*
X22247773Y-11226641D02*
X22228725Y-11217117D01*
X22228725Y-11217117D02*
X22200153Y-11217117D01*
X22200153Y-11217117D02*
X22181106Y-11207593D01*
X22181106Y-11207593D02*
X22171582Y-11188546D01*
X22171582Y-11188546D02*
X22171582Y-11179022D01*
X22171582Y-11179022D02*
X22181106Y-11159974D01*
X22181106Y-11159974D02*
X22200153Y-11150450D01*
X22200153Y-11150450D02*
X22228725Y-11150450D01*
X22228725Y-11150450D02*
X22247773Y-11159974D01*
X22495392Y-11207593D02*
X22647773Y-11207593D01*
X22571582Y-11283784D02*
X22571582Y-11131403D01*
X22876344Y-11083784D02*
X23000153Y-11083784D01*
X23000153Y-11083784D02*
X22933487Y-11159974D01*
X22933487Y-11159974D02*
X22962058Y-11159974D01*
X22962058Y-11159974D02*
X22981106Y-11169498D01*
X22981106Y-11169498D02*
X22990630Y-11179022D01*
X22990630Y-11179022D02*
X23000153Y-11198069D01*
X23000153Y-11198069D02*
X23000153Y-11245688D01*
X23000153Y-11245688D02*
X22990630Y-11264736D01*
X22990630Y-11264736D02*
X22981106Y-11274260D01*
X22981106Y-11274260D02*
X22962058Y-11283784D01*
X22962058Y-11283784D02*
X22904915Y-11283784D01*
X22904915Y-11283784D02*
X22885868Y-11274260D01*
X22885868Y-11274260D02*
X22876344Y-11264736D01*
X23228725Y-11274260D02*
X23247773Y-11283784D01*
X23247773Y-11283784D02*
X23285868Y-11283784D01*
X23285868Y-11283784D02*
X23304915Y-11274260D01*
X23304915Y-11274260D02*
X23314439Y-11255212D01*
X23314439Y-11255212D02*
X23314439Y-11245688D01*
X23314439Y-11245688D02*
X23304915Y-11226641D01*
X23304915Y-11226641D02*
X23285868Y-11217117D01*
X23285868Y-11217117D02*
X23257296Y-11217117D01*
X23257296Y-11217117D02*
X23238249Y-11207593D01*
X23238249Y-11207593D02*
X23228725Y-11188546D01*
X23228725Y-11188546D02*
X23228725Y-11179022D01*
X23228725Y-11179022D02*
X23238249Y-11159974D01*
X23238249Y-11159974D02*
X23257296Y-11150450D01*
X23257296Y-11150450D02*
X23285868Y-11150450D01*
X23285868Y-11150450D02*
X23304915Y-11159974D01*
X23428725Y-11283784D02*
X23409677Y-11274260D01*
X23409677Y-11274260D02*
X23400154Y-11255212D01*
X23400154Y-11255212D02*
X23400154Y-11083784D01*
X23533487Y-11283784D02*
X23514439Y-11274260D01*
X23514439Y-11274260D02*
X23504915Y-11264736D01*
X23504915Y-11264736D02*
X23495392Y-11245688D01*
X23495392Y-11245688D02*
X23495392Y-11188546D01*
X23495392Y-11188546D02*
X23504915Y-11169498D01*
X23504915Y-11169498D02*
X23514439Y-11159974D01*
X23514439Y-11159974D02*
X23533487Y-11150450D01*
X23533487Y-11150450D02*
X23562058Y-11150450D01*
X23562058Y-11150450D02*
X23581106Y-11159974D01*
X23581106Y-11159974D02*
X23590630Y-11169498D01*
X23590630Y-11169498D02*
X23600154Y-11188546D01*
X23600154Y-11188546D02*
X23600154Y-11245688D01*
X23600154Y-11245688D02*
X23590630Y-11264736D01*
X23590630Y-11264736D02*
X23581106Y-11274260D01*
X23581106Y-11274260D02*
X23562058Y-11283784D01*
X23562058Y-11283784D02*
X23533487Y-11283784D01*
X23657296Y-11150450D02*
X23733487Y-11150450D01*
X23685868Y-11083784D02*
X23685868Y-11255212D01*
X23685868Y-11255212D02*
X23695392Y-11274260D01*
X23695392Y-11274260D02*
X23714439Y-11283784D01*
X23714439Y-11283784D02*
X23733487Y-11283784D01*
X23790630Y-11274260D02*
X23809677Y-11283784D01*
X23809677Y-11283784D02*
X23847773Y-11283784D01*
X23847773Y-11283784D02*
X23866820Y-11274260D01*
X23866820Y-11274260D02*
X23876344Y-11255212D01*
X23876344Y-11255212D02*
X23876344Y-11245688D01*
X23876344Y-11245688D02*
X23866820Y-11226641D01*
X23866820Y-11226641D02*
X23847773Y-11217117D01*
X23847773Y-11217117D02*
X23819201Y-11217117D01*
X23819201Y-11217117D02*
X23800154Y-11207593D01*
X23800154Y-11207593D02*
X23790630Y-11188546D01*
X23790630Y-11188546D02*
X23790630Y-11179022D01*
X23790630Y-11179022D02*
X23800154Y-11159974D01*
X23800154Y-11159974D02*
X23819201Y-11150450D01*
X23819201Y-11150450D02*
X23847773Y-11150450D01*
X23847773Y-11150450D02*
X23866820Y-11159974D01*
X23943011Y-11359974D02*
X23952535Y-11350450D01*
X23952535Y-11350450D02*
X23971582Y-11321879D01*
X23971582Y-11321879D02*
X23981106Y-11302831D01*
X23981106Y-11302831D02*
X23990630Y-11274260D01*
X23990630Y-11274260D02*
X24000154Y-11226641D01*
X24000154Y-11226641D02*
X24000154Y-11188546D01*
X24000154Y-11188546D02*
X23990630Y-11140927D01*
X23990630Y-11140927D02*
X23981106Y-11112355D01*
X23981106Y-11112355D02*
X23971582Y-11093308D01*
X23971582Y-11093308D02*
X23952535Y-11064736D01*
X23952535Y-11064736D02*
X23943011Y-11055212D01*
D13*
X17532791Y-11495191D02*
X17532791Y-11417409D01*
X17455009Y-11417409D01*
X17455009Y-11495191D01*
X17532791Y-11495191D01*
D11*
X17914439Y-11547784D02*
X17800153Y-11547784D01*
X17857296Y-11547784D02*
X17857296Y-11347784D01*
X17857296Y-11347784D02*
X17838248Y-11376355D01*
X17838248Y-11376355D02*
X17819201Y-11395403D01*
X17819201Y-11395403D02*
X17800153Y-11404927D01*
X18000153Y-11528736D02*
X18009677Y-11538260D01*
X18009677Y-11538260D02*
X18000153Y-11547784D01*
X18000153Y-11547784D02*
X17990629Y-11538260D01*
X17990629Y-11538260D02*
X18000153Y-11528736D01*
X18000153Y-11528736D02*
X18000153Y-11547784D01*
X18200153Y-11547784D02*
X18085867Y-11547784D01*
X18143010Y-11547784D02*
X18143010Y-11347784D01*
X18143010Y-11347784D02*
X18123963Y-11376355D01*
X18123963Y-11376355D02*
X18104915Y-11395403D01*
X18104915Y-11395403D02*
X18085867Y-11404927D01*
X18323963Y-11347784D02*
X18343010Y-11347784D01*
X18343010Y-11347784D02*
X18362058Y-11357308D01*
X18362058Y-11357308D02*
X18371582Y-11366831D01*
X18371582Y-11366831D02*
X18381105Y-11385879D01*
X18381105Y-11385879D02*
X18390629Y-11423974D01*
X18390629Y-11423974D02*
X18390629Y-11471593D01*
X18390629Y-11471593D02*
X18381105Y-11509688D01*
X18381105Y-11509688D02*
X18371582Y-11528736D01*
X18371582Y-11528736D02*
X18362058Y-11538260D01*
X18362058Y-11538260D02*
X18343010Y-11547784D01*
X18343010Y-11547784D02*
X18323963Y-11547784D01*
X18323963Y-11547784D02*
X18304915Y-11538260D01*
X18304915Y-11538260D02*
X18295391Y-11528736D01*
X18295391Y-11528736D02*
X18285867Y-11509688D01*
X18285867Y-11509688D02*
X18276344Y-11471593D01*
X18276344Y-11471593D02*
X18276344Y-11423974D01*
X18276344Y-11423974D02*
X18285867Y-11385879D01*
X18285867Y-11385879D02*
X18295391Y-11366831D01*
X18295391Y-11366831D02*
X18304915Y-11357308D01*
X18304915Y-11357308D02*
X18323963Y-11347784D01*
X18514439Y-11347784D02*
X18533486Y-11347784D01*
X18533486Y-11347784D02*
X18552534Y-11357308D01*
X18552534Y-11357308D02*
X18562058Y-11366831D01*
X18562058Y-11366831D02*
X18571582Y-11385879D01*
X18571582Y-11385879D02*
X18581105Y-11423974D01*
X18581105Y-11423974D02*
X18581105Y-11471593D01*
X18581105Y-11471593D02*
X18571582Y-11509688D01*
X18571582Y-11509688D02*
X18562058Y-11528736D01*
X18562058Y-11528736D02*
X18552534Y-11538260D01*
X18552534Y-11538260D02*
X18533486Y-11547784D01*
X18533486Y-11547784D02*
X18514439Y-11547784D01*
X18514439Y-11547784D02*
X18495391Y-11538260D01*
X18495391Y-11538260D02*
X18485867Y-11528736D01*
X18485867Y-11528736D02*
X18476344Y-11509688D01*
X18476344Y-11509688D02*
X18466820Y-11471593D01*
X18466820Y-11471593D02*
X18466820Y-11423974D01*
X18466820Y-11423974D02*
X18476344Y-11385879D01*
X18476344Y-11385879D02*
X18485867Y-11366831D01*
X18485867Y-11366831D02*
X18495391Y-11357308D01*
X18495391Y-11357308D02*
X18514439Y-11347784D01*
X18666820Y-11547784D02*
X18666820Y-11414450D01*
X18666820Y-11433498D02*
X18676344Y-11423974D01*
X18676344Y-11423974D02*
X18695391Y-11414450D01*
X18695391Y-11414450D02*
X18723963Y-11414450D01*
X18723963Y-11414450D02*
X18743010Y-11423974D01*
X18743010Y-11423974D02*
X18752534Y-11443022D01*
X18752534Y-11443022D02*
X18752534Y-11547784D01*
X18752534Y-11443022D02*
X18762058Y-11423974D01*
X18762058Y-11423974D02*
X18781105Y-11414450D01*
X18781105Y-11414450D02*
X18809677Y-11414450D01*
X18809677Y-11414450D02*
X18828725Y-11423974D01*
X18828725Y-11423974D02*
X18838248Y-11443022D01*
X18838248Y-11443022D02*
X18838248Y-11547784D01*
X18933486Y-11547784D02*
X18933486Y-11414450D01*
X18933486Y-11433498D02*
X18943010Y-11423974D01*
X18943010Y-11423974D02*
X18962058Y-11414450D01*
X18962058Y-11414450D02*
X18990629Y-11414450D01*
X18990629Y-11414450D02*
X19009677Y-11423974D01*
X19009677Y-11423974D02*
X19019201Y-11443022D01*
X19019201Y-11443022D02*
X19019201Y-11547784D01*
X19019201Y-11443022D02*
X19028725Y-11423974D01*
X19028725Y-11423974D02*
X19047772Y-11414450D01*
X19047772Y-11414450D02*
X19076344Y-11414450D01*
X19076344Y-11414450D02*
X19095391Y-11423974D01*
X19095391Y-11423974D02*
X19104915Y-11443022D01*
X19104915Y-11443022D02*
X19104915Y-11547784D01*
X19495391Y-11338260D02*
X19323963Y-11595403D01*
X19752534Y-11347784D02*
X19771582Y-11347784D01*
X19771582Y-11347784D02*
X19790629Y-11357308D01*
X19790629Y-11357308D02*
X19800153Y-11366831D01*
X19800153Y-11366831D02*
X19809677Y-11385879D01*
X19809677Y-11385879D02*
X19819201Y-11423974D01*
X19819201Y-11423974D02*
X19819201Y-11471593D01*
X19819201Y-11471593D02*
X19809677Y-11509688D01*
X19809677Y-11509688D02*
X19800153Y-11528736D01*
X19800153Y-11528736D02*
X19790629Y-11538260D01*
X19790629Y-11538260D02*
X19771582Y-11547784D01*
X19771582Y-11547784D02*
X19752534Y-11547784D01*
X19752534Y-11547784D02*
X19733487Y-11538260D01*
X19733487Y-11538260D02*
X19723963Y-11528736D01*
X19723963Y-11528736D02*
X19714439Y-11509688D01*
X19714439Y-11509688D02*
X19704915Y-11471593D01*
X19704915Y-11471593D02*
X19704915Y-11423974D01*
X19704915Y-11423974D02*
X19714439Y-11385879D01*
X19714439Y-11385879D02*
X19723963Y-11366831D01*
X19723963Y-11366831D02*
X19733487Y-11357308D01*
X19733487Y-11357308D02*
X19752534Y-11347784D01*
X19904915Y-11528736D02*
X19914439Y-11538260D01*
X19914439Y-11538260D02*
X19904915Y-11547784D01*
X19904915Y-11547784D02*
X19895391Y-11538260D01*
X19895391Y-11538260D02*
X19904915Y-11528736D01*
X19904915Y-11528736D02*
X19904915Y-11547784D01*
X20038248Y-11347784D02*
X20057296Y-11347784D01*
X20057296Y-11347784D02*
X20076344Y-11357308D01*
X20076344Y-11357308D02*
X20085868Y-11366831D01*
X20085868Y-11366831D02*
X20095391Y-11385879D01*
X20095391Y-11385879D02*
X20104915Y-11423974D01*
X20104915Y-11423974D02*
X20104915Y-11471593D01*
X20104915Y-11471593D02*
X20095391Y-11509688D01*
X20095391Y-11509688D02*
X20085868Y-11528736D01*
X20085868Y-11528736D02*
X20076344Y-11538260D01*
X20076344Y-11538260D02*
X20057296Y-11547784D01*
X20057296Y-11547784D02*
X20038248Y-11547784D01*
X20038248Y-11547784D02*
X20019201Y-11538260D01*
X20019201Y-11538260D02*
X20009677Y-11528736D01*
X20009677Y-11528736D02*
X20000153Y-11509688D01*
X20000153Y-11509688D02*
X19990629Y-11471593D01*
X19990629Y-11471593D02*
X19990629Y-11423974D01*
X19990629Y-11423974D02*
X20000153Y-11385879D01*
X20000153Y-11385879D02*
X20009677Y-11366831D01*
X20009677Y-11366831D02*
X20019201Y-11357308D01*
X20019201Y-11357308D02*
X20038248Y-11347784D01*
X20276344Y-11414450D02*
X20276344Y-11547784D01*
X20228725Y-11338260D02*
X20181106Y-11481117D01*
X20181106Y-11481117D02*
X20304915Y-11481117D01*
X20362058Y-11347784D02*
X20485868Y-11347784D01*
X20485868Y-11347784D02*
X20419201Y-11423974D01*
X20419201Y-11423974D02*
X20447772Y-11423974D01*
X20447772Y-11423974D02*
X20466820Y-11433498D01*
X20466820Y-11433498D02*
X20476344Y-11443022D01*
X20476344Y-11443022D02*
X20485868Y-11462069D01*
X20485868Y-11462069D02*
X20485868Y-11509688D01*
X20485868Y-11509688D02*
X20476344Y-11528736D01*
X20476344Y-11528736D02*
X20466820Y-11538260D01*
X20466820Y-11538260D02*
X20447772Y-11547784D01*
X20447772Y-11547784D02*
X20390629Y-11547784D01*
X20390629Y-11547784D02*
X20371582Y-11538260D01*
X20371582Y-11538260D02*
X20362058Y-11528736D01*
X20552534Y-11347784D02*
X20676344Y-11347784D01*
X20676344Y-11347784D02*
X20609677Y-11423974D01*
X20609677Y-11423974D02*
X20638249Y-11423974D01*
X20638249Y-11423974D02*
X20657296Y-11433498D01*
X20657296Y-11433498D02*
X20666820Y-11443022D01*
X20666820Y-11443022D02*
X20676344Y-11462069D01*
X20676344Y-11462069D02*
X20676344Y-11509688D01*
X20676344Y-11509688D02*
X20666820Y-11528736D01*
X20666820Y-11528736D02*
X20657296Y-11538260D01*
X20657296Y-11538260D02*
X20638249Y-11547784D01*
X20638249Y-11547784D02*
X20581106Y-11547784D01*
X20581106Y-11547784D02*
X20562058Y-11538260D01*
X20562058Y-11538260D02*
X20552534Y-11528736D01*
X20752534Y-11347784D02*
X20752534Y-11385879D01*
X20828725Y-11347784D02*
X20828725Y-11385879D01*
X21123963Y-11623974D02*
X21114439Y-11614450D01*
X21114439Y-11614450D02*
X21095391Y-11585879D01*
X21095391Y-11585879D02*
X21085868Y-11566831D01*
X21085868Y-11566831D02*
X21076344Y-11538260D01*
X21076344Y-11538260D02*
X21066820Y-11490641D01*
X21066820Y-11490641D02*
X21066820Y-11452546D01*
X21066820Y-11452546D02*
X21076344Y-11404927D01*
X21076344Y-11404927D02*
X21085868Y-11376355D01*
X21085868Y-11376355D02*
X21095391Y-11357308D01*
X21095391Y-11357308D02*
X21114439Y-11328736D01*
X21114439Y-11328736D02*
X21123963Y-11319212D01*
X21285868Y-11347784D02*
X21247772Y-11347784D01*
X21247772Y-11347784D02*
X21228725Y-11357308D01*
X21228725Y-11357308D02*
X21219201Y-11366831D01*
X21219201Y-11366831D02*
X21200153Y-11395403D01*
X21200153Y-11395403D02*
X21190630Y-11433498D01*
X21190630Y-11433498D02*
X21190630Y-11509688D01*
X21190630Y-11509688D02*
X21200153Y-11528736D01*
X21200153Y-11528736D02*
X21209677Y-11538260D01*
X21209677Y-11538260D02*
X21228725Y-11547784D01*
X21228725Y-11547784D02*
X21266820Y-11547784D01*
X21266820Y-11547784D02*
X21285868Y-11538260D01*
X21285868Y-11538260D02*
X21295391Y-11528736D01*
X21295391Y-11528736D02*
X21304915Y-11509688D01*
X21304915Y-11509688D02*
X21304915Y-11462069D01*
X21304915Y-11462069D02*
X21295391Y-11443022D01*
X21295391Y-11443022D02*
X21285868Y-11433498D01*
X21285868Y-11433498D02*
X21266820Y-11423974D01*
X21266820Y-11423974D02*
X21228725Y-11423974D01*
X21228725Y-11423974D02*
X21209677Y-11433498D01*
X21209677Y-11433498D02*
X21200153Y-11443022D01*
X21200153Y-11443022D02*
X21190630Y-11462069D01*
X21543011Y-11547784D02*
X21543011Y-11347784D01*
X21628725Y-11547784D02*
X21628725Y-11443022D01*
X21628725Y-11443022D02*
X21619201Y-11423974D01*
X21619201Y-11423974D02*
X21600153Y-11414450D01*
X21600153Y-11414450D02*
X21571582Y-11414450D01*
X21571582Y-11414450D02*
X21552534Y-11423974D01*
X21552534Y-11423974D02*
X21543011Y-11433498D01*
X21752534Y-11547784D02*
X21733487Y-11538260D01*
X21733487Y-11538260D02*
X21723963Y-11528736D01*
X21723963Y-11528736D02*
X21714439Y-11509688D01*
X21714439Y-11509688D02*
X21714439Y-11452546D01*
X21714439Y-11452546D02*
X21723963Y-11433498D01*
X21723963Y-11433498D02*
X21733487Y-11423974D01*
X21733487Y-11423974D02*
X21752534Y-11414450D01*
X21752534Y-11414450D02*
X21781106Y-11414450D01*
X21781106Y-11414450D02*
X21800153Y-11423974D01*
X21800153Y-11423974D02*
X21809677Y-11433498D01*
X21809677Y-11433498D02*
X21819201Y-11452546D01*
X21819201Y-11452546D02*
X21819201Y-11509688D01*
X21819201Y-11509688D02*
X21809677Y-11528736D01*
X21809677Y-11528736D02*
X21800153Y-11538260D01*
X21800153Y-11538260D02*
X21781106Y-11547784D01*
X21781106Y-11547784D02*
X21752534Y-11547784D01*
X21933487Y-11547784D02*
X21914439Y-11538260D01*
X21914439Y-11538260D02*
X21904915Y-11519212D01*
X21904915Y-11519212D02*
X21904915Y-11347784D01*
X22085868Y-11538260D02*
X22066820Y-11547784D01*
X22066820Y-11547784D02*
X22028725Y-11547784D01*
X22028725Y-11547784D02*
X22009677Y-11538260D01*
X22009677Y-11538260D02*
X22000153Y-11519212D01*
X22000153Y-11519212D02*
X22000153Y-11443022D01*
X22000153Y-11443022D02*
X22009677Y-11423974D01*
X22009677Y-11423974D02*
X22028725Y-11414450D01*
X22028725Y-11414450D02*
X22066820Y-11414450D01*
X22066820Y-11414450D02*
X22085868Y-11423974D01*
X22085868Y-11423974D02*
X22095392Y-11443022D01*
X22095392Y-11443022D02*
X22095392Y-11462069D01*
X22095392Y-11462069D02*
X22000153Y-11481117D01*
X22171582Y-11538260D02*
X22190630Y-11547784D01*
X22190630Y-11547784D02*
X22228725Y-11547784D01*
X22228725Y-11547784D02*
X22247773Y-11538260D01*
X22247773Y-11538260D02*
X22257296Y-11519212D01*
X22257296Y-11519212D02*
X22257296Y-11509688D01*
X22257296Y-11509688D02*
X22247773Y-11490641D01*
X22247773Y-11490641D02*
X22228725Y-11481117D01*
X22228725Y-11481117D02*
X22200153Y-11481117D01*
X22200153Y-11481117D02*
X22181106Y-11471593D01*
X22181106Y-11471593D02*
X22171582Y-11452546D01*
X22171582Y-11452546D02*
X22171582Y-11443022D01*
X22171582Y-11443022D02*
X22181106Y-11423974D01*
X22181106Y-11423974D02*
X22200153Y-11414450D01*
X22200153Y-11414450D02*
X22228725Y-11414450D01*
X22228725Y-11414450D02*
X22247773Y-11423974D01*
X22323963Y-11623974D02*
X22333487Y-11614450D01*
X22333487Y-11614450D02*
X22352534Y-11585879D01*
X22352534Y-11585879D02*
X22362058Y-11566831D01*
X22362058Y-11566831D02*
X22371582Y-11538260D01*
X22371582Y-11538260D02*
X22381106Y-11490641D01*
X22381106Y-11490641D02*
X22381106Y-11452546D01*
X22381106Y-11452546D02*
X22371582Y-11404927D01*
X22371582Y-11404927D02*
X22362058Y-11376355D01*
X22362058Y-11376355D02*
X22352534Y-11357308D01*
X22352534Y-11357308D02*
X22333487Y-11328736D01*
X22333487Y-11328736D02*
X22323963Y-11319212D01*
D14*
X17492400Y-11776800D02*
X17548900Y-11720300D01*
X17492400Y-11663800D01*
X17435900Y-11720300D01*
X17492400Y-11776800D01*
D11*
X17914439Y-11811784D02*
X17800153Y-11811784D01*
X17857296Y-11811784D02*
X17857296Y-11611784D01*
X17857296Y-11611784D02*
X17838248Y-11640355D01*
X17838248Y-11640355D02*
X17819201Y-11659403D01*
X17819201Y-11659403D02*
X17800153Y-11668927D01*
X18000153Y-11792736D02*
X18009677Y-11802260D01*
X18009677Y-11802260D02*
X18000153Y-11811784D01*
X18000153Y-11811784D02*
X17990629Y-11802260D01*
X17990629Y-11802260D02*
X18000153Y-11792736D01*
X18000153Y-11792736D02*
X18000153Y-11811784D01*
X18200153Y-11811784D02*
X18085867Y-11811784D01*
X18143010Y-11811784D02*
X18143010Y-11611784D01*
X18143010Y-11611784D02*
X18123963Y-11640355D01*
X18123963Y-11640355D02*
X18104915Y-11659403D01*
X18104915Y-11659403D02*
X18085867Y-11668927D01*
X18266820Y-11611784D02*
X18390629Y-11611784D01*
X18390629Y-11611784D02*
X18323963Y-11687974D01*
X18323963Y-11687974D02*
X18352534Y-11687974D01*
X18352534Y-11687974D02*
X18371582Y-11697498D01*
X18371582Y-11697498D02*
X18381105Y-11707022D01*
X18381105Y-11707022D02*
X18390629Y-11726069D01*
X18390629Y-11726069D02*
X18390629Y-11773688D01*
X18390629Y-11773688D02*
X18381105Y-11792736D01*
X18381105Y-11792736D02*
X18371582Y-11802260D01*
X18371582Y-11802260D02*
X18352534Y-11811784D01*
X18352534Y-11811784D02*
X18295391Y-11811784D01*
X18295391Y-11811784D02*
X18276344Y-11802260D01*
X18276344Y-11802260D02*
X18266820Y-11792736D01*
X18514439Y-11611784D02*
X18533486Y-11611784D01*
X18533486Y-11611784D02*
X18552534Y-11621308D01*
X18552534Y-11621308D02*
X18562058Y-11630831D01*
X18562058Y-11630831D02*
X18571582Y-11649879D01*
X18571582Y-11649879D02*
X18581105Y-11687974D01*
X18581105Y-11687974D02*
X18581105Y-11735593D01*
X18581105Y-11735593D02*
X18571582Y-11773688D01*
X18571582Y-11773688D02*
X18562058Y-11792736D01*
X18562058Y-11792736D02*
X18552534Y-11802260D01*
X18552534Y-11802260D02*
X18533486Y-11811784D01*
X18533486Y-11811784D02*
X18514439Y-11811784D01*
X18514439Y-11811784D02*
X18495391Y-11802260D01*
X18495391Y-11802260D02*
X18485867Y-11792736D01*
X18485867Y-11792736D02*
X18476344Y-11773688D01*
X18476344Y-11773688D02*
X18466820Y-11735593D01*
X18466820Y-11735593D02*
X18466820Y-11687974D01*
X18466820Y-11687974D02*
X18476344Y-11649879D01*
X18476344Y-11649879D02*
X18485867Y-11630831D01*
X18485867Y-11630831D02*
X18495391Y-11621308D01*
X18495391Y-11621308D02*
X18514439Y-11611784D01*
X18666820Y-11811784D02*
X18666820Y-11678450D01*
X18666820Y-11697498D02*
X18676344Y-11687974D01*
X18676344Y-11687974D02*
X18695391Y-11678450D01*
X18695391Y-11678450D02*
X18723963Y-11678450D01*
X18723963Y-11678450D02*
X18743010Y-11687974D01*
X18743010Y-11687974D02*
X18752534Y-11707022D01*
X18752534Y-11707022D02*
X18752534Y-11811784D01*
X18752534Y-11707022D02*
X18762058Y-11687974D01*
X18762058Y-11687974D02*
X18781105Y-11678450D01*
X18781105Y-11678450D02*
X18809677Y-11678450D01*
X18809677Y-11678450D02*
X18828725Y-11687974D01*
X18828725Y-11687974D02*
X18838248Y-11707022D01*
X18838248Y-11707022D02*
X18838248Y-11811784D01*
X18933486Y-11811784D02*
X18933486Y-11678450D01*
X18933486Y-11697498D02*
X18943010Y-11687974D01*
X18943010Y-11687974D02*
X18962058Y-11678450D01*
X18962058Y-11678450D02*
X18990629Y-11678450D01*
X18990629Y-11678450D02*
X19009677Y-11687974D01*
X19009677Y-11687974D02*
X19019201Y-11707022D01*
X19019201Y-11707022D02*
X19019201Y-11811784D01*
X19019201Y-11707022D02*
X19028725Y-11687974D01*
X19028725Y-11687974D02*
X19047772Y-11678450D01*
X19047772Y-11678450D02*
X19076344Y-11678450D01*
X19076344Y-11678450D02*
X19095391Y-11687974D01*
X19095391Y-11687974D02*
X19104915Y-11707022D01*
X19104915Y-11707022D02*
X19104915Y-11811784D01*
X19495391Y-11602260D02*
X19323963Y-11859403D01*
X19752534Y-11611784D02*
X19771582Y-11611784D01*
X19771582Y-11611784D02*
X19790629Y-11621308D01*
X19790629Y-11621308D02*
X19800153Y-11630831D01*
X19800153Y-11630831D02*
X19809677Y-11649879D01*
X19809677Y-11649879D02*
X19819201Y-11687974D01*
X19819201Y-11687974D02*
X19819201Y-11735593D01*
X19819201Y-11735593D02*
X19809677Y-11773688D01*
X19809677Y-11773688D02*
X19800153Y-11792736D01*
X19800153Y-11792736D02*
X19790629Y-11802260D01*
X19790629Y-11802260D02*
X19771582Y-11811784D01*
X19771582Y-11811784D02*
X19752534Y-11811784D01*
X19752534Y-11811784D02*
X19733487Y-11802260D01*
X19733487Y-11802260D02*
X19723963Y-11792736D01*
X19723963Y-11792736D02*
X19714439Y-11773688D01*
X19714439Y-11773688D02*
X19704915Y-11735593D01*
X19704915Y-11735593D02*
X19704915Y-11687974D01*
X19704915Y-11687974D02*
X19714439Y-11649879D01*
X19714439Y-11649879D02*
X19723963Y-11630831D01*
X19723963Y-11630831D02*
X19733487Y-11621308D01*
X19733487Y-11621308D02*
X19752534Y-11611784D01*
X19904915Y-11792736D02*
X19914439Y-11802260D01*
X19914439Y-11802260D02*
X19904915Y-11811784D01*
X19904915Y-11811784D02*
X19895391Y-11802260D01*
X19895391Y-11802260D02*
X19904915Y-11792736D01*
X19904915Y-11792736D02*
X19904915Y-11811784D01*
X20038248Y-11611784D02*
X20057296Y-11611784D01*
X20057296Y-11611784D02*
X20076344Y-11621308D01*
X20076344Y-11621308D02*
X20085868Y-11630831D01*
X20085868Y-11630831D02*
X20095391Y-11649879D01*
X20095391Y-11649879D02*
X20104915Y-11687974D01*
X20104915Y-11687974D02*
X20104915Y-11735593D01*
X20104915Y-11735593D02*
X20095391Y-11773688D01*
X20095391Y-11773688D02*
X20085868Y-11792736D01*
X20085868Y-11792736D02*
X20076344Y-11802260D01*
X20076344Y-11802260D02*
X20057296Y-11811784D01*
X20057296Y-11811784D02*
X20038248Y-11811784D01*
X20038248Y-11811784D02*
X20019201Y-11802260D01*
X20019201Y-11802260D02*
X20009677Y-11792736D01*
X20009677Y-11792736D02*
X20000153Y-11773688D01*
X20000153Y-11773688D02*
X19990629Y-11735593D01*
X19990629Y-11735593D02*
X19990629Y-11687974D01*
X19990629Y-11687974D02*
X20000153Y-11649879D01*
X20000153Y-11649879D02*
X20009677Y-11630831D01*
X20009677Y-11630831D02*
X20019201Y-11621308D01*
X20019201Y-11621308D02*
X20038248Y-11611784D01*
X20276344Y-11678450D02*
X20276344Y-11811784D01*
X20228725Y-11602260D02*
X20181106Y-11745117D01*
X20181106Y-11745117D02*
X20304915Y-11745117D01*
X20466820Y-11678450D02*
X20466820Y-11811784D01*
X20419201Y-11602260D02*
X20371582Y-11745117D01*
X20371582Y-11745117D02*
X20495391Y-11745117D01*
X20666820Y-11611784D02*
X20571582Y-11611784D01*
X20571582Y-11611784D02*
X20562058Y-11707022D01*
X20562058Y-11707022D02*
X20571582Y-11697498D01*
X20571582Y-11697498D02*
X20590629Y-11687974D01*
X20590629Y-11687974D02*
X20638249Y-11687974D01*
X20638249Y-11687974D02*
X20657296Y-11697498D01*
X20657296Y-11697498D02*
X20666820Y-11707022D01*
X20666820Y-11707022D02*
X20676344Y-11726069D01*
X20676344Y-11726069D02*
X20676344Y-11773688D01*
X20676344Y-11773688D02*
X20666820Y-11792736D01*
X20666820Y-11792736D02*
X20657296Y-11802260D01*
X20657296Y-11802260D02*
X20638249Y-11811784D01*
X20638249Y-11811784D02*
X20590629Y-11811784D01*
X20590629Y-11811784D02*
X20571582Y-11802260D01*
X20571582Y-11802260D02*
X20562058Y-11792736D01*
X20752534Y-11611784D02*
X20752534Y-11649879D01*
X20828725Y-11611784D02*
X20828725Y-11649879D01*
X21123963Y-11887974D02*
X21114439Y-11878450D01*
X21114439Y-11878450D02*
X21095391Y-11849879D01*
X21095391Y-11849879D02*
X21085868Y-11830831D01*
X21085868Y-11830831D02*
X21076344Y-11802260D01*
X21076344Y-11802260D02*
X21066820Y-11754641D01*
X21066820Y-11754641D02*
X21066820Y-11716546D01*
X21066820Y-11716546D02*
X21076344Y-11668927D01*
X21076344Y-11668927D02*
X21085868Y-11640355D01*
X21085868Y-11640355D02*
X21095391Y-11621308D01*
X21095391Y-11621308D02*
X21114439Y-11592736D01*
X21114439Y-11592736D02*
X21123963Y-11583212D01*
X21304915Y-11811784D02*
X21190630Y-11811784D01*
X21247772Y-11811784D02*
X21247772Y-11611784D01*
X21247772Y-11611784D02*
X21228725Y-11640355D01*
X21228725Y-11640355D02*
X21209677Y-11659403D01*
X21209677Y-11659403D02*
X21190630Y-11668927D01*
X21381106Y-11630831D02*
X21390630Y-11621308D01*
X21390630Y-11621308D02*
X21409677Y-11611784D01*
X21409677Y-11611784D02*
X21457296Y-11611784D01*
X21457296Y-11611784D02*
X21476344Y-11621308D01*
X21476344Y-11621308D02*
X21485868Y-11630831D01*
X21485868Y-11630831D02*
X21495391Y-11649879D01*
X21495391Y-11649879D02*
X21495391Y-11668927D01*
X21495391Y-11668927D02*
X21485868Y-11697498D01*
X21485868Y-11697498D02*
X21371582Y-11811784D01*
X21371582Y-11811784D02*
X21495391Y-11811784D01*
X21733487Y-11811784D02*
X21733487Y-11611784D01*
X21819201Y-11811784D02*
X21819201Y-11707022D01*
X21819201Y-11707022D02*
X21809677Y-11687974D01*
X21809677Y-11687974D02*
X21790630Y-11678450D01*
X21790630Y-11678450D02*
X21762058Y-11678450D01*
X21762058Y-11678450D02*
X21743011Y-11687974D01*
X21743011Y-11687974D02*
X21733487Y-11697498D01*
X21943011Y-11811784D02*
X21923963Y-11802260D01*
X21923963Y-11802260D02*
X21914439Y-11792736D01*
X21914439Y-11792736D02*
X21904915Y-11773688D01*
X21904915Y-11773688D02*
X21904915Y-11716546D01*
X21904915Y-11716546D02*
X21914439Y-11697498D01*
X21914439Y-11697498D02*
X21923963Y-11687974D01*
X21923963Y-11687974D02*
X21943011Y-11678450D01*
X21943011Y-11678450D02*
X21971582Y-11678450D01*
X21971582Y-11678450D02*
X21990630Y-11687974D01*
X21990630Y-11687974D02*
X22000153Y-11697498D01*
X22000153Y-11697498D02*
X22009677Y-11716546D01*
X22009677Y-11716546D02*
X22009677Y-11773688D01*
X22009677Y-11773688D02*
X22000153Y-11792736D01*
X22000153Y-11792736D02*
X21990630Y-11802260D01*
X21990630Y-11802260D02*
X21971582Y-11811784D01*
X21971582Y-11811784D02*
X21943011Y-11811784D01*
X22123963Y-11811784D02*
X22104915Y-11802260D01*
X22104915Y-11802260D02*
X22095392Y-11783212D01*
X22095392Y-11783212D02*
X22095392Y-11611784D01*
X22276344Y-11802260D02*
X22257296Y-11811784D01*
X22257296Y-11811784D02*
X22219201Y-11811784D01*
X22219201Y-11811784D02*
X22200153Y-11802260D01*
X22200153Y-11802260D02*
X22190630Y-11783212D01*
X22190630Y-11783212D02*
X22190630Y-11707022D01*
X22190630Y-11707022D02*
X22200153Y-11687974D01*
X22200153Y-11687974D02*
X22219201Y-11678450D01*
X22219201Y-11678450D02*
X22257296Y-11678450D01*
X22257296Y-11678450D02*
X22276344Y-11687974D01*
X22276344Y-11687974D02*
X22285868Y-11707022D01*
X22285868Y-11707022D02*
X22285868Y-11726069D01*
X22285868Y-11726069D02*
X22190630Y-11745117D01*
X22362058Y-11802260D02*
X22381106Y-11811784D01*
X22381106Y-11811784D02*
X22419201Y-11811784D01*
X22419201Y-11811784D02*
X22438249Y-11802260D01*
X22438249Y-11802260D02*
X22447772Y-11783212D01*
X22447772Y-11783212D02*
X22447772Y-11773688D01*
X22447772Y-11773688D02*
X22438249Y-11754641D01*
X22438249Y-11754641D02*
X22419201Y-11745117D01*
X22419201Y-11745117D02*
X22390630Y-11745117D01*
X22390630Y-11745117D02*
X22371582Y-11735593D01*
X22371582Y-11735593D02*
X22362058Y-11716546D01*
X22362058Y-11716546D02*
X22362058Y-11707022D01*
X22362058Y-11707022D02*
X22371582Y-11687974D01*
X22371582Y-11687974D02*
X22390630Y-11678450D01*
X22390630Y-11678450D02*
X22419201Y-11678450D01*
X22419201Y-11678450D02*
X22438249Y-11687974D01*
X22514439Y-11887974D02*
X22523963Y-11878450D01*
X22523963Y-11878450D02*
X22543011Y-11849879D01*
X22543011Y-11849879D02*
X22552534Y-11830831D01*
X22552534Y-11830831D02*
X22562058Y-11802260D01*
X22562058Y-11802260D02*
X22571582Y-11754641D01*
X22571582Y-11754641D02*
X22571582Y-11716546D01*
X22571582Y-11716546D02*
X22562058Y-11668927D01*
X22562058Y-11668927D02*
X22552534Y-11640355D01*
X22552534Y-11640355D02*
X22543011Y-11621308D01*
X22543011Y-11621308D02*
X22523963Y-11592736D01*
X22523963Y-11592736D02*
X22514439Y-11583212D01*
D15*
X17408900Y-11914300D02*
X17548900Y-12054300D01*
X17548900Y-11914300D02*
X17408900Y-12054300D01*
X17548900Y-11984300D02*
G75*
G02*
X17408900Y-11984300I-70000J0D01*
G01*
X17408900Y-11984300D02*
G75*
G02*
X17548900Y-11984300I70000J0D01*
G01*
D11*
X17914439Y-12075784D02*
X17800153Y-12075784D01*
X17857296Y-12075784D02*
X17857296Y-11875784D01*
X17857296Y-11875784D02*
X17838248Y-11904355D01*
X17838248Y-11904355D02*
X17819201Y-11923403D01*
X17819201Y-11923403D02*
X17800153Y-11932927D01*
X18000153Y-12056736D02*
X18009677Y-12066260D01*
X18009677Y-12066260D02*
X18000153Y-12075784D01*
X18000153Y-12075784D02*
X17990629Y-12066260D01*
X17990629Y-12066260D02*
X18000153Y-12056736D01*
X18000153Y-12056736D02*
X18000153Y-12075784D01*
X18181105Y-11942450D02*
X18181105Y-12075784D01*
X18133486Y-11866260D02*
X18085867Y-12009117D01*
X18085867Y-12009117D02*
X18209677Y-12009117D01*
X18323963Y-11875784D02*
X18343010Y-11875784D01*
X18343010Y-11875784D02*
X18362058Y-11885308D01*
X18362058Y-11885308D02*
X18371582Y-11894831D01*
X18371582Y-11894831D02*
X18381105Y-11913879D01*
X18381105Y-11913879D02*
X18390629Y-11951974D01*
X18390629Y-11951974D02*
X18390629Y-11999593D01*
X18390629Y-11999593D02*
X18381105Y-12037688D01*
X18381105Y-12037688D02*
X18371582Y-12056736D01*
X18371582Y-12056736D02*
X18362058Y-12066260D01*
X18362058Y-12066260D02*
X18343010Y-12075784D01*
X18343010Y-12075784D02*
X18323963Y-12075784D01*
X18323963Y-12075784D02*
X18304915Y-12066260D01*
X18304915Y-12066260D02*
X18295391Y-12056736D01*
X18295391Y-12056736D02*
X18285867Y-12037688D01*
X18285867Y-12037688D02*
X18276344Y-11999593D01*
X18276344Y-11999593D02*
X18276344Y-11951974D01*
X18276344Y-11951974D02*
X18285867Y-11913879D01*
X18285867Y-11913879D02*
X18295391Y-11894831D01*
X18295391Y-11894831D02*
X18304915Y-11885308D01*
X18304915Y-11885308D02*
X18323963Y-11875784D01*
X18514439Y-11875784D02*
X18533486Y-11875784D01*
X18533486Y-11875784D02*
X18552534Y-11885308D01*
X18552534Y-11885308D02*
X18562058Y-11894831D01*
X18562058Y-11894831D02*
X18571582Y-11913879D01*
X18571582Y-11913879D02*
X18581105Y-11951974D01*
X18581105Y-11951974D02*
X18581105Y-11999593D01*
X18581105Y-11999593D02*
X18571582Y-12037688D01*
X18571582Y-12037688D02*
X18562058Y-12056736D01*
X18562058Y-12056736D02*
X18552534Y-12066260D01*
X18552534Y-12066260D02*
X18533486Y-12075784D01*
X18533486Y-12075784D02*
X18514439Y-12075784D01*
X18514439Y-12075784D02*
X18495391Y-12066260D01*
X18495391Y-12066260D02*
X18485867Y-12056736D01*
X18485867Y-12056736D02*
X18476344Y-12037688D01*
X18476344Y-12037688D02*
X18466820Y-11999593D01*
X18466820Y-11999593D02*
X18466820Y-11951974D01*
X18466820Y-11951974D02*
X18476344Y-11913879D01*
X18476344Y-11913879D02*
X18485867Y-11894831D01*
X18485867Y-11894831D02*
X18495391Y-11885308D01*
X18495391Y-11885308D02*
X18514439Y-11875784D01*
X18666820Y-12075784D02*
X18666820Y-11942450D01*
X18666820Y-11961498D02*
X18676344Y-11951974D01*
X18676344Y-11951974D02*
X18695391Y-11942450D01*
X18695391Y-11942450D02*
X18723963Y-11942450D01*
X18723963Y-11942450D02*
X18743010Y-11951974D01*
X18743010Y-11951974D02*
X18752534Y-11971022D01*
X18752534Y-11971022D02*
X18752534Y-12075784D01*
X18752534Y-11971022D02*
X18762058Y-11951974D01*
X18762058Y-11951974D02*
X18781105Y-11942450D01*
X18781105Y-11942450D02*
X18809677Y-11942450D01*
X18809677Y-11942450D02*
X18828725Y-11951974D01*
X18828725Y-11951974D02*
X18838248Y-11971022D01*
X18838248Y-11971022D02*
X18838248Y-12075784D01*
X18933486Y-12075784D02*
X18933486Y-11942450D01*
X18933486Y-11961498D02*
X18943010Y-11951974D01*
X18943010Y-11951974D02*
X18962058Y-11942450D01*
X18962058Y-11942450D02*
X18990629Y-11942450D01*
X18990629Y-11942450D02*
X19009677Y-11951974D01*
X19009677Y-11951974D02*
X19019201Y-11971022D01*
X19019201Y-11971022D02*
X19019201Y-12075784D01*
X19019201Y-11971022D02*
X19028725Y-11951974D01*
X19028725Y-11951974D02*
X19047772Y-11942450D01*
X19047772Y-11942450D02*
X19076344Y-11942450D01*
X19076344Y-11942450D02*
X19095391Y-11951974D01*
X19095391Y-11951974D02*
X19104915Y-11971022D01*
X19104915Y-11971022D02*
X19104915Y-12075784D01*
X19495391Y-11866260D02*
X19323963Y-12123403D01*
X19752534Y-11875784D02*
X19771582Y-11875784D01*
X19771582Y-11875784D02*
X19790629Y-11885308D01*
X19790629Y-11885308D02*
X19800153Y-11894831D01*
X19800153Y-11894831D02*
X19809677Y-11913879D01*
X19809677Y-11913879D02*
X19819201Y-11951974D01*
X19819201Y-11951974D02*
X19819201Y-11999593D01*
X19819201Y-11999593D02*
X19809677Y-12037688D01*
X19809677Y-12037688D02*
X19800153Y-12056736D01*
X19800153Y-12056736D02*
X19790629Y-12066260D01*
X19790629Y-12066260D02*
X19771582Y-12075784D01*
X19771582Y-12075784D02*
X19752534Y-12075784D01*
X19752534Y-12075784D02*
X19733487Y-12066260D01*
X19733487Y-12066260D02*
X19723963Y-12056736D01*
X19723963Y-12056736D02*
X19714439Y-12037688D01*
X19714439Y-12037688D02*
X19704915Y-11999593D01*
X19704915Y-11999593D02*
X19704915Y-11951974D01*
X19704915Y-11951974D02*
X19714439Y-11913879D01*
X19714439Y-11913879D02*
X19723963Y-11894831D01*
X19723963Y-11894831D02*
X19733487Y-11885308D01*
X19733487Y-11885308D02*
X19752534Y-11875784D01*
X19904915Y-12056736D02*
X19914439Y-12066260D01*
X19914439Y-12066260D02*
X19904915Y-12075784D01*
X19904915Y-12075784D02*
X19895391Y-12066260D01*
X19895391Y-12066260D02*
X19904915Y-12056736D01*
X19904915Y-12056736D02*
X19904915Y-12075784D01*
X20038248Y-11875784D02*
X20057296Y-11875784D01*
X20057296Y-11875784D02*
X20076344Y-11885308D01*
X20076344Y-11885308D02*
X20085868Y-11894831D01*
X20085868Y-11894831D02*
X20095391Y-11913879D01*
X20095391Y-11913879D02*
X20104915Y-11951974D01*
X20104915Y-11951974D02*
X20104915Y-11999593D01*
X20104915Y-11999593D02*
X20095391Y-12037688D01*
X20095391Y-12037688D02*
X20085868Y-12056736D01*
X20085868Y-12056736D02*
X20076344Y-12066260D01*
X20076344Y-12066260D02*
X20057296Y-12075784D01*
X20057296Y-12075784D02*
X20038248Y-12075784D01*
X20038248Y-12075784D02*
X20019201Y-12066260D01*
X20019201Y-12066260D02*
X20009677Y-12056736D01*
X20009677Y-12056736D02*
X20000153Y-12037688D01*
X20000153Y-12037688D02*
X19990629Y-11999593D01*
X19990629Y-11999593D02*
X19990629Y-11951974D01*
X19990629Y-11951974D02*
X20000153Y-11913879D01*
X20000153Y-11913879D02*
X20009677Y-11894831D01*
X20009677Y-11894831D02*
X20019201Y-11885308D01*
X20019201Y-11885308D02*
X20038248Y-11875784D01*
X20285868Y-11875784D02*
X20190629Y-11875784D01*
X20190629Y-11875784D02*
X20181106Y-11971022D01*
X20181106Y-11971022D02*
X20190629Y-11961498D01*
X20190629Y-11961498D02*
X20209677Y-11951974D01*
X20209677Y-11951974D02*
X20257296Y-11951974D01*
X20257296Y-11951974D02*
X20276344Y-11961498D01*
X20276344Y-11961498D02*
X20285868Y-11971022D01*
X20285868Y-11971022D02*
X20295391Y-11990069D01*
X20295391Y-11990069D02*
X20295391Y-12037688D01*
X20295391Y-12037688D02*
X20285868Y-12056736D01*
X20285868Y-12056736D02*
X20276344Y-12066260D01*
X20276344Y-12066260D02*
X20257296Y-12075784D01*
X20257296Y-12075784D02*
X20209677Y-12075784D01*
X20209677Y-12075784D02*
X20190629Y-12066260D01*
X20190629Y-12066260D02*
X20181106Y-12056736D01*
X20476344Y-11875784D02*
X20381106Y-11875784D01*
X20381106Y-11875784D02*
X20371582Y-11971022D01*
X20371582Y-11971022D02*
X20381106Y-11961498D01*
X20381106Y-11961498D02*
X20400153Y-11951974D01*
X20400153Y-11951974D02*
X20447772Y-11951974D01*
X20447772Y-11951974D02*
X20466820Y-11961498D01*
X20466820Y-11961498D02*
X20476344Y-11971022D01*
X20476344Y-11971022D02*
X20485868Y-11990069D01*
X20485868Y-11990069D02*
X20485868Y-12037688D01*
X20485868Y-12037688D02*
X20476344Y-12056736D01*
X20476344Y-12056736D02*
X20466820Y-12066260D01*
X20466820Y-12066260D02*
X20447772Y-12075784D01*
X20447772Y-12075784D02*
X20400153Y-12075784D01*
X20400153Y-12075784D02*
X20381106Y-12066260D01*
X20381106Y-12066260D02*
X20371582Y-12056736D01*
X20676344Y-12075784D02*
X20562058Y-12075784D01*
X20619201Y-12075784D02*
X20619201Y-11875784D01*
X20619201Y-11875784D02*
X20600153Y-11904355D01*
X20600153Y-11904355D02*
X20581106Y-11923403D01*
X20581106Y-11923403D02*
X20562058Y-11932927D01*
X20752534Y-11875784D02*
X20752534Y-11913879D01*
X20828725Y-11875784D02*
X20828725Y-11913879D01*
X21123963Y-12151974D02*
X21114439Y-12142450D01*
X21114439Y-12142450D02*
X21095391Y-12113879D01*
X21095391Y-12113879D02*
X21085868Y-12094831D01*
X21085868Y-12094831D02*
X21076344Y-12066260D01*
X21076344Y-12066260D02*
X21066820Y-12018641D01*
X21066820Y-12018641D02*
X21066820Y-11980546D01*
X21066820Y-11980546D02*
X21076344Y-11932927D01*
X21076344Y-11932927D02*
X21085868Y-11904355D01*
X21085868Y-11904355D02*
X21095391Y-11885308D01*
X21095391Y-11885308D02*
X21114439Y-11856736D01*
X21114439Y-11856736D02*
X21123963Y-11847212D01*
X21190630Y-11894831D02*
X21200153Y-11885308D01*
X21200153Y-11885308D02*
X21219201Y-11875784D01*
X21219201Y-11875784D02*
X21266820Y-11875784D01*
X21266820Y-11875784D02*
X21285868Y-11885308D01*
X21285868Y-11885308D02*
X21295391Y-11894831D01*
X21295391Y-11894831D02*
X21304915Y-11913879D01*
X21304915Y-11913879D02*
X21304915Y-11932927D01*
X21304915Y-11932927D02*
X21295391Y-11961498D01*
X21295391Y-11961498D02*
X21181106Y-12075784D01*
X21181106Y-12075784D02*
X21304915Y-12075784D01*
X21381106Y-11894831D02*
X21390630Y-11885308D01*
X21390630Y-11885308D02*
X21409677Y-11875784D01*
X21409677Y-11875784D02*
X21457296Y-11875784D01*
X21457296Y-11875784D02*
X21476344Y-11885308D01*
X21476344Y-11885308D02*
X21485868Y-11894831D01*
X21485868Y-11894831D02*
X21495391Y-11913879D01*
X21495391Y-11913879D02*
X21495391Y-11932927D01*
X21495391Y-11932927D02*
X21485868Y-11961498D01*
X21485868Y-11961498D02*
X21371582Y-12075784D01*
X21371582Y-12075784D02*
X21495391Y-12075784D01*
X21733487Y-12075784D02*
X21733487Y-11875784D01*
X21819201Y-12075784D02*
X21819201Y-11971022D01*
X21819201Y-11971022D02*
X21809677Y-11951974D01*
X21809677Y-11951974D02*
X21790630Y-11942450D01*
X21790630Y-11942450D02*
X21762058Y-11942450D01*
X21762058Y-11942450D02*
X21743011Y-11951974D01*
X21743011Y-11951974D02*
X21733487Y-11961498D01*
X21943011Y-12075784D02*
X21923963Y-12066260D01*
X21923963Y-12066260D02*
X21914439Y-12056736D01*
X21914439Y-12056736D02*
X21904915Y-12037688D01*
X21904915Y-12037688D02*
X21904915Y-11980546D01*
X21904915Y-11980546D02*
X21914439Y-11961498D01*
X21914439Y-11961498D02*
X21923963Y-11951974D01*
X21923963Y-11951974D02*
X21943011Y-11942450D01*
X21943011Y-11942450D02*
X21971582Y-11942450D01*
X21971582Y-11942450D02*
X21990630Y-11951974D01*
X21990630Y-11951974D02*
X22000153Y-11961498D01*
X22000153Y-11961498D02*
X22009677Y-11980546D01*
X22009677Y-11980546D02*
X22009677Y-12037688D01*
X22009677Y-12037688D02*
X22000153Y-12056736D01*
X22000153Y-12056736D02*
X21990630Y-12066260D01*
X21990630Y-12066260D02*
X21971582Y-12075784D01*
X21971582Y-12075784D02*
X21943011Y-12075784D01*
X22123963Y-12075784D02*
X22104915Y-12066260D01*
X22104915Y-12066260D02*
X22095392Y-12047212D01*
X22095392Y-12047212D02*
X22095392Y-11875784D01*
X22276344Y-12066260D02*
X22257296Y-12075784D01*
X22257296Y-12075784D02*
X22219201Y-12075784D01*
X22219201Y-12075784D02*
X22200153Y-12066260D01*
X22200153Y-12066260D02*
X22190630Y-12047212D01*
X22190630Y-12047212D02*
X22190630Y-11971022D01*
X22190630Y-11971022D02*
X22200153Y-11951974D01*
X22200153Y-11951974D02*
X22219201Y-11942450D01*
X22219201Y-11942450D02*
X22257296Y-11942450D01*
X22257296Y-11942450D02*
X22276344Y-11951974D01*
X22276344Y-11951974D02*
X22285868Y-11971022D01*
X22285868Y-11971022D02*
X22285868Y-11990069D01*
X22285868Y-11990069D02*
X22190630Y-12009117D01*
X22362058Y-12066260D02*
X22381106Y-12075784D01*
X22381106Y-12075784D02*
X22419201Y-12075784D01*
X22419201Y-12075784D02*
X22438249Y-12066260D01*
X22438249Y-12066260D02*
X22447772Y-12047212D01*
X22447772Y-12047212D02*
X22447772Y-12037688D01*
X22447772Y-12037688D02*
X22438249Y-12018641D01*
X22438249Y-12018641D02*
X22419201Y-12009117D01*
X22419201Y-12009117D02*
X22390630Y-12009117D01*
X22390630Y-12009117D02*
X22371582Y-11999593D01*
X22371582Y-11999593D02*
X22362058Y-11980546D01*
X22362058Y-11980546D02*
X22362058Y-11971022D01*
X22362058Y-11971022D02*
X22371582Y-11951974D01*
X22371582Y-11951974D02*
X22390630Y-11942450D01*
X22390630Y-11942450D02*
X22419201Y-11942450D01*
X22419201Y-11942450D02*
X22438249Y-11951974D01*
X22514439Y-12151974D02*
X22523963Y-12142450D01*
X22523963Y-12142450D02*
X22543011Y-12113879D01*
X22543011Y-12113879D02*
X22552534Y-12094831D01*
X22552534Y-12094831D02*
X22562058Y-12066260D01*
X22562058Y-12066260D02*
X22571582Y-12018641D01*
X22571582Y-12018641D02*
X22571582Y-11980546D01*
X22571582Y-11980546D02*
X22562058Y-11932927D01*
X22562058Y-11932927D02*
X22552534Y-11904355D01*
X22552534Y-11904355D02*
X22543011Y-11885308D01*
X22543011Y-11885308D02*
X22523963Y-11856736D01*
X22523963Y-11856736D02*
X22514439Y-11847212D01*
M02*
