M48
; DRILL file {KiCad 9.0.0} date 2025-03-04T12:57:17-0600
; FORMAT={-:-/ absolute / metric / decimal}
; #@! TF.CreationDate,2025-03-04T12:57:17-06:00
; #@! TF.GenerationSoftware,Kicad,Pcbnew,9.0.0
; #@! TF.FileFunction,Plated,1,4,PTH
FMAT,2
METRIC
; #@! TA.AperFunction,Plated,PTH,ViaDrill
T1C0.300
; #@! TA.AperFunction,Plated,PTH,ComponentDrill
T2C0.300
; #@! TA.AperFunction,Plated,PTH,ComponentDrill
T3C0.330
; #@! TA.AperFunction,Plated,PTH,ComponentDrill
T4C0.800
; #@! TA.AperFunction,Plated,PTH,ComponentDrill
T5C1.000
; #@! TA.AperFunction,Plated,PTH,ComponentDrill
T6C1.100
; #@! TA.AperFunction,Plated,PTH,ComponentDrill
T7C1.130
%
G90
G05
T1
X103.886Y-94.234
X103.886Y-108.712
X104.14Y-100.838
X104.14Y-120.904
X104.394Y-77.47
X104.902Y-76.109
X104.902Y-123.19
X105.41Y-96.52
X105.41Y-104.648
X105.41Y-110.998
X105.664Y-75.184
X106.161Y-91.582
X106.172Y-82.55
X106.179Y-92.573
X108.966Y-131.572
X109.419Y-81.583
X109.474Y-87.589
X109.728Y-72.39
X109.982Y-121.412
X110.744Y-70.358
X111.76Y-73.66
X112.268Y-123.952
X112.522Y-71.628
X113.03Y-96.774
X113.03Y-99.314
X113.03Y-107.442
X113.425Y-94.119
X114.2Y-113.427
X114.554Y-70.612
X115.316Y-73.66
X115.316Y-99.314
X115.57Y-107.442
X116.332Y-72.136
X117.348Y-70.358
X117.348Y-90.678
X117.602Y-73.66
X117.856Y-99.314
X118.11Y-107.442
X119.38Y-90.678
X121.412Y-90.678
X122.27Y-92.633
X125.0Y-83.407
X125.984Y-90.932
X125.984Y-92.71
X126.492Y-70.358
X127.254Y-90.932
X127.254Y-92.71
X127.254Y-122.428
X128.524Y-70.358
X128.678Y-119.275
X129.794Y-73.66
X129.804Y-122.808
X130.048Y-80.264
X130.048Y-102.362
X131.064Y-70.612
X131.064Y-72.136
X131.388Y-89.154
X132.2Y-103.045
X132.694Y-89.124
X132.842Y-82.55
X133.119Y-95.706
X133.858Y-96.012
X134.99Y-72.49
X135.632Y-101.284
X135.89Y-95.504
X138.13Y-100.284
X138.176Y-83.74
X138.176Y-101.854
X138.268Y-90.678
X138.303Y-91.821
X138.43Y-82.47
X138.43Y-89.662
X138.43Y-99.314
X139.192Y-101.346
X139.192Y-102.87
X139.446Y-100.076
X139.7Y-98.552
X139.792Y-70.319
X139.954Y-104.14
X140.208Y-102.108
X140.462Y-97.79
X140.462Y-99.314
X142.775Y-82.462
X142.859Y-78.632
X142.862Y-79.915
X142.874Y-81.209
X142.96Y-76.117
X142.985Y-74.853
X143.002Y-72.136
X143.002Y-73.552
X143.002Y-77.47
X143.152Y-107.728
X143.256Y-70.104
X143.51Y-71.12
X143.529Y-83.732
X145.542Y-98.298
X145.895Y-78.721
X145.926Y-80.134
X145.933Y-77.331
X146.558Y-99.06
X146.812Y-97.79
X147.066Y-122.682
X147.149Y-76.162
X147.187Y-81.388
X147.828Y-102.616
X148.569Y-81.365
X148.577Y-76.192
X148.62Y-119.345
X148.844Y-96.774
X148.844Y-99.06
X149.098Y-100.824
X149.352Y-92.71
X149.959Y-76.192
X150.005Y-81.38
X150.037Y-123.081
X150.368Y-84.836
X151.13Y-85.598
X151.167Y-77.369
X151.19Y-80.134
X151.197Y-78.752
X151.975Y-87.302
X152.294Y-123.137
X152.654Y-90.424
X153.416Y-85.598
X154.178Y-85.09
X154.178Y-101.6
X154.178Y-104.902
X154.778Y-85.765
X154.94Y-104.394
X155.378Y-85.09
X155.86Y-101.134
X155.956Y-104.902
X156.066Y-85.841
X156.21Y-103.632
X156.464Y-101.854
X156.718Y-71.882
X157.226Y-103.124
X160.447Y-71.6
X160.528Y-69.85
X160.706Y-108.123
X163.068Y-98.806
X163.785Y-93.126
X164.172Y-106.884
X165.212Y-99.029
X165.258Y-90.787
X167.361Y-99.067
X168.107Y-92.07
X168.168Y-90.772
X169.033Y-89.222
X169.164Y-98.806
X171.115Y-98.984
X171.367Y-97.279
X171.897Y-87.931
X171.958Y-105.918
X171.958Y-108.204
X171.972Y-98.077
X172.442Y-97.279
X172.72Y-107.188
X172.974Y-109.22
X173.228Y-107.95
X173.235Y-94.206
X173.736Y-106.172
X174.111Y-86.871
X174.244Y-107.188
X174.498Y-98.552
X174.752Y-108.458
X174.761Y-88.17
X175.006Y-106.172
X175.067Y-94.866
X175.514Y-96.52
X175.718Y-91.315
X175.768Y-109.22
X176.022Y-97.79
X176.022Y-107.442
X176.445Y-94.866
X176.53Y-106.172
X176.53Y-108.204
X176.948Y-86.768
X177.017Y-88.136
X177.038Y-96.774
X177.292Y-107.188
X177.8Y-76.2
X177.915Y-94.877
X178.054Y-98.044
X178.264Y-91.332
X178.816Y-104.454
X179.07Y-96.266
X179.222Y-108.302
X179.294Y-94.877
X179.324Y-79.756
X179.529Y-88.067
X179.578Y-76.708
X179.578Y-78.486
X179.615Y-86.717
X180.34Y-98.044
X180.525Y-94.855
X180.594Y-77.47
X180.594Y-79.502
X180.743Y-91.366
X181.177Y-107.142
X181.356Y-78.486
X181.356Y-96.52
X181.61Y-76.708
X181.61Y-79.756
X182.097Y-94.832
X182.372Y-97.79
X183.388Y-76.2
X183.598Y-107.011
X183.642Y-96.52
X183.735Y-105.895
X183.758Y-108.272
X183.81Y-104.444
X184.15Y-95.25
X184.15Y-114.3
X184.658Y-97.79
X185.42Y-114.3
X185.928Y-96.52
X186.075Y-108.341
X186.182Y-72.898
X186.187Y-87.758
X186.221Y-86.472
X186.436Y-71.374
X186.436Y-98.298
X187.706Y-97.282
X187.96Y-70.358
X188.514Y-105.687
X188.514Y-106.867
X188.565Y-108.217
X188.591Y-104.445
X188.976Y-70.866
X188.976Y-114.3
X189.738Y-78.74
X190.5Y-81.788
X190.5Y-114.3
X190.838Y-108.268
X191.516Y-80.772
X192.024Y-82.042
X193.197Y-105.687
X193.214Y-106.935
X193.351Y-108.371
X193.383Y-104.454
X194.056Y-83.058
X194.564Y-71.12
X194.564Y-114.3
X195.58Y-83.312
X195.761Y-108.336
X195.834Y-114.3
X196.088Y-70.612
X196.342Y-72.644
X196.342Y-89.154
X196.46Y-76.572
X196.596Y-82.55
X197.612Y-89.154
X197.866Y-76.708
X197.982Y-108.302
X198.119Y-105.927
X198.15Y-104.444
X198.256Y-107.311
X199.644Y-73.152
X199.644Y-74.168
X199.644Y-89.662
X199.644Y-114.3
X199.898Y-77.216
X200.152Y-90.932
X200.406Y-78.486
X200.529Y-108.268
X200.66Y-70.358
X200.66Y-73.152
X200.66Y-74.168
X200.914Y-114.554
X201.93Y-96.266
X202.905Y-107.072
X202.956Y-106.046
X202.987Y-104.449
X203.076Y-108.302
X204.216Y-114.3
X205.232Y-70.358
X205.232Y-73.152
X205.232Y-74.168
X205.232Y-78.486
X205.232Y-90.932
X205.366Y-108.251
X205.74Y-89.916
X205.74Y-114.3
X206.248Y-73.152
X206.248Y-74.168
X206.248Y-77.216
X208.28Y-104.648
X208.28Y-106.426
X208.28Y-108.458
X208.534Y-97.536
T2
X169.388Y-94.559
X169.388Y-95.347
X169.388Y-96.134
X170.038Y-94.559
X170.038Y-95.347
X170.038Y-96.134
X171.338Y-94.559
X171.338Y-95.347
X171.338Y-96.134
X171.988Y-94.559
X171.988Y-95.347
X171.988Y-96.134
X190.72Y-73.367
X190.72Y-74.667
X190.72Y-75.967
X192.02Y-73.367
X192.02Y-74.667
X192.02Y-75.967
T3
X190.72Y-85.813
X190.72Y-87.113
X190.72Y-88.413
X192.02Y-85.813
X192.02Y-87.113
X192.02Y-88.413
T5
X114.554Y-104.14
X119.126Y-104.14
X123.698Y-104.14
X128.27Y-104.14
X182.424Y-118.11
X185.924Y-123.11
X189.424Y-118.11
X192.924Y-123.11
X196.424Y-118.11
X199.924Y-123.11
X203.424Y-118.11
X206.924Y-123.11
X210.424Y-118.11
X212.958Y-75.398
X212.958Y-82.398
X212.958Y-92.388
X212.958Y-106.104
X213.924Y-123.11
X217.424Y-118.11
X217.958Y-71.898
X217.958Y-78.898
X217.958Y-88.888
X217.958Y-95.888
X217.958Y-102.604
X217.958Y-109.604
X220.924Y-123.11
T6
X165.1Y-76.2
X165.1Y-78.74
X165.1Y-81.28
X167.64Y-76.2
X167.64Y-78.74
X167.64Y-81.28
T7
X121.168Y-117.095
X121.168Y-119.635
X121.168Y-122.175
X121.168Y-124.715
X121.168Y-127.255
X121.168Y-129.795
X141.105Y-117.136
X141.105Y-119.676
X141.105Y-122.216
X141.105Y-124.756
X141.105Y-127.296
X141.105Y-129.836
T4
X174.0Y-72.124G85X174.0Y-70.624
G05
X174.4Y-79.274G85X174.4Y-78.074
G05
X177.8Y-79.274G85X177.8Y-78.074
G05
X183.0Y-79.274G85X183.0Y-78.074
G05
X183.9Y-72.124G85X183.9Y-70.624
G05
M30
