%TF.GenerationSoftware,KiCad,Pcbnew,9.0.0*%
%TF.CreationDate,2025-03-04T12:57:17-06:00*%
%TF.ProjectId,PCB,5043422e-6b69-4636-9164-5f7063625858,rev?*%
%TF.SameCoordinates,Original*%
%TF.FileFunction,Drillmap*%
%TF.FilePolarity,Positive*%
%FSLAX45Y45*%
G04 Gerber Fmt 4.5, Leading zero omitted, Abs format (unit mm)*
G04 Created by KiCad (PCBNEW 9.0.0) date 2025-03-04 12:57:17*
%MOMM*%
%LPD*%
G01*
G04 APERTURE LIST*
%ADD10C,0.050000*%
%ADD11C,0.010000*%
%ADD12C,0.200000*%
%ADD13C,0.100000*%
%ADD14C,0.130000*%
%ADD15C,0.320000*%
G04 APERTURE END LIST*
D10*
X10536200Y-13385800D02*
G75*
G02*
X10236200Y-13085800I0J300000D01*
G01*
X10236200Y-13085800D02*
X10236200Y-7183400D01*
X23241000Y-13085800D02*
G75*
G02*
X22941000Y-13385800I-300000J0D01*
G01*
X23241000Y-7183400D02*
X23241000Y-13085800D01*
X10536200Y-6883400D02*
X22941000Y-6883400D01*
X10236200Y-7183400D02*
G75*
G02*
X10536200Y-6883400I300000J0D01*
G01*
X22941000Y-13385800D02*
X10536200Y-13385800D01*
X22941000Y-6883400D02*
G75*
G02*
X23241000Y-7183400I0J-300000D01*
G01*
D11*
X17680000Y-7147400D02*
X17860000Y-7147400D01*
X17680000Y-7327400D02*
X17680000Y-7147400D01*
X17860000Y-7147400D02*
X17860000Y-7327400D01*
X17860000Y-7327400D02*
X17680000Y-7327400D01*
D12*
D13*
X16510800Y-12416800D02*
X16610800Y-12516800D01*
X16610800Y-12416800D02*
X16510800Y-12516800D01*
D14*
X16625800Y-11717800D02*
G75*
G02*
X16495800Y-11717800I-65000J0D01*
G01*
X16495800Y-11717800D02*
G75*
G02*
X16625800Y-11717800I65000J0D01*
G01*
D15*
X10820400Y-12489200D02*
X10820400Y-12809200D01*
X10660400Y-12649200D02*
X10980400Y-12649200D01*
X11455400Y-7993400D02*
X11455400Y-8313400D01*
X11295400Y-8153400D02*
X11615400Y-8153400D01*
X22786030Y-12743200D02*
X22786030Y-13063200D01*
X22626030Y-12903200D02*
X22946030Y-12903200D01*
D12*
X10494477Y-13699784D02*
X10494477Y-13499784D01*
X10494477Y-13499784D02*
X10542096Y-13499784D01*
X10542096Y-13499784D02*
X10570667Y-13509308D01*
X10570667Y-13509308D02*
X10589715Y-13528355D01*
X10589715Y-13528355D02*
X10599239Y-13547403D01*
X10599239Y-13547403D02*
X10608763Y-13585498D01*
X10608763Y-13585498D02*
X10608763Y-13614069D01*
X10608763Y-13614069D02*
X10599239Y-13652165D01*
X10599239Y-13652165D02*
X10589715Y-13671212D01*
X10589715Y-13671212D02*
X10570667Y-13690260D01*
X10570667Y-13690260D02*
X10542096Y-13699784D01*
X10542096Y-13699784D02*
X10494477Y-13699784D01*
X10694477Y-13699784D02*
X10694477Y-13566450D01*
X10694477Y-13604546D02*
X10704001Y-13585498D01*
X10704001Y-13585498D02*
X10713524Y-13575974D01*
X10713524Y-13575974D02*
X10732572Y-13566450D01*
X10732572Y-13566450D02*
X10751620Y-13566450D01*
X10818286Y-13699784D02*
X10818286Y-13566450D01*
X10818286Y-13499784D02*
X10808763Y-13509308D01*
X10808763Y-13509308D02*
X10818286Y-13518831D01*
X10818286Y-13518831D02*
X10827810Y-13509308D01*
X10827810Y-13509308D02*
X10818286Y-13499784D01*
X10818286Y-13499784D02*
X10818286Y-13518831D01*
X10942096Y-13699784D02*
X10923048Y-13690260D01*
X10923048Y-13690260D02*
X10913524Y-13671212D01*
X10913524Y-13671212D02*
X10913524Y-13499784D01*
X11046858Y-13699784D02*
X11027810Y-13690260D01*
X11027810Y-13690260D02*
X11018286Y-13671212D01*
X11018286Y-13671212D02*
X11018286Y-13499784D01*
X11275429Y-13699784D02*
X11275429Y-13499784D01*
X11275429Y-13499784D02*
X11342096Y-13642641D01*
X11342096Y-13642641D02*
X11408762Y-13499784D01*
X11408762Y-13499784D02*
X11408762Y-13699784D01*
X11589715Y-13699784D02*
X11589715Y-13595022D01*
X11589715Y-13595022D02*
X11580191Y-13575974D01*
X11580191Y-13575974D02*
X11561143Y-13566450D01*
X11561143Y-13566450D02*
X11523048Y-13566450D01*
X11523048Y-13566450D02*
X11504001Y-13575974D01*
X11589715Y-13690260D02*
X11570667Y-13699784D01*
X11570667Y-13699784D02*
X11523048Y-13699784D01*
X11523048Y-13699784D02*
X11504001Y-13690260D01*
X11504001Y-13690260D02*
X11494477Y-13671212D01*
X11494477Y-13671212D02*
X11494477Y-13652165D01*
X11494477Y-13652165D02*
X11504001Y-13633117D01*
X11504001Y-13633117D02*
X11523048Y-13623593D01*
X11523048Y-13623593D02*
X11570667Y-13623593D01*
X11570667Y-13623593D02*
X11589715Y-13614069D01*
X11684953Y-13566450D02*
X11684953Y-13766450D01*
X11684953Y-13575974D02*
X11704001Y-13566450D01*
X11704001Y-13566450D02*
X11742096Y-13566450D01*
X11742096Y-13566450D02*
X11761143Y-13575974D01*
X11761143Y-13575974D02*
X11770667Y-13585498D01*
X11770667Y-13585498D02*
X11780191Y-13604546D01*
X11780191Y-13604546D02*
X11780191Y-13661688D01*
X11780191Y-13661688D02*
X11770667Y-13680736D01*
X11770667Y-13680736D02*
X11761143Y-13690260D01*
X11761143Y-13690260D02*
X11742096Y-13699784D01*
X11742096Y-13699784D02*
X11704001Y-13699784D01*
X11704001Y-13699784D02*
X11684953Y-13690260D01*
X11865905Y-13680736D02*
X11875429Y-13690260D01*
X11875429Y-13690260D02*
X11865905Y-13699784D01*
X11865905Y-13699784D02*
X11856382Y-13690260D01*
X11856382Y-13690260D02*
X11865905Y-13680736D01*
X11865905Y-13680736D02*
X11865905Y-13699784D01*
X11865905Y-13575974D02*
X11875429Y-13585498D01*
X11875429Y-13585498D02*
X11865905Y-13595022D01*
X11865905Y-13595022D02*
X11856382Y-13585498D01*
X11856382Y-13585498D02*
X11865905Y-13575974D01*
X11865905Y-13575974D02*
X11865905Y-13595022D01*
D13*
X10133700Y-13978300D02*
X10233700Y-14078300D01*
X10233700Y-13978300D02*
X10133700Y-14078300D01*
D12*
X10599239Y-14119784D02*
X10484953Y-14119784D01*
X10542096Y-14119784D02*
X10542096Y-13919784D01*
X10542096Y-13919784D02*
X10523048Y-13948355D01*
X10523048Y-13948355D02*
X10504001Y-13967403D01*
X10504001Y-13967403D02*
X10484953Y-13976927D01*
X10684953Y-14100736D02*
X10694477Y-14110260D01*
X10694477Y-14110260D02*
X10684953Y-14119784D01*
X10684953Y-14119784D02*
X10675429Y-14110260D01*
X10675429Y-14110260D02*
X10684953Y-14100736D01*
X10684953Y-14100736D02*
X10684953Y-14119784D01*
X10818286Y-13919784D02*
X10837334Y-13919784D01*
X10837334Y-13919784D02*
X10856382Y-13929308D01*
X10856382Y-13929308D02*
X10865905Y-13938831D01*
X10865905Y-13938831D02*
X10875429Y-13957879D01*
X10875429Y-13957879D02*
X10884953Y-13995974D01*
X10884953Y-13995974D02*
X10884953Y-14043593D01*
X10884953Y-14043593D02*
X10875429Y-14081688D01*
X10875429Y-14081688D02*
X10865905Y-14100736D01*
X10865905Y-14100736D02*
X10856382Y-14110260D01*
X10856382Y-14110260D02*
X10837334Y-14119784D01*
X10837334Y-14119784D02*
X10818286Y-14119784D01*
X10818286Y-14119784D02*
X10799239Y-14110260D01*
X10799239Y-14110260D02*
X10789715Y-14100736D01*
X10789715Y-14100736D02*
X10780191Y-14081688D01*
X10780191Y-14081688D02*
X10770667Y-14043593D01*
X10770667Y-14043593D02*
X10770667Y-13995974D01*
X10770667Y-13995974D02*
X10780191Y-13957879D01*
X10780191Y-13957879D02*
X10789715Y-13938831D01*
X10789715Y-13938831D02*
X10799239Y-13929308D01*
X10799239Y-13929308D02*
X10818286Y-13919784D01*
X11008763Y-13919784D02*
X11027810Y-13919784D01*
X11027810Y-13919784D02*
X11046858Y-13929308D01*
X11046858Y-13929308D02*
X11056382Y-13938831D01*
X11056382Y-13938831D02*
X11065905Y-13957879D01*
X11065905Y-13957879D02*
X11075429Y-13995974D01*
X11075429Y-13995974D02*
X11075429Y-14043593D01*
X11075429Y-14043593D02*
X11065905Y-14081688D01*
X11065905Y-14081688D02*
X11056382Y-14100736D01*
X11056382Y-14100736D02*
X11046858Y-14110260D01*
X11046858Y-14110260D02*
X11027810Y-14119784D01*
X11027810Y-14119784D02*
X11008763Y-14119784D01*
X11008763Y-14119784D02*
X10989715Y-14110260D01*
X10989715Y-14110260D02*
X10980191Y-14100736D01*
X10980191Y-14100736D02*
X10970667Y-14081688D01*
X10970667Y-14081688D02*
X10961144Y-14043593D01*
X10961144Y-14043593D02*
X10961144Y-13995974D01*
X10961144Y-13995974D02*
X10970667Y-13957879D01*
X10970667Y-13957879D02*
X10980191Y-13938831D01*
X10980191Y-13938831D02*
X10989715Y-13929308D01*
X10989715Y-13929308D02*
X11008763Y-13919784D01*
X11199239Y-13919784D02*
X11218286Y-13919784D01*
X11218286Y-13919784D02*
X11237334Y-13929308D01*
X11237334Y-13929308D02*
X11246858Y-13938831D01*
X11246858Y-13938831D02*
X11256382Y-13957879D01*
X11256382Y-13957879D02*
X11265905Y-13995974D01*
X11265905Y-13995974D02*
X11265905Y-14043593D01*
X11265905Y-14043593D02*
X11256382Y-14081688D01*
X11256382Y-14081688D02*
X11246858Y-14100736D01*
X11246858Y-14100736D02*
X11237334Y-14110260D01*
X11237334Y-14110260D02*
X11218286Y-14119784D01*
X11218286Y-14119784D02*
X11199239Y-14119784D01*
X11199239Y-14119784D02*
X11180191Y-14110260D01*
X11180191Y-14110260D02*
X11170667Y-14100736D01*
X11170667Y-14100736D02*
X11161144Y-14081688D01*
X11161144Y-14081688D02*
X11151620Y-14043593D01*
X11151620Y-14043593D02*
X11151620Y-13995974D01*
X11151620Y-13995974D02*
X11161144Y-13957879D01*
X11161144Y-13957879D02*
X11170667Y-13938831D01*
X11170667Y-13938831D02*
X11180191Y-13929308D01*
X11180191Y-13929308D02*
X11199239Y-13919784D01*
X11351620Y-14119784D02*
X11351620Y-13986450D01*
X11351620Y-14005498D02*
X11361143Y-13995974D01*
X11361143Y-13995974D02*
X11380191Y-13986450D01*
X11380191Y-13986450D02*
X11408763Y-13986450D01*
X11408763Y-13986450D02*
X11427810Y-13995974D01*
X11427810Y-13995974D02*
X11437334Y-14015022D01*
X11437334Y-14015022D02*
X11437334Y-14119784D01*
X11437334Y-14015022D02*
X11446858Y-13995974D01*
X11446858Y-13995974D02*
X11465905Y-13986450D01*
X11465905Y-13986450D02*
X11494477Y-13986450D01*
X11494477Y-13986450D02*
X11513524Y-13995974D01*
X11513524Y-13995974D02*
X11523048Y-14015022D01*
X11523048Y-14015022D02*
X11523048Y-14119784D01*
X11618286Y-14119784D02*
X11618286Y-13986450D01*
X11618286Y-14005498D02*
X11627810Y-13995974D01*
X11627810Y-13995974D02*
X11646858Y-13986450D01*
X11646858Y-13986450D02*
X11675429Y-13986450D01*
X11675429Y-13986450D02*
X11694477Y-13995974D01*
X11694477Y-13995974D02*
X11704001Y-14015022D01*
X11704001Y-14015022D02*
X11704001Y-14119784D01*
X11704001Y-14015022D02*
X11713524Y-13995974D01*
X11713524Y-13995974D02*
X11732572Y-13986450D01*
X11732572Y-13986450D02*
X11761143Y-13986450D01*
X11761143Y-13986450D02*
X11780191Y-13995974D01*
X11780191Y-13995974D02*
X11789715Y-14015022D01*
X11789715Y-14015022D02*
X11789715Y-14119784D01*
X12180191Y-13910260D02*
X12008763Y-14167403D01*
X12437334Y-13919784D02*
X12456382Y-13919784D01*
X12456382Y-13919784D02*
X12475429Y-13929308D01*
X12475429Y-13929308D02*
X12484953Y-13938831D01*
X12484953Y-13938831D02*
X12494477Y-13957879D01*
X12494477Y-13957879D02*
X12504001Y-13995974D01*
X12504001Y-13995974D02*
X12504001Y-14043593D01*
X12504001Y-14043593D02*
X12494477Y-14081688D01*
X12494477Y-14081688D02*
X12484953Y-14100736D01*
X12484953Y-14100736D02*
X12475429Y-14110260D01*
X12475429Y-14110260D02*
X12456382Y-14119784D01*
X12456382Y-14119784D02*
X12437334Y-14119784D01*
X12437334Y-14119784D02*
X12418286Y-14110260D01*
X12418286Y-14110260D02*
X12408763Y-14100736D01*
X12408763Y-14100736D02*
X12399239Y-14081688D01*
X12399239Y-14081688D02*
X12389715Y-14043593D01*
X12389715Y-14043593D02*
X12389715Y-13995974D01*
X12389715Y-13995974D02*
X12399239Y-13957879D01*
X12399239Y-13957879D02*
X12408763Y-13938831D01*
X12408763Y-13938831D02*
X12418286Y-13929308D01*
X12418286Y-13929308D02*
X12437334Y-13919784D01*
X12589715Y-14100736D02*
X12599239Y-14110260D01*
X12599239Y-14110260D02*
X12589715Y-14119784D01*
X12589715Y-14119784D02*
X12580191Y-14110260D01*
X12580191Y-14110260D02*
X12589715Y-14100736D01*
X12589715Y-14100736D02*
X12589715Y-14119784D01*
X12723048Y-13919784D02*
X12742096Y-13919784D01*
X12742096Y-13919784D02*
X12761144Y-13929308D01*
X12761144Y-13929308D02*
X12770667Y-13938831D01*
X12770667Y-13938831D02*
X12780191Y-13957879D01*
X12780191Y-13957879D02*
X12789715Y-13995974D01*
X12789715Y-13995974D02*
X12789715Y-14043593D01*
X12789715Y-14043593D02*
X12780191Y-14081688D01*
X12780191Y-14081688D02*
X12770667Y-14100736D01*
X12770667Y-14100736D02*
X12761144Y-14110260D01*
X12761144Y-14110260D02*
X12742096Y-14119784D01*
X12742096Y-14119784D02*
X12723048Y-14119784D01*
X12723048Y-14119784D02*
X12704001Y-14110260D01*
X12704001Y-14110260D02*
X12694477Y-14100736D01*
X12694477Y-14100736D02*
X12684953Y-14081688D01*
X12684953Y-14081688D02*
X12675429Y-14043593D01*
X12675429Y-14043593D02*
X12675429Y-13995974D01*
X12675429Y-13995974D02*
X12684953Y-13957879D01*
X12684953Y-13957879D02*
X12694477Y-13938831D01*
X12694477Y-13938831D02*
X12704001Y-13929308D01*
X12704001Y-13929308D02*
X12723048Y-13919784D01*
X12856382Y-13919784D02*
X12980191Y-13919784D01*
X12980191Y-13919784D02*
X12913525Y-13995974D01*
X12913525Y-13995974D02*
X12942096Y-13995974D01*
X12942096Y-13995974D02*
X12961144Y-14005498D01*
X12961144Y-14005498D02*
X12970667Y-14015022D01*
X12970667Y-14015022D02*
X12980191Y-14034069D01*
X12980191Y-14034069D02*
X12980191Y-14081688D01*
X12980191Y-14081688D02*
X12970667Y-14100736D01*
X12970667Y-14100736D02*
X12961144Y-14110260D01*
X12961144Y-14110260D02*
X12942096Y-14119784D01*
X12942096Y-14119784D02*
X12884953Y-14119784D01*
X12884953Y-14119784D02*
X12865906Y-14110260D01*
X12865906Y-14110260D02*
X12856382Y-14100736D01*
X13075429Y-14119784D02*
X13113525Y-14119784D01*
X13113525Y-14119784D02*
X13132572Y-14110260D01*
X13132572Y-14110260D02*
X13142096Y-14100736D01*
X13142096Y-14100736D02*
X13161144Y-14072165D01*
X13161144Y-14072165D02*
X13170667Y-14034069D01*
X13170667Y-14034069D02*
X13170667Y-13957879D01*
X13170667Y-13957879D02*
X13161144Y-13938831D01*
X13161144Y-13938831D02*
X13151620Y-13929308D01*
X13151620Y-13929308D02*
X13132572Y-13919784D01*
X13132572Y-13919784D02*
X13094477Y-13919784D01*
X13094477Y-13919784D02*
X13075429Y-13929308D01*
X13075429Y-13929308D02*
X13065906Y-13938831D01*
X13065906Y-13938831D02*
X13056382Y-13957879D01*
X13056382Y-13957879D02*
X13056382Y-14005498D01*
X13056382Y-14005498D02*
X13065906Y-14024546D01*
X13065906Y-14024546D02*
X13075429Y-14034069D01*
X13075429Y-14034069D02*
X13094477Y-14043593D01*
X13094477Y-14043593D02*
X13132572Y-14043593D01*
X13132572Y-14043593D02*
X13151620Y-14034069D01*
X13151620Y-14034069D02*
X13161144Y-14024546D01*
X13161144Y-14024546D02*
X13170667Y-14005498D01*
X13342096Y-13986450D02*
X13342096Y-14119784D01*
X13294477Y-13910260D02*
X13246858Y-14053117D01*
X13246858Y-14053117D02*
X13370667Y-14053117D01*
X13437334Y-13919784D02*
X13437334Y-13957879D01*
X13513525Y-13919784D02*
X13513525Y-13957879D01*
X13808763Y-14195974D02*
X13799239Y-14186450D01*
X13799239Y-14186450D02*
X13780191Y-14157879D01*
X13780191Y-14157879D02*
X13770668Y-14138831D01*
X13770668Y-14138831D02*
X13761144Y-14110260D01*
X13761144Y-14110260D02*
X13751620Y-14062641D01*
X13751620Y-14062641D02*
X13751620Y-14024546D01*
X13751620Y-14024546D02*
X13761144Y-13976927D01*
X13761144Y-13976927D02*
X13770668Y-13948355D01*
X13770668Y-13948355D02*
X13780191Y-13929308D01*
X13780191Y-13929308D02*
X13799239Y-13900736D01*
X13799239Y-13900736D02*
X13808763Y-13891212D01*
X13989715Y-14119784D02*
X13875429Y-14119784D01*
X13932572Y-14119784D02*
X13932572Y-13919784D01*
X13932572Y-13919784D02*
X13913525Y-13948355D01*
X13913525Y-13948355D02*
X13894477Y-13967403D01*
X13894477Y-13967403D02*
X13875429Y-13976927D01*
X14227810Y-14119784D02*
X14227810Y-13919784D01*
X14313525Y-14119784D02*
X14313525Y-14015022D01*
X14313525Y-14015022D02*
X14304001Y-13995974D01*
X14304001Y-13995974D02*
X14284953Y-13986450D01*
X14284953Y-13986450D02*
X14256382Y-13986450D01*
X14256382Y-13986450D02*
X14237334Y-13995974D01*
X14237334Y-13995974D02*
X14227810Y-14005498D01*
X14437334Y-14119784D02*
X14418287Y-14110260D01*
X14418287Y-14110260D02*
X14408763Y-14100736D01*
X14408763Y-14100736D02*
X14399239Y-14081688D01*
X14399239Y-14081688D02*
X14399239Y-14024546D01*
X14399239Y-14024546D02*
X14408763Y-14005498D01*
X14408763Y-14005498D02*
X14418287Y-13995974D01*
X14418287Y-13995974D02*
X14437334Y-13986450D01*
X14437334Y-13986450D02*
X14465906Y-13986450D01*
X14465906Y-13986450D02*
X14484953Y-13995974D01*
X14484953Y-13995974D02*
X14494477Y-14005498D01*
X14494477Y-14005498D02*
X14504001Y-14024546D01*
X14504001Y-14024546D02*
X14504001Y-14081688D01*
X14504001Y-14081688D02*
X14494477Y-14100736D01*
X14494477Y-14100736D02*
X14484953Y-14110260D01*
X14484953Y-14110260D02*
X14465906Y-14119784D01*
X14465906Y-14119784D02*
X14437334Y-14119784D01*
X14618287Y-14119784D02*
X14599239Y-14110260D01*
X14599239Y-14110260D02*
X14589715Y-14091212D01*
X14589715Y-14091212D02*
X14589715Y-13919784D01*
X14770668Y-14110260D02*
X14751620Y-14119784D01*
X14751620Y-14119784D02*
X14713525Y-14119784D01*
X14713525Y-14119784D02*
X14694477Y-14110260D01*
X14694477Y-14110260D02*
X14684953Y-14091212D01*
X14684953Y-14091212D02*
X14684953Y-14015022D01*
X14684953Y-14015022D02*
X14694477Y-13995974D01*
X14694477Y-13995974D02*
X14713525Y-13986450D01*
X14713525Y-13986450D02*
X14751620Y-13986450D01*
X14751620Y-13986450D02*
X14770668Y-13995974D01*
X14770668Y-13995974D02*
X14780191Y-14015022D01*
X14780191Y-14015022D02*
X14780191Y-14034069D01*
X14780191Y-14034069D02*
X14684953Y-14053117D01*
X14846858Y-14195974D02*
X14856382Y-14186450D01*
X14856382Y-14186450D02*
X14875430Y-14157879D01*
X14875430Y-14157879D02*
X14884953Y-14138831D01*
X14884953Y-14138831D02*
X14894477Y-14110260D01*
X14894477Y-14110260D02*
X14904001Y-14062641D01*
X14904001Y-14062641D02*
X14904001Y-14024546D01*
X14904001Y-14024546D02*
X14894477Y-13976927D01*
X14894477Y-13976927D02*
X14884953Y-13948355D01*
X14884953Y-13948355D02*
X14875430Y-13929308D01*
X14875430Y-13929308D02*
X14856382Y-13900736D01*
X14856382Y-13900736D02*
X14846858Y-13891212D01*
X15208763Y-14195974D02*
X15199239Y-14186450D01*
X15199239Y-14186450D02*
X15180191Y-14157879D01*
X15180191Y-14157879D02*
X15170668Y-14138831D01*
X15170668Y-14138831D02*
X15161144Y-14110260D01*
X15161144Y-14110260D02*
X15151620Y-14062641D01*
X15151620Y-14062641D02*
X15151620Y-14024546D01*
X15151620Y-14024546D02*
X15161144Y-13976927D01*
X15161144Y-13976927D02*
X15170668Y-13948355D01*
X15170668Y-13948355D02*
X15180191Y-13929308D01*
X15180191Y-13929308D02*
X15199239Y-13900736D01*
X15199239Y-13900736D02*
X15208763Y-13891212D01*
X15284953Y-13986450D02*
X15284953Y-14119784D01*
X15284953Y-14005498D02*
X15294477Y-13995974D01*
X15294477Y-13995974D02*
X15313525Y-13986450D01*
X15313525Y-13986450D02*
X15342096Y-13986450D01*
X15342096Y-13986450D02*
X15361144Y-13995974D01*
X15361144Y-13995974D02*
X15370668Y-14015022D01*
X15370668Y-14015022D02*
X15370668Y-14119784D01*
X15494477Y-14119784D02*
X15475430Y-14110260D01*
X15475430Y-14110260D02*
X15465906Y-14100736D01*
X15465906Y-14100736D02*
X15456382Y-14081688D01*
X15456382Y-14081688D02*
X15456382Y-14024546D01*
X15456382Y-14024546D02*
X15465906Y-14005498D01*
X15465906Y-14005498D02*
X15475430Y-13995974D01*
X15475430Y-13995974D02*
X15494477Y-13986450D01*
X15494477Y-13986450D02*
X15523049Y-13986450D01*
X15523049Y-13986450D02*
X15542096Y-13995974D01*
X15542096Y-13995974D02*
X15551620Y-14005498D01*
X15551620Y-14005498D02*
X15561144Y-14024546D01*
X15561144Y-14024546D02*
X15561144Y-14081688D01*
X15561144Y-14081688D02*
X15551620Y-14100736D01*
X15551620Y-14100736D02*
X15542096Y-14110260D01*
X15542096Y-14110260D02*
X15523049Y-14119784D01*
X15523049Y-14119784D02*
X15494477Y-14119784D01*
X15618287Y-13986450D02*
X15694477Y-13986450D01*
X15646858Y-13919784D02*
X15646858Y-14091212D01*
X15646858Y-14091212D02*
X15656382Y-14110260D01*
X15656382Y-14110260D02*
X15675430Y-14119784D01*
X15675430Y-14119784D02*
X15694477Y-14119784D01*
X15913525Y-13986450D02*
X15913525Y-14186450D01*
X15913525Y-13995974D02*
X15932572Y-13986450D01*
X15932572Y-13986450D02*
X15970668Y-13986450D01*
X15970668Y-13986450D02*
X15989715Y-13995974D01*
X15989715Y-13995974D02*
X15999239Y-14005498D01*
X15999239Y-14005498D02*
X16008763Y-14024546D01*
X16008763Y-14024546D02*
X16008763Y-14081688D01*
X16008763Y-14081688D02*
X15999239Y-14100736D01*
X15999239Y-14100736D02*
X15989715Y-14110260D01*
X15989715Y-14110260D02*
X15970668Y-14119784D01*
X15970668Y-14119784D02*
X15932572Y-14119784D01*
X15932572Y-14119784D02*
X15913525Y-14110260D01*
X16123049Y-14119784D02*
X16104001Y-14110260D01*
X16104001Y-14110260D02*
X16094477Y-14091212D01*
X16094477Y-14091212D02*
X16094477Y-13919784D01*
X16284953Y-14119784D02*
X16284953Y-14015022D01*
X16284953Y-14015022D02*
X16275430Y-13995974D01*
X16275430Y-13995974D02*
X16256382Y-13986450D01*
X16256382Y-13986450D02*
X16218287Y-13986450D01*
X16218287Y-13986450D02*
X16199239Y-13995974D01*
X16284953Y-14110260D02*
X16265906Y-14119784D01*
X16265906Y-14119784D02*
X16218287Y-14119784D01*
X16218287Y-14119784D02*
X16199239Y-14110260D01*
X16199239Y-14110260D02*
X16189715Y-14091212D01*
X16189715Y-14091212D02*
X16189715Y-14072165D01*
X16189715Y-14072165D02*
X16199239Y-14053117D01*
X16199239Y-14053117D02*
X16218287Y-14043593D01*
X16218287Y-14043593D02*
X16265906Y-14043593D01*
X16265906Y-14043593D02*
X16284953Y-14034069D01*
X16351620Y-13986450D02*
X16427811Y-13986450D01*
X16380192Y-13919784D02*
X16380192Y-14091212D01*
X16380192Y-14091212D02*
X16389715Y-14110260D01*
X16389715Y-14110260D02*
X16408763Y-14119784D01*
X16408763Y-14119784D02*
X16427811Y-14119784D01*
X16570668Y-14110260D02*
X16551620Y-14119784D01*
X16551620Y-14119784D02*
X16513525Y-14119784D01*
X16513525Y-14119784D02*
X16494477Y-14110260D01*
X16494477Y-14110260D02*
X16484953Y-14091212D01*
X16484953Y-14091212D02*
X16484953Y-14015022D01*
X16484953Y-14015022D02*
X16494477Y-13995974D01*
X16494477Y-13995974D02*
X16513525Y-13986450D01*
X16513525Y-13986450D02*
X16551620Y-13986450D01*
X16551620Y-13986450D02*
X16570668Y-13995974D01*
X16570668Y-13995974D02*
X16580192Y-14015022D01*
X16580192Y-14015022D02*
X16580192Y-14034069D01*
X16580192Y-14034069D02*
X16484953Y-14053117D01*
X16751620Y-14119784D02*
X16751620Y-13919784D01*
X16751620Y-14110260D02*
X16732573Y-14119784D01*
X16732573Y-14119784D02*
X16694477Y-14119784D01*
X16694477Y-14119784D02*
X16675430Y-14110260D01*
X16675430Y-14110260D02*
X16665906Y-14100736D01*
X16665906Y-14100736D02*
X16656382Y-14081688D01*
X16656382Y-14081688D02*
X16656382Y-14024546D01*
X16656382Y-14024546D02*
X16665906Y-14005498D01*
X16665906Y-14005498D02*
X16675430Y-13995974D01*
X16675430Y-13995974D02*
X16694477Y-13986450D01*
X16694477Y-13986450D02*
X16732573Y-13986450D01*
X16732573Y-13986450D02*
X16751620Y-13995974D01*
X16827811Y-14195974D02*
X16837335Y-14186450D01*
X16837335Y-14186450D02*
X16856382Y-14157879D01*
X16856382Y-14157879D02*
X16865906Y-14138831D01*
X16865906Y-14138831D02*
X16875430Y-14110260D01*
X16875430Y-14110260D02*
X16884954Y-14062641D01*
X16884954Y-14062641D02*
X16884954Y-14024546D01*
X16884954Y-14024546D02*
X16875430Y-13976927D01*
X16875430Y-13976927D02*
X16865906Y-13948355D01*
X16865906Y-13948355D02*
X16856382Y-13929308D01*
X16856382Y-13929308D02*
X16837335Y-13900736D01*
X16837335Y-13900736D02*
X16827811Y-13891212D01*
D14*
X10233700Y-14292300D02*
G75*
G02*
X10103700Y-14292300I-65000J0D01*
G01*
X10103700Y-14292300D02*
G75*
G02*
X10233700Y-14292300I65000J0D01*
G01*
D12*
X10599239Y-14383784D02*
X10484953Y-14383784D01*
X10542096Y-14383784D02*
X10542096Y-14183784D01*
X10542096Y-14183784D02*
X10523048Y-14212355D01*
X10523048Y-14212355D02*
X10504001Y-14231403D01*
X10504001Y-14231403D02*
X10484953Y-14240927D01*
X10684953Y-14364736D02*
X10694477Y-14374260D01*
X10694477Y-14374260D02*
X10684953Y-14383784D01*
X10684953Y-14383784D02*
X10675429Y-14374260D01*
X10675429Y-14374260D02*
X10684953Y-14364736D01*
X10684953Y-14364736D02*
X10684953Y-14383784D01*
X10761144Y-14183784D02*
X10884953Y-14183784D01*
X10884953Y-14183784D02*
X10818286Y-14259974D01*
X10818286Y-14259974D02*
X10846858Y-14259974D01*
X10846858Y-14259974D02*
X10865905Y-14269498D01*
X10865905Y-14269498D02*
X10875429Y-14279022D01*
X10875429Y-14279022D02*
X10884953Y-14298069D01*
X10884953Y-14298069D02*
X10884953Y-14345688D01*
X10884953Y-14345688D02*
X10875429Y-14364736D01*
X10875429Y-14364736D02*
X10865905Y-14374260D01*
X10865905Y-14374260D02*
X10846858Y-14383784D01*
X10846858Y-14383784D02*
X10789715Y-14383784D01*
X10789715Y-14383784D02*
X10770667Y-14374260D01*
X10770667Y-14374260D02*
X10761144Y-14364736D01*
X11008763Y-14183784D02*
X11027810Y-14183784D01*
X11027810Y-14183784D02*
X11046858Y-14193308D01*
X11046858Y-14193308D02*
X11056382Y-14202831D01*
X11056382Y-14202831D02*
X11065905Y-14221879D01*
X11065905Y-14221879D02*
X11075429Y-14259974D01*
X11075429Y-14259974D02*
X11075429Y-14307593D01*
X11075429Y-14307593D02*
X11065905Y-14345688D01*
X11065905Y-14345688D02*
X11056382Y-14364736D01*
X11056382Y-14364736D02*
X11046858Y-14374260D01*
X11046858Y-14374260D02*
X11027810Y-14383784D01*
X11027810Y-14383784D02*
X11008763Y-14383784D01*
X11008763Y-14383784D02*
X10989715Y-14374260D01*
X10989715Y-14374260D02*
X10980191Y-14364736D01*
X10980191Y-14364736D02*
X10970667Y-14345688D01*
X10970667Y-14345688D02*
X10961144Y-14307593D01*
X10961144Y-14307593D02*
X10961144Y-14259974D01*
X10961144Y-14259974D02*
X10970667Y-14221879D01*
X10970667Y-14221879D02*
X10980191Y-14202831D01*
X10980191Y-14202831D02*
X10989715Y-14193308D01*
X10989715Y-14193308D02*
X11008763Y-14183784D01*
X11199239Y-14183784D02*
X11218286Y-14183784D01*
X11218286Y-14183784D02*
X11237334Y-14193308D01*
X11237334Y-14193308D02*
X11246858Y-14202831D01*
X11246858Y-14202831D02*
X11256382Y-14221879D01*
X11256382Y-14221879D02*
X11265905Y-14259974D01*
X11265905Y-14259974D02*
X11265905Y-14307593D01*
X11265905Y-14307593D02*
X11256382Y-14345688D01*
X11256382Y-14345688D02*
X11246858Y-14364736D01*
X11246858Y-14364736D02*
X11237334Y-14374260D01*
X11237334Y-14374260D02*
X11218286Y-14383784D01*
X11218286Y-14383784D02*
X11199239Y-14383784D01*
X11199239Y-14383784D02*
X11180191Y-14374260D01*
X11180191Y-14374260D02*
X11170667Y-14364736D01*
X11170667Y-14364736D02*
X11161144Y-14345688D01*
X11161144Y-14345688D02*
X11151620Y-14307593D01*
X11151620Y-14307593D02*
X11151620Y-14259974D01*
X11151620Y-14259974D02*
X11161144Y-14221879D01*
X11161144Y-14221879D02*
X11170667Y-14202831D01*
X11170667Y-14202831D02*
X11180191Y-14193308D01*
X11180191Y-14193308D02*
X11199239Y-14183784D01*
X11351620Y-14383784D02*
X11351620Y-14250450D01*
X11351620Y-14269498D02*
X11361143Y-14259974D01*
X11361143Y-14259974D02*
X11380191Y-14250450D01*
X11380191Y-14250450D02*
X11408763Y-14250450D01*
X11408763Y-14250450D02*
X11427810Y-14259974D01*
X11427810Y-14259974D02*
X11437334Y-14279022D01*
X11437334Y-14279022D02*
X11437334Y-14383784D01*
X11437334Y-14279022D02*
X11446858Y-14259974D01*
X11446858Y-14259974D02*
X11465905Y-14250450D01*
X11465905Y-14250450D02*
X11494477Y-14250450D01*
X11494477Y-14250450D02*
X11513524Y-14259974D01*
X11513524Y-14259974D02*
X11523048Y-14279022D01*
X11523048Y-14279022D02*
X11523048Y-14383784D01*
X11618286Y-14383784D02*
X11618286Y-14250450D01*
X11618286Y-14269498D02*
X11627810Y-14259974D01*
X11627810Y-14259974D02*
X11646858Y-14250450D01*
X11646858Y-14250450D02*
X11675429Y-14250450D01*
X11675429Y-14250450D02*
X11694477Y-14259974D01*
X11694477Y-14259974D02*
X11704001Y-14279022D01*
X11704001Y-14279022D02*
X11704001Y-14383784D01*
X11704001Y-14279022D02*
X11713524Y-14259974D01*
X11713524Y-14259974D02*
X11732572Y-14250450D01*
X11732572Y-14250450D02*
X11761143Y-14250450D01*
X11761143Y-14250450D02*
X11780191Y-14259974D01*
X11780191Y-14259974D02*
X11789715Y-14279022D01*
X11789715Y-14279022D02*
X11789715Y-14383784D01*
X12180191Y-14174260D02*
X12008763Y-14431403D01*
X12437334Y-14183784D02*
X12456382Y-14183784D01*
X12456382Y-14183784D02*
X12475429Y-14193308D01*
X12475429Y-14193308D02*
X12484953Y-14202831D01*
X12484953Y-14202831D02*
X12494477Y-14221879D01*
X12494477Y-14221879D02*
X12504001Y-14259974D01*
X12504001Y-14259974D02*
X12504001Y-14307593D01*
X12504001Y-14307593D02*
X12494477Y-14345688D01*
X12494477Y-14345688D02*
X12484953Y-14364736D01*
X12484953Y-14364736D02*
X12475429Y-14374260D01*
X12475429Y-14374260D02*
X12456382Y-14383784D01*
X12456382Y-14383784D02*
X12437334Y-14383784D01*
X12437334Y-14383784D02*
X12418286Y-14374260D01*
X12418286Y-14374260D02*
X12408763Y-14364736D01*
X12408763Y-14364736D02*
X12399239Y-14345688D01*
X12399239Y-14345688D02*
X12389715Y-14307593D01*
X12389715Y-14307593D02*
X12389715Y-14259974D01*
X12389715Y-14259974D02*
X12399239Y-14221879D01*
X12399239Y-14221879D02*
X12408763Y-14202831D01*
X12408763Y-14202831D02*
X12418286Y-14193308D01*
X12418286Y-14193308D02*
X12437334Y-14183784D01*
X12589715Y-14364736D02*
X12599239Y-14374260D01*
X12599239Y-14374260D02*
X12589715Y-14383784D01*
X12589715Y-14383784D02*
X12580191Y-14374260D01*
X12580191Y-14374260D02*
X12589715Y-14364736D01*
X12589715Y-14364736D02*
X12589715Y-14383784D01*
X12723048Y-14183784D02*
X12742096Y-14183784D01*
X12742096Y-14183784D02*
X12761144Y-14193308D01*
X12761144Y-14193308D02*
X12770667Y-14202831D01*
X12770667Y-14202831D02*
X12780191Y-14221879D01*
X12780191Y-14221879D02*
X12789715Y-14259974D01*
X12789715Y-14259974D02*
X12789715Y-14307593D01*
X12789715Y-14307593D02*
X12780191Y-14345688D01*
X12780191Y-14345688D02*
X12770667Y-14364736D01*
X12770667Y-14364736D02*
X12761144Y-14374260D01*
X12761144Y-14374260D02*
X12742096Y-14383784D01*
X12742096Y-14383784D02*
X12723048Y-14383784D01*
X12723048Y-14383784D02*
X12704001Y-14374260D01*
X12704001Y-14374260D02*
X12694477Y-14364736D01*
X12694477Y-14364736D02*
X12684953Y-14345688D01*
X12684953Y-14345688D02*
X12675429Y-14307593D01*
X12675429Y-14307593D02*
X12675429Y-14259974D01*
X12675429Y-14259974D02*
X12684953Y-14221879D01*
X12684953Y-14221879D02*
X12694477Y-14202831D01*
X12694477Y-14202831D02*
X12704001Y-14193308D01*
X12704001Y-14193308D02*
X12723048Y-14183784D01*
X12970667Y-14183784D02*
X12875429Y-14183784D01*
X12875429Y-14183784D02*
X12865906Y-14279022D01*
X12865906Y-14279022D02*
X12875429Y-14269498D01*
X12875429Y-14269498D02*
X12894477Y-14259974D01*
X12894477Y-14259974D02*
X12942096Y-14259974D01*
X12942096Y-14259974D02*
X12961144Y-14269498D01*
X12961144Y-14269498D02*
X12970667Y-14279022D01*
X12970667Y-14279022D02*
X12980191Y-14298069D01*
X12980191Y-14298069D02*
X12980191Y-14345688D01*
X12980191Y-14345688D02*
X12970667Y-14364736D01*
X12970667Y-14364736D02*
X12961144Y-14374260D01*
X12961144Y-14374260D02*
X12942096Y-14383784D01*
X12942096Y-14383784D02*
X12894477Y-14383784D01*
X12894477Y-14383784D02*
X12875429Y-14374260D01*
X12875429Y-14374260D02*
X12865906Y-14364736D01*
X13170667Y-14383784D02*
X13056382Y-14383784D01*
X13113525Y-14383784D02*
X13113525Y-14183784D01*
X13113525Y-14183784D02*
X13094477Y-14212355D01*
X13094477Y-14212355D02*
X13075429Y-14231403D01*
X13075429Y-14231403D02*
X13056382Y-14240927D01*
X13246858Y-14202831D02*
X13256382Y-14193308D01*
X13256382Y-14193308D02*
X13275429Y-14183784D01*
X13275429Y-14183784D02*
X13323048Y-14183784D01*
X13323048Y-14183784D02*
X13342096Y-14193308D01*
X13342096Y-14193308D02*
X13351620Y-14202831D01*
X13351620Y-14202831D02*
X13361144Y-14221879D01*
X13361144Y-14221879D02*
X13361144Y-14240927D01*
X13361144Y-14240927D02*
X13351620Y-14269498D01*
X13351620Y-14269498D02*
X13237334Y-14383784D01*
X13237334Y-14383784D02*
X13361144Y-14383784D01*
X13437334Y-14183784D02*
X13437334Y-14221879D01*
X13513525Y-14183784D02*
X13513525Y-14221879D01*
X13808763Y-14459974D02*
X13799239Y-14450450D01*
X13799239Y-14450450D02*
X13780191Y-14421879D01*
X13780191Y-14421879D02*
X13770668Y-14402831D01*
X13770668Y-14402831D02*
X13761144Y-14374260D01*
X13761144Y-14374260D02*
X13751620Y-14326641D01*
X13751620Y-14326641D02*
X13751620Y-14288546D01*
X13751620Y-14288546D02*
X13761144Y-14240927D01*
X13761144Y-14240927D02*
X13770668Y-14212355D01*
X13770668Y-14212355D02*
X13780191Y-14193308D01*
X13780191Y-14193308D02*
X13799239Y-14164736D01*
X13799239Y-14164736D02*
X13808763Y-14155212D01*
X13989715Y-14383784D02*
X13875429Y-14383784D01*
X13932572Y-14383784D02*
X13932572Y-14183784D01*
X13932572Y-14183784D02*
X13913525Y-14212355D01*
X13913525Y-14212355D02*
X13894477Y-14231403D01*
X13894477Y-14231403D02*
X13875429Y-14240927D01*
X14227810Y-14383784D02*
X14227810Y-14183784D01*
X14313525Y-14383784D02*
X14313525Y-14279022D01*
X14313525Y-14279022D02*
X14304001Y-14259974D01*
X14304001Y-14259974D02*
X14284953Y-14250450D01*
X14284953Y-14250450D02*
X14256382Y-14250450D01*
X14256382Y-14250450D02*
X14237334Y-14259974D01*
X14237334Y-14259974D02*
X14227810Y-14269498D01*
X14437334Y-14383784D02*
X14418287Y-14374260D01*
X14418287Y-14374260D02*
X14408763Y-14364736D01*
X14408763Y-14364736D02*
X14399239Y-14345688D01*
X14399239Y-14345688D02*
X14399239Y-14288546D01*
X14399239Y-14288546D02*
X14408763Y-14269498D01*
X14408763Y-14269498D02*
X14418287Y-14259974D01*
X14418287Y-14259974D02*
X14437334Y-14250450D01*
X14437334Y-14250450D02*
X14465906Y-14250450D01*
X14465906Y-14250450D02*
X14484953Y-14259974D01*
X14484953Y-14259974D02*
X14494477Y-14269498D01*
X14494477Y-14269498D02*
X14504001Y-14288546D01*
X14504001Y-14288546D02*
X14504001Y-14345688D01*
X14504001Y-14345688D02*
X14494477Y-14364736D01*
X14494477Y-14364736D02*
X14484953Y-14374260D01*
X14484953Y-14374260D02*
X14465906Y-14383784D01*
X14465906Y-14383784D02*
X14437334Y-14383784D01*
X14618287Y-14383784D02*
X14599239Y-14374260D01*
X14599239Y-14374260D02*
X14589715Y-14355212D01*
X14589715Y-14355212D02*
X14589715Y-14183784D01*
X14770668Y-14374260D02*
X14751620Y-14383784D01*
X14751620Y-14383784D02*
X14713525Y-14383784D01*
X14713525Y-14383784D02*
X14694477Y-14374260D01*
X14694477Y-14374260D02*
X14684953Y-14355212D01*
X14684953Y-14355212D02*
X14684953Y-14279022D01*
X14684953Y-14279022D02*
X14694477Y-14259974D01*
X14694477Y-14259974D02*
X14713525Y-14250450D01*
X14713525Y-14250450D02*
X14751620Y-14250450D01*
X14751620Y-14250450D02*
X14770668Y-14259974D01*
X14770668Y-14259974D02*
X14780191Y-14279022D01*
X14780191Y-14279022D02*
X14780191Y-14298069D01*
X14780191Y-14298069D02*
X14684953Y-14317117D01*
X14846858Y-14459974D02*
X14856382Y-14450450D01*
X14856382Y-14450450D02*
X14875430Y-14421879D01*
X14875430Y-14421879D02*
X14884953Y-14402831D01*
X14884953Y-14402831D02*
X14894477Y-14374260D01*
X14894477Y-14374260D02*
X14904001Y-14326641D01*
X14904001Y-14326641D02*
X14904001Y-14288546D01*
X14904001Y-14288546D02*
X14894477Y-14240927D01*
X14894477Y-14240927D02*
X14884953Y-14212355D01*
X14884953Y-14212355D02*
X14875430Y-14193308D01*
X14875430Y-14193308D02*
X14856382Y-14164736D01*
X14856382Y-14164736D02*
X14846858Y-14155212D01*
X15208763Y-14459974D02*
X15199239Y-14450450D01*
X15199239Y-14450450D02*
X15180191Y-14421879D01*
X15180191Y-14421879D02*
X15170668Y-14402831D01*
X15170668Y-14402831D02*
X15161144Y-14374260D01*
X15161144Y-14374260D02*
X15151620Y-14326641D01*
X15151620Y-14326641D02*
X15151620Y-14288546D01*
X15151620Y-14288546D02*
X15161144Y-14240927D01*
X15161144Y-14240927D02*
X15170668Y-14212355D01*
X15170668Y-14212355D02*
X15180191Y-14193308D01*
X15180191Y-14193308D02*
X15199239Y-14164736D01*
X15199239Y-14164736D02*
X15208763Y-14155212D01*
X15284953Y-14250450D02*
X15284953Y-14383784D01*
X15284953Y-14269498D02*
X15294477Y-14259974D01*
X15294477Y-14259974D02*
X15313525Y-14250450D01*
X15313525Y-14250450D02*
X15342096Y-14250450D01*
X15342096Y-14250450D02*
X15361144Y-14259974D01*
X15361144Y-14259974D02*
X15370668Y-14279022D01*
X15370668Y-14279022D02*
X15370668Y-14383784D01*
X15494477Y-14383784D02*
X15475430Y-14374260D01*
X15475430Y-14374260D02*
X15465906Y-14364736D01*
X15465906Y-14364736D02*
X15456382Y-14345688D01*
X15456382Y-14345688D02*
X15456382Y-14288546D01*
X15456382Y-14288546D02*
X15465906Y-14269498D01*
X15465906Y-14269498D02*
X15475430Y-14259974D01*
X15475430Y-14259974D02*
X15494477Y-14250450D01*
X15494477Y-14250450D02*
X15523049Y-14250450D01*
X15523049Y-14250450D02*
X15542096Y-14259974D01*
X15542096Y-14259974D02*
X15551620Y-14269498D01*
X15551620Y-14269498D02*
X15561144Y-14288546D01*
X15561144Y-14288546D02*
X15561144Y-14345688D01*
X15561144Y-14345688D02*
X15551620Y-14364736D01*
X15551620Y-14364736D02*
X15542096Y-14374260D01*
X15542096Y-14374260D02*
X15523049Y-14383784D01*
X15523049Y-14383784D02*
X15494477Y-14383784D01*
X15618287Y-14250450D02*
X15694477Y-14250450D01*
X15646858Y-14183784D02*
X15646858Y-14355212D01*
X15646858Y-14355212D02*
X15656382Y-14374260D01*
X15656382Y-14374260D02*
X15675430Y-14383784D01*
X15675430Y-14383784D02*
X15694477Y-14383784D01*
X15913525Y-14250450D02*
X15913525Y-14450450D01*
X15913525Y-14259974D02*
X15932572Y-14250450D01*
X15932572Y-14250450D02*
X15970668Y-14250450D01*
X15970668Y-14250450D02*
X15989715Y-14259974D01*
X15989715Y-14259974D02*
X15999239Y-14269498D01*
X15999239Y-14269498D02*
X16008763Y-14288546D01*
X16008763Y-14288546D02*
X16008763Y-14345688D01*
X16008763Y-14345688D02*
X15999239Y-14364736D01*
X15999239Y-14364736D02*
X15989715Y-14374260D01*
X15989715Y-14374260D02*
X15970668Y-14383784D01*
X15970668Y-14383784D02*
X15932572Y-14383784D01*
X15932572Y-14383784D02*
X15913525Y-14374260D01*
X16123049Y-14383784D02*
X16104001Y-14374260D01*
X16104001Y-14374260D02*
X16094477Y-14355212D01*
X16094477Y-14355212D02*
X16094477Y-14183784D01*
X16284953Y-14383784D02*
X16284953Y-14279022D01*
X16284953Y-14279022D02*
X16275430Y-14259974D01*
X16275430Y-14259974D02*
X16256382Y-14250450D01*
X16256382Y-14250450D02*
X16218287Y-14250450D01*
X16218287Y-14250450D02*
X16199239Y-14259974D01*
X16284953Y-14374260D02*
X16265906Y-14383784D01*
X16265906Y-14383784D02*
X16218287Y-14383784D01*
X16218287Y-14383784D02*
X16199239Y-14374260D01*
X16199239Y-14374260D02*
X16189715Y-14355212D01*
X16189715Y-14355212D02*
X16189715Y-14336165D01*
X16189715Y-14336165D02*
X16199239Y-14317117D01*
X16199239Y-14317117D02*
X16218287Y-14307593D01*
X16218287Y-14307593D02*
X16265906Y-14307593D01*
X16265906Y-14307593D02*
X16284953Y-14298069D01*
X16351620Y-14250450D02*
X16427811Y-14250450D01*
X16380192Y-14183784D02*
X16380192Y-14355212D01*
X16380192Y-14355212D02*
X16389715Y-14374260D01*
X16389715Y-14374260D02*
X16408763Y-14383784D01*
X16408763Y-14383784D02*
X16427811Y-14383784D01*
X16570668Y-14374260D02*
X16551620Y-14383784D01*
X16551620Y-14383784D02*
X16513525Y-14383784D01*
X16513525Y-14383784D02*
X16494477Y-14374260D01*
X16494477Y-14374260D02*
X16484953Y-14355212D01*
X16484953Y-14355212D02*
X16484953Y-14279022D01*
X16484953Y-14279022D02*
X16494477Y-14259974D01*
X16494477Y-14259974D02*
X16513525Y-14250450D01*
X16513525Y-14250450D02*
X16551620Y-14250450D01*
X16551620Y-14250450D02*
X16570668Y-14259974D01*
X16570668Y-14259974D02*
X16580192Y-14279022D01*
X16580192Y-14279022D02*
X16580192Y-14298069D01*
X16580192Y-14298069D02*
X16484953Y-14317117D01*
X16751620Y-14383784D02*
X16751620Y-14183784D01*
X16751620Y-14374260D02*
X16732573Y-14383784D01*
X16732573Y-14383784D02*
X16694477Y-14383784D01*
X16694477Y-14383784D02*
X16675430Y-14374260D01*
X16675430Y-14374260D02*
X16665906Y-14364736D01*
X16665906Y-14364736D02*
X16656382Y-14345688D01*
X16656382Y-14345688D02*
X16656382Y-14288546D01*
X16656382Y-14288546D02*
X16665906Y-14269498D01*
X16665906Y-14269498D02*
X16675430Y-14259974D01*
X16675430Y-14259974D02*
X16694477Y-14250450D01*
X16694477Y-14250450D02*
X16732573Y-14250450D01*
X16732573Y-14250450D02*
X16751620Y-14259974D01*
X16827811Y-14459974D02*
X16837335Y-14450450D01*
X16837335Y-14450450D02*
X16856382Y-14421879D01*
X16856382Y-14421879D02*
X16865906Y-14402831D01*
X16865906Y-14402831D02*
X16875430Y-14374260D01*
X16875430Y-14374260D02*
X16884954Y-14326641D01*
X16884954Y-14326641D02*
X16884954Y-14288546D01*
X16884954Y-14288546D02*
X16875430Y-14240927D01*
X16875430Y-14240927D02*
X16865906Y-14212355D01*
X16865906Y-14212355D02*
X16856382Y-14193308D01*
X16856382Y-14193308D02*
X16837335Y-14164736D01*
X16837335Y-14164736D02*
X16827811Y-14155212D01*
X10133700Y-14456300D02*
X10133700Y-14656300D01*
X10033700Y-14556300D02*
X10233700Y-14556300D01*
X10475429Y-14447784D02*
X10599239Y-14447784D01*
X10599239Y-14447784D02*
X10532572Y-14523974D01*
X10532572Y-14523974D02*
X10561144Y-14523974D01*
X10561144Y-14523974D02*
X10580191Y-14533498D01*
X10580191Y-14533498D02*
X10589715Y-14543022D01*
X10589715Y-14543022D02*
X10599239Y-14562069D01*
X10599239Y-14562069D02*
X10599239Y-14609688D01*
X10599239Y-14609688D02*
X10589715Y-14628736D01*
X10589715Y-14628736D02*
X10580191Y-14638260D01*
X10580191Y-14638260D02*
X10561144Y-14647784D01*
X10561144Y-14647784D02*
X10504001Y-14647784D01*
X10504001Y-14647784D02*
X10484953Y-14638260D01*
X10484953Y-14638260D02*
X10475429Y-14628736D01*
X10684953Y-14628736D02*
X10694477Y-14638260D01*
X10694477Y-14638260D02*
X10684953Y-14647784D01*
X10684953Y-14647784D02*
X10675429Y-14638260D01*
X10675429Y-14638260D02*
X10684953Y-14628736D01*
X10684953Y-14628736D02*
X10684953Y-14647784D01*
X10770667Y-14466831D02*
X10780191Y-14457308D01*
X10780191Y-14457308D02*
X10799239Y-14447784D01*
X10799239Y-14447784D02*
X10846858Y-14447784D01*
X10846858Y-14447784D02*
X10865905Y-14457308D01*
X10865905Y-14457308D02*
X10875429Y-14466831D01*
X10875429Y-14466831D02*
X10884953Y-14485879D01*
X10884953Y-14485879D02*
X10884953Y-14504927D01*
X10884953Y-14504927D02*
X10875429Y-14533498D01*
X10875429Y-14533498D02*
X10761144Y-14647784D01*
X10761144Y-14647784D02*
X10884953Y-14647784D01*
X11008763Y-14447784D02*
X11027810Y-14447784D01*
X11027810Y-14447784D02*
X11046858Y-14457308D01*
X11046858Y-14457308D02*
X11056382Y-14466831D01*
X11056382Y-14466831D02*
X11065905Y-14485879D01*
X11065905Y-14485879D02*
X11075429Y-14523974D01*
X11075429Y-14523974D02*
X11075429Y-14571593D01*
X11075429Y-14571593D02*
X11065905Y-14609688D01*
X11065905Y-14609688D02*
X11056382Y-14628736D01*
X11056382Y-14628736D02*
X11046858Y-14638260D01*
X11046858Y-14638260D02*
X11027810Y-14647784D01*
X11027810Y-14647784D02*
X11008763Y-14647784D01*
X11008763Y-14647784D02*
X10989715Y-14638260D01*
X10989715Y-14638260D02*
X10980191Y-14628736D01*
X10980191Y-14628736D02*
X10970667Y-14609688D01*
X10970667Y-14609688D02*
X10961144Y-14571593D01*
X10961144Y-14571593D02*
X10961144Y-14523974D01*
X10961144Y-14523974D02*
X10970667Y-14485879D01*
X10970667Y-14485879D02*
X10980191Y-14466831D01*
X10980191Y-14466831D02*
X10989715Y-14457308D01*
X10989715Y-14457308D02*
X11008763Y-14447784D01*
X11199239Y-14447784D02*
X11218286Y-14447784D01*
X11218286Y-14447784D02*
X11237334Y-14457308D01*
X11237334Y-14457308D02*
X11246858Y-14466831D01*
X11246858Y-14466831D02*
X11256382Y-14485879D01*
X11256382Y-14485879D02*
X11265905Y-14523974D01*
X11265905Y-14523974D02*
X11265905Y-14571593D01*
X11265905Y-14571593D02*
X11256382Y-14609688D01*
X11256382Y-14609688D02*
X11246858Y-14628736D01*
X11246858Y-14628736D02*
X11237334Y-14638260D01*
X11237334Y-14638260D02*
X11218286Y-14647784D01*
X11218286Y-14647784D02*
X11199239Y-14647784D01*
X11199239Y-14647784D02*
X11180191Y-14638260D01*
X11180191Y-14638260D02*
X11170667Y-14628736D01*
X11170667Y-14628736D02*
X11161144Y-14609688D01*
X11161144Y-14609688D02*
X11151620Y-14571593D01*
X11151620Y-14571593D02*
X11151620Y-14523974D01*
X11151620Y-14523974D02*
X11161144Y-14485879D01*
X11161144Y-14485879D02*
X11170667Y-14466831D01*
X11170667Y-14466831D02*
X11180191Y-14457308D01*
X11180191Y-14457308D02*
X11199239Y-14447784D01*
X11351620Y-14647784D02*
X11351620Y-14514450D01*
X11351620Y-14533498D02*
X11361143Y-14523974D01*
X11361143Y-14523974D02*
X11380191Y-14514450D01*
X11380191Y-14514450D02*
X11408763Y-14514450D01*
X11408763Y-14514450D02*
X11427810Y-14523974D01*
X11427810Y-14523974D02*
X11437334Y-14543022D01*
X11437334Y-14543022D02*
X11437334Y-14647784D01*
X11437334Y-14543022D02*
X11446858Y-14523974D01*
X11446858Y-14523974D02*
X11465905Y-14514450D01*
X11465905Y-14514450D02*
X11494477Y-14514450D01*
X11494477Y-14514450D02*
X11513524Y-14523974D01*
X11513524Y-14523974D02*
X11523048Y-14543022D01*
X11523048Y-14543022D02*
X11523048Y-14647784D01*
X11618286Y-14647784D02*
X11618286Y-14514450D01*
X11618286Y-14533498D02*
X11627810Y-14523974D01*
X11627810Y-14523974D02*
X11646858Y-14514450D01*
X11646858Y-14514450D02*
X11675429Y-14514450D01*
X11675429Y-14514450D02*
X11694477Y-14523974D01*
X11694477Y-14523974D02*
X11704001Y-14543022D01*
X11704001Y-14543022D02*
X11704001Y-14647784D01*
X11704001Y-14543022D02*
X11713524Y-14523974D01*
X11713524Y-14523974D02*
X11732572Y-14514450D01*
X11732572Y-14514450D02*
X11761143Y-14514450D01*
X11761143Y-14514450D02*
X11780191Y-14523974D01*
X11780191Y-14523974D02*
X11789715Y-14543022D01*
X11789715Y-14543022D02*
X11789715Y-14647784D01*
X12180191Y-14438260D02*
X12008763Y-14695403D01*
X12437334Y-14447784D02*
X12456382Y-14447784D01*
X12456382Y-14447784D02*
X12475429Y-14457308D01*
X12475429Y-14457308D02*
X12484953Y-14466831D01*
X12484953Y-14466831D02*
X12494477Y-14485879D01*
X12494477Y-14485879D02*
X12504001Y-14523974D01*
X12504001Y-14523974D02*
X12504001Y-14571593D01*
X12504001Y-14571593D02*
X12494477Y-14609688D01*
X12494477Y-14609688D02*
X12484953Y-14628736D01*
X12484953Y-14628736D02*
X12475429Y-14638260D01*
X12475429Y-14638260D02*
X12456382Y-14647784D01*
X12456382Y-14647784D02*
X12437334Y-14647784D01*
X12437334Y-14647784D02*
X12418286Y-14638260D01*
X12418286Y-14638260D02*
X12408763Y-14628736D01*
X12408763Y-14628736D02*
X12399239Y-14609688D01*
X12399239Y-14609688D02*
X12389715Y-14571593D01*
X12389715Y-14571593D02*
X12389715Y-14523974D01*
X12389715Y-14523974D02*
X12399239Y-14485879D01*
X12399239Y-14485879D02*
X12408763Y-14466831D01*
X12408763Y-14466831D02*
X12418286Y-14457308D01*
X12418286Y-14457308D02*
X12437334Y-14447784D01*
X12589715Y-14628736D02*
X12599239Y-14638260D01*
X12599239Y-14638260D02*
X12589715Y-14647784D01*
X12589715Y-14647784D02*
X12580191Y-14638260D01*
X12580191Y-14638260D02*
X12589715Y-14628736D01*
X12589715Y-14628736D02*
X12589715Y-14647784D01*
X12789715Y-14647784D02*
X12675429Y-14647784D01*
X12732572Y-14647784D02*
X12732572Y-14447784D01*
X12732572Y-14447784D02*
X12713525Y-14476355D01*
X12713525Y-14476355D02*
X12694477Y-14495403D01*
X12694477Y-14495403D02*
X12675429Y-14504927D01*
X12865906Y-14466831D02*
X12875429Y-14457308D01*
X12875429Y-14457308D02*
X12894477Y-14447784D01*
X12894477Y-14447784D02*
X12942096Y-14447784D01*
X12942096Y-14447784D02*
X12961144Y-14457308D01*
X12961144Y-14457308D02*
X12970667Y-14466831D01*
X12970667Y-14466831D02*
X12980191Y-14485879D01*
X12980191Y-14485879D02*
X12980191Y-14504927D01*
X12980191Y-14504927D02*
X12970667Y-14533498D01*
X12970667Y-14533498D02*
X12856382Y-14647784D01*
X12856382Y-14647784D02*
X12980191Y-14647784D01*
X13151620Y-14447784D02*
X13113525Y-14447784D01*
X13113525Y-14447784D02*
X13094477Y-14457308D01*
X13094477Y-14457308D02*
X13084953Y-14466831D01*
X13084953Y-14466831D02*
X13065906Y-14495403D01*
X13065906Y-14495403D02*
X13056382Y-14533498D01*
X13056382Y-14533498D02*
X13056382Y-14609688D01*
X13056382Y-14609688D02*
X13065906Y-14628736D01*
X13065906Y-14628736D02*
X13075429Y-14638260D01*
X13075429Y-14638260D02*
X13094477Y-14647784D01*
X13094477Y-14647784D02*
X13132572Y-14647784D01*
X13132572Y-14647784D02*
X13151620Y-14638260D01*
X13151620Y-14638260D02*
X13161144Y-14628736D01*
X13161144Y-14628736D02*
X13170667Y-14609688D01*
X13170667Y-14609688D02*
X13170667Y-14562069D01*
X13170667Y-14562069D02*
X13161144Y-14543022D01*
X13161144Y-14543022D02*
X13151620Y-14533498D01*
X13151620Y-14533498D02*
X13132572Y-14523974D01*
X13132572Y-14523974D02*
X13094477Y-14523974D01*
X13094477Y-14523974D02*
X13075429Y-14533498D01*
X13075429Y-14533498D02*
X13065906Y-14543022D01*
X13065906Y-14543022D02*
X13056382Y-14562069D01*
X13294477Y-14447784D02*
X13313525Y-14447784D01*
X13313525Y-14447784D02*
X13332572Y-14457308D01*
X13332572Y-14457308D02*
X13342096Y-14466831D01*
X13342096Y-14466831D02*
X13351620Y-14485879D01*
X13351620Y-14485879D02*
X13361144Y-14523974D01*
X13361144Y-14523974D02*
X13361144Y-14571593D01*
X13361144Y-14571593D02*
X13351620Y-14609688D01*
X13351620Y-14609688D02*
X13342096Y-14628736D01*
X13342096Y-14628736D02*
X13332572Y-14638260D01*
X13332572Y-14638260D02*
X13313525Y-14647784D01*
X13313525Y-14647784D02*
X13294477Y-14647784D01*
X13294477Y-14647784D02*
X13275429Y-14638260D01*
X13275429Y-14638260D02*
X13265906Y-14628736D01*
X13265906Y-14628736D02*
X13256382Y-14609688D01*
X13256382Y-14609688D02*
X13246858Y-14571593D01*
X13246858Y-14571593D02*
X13246858Y-14523974D01*
X13246858Y-14523974D02*
X13256382Y-14485879D01*
X13256382Y-14485879D02*
X13265906Y-14466831D01*
X13265906Y-14466831D02*
X13275429Y-14457308D01*
X13275429Y-14457308D02*
X13294477Y-14447784D01*
X13437334Y-14447784D02*
X13437334Y-14485879D01*
X13513525Y-14447784D02*
X13513525Y-14485879D01*
X13808763Y-14723974D02*
X13799239Y-14714450D01*
X13799239Y-14714450D02*
X13780191Y-14685879D01*
X13780191Y-14685879D02*
X13770668Y-14666831D01*
X13770668Y-14666831D02*
X13761144Y-14638260D01*
X13761144Y-14638260D02*
X13751620Y-14590641D01*
X13751620Y-14590641D02*
X13751620Y-14552546D01*
X13751620Y-14552546D02*
X13761144Y-14504927D01*
X13761144Y-14504927D02*
X13770668Y-14476355D01*
X13770668Y-14476355D02*
X13780191Y-14457308D01*
X13780191Y-14457308D02*
X13799239Y-14428736D01*
X13799239Y-14428736D02*
X13808763Y-14419212D01*
X13865906Y-14447784D02*
X13989715Y-14447784D01*
X13989715Y-14447784D02*
X13923048Y-14523974D01*
X13923048Y-14523974D02*
X13951620Y-14523974D01*
X13951620Y-14523974D02*
X13970668Y-14533498D01*
X13970668Y-14533498D02*
X13980191Y-14543022D01*
X13980191Y-14543022D02*
X13989715Y-14562069D01*
X13989715Y-14562069D02*
X13989715Y-14609688D01*
X13989715Y-14609688D02*
X13980191Y-14628736D01*
X13980191Y-14628736D02*
X13970668Y-14638260D01*
X13970668Y-14638260D02*
X13951620Y-14647784D01*
X13951620Y-14647784D02*
X13894477Y-14647784D01*
X13894477Y-14647784D02*
X13875429Y-14638260D01*
X13875429Y-14638260D02*
X13865906Y-14628736D01*
X14227810Y-14647784D02*
X14227810Y-14447784D01*
X14313525Y-14647784D02*
X14313525Y-14543022D01*
X14313525Y-14543022D02*
X14304001Y-14523974D01*
X14304001Y-14523974D02*
X14284953Y-14514450D01*
X14284953Y-14514450D02*
X14256382Y-14514450D01*
X14256382Y-14514450D02*
X14237334Y-14523974D01*
X14237334Y-14523974D02*
X14227810Y-14533498D01*
X14437334Y-14647784D02*
X14418287Y-14638260D01*
X14418287Y-14638260D02*
X14408763Y-14628736D01*
X14408763Y-14628736D02*
X14399239Y-14609688D01*
X14399239Y-14609688D02*
X14399239Y-14552546D01*
X14399239Y-14552546D02*
X14408763Y-14533498D01*
X14408763Y-14533498D02*
X14418287Y-14523974D01*
X14418287Y-14523974D02*
X14437334Y-14514450D01*
X14437334Y-14514450D02*
X14465906Y-14514450D01*
X14465906Y-14514450D02*
X14484953Y-14523974D01*
X14484953Y-14523974D02*
X14494477Y-14533498D01*
X14494477Y-14533498D02*
X14504001Y-14552546D01*
X14504001Y-14552546D02*
X14504001Y-14609688D01*
X14504001Y-14609688D02*
X14494477Y-14628736D01*
X14494477Y-14628736D02*
X14484953Y-14638260D01*
X14484953Y-14638260D02*
X14465906Y-14647784D01*
X14465906Y-14647784D02*
X14437334Y-14647784D01*
X14618287Y-14647784D02*
X14599239Y-14638260D01*
X14599239Y-14638260D02*
X14589715Y-14619212D01*
X14589715Y-14619212D02*
X14589715Y-14447784D01*
X14770668Y-14638260D02*
X14751620Y-14647784D01*
X14751620Y-14647784D02*
X14713525Y-14647784D01*
X14713525Y-14647784D02*
X14694477Y-14638260D01*
X14694477Y-14638260D02*
X14684953Y-14619212D01*
X14684953Y-14619212D02*
X14684953Y-14543022D01*
X14684953Y-14543022D02*
X14694477Y-14523974D01*
X14694477Y-14523974D02*
X14713525Y-14514450D01*
X14713525Y-14514450D02*
X14751620Y-14514450D01*
X14751620Y-14514450D02*
X14770668Y-14523974D01*
X14770668Y-14523974D02*
X14780191Y-14543022D01*
X14780191Y-14543022D02*
X14780191Y-14562069D01*
X14780191Y-14562069D02*
X14684953Y-14581117D01*
X14856382Y-14638260D02*
X14875430Y-14647784D01*
X14875430Y-14647784D02*
X14913525Y-14647784D01*
X14913525Y-14647784D02*
X14932572Y-14638260D01*
X14932572Y-14638260D02*
X14942096Y-14619212D01*
X14942096Y-14619212D02*
X14942096Y-14609688D01*
X14942096Y-14609688D02*
X14932572Y-14590641D01*
X14932572Y-14590641D02*
X14913525Y-14581117D01*
X14913525Y-14581117D02*
X14884953Y-14581117D01*
X14884953Y-14581117D02*
X14865906Y-14571593D01*
X14865906Y-14571593D02*
X14856382Y-14552546D01*
X14856382Y-14552546D02*
X14856382Y-14543022D01*
X14856382Y-14543022D02*
X14865906Y-14523974D01*
X14865906Y-14523974D02*
X14884953Y-14514450D01*
X14884953Y-14514450D02*
X14913525Y-14514450D01*
X14913525Y-14514450D02*
X14932572Y-14523974D01*
X15008763Y-14723974D02*
X15018287Y-14714450D01*
X15018287Y-14714450D02*
X15037334Y-14685879D01*
X15037334Y-14685879D02*
X15046858Y-14666831D01*
X15046858Y-14666831D02*
X15056382Y-14638260D01*
X15056382Y-14638260D02*
X15065906Y-14590641D01*
X15065906Y-14590641D02*
X15065906Y-14552546D01*
X15065906Y-14552546D02*
X15056382Y-14504927D01*
X15056382Y-14504927D02*
X15046858Y-14476355D01*
X15046858Y-14476355D02*
X15037334Y-14457308D01*
X15037334Y-14457308D02*
X15018287Y-14428736D01*
X15018287Y-14428736D02*
X15008763Y-14419212D01*
X15370668Y-14723974D02*
X15361144Y-14714450D01*
X15361144Y-14714450D02*
X15342096Y-14685879D01*
X15342096Y-14685879D02*
X15332572Y-14666831D01*
X15332572Y-14666831D02*
X15323049Y-14638260D01*
X15323049Y-14638260D02*
X15313525Y-14590641D01*
X15313525Y-14590641D02*
X15313525Y-14552546D01*
X15313525Y-14552546D02*
X15323049Y-14504927D01*
X15323049Y-14504927D02*
X15332572Y-14476355D01*
X15332572Y-14476355D02*
X15342096Y-14457308D01*
X15342096Y-14457308D02*
X15361144Y-14428736D01*
X15361144Y-14428736D02*
X15370668Y-14419212D01*
X15446858Y-14514450D02*
X15446858Y-14647784D01*
X15446858Y-14533498D02*
X15456382Y-14523974D01*
X15456382Y-14523974D02*
X15475430Y-14514450D01*
X15475430Y-14514450D02*
X15504001Y-14514450D01*
X15504001Y-14514450D02*
X15523049Y-14523974D01*
X15523049Y-14523974D02*
X15532572Y-14543022D01*
X15532572Y-14543022D02*
X15532572Y-14647784D01*
X15656382Y-14647784D02*
X15637334Y-14638260D01*
X15637334Y-14638260D02*
X15627811Y-14628736D01*
X15627811Y-14628736D02*
X15618287Y-14609688D01*
X15618287Y-14609688D02*
X15618287Y-14552546D01*
X15618287Y-14552546D02*
X15627811Y-14533498D01*
X15627811Y-14533498D02*
X15637334Y-14523974D01*
X15637334Y-14523974D02*
X15656382Y-14514450D01*
X15656382Y-14514450D02*
X15684953Y-14514450D01*
X15684953Y-14514450D02*
X15704001Y-14523974D01*
X15704001Y-14523974D02*
X15713525Y-14533498D01*
X15713525Y-14533498D02*
X15723049Y-14552546D01*
X15723049Y-14552546D02*
X15723049Y-14609688D01*
X15723049Y-14609688D02*
X15713525Y-14628736D01*
X15713525Y-14628736D02*
X15704001Y-14638260D01*
X15704001Y-14638260D02*
X15684953Y-14647784D01*
X15684953Y-14647784D02*
X15656382Y-14647784D01*
X15780192Y-14514450D02*
X15856382Y-14514450D01*
X15808763Y-14447784D02*
X15808763Y-14619212D01*
X15808763Y-14619212D02*
X15818287Y-14638260D01*
X15818287Y-14638260D02*
X15837334Y-14647784D01*
X15837334Y-14647784D02*
X15856382Y-14647784D01*
X16075430Y-14514450D02*
X16075430Y-14714450D01*
X16075430Y-14523974D02*
X16094477Y-14514450D01*
X16094477Y-14514450D02*
X16132573Y-14514450D01*
X16132573Y-14514450D02*
X16151620Y-14523974D01*
X16151620Y-14523974D02*
X16161144Y-14533498D01*
X16161144Y-14533498D02*
X16170668Y-14552546D01*
X16170668Y-14552546D02*
X16170668Y-14609688D01*
X16170668Y-14609688D02*
X16161144Y-14628736D01*
X16161144Y-14628736D02*
X16151620Y-14638260D01*
X16151620Y-14638260D02*
X16132573Y-14647784D01*
X16132573Y-14647784D02*
X16094477Y-14647784D01*
X16094477Y-14647784D02*
X16075430Y-14638260D01*
X16284953Y-14647784D02*
X16265906Y-14638260D01*
X16265906Y-14638260D02*
X16256382Y-14619212D01*
X16256382Y-14619212D02*
X16256382Y-14447784D01*
X16446858Y-14647784D02*
X16446858Y-14543022D01*
X16446858Y-14543022D02*
X16437334Y-14523974D01*
X16437334Y-14523974D02*
X16418287Y-14514450D01*
X16418287Y-14514450D02*
X16380192Y-14514450D01*
X16380192Y-14514450D02*
X16361144Y-14523974D01*
X16446858Y-14638260D02*
X16427811Y-14647784D01*
X16427811Y-14647784D02*
X16380192Y-14647784D01*
X16380192Y-14647784D02*
X16361144Y-14638260D01*
X16361144Y-14638260D02*
X16351620Y-14619212D01*
X16351620Y-14619212D02*
X16351620Y-14600165D01*
X16351620Y-14600165D02*
X16361144Y-14581117D01*
X16361144Y-14581117D02*
X16380192Y-14571593D01*
X16380192Y-14571593D02*
X16427811Y-14571593D01*
X16427811Y-14571593D02*
X16446858Y-14562069D01*
X16513525Y-14514450D02*
X16589715Y-14514450D01*
X16542096Y-14447784D02*
X16542096Y-14619212D01*
X16542096Y-14619212D02*
X16551620Y-14638260D01*
X16551620Y-14638260D02*
X16570668Y-14647784D01*
X16570668Y-14647784D02*
X16589715Y-14647784D01*
X16732573Y-14638260D02*
X16713525Y-14647784D01*
X16713525Y-14647784D02*
X16675430Y-14647784D01*
X16675430Y-14647784D02*
X16656382Y-14638260D01*
X16656382Y-14638260D02*
X16646858Y-14619212D01*
X16646858Y-14619212D02*
X16646858Y-14543022D01*
X16646858Y-14543022D02*
X16656382Y-14523974D01*
X16656382Y-14523974D02*
X16675430Y-14514450D01*
X16675430Y-14514450D02*
X16713525Y-14514450D01*
X16713525Y-14514450D02*
X16732573Y-14523974D01*
X16732573Y-14523974D02*
X16742096Y-14543022D01*
X16742096Y-14543022D02*
X16742096Y-14562069D01*
X16742096Y-14562069D02*
X16646858Y-14581117D01*
X16913525Y-14647784D02*
X16913525Y-14447784D01*
X16913525Y-14638260D02*
X16894477Y-14647784D01*
X16894477Y-14647784D02*
X16856382Y-14647784D01*
X16856382Y-14647784D02*
X16837335Y-14638260D01*
X16837335Y-14638260D02*
X16827811Y-14628736D01*
X16827811Y-14628736D02*
X16818287Y-14609688D01*
X16818287Y-14609688D02*
X16818287Y-14552546D01*
X16818287Y-14552546D02*
X16827811Y-14533498D01*
X16827811Y-14533498D02*
X16837335Y-14523974D01*
X16837335Y-14523974D02*
X16856382Y-14514450D01*
X16856382Y-14514450D02*
X16894477Y-14514450D01*
X16894477Y-14514450D02*
X16913525Y-14523974D01*
X16989716Y-14723974D02*
X16999239Y-14714450D01*
X16999239Y-14714450D02*
X17018287Y-14685879D01*
X17018287Y-14685879D02*
X17027811Y-14666831D01*
X17027811Y-14666831D02*
X17037335Y-14638260D01*
X17037335Y-14638260D02*
X17046858Y-14590641D01*
X17046858Y-14590641D02*
X17046858Y-14552546D01*
X17046858Y-14552546D02*
X17037335Y-14504927D01*
X17037335Y-14504927D02*
X17027811Y-14476355D01*
X17027811Y-14476355D02*
X17018287Y-14457308D01*
X17018287Y-14457308D02*
X16999239Y-14428736D01*
X16999239Y-14428736D02*
X16989716Y-14419212D01*
M02*
