G04 #@! TF.GenerationSoftware,KiCad,Pcbnew,9.0.0*
G04 #@! TF.CreationDate,2025-03-04T12:56:27-06:00*
G04 #@! TF.ProjectId,PCB,5043422e-6b69-4636-9164-5f7063625858,rev?*
G04 #@! TF.SameCoordinates,Original*
G04 #@! TF.FileFunction,Legend,Bot*
G04 #@! TF.FilePolarity,Positive*
%FSLAX46Y46*%
G04 Gerber Fmt 4.6, Leading zero omitted, Abs format (unit mm)*
G04 Created by KiCad (PCBNEW 9.0.0) date 2025-03-04 12:56:27*
%MOMM*%
%LPD*%
G01*
G04 APERTURE LIST*
%ADD10C,2.000000*%
%ADD11C,1.695000*%
%ADD12R,1.500000X1.500000*%
%ADD13C,1.500000*%
%ADD14C,0.770000*%
%ADD15R,1.508000X1.508000*%
%ADD16C,1.508000*%
%ADD17C,1.300000*%
%ADD18C,1.000000*%
%ADD19C,0.740000*%
%ADD20C,3.200000*%
%ADD21C,1.650000*%
%ADD22O,1.308000X2.616000*%
%ADD23O,1.660000X3.320000*%
G04 APERTURE END LIST*
%LPC*%
D10*
X123698000Y-104140000D03*
X114554000Y-104140000D03*
D11*
X121168491Y-129794508D03*
X121168491Y-127254508D03*
X121168491Y-124714508D03*
X121168491Y-122174508D03*
X121168491Y-119634508D03*
X121168491Y-117094508D03*
D12*
X182424000Y-118110000D03*
D13*
X185924000Y-123110000D03*
X189424000Y-118110000D03*
X192924000Y-123110000D03*
X196424000Y-118110000D03*
X199924000Y-123110000D03*
X203424000Y-118110000D03*
X206924000Y-123110000D03*
X210424000Y-118110000D03*
X213924000Y-123110000D03*
X217424000Y-118110000D03*
X220924000Y-123110000D03*
D14*
X190720000Y-85813000D03*
X190720000Y-87113000D03*
X190720000Y-88413000D03*
X192020000Y-85813000D03*
X192020000Y-87113000D03*
X192020000Y-88413000D03*
D15*
X217958000Y-109604000D03*
D16*
X212958000Y-106104000D03*
X217958000Y-102604000D03*
D17*
X165608000Y-117178000D03*
D18*
X165608000Y-124668000D03*
D19*
X190720000Y-73367000D03*
X190720000Y-74667000D03*
X190720000Y-75967000D03*
X192020000Y-73367000D03*
X192020000Y-74667000D03*
X192020000Y-75967000D03*
D15*
X217958000Y-95888000D03*
D16*
X212958000Y-92388000D03*
X217958000Y-88888000D03*
D11*
X141105000Y-129836000D03*
X141105000Y-127296000D03*
X141105000Y-124756000D03*
X141105000Y-122216000D03*
X141105000Y-119676000D03*
X141105000Y-117136000D03*
D20*
X227860300Y-129032000D03*
D10*
X128270000Y-104140000D03*
D20*
X114554000Y-81534000D03*
X108204000Y-126492000D03*
D10*
X119126000Y-104140000D03*
D21*
X165100000Y-76200000D03*
X167640000Y-76200000D03*
X165100000Y-78740000D03*
X167640000Y-78740000D03*
X165100000Y-81280000D03*
X167640000Y-81280000D03*
D15*
X212958000Y-82398000D03*
D16*
X217958000Y-78898000D03*
X212958000Y-75398000D03*
X217958000Y-71898000D03*
D22*
X174400000Y-78674000D03*
X183000000Y-78674000D03*
X177800000Y-78674000D03*
D23*
X183900000Y-71374000D03*
X174000000Y-71374000D03*
%LPD*%
M02*
