G04 #@! TF.GenerationSoftware,KiCad,Pcbnew,9.0.0*
G04 #@! TF.CreationDate,2025-03-05T08:43:44-06:00*
G04 #@! TF.ProjectId,PCB,5043422e-6b69-4636-9164-5f7063625858,rev?*
G04 #@! TF.SameCoordinates,Original*
G04 #@! TF.FileFunction,Copper,L3,Inr*
G04 #@! TF.FilePolarity,Positive*
%FSLAX46Y46*%
G04 Gerber Fmt 4.6, Leading zero omitted, Abs format (unit mm)*
G04 Created by KiCad (PCBNEW 9.0.0) date 2025-03-05 08:43:44*
%MOMM*%
%LPD*%
G01*
G04 APERTURE LIST*
G04 Aperture macros list*
%AMRoundRect*
0 Rectangle with rounded corners*
0 $1 Rounding radius*
0 $2 $3 $4 $5 $6 $7 $8 $9 X,Y pos of 4 corners*
0 Add a 4 corners polygon primitive as box body*
4,1,4,$2,$3,$4,$5,$6,$7,$8,$9,$2,$3,0*
0 Add four circle primitives for the rounded corners*
1,1,$1+$1,$2,$3*
1,1,$1+$1,$4,$5*
1,1,$1+$1,$6,$7*
1,1,$1+$1,$8,$9*
0 Add four rect primitives between the rounded corners*
20,1,$1+$1,$2,$3,$4,$5,0*
20,1,$1+$1,$4,$5,$6,$7,0*
20,1,$1+$1,$6,$7,$8,$9,0*
20,1,$1+$1,$8,$9,$2,$3,0*%
G04 Aperture macros list end*
G04 #@! TA.AperFunction,ComponentPad*
%ADD10R,2.100000X2.100000*%
G04 #@! TD*
G04 #@! TA.AperFunction,ComponentPad*
%ADD11C,2.100000*%
G04 #@! TD*
G04 #@! TA.AperFunction,ComponentPad*
%ADD12C,0.600000*%
G04 #@! TD*
G04 #@! TA.AperFunction,ComponentPad*
%ADD13C,1.695000*%
G04 #@! TD*
G04 #@! TA.AperFunction,ComponentPad*
%ADD14C,2.000000*%
G04 #@! TD*
G04 #@! TA.AperFunction,ComponentPad*
%ADD15C,1.650000*%
G04 #@! TD*
G04 #@! TA.AperFunction,ComponentPad*
%ADD16R,3.500000X3.500000*%
G04 #@! TD*
G04 #@! TA.AperFunction,ComponentPad*
%ADD17RoundRect,0.750000X-1.000000X0.750000X-1.000000X-0.750000X1.000000X-0.750000X1.000000X0.750000X0*%
G04 #@! TD*
G04 #@! TA.AperFunction,ComponentPad*
%ADD18RoundRect,0.875000X-0.875000X0.875000X-0.875000X-0.875000X0.875000X-0.875000X0.875000X0.875000X0*%
G04 #@! TD*
G04 #@! TA.AperFunction,ViaPad*
%ADD19C,0.600000*%
G04 #@! TD*
G04 APERTURE END LIST*
D10*
X264521000Y-51589000D03*
D11*
X264521000Y-55399000D03*
D12*
X184912000Y-52040000D03*
X184912000Y-53340000D03*
X183612000Y-52040000D03*
X183612000Y-53340000D03*
X182312000Y-52040000D03*
X182312000Y-53340000D03*
X181012000Y-52040000D03*
X181012000Y-53340000D03*
X242824000Y-53062290D03*
X244124000Y-53062290D03*
X245424000Y-53062290D03*
X242824000Y-51762290D03*
X244124000Y-51762290D03*
X245424000Y-51762290D03*
D10*
X264521000Y-80444000D03*
D11*
X264521000Y-84254000D03*
D13*
X179951000Y-94114000D03*
X179951000Y-91574000D03*
X179951000Y-89034000D03*
X179951000Y-86494000D03*
X179951000Y-83954000D03*
X179951000Y-81414000D03*
D10*
X264521000Y-70792000D03*
D11*
X264521000Y-74602000D03*
D13*
X206756000Y-82550000D03*
X206756000Y-85090000D03*
X206756000Y-87630000D03*
X206756000Y-90170000D03*
X206756000Y-92710000D03*
X206756000Y-95250000D03*
D10*
X242089000Y-35790290D03*
D11*
X245899000Y-35790290D03*
D14*
X197358000Y-79196000D03*
D10*
X264521000Y-90096000D03*
D11*
X264521000Y-93906000D03*
D10*
X230404000Y-35790290D03*
D11*
X234214000Y-35790290D03*
D14*
X192024000Y-84328000D03*
X194683000Y-92336000D03*
D10*
X202697288Y-35680802D03*
D11*
X206507288Y-35680802D03*
X210317288Y-35680802D03*
D10*
X264521000Y-41937000D03*
D11*
X264521000Y-45747000D03*
D15*
X220218000Y-66294000D03*
X220218000Y-63754000D03*
X222758000Y-66294000D03*
X222758000Y-63754000D03*
X225298000Y-66294000D03*
X225298000Y-63754000D03*
D10*
X264521000Y-61241000D03*
D11*
X264521000Y-65051000D03*
D10*
X216159288Y-35680802D03*
D11*
X219969288Y-35680802D03*
X223779288Y-35680802D03*
D16*
X192532000Y-41560000D03*
D17*
X192532000Y-35560000D03*
D18*
X187832000Y-38560000D03*
D12*
X231139000Y-53062290D03*
X232439000Y-53062290D03*
X233739000Y-53062290D03*
X231139000Y-51762290D03*
X232439000Y-51762290D03*
X233739000Y-51762290D03*
D19*
X189484000Y-53340000D03*
X200406000Y-74168000D03*
X203454000Y-73914000D03*
X200152000Y-72136000D03*
X198120000Y-73914000D03*
X197104000Y-72898000D03*
X195834000Y-72136000D03*
X194818000Y-71628000D03*
X197358000Y-71882000D03*
X207772000Y-72644000D03*
X206502000Y-79756000D03*
X202692000Y-74930000D03*
X194056000Y-82804000D03*
X203962000Y-84074000D03*
X201930000Y-90678000D03*
X203962000Y-97536000D03*
X201168000Y-94996000D03*
X198628000Y-97028000D03*
X180848000Y-97282000D03*
X191008000Y-94996000D03*
X188214000Y-97028000D03*
X194564000Y-95758000D03*
X203708000Y-92710000D03*
X202184000Y-84836000D03*
X184404000Y-89916000D03*
X183134000Y-84836000D03*
X185166000Y-83566000D03*
X189738000Y-81534000D03*
X188722000Y-80264000D03*
X189738000Y-77978000D03*
X190246000Y-75946000D03*
X188722000Y-76708000D03*
X183642000Y-81280000D03*
X178054000Y-77724000D03*
X178562000Y-75184000D03*
X181610000Y-73914000D03*
X179324000Y-73406000D03*
X203962000Y-79502000D03*
X202692000Y-77978000D03*
X207264000Y-75946000D03*
X205486000Y-74422000D03*
X238235665Y-94172886D03*
X233874798Y-84029763D03*
X235053744Y-85084000D03*
X231065581Y-83961761D03*
X188722000Y-67831497D03*
X189484000Y-67818000D03*
X190246000Y-67818000D03*
X192532000Y-67818000D03*
X203708000Y-63754000D03*
X203708000Y-64770000D03*
X203708000Y-68072000D03*
X191008000Y-67818000D03*
X203708000Y-65786000D03*
X203708000Y-69088000D03*
X223753971Y-94183525D03*
X178562000Y-50292000D03*
X178562000Y-46228000D03*
X190754000Y-47498000D03*
X179324000Y-46736000D03*
X229919191Y-86454878D03*
X247071341Y-94501580D03*
X229185448Y-40778562D03*
X179324000Y-51054000D03*
X235960304Y-59832599D03*
X247604730Y-59825808D03*
X242200562Y-57252951D03*
X221896407Y-42771593D03*
X200196779Y-67980594D03*
X258078151Y-88338048D03*
X213393919Y-44663257D03*
X189230000Y-44704000D03*
X235147829Y-86475249D03*
X240883029Y-40667161D03*
X189738000Y-45974000D03*
X249178526Y-50632012D03*
X220081043Y-85440226D03*
X187960000Y-44704000D03*
X229925982Y-85083209D03*
X196342000Y-69342000D03*
X231806933Y-47689791D03*
X190829789Y-54694847D03*
X253254419Y-66467938D03*
X218511941Y-88329603D03*
X229182694Y-45132892D03*
X217702000Y-42672000D03*
X232465606Y-83996739D03*
X203968790Y-44507077D03*
X230530143Y-58524610D03*
X243990753Y-88765065D03*
X253257088Y-95206315D03*
X199254191Y-62037113D03*
X189484000Y-52070000D03*
X235093506Y-87887660D03*
X186690000Y-44704000D03*
X181045010Y-68326000D03*
X207296105Y-41689045D03*
X178562000Y-52070000D03*
X186690000Y-67818000D03*
X179324000Y-52832000D03*
X237550925Y-50616658D03*
X253261125Y-47063223D03*
X253247053Y-85851509D03*
X240859904Y-45209246D03*
X253258371Y-76118326D03*
X179324000Y-44704000D03*
X203072452Y-42225489D03*
X243481389Y-47578390D03*
X187279494Y-68491429D03*
X178816000Y-53594000D03*
X229939563Y-87867289D03*
X179324000Y-49276000D03*
X191008000Y-49276000D03*
X187784566Y-67862895D03*
X253247628Y-56784249D03*
X191008000Y-50292000D03*
X203200000Y-55626000D03*
X220726000Y-38862000D03*
X200322512Y-89064253D03*
X199254958Y-76518886D03*
X202454221Y-71028216D03*
X189738000Y-87630000D03*
X186029215Y-87609628D03*
X196814758Y-89042526D03*
X243482500Y-77112500D03*
X184404000Y-68326000D03*
X248920000Y-78740000D03*
X208117670Y-52781713D03*
X216662000Y-87630000D03*
X193759567Y-50581707D03*
X183881983Y-59152000D03*
X186669440Y-77544694D03*
X191135735Y-77528850D03*
X188577098Y-48603712D03*
X184868530Y-56866000D03*
X233079719Y-57221413D03*
X217678000Y-89916000D03*
X222250000Y-76200000D03*
X217678000Y-87630000D03*
X218440000Y-86106000D03*
X230337257Y-78039113D03*
X231648000Y-78740000D03*
X237592498Y-80233443D03*
X243078000Y-86614000D03*
X226568000Y-86360000D03*
X247904000Y-81534000D03*
X238329448Y-82756466D03*
X248920000Y-82708198D03*
X241554000Y-87122000D03*
X247396000Y-92964000D03*
X232882311Y-78830310D03*
X250190000Y-94488000D03*
X237978240Y-81503008D03*
X251490000Y-46960000D03*
X223992786Y-74069868D03*
X223692153Y-82769103D03*
X251460000Y-56896000D03*
X250238689Y-65051822D03*
X223688910Y-84047916D03*
X216662000Y-89916000D03*
X231813315Y-57171573D03*
X223655988Y-85309103D03*
X250372622Y-74605573D03*
X251460000Y-85852000D03*
X223779216Y-86582699D03*
X226296656Y-92456000D03*
X250182174Y-95250000D03*
G04 #@! TA.AperFunction,Conductor*
G36*
X209627995Y-71141221D02*
G01*
X209673772Y-71194006D01*
X209685000Y-71245565D01*
X209685000Y-99593500D01*
X209665315Y-99660539D01*
X209612511Y-99706294D01*
X209561000Y-99717500D01*
X176138500Y-99717500D01*
X176071461Y-99697815D01*
X176025706Y-99645011D01*
X176014500Y-99593500D01*
X176014500Y-91467949D01*
X178603500Y-91467949D01*
X178603500Y-91680050D01*
X178636680Y-91889541D01*
X178636680Y-91889544D01*
X178702221Y-92091258D01*
X178702223Y-92091261D01*
X178798514Y-92280244D01*
X178837518Y-92333927D01*
X178837518Y-92333928D01*
X179414964Y-91756481D01*
X179424504Y-91792082D01*
X179498888Y-91920918D01*
X179604082Y-92026112D01*
X179732918Y-92100496D01*
X179768517Y-92110034D01*
X179191070Y-92687480D01*
X179191071Y-92687481D01*
X179244750Y-92726481D01*
X179244763Y-92726489D01*
X179433738Y-92822776D01*
X179433744Y-92822779D01*
X179539799Y-92857238D01*
X179597475Y-92896675D01*
X179624674Y-92961033D01*
X179612760Y-93029880D01*
X179565516Y-93081356D01*
X179539809Y-93093097D01*
X179529519Y-93096441D01*
X179375522Y-93174906D01*
X179295748Y-93232865D01*
X179235701Y-93276493D01*
X179235699Y-93276495D01*
X179235698Y-93276495D01*
X179113495Y-93398698D01*
X179113495Y-93398699D01*
X179113493Y-93398701D01*
X179094168Y-93425300D01*
X179011906Y-93538522D01*
X178933442Y-93692516D01*
X178880037Y-93856879D01*
X178880037Y-93856882D01*
X178853000Y-94027586D01*
X178853000Y-94200413D01*
X178880037Y-94371117D01*
X178880037Y-94371120D01*
X178933442Y-94535483D01*
X178933444Y-94535486D01*
X179011906Y-94689477D01*
X179113493Y-94829299D01*
X179235701Y-94951507D01*
X179375523Y-95053094D01*
X179529514Y-95131556D01*
X179529516Y-95131557D01*
X179628092Y-95163586D01*
X179693884Y-95184963D01*
X179864586Y-95212000D01*
X179864587Y-95212000D01*
X180037413Y-95212000D01*
X180037414Y-95212000D01*
X180208116Y-95184963D01*
X180208119Y-95184962D01*
X180208120Y-95184962D01*
X180273908Y-95163586D01*
X205658000Y-95163586D01*
X205658000Y-95336413D01*
X205685037Y-95507117D01*
X205685037Y-95507120D01*
X205738442Y-95671483D01*
X205738444Y-95671486D01*
X205816906Y-95825477D01*
X205918493Y-95965299D01*
X206040701Y-96087507D01*
X206180523Y-96189094D01*
X206334514Y-96267556D01*
X206334516Y-96267557D01*
X206487829Y-96317371D01*
X206498884Y-96320963D01*
X206669586Y-96348000D01*
X206669587Y-96348000D01*
X206842413Y-96348000D01*
X206842414Y-96348000D01*
X207013116Y-96320963D01*
X207013119Y-96320962D01*
X207013120Y-96320962D01*
X207177483Y-96267557D01*
X207177483Y-96267556D01*
X207177486Y-96267556D01*
X207331477Y-96189094D01*
X207471299Y-96087507D01*
X207593507Y-95965299D01*
X207695094Y-95825477D01*
X207773556Y-95671486D01*
X207826963Y-95507116D01*
X207854000Y-95336414D01*
X207854000Y-95163586D01*
X207826963Y-94992884D01*
X207826962Y-94992880D01*
X207826962Y-94992879D01*
X207773557Y-94828516D01*
X207695093Y-94674522D01*
X207593507Y-94534701D01*
X207471299Y-94412493D01*
X207331477Y-94310906D01*
X207177483Y-94232442D01*
X207013118Y-94179037D01*
X206899314Y-94161012D01*
X206842414Y-94152000D01*
X206669586Y-94152000D01*
X206612685Y-94161012D01*
X206498882Y-94179037D01*
X206498879Y-94179037D01*
X206334516Y-94232442D01*
X206180522Y-94310906D01*
X206100748Y-94368865D01*
X206040701Y-94412493D01*
X206040699Y-94412495D01*
X206040698Y-94412495D01*
X205918495Y-94534698D01*
X205918495Y-94534699D01*
X205918493Y-94534701D01*
X205917925Y-94535483D01*
X205816906Y-94674522D01*
X205738442Y-94828516D01*
X205685037Y-94992879D01*
X205685037Y-94992882D01*
X205658000Y-95163586D01*
X180273908Y-95163586D01*
X180372483Y-95131557D01*
X180372483Y-95131556D01*
X180372486Y-95131556D01*
X180526477Y-95053094D01*
X180666299Y-94951507D01*
X180788507Y-94829299D01*
X180890094Y-94689477D01*
X180968556Y-94535486D01*
X181021963Y-94371116D01*
X181049000Y-94200414D01*
X181049000Y-94027586D01*
X181021963Y-93856884D01*
X181021962Y-93856880D01*
X181021962Y-93856879D01*
X180968557Y-93692516D01*
X180914539Y-93586500D01*
X180890094Y-93538523D01*
X180788507Y-93398701D01*
X180666299Y-93276493D01*
X180526477Y-93174906D01*
X180372486Y-93096444D01*
X180372485Y-93096443D01*
X180372480Y-93096441D01*
X180372482Y-93096441D01*
X180362193Y-93093098D01*
X180304519Y-93053657D01*
X180277325Y-92989297D01*
X180289242Y-92920452D01*
X180336489Y-92868978D01*
X180362200Y-92857238D01*
X180468255Y-92822779D01*
X180468261Y-92822776D01*
X180657244Y-92726485D01*
X180710927Y-92687481D01*
X180710927Y-92687480D01*
X180133482Y-92110035D01*
X180169082Y-92100496D01*
X180297918Y-92026112D01*
X180403112Y-91920918D01*
X180477496Y-91792082D01*
X180487035Y-91756482D01*
X181064480Y-92333927D01*
X181064481Y-92333927D01*
X181103485Y-92280244D01*
X181125225Y-92237577D01*
X193432500Y-92237577D01*
X193432500Y-92434422D01*
X193463290Y-92628826D01*
X193524117Y-92816029D01*
X193598001Y-92961033D01*
X193613476Y-92991405D01*
X193729172Y-93150646D01*
X193868354Y-93289828D01*
X194027595Y-93405524D01*
X194066406Y-93425299D01*
X194202970Y-93494882D01*
X194202972Y-93494882D01*
X194202975Y-93494884D01*
X194303317Y-93527487D01*
X194390173Y-93555709D01*
X194584578Y-93586500D01*
X194584583Y-93586500D01*
X194781422Y-93586500D01*
X194975826Y-93555709D01*
X195001078Y-93547504D01*
X195163025Y-93494884D01*
X195338405Y-93405524D01*
X195497646Y-93289828D01*
X195636828Y-93150646D01*
X195752524Y-92991405D01*
X195841884Y-92816025D01*
X195902709Y-92628826D01*
X195903539Y-92623586D01*
X205658000Y-92623586D01*
X205658000Y-92796414D01*
X205662176Y-92822779D01*
X205685037Y-92967117D01*
X205685037Y-92967120D01*
X205738442Y-93131483D01*
X205812328Y-93276493D01*
X205816906Y-93285477D01*
X205918493Y-93425299D01*
X206040701Y-93547507D01*
X206180523Y-93649094D01*
X206265740Y-93692514D01*
X206334516Y-93727557D01*
X206487829Y-93777371D01*
X206498884Y-93780963D01*
X206669586Y-93808000D01*
X206669587Y-93808000D01*
X206842413Y-93808000D01*
X206842414Y-93808000D01*
X207013116Y-93780963D01*
X207013119Y-93780962D01*
X207013120Y-93780962D01*
X207177483Y-93727557D01*
X207177483Y-93727556D01*
X207177486Y-93727556D01*
X207331477Y-93649094D01*
X207471299Y-93547507D01*
X207593507Y-93425299D01*
X207695094Y-93285477D01*
X207773556Y-93131486D01*
X207826963Y-92967116D01*
X207854000Y-92796414D01*
X207854000Y-92623586D01*
X207826963Y-92452884D01*
X207826962Y-92452880D01*
X207826962Y-92452879D01*
X207773557Y-92288516D01*
X207695093Y-92134522D01*
X207593507Y-91994701D01*
X207471299Y-91872493D01*
X207331477Y-91770906D01*
X207177483Y-91692442D01*
X207013118Y-91639037D01*
X206899314Y-91621012D01*
X206842414Y-91612000D01*
X206669586Y-91612000D01*
X206612685Y-91621012D01*
X206498882Y-91639037D01*
X206498879Y-91639037D01*
X206334516Y-91692442D01*
X206180522Y-91770906D01*
X206100748Y-91828865D01*
X206040701Y-91872493D01*
X206040699Y-91872495D01*
X206040698Y-91872495D01*
X205918495Y-91994698D01*
X205918495Y-91994699D01*
X205918493Y-91994701D01*
X205883276Y-92043173D01*
X205816906Y-92134522D01*
X205738442Y-92288516D01*
X205685037Y-92452879D01*
X205685037Y-92452882D01*
X205685037Y-92452884D01*
X205658000Y-92623586D01*
X195903539Y-92623586D01*
X195907383Y-92599316D01*
X195933500Y-92434422D01*
X195933500Y-92237577D01*
X195902709Y-92043173D01*
X195852790Y-91889541D01*
X195841884Y-91855975D01*
X195841882Y-91855972D01*
X195841882Y-91855970D01*
X195752523Y-91680594D01*
X195722330Y-91639037D01*
X195636828Y-91521354D01*
X195497646Y-91382172D01*
X195338405Y-91266476D01*
X195288331Y-91240962D01*
X195163029Y-91177117D01*
X194975826Y-91116290D01*
X194781422Y-91085500D01*
X194781417Y-91085500D01*
X194584583Y-91085500D01*
X194584578Y-91085500D01*
X194390173Y-91116290D01*
X194202970Y-91177117D01*
X194027594Y-91266476D01*
X193936741Y-91332485D01*
X193868354Y-91382172D01*
X193868352Y-91382174D01*
X193868351Y-91382174D01*
X193729174Y-91521351D01*
X193729174Y-91521352D01*
X193729172Y-91521354D01*
X193690923Y-91573999D01*
X193613476Y-91680594D01*
X193524117Y-91855970D01*
X193463290Y-92043173D01*
X193432500Y-92237577D01*
X181125225Y-92237577D01*
X181156389Y-92176416D01*
X181156390Y-92176414D01*
X181199774Y-92091266D01*
X181199778Y-92091258D01*
X181265319Y-91889544D01*
X181265319Y-91889541D01*
X181298500Y-91680050D01*
X181298500Y-91467949D01*
X181265319Y-91258458D01*
X181265319Y-91258455D01*
X181199778Y-91056741D01*
X181199776Y-91056738D01*
X181103489Y-90867763D01*
X181103481Y-90867750D01*
X181064481Y-90814071D01*
X181064480Y-90814070D01*
X180487034Y-91391516D01*
X180477496Y-91355918D01*
X180403112Y-91227082D01*
X180297918Y-91121888D01*
X180169082Y-91047504D01*
X180133480Y-91037964D01*
X180710928Y-90460518D01*
X180657244Y-90421514D01*
X180468261Y-90325223D01*
X180468258Y-90325221D01*
X180362199Y-90290761D01*
X180304523Y-90251324D01*
X180277325Y-90186965D01*
X180289240Y-90118119D01*
X180320934Y-90083586D01*
X205658000Y-90083586D01*
X205658000Y-90256413D01*
X205685037Y-90427117D01*
X205685037Y-90427120D01*
X205738442Y-90591483D01*
X205738444Y-90591486D01*
X205816906Y-90745477D01*
X205918493Y-90885299D01*
X206040701Y-91007507D01*
X206180523Y-91109094D01*
X206314024Y-91177116D01*
X206334516Y-91187557D01*
X206487829Y-91237371D01*
X206498884Y-91240963D01*
X206669586Y-91268000D01*
X206669587Y-91268000D01*
X206842413Y-91268000D01*
X206842414Y-91268000D01*
X207013116Y-91240963D01*
X207013119Y-91240962D01*
X207013120Y-91240962D01*
X207177483Y-91187557D01*
X207177483Y-91187556D01*
X207177486Y-91187556D01*
X207331477Y-91109094D01*
X207471299Y-91007507D01*
X207593507Y-90885299D01*
X207695094Y-90745477D01*
X207773556Y-90591486D01*
X207826963Y-90427116D01*
X207854000Y-90256414D01*
X207854000Y-90083586D01*
X207826963Y-89912884D01*
X207826962Y-89912880D01*
X207826962Y-89912879D01*
X207773557Y-89748516D01*
X207773556Y-89748514D01*
X207695094Y-89594523D01*
X207593507Y-89454701D01*
X207471299Y-89332493D01*
X207331477Y-89230906D01*
X207177483Y-89152442D01*
X207013118Y-89099037D01*
X206899314Y-89081012D01*
X206842414Y-89072000D01*
X206669586Y-89072000D01*
X206612685Y-89081012D01*
X206498882Y-89099037D01*
X206498879Y-89099037D01*
X206334516Y-89152442D01*
X206180522Y-89230906D01*
X206147345Y-89255011D01*
X206040701Y-89332493D01*
X206040699Y-89332495D01*
X206040698Y-89332495D01*
X205918495Y-89454698D01*
X205918495Y-89454699D01*
X205918493Y-89454701D01*
X205882120Y-89504764D01*
X205816906Y-89594522D01*
X205738442Y-89748516D01*
X205685037Y-89912879D01*
X205685037Y-89912882D01*
X205658000Y-90083586D01*
X180320934Y-90083586D01*
X180336484Y-90066643D01*
X180345691Y-90061609D01*
X180353706Y-90057657D01*
X180372486Y-90051556D01*
X180526477Y-89973094D01*
X180666299Y-89871507D01*
X180788507Y-89749299D01*
X180890094Y-89609477D01*
X180968556Y-89455486D01*
X180985849Y-89402264D01*
X181021962Y-89291120D01*
X181021962Y-89291119D01*
X181021963Y-89291116D01*
X181049000Y-89120414D01*
X181049000Y-88970051D01*
X196264258Y-88970051D01*
X196264258Y-89115001D01*
X196295315Y-89230906D01*
X196301775Y-89255014D01*
X196374246Y-89380537D01*
X196374248Y-89380539D01*
X196374249Y-89380541D01*
X196476743Y-89483035D01*
X196476744Y-89483036D01*
X196476746Y-89483037D01*
X196602269Y-89555508D01*
X196602270Y-89555508D01*
X196602273Y-89555510D01*
X196742283Y-89593026D01*
X196742286Y-89593026D01*
X196887230Y-89593026D01*
X196887233Y-89593026D01*
X197027243Y-89555510D01*
X197152773Y-89483035D01*
X197255267Y-89380541D01*
X197327742Y-89255011D01*
X197365258Y-89115001D01*
X197365258Y-88991778D01*
X199772012Y-88991778D01*
X199772012Y-89136728D01*
X199803706Y-89255011D01*
X199809529Y-89276741D01*
X199882000Y-89402264D01*
X199882002Y-89402266D01*
X199882003Y-89402268D01*
X199984497Y-89504762D01*
X199984498Y-89504763D01*
X199984500Y-89504764D01*
X200110023Y-89577235D01*
X200110024Y-89577235D01*
X200110027Y-89577237D01*
X200250037Y-89614753D01*
X200250040Y-89614753D01*
X200394984Y-89614753D01*
X200394987Y-89614753D01*
X200534997Y-89577237D01*
X200660527Y-89504762D01*
X200763021Y-89402268D01*
X200835496Y-89276738D01*
X200873012Y-89136728D01*
X200873012Y-88991778D01*
X200835496Y-88851768D01*
X200792260Y-88776882D01*
X200763023Y-88726241D01*
X200763018Y-88726235D01*
X200660529Y-88623746D01*
X200660523Y-88623741D01*
X200535000Y-88551270D01*
X200535001Y-88551270D01*
X200523518Y-88548193D01*
X200394987Y-88513753D01*
X200250037Y-88513753D01*
X200121505Y-88548193D01*
X200110023Y-88551270D01*
X199984500Y-88623741D01*
X199984494Y-88623746D01*
X199882005Y-88726235D01*
X199882000Y-88726241D01*
X199809529Y-88851764D01*
X199809528Y-88851768D01*
X199772012Y-88991778D01*
X197365258Y-88991778D01*
X197365258Y-88970051D01*
X197327742Y-88830041D01*
X197268828Y-88728000D01*
X197255269Y-88704514D01*
X197255264Y-88704508D01*
X197152775Y-88602019D01*
X197152769Y-88602014D01*
X197027246Y-88529543D01*
X197027247Y-88529543D01*
X197015764Y-88526466D01*
X196887233Y-88492026D01*
X196742283Y-88492026D01*
X196613751Y-88526466D01*
X196602269Y-88529543D01*
X196476746Y-88602014D01*
X196476740Y-88602019D01*
X196374251Y-88704508D01*
X196374246Y-88704514D01*
X196301775Y-88830037D01*
X196301774Y-88830041D01*
X196264258Y-88970051D01*
X181049000Y-88970051D01*
X181049000Y-88947586D01*
X181021963Y-88776884D01*
X181021962Y-88776880D01*
X181021962Y-88776879D01*
X180968557Y-88612516D01*
X180963209Y-88602019D01*
X180890094Y-88458523D01*
X180788507Y-88318701D01*
X180666299Y-88196493D01*
X180526477Y-88094906D01*
X180478589Y-88070506D01*
X180372483Y-88016442D01*
X180208118Y-87963037D01*
X180094314Y-87945012D01*
X180037414Y-87936000D01*
X179864586Y-87936000D01*
X179807685Y-87945012D01*
X179693882Y-87963037D01*
X179693879Y-87963037D01*
X179529516Y-88016442D01*
X179375522Y-88094906D01*
X179295748Y-88152865D01*
X179235701Y-88196493D01*
X179235699Y-88196495D01*
X179235698Y-88196495D01*
X179113495Y-88318698D01*
X179113495Y-88318699D01*
X179113493Y-88318701D01*
X179094168Y-88345300D01*
X179011906Y-88458522D01*
X178933442Y-88612516D01*
X178880037Y-88776879D01*
X178880037Y-88776882D01*
X178868177Y-88851764D01*
X178853000Y-88947586D01*
X178853000Y-89120414D01*
X178855584Y-89136728D01*
X178880037Y-89291117D01*
X178880037Y-89291120D01*
X178933442Y-89455483D01*
X178995478Y-89577235D01*
X179011906Y-89609477D01*
X179113493Y-89749299D01*
X179235701Y-89871507D01*
X179375523Y-89973094D01*
X179529514Y-90051556D01*
X179537193Y-90054051D01*
X179539802Y-90054899D01*
X179597477Y-90094338D01*
X179624674Y-90158697D01*
X179612759Y-90227543D01*
X179565514Y-90279018D01*
X179539800Y-90290761D01*
X179433741Y-90325221D01*
X179433738Y-90325222D01*
X179244757Y-90421513D01*
X179191071Y-90460518D01*
X179191071Y-90460519D01*
X179768517Y-91037965D01*
X179732918Y-91047504D01*
X179604082Y-91121888D01*
X179498888Y-91227082D01*
X179424504Y-91355918D01*
X179414965Y-91391517D01*
X178837519Y-90814071D01*
X178837518Y-90814071D01*
X178798513Y-90867757D01*
X178702222Y-91056738D01*
X178702221Y-91056741D01*
X178636680Y-91258455D01*
X178636680Y-91258458D01*
X178603500Y-91467949D01*
X176014500Y-91467949D01*
X176014500Y-86407586D01*
X178853000Y-86407586D01*
X178853000Y-86580414D01*
X178857543Y-86609097D01*
X178880037Y-86751117D01*
X178880037Y-86751120D01*
X178933442Y-86915483D01*
X178933444Y-86915486D01*
X179011906Y-87069477D01*
X179113493Y-87209299D01*
X179235701Y-87331507D01*
X179375523Y-87433094D01*
X179529514Y-87511556D01*
X179529516Y-87511557D01*
X179628092Y-87543586D01*
X179693884Y-87564963D01*
X179864586Y-87592000D01*
X179864587Y-87592000D01*
X180037413Y-87592000D01*
X180037414Y-87592000D01*
X180208116Y-87564963D01*
X180208119Y-87564962D01*
X180208120Y-87564962D01*
X180293707Y-87537153D01*
X185478715Y-87537153D01*
X185478715Y-87682103D01*
X185487909Y-87716414D01*
X185516232Y-87822116D01*
X185588703Y-87947639D01*
X185588705Y-87947641D01*
X185588706Y-87947643D01*
X185691200Y-88050137D01*
X185691201Y-88050138D01*
X185691203Y-88050139D01*
X185816726Y-88122610D01*
X185816727Y-88122610D01*
X185816730Y-88122612D01*
X185956740Y-88160128D01*
X185956743Y-88160128D01*
X186101687Y-88160128D01*
X186101690Y-88160128D01*
X186241700Y-88122612D01*
X186367230Y-88050137D01*
X186469724Y-87947643D01*
X186542199Y-87822113D01*
X186579715Y-87682103D01*
X186579715Y-87557525D01*
X189187500Y-87557525D01*
X189187500Y-87702475D01*
X189219558Y-87822116D01*
X189225017Y-87842488D01*
X189297488Y-87968011D01*
X189297490Y-87968013D01*
X189297491Y-87968015D01*
X189399985Y-88070509D01*
X189399986Y-88070510D01*
X189399988Y-88070511D01*
X189525511Y-88142982D01*
X189525512Y-88142982D01*
X189525515Y-88142984D01*
X189665525Y-88180500D01*
X189665528Y-88180500D01*
X189810472Y-88180500D01*
X189810475Y-88180500D01*
X189950485Y-88142984D01*
X190076015Y-88070509D01*
X190178509Y-87968015D01*
X190250984Y-87842485D01*
X190288500Y-87702475D01*
X190288500Y-87557525D01*
X190250984Y-87417515D01*
X190225213Y-87372879D01*
X190178511Y-87291988D01*
X190178506Y-87291982D01*
X190076017Y-87189493D01*
X190076011Y-87189488D01*
X189950488Y-87117017D01*
X189950489Y-87117017D01*
X189939006Y-87113940D01*
X189810475Y-87079500D01*
X189665525Y-87079500D01*
X189536993Y-87113940D01*
X189525511Y-87117017D01*
X189399988Y-87189488D01*
X189399982Y-87189493D01*
X189297493Y-87291982D01*
X189297488Y-87291988D01*
X189225017Y-87417511D01*
X189225016Y-87417515D01*
X189187500Y-87557525D01*
X186579715Y-87557525D01*
X186579715Y-87537153D01*
X186542199Y-87397143D01*
X186469724Y-87271613D01*
X186367230Y-87169119D01*
X186367228Y-87169118D01*
X186367226Y-87169116D01*
X186241703Y-87096645D01*
X186241704Y-87096645D01*
X186230221Y-87093568D01*
X186101690Y-87059128D01*
X185956740Y-87059128D01*
X185828208Y-87093568D01*
X185816726Y-87096645D01*
X185691203Y-87169116D01*
X185691197Y-87169121D01*
X185588708Y-87271610D01*
X185588703Y-87271616D01*
X185516232Y-87397139D01*
X185516231Y-87397143D01*
X185478715Y-87537153D01*
X180293707Y-87537153D01*
X180372483Y-87511557D01*
X180372483Y-87511556D01*
X180372486Y-87511556D01*
X180526477Y-87433094D01*
X180666299Y-87331507D01*
X180788507Y-87209299D01*
X180890094Y-87069477D01*
X180968556Y-86915486D01*
X181021963Y-86751116D01*
X181049000Y-86580414D01*
X181049000Y-86407586D01*
X181021963Y-86236884D01*
X181021962Y-86236880D01*
X181021962Y-86236879D01*
X180968557Y-86072516D01*
X180890093Y-85918522D01*
X180788507Y-85778701D01*
X180666299Y-85656493D01*
X180526477Y-85554906D01*
X180501367Y-85542112D01*
X180372483Y-85476442D01*
X180208118Y-85423037D01*
X180094314Y-85405012D01*
X180037414Y-85396000D01*
X179864586Y-85396000D01*
X179807685Y-85405012D01*
X179693882Y-85423037D01*
X179693879Y-85423037D01*
X179529516Y-85476442D01*
X179375522Y-85554906D01*
X179303467Y-85607258D01*
X179235701Y-85656493D01*
X179235699Y-85656495D01*
X179235698Y-85656495D01*
X179113495Y-85778698D01*
X179113495Y-85778699D01*
X179113493Y-85778701D01*
X179069865Y-85838748D01*
X179011906Y-85918522D01*
X178933442Y-86072516D01*
X178880037Y-86236879D01*
X178880037Y-86236882D01*
X178863898Y-86338779D01*
X178853000Y-86407586D01*
X176014500Y-86407586D01*
X176014500Y-83867586D01*
X178853000Y-83867586D01*
X178853000Y-84040413D01*
X178880037Y-84211117D01*
X178880037Y-84211120D01*
X178933442Y-84375483D01*
X178959397Y-84426422D01*
X179011906Y-84529477D01*
X179113493Y-84669299D01*
X179235701Y-84791507D01*
X179375523Y-84893094D01*
X179529514Y-84971556D01*
X179529516Y-84971557D01*
X179665117Y-85015616D01*
X179693884Y-85024963D01*
X179864586Y-85052000D01*
X179864587Y-85052000D01*
X180037413Y-85052000D01*
X180037414Y-85052000D01*
X180208116Y-85024963D01*
X180208119Y-85024962D01*
X180208120Y-85024962D01*
X180372483Y-84971557D01*
X180372483Y-84971556D01*
X180372486Y-84971556D01*
X180526477Y-84893094D01*
X180666299Y-84791507D01*
X180788507Y-84669299D01*
X180890094Y-84529477D01*
X180968556Y-84375486D01*
X181015965Y-84229577D01*
X190773500Y-84229577D01*
X190773500Y-84426422D01*
X190804290Y-84620826D01*
X190865117Y-84808029D01*
X190923586Y-84922780D01*
X190954476Y-84983405D01*
X191070172Y-85142646D01*
X191209354Y-85281828D01*
X191368595Y-85397524D01*
X191445911Y-85436918D01*
X191543970Y-85486882D01*
X191543972Y-85486882D01*
X191543975Y-85486884D01*
X191644317Y-85519487D01*
X191731173Y-85547709D01*
X191925578Y-85578500D01*
X191925583Y-85578500D01*
X192122422Y-85578500D01*
X192316826Y-85547709D01*
X192504025Y-85486884D01*
X192679405Y-85397524D01*
X192838646Y-85281828D01*
X192977828Y-85142646D01*
X193093129Y-84983949D01*
X205408500Y-84983949D01*
X205408500Y-85196050D01*
X205441680Y-85405541D01*
X205441680Y-85405544D01*
X205507221Y-85607258D01*
X205507223Y-85607261D01*
X205603514Y-85796244D01*
X205642518Y-85849927D01*
X205642518Y-85849928D01*
X206219964Y-85272481D01*
X206229504Y-85308082D01*
X206303888Y-85436918D01*
X206409082Y-85542112D01*
X206537918Y-85616496D01*
X206573517Y-85626034D01*
X205996070Y-86203480D01*
X205996071Y-86203481D01*
X206049750Y-86242481D01*
X206049763Y-86242489D01*
X206238738Y-86338776D01*
X206238744Y-86338779D01*
X206344799Y-86373238D01*
X206402475Y-86412675D01*
X206429674Y-86477033D01*
X206417760Y-86545880D01*
X206370516Y-86597356D01*
X206344809Y-86609097D01*
X206334519Y-86612441D01*
X206180522Y-86690906D01*
X206100748Y-86748865D01*
X206040701Y-86792493D01*
X206040699Y-86792495D01*
X206040698Y-86792495D01*
X205918495Y-86914698D01*
X205918495Y-86914699D01*
X205918493Y-86914701D01*
X205917925Y-86915483D01*
X205816906Y-87054522D01*
X205738442Y-87208516D01*
X205685037Y-87372879D01*
X205685037Y-87372882D01*
X205658000Y-87543586D01*
X205658000Y-87716413D01*
X205685037Y-87887117D01*
X205685037Y-87887120D01*
X205738442Y-88051483D01*
X205804180Y-88180500D01*
X205816906Y-88205477D01*
X205918493Y-88345299D01*
X206040701Y-88467507D01*
X206180523Y-88569094D01*
X206287780Y-88623744D01*
X206334516Y-88647557D01*
X206487829Y-88697371D01*
X206498884Y-88700963D01*
X206669586Y-88728000D01*
X206669587Y-88728000D01*
X206842413Y-88728000D01*
X206842414Y-88728000D01*
X207013116Y-88700963D01*
X207013119Y-88700962D01*
X207013120Y-88700962D01*
X207177483Y-88647557D01*
X207177483Y-88647556D01*
X207177486Y-88647556D01*
X207331477Y-88569094D01*
X207471299Y-88467507D01*
X207593507Y-88345299D01*
X207695094Y-88205477D01*
X207773556Y-88051486D01*
X207784942Y-88016444D01*
X207826962Y-87887120D01*
X207826962Y-87887119D01*
X207826963Y-87887116D01*
X207854000Y-87716414D01*
X207854000Y-87543586D01*
X207826963Y-87372884D01*
X207826962Y-87372880D01*
X207826962Y-87372879D01*
X207773557Y-87208516D01*
X207726936Y-87117017D01*
X207695094Y-87054523D01*
X207593507Y-86914701D01*
X207471299Y-86792493D01*
X207331477Y-86690906D01*
X207177486Y-86612444D01*
X207177485Y-86612443D01*
X207177480Y-86612441D01*
X207177482Y-86612441D01*
X207167193Y-86609098D01*
X207109519Y-86569657D01*
X207082325Y-86505297D01*
X207094242Y-86436452D01*
X207141489Y-86384978D01*
X207167200Y-86373238D01*
X207273255Y-86338779D01*
X207273261Y-86338776D01*
X207462244Y-86242485D01*
X207515927Y-86203481D01*
X207515927Y-86203480D01*
X206938482Y-85626035D01*
X206974082Y-85616496D01*
X207102918Y-85542112D01*
X207208112Y-85436918D01*
X207282496Y-85308082D01*
X207292035Y-85272482D01*
X207869480Y-85849927D01*
X207869481Y-85849927D01*
X207908485Y-85796244D01*
X208004776Y-85607261D01*
X208004778Y-85607258D01*
X208070319Y-85405544D01*
X208070319Y-85405541D01*
X208103500Y-85196050D01*
X208103500Y-84983949D01*
X208070319Y-84774458D01*
X208070319Y-84774455D01*
X208004778Y-84572741D01*
X208004776Y-84572738D01*
X207908489Y-84383763D01*
X207908481Y-84383750D01*
X207869481Y-84330071D01*
X207869480Y-84330070D01*
X207292034Y-84907516D01*
X207282496Y-84871918D01*
X207208112Y-84743082D01*
X207102918Y-84637888D01*
X206974082Y-84563504D01*
X206938480Y-84553964D01*
X207515928Y-83976518D01*
X207462244Y-83937514D01*
X207273261Y-83841223D01*
X207273258Y-83841221D01*
X207167199Y-83806761D01*
X207109523Y-83767324D01*
X207082325Y-83702965D01*
X207094240Y-83634119D01*
X207141484Y-83582643D01*
X207167200Y-83570899D01*
X207177481Y-83567558D01*
X207177483Y-83567556D01*
X207177486Y-83567556D01*
X207331477Y-83489094D01*
X207471299Y-83387507D01*
X207593507Y-83265299D01*
X207695094Y-83125477D01*
X207773556Y-82971486D01*
X207784942Y-82936444D01*
X207826962Y-82807120D01*
X207826962Y-82807119D01*
X207826963Y-82807116D01*
X207854000Y-82636414D01*
X207854000Y-82463586D01*
X207826963Y-82292884D01*
X207826962Y-82292880D01*
X207826962Y-82292879D01*
X207773557Y-82128516D01*
X207695093Y-81974522D01*
X207593507Y-81834701D01*
X207471299Y-81712493D01*
X207331477Y-81610906D01*
X207177483Y-81532442D01*
X207013118Y-81479037D01*
X206899314Y-81461012D01*
X206842414Y-81452000D01*
X206669586Y-81452000D01*
X206612685Y-81461012D01*
X206498882Y-81479037D01*
X206498879Y-81479037D01*
X206334516Y-81532442D01*
X206180522Y-81610906D01*
X206100748Y-81668865D01*
X206040701Y-81712493D01*
X206040699Y-81712495D01*
X206040698Y-81712495D01*
X205918495Y-81834698D01*
X205918495Y-81834699D01*
X205918493Y-81834701D01*
X205917925Y-81835483D01*
X205816906Y-81974522D01*
X205738442Y-82128516D01*
X205685037Y-82292879D01*
X205685037Y-82292882D01*
X205658000Y-82463586D01*
X205658000Y-82636413D01*
X205685037Y-82807117D01*
X205685037Y-82807120D01*
X205738442Y-82971483D01*
X205808149Y-83108290D01*
X205816906Y-83125477D01*
X205918493Y-83265299D01*
X206040701Y-83387507D01*
X206180523Y-83489094D01*
X206334514Y-83567556D01*
X206342193Y-83570051D01*
X206344802Y-83570899D01*
X206402477Y-83610338D01*
X206429674Y-83674697D01*
X206417759Y-83743543D01*
X206370514Y-83795018D01*
X206344800Y-83806761D01*
X206238741Y-83841221D01*
X206238738Y-83841222D01*
X206049757Y-83937513D01*
X205996071Y-83976518D01*
X205996071Y-83976519D01*
X206573517Y-84553965D01*
X206537918Y-84563504D01*
X206409082Y-84637888D01*
X206303888Y-84743082D01*
X206229504Y-84871918D01*
X206219965Y-84907517D01*
X205642519Y-84330071D01*
X205642518Y-84330071D01*
X205603513Y-84383757D01*
X205507222Y-84572738D01*
X205507221Y-84572741D01*
X205441680Y-84774455D01*
X205441680Y-84774458D01*
X205408500Y-84983949D01*
X193093129Y-84983949D01*
X193093524Y-84983405D01*
X193139540Y-84893094D01*
X193182881Y-84808031D01*
X193182882Y-84808029D01*
X193182884Y-84808025D01*
X193243709Y-84620826D01*
X193258177Y-84529477D01*
X193274500Y-84426422D01*
X193274500Y-84229577D01*
X193243709Y-84035173D01*
X193182882Y-83847970D01*
X193108998Y-83702965D01*
X193093524Y-83672595D01*
X192977828Y-83513354D01*
X192838646Y-83374172D01*
X192679405Y-83258476D01*
X192504029Y-83169117D01*
X192316826Y-83108290D01*
X192122422Y-83077500D01*
X192122417Y-83077500D01*
X191925583Y-83077500D01*
X191925578Y-83077500D01*
X191731173Y-83108290D01*
X191543970Y-83169117D01*
X191368594Y-83258476D01*
X191277741Y-83324485D01*
X191209354Y-83374172D01*
X191209352Y-83374174D01*
X191209351Y-83374174D01*
X191070174Y-83513351D01*
X191070174Y-83513352D01*
X191070172Y-83513354D01*
X191030792Y-83567556D01*
X190954476Y-83672594D01*
X190865117Y-83847970D01*
X190804290Y-84035173D01*
X190773500Y-84229577D01*
X181015965Y-84229577D01*
X181021963Y-84211116D01*
X181049000Y-84040414D01*
X181049000Y-83867586D01*
X181021963Y-83696884D01*
X181021962Y-83696880D01*
X181021962Y-83696879D01*
X180968557Y-83532516D01*
X180968556Y-83532514D01*
X180890094Y-83378523D01*
X180788507Y-83238701D01*
X180666299Y-83116493D01*
X180526477Y-83014906D01*
X180372483Y-82936442D01*
X180208118Y-82883037D01*
X180094314Y-82865012D01*
X180037414Y-82856000D01*
X179864586Y-82856000D01*
X179807685Y-82865012D01*
X179693882Y-82883037D01*
X179693879Y-82883037D01*
X179529516Y-82936442D01*
X179375522Y-83014906D01*
X179295748Y-83072865D01*
X179235701Y-83116493D01*
X179235699Y-83116495D01*
X179235698Y-83116495D01*
X179113495Y-83238698D01*
X179113495Y-83238699D01*
X179113493Y-83238701D01*
X179094168Y-83265300D01*
X179011906Y-83378522D01*
X178933442Y-83532516D01*
X178880037Y-83696879D01*
X178880037Y-83696882D01*
X178853000Y-83867586D01*
X176014500Y-83867586D01*
X176014500Y-81327586D01*
X178853000Y-81327586D01*
X178853000Y-81500413D01*
X178880037Y-81671117D01*
X178880037Y-81671120D01*
X178933442Y-81835483D01*
X178933444Y-81835486D01*
X179011906Y-81989477D01*
X179113493Y-82129299D01*
X179235701Y-82251507D01*
X179375523Y-82353094D01*
X179529514Y-82431556D01*
X179529516Y-82431557D01*
X179628092Y-82463586D01*
X179693884Y-82484963D01*
X179864586Y-82512000D01*
X179864587Y-82512000D01*
X180037413Y-82512000D01*
X180037414Y-82512000D01*
X180208116Y-82484963D01*
X180208119Y-82484962D01*
X180208120Y-82484962D01*
X180372483Y-82431557D01*
X180372483Y-82431556D01*
X180372486Y-82431556D01*
X180526477Y-82353094D01*
X180666299Y-82251507D01*
X180788507Y-82129299D01*
X180890094Y-81989477D01*
X180968556Y-81835486D01*
X181021963Y-81671116D01*
X181049000Y-81500414D01*
X181049000Y-81327586D01*
X181021963Y-81156884D01*
X181021962Y-81156880D01*
X181021962Y-81156879D01*
X180968557Y-80992516D01*
X180890093Y-80838522D01*
X180788507Y-80698701D01*
X180666299Y-80576493D01*
X180526477Y-80474906D01*
X180470727Y-80446500D01*
X180372483Y-80396442D01*
X180208118Y-80343037D01*
X180094314Y-80325012D01*
X180037414Y-80316000D01*
X179864586Y-80316000D01*
X179807685Y-80325012D01*
X179693882Y-80343037D01*
X179693879Y-80343037D01*
X179529516Y-80396442D01*
X179375522Y-80474906D01*
X179295748Y-80532865D01*
X179235701Y-80576493D01*
X179235699Y-80576495D01*
X179235698Y-80576495D01*
X179113495Y-80698698D01*
X179113495Y-80698699D01*
X179113493Y-80698701D01*
X179069865Y-80758748D01*
X179011906Y-80838522D01*
X178933442Y-80992516D01*
X178880037Y-81156879D01*
X178880037Y-81156882D01*
X178853000Y-81327586D01*
X176014500Y-81327586D01*
X176014500Y-79097577D01*
X196107500Y-79097577D01*
X196107500Y-79294422D01*
X196138290Y-79488826D01*
X196199117Y-79676029D01*
X196288476Y-79851405D01*
X196404172Y-80010646D01*
X196543354Y-80149828D01*
X196702595Y-80265524D01*
X196785455Y-80307743D01*
X196877970Y-80354882D01*
X196877972Y-80354882D01*
X196877975Y-80354884D01*
X196978317Y-80387487D01*
X197065173Y-80415709D01*
X197259578Y-80446500D01*
X197259583Y-80446500D01*
X197456422Y-80446500D01*
X197650826Y-80415709D01*
X197710123Y-80396442D01*
X197838025Y-80354884D01*
X198013405Y-80265524D01*
X198172646Y-80149828D01*
X198311828Y-80010646D01*
X198427524Y-79851405D01*
X198516884Y-79676025D01*
X198577709Y-79488826D01*
X198608500Y-79294422D01*
X198608500Y-79097577D01*
X198577709Y-78903173D01*
X198516882Y-78715970D01*
X198427523Y-78540594D01*
X198311828Y-78381354D01*
X198172646Y-78242172D01*
X198013405Y-78126476D01*
X197838029Y-78037117D01*
X197650826Y-77976290D01*
X197456422Y-77945500D01*
X197456417Y-77945500D01*
X197259583Y-77945500D01*
X197259578Y-77945500D01*
X197065173Y-77976290D01*
X196877970Y-78037117D01*
X196702594Y-78126476D01*
X196611741Y-78192485D01*
X196543354Y-78242172D01*
X196543352Y-78242174D01*
X196543351Y-78242174D01*
X196404174Y-78381351D01*
X196404174Y-78381352D01*
X196404172Y-78381354D01*
X196354485Y-78449741D01*
X196288476Y-78540594D01*
X196199117Y-78715970D01*
X196138290Y-78903173D01*
X196107500Y-79097577D01*
X176014500Y-79097577D01*
X176014500Y-77472219D01*
X186118940Y-77472219D01*
X186118940Y-77617169D01*
X186156456Y-77757179D01*
X186156457Y-77757182D01*
X186228928Y-77882705D01*
X186228930Y-77882707D01*
X186228931Y-77882709D01*
X186331425Y-77985203D01*
X186331426Y-77985204D01*
X186331428Y-77985205D01*
X186456951Y-78057676D01*
X186456952Y-78057676D01*
X186456955Y-78057678D01*
X186596965Y-78095194D01*
X186596968Y-78095194D01*
X186741912Y-78095194D01*
X186741915Y-78095194D01*
X186881925Y-78057678D01*
X187007455Y-77985203D01*
X187109949Y-77882709D01*
X187182424Y-77757179D01*
X187219940Y-77617169D01*
X187219940Y-77472219D01*
X187215695Y-77456375D01*
X190585235Y-77456375D01*
X190585235Y-77601325D01*
X190622751Y-77741335D01*
X190622752Y-77741338D01*
X190695223Y-77866861D01*
X190695225Y-77866863D01*
X190695226Y-77866865D01*
X190797720Y-77969359D01*
X190797721Y-77969360D01*
X190797723Y-77969361D01*
X190923246Y-78041832D01*
X190923247Y-78041832D01*
X190923250Y-78041834D01*
X191063260Y-78079350D01*
X191063263Y-78079350D01*
X191208207Y-78079350D01*
X191208210Y-78079350D01*
X191348220Y-78041834D01*
X191473750Y-77969359D01*
X191576244Y-77866865D01*
X191648719Y-77741335D01*
X191686235Y-77601325D01*
X191686235Y-77456375D01*
X191648719Y-77316365D01*
X191585393Y-77206682D01*
X191576246Y-77190838D01*
X191576241Y-77190832D01*
X191473752Y-77088343D01*
X191473746Y-77088338D01*
X191348223Y-77015867D01*
X191348224Y-77015867D01*
X191336741Y-77012790D01*
X191208210Y-76978350D01*
X191063260Y-76978350D01*
X190934728Y-77012790D01*
X190923246Y-77015867D01*
X190797723Y-77088338D01*
X190797717Y-77088343D01*
X190695228Y-77190832D01*
X190695223Y-77190838D01*
X190622752Y-77316361D01*
X190622751Y-77316365D01*
X190585235Y-77456375D01*
X187215695Y-77456375D01*
X187182424Y-77332209D01*
X187173276Y-77316365D01*
X187109951Y-77206682D01*
X187109946Y-77206676D01*
X187007457Y-77104187D01*
X187007451Y-77104182D01*
X186881928Y-77031711D01*
X186881929Y-77031711D01*
X186870446Y-77028634D01*
X186741915Y-76994194D01*
X186596965Y-76994194D01*
X186468433Y-77028634D01*
X186456951Y-77031711D01*
X186331428Y-77104182D01*
X186331422Y-77104187D01*
X186228933Y-77206676D01*
X186228928Y-77206682D01*
X186156457Y-77332205D01*
X186156456Y-77332209D01*
X186118940Y-77472219D01*
X176014500Y-77472219D01*
X176014500Y-76446411D01*
X198704458Y-76446411D01*
X198704458Y-76591361D01*
X198741974Y-76731371D01*
X198741975Y-76731374D01*
X198814446Y-76856897D01*
X198814448Y-76856899D01*
X198814449Y-76856901D01*
X198916943Y-76959395D01*
X198916944Y-76959396D01*
X198916946Y-76959397D01*
X199042469Y-77031868D01*
X199042470Y-77031868D01*
X199042473Y-77031870D01*
X199182483Y-77069386D01*
X199182486Y-77069386D01*
X199327430Y-77069386D01*
X199327433Y-77069386D01*
X199467443Y-77031870D01*
X199592973Y-76959395D01*
X199695467Y-76856901D01*
X199767942Y-76731371D01*
X199805458Y-76591361D01*
X199805458Y-76446411D01*
X199767942Y-76306401D01*
X199695467Y-76180871D01*
X199592973Y-76078377D01*
X199592971Y-76078376D01*
X199592969Y-76078374D01*
X199467446Y-76005903D01*
X199467447Y-76005903D01*
X199455964Y-76002826D01*
X199327433Y-75968386D01*
X199182483Y-75968386D01*
X199053951Y-76002826D01*
X199042469Y-76005903D01*
X198916946Y-76078374D01*
X198916940Y-76078379D01*
X198814451Y-76180868D01*
X198814446Y-76180874D01*
X198741975Y-76306397D01*
X198741974Y-76306401D01*
X198704458Y-76446411D01*
X176014500Y-76446411D01*
X176014500Y-72006000D01*
X176034185Y-71938961D01*
X176086989Y-71893206D01*
X176138500Y-71882000D01*
X186312000Y-71882000D01*
X186379039Y-71901685D01*
X186424794Y-71954489D01*
X186436000Y-72006000D01*
X186436000Y-74676000D01*
X191516000Y-74676000D01*
X191516000Y-73504309D01*
X191535685Y-73437270D01*
X191588489Y-73391515D01*
X191640000Y-73380309D01*
X193548000Y-73380309D01*
X193548000Y-71252329D01*
X193567685Y-71185290D01*
X193620489Y-71139535D01*
X193671945Y-71128329D01*
X201814999Y-71124863D01*
X201882044Y-71144518D01*
X201927821Y-71197303D01*
X201934823Y-71216766D01*
X201941236Y-71240701D01*
X201941238Y-71240704D01*
X202013709Y-71366227D01*
X202013711Y-71366229D01*
X202013712Y-71366231D01*
X202116206Y-71468725D01*
X202116207Y-71468726D01*
X202116209Y-71468727D01*
X202241732Y-71541198D01*
X202241733Y-71541198D01*
X202241736Y-71541200D01*
X202381746Y-71578716D01*
X202381749Y-71578716D01*
X202526693Y-71578716D01*
X202526696Y-71578716D01*
X202666706Y-71541200D01*
X202792236Y-71468725D01*
X202894730Y-71366231D01*
X202967205Y-71240701D01*
X202973764Y-71216222D01*
X203010128Y-71156564D01*
X203072975Y-71126035D01*
X203093475Y-71124318D01*
X209560949Y-71121565D01*
X209627995Y-71141221D01*
G37*
G04 #@! TD.AperFunction*
G04 #@! TA.AperFunction,Conductor*
G36*
X269952539Y-30238185D02*
G01*
X269998294Y-30290989D01*
X270009500Y-30342500D01*
X270009500Y-99593500D01*
X269989815Y-99660539D01*
X269937011Y-99706294D01*
X269885500Y-99717500D01*
X213365000Y-99717500D01*
X213297961Y-99697815D01*
X213252206Y-99645011D01*
X213241000Y-99593500D01*
X213241000Y-95177525D01*
X249631674Y-95177525D01*
X249631674Y-95322475D01*
X249669190Y-95462485D01*
X249669191Y-95462488D01*
X249741662Y-95588011D01*
X249741664Y-95588013D01*
X249741665Y-95588015D01*
X249844159Y-95690509D01*
X249844160Y-95690510D01*
X249844162Y-95690511D01*
X249969685Y-95762982D01*
X249969686Y-95762982D01*
X249969689Y-95762984D01*
X250109699Y-95800500D01*
X250109702Y-95800500D01*
X250254646Y-95800500D01*
X250254649Y-95800500D01*
X250394659Y-95762984D01*
X250520189Y-95690509D01*
X250622683Y-95588015D01*
X250695158Y-95462485D01*
X250732674Y-95322475D01*
X250732674Y-95177525D01*
X250695158Y-95037515D01*
X250637573Y-94937776D01*
X250621101Y-94869878D01*
X250637572Y-94813780D01*
X250702984Y-94700485D01*
X250740500Y-94560475D01*
X250740500Y-94415525D01*
X250702984Y-94275515D01*
X250630509Y-94149985D01*
X250528015Y-94047491D01*
X250528013Y-94047490D01*
X250528011Y-94047488D01*
X250402488Y-93975017D01*
X250402489Y-93975017D01*
X250391006Y-93971940D01*
X250262475Y-93937500D01*
X250117525Y-93937500D01*
X249988993Y-93971940D01*
X249977511Y-93975017D01*
X249851988Y-94047488D01*
X249851982Y-94047493D01*
X249749493Y-94149982D01*
X249749488Y-94149988D01*
X249677017Y-94275511D01*
X249677016Y-94275515D01*
X249639500Y-94415525D01*
X249639500Y-94560475D01*
X249646772Y-94587613D01*
X249677017Y-94700488D01*
X249734599Y-94800222D01*
X249751072Y-94868122D01*
X249734599Y-94924222D01*
X249669191Y-95037511D01*
X249669190Y-95037515D01*
X249631674Y-95177525D01*
X213241000Y-95177525D01*
X213241000Y-93803648D01*
X263220500Y-93803648D01*
X263220500Y-94008351D01*
X263252522Y-94210534D01*
X263315781Y-94405223D01*
X263379691Y-94530653D01*
X263394885Y-94560472D01*
X263408715Y-94587613D01*
X263529028Y-94753213D01*
X263673786Y-94897971D01*
X263828749Y-95010556D01*
X263839390Y-95018287D01*
X263955607Y-95077503D01*
X264021776Y-95111218D01*
X264021778Y-95111218D01*
X264021781Y-95111220D01*
X264126137Y-95145127D01*
X264216465Y-95174477D01*
X264317557Y-95190488D01*
X264418648Y-95206500D01*
X264418649Y-95206500D01*
X264623351Y-95206500D01*
X264623352Y-95206500D01*
X264825534Y-95174477D01*
X265020219Y-95111220D01*
X265202610Y-95018287D01*
X265313422Y-94937778D01*
X265368213Y-94897971D01*
X265368215Y-94897968D01*
X265368219Y-94897966D01*
X265512966Y-94753219D01*
X265512968Y-94753215D01*
X265512971Y-94753213D01*
X265565732Y-94680590D01*
X265633287Y-94587610D01*
X265726220Y-94405219D01*
X265789477Y-94210534D01*
X265821500Y-94008352D01*
X265821500Y-93803648D01*
X265789477Y-93601466D01*
X265726220Y-93406781D01*
X265726218Y-93406778D01*
X265726218Y-93406776D01*
X265672837Y-93302011D01*
X265633287Y-93224390D01*
X265625556Y-93213749D01*
X265512971Y-93058786D01*
X265368213Y-92914028D01*
X265202613Y-92793715D01*
X265202612Y-92793714D01*
X265202610Y-92793713D01*
X265145653Y-92764691D01*
X265020223Y-92700781D01*
X264825534Y-92637522D01*
X264650995Y-92609878D01*
X264623352Y-92605500D01*
X264418648Y-92605500D01*
X264394329Y-92609351D01*
X264216465Y-92637522D01*
X264021776Y-92700781D01*
X263839386Y-92793715D01*
X263673786Y-92914028D01*
X263529028Y-93058786D01*
X263408715Y-93224386D01*
X263315781Y-93406776D01*
X263252522Y-93601465D01*
X263220500Y-93803648D01*
X213241000Y-93803648D01*
X213241000Y-92383525D01*
X225746156Y-92383525D01*
X225746156Y-92528475D01*
X225783672Y-92668485D01*
X225783673Y-92668488D01*
X225856144Y-92794011D01*
X225856146Y-92794013D01*
X225856147Y-92794015D01*
X225958641Y-92896509D01*
X225958642Y-92896510D01*
X225958644Y-92896511D01*
X226084167Y-92968982D01*
X226084168Y-92968982D01*
X226084171Y-92968984D01*
X226224181Y-93006500D01*
X226224184Y-93006500D01*
X226369128Y-93006500D01*
X226369131Y-93006500D01*
X226509141Y-92968984D01*
X226634671Y-92896509D01*
X226639655Y-92891525D01*
X246845500Y-92891525D01*
X246845500Y-93036475D01*
X246883016Y-93176485D01*
X246883017Y-93176488D01*
X246955488Y-93302011D01*
X246955490Y-93302013D01*
X246955491Y-93302015D01*
X247057985Y-93404509D01*
X247057986Y-93404510D01*
X247057988Y-93404511D01*
X247183511Y-93476982D01*
X247183512Y-93476982D01*
X247183515Y-93476984D01*
X247323525Y-93514500D01*
X247323528Y-93514500D01*
X247468472Y-93514500D01*
X247468475Y-93514500D01*
X247608485Y-93476984D01*
X247734015Y-93404509D01*
X247836509Y-93302015D01*
X247908984Y-93176485D01*
X247946500Y-93036475D01*
X247946500Y-92891525D01*
X247908984Y-92751515D01*
X247877051Y-92696206D01*
X247836511Y-92625988D01*
X247836506Y-92625982D01*
X247734017Y-92523493D01*
X247734011Y-92523488D01*
X247608488Y-92451017D01*
X247608489Y-92451017D01*
X247597006Y-92447940D01*
X247468475Y-92413500D01*
X247323525Y-92413500D01*
X247194993Y-92447940D01*
X247183511Y-92451017D01*
X247057988Y-92523488D01*
X247057982Y-92523493D01*
X246955493Y-92625982D01*
X246955488Y-92625988D01*
X246883017Y-92751511D01*
X246883016Y-92751515D01*
X246845500Y-92891525D01*
X226639655Y-92891525D01*
X226737165Y-92794015D01*
X226809640Y-92668485D01*
X226847156Y-92528475D01*
X226847156Y-92383525D01*
X226809640Y-92243515D01*
X226737165Y-92117985D01*
X226634671Y-92015491D01*
X226634669Y-92015490D01*
X226634667Y-92015488D01*
X226509144Y-91943017D01*
X226509145Y-91943017D01*
X226497662Y-91939940D01*
X226369131Y-91905500D01*
X226224181Y-91905500D01*
X226095649Y-91939940D01*
X226084167Y-91943017D01*
X225958644Y-92015488D01*
X225958638Y-92015493D01*
X225856149Y-92117982D01*
X225856144Y-92117988D01*
X225783673Y-92243511D01*
X225783672Y-92243515D01*
X225746156Y-92383525D01*
X213241000Y-92383525D01*
X213241000Y-89843525D01*
X216111500Y-89843525D01*
X216111500Y-89988475D01*
X216149016Y-90128485D01*
X216149017Y-90128488D01*
X216221488Y-90254011D01*
X216221490Y-90254013D01*
X216221491Y-90254015D01*
X216323985Y-90356509D01*
X216323986Y-90356510D01*
X216323988Y-90356511D01*
X216449511Y-90428982D01*
X216449512Y-90428982D01*
X216449515Y-90428984D01*
X216589525Y-90466500D01*
X216589528Y-90466500D01*
X216734472Y-90466500D01*
X216734475Y-90466500D01*
X216874485Y-90428984D01*
X217000015Y-90356509D01*
X217082319Y-90274205D01*
X217143642Y-90240720D01*
X217213334Y-90245704D01*
X217257681Y-90274205D01*
X217339985Y-90356509D01*
X217339986Y-90356510D01*
X217339988Y-90356511D01*
X217465511Y-90428982D01*
X217465512Y-90428982D01*
X217465515Y-90428984D01*
X217605525Y-90466500D01*
X217605528Y-90466500D01*
X217750472Y-90466500D01*
X217750475Y-90466500D01*
X217890485Y-90428984D01*
X218016015Y-90356509D01*
X218118509Y-90254015D01*
X218190984Y-90128485D01*
X218228500Y-89988475D01*
X218228500Y-89843525D01*
X218190984Y-89703515D01*
X218123307Y-89586296D01*
X218118511Y-89577988D01*
X218118506Y-89577982D01*
X218016017Y-89475493D01*
X218016011Y-89475488D01*
X217890488Y-89403017D01*
X217890489Y-89403017D01*
X217879006Y-89399940D01*
X217750475Y-89365500D01*
X217605525Y-89365500D01*
X217476993Y-89399940D01*
X217465511Y-89403017D01*
X217339988Y-89475488D01*
X217339982Y-89475493D01*
X217257681Y-89557795D01*
X217196358Y-89591280D01*
X217126666Y-89586296D01*
X217082319Y-89557795D01*
X217000017Y-89475493D01*
X217000011Y-89475488D01*
X216874488Y-89403017D01*
X216874489Y-89403017D01*
X216863006Y-89399940D01*
X216734475Y-89365500D01*
X216589525Y-89365500D01*
X216460993Y-89399940D01*
X216449511Y-89403017D01*
X216323988Y-89475488D01*
X216323982Y-89475493D01*
X216221493Y-89577982D01*
X216221488Y-89577988D01*
X216149017Y-89703511D01*
X216149016Y-89703515D01*
X216111500Y-89843525D01*
X213241000Y-89843525D01*
X213241000Y-88998135D01*
X262970500Y-88998135D01*
X262970500Y-91193870D01*
X262970501Y-91193876D01*
X262976908Y-91253483D01*
X263027202Y-91388328D01*
X263027206Y-91388335D01*
X263113452Y-91503544D01*
X263113455Y-91503547D01*
X263228664Y-91589793D01*
X263228671Y-91589797D01*
X263363517Y-91640091D01*
X263363516Y-91640091D01*
X263370444Y-91640835D01*
X263423127Y-91646500D01*
X265618872Y-91646499D01*
X265678483Y-91640091D01*
X265813331Y-91589796D01*
X265928546Y-91503546D01*
X266014796Y-91388331D01*
X266065091Y-91253483D01*
X266071500Y-91193873D01*
X266071499Y-88998128D01*
X266065091Y-88938517D01*
X266014796Y-88803669D01*
X266014795Y-88803668D01*
X266014793Y-88803664D01*
X265928547Y-88688455D01*
X265928544Y-88688452D01*
X265813335Y-88602206D01*
X265813328Y-88602202D01*
X265678482Y-88551908D01*
X265678483Y-88551908D01*
X265618883Y-88545501D01*
X265618881Y-88545500D01*
X265618873Y-88545500D01*
X265618864Y-88545500D01*
X263423129Y-88545500D01*
X263423123Y-88545501D01*
X263363516Y-88551908D01*
X263228671Y-88602202D01*
X263228664Y-88602206D01*
X263113455Y-88688452D01*
X263113452Y-88688455D01*
X263027206Y-88803664D01*
X263027202Y-88803671D01*
X262976908Y-88938517D01*
X262970501Y-88998116D01*
X262970501Y-88998123D01*
X262970500Y-88998135D01*
X213241000Y-88998135D01*
X213241000Y-87557525D01*
X216111500Y-87557525D01*
X216111500Y-87702475D01*
X216149016Y-87842485D01*
X216149017Y-87842488D01*
X216221488Y-87968011D01*
X216221490Y-87968013D01*
X216221491Y-87968015D01*
X216323985Y-88070509D01*
X216323986Y-88070510D01*
X216323988Y-88070511D01*
X216449511Y-88142982D01*
X216449512Y-88142982D01*
X216449515Y-88142984D01*
X216589525Y-88180500D01*
X216589528Y-88180500D01*
X216734472Y-88180500D01*
X216734475Y-88180500D01*
X216874485Y-88142984D01*
X217000015Y-88070509D01*
X217082319Y-87988205D01*
X217143642Y-87954720D01*
X217213334Y-87959704D01*
X217257681Y-87988205D01*
X217339985Y-88070509D01*
X217339986Y-88070510D01*
X217339988Y-88070511D01*
X217465511Y-88142982D01*
X217465512Y-88142982D01*
X217465515Y-88142984D01*
X217605525Y-88180500D01*
X217605528Y-88180500D01*
X217750472Y-88180500D01*
X217750475Y-88180500D01*
X217890485Y-88142984D01*
X218016015Y-88070509D01*
X218118509Y-87968015D01*
X218190984Y-87842485D01*
X218228500Y-87702475D01*
X218228500Y-87557525D01*
X218190984Y-87417515D01*
X218143046Y-87334485D01*
X218118511Y-87291988D01*
X218118506Y-87291982D01*
X218016017Y-87189493D01*
X218016011Y-87189488D01*
X217890488Y-87117017D01*
X217890489Y-87117017D01*
X217879006Y-87113940D01*
X217750475Y-87079500D01*
X217605525Y-87079500D01*
X217476993Y-87113940D01*
X217465511Y-87117017D01*
X217339988Y-87189488D01*
X217339982Y-87189493D01*
X217257681Y-87271795D01*
X217196358Y-87305280D01*
X217126666Y-87300296D01*
X217082319Y-87271795D01*
X217000017Y-87189493D01*
X217000011Y-87189488D01*
X216874488Y-87117017D01*
X216874489Y-87117017D01*
X216863006Y-87113940D01*
X216734475Y-87079500D01*
X216589525Y-87079500D01*
X216460993Y-87113940D01*
X216449511Y-87117017D01*
X216323988Y-87189488D01*
X216323982Y-87189493D01*
X216221493Y-87291982D01*
X216221488Y-87291988D01*
X216149017Y-87417511D01*
X216149016Y-87417515D01*
X216111500Y-87557525D01*
X213241000Y-87557525D01*
X213241000Y-86033525D01*
X217889500Y-86033525D01*
X217889500Y-86178475D01*
X217927016Y-86318485D01*
X217927017Y-86318488D01*
X217999488Y-86444011D01*
X217999490Y-86444013D01*
X217999491Y-86444015D01*
X218101985Y-86546509D01*
X218101986Y-86546510D01*
X218101988Y-86546511D01*
X218227511Y-86618982D01*
X218227512Y-86618982D01*
X218227515Y-86618984D01*
X218367525Y-86656500D01*
X218367528Y-86656500D01*
X218512472Y-86656500D01*
X218512475Y-86656500D01*
X218652485Y-86618984D01*
X218778015Y-86546509D01*
X218880509Y-86444015D01*
X218952984Y-86318485D01*
X218990500Y-86178475D01*
X218990500Y-86033525D01*
X218952984Y-85893515D01*
X218944478Y-85878783D01*
X218880511Y-85767988D01*
X218880506Y-85767982D01*
X218778017Y-85665493D01*
X218778011Y-85665488D01*
X218652488Y-85593017D01*
X218652489Y-85593017D01*
X218641006Y-85589940D01*
X218512475Y-85555500D01*
X218367525Y-85555500D01*
X218238993Y-85589940D01*
X218227511Y-85593017D01*
X218101988Y-85665488D01*
X218101982Y-85665493D01*
X217999493Y-85767982D01*
X217999488Y-85767988D01*
X217927017Y-85893511D01*
X217927016Y-85893515D01*
X217889500Y-86033525D01*
X213241000Y-86033525D01*
X213241000Y-85236628D01*
X223105488Y-85236628D01*
X223105488Y-85381578D01*
X223140966Y-85513982D01*
X223143005Y-85521591D01*
X223215476Y-85647114D01*
X223215478Y-85647116D01*
X223215479Y-85647118D01*
X223317973Y-85749612D01*
X223317974Y-85749613D01*
X223317976Y-85749614D01*
X223443499Y-85822085D01*
X223443500Y-85822085D01*
X223443503Y-85822087D01*
X223531455Y-85845654D01*
X223591114Y-85882018D01*
X223621643Y-85944865D01*
X223613348Y-86014241D01*
X223568863Y-86068119D01*
X223561361Y-86072815D01*
X223441201Y-86142190D01*
X223441198Y-86142192D01*
X223338709Y-86244681D01*
X223338704Y-86244687D01*
X223266233Y-86370210D01*
X223266232Y-86370214D01*
X223228716Y-86510224D01*
X223228716Y-86655174D01*
X223263231Y-86783985D01*
X223266233Y-86795187D01*
X223338704Y-86920710D01*
X223338706Y-86920712D01*
X223338707Y-86920714D01*
X223441201Y-87023208D01*
X223441202Y-87023209D01*
X223441204Y-87023210D01*
X223566727Y-87095681D01*
X223566728Y-87095681D01*
X223566731Y-87095683D01*
X223706741Y-87133199D01*
X223706744Y-87133199D01*
X223851688Y-87133199D01*
X223851691Y-87133199D01*
X223991701Y-87095683D01*
X224071649Y-87049525D01*
X241003500Y-87049525D01*
X241003500Y-87194475D01*
X241041016Y-87334485D01*
X241041017Y-87334488D01*
X241113488Y-87460011D01*
X241113490Y-87460013D01*
X241113491Y-87460015D01*
X241215985Y-87562509D01*
X241215986Y-87562510D01*
X241215988Y-87562511D01*
X241341511Y-87634982D01*
X241341512Y-87634982D01*
X241341515Y-87634984D01*
X241481525Y-87672500D01*
X241481528Y-87672500D01*
X241626472Y-87672500D01*
X241626475Y-87672500D01*
X241766485Y-87634984D01*
X241892015Y-87562509D01*
X241994509Y-87460015D01*
X242066984Y-87334485D01*
X242104500Y-87194475D01*
X242104500Y-87049525D01*
X242066984Y-86909515D01*
X242019046Y-86826485D01*
X241994511Y-86783988D01*
X241994506Y-86783982D01*
X241892017Y-86681493D01*
X241892015Y-86681491D01*
X241821509Y-86640784D01*
X241821508Y-86640783D01*
X241766488Y-86609017D01*
X241766489Y-86609017D01*
X241755006Y-86605940D01*
X241626475Y-86571500D01*
X241481525Y-86571500D01*
X241352993Y-86605940D01*
X241341511Y-86609017D01*
X241215988Y-86681488D01*
X241215982Y-86681493D01*
X241113493Y-86783982D01*
X241113488Y-86783988D01*
X241041017Y-86909511D01*
X241041016Y-86909515D01*
X241003500Y-87049525D01*
X224071649Y-87049525D01*
X224117231Y-87023208D01*
X224219725Y-86920714D01*
X224292200Y-86795184D01*
X224329716Y-86655174D01*
X224329716Y-86510224D01*
X224292200Y-86370214D01*
X224244459Y-86287525D01*
X226017500Y-86287525D01*
X226017500Y-86432475D01*
X226054752Y-86571500D01*
X226055017Y-86572488D01*
X226127488Y-86698011D01*
X226127490Y-86698013D01*
X226127491Y-86698015D01*
X226229985Y-86800509D01*
X226229986Y-86800510D01*
X226229988Y-86800511D01*
X226355511Y-86872982D01*
X226355512Y-86872982D01*
X226355515Y-86872984D01*
X226495525Y-86910500D01*
X226495528Y-86910500D01*
X226640472Y-86910500D01*
X226640475Y-86910500D01*
X226780485Y-86872984D01*
X226906015Y-86800509D01*
X227008509Y-86698015D01*
X227080984Y-86572485D01*
X227089280Y-86541525D01*
X242527500Y-86541525D01*
X242527500Y-86686475D01*
X242565016Y-86826485D01*
X242565017Y-86826488D01*
X242637488Y-86952011D01*
X242637490Y-86952013D01*
X242637491Y-86952015D01*
X242739985Y-87054509D01*
X242739986Y-87054510D01*
X242739988Y-87054511D01*
X242865511Y-87126982D01*
X242865512Y-87126982D01*
X242865515Y-87126984D01*
X243005525Y-87164500D01*
X243005528Y-87164500D01*
X243150472Y-87164500D01*
X243150475Y-87164500D01*
X243290485Y-87126984D01*
X243416015Y-87054509D01*
X243518509Y-86952015D01*
X243590984Y-86826485D01*
X243628500Y-86686475D01*
X243628500Y-86541525D01*
X243590984Y-86401515D01*
X243572912Y-86370214D01*
X243518511Y-86275988D01*
X243518506Y-86275982D01*
X243416017Y-86173493D01*
X243416011Y-86173488D01*
X243290488Y-86101017D01*
X243290489Y-86101017D01*
X243279006Y-86097940D01*
X243150475Y-86063500D01*
X243005525Y-86063500D01*
X242876993Y-86097940D01*
X242865511Y-86101017D01*
X242739988Y-86173488D01*
X242739982Y-86173493D01*
X242637493Y-86275982D01*
X242637488Y-86275988D01*
X242565017Y-86401511D01*
X242565016Y-86401515D01*
X242527500Y-86541525D01*
X227089280Y-86541525D01*
X227118500Y-86432475D01*
X227118500Y-86287525D01*
X227080984Y-86147515D01*
X227054138Y-86101017D01*
X227008511Y-86021988D01*
X227008506Y-86021982D01*
X226906017Y-85919493D01*
X226906015Y-85919491D01*
X226835509Y-85878784D01*
X226835508Y-85878783D01*
X226780488Y-85847017D01*
X226780489Y-85847017D01*
X226769006Y-85843940D01*
X226640475Y-85809500D01*
X226495525Y-85809500D01*
X226366993Y-85843940D01*
X226355511Y-85847017D01*
X226229988Y-85919488D01*
X226229982Y-85919493D01*
X226127493Y-86021982D01*
X226127488Y-86021988D01*
X226055017Y-86147511D01*
X226055016Y-86147515D01*
X226017500Y-86287525D01*
X224244459Y-86287525D01*
X224219725Y-86244684D01*
X224117231Y-86142190D01*
X224117229Y-86142189D01*
X224117227Y-86142187D01*
X223991705Y-86069716D01*
X223968507Y-86063500D01*
X223903747Y-86046147D01*
X223844088Y-86009782D01*
X223813560Y-85946935D01*
X223821855Y-85877559D01*
X223866341Y-85823682D01*
X223873830Y-85818993D01*
X223942191Y-85779525D01*
X250909500Y-85779525D01*
X250909500Y-85924475D01*
X250938721Y-86033527D01*
X250947017Y-86064488D01*
X251019488Y-86190011D01*
X251019490Y-86190013D01*
X251019491Y-86190015D01*
X251121985Y-86292509D01*
X251121986Y-86292510D01*
X251121988Y-86292511D01*
X251247511Y-86364982D01*
X251247512Y-86364982D01*
X251247515Y-86364984D01*
X251387525Y-86402500D01*
X251387528Y-86402500D01*
X251532472Y-86402500D01*
X251532475Y-86402500D01*
X251672485Y-86364984D01*
X251798015Y-86292509D01*
X251900509Y-86190015D01*
X251972984Y-86064485D01*
X252010500Y-85924475D01*
X252010500Y-85779525D01*
X251972984Y-85639515D01*
X251946138Y-85593017D01*
X251900511Y-85513988D01*
X251900506Y-85513982D01*
X251798017Y-85411493D01*
X251798011Y-85411488D01*
X251672488Y-85339017D01*
X251672489Y-85339017D01*
X251661006Y-85335940D01*
X251532475Y-85301500D01*
X251387525Y-85301500D01*
X251258993Y-85335940D01*
X251247511Y-85339017D01*
X251121988Y-85411488D01*
X251121982Y-85411493D01*
X251019493Y-85513982D01*
X251019488Y-85513988D01*
X250947017Y-85639511D01*
X250947016Y-85639515D01*
X250909500Y-85779525D01*
X223942191Y-85779525D01*
X223994003Y-85749612D01*
X224096497Y-85647118D01*
X224168972Y-85521588D01*
X224206488Y-85381578D01*
X224206488Y-85236628D01*
X224168972Y-85096618D01*
X224096497Y-84971088D01*
X223994003Y-84868594D01*
X223994001Y-84868593D01*
X223993999Y-84868591D01*
X223861435Y-84792055D01*
X223862931Y-84789463D01*
X223819657Y-84754575D01*
X223797607Y-84688276D01*
X223814902Y-84620580D01*
X223866050Y-84572981D01*
X223889431Y-84564105D01*
X223901395Y-84560900D01*
X224026925Y-84488425D01*
X224129419Y-84385931D01*
X224201894Y-84260401D01*
X224231035Y-84151648D01*
X263220500Y-84151648D01*
X263220500Y-84356351D01*
X263252522Y-84558534D01*
X263315781Y-84753223D01*
X263408715Y-84935613D01*
X263529028Y-85101213D01*
X263673786Y-85245971D01*
X263828749Y-85358556D01*
X263839390Y-85366287D01*
X263928102Y-85411488D01*
X264021776Y-85459218D01*
X264021778Y-85459218D01*
X264021781Y-85459220D01*
X264126137Y-85493127D01*
X264216465Y-85522477D01*
X264317557Y-85538488D01*
X264418648Y-85554500D01*
X264418649Y-85554500D01*
X264623351Y-85554500D01*
X264623352Y-85554500D01*
X264825534Y-85522477D01*
X265020219Y-85459220D01*
X265202610Y-85366287D01*
X265295590Y-85298732D01*
X265368213Y-85245971D01*
X265368215Y-85245968D01*
X265368219Y-85245966D01*
X265512966Y-85101219D01*
X265512968Y-85101215D01*
X265512971Y-85101213D01*
X265565732Y-85028590D01*
X265633287Y-84935610D01*
X265726220Y-84753219D01*
X265789477Y-84558534D01*
X265821500Y-84356352D01*
X265821500Y-84151648D01*
X265794033Y-83978233D01*
X265789477Y-83949465D01*
X265752423Y-83835427D01*
X265726220Y-83754781D01*
X265726218Y-83754778D01*
X265726218Y-83754776D01*
X265671812Y-83648000D01*
X265633287Y-83572390D01*
X265606073Y-83534933D01*
X265512971Y-83406786D01*
X265368213Y-83262028D01*
X265202613Y-83141715D01*
X265202612Y-83141714D01*
X265202610Y-83141713D01*
X265134706Y-83107114D01*
X265020223Y-83048781D01*
X264825534Y-82985522D01*
X264650995Y-82957878D01*
X264623352Y-82953500D01*
X264418648Y-82953500D01*
X264394329Y-82957351D01*
X264216465Y-82985522D01*
X264021776Y-83048781D01*
X263839386Y-83141715D01*
X263673786Y-83262028D01*
X263529028Y-83406786D01*
X263408715Y-83572386D01*
X263315781Y-83754776D01*
X263252522Y-83949465D01*
X263220500Y-84151648D01*
X224231035Y-84151648D01*
X224239410Y-84120391D01*
X224239410Y-83975441D01*
X224201894Y-83835431D01*
X224129419Y-83709901D01*
X224026925Y-83607407D01*
X224026923Y-83607406D01*
X224026921Y-83607404D01*
X223901398Y-83534933D01*
X223901396Y-83534932D01*
X223878202Y-83528717D01*
X223818543Y-83492351D01*
X223788015Y-83429503D01*
X223796312Y-83360127D01*
X223840799Y-83306251D01*
X223878199Y-83289171D01*
X223904638Y-83282087D01*
X223904641Y-83282085D01*
X223904642Y-83282085D01*
X224010128Y-83221182D01*
X224030168Y-83209612D01*
X224132662Y-83107118D01*
X224205137Y-82981588D01*
X224242653Y-82841578D01*
X224242653Y-82696628D01*
X224205137Y-82556618D01*
X224169973Y-82495713D01*
X224132664Y-82431091D01*
X224132659Y-82431085D01*
X224030170Y-82328596D01*
X224030164Y-82328591D01*
X223904641Y-82256120D01*
X223904642Y-82256120D01*
X223857480Y-82243483D01*
X223764628Y-82218603D01*
X223619678Y-82218603D01*
X223526826Y-82243483D01*
X223479664Y-82256120D01*
X223354141Y-82328591D01*
X223354135Y-82328596D01*
X223251646Y-82431085D01*
X223251641Y-82431091D01*
X223179170Y-82556614D01*
X223179169Y-82556618D01*
X223141653Y-82696628D01*
X223141653Y-82841578D01*
X223171643Y-82953500D01*
X223179170Y-82981591D01*
X223251641Y-83107114D01*
X223251643Y-83107116D01*
X223251644Y-83107118D01*
X223354138Y-83209612D01*
X223354139Y-83209613D01*
X223354141Y-83209614D01*
X223479664Y-83282085D01*
X223479665Y-83282085D01*
X223479668Y-83282087D01*
X223502858Y-83288300D01*
X223562517Y-83324665D01*
X223593046Y-83387513D01*
X223584751Y-83456888D01*
X223540266Y-83510766D01*
X223502859Y-83527848D01*
X223479656Y-83534066D01*
X223476421Y-83534933D01*
X223350898Y-83607404D01*
X223350892Y-83607409D01*
X223248403Y-83709898D01*
X223248398Y-83709904D01*
X223175927Y-83835427D01*
X223175926Y-83835431D01*
X223138410Y-83975441D01*
X223138410Y-84120391D01*
X223175926Y-84260401D01*
X223175927Y-84260404D01*
X223248398Y-84385927D01*
X223248400Y-84385929D01*
X223248401Y-84385931D01*
X223350895Y-84488425D01*
X223350896Y-84488426D01*
X223350898Y-84488427D01*
X223483463Y-84564964D01*
X223481964Y-84567559D01*
X223525222Y-84602416D01*
X223547289Y-84668710D01*
X223530012Y-84736410D01*
X223478876Y-84784022D01*
X223455469Y-84792912D01*
X223447372Y-84795082D01*
X223443498Y-84796120D01*
X223317976Y-84868591D01*
X223317970Y-84868596D01*
X223215481Y-84971085D01*
X223215476Y-84971091D01*
X223143005Y-85096614D01*
X223143004Y-85096618D01*
X223105488Y-85236628D01*
X213241000Y-85236628D01*
X213241000Y-80160968D01*
X237041998Y-80160968D01*
X237041998Y-80305918D01*
X237079514Y-80445928D01*
X237079515Y-80445931D01*
X237151986Y-80571454D01*
X237151988Y-80571456D01*
X237151989Y-80571458D01*
X237254483Y-80673952D01*
X237254484Y-80673953D01*
X237254486Y-80673954D01*
X237380009Y-80746425D01*
X237380010Y-80746425D01*
X237380013Y-80746427D01*
X237520023Y-80783943D01*
X237520026Y-80783943D01*
X237659923Y-80783943D01*
X237726962Y-80803628D01*
X237772717Y-80856432D01*
X237782661Y-80925590D01*
X237753636Y-80989146D01*
X237721924Y-81015329D01*
X237712074Y-81021017D01*
X237640225Y-81062499D01*
X237640222Y-81062501D01*
X237537733Y-81164990D01*
X237537728Y-81164996D01*
X237465257Y-81290519D01*
X237465256Y-81290523D01*
X237427740Y-81430533D01*
X237427740Y-81575483D01*
X237465256Y-81715493D01*
X237465257Y-81715496D01*
X237537728Y-81841019D01*
X237537730Y-81841021D01*
X237537731Y-81841023D01*
X237640225Y-81943517D01*
X237640226Y-81943518D01*
X237640228Y-81943519D01*
X237765751Y-82015990D01*
X237765752Y-82015990D01*
X237765755Y-82015992D01*
X237905765Y-82053508D01*
X237905768Y-82053508D01*
X237983233Y-82053508D01*
X238050272Y-82073193D01*
X238096027Y-82125997D01*
X238105971Y-82195155D01*
X238076946Y-82258711D01*
X238045234Y-82284895D01*
X237991433Y-82315957D01*
X237991430Y-82315959D01*
X237888941Y-82418448D01*
X237888936Y-82418454D01*
X237816465Y-82543977D01*
X237816464Y-82543981D01*
X237778948Y-82683991D01*
X237778948Y-82828941D01*
X237812324Y-82953500D01*
X237816465Y-82968954D01*
X237888936Y-83094477D01*
X237888938Y-83094479D01*
X237888939Y-83094481D01*
X237991433Y-83196975D01*
X237991434Y-83196976D01*
X237991436Y-83196977D01*
X238116959Y-83269448D01*
X238116960Y-83269448D01*
X238116963Y-83269450D01*
X238256973Y-83306966D01*
X238256976Y-83306966D01*
X238401920Y-83306966D01*
X238401923Y-83306966D01*
X238541933Y-83269450D01*
X238667463Y-83196975D01*
X238769957Y-83094481D01*
X238842432Y-82968951D01*
X238879948Y-82828941D01*
X238879948Y-82683991D01*
X238867014Y-82635723D01*
X248369500Y-82635723D01*
X248369500Y-82780673D01*
X248382433Y-82828938D01*
X248407017Y-82920686D01*
X248479488Y-83046209D01*
X248479490Y-83046211D01*
X248479491Y-83046213D01*
X248581985Y-83148707D01*
X248581986Y-83148708D01*
X248581988Y-83148709D01*
X248707511Y-83221180D01*
X248707512Y-83221180D01*
X248707515Y-83221182D01*
X248847525Y-83258698D01*
X248847528Y-83258698D01*
X248992472Y-83258698D01*
X248992475Y-83258698D01*
X249132485Y-83221182D01*
X249258015Y-83148707D01*
X249360509Y-83046213D01*
X249432984Y-82920683D01*
X249470500Y-82780673D01*
X249470500Y-82635723D01*
X249432984Y-82495713D01*
X249395674Y-82431091D01*
X249360511Y-82370186D01*
X249360506Y-82370180D01*
X249258017Y-82267691D01*
X249258011Y-82267686D01*
X249132488Y-82195215D01*
X249132489Y-82195215D01*
X249121006Y-82192138D01*
X248992475Y-82157698D01*
X248847525Y-82157698D01*
X248718993Y-82192138D01*
X248707511Y-82195215D01*
X248581988Y-82267686D01*
X248581982Y-82267691D01*
X248479493Y-82370180D01*
X248479488Y-82370186D01*
X248407017Y-82495709D01*
X248407016Y-82495713D01*
X248369500Y-82635723D01*
X238867014Y-82635723D01*
X238842432Y-82543981D01*
X238814564Y-82495713D01*
X238769959Y-82418454D01*
X238769954Y-82418448D01*
X238667465Y-82315959D01*
X238667459Y-82315954D01*
X238541936Y-82243483D01*
X238541937Y-82243483D01*
X238530454Y-82240406D01*
X238401923Y-82205966D01*
X238324455Y-82205966D01*
X238257416Y-82186281D01*
X238211661Y-82133477D01*
X238201717Y-82064319D01*
X238230742Y-82000763D01*
X238262454Y-81974579D01*
X238262575Y-81974509D01*
X238316255Y-81943517D01*
X238418749Y-81841023D01*
X238491224Y-81715493D01*
X238528740Y-81575483D01*
X238528740Y-81461525D01*
X247353500Y-81461525D01*
X247353500Y-81606475D01*
X247391016Y-81746485D01*
X247391017Y-81746488D01*
X247463488Y-81872011D01*
X247463490Y-81872013D01*
X247463491Y-81872015D01*
X247565985Y-81974509D01*
X247565986Y-81974510D01*
X247565988Y-81974511D01*
X247691511Y-82046982D01*
X247691512Y-82046982D01*
X247691515Y-82046984D01*
X247831525Y-82084500D01*
X247831528Y-82084500D01*
X247976472Y-82084500D01*
X247976475Y-82084500D01*
X248116485Y-82046984D01*
X248242015Y-81974509D01*
X248344509Y-81872015D01*
X248416984Y-81746485D01*
X248454500Y-81606475D01*
X248454500Y-81461525D01*
X248416984Y-81321515D01*
X248399088Y-81290519D01*
X248344511Y-81195988D01*
X248344506Y-81195982D01*
X248242017Y-81093493D01*
X248242011Y-81093488D01*
X248116488Y-81021017D01*
X248116489Y-81021017D01*
X248095265Y-81015330D01*
X247976475Y-80983500D01*
X247831525Y-80983500D01*
X247712735Y-81015330D01*
X247691511Y-81021017D01*
X247565988Y-81093488D01*
X247565982Y-81093493D01*
X247463493Y-81195982D01*
X247463488Y-81195988D01*
X247391017Y-81321511D01*
X247391016Y-81321515D01*
X247353500Y-81461525D01*
X238528740Y-81461525D01*
X238528740Y-81430533D01*
X238491224Y-81290523D01*
X238436642Y-81195985D01*
X238418751Y-81164996D01*
X238418746Y-81164990D01*
X238316257Y-81062501D01*
X238316251Y-81062496D01*
X238190728Y-80990025D01*
X238190729Y-80990025D01*
X238166377Y-80983500D01*
X238050715Y-80952508D01*
X237910815Y-80952508D01*
X237843776Y-80932823D01*
X237798021Y-80880019D01*
X237788077Y-80810861D01*
X237817102Y-80747305D01*
X237848814Y-80721121D01*
X237930513Y-80673952D01*
X238033007Y-80571458D01*
X238105482Y-80445928D01*
X238142998Y-80305918D01*
X238142998Y-80160968D01*
X238105482Y-80020958D01*
X238033007Y-79895428D01*
X237930513Y-79792934D01*
X237930511Y-79792933D01*
X237930509Y-79792931D01*
X237804986Y-79720460D01*
X237804987Y-79720460D01*
X237793504Y-79717383D01*
X237664973Y-79682943D01*
X237520023Y-79682943D01*
X237391491Y-79717383D01*
X237380009Y-79720460D01*
X237254486Y-79792931D01*
X237254480Y-79792936D01*
X237151991Y-79895425D01*
X237151986Y-79895431D01*
X237079515Y-80020954D01*
X237079514Y-80020958D01*
X237041998Y-80160968D01*
X213241000Y-80160968D01*
X213241000Y-78667525D01*
X231097500Y-78667525D01*
X231097500Y-78812475D01*
X231135016Y-78952485D01*
X231135017Y-78952488D01*
X231207488Y-79078011D01*
X231207490Y-79078013D01*
X231207491Y-79078015D01*
X231309985Y-79180509D01*
X231309986Y-79180510D01*
X231309988Y-79180511D01*
X231435511Y-79252982D01*
X231435512Y-79252982D01*
X231435515Y-79252984D01*
X231575525Y-79290500D01*
X231575528Y-79290500D01*
X231720472Y-79290500D01*
X231720475Y-79290500D01*
X231860485Y-79252984D01*
X231986015Y-79180509D01*
X232088509Y-79078015D01*
X232137076Y-78993895D01*
X232187643Y-78945679D01*
X232256250Y-78932457D01*
X232321115Y-78958425D01*
X232361643Y-79015339D01*
X232364234Y-79023788D01*
X232367628Y-79036454D01*
X232369328Y-79042798D01*
X232441799Y-79168321D01*
X232441801Y-79168323D01*
X232441802Y-79168325D01*
X232544296Y-79270819D01*
X232544297Y-79270820D01*
X232544299Y-79270821D01*
X232669822Y-79343292D01*
X232669823Y-79343292D01*
X232669826Y-79343294D01*
X232809836Y-79380810D01*
X232809839Y-79380810D01*
X232954783Y-79380810D01*
X232954786Y-79380810D01*
X233084193Y-79346135D01*
X262970500Y-79346135D01*
X262970500Y-81541870D01*
X262970501Y-81541876D01*
X262976908Y-81601483D01*
X263027202Y-81736328D01*
X263027206Y-81736335D01*
X263113452Y-81851544D01*
X263113455Y-81851547D01*
X263228664Y-81937793D01*
X263228671Y-81937797D01*
X263363517Y-81988091D01*
X263363516Y-81988091D01*
X263370444Y-81988835D01*
X263423127Y-81994500D01*
X265618872Y-81994499D01*
X265678483Y-81988091D01*
X265813331Y-81937796D01*
X265928546Y-81851546D01*
X266014796Y-81736331D01*
X266065091Y-81601483D01*
X266071500Y-81541873D01*
X266071499Y-79346128D01*
X266065091Y-79286517D01*
X266052583Y-79252982D01*
X266014797Y-79151671D01*
X266014793Y-79151664D01*
X265928547Y-79036455D01*
X265928544Y-79036452D01*
X265813335Y-78950206D01*
X265813328Y-78950202D01*
X265678482Y-78899908D01*
X265678483Y-78899908D01*
X265618883Y-78893501D01*
X265618881Y-78893500D01*
X265618873Y-78893500D01*
X265618864Y-78893500D01*
X263423129Y-78893500D01*
X263423123Y-78893501D01*
X263363516Y-78899908D01*
X263228671Y-78950202D01*
X263228664Y-78950206D01*
X263113455Y-79036452D01*
X263113452Y-79036455D01*
X263027206Y-79151664D01*
X263027202Y-79151671D01*
X262976908Y-79286517D01*
X262970501Y-79346116D01*
X262970501Y-79346123D01*
X262970500Y-79346135D01*
X233084193Y-79346135D01*
X233094796Y-79343294D01*
X233220326Y-79270819D01*
X233322820Y-79168325D01*
X233395295Y-79042795D01*
X233432811Y-78902785D01*
X233432811Y-78757835D01*
X233408612Y-78667525D01*
X248369500Y-78667525D01*
X248369500Y-78812475D01*
X248407016Y-78952485D01*
X248407017Y-78952488D01*
X248479488Y-79078011D01*
X248479490Y-79078013D01*
X248479491Y-79078015D01*
X248581985Y-79180509D01*
X248581986Y-79180510D01*
X248581988Y-79180511D01*
X248707511Y-79252982D01*
X248707512Y-79252982D01*
X248707515Y-79252984D01*
X248847525Y-79290500D01*
X248847528Y-79290500D01*
X248992472Y-79290500D01*
X248992475Y-79290500D01*
X249132485Y-79252984D01*
X249258015Y-79180509D01*
X249360509Y-79078015D01*
X249432984Y-78952485D01*
X249470500Y-78812475D01*
X249470500Y-78667525D01*
X249432984Y-78527515D01*
X249412651Y-78492298D01*
X249360511Y-78401988D01*
X249360506Y-78401982D01*
X249258017Y-78299493D01*
X249258011Y-78299488D01*
X249132488Y-78227017D01*
X249132489Y-78227017D01*
X249121006Y-78223940D01*
X248992475Y-78189500D01*
X248847525Y-78189500D01*
X248718993Y-78223940D01*
X248707511Y-78227017D01*
X248581988Y-78299488D01*
X248581982Y-78299493D01*
X248479493Y-78401982D01*
X248479488Y-78401988D01*
X248407017Y-78527511D01*
X248407016Y-78527515D01*
X248369500Y-78667525D01*
X233408612Y-78667525D01*
X233395295Y-78617825D01*
X233391864Y-78611883D01*
X233322822Y-78492298D01*
X233322817Y-78492292D01*
X233220328Y-78389803D01*
X233220322Y-78389798D01*
X233094799Y-78317327D01*
X233094800Y-78317327D01*
X233083317Y-78314250D01*
X232954786Y-78279810D01*
X232809836Y-78279810D01*
X232681304Y-78314250D01*
X232669822Y-78317327D01*
X232544299Y-78389798D01*
X232544293Y-78389803D01*
X232441804Y-78492292D01*
X232441800Y-78492298D01*
X232393233Y-78576416D01*
X232342665Y-78624630D01*
X232274058Y-78637852D01*
X232209194Y-78611883D01*
X232168666Y-78554969D01*
X232166072Y-78546505D01*
X232160984Y-78527515D01*
X232140651Y-78492298D01*
X232088511Y-78401988D01*
X232088506Y-78401982D01*
X231986017Y-78299493D01*
X231986011Y-78299488D01*
X231860488Y-78227017D01*
X231860489Y-78227017D01*
X231849006Y-78223940D01*
X231720475Y-78189500D01*
X231575525Y-78189500D01*
X231446993Y-78223940D01*
X231435511Y-78227017D01*
X231309988Y-78299488D01*
X231309982Y-78299493D01*
X231207493Y-78401982D01*
X231207488Y-78401988D01*
X231135017Y-78527511D01*
X231135016Y-78527515D01*
X231097500Y-78667525D01*
X213241000Y-78667525D01*
X213241000Y-77966638D01*
X229786757Y-77966638D01*
X229786757Y-78111588D01*
X229824273Y-78251598D01*
X229824274Y-78251601D01*
X229896745Y-78377124D01*
X229896747Y-78377126D01*
X229896748Y-78377128D01*
X229999242Y-78479622D01*
X229999243Y-78479623D01*
X229999245Y-78479624D01*
X230124768Y-78552095D01*
X230124769Y-78552095D01*
X230124772Y-78552097D01*
X230264782Y-78589613D01*
X230264785Y-78589613D01*
X230409729Y-78589613D01*
X230409732Y-78589613D01*
X230549742Y-78552097D01*
X230675272Y-78479622D01*
X230777766Y-78377128D01*
X230850241Y-78251598D01*
X230887757Y-78111588D01*
X230887757Y-77966638D01*
X230850241Y-77826628D01*
X230777766Y-77701098D01*
X230675272Y-77598604D01*
X230675270Y-77598603D01*
X230675268Y-77598601D01*
X230549745Y-77526130D01*
X230549746Y-77526130D01*
X230538263Y-77523053D01*
X230409732Y-77488613D01*
X230264782Y-77488613D01*
X230136250Y-77523053D01*
X230124768Y-77526130D01*
X229999245Y-77598601D01*
X229999239Y-77598606D01*
X229896750Y-77701095D01*
X229896745Y-77701101D01*
X229824274Y-77826624D01*
X229824273Y-77826628D01*
X229786757Y-77966638D01*
X213241000Y-77966638D01*
X213241000Y-77040025D01*
X242932000Y-77040025D01*
X242932000Y-77184975D01*
X242969516Y-77324985D01*
X242969517Y-77324988D01*
X243041988Y-77450511D01*
X243041990Y-77450513D01*
X243041991Y-77450515D01*
X243144485Y-77553009D01*
X243144486Y-77553010D01*
X243144488Y-77553011D01*
X243270011Y-77625482D01*
X243270012Y-77625482D01*
X243270015Y-77625484D01*
X243410025Y-77663000D01*
X243410028Y-77663000D01*
X243554972Y-77663000D01*
X243554975Y-77663000D01*
X243694985Y-77625484D01*
X243820515Y-77553009D01*
X243923009Y-77450515D01*
X243995484Y-77324985D01*
X244033000Y-77184975D01*
X244033000Y-77040025D01*
X243995484Y-76900015D01*
X243923009Y-76774485D01*
X243820515Y-76671991D01*
X243820513Y-76671990D01*
X243820511Y-76671988D01*
X243694988Y-76599517D01*
X243694989Y-76599517D01*
X243683506Y-76596440D01*
X243554975Y-76562000D01*
X243410025Y-76562000D01*
X243281493Y-76596440D01*
X243270011Y-76599517D01*
X243144488Y-76671988D01*
X243144482Y-76671993D01*
X243041993Y-76774482D01*
X243041988Y-76774488D01*
X242969517Y-76900011D01*
X242969516Y-76900015D01*
X242932000Y-77040025D01*
X213241000Y-77040025D01*
X213241000Y-76127525D01*
X221699500Y-76127525D01*
X221699500Y-76272475D01*
X221737016Y-76412485D01*
X221737017Y-76412488D01*
X221809488Y-76538011D01*
X221809490Y-76538013D01*
X221809491Y-76538015D01*
X221911985Y-76640509D01*
X221911986Y-76640510D01*
X221911988Y-76640511D01*
X222037511Y-76712982D01*
X222037512Y-76712982D01*
X222037515Y-76712984D01*
X222177525Y-76750500D01*
X222177528Y-76750500D01*
X222322472Y-76750500D01*
X222322475Y-76750500D01*
X222462485Y-76712984D01*
X222588015Y-76640509D01*
X222690509Y-76538015D01*
X222762984Y-76412485D01*
X222800500Y-76272475D01*
X222800500Y-76127525D01*
X222762984Y-75987515D01*
X222713900Y-75902500D01*
X222690511Y-75861988D01*
X222690506Y-75861982D01*
X222588017Y-75759493D01*
X222588011Y-75759488D01*
X222462488Y-75687017D01*
X222462489Y-75687017D01*
X222451006Y-75683940D01*
X222322475Y-75649500D01*
X222177525Y-75649500D01*
X222048993Y-75683940D01*
X222037511Y-75687017D01*
X221911988Y-75759488D01*
X221911982Y-75759493D01*
X221809493Y-75861982D01*
X221809488Y-75861988D01*
X221737017Y-75987511D01*
X221737016Y-75987515D01*
X221699500Y-76127525D01*
X213241000Y-76127525D01*
X213241000Y-73997393D01*
X223442286Y-73997393D01*
X223442286Y-74142343D01*
X223479802Y-74282353D01*
X223479803Y-74282356D01*
X223552274Y-74407879D01*
X223552276Y-74407881D01*
X223552277Y-74407883D01*
X223654771Y-74510377D01*
X223654772Y-74510378D01*
X223654774Y-74510379D01*
X223780297Y-74582850D01*
X223780298Y-74582850D01*
X223780301Y-74582852D01*
X223920311Y-74620368D01*
X223920314Y-74620368D01*
X224065258Y-74620368D01*
X224065261Y-74620368D01*
X224205271Y-74582852D01*
X224291447Y-74533098D01*
X249822122Y-74533098D01*
X249822122Y-74678048D01*
X249859638Y-74818058D01*
X249859639Y-74818061D01*
X249932110Y-74943584D01*
X249932112Y-74943586D01*
X249932113Y-74943588D01*
X250034607Y-75046082D01*
X250034608Y-75046083D01*
X250034610Y-75046084D01*
X250160133Y-75118555D01*
X250160134Y-75118555D01*
X250160137Y-75118557D01*
X250300147Y-75156073D01*
X250300150Y-75156073D01*
X250445094Y-75156073D01*
X250445097Y-75156073D01*
X250585107Y-75118557D01*
X250710637Y-75046082D01*
X250813131Y-74943588D01*
X250885606Y-74818058D01*
X250923122Y-74678048D01*
X250923122Y-74533098D01*
X250914159Y-74499648D01*
X263220500Y-74499648D01*
X263220500Y-74704351D01*
X263252522Y-74906534D01*
X263315781Y-75101223D01*
X263408715Y-75283613D01*
X263529028Y-75449213D01*
X263673786Y-75593971D01*
X263828749Y-75706556D01*
X263839390Y-75714287D01*
X263928102Y-75759488D01*
X264021776Y-75807218D01*
X264021778Y-75807218D01*
X264021781Y-75807220D01*
X264126137Y-75841127D01*
X264216465Y-75870477D01*
X264317557Y-75886488D01*
X264418648Y-75902500D01*
X264418649Y-75902500D01*
X264623351Y-75902500D01*
X264623352Y-75902500D01*
X264825534Y-75870477D01*
X265020219Y-75807220D01*
X265202610Y-75714287D01*
X265295590Y-75646732D01*
X265368213Y-75593971D01*
X265368215Y-75593968D01*
X265368219Y-75593966D01*
X265512966Y-75449219D01*
X265512968Y-75449215D01*
X265512971Y-75449213D01*
X265565732Y-75376590D01*
X265633287Y-75283610D01*
X265726220Y-75101219D01*
X265789477Y-74906534D01*
X265821500Y-74704352D01*
X265821500Y-74499648D01*
X265789477Y-74297466D01*
X265784567Y-74282356D01*
X265760127Y-74207137D01*
X265726220Y-74102781D01*
X265726218Y-74102778D01*
X265726218Y-74102776D01*
X265672522Y-73997393D01*
X265633287Y-73920390D01*
X265625556Y-73909749D01*
X265512971Y-73754786D01*
X265368213Y-73610028D01*
X265202613Y-73489715D01*
X265202612Y-73489714D01*
X265202610Y-73489713D01*
X265145653Y-73460691D01*
X265020223Y-73396781D01*
X264825534Y-73333522D01*
X264650995Y-73305878D01*
X264623352Y-73301500D01*
X264418648Y-73301500D01*
X264394329Y-73305351D01*
X264216465Y-73333522D01*
X264021776Y-73396781D01*
X263839386Y-73489715D01*
X263673786Y-73610028D01*
X263529028Y-73754786D01*
X263408715Y-73920386D01*
X263315781Y-74102776D01*
X263252522Y-74297465D01*
X263220500Y-74499648D01*
X250914159Y-74499648D01*
X250885606Y-74393088D01*
X250830398Y-74297466D01*
X250813133Y-74267561D01*
X250813128Y-74267555D01*
X250710639Y-74165066D01*
X250710633Y-74165061D01*
X250585110Y-74092590D01*
X250585111Y-74092590D01*
X250573628Y-74089513D01*
X250445097Y-74055073D01*
X250300147Y-74055073D01*
X250171615Y-74089513D01*
X250160133Y-74092590D01*
X250034610Y-74165061D01*
X250034604Y-74165066D01*
X249932115Y-74267555D01*
X249932110Y-74267561D01*
X249859639Y-74393084D01*
X249859638Y-74393088D01*
X249822122Y-74533098D01*
X224291447Y-74533098D01*
X224330801Y-74510377D01*
X224433295Y-74407883D01*
X224505770Y-74282353D01*
X224543286Y-74142343D01*
X224543286Y-73997393D01*
X224505770Y-73857383D01*
X224446535Y-73754786D01*
X224433297Y-73731856D01*
X224433292Y-73731850D01*
X224330803Y-73629361D01*
X224330797Y-73629356D01*
X224205274Y-73556885D01*
X224205275Y-73556885D01*
X224193792Y-73553808D01*
X224065261Y-73519368D01*
X223920311Y-73519368D01*
X223791779Y-73553808D01*
X223780297Y-73556885D01*
X223654774Y-73629356D01*
X223654768Y-73629361D01*
X223552279Y-73731850D01*
X223552274Y-73731856D01*
X223479803Y-73857379D01*
X223479802Y-73857383D01*
X223442286Y-73997393D01*
X213241000Y-73997393D01*
X213241000Y-70400000D01*
X176631536Y-70358116D01*
X176564519Y-70338355D01*
X176518825Y-70285498D01*
X176510088Y-70258440D01*
X176397227Y-69694135D01*
X262970500Y-69694135D01*
X262970500Y-71889870D01*
X262970501Y-71889876D01*
X262976908Y-71949483D01*
X263027202Y-72084328D01*
X263027206Y-72084335D01*
X263113452Y-72199544D01*
X263113455Y-72199547D01*
X263228664Y-72285793D01*
X263228671Y-72285797D01*
X263363517Y-72336091D01*
X263363516Y-72336091D01*
X263370444Y-72336835D01*
X263423127Y-72342500D01*
X265618872Y-72342499D01*
X265678483Y-72336091D01*
X265813331Y-72285796D01*
X265928546Y-72199546D01*
X266014796Y-72084331D01*
X266065091Y-71949483D01*
X266071500Y-71889873D01*
X266071499Y-69694128D01*
X266065091Y-69634517D01*
X266052583Y-69600982D01*
X266014797Y-69499671D01*
X266014793Y-69499664D01*
X265928547Y-69384455D01*
X265928544Y-69384452D01*
X265813335Y-69298206D01*
X265813328Y-69298202D01*
X265678482Y-69247908D01*
X265678483Y-69247908D01*
X265618883Y-69241501D01*
X265618881Y-69241500D01*
X265618873Y-69241500D01*
X265618864Y-69241500D01*
X263423129Y-69241500D01*
X263423123Y-69241501D01*
X263363516Y-69247908D01*
X263228671Y-69298202D01*
X263228664Y-69298206D01*
X263113455Y-69384452D01*
X263113452Y-69384455D01*
X263027206Y-69499664D01*
X263027202Y-69499671D01*
X262976908Y-69634517D01*
X262970501Y-69694116D01*
X262970501Y-69694123D01*
X262970500Y-69694135D01*
X176397227Y-69694135D01*
X176109105Y-68253525D01*
X183853500Y-68253525D01*
X183853500Y-68398475D01*
X183856593Y-68410017D01*
X183891017Y-68538488D01*
X183963488Y-68664011D01*
X183963490Y-68664013D01*
X183963491Y-68664015D01*
X184065985Y-68766509D01*
X184065986Y-68766510D01*
X184065988Y-68766511D01*
X184191511Y-68838982D01*
X184191512Y-68838982D01*
X184191515Y-68838984D01*
X184331525Y-68876500D01*
X184331528Y-68876500D01*
X184476472Y-68876500D01*
X184476475Y-68876500D01*
X184616485Y-68838984D01*
X184742015Y-68766509D01*
X184844509Y-68664015D01*
X184916984Y-68538485D01*
X184954500Y-68398475D01*
X184954500Y-68253525D01*
X184916984Y-68113515D01*
X184869046Y-68030485D01*
X184844511Y-67987988D01*
X184844506Y-67987982D01*
X184742017Y-67885493D01*
X184742015Y-67885491D01*
X184708905Y-67866374D01*
X184694888Y-67858282D01*
X184616485Y-67813016D01*
X184476475Y-67775500D01*
X184331525Y-67775500D01*
X184202993Y-67809940D01*
X184191511Y-67813017D01*
X184065988Y-67885488D01*
X184065982Y-67885493D01*
X183963493Y-67987982D01*
X183963488Y-67987988D01*
X183891017Y-68113511D01*
X183891016Y-68113515D01*
X183853500Y-68253525D01*
X176109105Y-68253525D01*
X176016908Y-67792540D01*
X176014500Y-67768222D01*
X176014500Y-67759022D01*
X188171500Y-67759022D01*
X188171500Y-67903972D01*
X188209016Y-68043982D01*
X188209017Y-68043985D01*
X188281488Y-68169508D01*
X188281490Y-68169510D01*
X188281491Y-68169512D01*
X188383985Y-68272006D01*
X188383986Y-68272007D01*
X188383988Y-68272008D01*
X188509511Y-68344479D01*
X188509512Y-68344479D01*
X188509515Y-68344481D01*
X188649525Y-68381997D01*
X188649528Y-68381997D01*
X188794472Y-68381997D01*
X188794475Y-68381997D01*
X188934485Y-68344481D01*
X188934487Y-68344479D01*
X188934489Y-68344479D01*
X188934490Y-68344478D01*
X188957862Y-68330984D01*
X189052689Y-68276235D01*
X189120587Y-68259762D01*
X189176685Y-68276233D01*
X189271515Y-68330984D01*
X189411525Y-68368500D01*
X189411528Y-68368500D01*
X189556472Y-68368500D01*
X189556475Y-68368500D01*
X189696485Y-68330984D01*
X189803001Y-68269486D01*
X189870899Y-68253014D01*
X189926997Y-68269486D01*
X190033515Y-68330984D01*
X190173525Y-68368500D01*
X190173528Y-68368500D01*
X190318472Y-68368500D01*
X190318475Y-68368500D01*
X190458485Y-68330984D01*
X190565001Y-68269486D01*
X190632899Y-68253014D01*
X190688997Y-68269486D01*
X190795515Y-68330984D01*
X190935525Y-68368500D01*
X190935528Y-68368500D01*
X191080472Y-68368500D01*
X191080475Y-68368500D01*
X191220485Y-68330984D01*
X191346015Y-68258509D01*
X191448509Y-68156015D01*
X191520984Y-68030485D01*
X191558500Y-67890475D01*
X191558500Y-67745525D01*
X191981500Y-67745525D01*
X191981500Y-67890475D01*
X192010721Y-67999527D01*
X192019017Y-68030488D01*
X192091488Y-68156011D01*
X192091490Y-68156013D01*
X192091491Y-68156015D01*
X192193985Y-68258509D01*
X192193986Y-68258510D01*
X192193988Y-68258511D01*
X192319511Y-68330982D01*
X192319512Y-68330982D01*
X192319515Y-68330984D01*
X192459525Y-68368500D01*
X192459528Y-68368500D01*
X192604472Y-68368500D01*
X192604475Y-68368500D01*
X192744485Y-68330984D01*
X192870015Y-68258509D01*
X192972509Y-68156015D01*
X193044984Y-68030485D01*
X193053280Y-67999525D01*
X203157500Y-67999525D01*
X203157500Y-68144475D01*
X203192806Y-68276236D01*
X203195017Y-68284488D01*
X203267488Y-68410011D01*
X203267493Y-68410017D01*
X203349795Y-68492319D01*
X203383280Y-68553642D01*
X203378296Y-68623334D01*
X203349795Y-68667681D01*
X203267493Y-68749982D01*
X203267488Y-68749988D01*
X203195017Y-68875511D01*
X203195016Y-68875515D01*
X203157500Y-69015525D01*
X203157500Y-69160475D01*
X203195016Y-69300485D01*
X203195017Y-69300488D01*
X203267488Y-69426011D01*
X203267490Y-69426013D01*
X203267491Y-69426015D01*
X203369985Y-69528509D01*
X203369986Y-69528510D01*
X203369988Y-69528511D01*
X203495511Y-69600982D01*
X203495512Y-69600982D01*
X203495515Y-69600984D01*
X203635525Y-69638500D01*
X203635528Y-69638500D01*
X203780472Y-69638500D01*
X203780475Y-69638500D01*
X203920485Y-69600984D01*
X204046015Y-69528509D01*
X204148509Y-69426015D01*
X204220984Y-69300485D01*
X204258500Y-69160475D01*
X204258500Y-69015525D01*
X204220984Y-68875515D01*
X204158050Y-68766511D01*
X204148511Y-68749988D01*
X204148506Y-68749982D01*
X204066205Y-68667681D01*
X204032720Y-68606358D01*
X204037704Y-68536666D01*
X204066205Y-68492319D01*
X204148509Y-68410015D01*
X204220984Y-68284485D01*
X204258500Y-68144475D01*
X204258500Y-67999525D01*
X204220984Y-67859515D01*
X204194138Y-67813017D01*
X204148511Y-67733988D01*
X204148506Y-67733982D01*
X204046017Y-67631493D01*
X204046011Y-67631488D01*
X203920488Y-67559017D01*
X203920489Y-67559017D01*
X203909006Y-67555940D01*
X203780475Y-67521500D01*
X203635525Y-67521500D01*
X203506993Y-67555940D01*
X203495511Y-67559017D01*
X203369988Y-67631488D01*
X203369982Y-67631493D01*
X203267493Y-67733982D01*
X203267488Y-67733988D01*
X203195017Y-67859511D01*
X203195016Y-67859515D01*
X203157500Y-67999525D01*
X193053280Y-67999525D01*
X193082500Y-67890475D01*
X193082500Y-67745525D01*
X193044984Y-67605515D01*
X193018138Y-67559017D01*
X192972511Y-67479988D01*
X192972506Y-67479982D01*
X192870017Y-67377493D01*
X192870011Y-67377488D01*
X192744488Y-67305017D01*
X192744489Y-67305017D01*
X192733006Y-67301940D01*
X192604475Y-67267500D01*
X192459525Y-67267500D01*
X192330993Y-67301940D01*
X192319511Y-67305017D01*
X192193988Y-67377488D01*
X192193982Y-67377493D01*
X192091493Y-67479982D01*
X192091488Y-67479988D01*
X192019017Y-67605511D01*
X192019016Y-67605515D01*
X191981500Y-67745525D01*
X191558500Y-67745525D01*
X191520984Y-67605515D01*
X191494138Y-67559017D01*
X191448511Y-67479988D01*
X191448506Y-67479982D01*
X191346017Y-67377493D01*
X191346011Y-67377488D01*
X191220488Y-67305017D01*
X191220489Y-67305017D01*
X191209006Y-67301940D01*
X191080475Y-67267500D01*
X190935525Y-67267500D01*
X190806993Y-67301940D01*
X190795511Y-67305017D01*
X190689000Y-67366512D01*
X190621100Y-67382985D01*
X190565000Y-67366512D01*
X190458488Y-67305017D01*
X190458489Y-67305017D01*
X190447006Y-67301940D01*
X190318475Y-67267500D01*
X190173525Y-67267500D01*
X190044993Y-67301940D01*
X190033511Y-67305017D01*
X189927000Y-67366512D01*
X189859100Y-67382985D01*
X189803000Y-67366512D01*
X189696488Y-67305017D01*
X189696489Y-67305017D01*
X189685006Y-67301940D01*
X189556475Y-67267500D01*
X189411525Y-67267500D01*
X189282993Y-67301940D01*
X189271511Y-67305017D01*
X189153311Y-67373260D01*
X189085410Y-67389733D01*
X189029311Y-67373260D01*
X188934488Y-67318514D01*
X188934489Y-67318514D01*
X188923006Y-67315437D01*
X188794475Y-67280997D01*
X188649525Y-67280997D01*
X188520993Y-67315437D01*
X188509511Y-67318514D01*
X188383988Y-67390985D01*
X188383982Y-67390990D01*
X188281493Y-67493479D01*
X188281488Y-67493485D01*
X188209017Y-67619008D01*
X188209016Y-67619012D01*
X188171500Y-67759022D01*
X176014500Y-67759022D01*
X176014500Y-63681525D01*
X203157500Y-63681525D01*
X203157500Y-63826475D01*
X203187575Y-63938715D01*
X203195017Y-63966488D01*
X203267488Y-64092011D01*
X203267493Y-64092017D01*
X203349795Y-64174319D01*
X203383280Y-64235642D01*
X203378296Y-64305334D01*
X203349795Y-64349681D01*
X203267493Y-64431982D01*
X203267488Y-64431988D01*
X203195017Y-64557511D01*
X203195016Y-64557515D01*
X203157500Y-64697525D01*
X203157500Y-64842475D01*
X203194175Y-64979347D01*
X203195017Y-64982488D01*
X203267488Y-65108011D01*
X203267493Y-65108017D01*
X203349795Y-65190319D01*
X203383280Y-65251642D01*
X203378296Y-65321334D01*
X203349795Y-65365681D01*
X203267493Y-65447982D01*
X203267488Y-65447988D01*
X203195017Y-65573511D01*
X203195016Y-65573515D01*
X203157500Y-65713525D01*
X203157500Y-65858475D01*
X203195016Y-65998485D01*
X203195017Y-65998488D01*
X203267488Y-66124011D01*
X203267489Y-66124012D01*
X203267491Y-66124015D01*
X203369985Y-66226509D01*
X203369986Y-66226510D01*
X203369988Y-66226511D01*
X203495511Y-66298982D01*
X203495512Y-66298982D01*
X203495515Y-66298984D01*
X203635525Y-66336500D01*
X203635528Y-66336500D01*
X203780472Y-66336500D01*
X203780475Y-66336500D01*
X203920485Y-66298984D01*
X204046015Y-66226509D01*
X204063174Y-66209350D01*
X219142500Y-66209350D01*
X219142500Y-66378649D01*
X219168981Y-66545847D01*
X219221296Y-66706853D01*
X219298152Y-66857688D01*
X219397648Y-66994634D01*
X219397652Y-66994639D01*
X219517360Y-67114347D01*
X219517365Y-67114351D01*
X219636817Y-67201137D01*
X219654315Y-67213850D01*
X219750425Y-67262820D01*
X219805146Y-67290703D01*
X219805148Y-67290703D01*
X219805151Y-67290705D01*
X219849199Y-67305017D01*
X219966152Y-67343018D01*
X220133351Y-67369500D01*
X220133356Y-67369500D01*
X220302649Y-67369500D01*
X220469847Y-67343018D01*
X220630849Y-67290705D01*
X220781685Y-67213850D01*
X220918641Y-67114346D01*
X221038346Y-66994641D01*
X221137850Y-66857685D01*
X221214705Y-66706849D01*
X221267018Y-66545847D01*
X221293500Y-66378649D01*
X221293500Y-66209350D01*
X221267018Y-66042152D01*
X221242745Y-65967450D01*
X221214705Y-65881151D01*
X221214703Y-65881148D01*
X221214703Y-65881146D01*
X221186820Y-65826425D01*
X221137850Y-65730315D01*
X221125137Y-65712817D01*
X221038351Y-65593365D01*
X221038347Y-65593360D01*
X220918639Y-65473652D01*
X220918634Y-65473648D01*
X220781688Y-65374152D01*
X220781687Y-65374151D01*
X220781685Y-65374150D01*
X220725439Y-65345491D01*
X220630853Y-65297296D01*
X220469847Y-65244981D01*
X220302649Y-65218500D01*
X220302644Y-65218500D01*
X220133356Y-65218500D01*
X220133351Y-65218500D01*
X219966152Y-65244981D01*
X219805146Y-65297296D01*
X219654311Y-65374152D01*
X219517365Y-65473648D01*
X219517360Y-65473652D01*
X219397652Y-65593360D01*
X219397648Y-65593365D01*
X219298152Y-65730311D01*
X219221296Y-65881146D01*
X219168981Y-66042152D01*
X219142500Y-66209350D01*
X204063174Y-66209350D01*
X204148509Y-66124015D01*
X204220984Y-65998485D01*
X204258500Y-65858475D01*
X204258500Y-65713525D01*
X204220984Y-65573515D01*
X204207536Y-65550223D01*
X204148511Y-65447988D01*
X204148506Y-65447982D01*
X204066205Y-65365681D01*
X204032720Y-65304358D01*
X204037704Y-65234666D01*
X204066205Y-65190319D01*
X204103173Y-65153351D01*
X204148509Y-65108015D01*
X204220984Y-64982485D01*
X204258500Y-64842475D01*
X204258500Y-64697525D01*
X204220984Y-64557515D01*
X204217673Y-64551781D01*
X204148511Y-64431988D01*
X204148506Y-64431982D01*
X204066205Y-64349681D01*
X204032720Y-64288358D01*
X204037704Y-64218666D01*
X204066205Y-64174319D01*
X204073675Y-64166849D01*
X204148509Y-64092015D01*
X204220984Y-63966485D01*
X204258500Y-63826475D01*
X204258500Y-63681525D01*
X204255238Y-63669350D01*
X219142500Y-63669350D01*
X219142500Y-63838649D01*
X219168981Y-64005847D01*
X219221296Y-64166853D01*
X219298152Y-64317688D01*
X219397648Y-64454634D01*
X219397652Y-64454639D01*
X219517360Y-64574347D01*
X219517365Y-64574351D01*
X219636817Y-64661137D01*
X219654315Y-64673850D01*
X219732729Y-64713804D01*
X219805146Y-64750703D01*
X219805148Y-64750703D01*
X219805151Y-64750705D01*
X219891450Y-64778745D01*
X219966152Y-64803018D01*
X220133351Y-64829500D01*
X220133356Y-64829500D01*
X220302649Y-64829500D01*
X220469847Y-64803018D01*
X220630849Y-64750705D01*
X220781685Y-64673850D01*
X220918641Y-64574346D01*
X221038346Y-64454641D01*
X221137850Y-64317685D01*
X221214705Y-64166849D01*
X221238899Y-64092386D01*
X221278337Y-64034712D01*
X221342696Y-64007514D01*
X221411542Y-64019429D01*
X221463018Y-64066673D01*
X221474761Y-64092388D01*
X221530075Y-64262625D01*
X221624759Y-64448451D01*
X221660627Y-64497818D01*
X221660627Y-64497819D01*
X222234212Y-63924234D01*
X222245482Y-63966292D01*
X222317890Y-64091708D01*
X222420292Y-64194110D01*
X222545708Y-64266518D01*
X222587765Y-64277787D01*
X222014179Y-64851371D01*
X222014180Y-64851372D01*
X222063543Y-64887236D01*
X222063556Y-64887244D01*
X222249374Y-64981924D01*
X222419611Y-65037238D01*
X222477287Y-65076675D01*
X222504485Y-65141034D01*
X222492570Y-65209880D01*
X222445326Y-65261356D01*
X222419614Y-65273099D01*
X222345149Y-65297295D01*
X222194311Y-65374152D01*
X222057365Y-65473648D01*
X222057360Y-65473652D01*
X221937652Y-65593360D01*
X221937648Y-65593365D01*
X221838152Y-65730311D01*
X221761296Y-65881146D01*
X221708981Y-66042152D01*
X221682500Y-66209350D01*
X221682500Y-66378649D01*
X221708981Y-66545847D01*
X221761296Y-66706853D01*
X221838152Y-66857688D01*
X221937648Y-66994634D01*
X221937652Y-66994639D01*
X222057360Y-67114347D01*
X222057365Y-67114351D01*
X222176817Y-67201137D01*
X222194315Y-67213850D01*
X222290425Y-67262820D01*
X222345146Y-67290703D01*
X222345148Y-67290703D01*
X222345151Y-67290705D01*
X222389199Y-67305017D01*
X222506152Y-67343018D01*
X222673351Y-67369500D01*
X222673356Y-67369500D01*
X222842649Y-67369500D01*
X223009847Y-67343018D01*
X223170849Y-67290705D01*
X223321685Y-67213850D01*
X223458641Y-67114346D01*
X223578346Y-66994641D01*
X223677850Y-66857685D01*
X223754705Y-66706849D01*
X223807018Y-66545847D01*
X223833500Y-66378649D01*
X223833500Y-66209350D01*
X224222500Y-66209350D01*
X224222500Y-66378649D01*
X224248981Y-66545847D01*
X224301296Y-66706853D01*
X224378152Y-66857688D01*
X224477648Y-66994634D01*
X224477652Y-66994639D01*
X224597360Y-67114347D01*
X224597365Y-67114351D01*
X224716817Y-67201137D01*
X224734315Y-67213850D01*
X224830425Y-67262820D01*
X224885146Y-67290703D01*
X224885148Y-67290703D01*
X224885151Y-67290705D01*
X224929199Y-67305017D01*
X225046152Y-67343018D01*
X225213351Y-67369500D01*
X225213356Y-67369500D01*
X225382649Y-67369500D01*
X225549847Y-67343018D01*
X225710849Y-67290705D01*
X225861685Y-67213850D01*
X225998641Y-67114346D01*
X226118346Y-66994641D01*
X226217850Y-66857685D01*
X226294705Y-66706849D01*
X226347018Y-66545847D01*
X226373500Y-66378649D01*
X226373500Y-66209350D01*
X226347018Y-66042152D01*
X226322745Y-65967450D01*
X226294705Y-65881151D01*
X226294703Y-65881148D01*
X226294703Y-65881146D01*
X226266820Y-65826425D01*
X226217850Y-65730315D01*
X226205137Y-65712817D01*
X226118351Y-65593365D01*
X226118347Y-65593360D01*
X225998639Y-65473652D01*
X225998634Y-65473648D01*
X225861688Y-65374152D01*
X225861687Y-65374151D01*
X225861685Y-65374150D01*
X225805439Y-65345491D01*
X225710853Y-65297296D01*
X225549847Y-65244981D01*
X225382649Y-65218500D01*
X225382644Y-65218500D01*
X225213356Y-65218500D01*
X225213351Y-65218500D01*
X225046152Y-65244981D01*
X224885146Y-65297296D01*
X224734311Y-65374152D01*
X224597365Y-65473648D01*
X224597360Y-65473652D01*
X224477652Y-65593360D01*
X224477648Y-65593365D01*
X224378152Y-65730311D01*
X224301296Y-65881146D01*
X224248981Y-66042152D01*
X224222500Y-66209350D01*
X223833500Y-66209350D01*
X223807018Y-66042152D01*
X223782745Y-65967450D01*
X223754705Y-65881151D01*
X223754703Y-65881148D01*
X223754703Y-65881146D01*
X223726820Y-65826425D01*
X223677850Y-65730315D01*
X223665137Y-65712817D01*
X223578351Y-65593365D01*
X223578347Y-65593360D01*
X223458639Y-65473652D01*
X223458634Y-65473648D01*
X223321688Y-65374152D01*
X223321687Y-65374151D01*
X223321685Y-65374150D01*
X223265439Y-65345491D01*
X223170849Y-65297294D01*
X223096386Y-65273099D01*
X223038711Y-65233661D01*
X223011514Y-65169302D01*
X223023430Y-65100456D01*
X223070675Y-65048981D01*
X223096388Y-65037238D01*
X223266625Y-64981924D01*
X223271683Y-64979347D01*
X249688189Y-64979347D01*
X249688189Y-65124297D01*
X249724914Y-65261356D01*
X249725706Y-65264310D01*
X249798177Y-65389833D01*
X249798179Y-65389835D01*
X249798180Y-65389837D01*
X249900674Y-65492331D01*
X249900675Y-65492332D01*
X249900677Y-65492333D01*
X250026200Y-65564804D01*
X250026201Y-65564804D01*
X250026204Y-65564806D01*
X250166214Y-65602322D01*
X250166217Y-65602322D01*
X250311161Y-65602322D01*
X250311164Y-65602322D01*
X250451174Y-65564806D01*
X250576704Y-65492331D01*
X250679198Y-65389837D01*
X250751673Y-65264307D01*
X250789189Y-65124297D01*
X250789189Y-64979347D01*
X250780963Y-64948648D01*
X263220500Y-64948648D01*
X263220500Y-65153351D01*
X263252522Y-65355534D01*
X263315781Y-65550223D01*
X263408715Y-65732613D01*
X263529028Y-65898213D01*
X263673786Y-66042971D01*
X263785332Y-66124012D01*
X263839390Y-66163287D01*
X263955607Y-66222503D01*
X264021776Y-66256218D01*
X264021778Y-66256218D01*
X264021781Y-66256220D01*
X264126137Y-66290127D01*
X264216465Y-66319477D01*
X264317557Y-66335488D01*
X264418648Y-66351500D01*
X264418649Y-66351500D01*
X264623351Y-66351500D01*
X264623352Y-66351500D01*
X264825534Y-66319477D01*
X265020219Y-66256220D01*
X265202610Y-66163287D01*
X265295590Y-66095732D01*
X265368213Y-66042971D01*
X265368215Y-66042968D01*
X265368219Y-66042966D01*
X265512966Y-65898219D01*
X265512968Y-65898215D01*
X265512971Y-65898213D01*
X265565732Y-65825590D01*
X265633287Y-65732610D01*
X265726220Y-65550219D01*
X265789477Y-65355534D01*
X265821500Y-65153352D01*
X265821500Y-64948648D01*
X265798434Y-64803018D01*
X265789477Y-64746465D01*
X265728083Y-64557515D01*
X265726220Y-64551781D01*
X265726218Y-64551778D01*
X265726218Y-64551776D01*
X265692503Y-64485607D01*
X265633287Y-64369390D01*
X265595724Y-64317688D01*
X265512971Y-64203786D01*
X265368213Y-64059028D01*
X265202613Y-63938715D01*
X265202612Y-63938714D01*
X265202610Y-63938713D01*
X265145653Y-63909691D01*
X265020223Y-63845781D01*
X264825534Y-63782522D01*
X264645443Y-63753999D01*
X264623352Y-63750500D01*
X264418648Y-63750500D01*
X264396557Y-63753999D01*
X264216465Y-63782522D01*
X264021776Y-63845781D01*
X263839386Y-63938715D01*
X263673786Y-64059028D01*
X263529028Y-64203786D01*
X263408715Y-64369386D01*
X263315781Y-64551776D01*
X263252522Y-64746465D01*
X263220500Y-64948648D01*
X250780963Y-64948648D01*
X250751673Y-64839337D01*
X250679198Y-64713807D01*
X250576704Y-64611313D01*
X250576702Y-64611312D01*
X250576700Y-64611310D01*
X250451177Y-64538839D01*
X250451178Y-64538839D01*
X250439695Y-64535762D01*
X250311164Y-64501322D01*
X250166214Y-64501322D01*
X250037682Y-64535762D01*
X250026200Y-64538839D01*
X249900677Y-64611310D01*
X249900671Y-64611315D01*
X249798182Y-64713804D01*
X249798177Y-64713810D01*
X249725706Y-64839333D01*
X249725705Y-64839337D01*
X249688189Y-64979347D01*
X223271683Y-64979347D01*
X223452452Y-64887240D01*
X223474936Y-64870904D01*
X223474937Y-64870903D01*
X223501818Y-64851371D01*
X222928234Y-64277787D01*
X222970292Y-64266518D01*
X223095708Y-64194110D01*
X223198110Y-64091708D01*
X223270518Y-63966292D01*
X223281787Y-63924234D01*
X223855371Y-64497818D01*
X223855372Y-64497818D01*
X223891240Y-64448451D01*
X223985924Y-64262625D01*
X224041238Y-64092388D01*
X224080675Y-64034713D01*
X224145034Y-64007514D01*
X224213880Y-64019428D01*
X224265356Y-64066673D01*
X224277099Y-64092386D01*
X224301294Y-64166849D01*
X224378152Y-64317688D01*
X224477648Y-64454634D01*
X224477652Y-64454639D01*
X224597360Y-64574347D01*
X224597365Y-64574351D01*
X224716817Y-64661137D01*
X224734315Y-64673850D01*
X224812729Y-64713804D01*
X224885146Y-64750703D01*
X224885148Y-64750703D01*
X224885151Y-64750705D01*
X224971450Y-64778745D01*
X225046152Y-64803018D01*
X225213351Y-64829500D01*
X225213356Y-64829500D01*
X225382649Y-64829500D01*
X225549847Y-64803018D01*
X225710849Y-64750705D01*
X225861685Y-64673850D01*
X225998641Y-64574346D01*
X226118346Y-64454641D01*
X226217850Y-64317685D01*
X226294705Y-64166849D01*
X226347018Y-64005847D01*
X226372370Y-63845781D01*
X226373500Y-63838649D01*
X226373500Y-63669350D01*
X226347018Y-63502152D01*
X226294703Y-63341146D01*
X226243684Y-63241017D01*
X226217850Y-63190315D01*
X226205137Y-63172817D01*
X226118351Y-63053365D01*
X226118347Y-63053360D01*
X225998639Y-62933652D01*
X225998634Y-62933648D01*
X225861688Y-62834152D01*
X225861687Y-62834151D01*
X225861685Y-62834150D01*
X225814582Y-62810150D01*
X225710853Y-62757296D01*
X225549847Y-62704981D01*
X225382649Y-62678500D01*
X225382644Y-62678500D01*
X225213356Y-62678500D01*
X225213351Y-62678500D01*
X225046152Y-62704981D01*
X224885146Y-62757296D01*
X224734311Y-62834152D01*
X224597365Y-62933648D01*
X224597360Y-62933652D01*
X224477652Y-63053360D01*
X224477648Y-63053365D01*
X224378152Y-63190311D01*
X224301295Y-63341149D01*
X224277099Y-63415614D01*
X224237661Y-63473288D01*
X224173301Y-63500485D01*
X224104455Y-63488569D01*
X224052980Y-63441324D01*
X224041238Y-63415611D01*
X223985924Y-63245374D01*
X223891244Y-63059556D01*
X223891236Y-63059543D01*
X223855372Y-63010180D01*
X223855371Y-63010179D01*
X223281787Y-63583764D01*
X223270518Y-63541708D01*
X223198110Y-63416292D01*
X223095708Y-63313890D01*
X222970292Y-63241482D01*
X222928233Y-63230212D01*
X223501819Y-62656627D01*
X223452451Y-62620759D01*
X223266627Y-62526075D01*
X223068272Y-62461626D01*
X222862279Y-62429000D01*
X222653721Y-62429000D01*
X222447727Y-62461626D01*
X222249372Y-62526075D01*
X222063552Y-62620757D01*
X222014180Y-62656627D01*
X222587766Y-63230212D01*
X222545708Y-63241482D01*
X222420292Y-63313890D01*
X222317890Y-63416292D01*
X222245482Y-63541708D01*
X222234212Y-63583765D01*
X221660627Y-63010180D01*
X221624757Y-63059552D01*
X221530075Y-63245372D01*
X221474761Y-63415612D01*
X221435323Y-63473287D01*
X221370964Y-63500485D01*
X221302118Y-63488570D01*
X221250642Y-63441326D01*
X221238899Y-63415612D01*
X221233971Y-63400446D01*
X221214705Y-63341151D01*
X221137850Y-63190315D01*
X221125137Y-63172817D01*
X221038351Y-63053365D01*
X221038347Y-63053360D01*
X220918639Y-62933652D01*
X220918634Y-62933648D01*
X220781686Y-62834150D01*
X220742868Y-62814371D01*
X220742867Y-62814371D01*
X220630853Y-62757296D01*
X220469847Y-62704981D01*
X220302649Y-62678500D01*
X220302644Y-62678500D01*
X220133356Y-62678500D01*
X220133351Y-62678500D01*
X219966152Y-62704981D01*
X219805146Y-62757296D01*
X219654311Y-62834152D01*
X219517365Y-62933648D01*
X219517360Y-62933652D01*
X219397652Y-63053360D01*
X219397648Y-63053365D01*
X219298152Y-63190311D01*
X219221296Y-63341146D01*
X219168981Y-63502152D01*
X219142500Y-63669350D01*
X204255238Y-63669350D01*
X204220984Y-63541515D01*
X204198258Y-63502153D01*
X204148511Y-63415988D01*
X204148506Y-63415982D01*
X204046017Y-63313493D01*
X204046011Y-63313488D01*
X203920488Y-63241017D01*
X203920489Y-63241017D01*
X203909006Y-63237940D01*
X203780475Y-63203500D01*
X203635525Y-63203500D01*
X203506993Y-63237940D01*
X203495511Y-63241017D01*
X203369988Y-63313488D01*
X203369982Y-63313493D01*
X203267493Y-63415982D01*
X203267488Y-63415988D01*
X203195017Y-63541511D01*
X203195016Y-63541515D01*
X203157500Y-63681525D01*
X176014500Y-63681525D01*
X176014500Y-60143135D01*
X262970500Y-60143135D01*
X262970500Y-62338870D01*
X262970501Y-62338876D01*
X262976908Y-62398483D01*
X263027202Y-62533328D01*
X263027206Y-62533335D01*
X263113452Y-62648544D01*
X263113455Y-62648547D01*
X263228664Y-62734793D01*
X263228671Y-62734797D01*
X263363517Y-62785091D01*
X263363516Y-62785091D01*
X263370444Y-62785835D01*
X263423127Y-62791500D01*
X265618872Y-62791499D01*
X265678483Y-62785091D01*
X265813331Y-62734796D01*
X265928546Y-62648546D01*
X266014796Y-62533331D01*
X266065091Y-62398483D01*
X266071500Y-62338873D01*
X266071499Y-60143128D01*
X266065091Y-60083517D01*
X266014796Y-59948669D01*
X266014795Y-59948668D01*
X266014793Y-59948664D01*
X265928547Y-59833455D01*
X265928544Y-59833452D01*
X265813335Y-59747206D01*
X265813328Y-59747202D01*
X265678482Y-59696908D01*
X265678483Y-59696908D01*
X265618883Y-59690501D01*
X265618881Y-59690500D01*
X265618873Y-59690500D01*
X265618864Y-59690500D01*
X263423129Y-59690500D01*
X263423123Y-59690501D01*
X263363516Y-59696908D01*
X263228671Y-59747202D01*
X263228664Y-59747206D01*
X263113455Y-59833452D01*
X263113452Y-59833455D01*
X263027206Y-59948664D01*
X263027202Y-59948671D01*
X262976908Y-60083517D01*
X262970501Y-60143116D01*
X262970501Y-60143123D01*
X262970500Y-60143135D01*
X176014500Y-60143135D01*
X176014500Y-59079525D01*
X183331483Y-59079525D01*
X183331483Y-59224475D01*
X183368999Y-59364485D01*
X183369000Y-59364488D01*
X183441471Y-59490011D01*
X183441473Y-59490013D01*
X183441474Y-59490015D01*
X183543968Y-59592509D01*
X183543969Y-59592510D01*
X183543971Y-59592511D01*
X183669494Y-59664982D01*
X183669495Y-59664982D01*
X183669498Y-59664984D01*
X183809508Y-59702500D01*
X183809511Y-59702500D01*
X183954455Y-59702500D01*
X183954458Y-59702500D01*
X184094468Y-59664984D01*
X184219998Y-59592509D01*
X184322492Y-59490015D01*
X184394967Y-59364485D01*
X184432483Y-59224475D01*
X184432483Y-59079525D01*
X184394967Y-58939515D01*
X184322492Y-58813985D01*
X184219998Y-58711491D01*
X184219996Y-58711490D01*
X184219994Y-58711488D01*
X184094471Y-58639017D01*
X184094472Y-58639017D01*
X184082989Y-58635940D01*
X183954458Y-58601500D01*
X183809508Y-58601500D01*
X183680976Y-58635940D01*
X183669494Y-58639017D01*
X183543971Y-58711488D01*
X183543965Y-58711493D01*
X183441476Y-58813982D01*
X183441471Y-58813988D01*
X183369000Y-58939511D01*
X183368999Y-58939515D01*
X183331483Y-59079525D01*
X176014500Y-59079525D01*
X176014500Y-56793525D01*
X184318030Y-56793525D01*
X184318030Y-56938475D01*
X184338794Y-57015966D01*
X184355547Y-57078488D01*
X184428018Y-57204011D01*
X184428020Y-57204013D01*
X184428021Y-57204015D01*
X184530515Y-57306509D01*
X184530516Y-57306510D01*
X184530518Y-57306511D01*
X184656041Y-57378982D01*
X184656042Y-57378982D01*
X184656045Y-57378984D01*
X184796055Y-57416500D01*
X184796058Y-57416500D01*
X184941002Y-57416500D01*
X184941005Y-57416500D01*
X185081015Y-57378984D01*
X185206545Y-57306509D01*
X185309039Y-57204015D01*
X185369613Y-57099098D01*
X231262815Y-57099098D01*
X231262815Y-57244048D01*
X231299402Y-57380590D01*
X231300332Y-57384061D01*
X231372803Y-57509584D01*
X231372805Y-57509586D01*
X231372806Y-57509588D01*
X231475300Y-57612082D01*
X231475301Y-57612083D01*
X231475303Y-57612084D01*
X231600826Y-57684555D01*
X231600827Y-57684555D01*
X231600830Y-57684557D01*
X231740840Y-57722073D01*
X231740843Y-57722073D01*
X231885787Y-57722073D01*
X231885790Y-57722073D01*
X232025800Y-57684557D01*
X232151330Y-57612082D01*
X232253824Y-57509588D01*
X232314775Y-57404018D01*
X232330363Y-57377020D01*
X232332693Y-57378365D01*
X232368218Y-57334267D01*
X232434509Y-57312192D01*
X232502211Y-57329460D01*
X232549829Y-57380590D01*
X232558727Y-57404014D01*
X232562073Y-57416500D01*
X232566736Y-57433901D01*
X232639207Y-57559424D01*
X232639209Y-57559426D01*
X232639210Y-57559428D01*
X232741704Y-57661922D01*
X232741705Y-57661923D01*
X232741707Y-57661924D01*
X232867230Y-57734395D01*
X232867231Y-57734395D01*
X232867234Y-57734397D01*
X233007244Y-57771913D01*
X233007247Y-57771913D01*
X233152191Y-57771913D01*
X233152194Y-57771913D01*
X233292204Y-57734397D01*
X233417734Y-57661922D01*
X233520228Y-57559428D01*
X233592703Y-57433898D01*
X233630219Y-57293888D01*
X233630219Y-57148938D01*
X233592703Y-57008928D01*
X233581177Y-56988965D01*
X233520230Y-56883402D01*
X233520228Y-56883398D01*
X233460355Y-56823525D01*
X250909500Y-56823525D01*
X250909500Y-56968475D01*
X250947016Y-57108485D01*
X250947017Y-57108488D01*
X251019488Y-57234011D01*
X251019490Y-57234013D01*
X251019491Y-57234015D01*
X251121985Y-57336509D01*
X251121986Y-57336510D01*
X251121988Y-57336511D01*
X251247511Y-57408982D01*
X251247512Y-57408982D01*
X251247515Y-57408984D01*
X251387525Y-57446500D01*
X251387528Y-57446500D01*
X251532472Y-57446500D01*
X251532475Y-57446500D01*
X251672485Y-57408984D01*
X251798015Y-57336509D01*
X251900509Y-57234015D01*
X251972984Y-57108485D01*
X252010500Y-56968475D01*
X252010500Y-56823525D01*
X251972984Y-56683515D01*
X251965708Y-56670913D01*
X251900511Y-56557988D01*
X251900506Y-56557982D01*
X251798017Y-56455493D01*
X251798011Y-56455488D01*
X251672488Y-56383017D01*
X251672489Y-56383017D01*
X251661006Y-56379940D01*
X251532475Y-56345500D01*
X251387525Y-56345500D01*
X251258993Y-56379940D01*
X251247511Y-56383017D01*
X251121988Y-56455488D01*
X251121982Y-56455493D01*
X251019493Y-56557982D01*
X251019488Y-56557988D01*
X250947017Y-56683511D01*
X250947016Y-56683515D01*
X250909500Y-56823525D01*
X233460355Y-56823525D01*
X233417734Y-56780904D01*
X233417732Y-56780903D01*
X233417730Y-56780901D01*
X233292207Y-56708430D01*
X233292208Y-56708430D01*
X233280725Y-56705353D01*
X233152194Y-56670913D01*
X233007244Y-56670913D01*
X232878712Y-56705353D01*
X232867230Y-56708430D01*
X232741707Y-56780901D01*
X232741701Y-56780906D01*
X232639212Y-56883395D01*
X232639207Y-56883401D01*
X232562671Y-57015966D01*
X232560347Y-57014624D01*
X232524773Y-57058747D01*
X232458473Y-57080795D01*
X232390778Y-57063498D01*
X232343181Y-57012349D01*
X232334306Y-56988970D01*
X232326299Y-56959088D01*
X232314396Y-56938472D01*
X232253826Y-56833561D01*
X232253821Y-56833555D01*
X232151332Y-56731066D01*
X232151326Y-56731061D01*
X232025803Y-56658590D01*
X232025804Y-56658590D01*
X232006849Y-56653511D01*
X231885790Y-56621073D01*
X231740840Y-56621073D01*
X231619781Y-56653511D01*
X231600826Y-56658590D01*
X231475303Y-56731061D01*
X231475297Y-56731066D01*
X231372808Y-56833555D01*
X231372803Y-56833561D01*
X231300332Y-56959084D01*
X231300331Y-56959088D01*
X231262815Y-57099098D01*
X185369613Y-57099098D01*
X185381514Y-57078485D01*
X185419030Y-56938475D01*
X185419030Y-56793525D01*
X185381514Y-56653515D01*
X185353053Y-56604220D01*
X185309041Y-56527988D01*
X185309036Y-56527982D01*
X185206547Y-56425493D01*
X185206541Y-56425488D01*
X185081018Y-56353017D01*
X185081019Y-56353017D01*
X185052965Y-56345500D01*
X184941005Y-56315500D01*
X184796055Y-56315500D01*
X184684095Y-56345500D01*
X184656041Y-56353017D01*
X184530518Y-56425488D01*
X184530512Y-56425493D01*
X184428023Y-56527982D01*
X184428018Y-56527988D01*
X184355547Y-56653511D01*
X184355546Y-56653515D01*
X184318030Y-56793525D01*
X176014500Y-56793525D01*
X176014500Y-55553525D01*
X202649500Y-55553525D01*
X202649500Y-55698475D01*
X202650856Y-55703534D01*
X202687017Y-55838488D01*
X202759488Y-55964011D01*
X202759490Y-55964013D01*
X202759491Y-55964015D01*
X202861985Y-56066509D01*
X202861986Y-56066510D01*
X202861988Y-56066511D01*
X202987511Y-56138982D01*
X202987512Y-56138982D01*
X202987515Y-56138984D01*
X203127525Y-56176500D01*
X203127528Y-56176500D01*
X203272472Y-56176500D01*
X203272475Y-56176500D01*
X203412485Y-56138984D01*
X203538015Y-56066509D01*
X203640509Y-55964015D01*
X203712984Y-55838485D01*
X203750500Y-55698475D01*
X203750500Y-55553525D01*
X203712984Y-55413515D01*
X203645511Y-55296648D01*
X263220500Y-55296648D01*
X263220500Y-55501351D01*
X263252522Y-55703534D01*
X263315781Y-55898223D01*
X263379691Y-56023653D01*
X263401529Y-56066511D01*
X263408715Y-56080613D01*
X263529028Y-56246213D01*
X263673786Y-56390971D01*
X263828749Y-56503556D01*
X263839390Y-56511287D01*
X263931034Y-56557982D01*
X264021776Y-56604218D01*
X264021778Y-56604218D01*
X264021781Y-56604220D01*
X264126137Y-56638127D01*
X264216465Y-56667477D01*
X264317557Y-56683488D01*
X264418648Y-56699500D01*
X264418649Y-56699500D01*
X264623351Y-56699500D01*
X264623352Y-56699500D01*
X264825534Y-56667477D01*
X265020219Y-56604220D01*
X265202610Y-56511287D01*
X265295590Y-56443732D01*
X265368213Y-56390971D01*
X265368215Y-56390968D01*
X265368219Y-56390966D01*
X265512966Y-56246219D01*
X265512968Y-56246215D01*
X265512971Y-56246213D01*
X265590876Y-56138984D01*
X265633287Y-56080610D01*
X265726220Y-55898219D01*
X265789477Y-55703534D01*
X265821500Y-55501352D01*
X265821500Y-55296648D01*
X265820127Y-55287982D01*
X265789477Y-55094465D01*
X265726218Y-54899776D01*
X265692503Y-54833607D01*
X265633287Y-54717390D01*
X265625556Y-54706749D01*
X265512971Y-54551786D01*
X265368213Y-54407028D01*
X265202613Y-54286715D01*
X265202612Y-54286714D01*
X265202610Y-54286713D01*
X265113333Y-54241224D01*
X265020223Y-54193781D01*
X264825534Y-54130522D01*
X264650995Y-54102878D01*
X264623352Y-54098500D01*
X264418648Y-54098500D01*
X264394329Y-54102351D01*
X264216465Y-54130522D01*
X264021776Y-54193781D01*
X263839386Y-54286715D01*
X263673786Y-54407028D01*
X263529028Y-54551786D01*
X263408715Y-54717386D01*
X263315781Y-54899776D01*
X263252522Y-55094465D01*
X263220500Y-55296648D01*
X203645511Y-55296648D01*
X203640509Y-55287985D01*
X203538015Y-55185491D01*
X203538013Y-55185490D01*
X203538011Y-55185488D01*
X203412488Y-55113017D01*
X203412489Y-55113017D01*
X203401006Y-55109940D01*
X203272475Y-55075500D01*
X203127525Y-55075500D01*
X202998993Y-55109940D01*
X202987511Y-55113017D01*
X202861988Y-55185488D01*
X202861982Y-55185493D01*
X202759493Y-55287982D01*
X202759488Y-55287988D01*
X202687017Y-55413511D01*
X202687016Y-55413515D01*
X202649500Y-55553525D01*
X176014500Y-55553525D01*
X176014500Y-54001735D01*
X180562395Y-54001735D01*
X180562395Y-54001736D01*
X180633059Y-54048951D01*
X180778648Y-54109256D01*
X180778656Y-54109258D01*
X180933202Y-54139999D01*
X180933206Y-54140000D01*
X181090794Y-54140000D01*
X181090797Y-54139999D01*
X181245343Y-54109258D01*
X181245351Y-54109256D01*
X181390939Y-54048952D01*
X181390942Y-54048950D01*
X181461603Y-54001735D01*
X181862395Y-54001735D01*
X181862395Y-54001736D01*
X181933059Y-54048951D01*
X182078648Y-54109256D01*
X182078656Y-54109258D01*
X182233202Y-54139999D01*
X182233206Y-54140000D01*
X182390794Y-54140000D01*
X182390797Y-54139999D01*
X182545343Y-54109258D01*
X182545351Y-54109256D01*
X182690939Y-54048952D01*
X182690942Y-54048950D01*
X182761603Y-54001735D01*
X183162395Y-54001735D01*
X183162395Y-54001736D01*
X183233059Y-54048951D01*
X183378648Y-54109256D01*
X183378656Y-54109258D01*
X183533202Y-54139999D01*
X183533206Y-54140000D01*
X183690794Y-54140000D01*
X183690797Y-54139999D01*
X183845343Y-54109258D01*
X183845351Y-54109256D01*
X183990939Y-54048952D01*
X183990942Y-54048950D01*
X184061603Y-54001735D01*
X184462395Y-54001735D01*
X184462395Y-54001736D01*
X184533059Y-54048951D01*
X184678648Y-54109256D01*
X184678656Y-54109258D01*
X184833202Y-54139999D01*
X184833206Y-54140000D01*
X184990794Y-54140000D01*
X184990797Y-54139999D01*
X185145343Y-54109258D01*
X185145351Y-54109256D01*
X185290939Y-54048952D01*
X185290942Y-54048950D01*
X185361603Y-54001735D01*
X184912001Y-53552132D01*
X184912000Y-53552132D01*
X184462395Y-54001735D01*
X184061603Y-54001735D01*
X183612001Y-53552132D01*
X183612000Y-53552132D01*
X183162395Y-54001735D01*
X182761603Y-54001735D01*
X182312001Y-53552132D01*
X182312000Y-53552132D01*
X181862395Y-54001735D01*
X181461603Y-54001735D01*
X181012001Y-53552132D01*
X181012000Y-53552132D01*
X180562395Y-54001735D01*
X176014500Y-54001735D01*
X176014500Y-53261202D01*
X180212000Y-53261202D01*
X180212000Y-53418797D01*
X180242741Y-53573343D01*
X180242743Y-53573351D01*
X180303048Y-53718940D01*
X180350263Y-53789603D01*
X180350264Y-53789604D01*
X180799868Y-53340000D01*
X180799868Y-53339999D01*
X180770032Y-53310163D01*
X180862000Y-53310163D01*
X180862000Y-53369837D01*
X180884836Y-53424968D01*
X180927032Y-53467164D01*
X180982163Y-53490000D01*
X181041837Y-53490000D01*
X181096968Y-53467164D01*
X181139164Y-53424968D01*
X181162000Y-53369837D01*
X181162000Y-53340000D01*
X181224132Y-53340000D01*
X181662000Y-53777868D01*
X182099868Y-53340000D01*
X182070031Y-53310163D01*
X182162000Y-53310163D01*
X182162000Y-53369837D01*
X182184836Y-53424968D01*
X182227032Y-53467164D01*
X182282163Y-53490000D01*
X182341837Y-53490000D01*
X182396968Y-53467164D01*
X182439164Y-53424968D01*
X182462000Y-53369837D01*
X182462000Y-53340000D01*
X182524132Y-53340000D01*
X182962000Y-53777868D01*
X183399868Y-53340000D01*
X183370031Y-53310163D01*
X183462000Y-53310163D01*
X183462000Y-53369837D01*
X183484836Y-53424968D01*
X183527032Y-53467164D01*
X183582163Y-53490000D01*
X183641837Y-53490000D01*
X183696968Y-53467164D01*
X183739164Y-53424968D01*
X183762000Y-53369837D01*
X183762000Y-53340000D01*
X183824132Y-53340000D01*
X184262000Y-53777868D01*
X184699868Y-53340000D01*
X184670031Y-53310163D01*
X184762000Y-53310163D01*
X184762000Y-53369837D01*
X184784836Y-53424968D01*
X184827032Y-53467164D01*
X184882163Y-53490000D01*
X184941837Y-53490000D01*
X184996968Y-53467164D01*
X185039164Y-53424968D01*
X185062000Y-53369837D01*
X185062000Y-53339999D01*
X185124132Y-53339999D01*
X185124132Y-53340000D01*
X185573735Y-53789603D01*
X185620950Y-53718942D01*
X185620952Y-53718939D01*
X185681256Y-53573351D01*
X185681258Y-53573343D01*
X185711999Y-53418797D01*
X185712000Y-53418794D01*
X185712000Y-53261206D01*
X185711999Y-53261202D01*
X185681258Y-53106656D01*
X185681256Y-53106648D01*
X185620951Y-52961059D01*
X185573735Y-52890395D01*
X185124132Y-53339999D01*
X185062000Y-53339999D01*
X185062000Y-53310163D01*
X185039164Y-53255032D01*
X184996968Y-53212836D01*
X184941837Y-53190000D01*
X184882163Y-53190000D01*
X184827032Y-53212836D01*
X184784836Y-53255032D01*
X184762000Y-53310163D01*
X184670031Y-53310163D01*
X184262000Y-52902132D01*
X183824132Y-53340000D01*
X183762000Y-53340000D01*
X183762000Y-53310163D01*
X183739164Y-53255032D01*
X183696968Y-53212836D01*
X183641837Y-53190000D01*
X183582163Y-53190000D01*
X183527032Y-53212836D01*
X183484836Y-53255032D01*
X183462000Y-53310163D01*
X183370031Y-53310163D01*
X182962000Y-52902132D01*
X182524132Y-53340000D01*
X182462000Y-53340000D01*
X182462000Y-53310163D01*
X182439164Y-53255032D01*
X182396968Y-53212836D01*
X182341837Y-53190000D01*
X182282163Y-53190000D01*
X182227032Y-53212836D01*
X182184836Y-53255032D01*
X182162000Y-53310163D01*
X182070031Y-53310163D01*
X181662000Y-52902132D01*
X181224132Y-53340000D01*
X181162000Y-53340000D01*
X181162000Y-53310163D01*
X181139164Y-53255032D01*
X181096968Y-53212836D01*
X181041837Y-53190000D01*
X180982163Y-53190000D01*
X180927032Y-53212836D01*
X180884836Y-53255032D01*
X180862000Y-53310163D01*
X180770032Y-53310163D01*
X180350263Y-52890394D01*
X180303047Y-52961061D01*
X180242743Y-53106648D01*
X180242741Y-53106656D01*
X180212000Y-53261202D01*
X176014500Y-53261202D01*
X176014500Y-52690000D01*
X180574132Y-52690000D01*
X181012000Y-53127868D01*
X181449868Y-52690000D01*
X181874132Y-52690000D01*
X182312000Y-53127868D01*
X182749868Y-52690000D01*
X183174132Y-52690000D01*
X183612000Y-53127868D01*
X184049868Y-52690000D01*
X184474132Y-52690000D01*
X184912000Y-53127868D01*
X185330630Y-52709238D01*
X207567170Y-52709238D01*
X207567170Y-52854188D01*
X207604686Y-52994198D01*
X207604687Y-52994201D01*
X207677158Y-53119724D01*
X207677160Y-53119726D01*
X207677161Y-53119728D01*
X207779655Y-53222222D01*
X207779656Y-53222223D01*
X207779658Y-53222224D01*
X207905181Y-53294695D01*
X207905182Y-53294695D01*
X207905185Y-53294697D01*
X208045195Y-53332213D01*
X208045198Y-53332213D01*
X208190142Y-53332213D01*
X208190145Y-53332213D01*
X208330155Y-53294697D01*
X208455685Y-53222222D01*
X208558179Y-53119728D01*
X208630654Y-52994198D01*
X208668170Y-52854188D01*
X208668170Y-52709238D01*
X208630654Y-52569228D01*
X208565692Y-52456711D01*
X219637500Y-52456711D01*
X219637500Y-52699288D01*
X219669161Y-52939785D01*
X219731947Y-53174104D01*
X219813023Y-53369837D01*
X219824776Y-53398212D01*
X219946064Y-53608289D01*
X219946066Y-53608292D01*
X219946067Y-53608293D01*
X220093733Y-53800736D01*
X220093739Y-53800743D01*
X220265256Y-53972260D01*
X220265262Y-53972265D01*
X220457711Y-54119936D01*
X220667788Y-54241224D01*
X220891900Y-54334054D01*
X221126211Y-54396838D01*
X221306586Y-54420584D01*
X221366711Y-54428500D01*
X221366712Y-54428500D01*
X221609289Y-54428500D01*
X221657388Y-54422167D01*
X221849789Y-54396838D01*
X222084100Y-54334054D01*
X222308212Y-54241224D01*
X222518289Y-54119936D01*
X222710738Y-53972265D01*
X222882265Y-53800738D01*
X222899609Y-53778135D01*
X230776706Y-53778135D01*
X230905652Y-53831547D01*
X230905656Y-53831548D01*
X231060202Y-53862289D01*
X231060206Y-53862290D01*
X231217794Y-53862290D01*
X231217797Y-53862289D01*
X231372343Y-53831548D01*
X231372347Y-53831547D01*
X231501293Y-53778135D01*
X232076706Y-53778135D01*
X232205652Y-53831547D01*
X232205656Y-53831548D01*
X232360202Y-53862289D01*
X232360206Y-53862290D01*
X232517794Y-53862290D01*
X232517797Y-53862289D01*
X232672343Y-53831548D01*
X232672347Y-53831547D01*
X232801293Y-53778135D01*
X233376706Y-53778135D01*
X233505652Y-53831547D01*
X233505656Y-53831548D01*
X233660202Y-53862289D01*
X233660206Y-53862290D01*
X233817794Y-53862290D01*
X233817797Y-53862289D01*
X233972343Y-53831548D01*
X233972347Y-53831547D01*
X234101293Y-53778135D01*
X242461706Y-53778135D01*
X242590652Y-53831547D01*
X242590656Y-53831548D01*
X242745202Y-53862289D01*
X242745206Y-53862290D01*
X242902794Y-53862290D01*
X242902797Y-53862289D01*
X243057343Y-53831548D01*
X243057347Y-53831547D01*
X243186293Y-53778135D01*
X243761706Y-53778135D01*
X243890652Y-53831547D01*
X243890656Y-53831548D01*
X244045202Y-53862289D01*
X244045206Y-53862290D01*
X244202794Y-53862290D01*
X244202797Y-53862289D01*
X244357343Y-53831548D01*
X244357347Y-53831547D01*
X244486293Y-53778135D01*
X245061706Y-53778135D01*
X245190652Y-53831547D01*
X245190656Y-53831548D01*
X245345202Y-53862289D01*
X245345206Y-53862290D01*
X245502794Y-53862290D01*
X245502797Y-53862289D01*
X245657343Y-53831548D01*
X245657347Y-53831547D01*
X245786293Y-53778135D01*
X245424001Y-53415843D01*
X245424000Y-53415843D01*
X245061706Y-53778135D01*
X244486293Y-53778135D01*
X244124001Y-53415843D01*
X244124000Y-53415843D01*
X243761706Y-53778135D01*
X243186293Y-53778135D01*
X242824001Y-53415843D01*
X242824000Y-53415843D01*
X242461706Y-53778135D01*
X234101293Y-53778135D01*
X233739001Y-53415843D01*
X233739000Y-53415843D01*
X233376706Y-53778135D01*
X232801293Y-53778135D01*
X232439001Y-53415843D01*
X232439000Y-53415843D01*
X232076706Y-53778135D01*
X231501293Y-53778135D01*
X231139001Y-53415843D01*
X231139000Y-53415843D01*
X230776706Y-53778135D01*
X222899609Y-53778135D01*
X223029936Y-53608289D01*
X223151224Y-53398212D01*
X223244054Y-53174100D01*
X223295128Y-52983492D01*
X230339000Y-52983492D01*
X230339000Y-53141087D01*
X230369741Y-53295633D01*
X230369743Y-53295641D01*
X230423153Y-53424583D01*
X230785446Y-53062291D01*
X230785446Y-53062289D01*
X230755610Y-53032453D01*
X230989000Y-53032453D01*
X230989000Y-53092127D01*
X231011836Y-53147258D01*
X231054032Y-53189454D01*
X231109163Y-53212290D01*
X231168837Y-53212290D01*
X231223968Y-53189454D01*
X231266164Y-53147258D01*
X231289000Y-53092127D01*
X231289000Y-53062290D01*
X231492553Y-53062290D01*
X231789000Y-53358736D01*
X231789001Y-53358736D01*
X232085446Y-53062291D01*
X232085446Y-53062289D01*
X232055610Y-53032453D01*
X232289000Y-53032453D01*
X232289000Y-53092127D01*
X232311836Y-53147258D01*
X232354032Y-53189454D01*
X232409163Y-53212290D01*
X232468837Y-53212290D01*
X232523968Y-53189454D01*
X232566164Y-53147258D01*
X232589000Y-53092127D01*
X232589000Y-53062290D01*
X232792553Y-53062290D01*
X233089000Y-53358736D01*
X233089001Y-53358736D01*
X233385446Y-53062291D01*
X233385446Y-53062289D01*
X233355610Y-53032453D01*
X233589000Y-53032453D01*
X233589000Y-53092127D01*
X233611836Y-53147258D01*
X233654032Y-53189454D01*
X233709163Y-53212290D01*
X233768837Y-53212290D01*
X233823968Y-53189454D01*
X233866164Y-53147258D01*
X233889000Y-53092127D01*
X233889000Y-53062289D01*
X234092553Y-53062289D01*
X234092553Y-53062290D01*
X234454845Y-53424583D01*
X234508257Y-53295637D01*
X234508258Y-53295633D01*
X234538999Y-53141087D01*
X234539000Y-53141084D01*
X234539000Y-52983496D01*
X234538999Y-52983492D01*
X242024000Y-52983492D01*
X242024000Y-53141087D01*
X242054741Y-53295633D01*
X242054743Y-53295641D01*
X242108153Y-53424583D01*
X242470446Y-53062291D01*
X242470446Y-53062289D01*
X242440610Y-53032453D01*
X242674000Y-53032453D01*
X242674000Y-53092127D01*
X242696836Y-53147258D01*
X242739032Y-53189454D01*
X242794163Y-53212290D01*
X242853837Y-53212290D01*
X242908968Y-53189454D01*
X242951164Y-53147258D01*
X242974000Y-53092127D01*
X242974000Y-53062290D01*
X243177553Y-53062290D01*
X243474000Y-53358736D01*
X243474001Y-53358736D01*
X243770446Y-53062291D01*
X243770446Y-53062289D01*
X243740610Y-53032453D01*
X243974000Y-53032453D01*
X243974000Y-53092127D01*
X243996836Y-53147258D01*
X244039032Y-53189454D01*
X244094163Y-53212290D01*
X244153837Y-53212290D01*
X244208968Y-53189454D01*
X244251164Y-53147258D01*
X244274000Y-53092127D01*
X244274000Y-53062290D01*
X244477552Y-53062290D01*
X244774000Y-53358736D01*
X244774001Y-53358736D01*
X245070446Y-53062291D01*
X245070446Y-53062289D01*
X245040610Y-53032453D01*
X245274000Y-53032453D01*
X245274000Y-53092127D01*
X245296836Y-53147258D01*
X245339032Y-53189454D01*
X245394163Y-53212290D01*
X245453837Y-53212290D01*
X245508968Y-53189454D01*
X245551164Y-53147258D01*
X245574000Y-53092127D01*
X245574000Y-53062289D01*
X245777553Y-53062289D01*
X245777553Y-53062290D01*
X246139845Y-53424583D01*
X246193257Y-53295637D01*
X246193258Y-53295633D01*
X246223999Y-53141087D01*
X246224000Y-53141084D01*
X246224000Y-52983496D01*
X246223999Y-52983492D01*
X246193258Y-52828946D01*
X246193257Y-52828942D01*
X246139845Y-52699996D01*
X245777553Y-53062289D01*
X245574000Y-53062289D01*
X245574000Y-53032453D01*
X245551164Y-52977322D01*
X245508968Y-52935126D01*
X245453837Y-52912290D01*
X245394163Y-52912290D01*
X245339032Y-52935126D01*
X245296836Y-52977322D01*
X245274000Y-53032453D01*
X245040610Y-53032453D01*
X244774001Y-52765843D01*
X244774000Y-52765843D01*
X244477552Y-53062290D01*
X244274000Y-53062290D01*
X244274000Y-53032453D01*
X244251164Y-52977322D01*
X244208968Y-52935126D01*
X244153837Y-52912290D01*
X244094163Y-52912290D01*
X244039032Y-52935126D01*
X243996836Y-52977322D01*
X243974000Y-53032453D01*
X243740610Y-53032453D01*
X243474001Y-52765843D01*
X243474000Y-52765843D01*
X243177553Y-53062290D01*
X242974000Y-53062290D01*
X242974000Y-53032453D01*
X242951164Y-52977322D01*
X242908968Y-52935126D01*
X242853837Y-52912290D01*
X242794163Y-52912290D01*
X242739032Y-52935126D01*
X242696836Y-52977322D01*
X242674000Y-53032453D01*
X242440610Y-53032453D01*
X242108153Y-52699995D01*
X242054743Y-52828938D01*
X242054741Y-52828946D01*
X242024000Y-52983492D01*
X234538999Y-52983492D01*
X234508258Y-52828946D01*
X234508257Y-52828942D01*
X234454845Y-52699996D01*
X234092553Y-53062289D01*
X233889000Y-53062289D01*
X233889000Y-53032453D01*
X233866164Y-52977322D01*
X233823968Y-52935126D01*
X233768837Y-52912290D01*
X233709163Y-52912290D01*
X233654032Y-52935126D01*
X233611836Y-52977322D01*
X233589000Y-53032453D01*
X233355610Y-53032453D01*
X233089001Y-52765843D01*
X233089000Y-52765843D01*
X232792553Y-53062290D01*
X232589000Y-53062290D01*
X232589000Y-53032453D01*
X232566164Y-52977322D01*
X232523968Y-52935126D01*
X232468837Y-52912290D01*
X232409163Y-52912290D01*
X232354032Y-52935126D01*
X232311836Y-52977322D01*
X232289000Y-53032453D01*
X232055610Y-53032453D01*
X231789001Y-52765843D01*
X231789000Y-52765843D01*
X231492553Y-53062290D01*
X231289000Y-53062290D01*
X231289000Y-53032453D01*
X231266164Y-52977322D01*
X231223968Y-52935126D01*
X231168837Y-52912290D01*
X231109163Y-52912290D01*
X231054032Y-52935126D01*
X231011836Y-52977322D01*
X230989000Y-53032453D01*
X230755610Y-53032453D01*
X230423153Y-52699995D01*
X230369743Y-52828938D01*
X230369741Y-52828946D01*
X230339000Y-52983492D01*
X223295128Y-52983492D01*
X223306838Y-52939789D01*
X223338500Y-52699288D01*
X223338500Y-52456712D01*
X223332652Y-52412290D01*
X230842552Y-52412290D01*
X231139000Y-52708736D01*
X231139001Y-52708736D01*
X231435446Y-52412291D01*
X231435446Y-52412290D01*
X232142553Y-52412290D01*
X232439000Y-52708736D01*
X232439001Y-52708736D01*
X232735446Y-52412291D01*
X232735446Y-52412290D01*
X233442553Y-52412290D01*
X233739000Y-52708736D01*
X233739001Y-52708736D01*
X234035446Y-52412291D01*
X234035446Y-52412290D01*
X242527553Y-52412290D01*
X242824000Y-52708736D01*
X242824001Y-52708736D01*
X243120446Y-52412291D01*
X243120446Y-52412290D01*
X243827553Y-52412290D01*
X244124000Y-52708736D01*
X244124001Y-52708736D01*
X244420446Y-52412291D01*
X244420446Y-52412290D01*
X245127552Y-52412290D01*
X245424000Y-52708736D01*
X245424001Y-52708736D01*
X245720446Y-52412291D01*
X245720446Y-52412289D01*
X245424001Y-52115843D01*
X245424000Y-52115843D01*
X245127552Y-52412290D01*
X244420446Y-52412290D01*
X244420446Y-52412289D01*
X244124001Y-52115843D01*
X244124000Y-52115843D01*
X243827553Y-52412290D01*
X243120446Y-52412290D01*
X243120446Y-52412289D01*
X242824001Y-52115843D01*
X242824000Y-52115843D01*
X242527553Y-52412290D01*
X234035446Y-52412290D01*
X234035446Y-52412289D01*
X233739001Y-52115843D01*
X233739000Y-52115843D01*
X233442553Y-52412290D01*
X232735446Y-52412290D01*
X232735446Y-52412289D01*
X232439001Y-52115843D01*
X232439000Y-52115843D01*
X232142553Y-52412290D01*
X231435446Y-52412290D01*
X231435446Y-52412289D01*
X231139001Y-52115843D01*
X231139000Y-52115843D01*
X230842552Y-52412290D01*
X223332652Y-52412290D01*
X223306838Y-52216211D01*
X223244054Y-51981900D01*
X223151224Y-51757788D01*
X223108329Y-51683492D01*
X230339000Y-51683492D01*
X230339000Y-51841087D01*
X230369741Y-51995633D01*
X230369743Y-51995641D01*
X230423153Y-52124583D01*
X230785446Y-51762291D01*
X230785446Y-51762289D01*
X230755610Y-51732453D01*
X230989000Y-51732453D01*
X230989000Y-51792127D01*
X231011836Y-51847258D01*
X231054032Y-51889454D01*
X231109163Y-51912290D01*
X231168837Y-51912290D01*
X231223968Y-51889454D01*
X231266164Y-51847258D01*
X231289000Y-51792127D01*
X231289000Y-51762290D01*
X231492553Y-51762290D01*
X231789000Y-52058736D01*
X231789001Y-52058736D01*
X232085446Y-51762291D01*
X232085446Y-51762289D01*
X232055610Y-51732453D01*
X232289000Y-51732453D01*
X232289000Y-51792127D01*
X232311836Y-51847258D01*
X232354032Y-51889454D01*
X232409163Y-51912290D01*
X232468837Y-51912290D01*
X232523968Y-51889454D01*
X232566164Y-51847258D01*
X232589000Y-51792127D01*
X232589000Y-51762290D01*
X232792553Y-51762290D01*
X233089000Y-52058736D01*
X233089001Y-52058736D01*
X233385446Y-51762291D01*
X233385446Y-51762289D01*
X233355610Y-51732453D01*
X233589000Y-51732453D01*
X233589000Y-51792127D01*
X233611836Y-51847258D01*
X233654032Y-51889454D01*
X233709163Y-51912290D01*
X233768837Y-51912290D01*
X233823968Y-51889454D01*
X233866164Y-51847258D01*
X233889000Y-51792127D01*
X233889000Y-51762289D01*
X234092553Y-51762289D01*
X234092553Y-51762290D01*
X234454845Y-52124583D01*
X234508257Y-51995637D01*
X234508258Y-51995633D01*
X234538999Y-51841087D01*
X234539000Y-51841084D01*
X234539000Y-51683496D01*
X234538999Y-51683492D01*
X242024000Y-51683492D01*
X242024000Y-51841087D01*
X242054741Y-51995633D01*
X242054743Y-51995641D01*
X242108153Y-52124583D01*
X242470446Y-51762291D01*
X242470446Y-51762289D01*
X242440610Y-51732453D01*
X242674000Y-51732453D01*
X242674000Y-51792127D01*
X242696836Y-51847258D01*
X242739032Y-51889454D01*
X242794163Y-51912290D01*
X242853837Y-51912290D01*
X242908968Y-51889454D01*
X242951164Y-51847258D01*
X242974000Y-51792127D01*
X242974000Y-51762290D01*
X243177553Y-51762290D01*
X243474000Y-52058736D01*
X243474001Y-52058736D01*
X243770446Y-51762291D01*
X243770446Y-51762289D01*
X243740610Y-51732453D01*
X243974000Y-51732453D01*
X243974000Y-51792127D01*
X243996836Y-51847258D01*
X244039032Y-51889454D01*
X244094163Y-51912290D01*
X244153837Y-51912290D01*
X244208968Y-51889454D01*
X244251164Y-51847258D01*
X244274000Y-51792127D01*
X244274000Y-51762290D01*
X244477553Y-51762290D01*
X244774000Y-52058736D01*
X244774001Y-52058736D01*
X245070446Y-51762291D01*
X245070446Y-51762289D01*
X245040610Y-51732453D01*
X245274000Y-51732453D01*
X245274000Y-51792127D01*
X245296836Y-51847258D01*
X245339032Y-51889454D01*
X245394163Y-51912290D01*
X245453837Y-51912290D01*
X245508968Y-51889454D01*
X245551164Y-51847258D01*
X245574000Y-51792127D01*
X245574000Y-51762289D01*
X245777553Y-51762289D01*
X245777553Y-51762290D01*
X246139845Y-52124583D01*
X246193257Y-51995637D01*
X246193258Y-51995633D01*
X246223999Y-51841087D01*
X246224000Y-51841084D01*
X246224000Y-51683496D01*
X246223999Y-51683492D01*
X246193258Y-51528946D01*
X246193257Y-51528942D01*
X246139845Y-51399996D01*
X245777553Y-51762289D01*
X245574000Y-51762289D01*
X245574000Y-51732453D01*
X245551164Y-51677322D01*
X245508968Y-51635126D01*
X245453837Y-51612290D01*
X245394163Y-51612290D01*
X245339032Y-51635126D01*
X245296836Y-51677322D01*
X245274000Y-51732453D01*
X245040610Y-51732453D01*
X244774001Y-51465843D01*
X244774000Y-51465843D01*
X244477553Y-51762290D01*
X244274000Y-51762290D01*
X244274000Y-51732453D01*
X244251164Y-51677322D01*
X244208968Y-51635126D01*
X244153837Y-51612290D01*
X244094163Y-51612290D01*
X244039032Y-51635126D01*
X243996836Y-51677322D01*
X243974000Y-51732453D01*
X243740610Y-51732453D01*
X243474001Y-51465843D01*
X243474000Y-51465843D01*
X243177553Y-51762290D01*
X242974000Y-51762290D01*
X242974000Y-51732453D01*
X242951164Y-51677322D01*
X242908968Y-51635126D01*
X242853837Y-51612290D01*
X242794163Y-51612290D01*
X242739032Y-51635126D01*
X242696836Y-51677322D01*
X242674000Y-51732453D01*
X242440610Y-51732453D01*
X242108153Y-51399995D01*
X242054743Y-51528938D01*
X242054741Y-51528946D01*
X242024000Y-51683492D01*
X234538999Y-51683492D01*
X234508258Y-51528946D01*
X234508257Y-51528942D01*
X234454845Y-51399996D01*
X234092553Y-51762289D01*
X233889000Y-51762289D01*
X233889000Y-51732453D01*
X233866164Y-51677322D01*
X233823968Y-51635126D01*
X233768837Y-51612290D01*
X233709163Y-51612290D01*
X233654032Y-51635126D01*
X233611836Y-51677322D01*
X233589000Y-51732453D01*
X233355610Y-51732453D01*
X233089001Y-51465843D01*
X233089000Y-51465843D01*
X232792553Y-51762290D01*
X232589000Y-51762290D01*
X232589000Y-51732453D01*
X232566164Y-51677322D01*
X232523968Y-51635126D01*
X232468837Y-51612290D01*
X232409163Y-51612290D01*
X232354032Y-51635126D01*
X232311836Y-51677322D01*
X232289000Y-51732453D01*
X232055610Y-51732453D01*
X231789001Y-51465843D01*
X231789000Y-51465843D01*
X231492553Y-51762290D01*
X231289000Y-51762290D01*
X231289000Y-51732453D01*
X231266164Y-51677322D01*
X231223968Y-51635126D01*
X231168837Y-51612290D01*
X231109163Y-51612290D01*
X231054032Y-51635126D01*
X231011836Y-51677322D01*
X230989000Y-51732453D01*
X230755610Y-51732453D01*
X230423153Y-51399995D01*
X230369743Y-51528938D01*
X230369741Y-51528946D01*
X230339000Y-51683492D01*
X223108329Y-51683492D01*
X223029936Y-51547711D01*
X222882265Y-51355262D01*
X222882260Y-51355256D01*
X222710743Y-51183739D01*
X222710733Y-51183730D01*
X222531815Y-51046443D01*
X230776705Y-51046443D01*
X231139000Y-51408736D01*
X231139001Y-51408736D01*
X231501293Y-51046443D01*
X232076705Y-51046443D01*
X232439000Y-51408736D01*
X232439001Y-51408736D01*
X232801293Y-51046443D01*
X233376705Y-51046443D01*
X233739000Y-51408736D01*
X233739001Y-51408736D01*
X234101293Y-51046443D01*
X242461705Y-51046443D01*
X242824000Y-51408736D01*
X242824001Y-51408736D01*
X243186293Y-51046443D01*
X243761705Y-51046443D01*
X244124000Y-51408736D01*
X244124001Y-51408736D01*
X244486293Y-51046443D01*
X245061705Y-51046443D01*
X245424000Y-51408736D01*
X245424001Y-51408736D01*
X245786293Y-51046443D01*
X245657351Y-50993033D01*
X245657343Y-50993031D01*
X245502797Y-50962290D01*
X245345202Y-50962290D01*
X245190656Y-50993031D01*
X245190648Y-50993033D01*
X245061705Y-51046443D01*
X244486293Y-51046443D01*
X244357351Y-50993033D01*
X244357343Y-50993031D01*
X244202797Y-50962290D01*
X244045202Y-50962290D01*
X243890656Y-50993031D01*
X243890648Y-50993033D01*
X243761705Y-51046443D01*
X243186293Y-51046443D01*
X243057351Y-50993033D01*
X243057343Y-50993031D01*
X242902797Y-50962290D01*
X242745202Y-50962290D01*
X242590656Y-50993031D01*
X242590648Y-50993033D01*
X242461705Y-51046443D01*
X234101293Y-51046443D01*
X233972351Y-50993033D01*
X233972343Y-50993031D01*
X233817797Y-50962290D01*
X233660202Y-50962290D01*
X233505656Y-50993031D01*
X233505648Y-50993033D01*
X233376705Y-51046443D01*
X232801293Y-51046443D01*
X232672351Y-50993033D01*
X232672343Y-50993031D01*
X232517797Y-50962290D01*
X232360202Y-50962290D01*
X232205656Y-50993031D01*
X232205648Y-50993033D01*
X232076705Y-51046443D01*
X231501293Y-51046443D01*
X231372351Y-50993033D01*
X231372343Y-50993031D01*
X231217797Y-50962290D01*
X231060202Y-50962290D01*
X230905656Y-50993031D01*
X230905648Y-50993033D01*
X230776705Y-51046443D01*
X222531815Y-51046443D01*
X222518293Y-51036067D01*
X222518292Y-51036066D01*
X222518289Y-51036064D01*
X222308212Y-50914776D01*
X222308205Y-50914773D01*
X222084104Y-50821947D01*
X221849785Y-50759161D01*
X221609289Y-50727500D01*
X221609288Y-50727500D01*
X221366712Y-50727500D01*
X221366711Y-50727500D01*
X221126214Y-50759161D01*
X220891895Y-50821947D01*
X220667794Y-50914773D01*
X220667785Y-50914777D01*
X220457706Y-51036067D01*
X220265263Y-51183733D01*
X220265256Y-51183739D01*
X220093739Y-51355256D01*
X220093733Y-51355263D01*
X219946067Y-51547706D01*
X219824777Y-51757785D01*
X219824773Y-51757794D01*
X219731947Y-51981895D01*
X219669161Y-52216214D01*
X219637500Y-52456711D01*
X208565692Y-52456711D01*
X208558179Y-52443698D01*
X208455685Y-52341204D01*
X208455683Y-52341203D01*
X208455681Y-52341201D01*
X208330158Y-52268730D01*
X208330159Y-52268730D01*
X208318676Y-52265653D01*
X208190145Y-52231213D01*
X208045195Y-52231213D01*
X207916663Y-52265653D01*
X207905181Y-52268730D01*
X207779658Y-52341201D01*
X207779652Y-52341206D01*
X207677163Y-52443695D01*
X207677158Y-52443701D01*
X207604687Y-52569224D01*
X207604686Y-52569228D01*
X207567170Y-52709238D01*
X185330630Y-52709238D01*
X185349868Y-52690000D01*
X184912000Y-52252132D01*
X184474132Y-52690000D01*
X184049868Y-52690000D01*
X183612000Y-52252132D01*
X183174132Y-52690000D01*
X182749868Y-52690000D01*
X182312000Y-52252132D01*
X181874132Y-52690000D01*
X181449868Y-52690000D01*
X181012000Y-52252132D01*
X180574132Y-52690000D01*
X176014500Y-52690000D01*
X176014500Y-51961202D01*
X180212000Y-51961202D01*
X180212000Y-52118797D01*
X180242741Y-52273343D01*
X180242743Y-52273351D01*
X180303048Y-52418940D01*
X180350263Y-52489603D01*
X180350264Y-52489604D01*
X180799868Y-52040000D01*
X180799868Y-52039999D01*
X180770032Y-52010163D01*
X180862000Y-52010163D01*
X180862000Y-52069837D01*
X180884836Y-52124968D01*
X180927032Y-52167164D01*
X180982163Y-52190000D01*
X181041837Y-52190000D01*
X181096968Y-52167164D01*
X181139164Y-52124968D01*
X181162000Y-52069837D01*
X181162000Y-52040000D01*
X181224132Y-52040000D01*
X181662000Y-52477868D01*
X182099868Y-52040000D01*
X182070031Y-52010163D01*
X182162000Y-52010163D01*
X182162000Y-52069837D01*
X182184836Y-52124968D01*
X182227032Y-52167164D01*
X182282163Y-52190000D01*
X182341837Y-52190000D01*
X182396968Y-52167164D01*
X182439164Y-52124968D01*
X182462000Y-52069837D01*
X182462000Y-52040000D01*
X182524132Y-52040000D01*
X182962000Y-52477868D01*
X183399868Y-52040000D01*
X183370031Y-52010163D01*
X183462000Y-52010163D01*
X183462000Y-52069837D01*
X183484836Y-52124968D01*
X183527032Y-52167164D01*
X183582163Y-52190000D01*
X183641837Y-52190000D01*
X183696968Y-52167164D01*
X183739164Y-52124968D01*
X183762000Y-52069837D01*
X183762000Y-52040000D01*
X183824132Y-52040000D01*
X184262000Y-52477868D01*
X184699868Y-52040000D01*
X184670031Y-52010163D01*
X184762000Y-52010163D01*
X184762000Y-52069837D01*
X184784836Y-52124968D01*
X184827032Y-52167164D01*
X184882163Y-52190000D01*
X184941837Y-52190000D01*
X184996968Y-52167164D01*
X185039164Y-52124968D01*
X185062000Y-52069837D01*
X185062000Y-52039999D01*
X185124132Y-52039999D01*
X185124132Y-52040000D01*
X185573735Y-52489603D01*
X185620950Y-52418942D01*
X185620952Y-52418939D01*
X185681256Y-52273351D01*
X185681258Y-52273343D01*
X185711999Y-52118797D01*
X185712000Y-52118794D01*
X185712000Y-51961206D01*
X185711999Y-51961202D01*
X185681258Y-51806656D01*
X185681256Y-51806648D01*
X185620951Y-51661059D01*
X185573735Y-51590395D01*
X185124132Y-52039999D01*
X185062000Y-52039999D01*
X185062000Y-52010163D01*
X185039164Y-51955032D01*
X184996968Y-51912836D01*
X184941837Y-51890000D01*
X184882163Y-51890000D01*
X184827032Y-51912836D01*
X184784836Y-51955032D01*
X184762000Y-52010163D01*
X184670031Y-52010163D01*
X184262000Y-51602132D01*
X183824132Y-52040000D01*
X183762000Y-52040000D01*
X183762000Y-52010163D01*
X183739164Y-51955032D01*
X183696968Y-51912836D01*
X183641837Y-51890000D01*
X183582163Y-51890000D01*
X183527032Y-51912836D01*
X183484836Y-51955032D01*
X183462000Y-52010163D01*
X183370031Y-52010163D01*
X182962000Y-51602132D01*
X182524132Y-52040000D01*
X182462000Y-52040000D01*
X182462000Y-52010163D01*
X182439164Y-51955032D01*
X182396968Y-51912836D01*
X182341837Y-51890000D01*
X182282163Y-51890000D01*
X182227032Y-51912836D01*
X182184836Y-51955032D01*
X182162000Y-52010163D01*
X182070031Y-52010163D01*
X181662000Y-51602132D01*
X181224132Y-52040000D01*
X181162000Y-52040000D01*
X181162000Y-52010163D01*
X181139164Y-51955032D01*
X181096968Y-51912836D01*
X181041837Y-51890000D01*
X180982163Y-51890000D01*
X180927032Y-51912836D01*
X180884836Y-51955032D01*
X180862000Y-52010163D01*
X180770032Y-52010163D01*
X180350263Y-51590394D01*
X180303047Y-51661061D01*
X180242743Y-51806648D01*
X180242741Y-51806656D01*
X180212000Y-51961202D01*
X176014500Y-51961202D01*
X176014500Y-51378263D01*
X180562394Y-51378263D01*
X181012000Y-51827868D01*
X181012001Y-51827868D01*
X181461604Y-51378264D01*
X181461603Y-51378263D01*
X181862394Y-51378263D01*
X182312000Y-51827868D01*
X182312001Y-51827868D01*
X182761604Y-51378264D01*
X182761603Y-51378263D01*
X183162394Y-51378263D01*
X183612000Y-51827868D01*
X183612001Y-51827868D01*
X184061604Y-51378264D01*
X184061603Y-51378263D01*
X184462394Y-51378263D01*
X184912000Y-51827868D01*
X184912001Y-51827868D01*
X185361604Y-51378264D01*
X185361603Y-51378263D01*
X185290940Y-51331048D01*
X185145351Y-51270743D01*
X185145343Y-51270741D01*
X184990797Y-51240000D01*
X184833202Y-51240000D01*
X184678656Y-51270741D01*
X184678648Y-51270743D01*
X184533061Y-51331047D01*
X184462394Y-51378263D01*
X184061603Y-51378263D01*
X183990940Y-51331048D01*
X183845351Y-51270743D01*
X183845343Y-51270741D01*
X183690797Y-51240000D01*
X183533202Y-51240000D01*
X183378656Y-51270741D01*
X183378648Y-51270743D01*
X183233061Y-51331047D01*
X183162394Y-51378263D01*
X182761603Y-51378263D01*
X182690940Y-51331048D01*
X182545351Y-51270743D01*
X182545343Y-51270741D01*
X182390797Y-51240000D01*
X182233202Y-51240000D01*
X182078656Y-51270741D01*
X182078648Y-51270743D01*
X181933061Y-51331047D01*
X181862394Y-51378263D01*
X181461603Y-51378263D01*
X181390940Y-51331048D01*
X181245351Y-51270743D01*
X181245343Y-51270741D01*
X181090797Y-51240000D01*
X180933202Y-51240000D01*
X180778656Y-51270741D01*
X180778648Y-51270743D01*
X180633061Y-51331047D01*
X180562394Y-51378263D01*
X176014500Y-51378263D01*
X176014500Y-50509232D01*
X193209067Y-50509232D01*
X193209067Y-50654182D01*
X193237197Y-50759162D01*
X193246584Y-50794195D01*
X193319055Y-50919718D01*
X193319057Y-50919720D01*
X193319058Y-50919722D01*
X193421552Y-51022216D01*
X193421553Y-51022217D01*
X193421555Y-51022218D01*
X193547078Y-51094689D01*
X193547079Y-51094689D01*
X193547082Y-51094691D01*
X193687092Y-51132207D01*
X193687095Y-51132207D01*
X193832039Y-51132207D01*
X193832042Y-51132207D01*
X193972052Y-51094691D01*
X194097582Y-51022216D01*
X194200076Y-50919722D01*
X194272551Y-50794192D01*
X194310067Y-50654182D01*
X194310067Y-50509232D01*
X194305218Y-50491135D01*
X262970500Y-50491135D01*
X262970500Y-52686870D01*
X262970501Y-52686876D01*
X262976908Y-52746483D01*
X263027202Y-52881328D01*
X263027206Y-52881335D01*
X263113452Y-52996544D01*
X263113455Y-52996547D01*
X263228664Y-53082793D01*
X263228671Y-53082797D01*
X263363517Y-53133091D01*
X263363516Y-53133091D01*
X263370444Y-53133835D01*
X263423127Y-53139500D01*
X265618872Y-53139499D01*
X265678483Y-53133091D01*
X265813331Y-53082796D01*
X265928546Y-52996546D01*
X266014796Y-52881331D01*
X266065091Y-52746483D01*
X266071500Y-52686873D01*
X266071499Y-50491128D01*
X266065091Y-50431517D01*
X266041856Y-50369222D01*
X266014797Y-50296671D01*
X266014793Y-50296664D01*
X265928547Y-50181455D01*
X265928544Y-50181452D01*
X265813335Y-50095206D01*
X265813328Y-50095202D01*
X265678482Y-50044908D01*
X265678483Y-50044908D01*
X265618883Y-50038501D01*
X265618881Y-50038500D01*
X265618873Y-50038500D01*
X265618864Y-50038500D01*
X263423129Y-50038500D01*
X263423123Y-50038501D01*
X263363516Y-50044908D01*
X263228671Y-50095202D01*
X263228664Y-50095206D01*
X263113455Y-50181452D01*
X263113452Y-50181455D01*
X263027206Y-50296664D01*
X263027202Y-50296671D01*
X262976908Y-50431517D01*
X262970501Y-50491116D01*
X262970501Y-50491123D01*
X262970500Y-50491135D01*
X194305218Y-50491135D01*
X194272551Y-50369222D01*
X194230662Y-50296669D01*
X194200078Y-50243695D01*
X194200073Y-50243689D01*
X194097584Y-50141200D01*
X194097578Y-50141195D01*
X193972055Y-50068724D01*
X193972056Y-50068724D01*
X193960573Y-50065647D01*
X193832042Y-50031207D01*
X193687092Y-50031207D01*
X193558560Y-50065647D01*
X193547078Y-50068724D01*
X193421555Y-50141195D01*
X193421549Y-50141200D01*
X193319060Y-50243689D01*
X193319055Y-50243695D01*
X193246584Y-50369218D01*
X193246583Y-50369222D01*
X193209067Y-50509232D01*
X176014500Y-50509232D01*
X176014500Y-48531237D01*
X188026598Y-48531237D01*
X188026598Y-48676187D01*
X188064114Y-48816197D01*
X188064115Y-48816200D01*
X188136586Y-48941723D01*
X188136588Y-48941725D01*
X188136589Y-48941727D01*
X188239083Y-49044221D01*
X188239084Y-49044222D01*
X188239086Y-49044223D01*
X188364609Y-49116694D01*
X188364610Y-49116694D01*
X188364613Y-49116696D01*
X188504623Y-49154212D01*
X188504626Y-49154212D01*
X188649570Y-49154212D01*
X188649573Y-49154212D01*
X188789583Y-49116696D01*
X188915113Y-49044221D01*
X189017607Y-48941727D01*
X189090082Y-48816197D01*
X189127598Y-48676187D01*
X189127598Y-48531237D01*
X189090082Y-48391227D01*
X189017607Y-48265697D01*
X188915113Y-48163203D01*
X188915111Y-48163202D01*
X188915109Y-48163200D01*
X188789586Y-48090729D01*
X188789587Y-48090729D01*
X188778104Y-48087652D01*
X188649573Y-48053212D01*
X188504623Y-48053212D01*
X188376091Y-48087652D01*
X188364609Y-48090729D01*
X188239086Y-48163200D01*
X188239080Y-48163205D01*
X188136591Y-48265694D01*
X188136586Y-48265700D01*
X188064115Y-48391223D01*
X188064114Y-48391227D01*
X188026598Y-48531237D01*
X176014500Y-48531237D01*
X176014500Y-46887525D01*
X250939500Y-46887525D01*
X250939500Y-47032475D01*
X250977016Y-47172485D01*
X250977017Y-47172488D01*
X251049488Y-47298011D01*
X251049490Y-47298013D01*
X251049491Y-47298015D01*
X251151985Y-47400509D01*
X251151986Y-47400510D01*
X251151988Y-47400511D01*
X251277511Y-47472982D01*
X251277512Y-47472982D01*
X251277515Y-47472984D01*
X251417525Y-47510500D01*
X251417528Y-47510500D01*
X251562472Y-47510500D01*
X251562475Y-47510500D01*
X251702485Y-47472984D01*
X251828015Y-47400509D01*
X251930509Y-47298015D01*
X252002984Y-47172485D01*
X252040500Y-47032475D01*
X252040500Y-46887525D01*
X252002984Y-46747515D01*
X251998048Y-46738966D01*
X251930511Y-46621988D01*
X251930506Y-46621982D01*
X251828017Y-46519493D01*
X251828011Y-46519488D01*
X251702488Y-46447017D01*
X251702489Y-46447017D01*
X251691006Y-46443940D01*
X251562475Y-46409500D01*
X251417525Y-46409500D01*
X251288993Y-46443940D01*
X251277511Y-46447017D01*
X251151988Y-46519488D01*
X251151982Y-46519493D01*
X251049493Y-46621982D01*
X251049488Y-46621988D01*
X250977017Y-46747511D01*
X250977016Y-46747515D01*
X250939500Y-46887525D01*
X176014500Y-46887525D01*
X176014500Y-45644648D01*
X263220500Y-45644648D01*
X263220500Y-45849351D01*
X263252522Y-46051534D01*
X263315781Y-46246223D01*
X263408715Y-46428613D01*
X263529028Y-46594213D01*
X263673786Y-46738971D01*
X263828749Y-46851556D01*
X263839390Y-46859287D01*
X263955607Y-46918503D01*
X264021776Y-46952218D01*
X264021778Y-46952218D01*
X264021781Y-46952220D01*
X264126137Y-46986127D01*
X264216465Y-47015477D01*
X264317557Y-47031488D01*
X264418648Y-47047500D01*
X264418649Y-47047500D01*
X264623351Y-47047500D01*
X264623352Y-47047500D01*
X264825534Y-47015477D01*
X265020219Y-46952220D01*
X265202610Y-46859287D01*
X265295590Y-46791732D01*
X265368213Y-46738971D01*
X265368215Y-46738968D01*
X265368219Y-46738966D01*
X265512966Y-46594219D01*
X265512968Y-46594215D01*
X265512971Y-46594213D01*
X265567261Y-46519488D01*
X265633287Y-46428610D01*
X265726220Y-46246219D01*
X265789477Y-46051534D01*
X265821500Y-45849352D01*
X265821500Y-45644648D01*
X265789477Y-45442466D01*
X265726220Y-45247781D01*
X265726218Y-45247778D01*
X265726218Y-45247776D01*
X265692503Y-45181607D01*
X265633287Y-45065390D01*
X265625556Y-45054749D01*
X265512971Y-44899786D01*
X265368213Y-44755028D01*
X265202613Y-44634715D01*
X265202612Y-44634714D01*
X265202610Y-44634713D01*
X265145653Y-44605691D01*
X265020223Y-44541781D01*
X264825534Y-44478522D01*
X264650995Y-44450878D01*
X264623352Y-44446500D01*
X264418648Y-44446500D01*
X264394329Y-44450351D01*
X264216465Y-44478522D01*
X264021776Y-44541781D01*
X263839386Y-44634715D01*
X263673786Y-44755028D01*
X263529028Y-44899786D01*
X263408715Y-45065386D01*
X263315781Y-45247776D01*
X263252522Y-45442465D01*
X263220500Y-45644648D01*
X176014500Y-45644648D01*
X176014500Y-37599052D01*
X185831500Y-37599052D01*
X185831500Y-39520948D01*
X185834376Y-39569226D01*
X185834376Y-39569230D01*
X185834377Y-39569231D01*
X185880063Y-39779249D01*
X185880066Y-39779260D01*
X185964677Y-39976845D01*
X186085151Y-40154848D01*
X186085159Y-40154857D01*
X186237142Y-40306840D01*
X186237151Y-40306848D01*
X186354839Y-40386500D01*
X186415152Y-40427321D01*
X186612741Y-40511934D01*
X186822774Y-40557624D01*
X186871052Y-40560500D01*
X186871064Y-40560500D01*
X188792936Y-40560500D01*
X188792948Y-40560500D01*
X188841226Y-40557624D01*
X189051259Y-40511934D01*
X189248848Y-40427321D01*
X189426855Y-40306843D01*
X189578843Y-40154855D01*
X189699321Y-39976848D01*
X189783934Y-39779259D01*
X189787659Y-39762135D01*
X190281500Y-39762135D01*
X190281500Y-43357870D01*
X190281501Y-43357876D01*
X190287908Y-43417483D01*
X190338202Y-43552328D01*
X190338206Y-43552335D01*
X190424452Y-43667544D01*
X190424455Y-43667547D01*
X190539664Y-43753793D01*
X190539671Y-43753797D01*
X190674517Y-43804091D01*
X190674516Y-43804091D01*
X190681444Y-43804835D01*
X190734127Y-43810500D01*
X194329872Y-43810499D01*
X194389483Y-43804091D01*
X194524331Y-43753796D01*
X194639546Y-43667546D01*
X194725796Y-43552331D01*
X194776091Y-43417483D01*
X194782500Y-43357873D01*
X194782499Y-40839135D01*
X262970500Y-40839135D01*
X262970500Y-43034870D01*
X262970501Y-43034876D01*
X262976908Y-43094483D01*
X263027202Y-43229328D01*
X263027206Y-43229335D01*
X263113452Y-43344544D01*
X263113455Y-43344547D01*
X263228664Y-43430793D01*
X263228671Y-43430797D01*
X263363517Y-43481091D01*
X263363516Y-43481091D01*
X263370444Y-43481835D01*
X263423127Y-43487500D01*
X265618872Y-43487499D01*
X265678483Y-43481091D01*
X265813331Y-43430796D01*
X265928546Y-43344546D01*
X266014796Y-43229331D01*
X266065091Y-43094483D01*
X266071500Y-43034873D01*
X266071499Y-40839128D01*
X266065091Y-40779517D01*
X266014796Y-40644669D01*
X266014795Y-40644668D01*
X266014793Y-40644664D01*
X265928547Y-40529455D01*
X265928544Y-40529452D01*
X265813335Y-40443206D01*
X265813328Y-40443202D01*
X265678482Y-40392908D01*
X265678483Y-40392908D01*
X265618883Y-40386501D01*
X265618881Y-40386500D01*
X265618873Y-40386500D01*
X265618864Y-40386500D01*
X263423129Y-40386500D01*
X263423123Y-40386501D01*
X263363516Y-40392908D01*
X263228671Y-40443202D01*
X263228664Y-40443206D01*
X263113455Y-40529452D01*
X263113452Y-40529455D01*
X263027206Y-40644664D01*
X263027202Y-40644671D01*
X262976908Y-40779517D01*
X262970501Y-40839116D01*
X262970501Y-40839123D01*
X262970500Y-40839135D01*
X194782499Y-40839135D01*
X194782499Y-39762128D01*
X194776091Y-39702517D01*
X194725796Y-39567669D01*
X194725795Y-39567668D01*
X194725793Y-39567664D01*
X194639547Y-39452455D01*
X194639544Y-39452452D01*
X194524335Y-39366206D01*
X194524328Y-39366202D01*
X194389482Y-39315908D01*
X194389483Y-39315908D01*
X194329883Y-39309501D01*
X194329881Y-39309500D01*
X194329873Y-39309500D01*
X194329864Y-39309500D01*
X190734129Y-39309500D01*
X190734123Y-39309501D01*
X190674516Y-39315908D01*
X190539671Y-39366202D01*
X190539664Y-39366206D01*
X190424455Y-39452452D01*
X190424452Y-39452455D01*
X190338206Y-39567664D01*
X190338202Y-39567671D01*
X190287908Y-39702517D01*
X190281501Y-39762116D01*
X190281501Y-39762123D01*
X190281500Y-39762135D01*
X189787659Y-39762135D01*
X189794118Y-39732447D01*
X189794118Y-39732446D01*
X189805473Y-39680244D01*
X189829624Y-39569226D01*
X189832500Y-39520948D01*
X189832500Y-38789525D01*
X220175500Y-38789525D01*
X220175500Y-38934475D01*
X220213016Y-39074485D01*
X220213017Y-39074488D01*
X220285488Y-39200011D01*
X220285490Y-39200013D01*
X220285491Y-39200015D01*
X220387985Y-39302509D01*
X220387986Y-39302510D01*
X220387988Y-39302511D01*
X220513511Y-39374982D01*
X220513512Y-39374982D01*
X220513515Y-39374984D01*
X220653525Y-39412500D01*
X220653528Y-39412500D01*
X220798472Y-39412500D01*
X220798475Y-39412500D01*
X220938485Y-39374984D01*
X221064015Y-39302509D01*
X221166509Y-39200015D01*
X221238984Y-39074485D01*
X221276500Y-38934475D01*
X221276500Y-38789525D01*
X221238984Y-38649515D01*
X221166509Y-38523985D01*
X221064015Y-38421491D01*
X221064013Y-38421490D01*
X221064011Y-38421488D01*
X220938488Y-38349017D01*
X220938489Y-38349017D01*
X220927006Y-38345940D01*
X220798475Y-38311500D01*
X220653525Y-38311500D01*
X220524993Y-38345940D01*
X220513511Y-38349017D01*
X220387988Y-38421488D01*
X220387982Y-38421493D01*
X220285493Y-38523982D01*
X220285488Y-38523988D01*
X220213017Y-38649511D01*
X220213016Y-38649515D01*
X220175500Y-38789525D01*
X189832500Y-38789525D01*
X189832500Y-37599052D01*
X189829624Y-37550774D01*
X189783934Y-37340741D01*
X189720511Y-37192636D01*
X189699322Y-37143154D01*
X189578848Y-36965151D01*
X189578840Y-36965142D01*
X189426857Y-36813159D01*
X189426848Y-36813151D01*
X189248845Y-36692677D01*
X189051260Y-36608066D01*
X189051249Y-36608063D01*
X188841231Y-36562377D01*
X188841230Y-36562376D01*
X188841226Y-36562376D01*
X188792948Y-36559500D01*
X186871052Y-36559500D01*
X186822774Y-36562376D01*
X186822769Y-36562376D01*
X186822768Y-36562377D01*
X186612750Y-36608063D01*
X186612739Y-36608066D01*
X186415154Y-36692677D01*
X186237151Y-36813151D01*
X186237142Y-36813159D01*
X186085159Y-36965142D01*
X186085151Y-36965151D01*
X185964677Y-37143154D01*
X185880066Y-37340739D01*
X185880063Y-37340750D01*
X185834377Y-37550768D01*
X185834376Y-37550774D01*
X185831500Y-37599052D01*
X176014500Y-37599052D01*
X176014500Y-34676711D01*
X179759500Y-34676711D01*
X179759500Y-34919288D01*
X179791161Y-35159785D01*
X179853947Y-35394104D01*
X179922170Y-35558808D01*
X179946776Y-35618212D01*
X180068064Y-35828289D01*
X180068066Y-35828292D01*
X180068067Y-35828293D01*
X180215733Y-36020736D01*
X180215739Y-36020743D01*
X180387256Y-36192260D01*
X180387262Y-36192265D01*
X180579711Y-36339936D01*
X180789788Y-36461224D01*
X181013900Y-36554054D01*
X181248211Y-36616838D01*
X181405180Y-36637503D01*
X181488711Y-36648500D01*
X181488712Y-36648500D01*
X181731289Y-36648500D01*
X181814774Y-36637509D01*
X181971789Y-36616838D01*
X182206100Y-36554054D01*
X182430212Y-36461224D01*
X182640289Y-36339936D01*
X182832738Y-36192265D01*
X183004265Y-36020738D01*
X183151936Y-35828289D01*
X183273224Y-35618212D01*
X183366054Y-35394100D01*
X183428838Y-35159789D01*
X183460500Y-34919288D01*
X183460500Y-34745803D01*
X190282000Y-34745803D01*
X190282000Y-35310000D01*
X191098988Y-35310000D01*
X191066075Y-35367007D01*
X191032000Y-35494174D01*
X191032000Y-35625826D01*
X191066075Y-35752993D01*
X191098988Y-35810000D01*
X190282001Y-35810000D01*
X190282001Y-36374197D01*
X190292400Y-36506332D01*
X190347377Y-36724519D01*
X190440428Y-36929374D01*
X190440431Y-36929380D01*
X190568559Y-37114323D01*
X190568569Y-37114335D01*
X190727664Y-37273430D01*
X190727676Y-37273440D01*
X190912619Y-37401568D01*
X190912625Y-37401571D01*
X191117480Y-37494622D01*
X191335667Y-37549599D01*
X191467810Y-37559999D01*
X192281999Y-37559999D01*
X192282000Y-37559998D01*
X192282000Y-36060000D01*
X192782000Y-36060000D01*
X192782000Y-37559999D01*
X193596182Y-37559999D01*
X193596197Y-37559998D01*
X193728332Y-37549599D01*
X193946519Y-37494622D01*
X194151374Y-37401571D01*
X194151380Y-37401568D01*
X194336323Y-37273440D01*
X194336335Y-37273430D01*
X194495430Y-37114335D01*
X194495440Y-37114323D01*
X194623568Y-36929380D01*
X194623571Y-36929374D01*
X194716622Y-36724519D01*
X194771599Y-36506332D01*
X194781999Y-36374196D01*
X194782000Y-36374184D01*
X194782000Y-35810000D01*
X193965012Y-35810000D01*
X193997925Y-35752993D01*
X194032000Y-35625826D01*
X194032000Y-35494174D01*
X193997925Y-35367007D01*
X193965012Y-35310000D01*
X194781999Y-35310000D01*
X194781999Y-34745817D01*
X194781998Y-34745802D01*
X194771599Y-34613665D01*
X194771599Y-34613662D01*
X194770653Y-34609911D01*
X194770652Y-34609906D01*
X194763856Y-34582937D01*
X201146788Y-34582937D01*
X201146788Y-36778672D01*
X201146789Y-36778678D01*
X201153196Y-36838285D01*
X201203490Y-36973130D01*
X201203494Y-36973137D01*
X201289740Y-37088346D01*
X201289743Y-37088349D01*
X201404952Y-37174595D01*
X201404959Y-37174599D01*
X201539805Y-37224893D01*
X201539804Y-37224893D01*
X201546732Y-37225637D01*
X201599415Y-37231302D01*
X203795160Y-37231301D01*
X203854771Y-37224893D01*
X203989619Y-37174598D01*
X204104834Y-37088348D01*
X204191084Y-36973133D01*
X204241379Y-36838285D01*
X204247788Y-36778675D01*
X204247787Y-35578450D01*
X205206788Y-35578450D01*
X205206788Y-35783153D01*
X205238810Y-35985336D01*
X205302069Y-36180025D01*
X205324745Y-36224528D01*
X205390664Y-36353901D01*
X205395003Y-36362415D01*
X205515316Y-36528015D01*
X205660074Y-36672773D01*
X205810774Y-36782261D01*
X205825678Y-36793089D01*
X205914378Y-36838284D01*
X206008064Y-36886020D01*
X206008066Y-36886020D01*
X206008069Y-36886022D01*
X206112425Y-36919929D01*
X206202753Y-36949279D01*
X206302907Y-36965142D01*
X206404936Y-36981302D01*
X206404937Y-36981302D01*
X206609639Y-36981302D01*
X206609640Y-36981302D01*
X206811822Y-36949279D01*
X207006507Y-36886022D01*
X207188898Y-36793089D01*
X207190037Y-36792261D01*
X207190842Y-36791677D01*
X207190843Y-36791676D01*
X207354500Y-36672773D01*
X207354498Y-36672773D01*
X207354507Y-36672768D01*
X207499254Y-36528021D01*
X207499256Y-36528017D01*
X207499259Y-36528015D01*
X207552020Y-36455392D01*
X207619575Y-36362412D01*
X207712508Y-36180021D01*
X207775765Y-35985336D01*
X207807788Y-35783154D01*
X207807788Y-35578450D01*
X207804677Y-35558808D01*
X208767288Y-35558808D01*
X208767288Y-35802795D01*
X208805453Y-36043761D01*
X208880848Y-36275800D01*
X208991611Y-36493182D01*
X209058831Y-36585703D01*
X209058832Y-36585704D01*
X209677978Y-35966558D01*
X209696956Y-36012376D01*
X209773562Y-36127026D01*
X209871064Y-36224528D01*
X209985714Y-36301134D01*
X210031530Y-36320111D01*
X209412384Y-36939256D01*
X209412385Y-36939258D01*
X209504907Y-37006478D01*
X209722289Y-37117241D01*
X209954328Y-37192636D01*
X210195295Y-37230802D01*
X210439281Y-37230802D01*
X210680247Y-37192636D01*
X210912286Y-37117241D01*
X211129665Y-37006480D01*
X211222189Y-36939256D01*
X211222190Y-36939256D01*
X210603045Y-36320111D01*
X210648862Y-36301134D01*
X210763512Y-36224528D01*
X210861014Y-36127026D01*
X210937620Y-36012376D01*
X210956597Y-35966559D01*
X211575742Y-36585704D01*
X211575742Y-36585703D01*
X211642966Y-36493179D01*
X211753727Y-36275800D01*
X211829122Y-36043761D01*
X211867288Y-35802795D01*
X211867288Y-35558808D01*
X211829122Y-35317842D01*
X211753727Y-35085803D01*
X211642964Y-34868421D01*
X211575744Y-34775899D01*
X211575742Y-34775898D01*
X210956597Y-35395043D01*
X210937620Y-35349228D01*
X210861014Y-35234578D01*
X210763512Y-35137076D01*
X210648862Y-35060470D01*
X210603044Y-35041491D01*
X211061600Y-34582937D01*
X214608788Y-34582937D01*
X214608788Y-36778672D01*
X214608789Y-36778678D01*
X214615196Y-36838285D01*
X214665490Y-36973130D01*
X214665494Y-36973137D01*
X214751740Y-37088346D01*
X214751743Y-37088349D01*
X214866952Y-37174595D01*
X214866959Y-37174599D01*
X215001805Y-37224893D01*
X215001804Y-37224893D01*
X215008732Y-37225637D01*
X215061415Y-37231302D01*
X217257160Y-37231301D01*
X217316771Y-37224893D01*
X217451619Y-37174598D01*
X217566834Y-37088348D01*
X217653084Y-36973133D01*
X217703379Y-36838285D01*
X217709788Y-36778675D01*
X217709787Y-35578450D01*
X218668788Y-35578450D01*
X218668788Y-35783153D01*
X218700810Y-35985336D01*
X218764069Y-36180025D01*
X218786745Y-36224528D01*
X218852664Y-36353901D01*
X218857003Y-36362415D01*
X218977316Y-36528015D01*
X219122074Y-36672773D01*
X219272774Y-36782261D01*
X219287678Y-36793089D01*
X219376378Y-36838284D01*
X219470064Y-36886020D01*
X219470066Y-36886020D01*
X219470069Y-36886022D01*
X219574425Y-36919929D01*
X219664753Y-36949279D01*
X219764907Y-36965142D01*
X219866936Y-36981302D01*
X219866937Y-36981302D01*
X220071639Y-36981302D01*
X220071640Y-36981302D01*
X220273822Y-36949279D01*
X220468507Y-36886022D01*
X220650898Y-36793089D01*
X220652037Y-36792261D01*
X220652842Y-36791677D01*
X220652843Y-36791676D01*
X220816500Y-36672773D01*
X220816498Y-36672773D01*
X220816507Y-36672768D01*
X220961254Y-36528021D01*
X220961256Y-36528017D01*
X220961259Y-36528015D01*
X221014020Y-36455392D01*
X221081575Y-36362412D01*
X221174508Y-36180021D01*
X221237765Y-35985336D01*
X221269788Y-35783154D01*
X221269788Y-35578450D01*
X221266677Y-35558808D01*
X222229288Y-35558808D01*
X222229288Y-35802795D01*
X222267453Y-36043761D01*
X222342848Y-36275800D01*
X222453611Y-36493182D01*
X222520831Y-36585703D01*
X222520832Y-36585704D01*
X223139978Y-35966558D01*
X223158956Y-36012376D01*
X223235562Y-36127026D01*
X223333064Y-36224528D01*
X223447714Y-36301134D01*
X223493530Y-36320111D01*
X222874384Y-36939256D01*
X222874385Y-36939258D01*
X222966907Y-37006478D01*
X223184289Y-37117241D01*
X223416328Y-37192636D01*
X223657295Y-37230802D01*
X223901281Y-37230802D01*
X224142247Y-37192636D01*
X224374286Y-37117241D01*
X224591665Y-37006480D01*
X224684189Y-36939256D01*
X224684190Y-36939256D01*
X224065045Y-36320111D01*
X224110862Y-36301134D01*
X224225512Y-36224528D01*
X224323014Y-36127026D01*
X224399620Y-36012376D01*
X224418597Y-35966559D01*
X225037742Y-36585704D01*
X225037742Y-36585703D01*
X225104966Y-36493179D01*
X225215727Y-36275800D01*
X225291122Y-36043761D01*
X225329288Y-35802795D01*
X225329288Y-35558808D01*
X225291122Y-35317842D01*
X225215727Y-35085803D01*
X225104964Y-34868420D01*
X225042474Y-34782409D01*
X225037744Y-34775899D01*
X225037742Y-34775898D01*
X224418597Y-35395043D01*
X224399620Y-35349228D01*
X224323014Y-35234578D01*
X224225512Y-35137076D01*
X224110862Y-35060470D01*
X224065044Y-35041491D01*
X224390925Y-34715611D01*
X229103500Y-34715611D01*
X229103500Y-36864968D01*
X229118032Y-36938025D01*
X229118033Y-36938029D01*
X229125550Y-36949279D01*
X229173399Y-37020891D01*
X229256260Y-37076256D01*
X229256264Y-37076257D01*
X229329321Y-37090789D01*
X229329324Y-37090790D01*
X229329326Y-37090790D01*
X231478676Y-37090790D01*
X231478677Y-37090789D01*
X231551740Y-37076256D01*
X231634601Y-37020891D01*
X231689966Y-36938030D01*
X231704500Y-36864964D01*
X231704500Y-35687938D01*
X232913500Y-35687938D01*
X232913500Y-35892641D01*
X232945522Y-36094824D01*
X233008781Y-36289513D01*
X233055296Y-36380802D01*
X233096274Y-36461226D01*
X233101715Y-36471903D01*
X233222028Y-36637503D01*
X233366786Y-36782261D01*
X233480622Y-36864966D01*
X233532390Y-36902577D01*
X233624048Y-36949279D01*
X233714776Y-36995508D01*
X233714778Y-36995508D01*
X233714781Y-36995510D01*
X233792893Y-37020890D01*
X233909465Y-37058767D01*
X234010557Y-37074778D01*
X234111648Y-37090790D01*
X234111649Y-37090790D01*
X234316351Y-37090790D01*
X234316352Y-37090790D01*
X234518534Y-37058767D01*
X234713219Y-36995510D01*
X234895610Y-36902577D01*
X234988590Y-36835022D01*
X235061213Y-36782261D01*
X235061215Y-36782258D01*
X235061219Y-36782256D01*
X235205966Y-36637509D01*
X235205968Y-36637505D01*
X235205971Y-36637503D01*
X235266599Y-36554054D01*
X235326287Y-36471900D01*
X235419220Y-36289509D01*
X235482477Y-36094824D01*
X235514500Y-35892642D01*
X235514500Y-35687938D01*
X235496349Y-35573340D01*
X235482477Y-35485755D01*
X235438116Y-35349228D01*
X235419220Y-35291071D01*
X235419218Y-35291068D01*
X235419218Y-35291066D01*
X235352326Y-35159785D01*
X235326287Y-35108680D01*
X235291261Y-35060470D01*
X235205971Y-34943076D01*
X235061213Y-34798318D01*
X234947374Y-34715611D01*
X240788500Y-34715611D01*
X240788500Y-36864968D01*
X240803032Y-36938025D01*
X240803033Y-36938029D01*
X240810550Y-36949279D01*
X240858399Y-37020891D01*
X240941260Y-37076256D01*
X240941264Y-37076257D01*
X241014321Y-37090789D01*
X241014324Y-37090790D01*
X241014326Y-37090790D01*
X243163676Y-37090790D01*
X243163677Y-37090789D01*
X243236740Y-37076256D01*
X243319601Y-37020891D01*
X243374966Y-36938030D01*
X243389500Y-36864964D01*
X243389500Y-35687938D01*
X244598500Y-35687938D01*
X244598500Y-35892641D01*
X244630522Y-36094824D01*
X244693781Y-36289513D01*
X244740296Y-36380802D01*
X244781274Y-36461226D01*
X244786715Y-36471903D01*
X244907028Y-36637503D01*
X245051786Y-36782261D01*
X245165622Y-36864966D01*
X245217390Y-36902577D01*
X245309048Y-36949279D01*
X245399776Y-36995508D01*
X245399778Y-36995508D01*
X245399781Y-36995510D01*
X245477893Y-37020890D01*
X245594465Y-37058767D01*
X245695557Y-37074778D01*
X245796648Y-37090790D01*
X245796649Y-37090790D01*
X246001351Y-37090790D01*
X246001352Y-37090790D01*
X246203534Y-37058767D01*
X246398219Y-36995510D01*
X246580610Y-36902577D01*
X246673590Y-36835022D01*
X246746213Y-36782261D01*
X246746215Y-36782258D01*
X246746219Y-36782256D01*
X246890966Y-36637509D01*
X246890968Y-36637505D01*
X246890971Y-36637503D01*
X246951599Y-36554054D01*
X247011287Y-36471900D01*
X247104220Y-36289509D01*
X247167477Y-36094824D01*
X247199500Y-35892642D01*
X247199500Y-35687938D01*
X247181349Y-35573340D01*
X247167477Y-35485755D01*
X247123116Y-35349228D01*
X247104220Y-35291071D01*
X247104218Y-35291068D01*
X247104218Y-35291066D01*
X247037326Y-35159785D01*
X247011287Y-35108680D01*
X246976261Y-35060470D01*
X246890971Y-34943076D01*
X246746217Y-34798322D01*
X246746212Y-34798318D01*
X246711348Y-34772987D01*
X246711325Y-34772972D01*
X246580609Y-34678002D01*
X246578075Y-34676711D01*
X263579500Y-34676711D01*
X263579500Y-34919288D01*
X263611161Y-35159785D01*
X263673947Y-35394104D01*
X263742170Y-35558808D01*
X263766776Y-35618212D01*
X263888064Y-35828289D01*
X263888066Y-35828292D01*
X263888067Y-35828293D01*
X264035733Y-36020736D01*
X264035739Y-36020743D01*
X264207256Y-36192260D01*
X264207262Y-36192265D01*
X264399711Y-36339936D01*
X264609788Y-36461224D01*
X264833900Y-36554054D01*
X265068211Y-36616838D01*
X265225180Y-36637503D01*
X265308711Y-36648500D01*
X265308712Y-36648500D01*
X265551289Y-36648500D01*
X265634774Y-36637509D01*
X265791789Y-36616838D01*
X266026100Y-36554054D01*
X266250212Y-36461224D01*
X266460289Y-36339936D01*
X266652738Y-36192265D01*
X266824265Y-36020738D01*
X266971936Y-35828289D01*
X267093224Y-35618212D01*
X267186054Y-35394100D01*
X267248838Y-35159789D01*
X267280500Y-34919288D01*
X267280500Y-34676712D01*
X267248838Y-34436211D01*
X267186054Y-34201900D01*
X267093224Y-33977788D01*
X266971936Y-33767711D01*
X266824265Y-33575262D01*
X266824260Y-33575256D01*
X266652743Y-33403739D01*
X266652736Y-33403733D01*
X266460293Y-33256067D01*
X266460292Y-33256066D01*
X266460289Y-33256064D01*
X266250212Y-33134776D01*
X266250205Y-33134773D01*
X266026104Y-33041947D01*
X265791785Y-32979161D01*
X265551289Y-32947500D01*
X265551288Y-32947500D01*
X265308712Y-32947500D01*
X265308711Y-32947500D01*
X265068214Y-32979161D01*
X264833895Y-33041947D01*
X264609794Y-33134773D01*
X264609785Y-33134777D01*
X264399706Y-33256067D01*
X264207263Y-33403733D01*
X264207256Y-33403739D01*
X264035739Y-33575256D01*
X264035733Y-33575263D01*
X263888067Y-33767706D01*
X263766777Y-33977785D01*
X263766773Y-33977794D01*
X263673947Y-34201895D01*
X263611161Y-34436214D01*
X263579500Y-34676711D01*
X246578075Y-34676711D01*
X246398223Y-34585071D01*
X246203534Y-34521812D01*
X246014844Y-34491927D01*
X246001352Y-34489790D01*
X245796648Y-34489790D01*
X245783156Y-34491927D01*
X245594465Y-34521812D01*
X245399776Y-34585071D01*
X245217386Y-34678005D01*
X245051786Y-34798318D01*
X244907028Y-34943076D01*
X244786715Y-35108676D01*
X244693781Y-35291066D01*
X244630522Y-35485755D01*
X244598500Y-35687938D01*
X243389500Y-35687938D01*
X243389500Y-34715616D01*
X243389500Y-34715613D01*
X243389499Y-34715611D01*
X243374967Y-34642554D01*
X243374966Y-34642550D01*
X243355664Y-34613662D01*
X243319601Y-34559689D01*
X243236740Y-34504324D01*
X243236739Y-34504323D01*
X243236735Y-34504322D01*
X243163677Y-34489790D01*
X243163674Y-34489790D01*
X241014326Y-34489790D01*
X241014323Y-34489790D01*
X240941264Y-34504322D01*
X240941260Y-34504323D01*
X240858399Y-34559689D01*
X240803033Y-34642550D01*
X240803032Y-34642554D01*
X240788500Y-34715611D01*
X234947374Y-34715611D01*
X234895613Y-34678005D01*
X234895612Y-34678004D01*
X234895610Y-34678003D01*
X234826030Y-34642550D01*
X234713223Y-34585071D01*
X234518534Y-34521812D01*
X234329844Y-34491927D01*
X234316352Y-34489790D01*
X234111648Y-34489790D01*
X234098156Y-34491927D01*
X233909465Y-34521812D01*
X233714776Y-34585071D01*
X233532386Y-34678005D01*
X233366786Y-34798318D01*
X233222028Y-34943076D01*
X233101715Y-35108676D01*
X233008781Y-35291066D01*
X232945522Y-35485755D01*
X232913500Y-35687938D01*
X231704500Y-35687938D01*
X231704500Y-34715616D01*
X231704500Y-34715613D01*
X231704499Y-34715611D01*
X231689967Y-34642554D01*
X231689966Y-34642550D01*
X231670664Y-34613662D01*
X231634601Y-34559689D01*
X231551740Y-34504324D01*
X231551739Y-34504323D01*
X231551735Y-34504322D01*
X231478677Y-34489790D01*
X231478674Y-34489790D01*
X229329326Y-34489790D01*
X229329323Y-34489790D01*
X229256264Y-34504322D01*
X229256260Y-34504323D01*
X229173399Y-34559689D01*
X229118033Y-34642550D01*
X229118032Y-34642554D01*
X229103500Y-34715611D01*
X224390925Y-34715611D01*
X224684190Y-34422346D01*
X224684189Y-34422345D01*
X224591668Y-34355125D01*
X224374286Y-34244362D01*
X224142247Y-34168967D01*
X223901281Y-34130802D01*
X223657295Y-34130802D01*
X223416328Y-34168967D01*
X223184289Y-34244362D01*
X222966914Y-34355121D01*
X222874385Y-34422346D01*
X223493531Y-35041491D01*
X223447714Y-35060470D01*
X223333064Y-35137076D01*
X223235562Y-35234578D01*
X223158956Y-35349228D01*
X223139978Y-35395045D01*
X222520832Y-34775899D01*
X222453607Y-34868428D01*
X222342848Y-35085803D01*
X222267453Y-35317842D01*
X222229288Y-35558808D01*
X221266677Y-35558808D01*
X221237765Y-35376268D01*
X221174508Y-35181583D01*
X221174506Y-35181580D01*
X221174506Y-35181578D01*
X221129920Y-35094075D01*
X221081575Y-34999192D01*
X221023522Y-34919288D01*
X220961259Y-34833588D01*
X220816501Y-34688830D01*
X220652860Y-34569939D01*
X220652837Y-34569924D01*
X220650897Y-34568514D01*
X220468511Y-34475583D01*
X220273822Y-34412324D01*
X220099283Y-34384680D01*
X220071640Y-34380302D01*
X219866936Y-34380302D01*
X219842617Y-34384153D01*
X219664753Y-34412324D01*
X219470064Y-34475583D01*
X219287674Y-34568517D01*
X219122074Y-34688830D01*
X218977316Y-34833588D01*
X218857003Y-34999188D01*
X218764069Y-35181578D01*
X218700810Y-35376267D01*
X218668788Y-35578450D01*
X217709787Y-35578450D01*
X217709787Y-34582930D01*
X217703379Y-34523319D01*
X217702817Y-34521813D01*
X217653085Y-34388473D01*
X217653081Y-34388466D01*
X217566835Y-34273257D01*
X217566832Y-34273254D01*
X217451623Y-34187008D01*
X217451616Y-34187004D01*
X217316770Y-34136710D01*
X217316771Y-34136710D01*
X217257171Y-34130303D01*
X217257169Y-34130302D01*
X217257161Y-34130302D01*
X217257152Y-34130302D01*
X215061417Y-34130302D01*
X215061411Y-34130303D01*
X215001804Y-34136710D01*
X214866959Y-34187004D01*
X214866952Y-34187008D01*
X214751743Y-34273254D01*
X214751740Y-34273257D01*
X214665494Y-34388466D01*
X214665490Y-34388473D01*
X214615196Y-34523319D01*
X214608789Y-34582918D01*
X214608789Y-34582925D01*
X214608788Y-34582937D01*
X211061600Y-34582937D01*
X211152610Y-34491927D01*
X211222190Y-34422346D01*
X211222189Y-34422345D01*
X211129668Y-34355125D01*
X210912286Y-34244362D01*
X210680247Y-34168967D01*
X210439281Y-34130802D01*
X210195295Y-34130802D01*
X209954328Y-34168967D01*
X209722289Y-34244362D01*
X209504914Y-34355121D01*
X209412385Y-34422346D01*
X210031531Y-35041491D01*
X209985714Y-35060470D01*
X209871064Y-35137076D01*
X209773562Y-35234578D01*
X209696956Y-35349228D01*
X209677978Y-35395045D01*
X209058832Y-34775899D01*
X208991607Y-34868428D01*
X208880848Y-35085803D01*
X208805453Y-35317842D01*
X208767288Y-35558808D01*
X207804677Y-35558808D01*
X207775765Y-35376268D01*
X207712508Y-35181583D01*
X207712506Y-35181580D01*
X207712506Y-35181578D01*
X207667920Y-35094075D01*
X207619575Y-34999192D01*
X207561522Y-34919288D01*
X207499259Y-34833588D01*
X207354501Y-34688830D01*
X207190860Y-34569939D01*
X207190837Y-34569924D01*
X207188897Y-34568514D01*
X207006511Y-34475583D01*
X206811822Y-34412324D01*
X206637283Y-34384680D01*
X206609640Y-34380302D01*
X206404936Y-34380302D01*
X206380617Y-34384153D01*
X206202753Y-34412324D01*
X206008064Y-34475583D01*
X205825674Y-34568517D01*
X205660074Y-34688830D01*
X205515316Y-34833588D01*
X205395003Y-34999188D01*
X205302069Y-35181578D01*
X205238810Y-35376267D01*
X205206788Y-35578450D01*
X204247787Y-35578450D01*
X204247787Y-34582930D01*
X204241379Y-34523319D01*
X204240817Y-34521813D01*
X204191085Y-34388473D01*
X204191081Y-34388466D01*
X204104835Y-34273257D01*
X204104832Y-34273254D01*
X203989623Y-34187008D01*
X203989616Y-34187004D01*
X203854770Y-34136710D01*
X203854771Y-34136710D01*
X203795171Y-34130303D01*
X203795169Y-34130302D01*
X203795161Y-34130302D01*
X203795152Y-34130302D01*
X201599417Y-34130302D01*
X201599411Y-34130303D01*
X201539804Y-34136710D01*
X201404959Y-34187004D01*
X201404952Y-34187008D01*
X201289743Y-34273254D01*
X201289740Y-34273257D01*
X201203494Y-34388466D01*
X201203490Y-34388473D01*
X201153196Y-34523319D01*
X201146789Y-34582918D01*
X201146789Y-34582925D01*
X201146788Y-34582937D01*
X194763856Y-34582937D01*
X194716622Y-34395480D01*
X194623571Y-34190625D01*
X194623568Y-34190619D01*
X194495440Y-34005676D01*
X194495430Y-34005664D01*
X194336335Y-33846569D01*
X194336323Y-33846559D01*
X194151380Y-33718431D01*
X194151374Y-33718428D01*
X193946519Y-33625377D01*
X193728332Y-33570400D01*
X193596196Y-33560000D01*
X192782000Y-33560000D01*
X192782000Y-35060000D01*
X192282000Y-35060000D01*
X192282000Y-33560000D01*
X191467817Y-33560000D01*
X191467802Y-33560001D01*
X191335667Y-33570400D01*
X191117480Y-33625377D01*
X190912625Y-33718428D01*
X190912619Y-33718431D01*
X190727676Y-33846559D01*
X190727664Y-33846569D01*
X190568569Y-34005664D01*
X190568559Y-34005676D01*
X190440431Y-34190619D01*
X190440428Y-34190625D01*
X190347377Y-34395480D01*
X190292400Y-34613667D01*
X190282000Y-34745803D01*
X183460500Y-34745803D01*
X183460500Y-34676712D01*
X183428838Y-34436211D01*
X183366054Y-34201900D01*
X183273224Y-33977788D01*
X183151936Y-33767711D01*
X183004265Y-33575262D01*
X183004260Y-33575256D01*
X182832743Y-33403739D01*
X182832736Y-33403733D01*
X182640293Y-33256067D01*
X182640292Y-33256066D01*
X182640289Y-33256064D01*
X182430212Y-33134776D01*
X182430205Y-33134773D01*
X182206104Y-33041947D01*
X181971785Y-32979161D01*
X181731289Y-32947500D01*
X181731288Y-32947500D01*
X181488712Y-32947500D01*
X181488711Y-32947500D01*
X181248214Y-32979161D01*
X181013895Y-33041947D01*
X180789794Y-33134773D01*
X180789785Y-33134777D01*
X180579706Y-33256067D01*
X180387263Y-33403733D01*
X180387256Y-33403739D01*
X180215739Y-33575256D01*
X180215733Y-33575263D01*
X180068067Y-33767706D01*
X179946777Y-33977785D01*
X179946773Y-33977794D01*
X179853947Y-34201895D01*
X179791161Y-34436214D01*
X179759500Y-34676711D01*
X176014500Y-34676711D01*
X176014500Y-30342500D01*
X176034185Y-30275461D01*
X176086989Y-30229706D01*
X176138500Y-30218500D01*
X269885500Y-30218500D01*
X269952539Y-30238185D01*
G37*
G04 #@! TD.AperFunction*
M02*
