G04 #@! TF.GenerationSoftware,KiCad,Pcbnew,9.0.0*
G04 #@! TF.CreationDate,2025-03-05T08:43:44-06:00*
G04 #@! TF.ProjectId,PCB,5043422e-6b69-4636-9164-5f7063625858,rev?*
G04 #@! TF.SameCoordinates,Original*
G04 #@! TF.FileFunction,Soldermask,Top*
G04 #@! TF.FilePolarity,Negative*
%FSLAX46Y46*%
G04 Gerber Fmt 4.6, Leading zero omitted, Abs format (unit mm)*
G04 Created by KiCad (PCBNEW 9.0.0) date 2025-03-05 08:43:44*
%MOMM*%
%LPD*%
G01*
G04 APERTURE LIST*
G04 Aperture macros list*
%AMRoundRect*
0 Rectangle with rounded corners*
0 $1 Rounding radius*
0 $2 $3 $4 $5 $6 $7 $8 $9 X,Y pos of 4 corners*
0 Add a 4 corners polygon primitive as box body*
4,1,4,$2,$3,$4,$5,$6,$7,$8,$9,$2,$3,0*
0 Add four circle primitives for the rounded corners*
1,1,$1+$1,$2,$3*
1,1,$1+$1,$4,$5*
1,1,$1+$1,$6,$7*
1,1,$1+$1,$8,$9*
0 Add four rect primitives between the rounded corners*
20,1,$1+$1,$2,$3,$4,$5,0*
20,1,$1+$1,$4,$5,$6,$7,0*
20,1,$1+$1,$6,$7,$8,$9,0*
20,1,$1+$1,$8,$9,$2,$3,0*%
G04 Aperture macros list end*
%ADD10C,0.010000*%
%ADD11RoundRect,0.250000X-0.650000X1.000000X-0.650000X-1.000000X0.650000X-1.000000X0.650000X1.000000X0*%
%ADD12RoundRect,0.237500X0.300000X0.237500X-0.300000X0.237500X-0.300000X-0.237500X0.300000X-0.237500X0*%
%ADD13C,3.000000*%
%ADD14RoundRect,0.237500X0.237500X-0.250000X0.237500X0.250000X-0.237500X0.250000X-0.237500X-0.250000X0*%
%ADD15R,2.100000X2.100000*%
%ADD16C,2.100000*%
%ADD17C,0.804000*%
%ADD18RoundRect,0.150000X-0.587500X-0.150000X0.587500X-0.150000X0.587500X0.150000X-0.587500X0.150000X0*%
%ADD19R,3.100000X2.400000*%
%ADD20RoundRect,0.070000X0.250000X-1.100000X0.250000X1.100000X-0.250000X1.100000X-0.250000X-1.100000X0*%
%ADD21C,0.740000*%
%ADD22RoundRect,0.250000X0.325000X1.100000X-0.325000X1.100000X-0.325000X-1.100000X0.325000X-1.100000X0*%
%ADD23RoundRect,0.237500X0.250000X0.237500X-0.250000X0.237500X-0.250000X-0.237500X0.250000X-0.237500X0*%
%ADD24RoundRect,0.237500X0.237500X-0.300000X0.237500X0.300000X-0.237500X0.300000X-0.237500X-0.300000X0*%
%ADD25RoundRect,0.237500X-0.237500X0.300000X-0.237500X-0.300000X0.237500X-0.300000X0.237500X0.300000X0*%
%ADD26RoundRect,0.237500X-0.300000X-0.237500X0.300000X-0.237500X0.300000X0.237500X-0.300000X0.237500X0*%
%ADD27RoundRect,0.250000X1.500000X1.000000X-1.500000X1.000000X-1.500000X-1.000000X1.500000X-1.000000X0*%
%ADD28C,3.200000*%
%ADD29C,1.695000*%
%ADD30RoundRect,0.237500X-0.237500X0.250000X-0.237500X-0.250000X0.237500X-0.250000X0.237500X0.250000X0*%
%ADD31C,2.000000*%
%ADD32RoundRect,0.155000X0.155000X-0.212500X0.155000X0.212500X-0.155000X0.212500X-0.155000X-0.212500X0*%
%ADD33RoundRect,0.155000X-0.155000X0.212500X-0.155000X-0.212500X0.155000X-0.212500X0.155000X0.212500X0*%
%ADD34RoundRect,0.250000X0.650000X-1.000000X0.650000X1.000000X-0.650000X1.000000X-0.650000X-1.000000X0*%
%ADD35RoundRect,0.102000X0.750000X0.450000X-0.750000X0.450000X-0.750000X-0.450000X0.750000X-0.450000X0*%
%ADD36RoundRect,0.102000X0.450000X0.750000X-0.450000X0.750000X-0.450000X-0.750000X0.450000X-0.750000X0*%
%ADD37RoundRect,0.102000X0.450000X0.450000X-0.450000X0.450000X-0.450000X-0.450000X0.450000X-0.450000X0*%
%ADD38RoundRect,0.250000X-0.450000X0.350000X-0.450000X-0.350000X0.450000X-0.350000X0.450000X0.350000X0*%
%ADD39RoundRect,0.250000X0.475000X-0.337500X0.475000X0.337500X-0.475000X0.337500X-0.475000X-0.337500X0*%
%ADD40RoundRect,0.150000X-0.150000X0.512500X-0.150000X-0.512500X0.150000X-0.512500X0.150000X0.512500X0*%
%ADD41RoundRect,0.375000X-0.375000X0.625000X-0.375000X-0.625000X0.375000X-0.625000X0.375000X0.625000X0*%
%ADD42RoundRect,0.500000X-1.400000X0.500000X-1.400000X-0.500000X1.400000X-0.500000X1.400000X0.500000X0*%
%ADD43RoundRect,0.087500X-0.087500X0.537500X-0.087500X-0.537500X0.087500X-0.537500X0.087500X0.537500X0*%
%ADD44RoundRect,0.250000X-0.412500X-0.650000X0.412500X-0.650000X0.412500X0.650000X-0.412500X0.650000X0*%
%ADD45C,1.854000*%
%ADD46R,3.500000X3.500000*%
%ADD47RoundRect,0.750000X-1.000000X0.750000X-1.000000X-0.750000X1.000000X-0.750000X1.000000X0.750000X0*%
%ADD48RoundRect,0.875000X-0.875000X0.875000X-0.875000X-0.875000X0.875000X-0.875000X0.875000X0.875000X0*%
%ADD49RoundRect,0.250000X-0.925000X-1.500000X0.925000X-1.500000X0.925000X1.500000X-0.925000X1.500000X0*%
%ADD50RoundRect,0.100000X-0.637500X-0.100000X0.637500X-0.100000X0.637500X0.100000X-0.637500X0.100000X0*%
G04 APERTURE END LIST*
D10*
X184662000Y-54045000D02*
X181262000Y-54045000D01*
X181262000Y-51335000D01*
X184662000Y-51335000D01*
X184662000Y-54045000D01*
G36*
X184662000Y-54045000D02*
G01*
X181262000Y-54045000D01*
X181262000Y-51335000D01*
X184662000Y-51335000D01*
X184662000Y-54045000D01*
G37*
X181385000Y-49146000D02*
X181387000Y-49146000D01*
X181390000Y-49147000D01*
X181392000Y-49147000D01*
X181395000Y-49148000D01*
X181397000Y-49149000D01*
X181400000Y-49150000D01*
X181402000Y-49152000D01*
X181404000Y-49153000D01*
X181406000Y-49155000D01*
X181408000Y-49156000D01*
X181410000Y-49158000D01*
X181412000Y-49160000D01*
X181414000Y-49162000D01*
X181416000Y-49164000D01*
X181417000Y-49166000D01*
X181419000Y-49168000D01*
X181420000Y-49170000D01*
X181422000Y-49172000D01*
X181423000Y-49175000D01*
X181424000Y-49177000D01*
X181425000Y-49180000D01*
X181425000Y-49182000D01*
X181426000Y-49185000D01*
X181426000Y-49187000D01*
X181427000Y-49190000D01*
X181427000Y-49192000D01*
X181427000Y-49195000D01*
X181427000Y-50785000D01*
X181427000Y-50788000D01*
X181427000Y-50790000D01*
X181426000Y-50793000D01*
X181426000Y-50795000D01*
X181425000Y-50798000D01*
X181425000Y-50800000D01*
X181424000Y-50803000D01*
X181423000Y-50805000D01*
X181422000Y-50808000D01*
X181420000Y-50810000D01*
X181419000Y-50812000D01*
X181417000Y-50814000D01*
X181416000Y-50816000D01*
X181414000Y-50818000D01*
X181412000Y-50820000D01*
X181410000Y-50822000D01*
X181408000Y-50824000D01*
X181406000Y-50825000D01*
X181404000Y-50827000D01*
X181402000Y-50828000D01*
X181400000Y-50830000D01*
X181397000Y-50831000D01*
X181395000Y-50832000D01*
X181392000Y-50833000D01*
X181390000Y-50833000D01*
X181387000Y-50834000D01*
X181385000Y-50834000D01*
X181382000Y-50835000D01*
X181380000Y-50835000D01*
X181377000Y-50835000D01*
X180737000Y-50835000D01*
X180734000Y-50835000D01*
X180732000Y-50835000D01*
X180729000Y-50834000D01*
X180727000Y-50834000D01*
X180724000Y-50833000D01*
X180722000Y-50833000D01*
X180719000Y-50832000D01*
X180717000Y-50831000D01*
X180714000Y-50830000D01*
X180712000Y-50828000D01*
X180710000Y-50827000D01*
X180708000Y-50825000D01*
X180706000Y-50824000D01*
X180704000Y-50822000D01*
X180702000Y-50820000D01*
X180700000Y-50818000D01*
X180698000Y-50816000D01*
X180697000Y-50814000D01*
X180695000Y-50812000D01*
X180694000Y-50810000D01*
X180692000Y-50808000D01*
X180691000Y-50805000D01*
X180690000Y-50803000D01*
X180689000Y-50800000D01*
X180689000Y-50798000D01*
X180688000Y-50795000D01*
X180688000Y-50793000D01*
X180687000Y-50790000D01*
X180687000Y-50788000D01*
X180687000Y-50785000D01*
X180687000Y-49195000D01*
X180687000Y-49192000D01*
X180687000Y-49190000D01*
X180688000Y-49187000D01*
X180688000Y-49185000D01*
X180689000Y-49182000D01*
X180689000Y-49180000D01*
X180690000Y-49177000D01*
X180691000Y-49175000D01*
X180692000Y-49172000D01*
X180694000Y-49170000D01*
X180695000Y-49168000D01*
X180697000Y-49166000D01*
X180698000Y-49164000D01*
X180700000Y-49162000D01*
X180702000Y-49160000D01*
X180704000Y-49158000D01*
X180706000Y-49156000D01*
X180708000Y-49155000D01*
X180710000Y-49153000D01*
X180712000Y-49152000D01*
X180714000Y-49150000D01*
X180717000Y-49149000D01*
X180719000Y-49148000D01*
X180722000Y-49147000D01*
X180724000Y-49147000D01*
X180727000Y-49146000D01*
X180729000Y-49146000D01*
X180732000Y-49145000D01*
X180734000Y-49145000D01*
X180737000Y-49145000D01*
X181377000Y-49145000D01*
X181380000Y-49145000D01*
X181382000Y-49145000D01*
X181385000Y-49146000D01*
G36*
X181385000Y-49146000D02*
G01*
X181387000Y-49146000D01*
X181390000Y-49147000D01*
X181392000Y-49147000D01*
X181395000Y-49148000D01*
X181397000Y-49149000D01*
X181400000Y-49150000D01*
X181402000Y-49152000D01*
X181404000Y-49153000D01*
X181406000Y-49155000D01*
X181408000Y-49156000D01*
X181410000Y-49158000D01*
X181412000Y-49160000D01*
X181414000Y-49162000D01*
X181416000Y-49164000D01*
X181417000Y-49166000D01*
X181419000Y-49168000D01*
X181420000Y-49170000D01*
X181422000Y-49172000D01*
X181423000Y-49175000D01*
X181424000Y-49177000D01*
X181425000Y-49180000D01*
X181425000Y-49182000D01*
X181426000Y-49185000D01*
X181426000Y-49187000D01*
X181427000Y-49190000D01*
X181427000Y-49192000D01*
X181427000Y-49195000D01*
X181427000Y-50785000D01*
X181427000Y-50788000D01*
X181427000Y-50790000D01*
X181426000Y-50793000D01*
X181426000Y-50795000D01*
X181425000Y-50798000D01*
X181425000Y-50800000D01*
X181424000Y-50803000D01*
X181423000Y-50805000D01*
X181422000Y-50808000D01*
X181420000Y-50810000D01*
X181419000Y-50812000D01*
X181417000Y-50814000D01*
X181416000Y-50816000D01*
X181414000Y-50818000D01*
X181412000Y-50820000D01*
X181410000Y-50822000D01*
X181408000Y-50824000D01*
X181406000Y-50825000D01*
X181404000Y-50827000D01*
X181402000Y-50828000D01*
X181400000Y-50830000D01*
X181397000Y-50831000D01*
X181395000Y-50832000D01*
X181392000Y-50833000D01*
X181390000Y-50833000D01*
X181387000Y-50834000D01*
X181385000Y-50834000D01*
X181382000Y-50835000D01*
X181380000Y-50835000D01*
X181377000Y-50835000D01*
X180737000Y-50835000D01*
X180734000Y-50835000D01*
X180732000Y-50835000D01*
X180729000Y-50834000D01*
X180727000Y-50834000D01*
X180724000Y-50833000D01*
X180722000Y-50833000D01*
X180719000Y-50832000D01*
X180717000Y-50831000D01*
X180714000Y-50830000D01*
X180712000Y-50828000D01*
X180710000Y-50827000D01*
X180708000Y-50825000D01*
X180706000Y-50824000D01*
X180704000Y-50822000D01*
X180702000Y-50820000D01*
X180700000Y-50818000D01*
X180698000Y-50816000D01*
X180697000Y-50814000D01*
X180695000Y-50812000D01*
X180694000Y-50810000D01*
X180692000Y-50808000D01*
X180691000Y-50805000D01*
X180690000Y-50803000D01*
X180689000Y-50800000D01*
X180689000Y-50798000D01*
X180688000Y-50795000D01*
X180688000Y-50793000D01*
X180687000Y-50790000D01*
X180687000Y-50788000D01*
X180687000Y-50785000D01*
X180687000Y-49195000D01*
X180687000Y-49192000D01*
X180687000Y-49190000D01*
X180688000Y-49187000D01*
X180688000Y-49185000D01*
X180689000Y-49182000D01*
X180689000Y-49180000D01*
X180690000Y-49177000D01*
X180691000Y-49175000D01*
X180692000Y-49172000D01*
X180694000Y-49170000D01*
X180695000Y-49168000D01*
X180697000Y-49166000D01*
X180698000Y-49164000D01*
X180700000Y-49162000D01*
X180702000Y-49160000D01*
X180704000Y-49158000D01*
X180706000Y-49156000D01*
X180708000Y-49155000D01*
X180710000Y-49153000D01*
X180712000Y-49152000D01*
X180714000Y-49150000D01*
X180717000Y-49149000D01*
X180719000Y-49148000D01*
X180722000Y-49147000D01*
X180724000Y-49147000D01*
X180727000Y-49146000D01*
X180729000Y-49146000D01*
X180732000Y-49145000D01*
X180734000Y-49145000D01*
X180737000Y-49145000D01*
X181377000Y-49145000D01*
X181380000Y-49145000D01*
X181382000Y-49145000D01*
X181385000Y-49146000D01*
G37*
X181385000Y-54546000D02*
X181387000Y-54546000D01*
X181390000Y-54547000D01*
X181392000Y-54547000D01*
X181395000Y-54548000D01*
X181397000Y-54549000D01*
X181400000Y-54550000D01*
X181402000Y-54552000D01*
X181404000Y-54553000D01*
X181406000Y-54555000D01*
X181408000Y-54556000D01*
X181410000Y-54558000D01*
X181412000Y-54560000D01*
X181414000Y-54562000D01*
X181416000Y-54564000D01*
X181417000Y-54566000D01*
X181419000Y-54568000D01*
X181420000Y-54570000D01*
X181422000Y-54572000D01*
X181423000Y-54575000D01*
X181424000Y-54577000D01*
X181425000Y-54580000D01*
X181425000Y-54582000D01*
X181426000Y-54585000D01*
X181426000Y-54587000D01*
X181427000Y-54590000D01*
X181427000Y-54592000D01*
X181427000Y-54595000D01*
X181427000Y-56185000D01*
X181427000Y-56188000D01*
X181427000Y-56190000D01*
X181426000Y-56193000D01*
X181426000Y-56195000D01*
X181425000Y-56198000D01*
X181425000Y-56200000D01*
X181424000Y-56203000D01*
X181423000Y-56205000D01*
X181422000Y-56208000D01*
X181420000Y-56210000D01*
X181419000Y-56212000D01*
X181417000Y-56214000D01*
X181416000Y-56216000D01*
X181414000Y-56218000D01*
X181412000Y-56220000D01*
X181410000Y-56222000D01*
X181408000Y-56224000D01*
X181406000Y-56225000D01*
X181404000Y-56227000D01*
X181402000Y-56228000D01*
X181400000Y-56230000D01*
X181397000Y-56231000D01*
X181395000Y-56232000D01*
X181392000Y-56233000D01*
X181390000Y-56233000D01*
X181387000Y-56234000D01*
X181385000Y-56234000D01*
X181382000Y-56235000D01*
X181380000Y-56235000D01*
X181377000Y-56235000D01*
X180737000Y-56235000D01*
X180734000Y-56235000D01*
X180732000Y-56235000D01*
X180729000Y-56234000D01*
X180727000Y-56234000D01*
X180724000Y-56233000D01*
X180722000Y-56233000D01*
X180719000Y-56232000D01*
X180717000Y-56231000D01*
X180714000Y-56230000D01*
X180712000Y-56228000D01*
X180710000Y-56227000D01*
X180708000Y-56225000D01*
X180706000Y-56224000D01*
X180704000Y-56222000D01*
X180702000Y-56220000D01*
X180700000Y-56218000D01*
X180698000Y-56216000D01*
X180697000Y-56214000D01*
X180695000Y-56212000D01*
X180694000Y-56210000D01*
X180692000Y-56208000D01*
X180691000Y-56205000D01*
X180690000Y-56203000D01*
X180689000Y-56200000D01*
X180689000Y-56198000D01*
X180688000Y-56195000D01*
X180688000Y-56193000D01*
X180687000Y-56190000D01*
X180687000Y-56188000D01*
X180687000Y-56185000D01*
X180687000Y-54595000D01*
X180687000Y-54592000D01*
X180687000Y-54590000D01*
X180688000Y-54587000D01*
X180688000Y-54585000D01*
X180689000Y-54582000D01*
X180689000Y-54580000D01*
X180690000Y-54577000D01*
X180691000Y-54575000D01*
X180692000Y-54572000D01*
X180694000Y-54570000D01*
X180695000Y-54568000D01*
X180697000Y-54566000D01*
X180698000Y-54564000D01*
X180700000Y-54562000D01*
X180702000Y-54560000D01*
X180704000Y-54558000D01*
X180706000Y-54556000D01*
X180708000Y-54555000D01*
X180710000Y-54553000D01*
X180712000Y-54552000D01*
X180714000Y-54550000D01*
X180717000Y-54549000D01*
X180719000Y-54548000D01*
X180722000Y-54547000D01*
X180724000Y-54547000D01*
X180727000Y-54546000D01*
X180729000Y-54546000D01*
X180732000Y-54545000D01*
X180734000Y-54545000D01*
X180737000Y-54545000D01*
X181377000Y-54545000D01*
X181380000Y-54545000D01*
X181382000Y-54545000D01*
X181385000Y-54546000D01*
G36*
X181385000Y-54546000D02*
G01*
X181387000Y-54546000D01*
X181390000Y-54547000D01*
X181392000Y-54547000D01*
X181395000Y-54548000D01*
X181397000Y-54549000D01*
X181400000Y-54550000D01*
X181402000Y-54552000D01*
X181404000Y-54553000D01*
X181406000Y-54555000D01*
X181408000Y-54556000D01*
X181410000Y-54558000D01*
X181412000Y-54560000D01*
X181414000Y-54562000D01*
X181416000Y-54564000D01*
X181417000Y-54566000D01*
X181419000Y-54568000D01*
X181420000Y-54570000D01*
X181422000Y-54572000D01*
X181423000Y-54575000D01*
X181424000Y-54577000D01*
X181425000Y-54580000D01*
X181425000Y-54582000D01*
X181426000Y-54585000D01*
X181426000Y-54587000D01*
X181427000Y-54590000D01*
X181427000Y-54592000D01*
X181427000Y-54595000D01*
X181427000Y-56185000D01*
X181427000Y-56188000D01*
X181427000Y-56190000D01*
X181426000Y-56193000D01*
X181426000Y-56195000D01*
X181425000Y-56198000D01*
X181425000Y-56200000D01*
X181424000Y-56203000D01*
X181423000Y-56205000D01*
X181422000Y-56208000D01*
X181420000Y-56210000D01*
X181419000Y-56212000D01*
X181417000Y-56214000D01*
X181416000Y-56216000D01*
X181414000Y-56218000D01*
X181412000Y-56220000D01*
X181410000Y-56222000D01*
X181408000Y-56224000D01*
X181406000Y-56225000D01*
X181404000Y-56227000D01*
X181402000Y-56228000D01*
X181400000Y-56230000D01*
X181397000Y-56231000D01*
X181395000Y-56232000D01*
X181392000Y-56233000D01*
X181390000Y-56233000D01*
X181387000Y-56234000D01*
X181385000Y-56234000D01*
X181382000Y-56235000D01*
X181380000Y-56235000D01*
X181377000Y-56235000D01*
X180737000Y-56235000D01*
X180734000Y-56235000D01*
X180732000Y-56235000D01*
X180729000Y-56234000D01*
X180727000Y-56234000D01*
X180724000Y-56233000D01*
X180722000Y-56233000D01*
X180719000Y-56232000D01*
X180717000Y-56231000D01*
X180714000Y-56230000D01*
X180712000Y-56228000D01*
X180710000Y-56227000D01*
X180708000Y-56225000D01*
X180706000Y-56224000D01*
X180704000Y-56222000D01*
X180702000Y-56220000D01*
X180700000Y-56218000D01*
X180698000Y-56216000D01*
X180697000Y-56214000D01*
X180695000Y-56212000D01*
X180694000Y-56210000D01*
X180692000Y-56208000D01*
X180691000Y-56205000D01*
X180690000Y-56203000D01*
X180689000Y-56200000D01*
X180689000Y-56198000D01*
X180688000Y-56195000D01*
X180688000Y-56193000D01*
X180687000Y-56190000D01*
X180687000Y-56188000D01*
X180687000Y-56185000D01*
X180687000Y-54595000D01*
X180687000Y-54592000D01*
X180687000Y-54590000D01*
X180688000Y-54587000D01*
X180688000Y-54585000D01*
X180689000Y-54582000D01*
X180689000Y-54580000D01*
X180690000Y-54577000D01*
X180691000Y-54575000D01*
X180692000Y-54572000D01*
X180694000Y-54570000D01*
X180695000Y-54568000D01*
X180697000Y-54566000D01*
X180698000Y-54564000D01*
X180700000Y-54562000D01*
X180702000Y-54560000D01*
X180704000Y-54558000D01*
X180706000Y-54556000D01*
X180708000Y-54555000D01*
X180710000Y-54553000D01*
X180712000Y-54552000D01*
X180714000Y-54550000D01*
X180717000Y-54549000D01*
X180719000Y-54548000D01*
X180722000Y-54547000D01*
X180724000Y-54547000D01*
X180727000Y-54546000D01*
X180729000Y-54546000D01*
X180732000Y-54545000D01*
X180734000Y-54545000D01*
X180737000Y-54545000D01*
X181377000Y-54545000D01*
X181380000Y-54545000D01*
X181382000Y-54545000D01*
X181385000Y-54546000D01*
G37*
X182655000Y-49146000D02*
X182657000Y-49146000D01*
X182660000Y-49147000D01*
X182662000Y-49147000D01*
X182665000Y-49148000D01*
X182667000Y-49149000D01*
X182670000Y-49150000D01*
X182672000Y-49152000D01*
X182674000Y-49153000D01*
X182676000Y-49155000D01*
X182678000Y-49156000D01*
X182680000Y-49158000D01*
X182682000Y-49160000D01*
X182684000Y-49162000D01*
X182686000Y-49164000D01*
X182687000Y-49166000D01*
X182689000Y-49168000D01*
X182690000Y-49170000D01*
X182692000Y-49172000D01*
X182693000Y-49175000D01*
X182694000Y-49177000D01*
X182695000Y-49180000D01*
X182695000Y-49182000D01*
X182696000Y-49185000D01*
X182696000Y-49187000D01*
X182697000Y-49190000D01*
X182697000Y-49192000D01*
X182697000Y-49195000D01*
X182697000Y-50785000D01*
X182697000Y-50788000D01*
X182697000Y-50790000D01*
X182696000Y-50793000D01*
X182696000Y-50795000D01*
X182695000Y-50798000D01*
X182695000Y-50800000D01*
X182694000Y-50803000D01*
X182693000Y-50805000D01*
X182692000Y-50808000D01*
X182690000Y-50810000D01*
X182689000Y-50812000D01*
X182687000Y-50814000D01*
X182686000Y-50816000D01*
X182684000Y-50818000D01*
X182682000Y-50820000D01*
X182680000Y-50822000D01*
X182678000Y-50824000D01*
X182676000Y-50825000D01*
X182674000Y-50827000D01*
X182672000Y-50828000D01*
X182670000Y-50830000D01*
X182667000Y-50831000D01*
X182665000Y-50832000D01*
X182662000Y-50833000D01*
X182660000Y-50833000D01*
X182657000Y-50834000D01*
X182655000Y-50834000D01*
X182652000Y-50835000D01*
X182650000Y-50835000D01*
X182647000Y-50835000D01*
X182007000Y-50835000D01*
X182004000Y-50835000D01*
X182002000Y-50835000D01*
X181999000Y-50834000D01*
X181997000Y-50834000D01*
X181994000Y-50833000D01*
X181992000Y-50833000D01*
X181989000Y-50832000D01*
X181987000Y-50831000D01*
X181984000Y-50830000D01*
X181982000Y-50828000D01*
X181980000Y-50827000D01*
X181978000Y-50825000D01*
X181976000Y-50824000D01*
X181974000Y-50822000D01*
X181972000Y-50820000D01*
X181970000Y-50818000D01*
X181968000Y-50816000D01*
X181967000Y-50814000D01*
X181965000Y-50812000D01*
X181964000Y-50810000D01*
X181962000Y-50808000D01*
X181961000Y-50805000D01*
X181960000Y-50803000D01*
X181959000Y-50800000D01*
X181959000Y-50798000D01*
X181958000Y-50795000D01*
X181958000Y-50793000D01*
X181957000Y-50790000D01*
X181957000Y-50788000D01*
X181957000Y-50785000D01*
X181957000Y-49195000D01*
X181957000Y-49192000D01*
X181957000Y-49190000D01*
X181958000Y-49187000D01*
X181958000Y-49185000D01*
X181959000Y-49182000D01*
X181959000Y-49180000D01*
X181960000Y-49177000D01*
X181961000Y-49175000D01*
X181962000Y-49172000D01*
X181964000Y-49170000D01*
X181965000Y-49168000D01*
X181967000Y-49166000D01*
X181968000Y-49164000D01*
X181970000Y-49162000D01*
X181972000Y-49160000D01*
X181974000Y-49158000D01*
X181976000Y-49156000D01*
X181978000Y-49155000D01*
X181980000Y-49153000D01*
X181982000Y-49152000D01*
X181984000Y-49150000D01*
X181987000Y-49149000D01*
X181989000Y-49148000D01*
X181992000Y-49147000D01*
X181994000Y-49147000D01*
X181997000Y-49146000D01*
X181999000Y-49146000D01*
X182002000Y-49145000D01*
X182004000Y-49145000D01*
X182007000Y-49145000D01*
X182647000Y-49145000D01*
X182650000Y-49145000D01*
X182652000Y-49145000D01*
X182655000Y-49146000D01*
G36*
X182655000Y-49146000D02*
G01*
X182657000Y-49146000D01*
X182660000Y-49147000D01*
X182662000Y-49147000D01*
X182665000Y-49148000D01*
X182667000Y-49149000D01*
X182670000Y-49150000D01*
X182672000Y-49152000D01*
X182674000Y-49153000D01*
X182676000Y-49155000D01*
X182678000Y-49156000D01*
X182680000Y-49158000D01*
X182682000Y-49160000D01*
X182684000Y-49162000D01*
X182686000Y-49164000D01*
X182687000Y-49166000D01*
X182689000Y-49168000D01*
X182690000Y-49170000D01*
X182692000Y-49172000D01*
X182693000Y-49175000D01*
X182694000Y-49177000D01*
X182695000Y-49180000D01*
X182695000Y-49182000D01*
X182696000Y-49185000D01*
X182696000Y-49187000D01*
X182697000Y-49190000D01*
X182697000Y-49192000D01*
X182697000Y-49195000D01*
X182697000Y-50785000D01*
X182697000Y-50788000D01*
X182697000Y-50790000D01*
X182696000Y-50793000D01*
X182696000Y-50795000D01*
X182695000Y-50798000D01*
X182695000Y-50800000D01*
X182694000Y-50803000D01*
X182693000Y-50805000D01*
X182692000Y-50808000D01*
X182690000Y-50810000D01*
X182689000Y-50812000D01*
X182687000Y-50814000D01*
X182686000Y-50816000D01*
X182684000Y-50818000D01*
X182682000Y-50820000D01*
X182680000Y-50822000D01*
X182678000Y-50824000D01*
X182676000Y-50825000D01*
X182674000Y-50827000D01*
X182672000Y-50828000D01*
X182670000Y-50830000D01*
X182667000Y-50831000D01*
X182665000Y-50832000D01*
X182662000Y-50833000D01*
X182660000Y-50833000D01*
X182657000Y-50834000D01*
X182655000Y-50834000D01*
X182652000Y-50835000D01*
X182650000Y-50835000D01*
X182647000Y-50835000D01*
X182007000Y-50835000D01*
X182004000Y-50835000D01*
X182002000Y-50835000D01*
X181999000Y-50834000D01*
X181997000Y-50834000D01*
X181994000Y-50833000D01*
X181992000Y-50833000D01*
X181989000Y-50832000D01*
X181987000Y-50831000D01*
X181984000Y-50830000D01*
X181982000Y-50828000D01*
X181980000Y-50827000D01*
X181978000Y-50825000D01*
X181976000Y-50824000D01*
X181974000Y-50822000D01*
X181972000Y-50820000D01*
X181970000Y-50818000D01*
X181968000Y-50816000D01*
X181967000Y-50814000D01*
X181965000Y-50812000D01*
X181964000Y-50810000D01*
X181962000Y-50808000D01*
X181961000Y-50805000D01*
X181960000Y-50803000D01*
X181959000Y-50800000D01*
X181959000Y-50798000D01*
X181958000Y-50795000D01*
X181958000Y-50793000D01*
X181957000Y-50790000D01*
X181957000Y-50788000D01*
X181957000Y-50785000D01*
X181957000Y-49195000D01*
X181957000Y-49192000D01*
X181957000Y-49190000D01*
X181958000Y-49187000D01*
X181958000Y-49185000D01*
X181959000Y-49182000D01*
X181959000Y-49180000D01*
X181960000Y-49177000D01*
X181961000Y-49175000D01*
X181962000Y-49172000D01*
X181964000Y-49170000D01*
X181965000Y-49168000D01*
X181967000Y-49166000D01*
X181968000Y-49164000D01*
X181970000Y-49162000D01*
X181972000Y-49160000D01*
X181974000Y-49158000D01*
X181976000Y-49156000D01*
X181978000Y-49155000D01*
X181980000Y-49153000D01*
X181982000Y-49152000D01*
X181984000Y-49150000D01*
X181987000Y-49149000D01*
X181989000Y-49148000D01*
X181992000Y-49147000D01*
X181994000Y-49147000D01*
X181997000Y-49146000D01*
X181999000Y-49146000D01*
X182002000Y-49145000D01*
X182004000Y-49145000D01*
X182007000Y-49145000D01*
X182647000Y-49145000D01*
X182650000Y-49145000D01*
X182652000Y-49145000D01*
X182655000Y-49146000D01*
G37*
X182655000Y-54546000D02*
X182657000Y-54546000D01*
X182660000Y-54547000D01*
X182662000Y-54547000D01*
X182665000Y-54548000D01*
X182667000Y-54549000D01*
X182670000Y-54550000D01*
X182672000Y-54552000D01*
X182674000Y-54553000D01*
X182676000Y-54555000D01*
X182678000Y-54556000D01*
X182680000Y-54558000D01*
X182682000Y-54560000D01*
X182684000Y-54562000D01*
X182686000Y-54564000D01*
X182687000Y-54566000D01*
X182689000Y-54568000D01*
X182690000Y-54570000D01*
X182692000Y-54572000D01*
X182693000Y-54575000D01*
X182694000Y-54577000D01*
X182695000Y-54580000D01*
X182695000Y-54582000D01*
X182696000Y-54585000D01*
X182696000Y-54587000D01*
X182697000Y-54590000D01*
X182697000Y-54592000D01*
X182697000Y-54595000D01*
X182697000Y-56185000D01*
X182697000Y-56188000D01*
X182697000Y-56190000D01*
X182696000Y-56193000D01*
X182696000Y-56195000D01*
X182695000Y-56198000D01*
X182695000Y-56200000D01*
X182694000Y-56203000D01*
X182693000Y-56205000D01*
X182692000Y-56208000D01*
X182690000Y-56210000D01*
X182689000Y-56212000D01*
X182687000Y-56214000D01*
X182686000Y-56216000D01*
X182684000Y-56218000D01*
X182682000Y-56220000D01*
X182680000Y-56222000D01*
X182678000Y-56224000D01*
X182676000Y-56225000D01*
X182674000Y-56227000D01*
X182672000Y-56228000D01*
X182670000Y-56230000D01*
X182667000Y-56231000D01*
X182665000Y-56232000D01*
X182662000Y-56233000D01*
X182660000Y-56233000D01*
X182657000Y-56234000D01*
X182655000Y-56234000D01*
X182652000Y-56235000D01*
X182650000Y-56235000D01*
X182647000Y-56235000D01*
X182007000Y-56235000D01*
X182004000Y-56235000D01*
X182002000Y-56235000D01*
X181999000Y-56234000D01*
X181997000Y-56234000D01*
X181994000Y-56233000D01*
X181992000Y-56233000D01*
X181989000Y-56232000D01*
X181987000Y-56231000D01*
X181984000Y-56230000D01*
X181982000Y-56228000D01*
X181980000Y-56227000D01*
X181978000Y-56225000D01*
X181976000Y-56224000D01*
X181974000Y-56222000D01*
X181972000Y-56220000D01*
X181970000Y-56218000D01*
X181968000Y-56216000D01*
X181967000Y-56214000D01*
X181965000Y-56212000D01*
X181964000Y-56210000D01*
X181962000Y-56208000D01*
X181961000Y-56205000D01*
X181960000Y-56203000D01*
X181959000Y-56200000D01*
X181959000Y-56198000D01*
X181958000Y-56195000D01*
X181958000Y-56193000D01*
X181957000Y-56190000D01*
X181957000Y-56188000D01*
X181957000Y-56185000D01*
X181957000Y-54595000D01*
X181957000Y-54592000D01*
X181957000Y-54590000D01*
X181958000Y-54587000D01*
X181958000Y-54585000D01*
X181959000Y-54582000D01*
X181959000Y-54580000D01*
X181960000Y-54577000D01*
X181961000Y-54575000D01*
X181962000Y-54572000D01*
X181964000Y-54570000D01*
X181965000Y-54568000D01*
X181967000Y-54566000D01*
X181968000Y-54564000D01*
X181970000Y-54562000D01*
X181972000Y-54560000D01*
X181974000Y-54558000D01*
X181976000Y-54556000D01*
X181978000Y-54555000D01*
X181980000Y-54553000D01*
X181982000Y-54552000D01*
X181984000Y-54550000D01*
X181987000Y-54549000D01*
X181989000Y-54548000D01*
X181992000Y-54547000D01*
X181994000Y-54547000D01*
X181997000Y-54546000D01*
X181999000Y-54546000D01*
X182002000Y-54545000D01*
X182004000Y-54545000D01*
X182007000Y-54545000D01*
X182647000Y-54545000D01*
X182650000Y-54545000D01*
X182652000Y-54545000D01*
X182655000Y-54546000D01*
G36*
X182655000Y-54546000D02*
G01*
X182657000Y-54546000D01*
X182660000Y-54547000D01*
X182662000Y-54547000D01*
X182665000Y-54548000D01*
X182667000Y-54549000D01*
X182670000Y-54550000D01*
X182672000Y-54552000D01*
X182674000Y-54553000D01*
X182676000Y-54555000D01*
X182678000Y-54556000D01*
X182680000Y-54558000D01*
X182682000Y-54560000D01*
X182684000Y-54562000D01*
X182686000Y-54564000D01*
X182687000Y-54566000D01*
X182689000Y-54568000D01*
X182690000Y-54570000D01*
X182692000Y-54572000D01*
X182693000Y-54575000D01*
X182694000Y-54577000D01*
X182695000Y-54580000D01*
X182695000Y-54582000D01*
X182696000Y-54585000D01*
X182696000Y-54587000D01*
X182697000Y-54590000D01*
X182697000Y-54592000D01*
X182697000Y-54595000D01*
X182697000Y-56185000D01*
X182697000Y-56188000D01*
X182697000Y-56190000D01*
X182696000Y-56193000D01*
X182696000Y-56195000D01*
X182695000Y-56198000D01*
X182695000Y-56200000D01*
X182694000Y-56203000D01*
X182693000Y-56205000D01*
X182692000Y-56208000D01*
X182690000Y-56210000D01*
X182689000Y-56212000D01*
X182687000Y-56214000D01*
X182686000Y-56216000D01*
X182684000Y-56218000D01*
X182682000Y-56220000D01*
X182680000Y-56222000D01*
X182678000Y-56224000D01*
X182676000Y-56225000D01*
X182674000Y-56227000D01*
X182672000Y-56228000D01*
X182670000Y-56230000D01*
X182667000Y-56231000D01*
X182665000Y-56232000D01*
X182662000Y-56233000D01*
X182660000Y-56233000D01*
X182657000Y-56234000D01*
X182655000Y-56234000D01*
X182652000Y-56235000D01*
X182650000Y-56235000D01*
X182647000Y-56235000D01*
X182007000Y-56235000D01*
X182004000Y-56235000D01*
X182002000Y-56235000D01*
X181999000Y-56234000D01*
X181997000Y-56234000D01*
X181994000Y-56233000D01*
X181992000Y-56233000D01*
X181989000Y-56232000D01*
X181987000Y-56231000D01*
X181984000Y-56230000D01*
X181982000Y-56228000D01*
X181980000Y-56227000D01*
X181978000Y-56225000D01*
X181976000Y-56224000D01*
X181974000Y-56222000D01*
X181972000Y-56220000D01*
X181970000Y-56218000D01*
X181968000Y-56216000D01*
X181967000Y-56214000D01*
X181965000Y-56212000D01*
X181964000Y-56210000D01*
X181962000Y-56208000D01*
X181961000Y-56205000D01*
X181960000Y-56203000D01*
X181959000Y-56200000D01*
X181959000Y-56198000D01*
X181958000Y-56195000D01*
X181958000Y-56193000D01*
X181957000Y-56190000D01*
X181957000Y-56188000D01*
X181957000Y-56185000D01*
X181957000Y-54595000D01*
X181957000Y-54592000D01*
X181957000Y-54590000D01*
X181958000Y-54587000D01*
X181958000Y-54585000D01*
X181959000Y-54582000D01*
X181959000Y-54580000D01*
X181960000Y-54577000D01*
X181961000Y-54575000D01*
X181962000Y-54572000D01*
X181964000Y-54570000D01*
X181965000Y-54568000D01*
X181967000Y-54566000D01*
X181968000Y-54564000D01*
X181970000Y-54562000D01*
X181972000Y-54560000D01*
X181974000Y-54558000D01*
X181976000Y-54556000D01*
X181978000Y-54555000D01*
X181980000Y-54553000D01*
X181982000Y-54552000D01*
X181984000Y-54550000D01*
X181987000Y-54549000D01*
X181989000Y-54548000D01*
X181992000Y-54547000D01*
X181994000Y-54547000D01*
X181997000Y-54546000D01*
X181999000Y-54546000D01*
X182002000Y-54545000D01*
X182004000Y-54545000D01*
X182007000Y-54545000D01*
X182647000Y-54545000D01*
X182650000Y-54545000D01*
X182652000Y-54545000D01*
X182655000Y-54546000D01*
G37*
X183925000Y-49146000D02*
X183927000Y-49146000D01*
X183930000Y-49147000D01*
X183932000Y-49147000D01*
X183935000Y-49148000D01*
X183937000Y-49149000D01*
X183940000Y-49150000D01*
X183942000Y-49152000D01*
X183944000Y-49153000D01*
X183946000Y-49155000D01*
X183948000Y-49156000D01*
X183950000Y-49158000D01*
X183952000Y-49160000D01*
X183954000Y-49162000D01*
X183956000Y-49164000D01*
X183957000Y-49166000D01*
X183959000Y-49168000D01*
X183960000Y-49170000D01*
X183962000Y-49172000D01*
X183963000Y-49175000D01*
X183964000Y-49177000D01*
X183965000Y-49180000D01*
X183965000Y-49182000D01*
X183966000Y-49185000D01*
X183966000Y-49187000D01*
X183967000Y-49190000D01*
X183967000Y-49192000D01*
X183967000Y-49195000D01*
X183967000Y-50785000D01*
X183967000Y-50788000D01*
X183967000Y-50790000D01*
X183966000Y-50793000D01*
X183966000Y-50795000D01*
X183965000Y-50798000D01*
X183965000Y-50800000D01*
X183964000Y-50803000D01*
X183963000Y-50805000D01*
X183962000Y-50808000D01*
X183960000Y-50810000D01*
X183959000Y-50812000D01*
X183957000Y-50814000D01*
X183956000Y-50816000D01*
X183954000Y-50818000D01*
X183952000Y-50820000D01*
X183950000Y-50822000D01*
X183948000Y-50824000D01*
X183946000Y-50825000D01*
X183944000Y-50827000D01*
X183942000Y-50828000D01*
X183940000Y-50830000D01*
X183937000Y-50831000D01*
X183935000Y-50832000D01*
X183932000Y-50833000D01*
X183930000Y-50833000D01*
X183927000Y-50834000D01*
X183925000Y-50834000D01*
X183922000Y-50835000D01*
X183920000Y-50835000D01*
X183917000Y-50835000D01*
X183277000Y-50835000D01*
X183274000Y-50835000D01*
X183272000Y-50835000D01*
X183269000Y-50834000D01*
X183267000Y-50834000D01*
X183264000Y-50833000D01*
X183262000Y-50833000D01*
X183259000Y-50832000D01*
X183257000Y-50831000D01*
X183254000Y-50830000D01*
X183252000Y-50828000D01*
X183250000Y-50827000D01*
X183248000Y-50825000D01*
X183246000Y-50824000D01*
X183244000Y-50822000D01*
X183242000Y-50820000D01*
X183240000Y-50818000D01*
X183238000Y-50816000D01*
X183237000Y-50814000D01*
X183235000Y-50812000D01*
X183234000Y-50810000D01*
X183232000Y-50808000D01*
X183231000Y-50805000D01*
X183230000Y-50803000D01*
X183229000Y-50800000D01*
X183229000Y-50798000D01*
X183228000Y-50795000D01*
X183228000Y-50793000D01*
X183227000Y-50790000D01*
X183227000Y-50788000D01*
X183227000Y-50785000D01*
X183227000Y-49195000D01*
X183227000Y-49192000D01*
X183227000Y-49190000D01*
X183228000Y-49187000D01*
X183228000Y-49185000D01*
X183229000Y-49182000D01*
X183229000Y-49180000D01*
X183230000Y-49177000D01*
X183231000Y-49175000D01*
X183232000Y-49172000D01*
X183234000Y-49170000D01*
X183235000Y-49168000D01*
X183237000Y-49166000D01*
X183238000Y-49164000D01*
X183240000Y-49162000D01*
X183242000Y-49160000D01*
X183244000Y-49158000D01*
X183246000Y-49156000D01*
X183248000Y-49155000D01*
X183250000Y-49153000D01*
X183252000Y-49152000D01*
X183254000Y-49150000D01*
X183257000Y-49149000D01*
X183259000Y-49148000D01*
X183262000Y-49147000D01*
X183264000Y-49147000D01*
X183267000Y-49146000D01*
X183269000Y-49146000D01*
X183272000Y-49145000D01*
X183274000Y-49145000D01*
X183277000Y-49145000D01*
X183917000Y-49145000D01*
X183920000Y-49145000D01*
X183922000Y-49145000D01*
X183925000Y-49146000D01*
G36*
X183925000Y-49146000D02*
G01*
X183927000Y-49146000D01*
X183930000Y-49147000D01*
X183932000Y-49147000D01*
X183935000Y-49148000D01*
X183937000Y-49149000D01*
X183940000Y-49150000D01*
X183942000Y-49152000D01*
X183944000Y-49153000D01*
X183946000Y-49155000D01*
X183948000Y-49156000D01*
X183950000Y-49158000D01*
X183952000Y-49160000D01*
X183954000Y-49162000D01*
X183956000Y-49164000D01*
X183957000Y-49166000D01*
X183959000Y-49168000D01*
X183960000Y-49170000D01*
X183962000Y-49172000D01*
X183963000Y-49175000D01*
X183964000Y-49177000D01*
X183965000Y-49180000D01*
X183965000Y-49182000D01*
X183966000Y-49185000D01*
X183966000Y-49187000D01*
X183967000Y-49190000D01*
X183967000Y-49192000D01*
X183967000Y-49195000D01*
X183967000Y-50785000D01*
X183967000Y-50788000D01*
X183967000Y-50790000D01*
X183966000Y-50793000D01*
X183966000Y-50795000D01*
X183965000Y-50798000D01*
X183965000Y-50800000D01*
X183964000Y-50803000D01*
X183963000Y-50805000D01*
X183962000Y-50808000D01*
X183960000Y-50810000D01*
X183959000Y-50812000D01*
X183957000Y-50814000D01*
X183956000Y-50816000D01*
X183954000Y-50818000D01*
X183952000Y-50820000D01*
X183950000Y-50822000D01*
X183948000Y-50824000D01*
X183946000Y-50825000D01*
X183944000Y-50827000D01*
X183942000Y-50828000D01*
X183940000Y-50830000D01*
X183937000Y-50831000D01*
X183935000Y-50832000D01*
X183932000Y-50833000D01*
X183930000Y-50833000D01*
X183927000Y-50834000D01*
X183925000Y-50834000D01*
X183922000Y-50835000D01*
X183920000Y-50835000D01*
X183917000Y-50835000D01*
X183277000Y-50835000D01*
X183274000Y-50835000D01*
X183272000Y-50835000D01*
X183269000Y-50834000D01*
X183267000Y-50834000D01*
X183264000Y-50833000D01*
X183262000Y-50833000D01*
X183259000Y-50832000D01*
X183257000Y-50831000D01*
X183254000Y-50830000D01*
X183252000Y-50828000D01*
X183250000Y-50827000D01*
X183248000Y-50825000D01*
X183246000Y-50824000D01*
X183244000Y-50822000D01*
X183242000Y-50820000D01*
X183240000Y-50818000D01*
X183238000Y-50816000D01*
X183237000Y-50814000D01*
X183235000Y-50812000D01*
X183234000Y-50810000D01*
X183232000Y-50808000D01*
X183231000Y-50805000D01*
X183230000Y-50803000D01*
X183229000Y-50800000D01*
X183229000Y-50798000D01*
X183228000Y-50795000D01*
X183228000Y-50793000D01*
X183227000Y-50790000D01*
X183227000Y-50788000D01*
X183227000Y-50785000D01*
X183227000Y-49195000D01*
X183227000Y-49192000D01*
X183227000Y-49190000D01*
X183228000Y-49187000D01*
X183228000Y-49185000D01*
X183229000Y-49182000D01*
X183229000Y-49180000D01*
X183230000Y-49177000D01*
X183231000Y-49175000D01*
X183232000Y-49172000D01*
X183234000Y-49170000D01*
X183235000Y-49168000D01*
X183237000Y-49166000D01*
X183238000Y-49164000D01*
X183240000Y-49162000D01*
X183242000Y-49160000D01*
X183244000Y-49158000D01*
X183246000Y-49156000D01*
X183248000Y-49155000D01*
X183250000Y-49153000D01*
X183252000Y-49152000D01*
X183254000Y-49150000D01*
X183257000Y-49149000D01*
X183259000Y-49148000D01*
X183262000Y-49147000D01*
X183264000Y-49147000D01*
X183267000Y-49146000D01*
X183269000Y-49146000D01*
X183272000Y-49145000D01*
X183274000Y-49145000D01*
X183277000Y-49145000D01*
X183917000Y-49145000D01*
X183920000Y-49145000D01*
X183922000Y-49145000D01*
X183925000Y-49146000D01*
G37*
X183925000Y-54546000D02*
X183927000Y-54546000D01*
X183930000Y-54547000D01*
X183932000Y-54547000D01*
X183935000Y-54548000D01*
X183937000Y-54549000D01*
X183940000Y-54550000D01*
X183942000Y-54552000D01*
X183944000Y-54553000D01*
X183946000Y-54555000D01*
X183948000Y-54556000D01*
X183950000Y-54558000D01*
X183952000Y-54560000D01*
X183954000Y-54562000D01*
X183956000Y-54564000D01*
X183957000Y-54566000D01*
X183959000Y-54568000D01*
X183960000Y-54570000D01*
X183962000Y-54572000D01*
X183963000Y-54575000D01*
X183964000Y-54577000D01*
X183965000Y-54580000D01*
X183965000Y-54582000D01*
X183966000Y-54585000D01*
X183966000Y-54587000D01*
X183967000Y-54590000D01*
X183967000Y-54592000D01*
X183967000Y-54595000D01*
X183967000Y-56185000D01*
X183967000Y-56188000D01*
X183967000Y-56190000D01*
X183966000Y-56193000D01*
X183966000Y-56195000D01*
X183965000Y-56198000D01*
X183965000Y-56200000D01*
X183964000Y-56203000D01*
X183963000Y-56205000D01*
X183962000Y-56208000D01*
X183960000Y-56210000D01*
X183959000Y-56212000D01*
X183957000Y-56214000D01*
X183956000Y-56216000D01*
X183954000Y-56218000D01*
X183952000Y-56220000D01*
X183950000Y-56222000D01*
X183948000Y-56224000D01*
X183946000Y-56225000D01*
X183944000Y-56227000D01*
X183942000Y-56228000D01*
X183940000Y-56230000D01*
X183937000Y-56231000D01*
X183935000Y-56232000D01*
X183932000Y-56233000D01*
X183930000Y-56233000D01*
X183927000Y-56234000D01*
X183925000Y-56234000D01*
X183922000Y-56235000D01*
X183920000Y-56235000D01*
X183917000Y-56235000D01*
X183277000Y-56235000D01*
X183274000Y-56235000D01*
X183272000Y-56235000D01*
X183269000Y-56234000D01*
X183267000Y-56234000D01*
X183264000Y-56233000D01*
X183262000Y-56233000D01*
X183259000Y-56232000D01*
X183257000Y-56231000D01*
X183254000Y-56230000D01*
X183252000Y-56228000D01*
X183250000Y-56227000D01*
X183248000Y-56225000D01*
X183246000Y-56224000D01*
X183244000Y-56222000D01*
X183242000Y-56220000D01*
X183240000Y-56218000D01*
X183238000Y-56216000D01*
X183237000Y-56214000D01*
X183235000Y-56212000D01*
X183234000Y-56210000D01*
X183232000Y-56208000D01*
X183231000Y-56205000D01*
X183230000Y-56203000D01*
X183229000Y-56200000D01*
X183229000Y-56198000D01*
X183228000Y-56195000D01*
X183228000Y-56193000D01*
X183227000Y-56190000D01*
X183227000Y-56188000D01*
X183227000Y-56185000D01*
X183227000Y-54595000D01*
X183227000Y-54592000D01*
X183227000Y-54590000D01*
X183228000Y-54587000D01*
X183228000Y-54585000D01*
X183229000Y-54582000D01*
X183229000Y-54580000D01*
X183230000Y-54577000D01*
X183231000Y-54575000D01*
X183232000Y-54572000D01*
X183234000Y-54570000D01*
X183235000Y-54568000D01*
X183237000Y-54566000D01*
X183238000Y-54564000D01*
X183240000Y-54562000D01*
X183242000Y-54560000D01*
X183244000Y-54558000D01*
X183246000Y-54556000D01*
X183248000Y-54555000D01*
X183250000Y-54553000D01*
X183252000Y-54552000D01*
X183254000Y-54550000D01*
X183257000Y-54549000D01*
X183259000Y-54548000D01*
X183262000Y-54547000D01*
X183264000Y-54547000D01*
X183267000Y-54546000D01*
X183269000Y-54546000D01*
X183272000Y-54545000D01*
X183274000Y-54545000D01*
X183277000Y-54545000D01*
X183917000Y-54545000D01*
X183920000Y-54545000D01*
X183922000Y-54545000D01*
X183925000Y-54546000D01*
G36*
X183925000Y-54546000D02*
G01*
X183927000Y-54546000D01*
X183930000Y-54547000D01*
X183932000Y-54547000D01*
X183935000Y-54548000D01*
X183937000Y-54549000D01*
X183940000Y-54550000D01*
X183942000Y-54552000D01*
X183944000Y-54553000D01*
X183946000Y-54555000D01*
X183948000Y-54556000D01*
X183950000Y-54558000D01*
X183952000Y-54560000D01*
X183954000Y-54562000D01*
X183956000Y-54564000D01*
X183957000Y-54566000D01*
X183959000Y-54568000D01*
X183960000Y-54570000D01*
X183962000Y-54572000D01*
X183963000Y-54575000D01*
X183964000Y-54577000D01*
X183965000Y-54580000D01*
X183965000Y-54582000D01*
X183966000Y-54585000D01*
X183966000Y-54587000D01*
X183967000Y-54590000D01*
X183967000Y-54592000D01*
X183967000Y-54595000D01*
X183967000Y-56185000D01*
X183967000Y-56188000D01*
X183967000Y-56190000D01*
X183966000Y-56193000D01*
X183966000Y-56195000D01*
X183965000Y-56198000D01*
X183965000Y-56200000D01*
X183964000Y-56203000D01*
X183963000Y-56205000D01*
X183962000Y-56208000D01*
X183960000Y-56210000D01*
X183959000Y-56212000D01*
X183957000Y-56214000D01*
X183956000Y-56216000D01*
X183954000Y-56218000D01*
X183952000Y-56220000D01*
X183950000Y-56222000D01*
X183948000Y-56224000D01*
X183946000Y-56225000D01*
X183944000Y-56227000D01*
X183942000Y-56228000D01*
X183940000Y-56230000D01*
X183937000Y-56231000D01*
X183935000Y-56232000D01*
X183932000Y-56233000D01*
X183930000Y-56233000D01*
X183927000Y-56234000D01*
X183925000Y-56234000D01*
X183922000Y-56235000D01*
X183920000Y-56235000D01*
X183917000Y-56235000D01*
X183277000Y-56235000D01*
X183274000Y-56235000D01*
X183272000Y-56235000D01*
X183269000Y-56234000D01*
X183267000Y-56234000D01*
X183264000Y-56233000D01*
X183262000Y-56233000D01*
X183259000Y-56232000D01*
X183257000Y-56231000D01*
X183254000Y-56230000D01*
X183252000Y-56228000D01*
X183250000Y-56227000D01*
X183248000Y-56225000D01*
X183246000Y-56224000D01*
X183244000Y-56222000D01*
X183242000Y-56220000D01*
X183240000Y-56218000D01*
X183238000Y-56216000D01*
X183237000Y-56214000D01*
X183235000Y-56212000D01*
X183234000Y-56210000D01*
X183232000Y-56208000D01*
X183231000Y-56205000D01*
X183230000Y-56203000D01*
X183229000Y-56200000D01*
X183229000Y-56198000D01*
X183228000Y-56195000D01*
X183228000Y-56193000D01*
X183227000Y-56190000D01*
X183227000Y-56188000D01*
X183227000Y-56185000D01*
X183227000Y-54595000D01*
X183227000Y-54592000D01*
X183227000Y-54590000D01*
X183228000Y-54587000D01*
X183228000Y-54585000D01*
X183229000Y-54582000D01*
X183229000Y-54580000D01*
X183230000Y-54577000D01*
X183231000Y-54575000D01*
X183232000Y-54572000D01*
X183234000Y-54570000D01*
X183235000Y-54568000D01*
X183237000Y-54566000D01*
X183238000Y-54564000D01*
X183240000Y-54562000D01*
X183242000Y-54560000D01*
X183244000Y-54558000D01*
X183246000Y-54556000D01*
X183248000Y-54555000D01*
X183250000Y-54553000D01*
X183252000Y-54552000D01*
X183254000Y-54550000D01*
X183257000Y-54549000D01*
X183259000Y-54548000D01*
X183262000Y-54547000D01*
X183264000Y-54547000D01*
X183267000Y-54546000D01*
X183269000Y-54546000D01*
X183272000Y-54545000D01*
X183274000Y-54545000D01*
X183277000Y-54545000D01*
X183917000Y-54545000D01*
X183920000Y-54545000D01*
X183922000Y-54545000D01*
X183925000Y-54546000D01*
G37*
X185195000Y-49146000D02*
X185197000Y-49146000D01*
X185200000Y-49147000D01*
X185202000Y-49147000D01*
X185205000Y-49148000D01*
X185207000Y-49149000D01*
X185210000Y-49150000D01*
X185212000Y-49152000D01*
X185214000Y-49153000D01*
X185216000Y-49155000D01*
X185218000Y-49156000D01*
X185220000Y-49158000D01*
X185222000Y-49160000D01*
X185224000Y-49162000D01*
X185226000Y-49164000D01*
X185227000Y-49166000D01*
X185229000Y-49168000D01*
X185230000Y-49170000D01*
X185232000Y-49172000D01*
X185233000Y-49175000D01*
X185234000Y-49177000D01*
X185235000Y-49180000D01*
X185235000Y-49182000D01*
X185236000Y-49185000D01*
X185236000Y-49187000D01*
X185237000Y-49190000D01*
X185237000Y-49192000D01*
X185237000Y-49195000D01*
X185237000Y-50785000D01*
X185237000Y-50788000D01*
X185237000Y-50790000D01*
X185236000Y-50793000D01*
X185236000Y-50795000D01*
X185235000Y-50798000D01*
X185235000Y-50800000D01*
X185234000Y-50803000D01*
X185233000Y-50805000D01*
X185232000Y-50808000D01*
X185230000Y-50810000D01*
X185229000Y-50812000D01*
X185227000Y-50814000D01*
X185226000Y-50816000D01*
X185224000Y-50818000D01*
X185222000Y-50820000D01*
X185220000Y-50822000D01*
X185218000Y-50824000D01*
X185216000Y-50825000D01*
X185214000Y-50827000D01*
X185212000Y-50828000D01*
X185210000Y-50830000D01*
X185207000Y-50831000D01*
X185205000Y-50832000D01*
X185202000Y-50833000D01*
X185200000Y-50833000D01*
X185197000Y-50834000D01*
X185195000Y-50834000D01*
X185192000Y-50835000D01*
X185190000Y-50835000D01*
X185187000Y-50835000D01*
X184547000Y-50835000D01*
X184544000Y-50835000D01*
X184542000Y-50835000D01*
X184539000Y-50834000D01*
X184537000Y-50834000D01*
X184534000Y-50833000D01*
X184532000Y-50833000D01*
X184529000Y-50832000D01*
X184527000Y-50831000D01*
X184524000Y-50830000D01*
X184522000Y-50828000D01*
X184520000Y-50827000D01*
X184518000Y-50825000D01*
X184516000Y-50824000D01*
X184514000Y-50822000D01*
X184512000Y-50820000D01*
X184510000Y-50818000D01*
X184508000Y-50816000D01*
X184507000Y-50814000D01*
X184505000Y-50812000D01*
X184504000Y-50810000D01*
X184502000Y-50808000D01*
X184501000Y-50805000D01*
X184500000Y-50803000D01*
X184499000Y-50800000D01*
X184499000Y-50798000D01*
X184498000Y-50795000D01*
X184498000Y-50793000D01*
X184497000Y-50790000D01*
X184497000Y-50788000D01*
X184497000Y-50785000D01*
X184497000Y-49195000D01*
X184497000Y-49192000D01*
X184497000Y-49190000D01*
X184498000Y-49187000D01*
X184498000Y-49185000D01*
X184499000Y-49182000D01*
X184499000Y-49180000D01*
X184500000Y-49177000D01*
X184501000Y-49175000D01*
X184502000Y-49172000D01*
X184504000Y-49170000D01*
X184505000Y-49168000D01*
X184507000Y-49166000D01*
X184508000Y-49164000D01*
X184510000Y-49162000D01*
X184512000Y-49160000D01*
X184514000Y-49158000D01*
X184516000Y-49156000D01*
X184518000Y-49155000D01*
X184520000Y-49153000D01*
X184522000Y-49152000D01*
X184524000Y-49150000D01*
X184527000Y-49149000D01*
X184529000Y-49148000D01*
X184532000Y-49147000D01*
X184534000Y-49147000D01*
X184537000Y-49146000D01*
X184539000Y-49146000D01*
X184542000Y-49145000D01*
X184544000Y-49145000D01*
X184547000Y-49145000D01*
X185187000Y-49145000D01*
X185190000Y-49145000D01*
X185192000Y-49145000D01*
X185195000Y-49146000D01*
G36*
X185195000Y-49146000D02*
G01*
X185197000Y-49146000D01*
X185200000Y-49147000D01*
X185202000Y-49147000D01*
X185205000Y-49148000D01*
X185207000Y-49149000D01*
X185210000Y-49150000D01*
X185212000Y-49152000D01*
X185214000Y-49153000D01*
X185216000Y-49155000D01*
X185218000Y-49156000D01*
X185220000Y-49158000D01*
X185222000Y-49160000D01*
X185224000Y-49162000D01*
X185226000Y-49164000D01*
X185227000Y-49166000D01*
X185229000Y-49168000D01*
X185230000Y-49170000D01*
X185232000Y-49172000D01*
X185233000Y-49175000D01*
X185234000Y-49177000D01*
X185235000Y-49180000D01*
X185235000Y-49182000D01*
X185236000Y-49185000D01*
X185236000Y-49187000D01*
X185237000Y-49190000D01*
X185237000Y-49192000D01*
X185237000Y-49195000D01*
X185237000Y-50785000D01*
X185237000Y-50788000D01*
X185237000Y-50790000D01*
X185236000Y-50793000D01*
X185236000Y-50795000D01*
X185235000Y-50798000D01*
X185235000Y-50800000D01*
X185234000Y-50803000D01*
X185233000Y-50805000D01*
X185232000Y-50808000D01*
X185230000Y-50810000D01*
X185229000Y-50812000D01*
X185227000Y-50814000D01*
X185226000Y-50816000D01*
X185224000Y-50818000D01*
X185222000Y-50820000D01*
X185220000Y-50822000D01*
X185218000Y-50824000D01*
X185216000Y-50825000D01*
X185214000Y-50827000D01*
X185212000Y-50828000D01*
X185210000Y-50830000D01*
X185207000Y-50831000D01*
X185205000Y-50832000D01*
X185202000Y-50833000D01*
X185200000Y-50833000D01*
X185197000Y-50834000D01*
X185195000Y-50834000D01*
X185192000Y-50835000D01*
X185190000Y-50835000D01*
X185187000Y-50835000D01*
X184547000Y-50835000D01*
X184544000Y-50835000D01*
X184542000Y-50835000D01*
X184539000Y-50834000D01*
X184537000Y-50834000D01*
X184534000Y-50833000D01*
X184532000Y-50833000D01*
X184529000Y-50832000D01*
X184527000Y-50831000D01*
X184524000Y-50830000D01*
X184522000Y-50828000D01*
X184520000Y-50827000D01*
X184518000Y-50825000D01*
X184516000Y-50824000D01*
X184514000Y-50822000D01*
X184512000Y-50820000D01*
X184510000Y-50818000D01*
X184508000Y-50816000D01*
X184507000Y-50814000D01*
X184505000Y-50812000D01*
X184504000Y-50810000D01*
X184502000Y-50808000D01*
X184501000Y-50805000D01*
X184500000Y-50803000D01*
X184499000Y-50800000D01*
X184499000Y-50798000D01*
X184498000Y-50795000D01*
X184498000Y-50793000D01*
X184497000Y-50790000D01*
X184497000Y-50788000D01*
X184497000Y-50785000D01*
X184497000Y-49195000D01*
X184497000Y-49192000D01*
X184497000Y-49190000D01*
X184498000Y-49187000D01*
X184498000Y-49185000D01*
X184499000Y-49182000D01*
X184499000Y-49180000D01*
X184500000Y-49177000D01*
X184501000Y-49175000D01*
X184502000Y-49172000D01*
X184504000Y-49170000D01*
X184505000Y-49168000D01*
X184507000Y-49166000D01*
X184508000Y-49164000D01*
X184510000Y-49162000D01*
X184512000Y-49160000D01*
X184514000Y-49158000D01*
X184516000Y-49156000D01*
X184518000Y-49155000D01*
X184520000Y-49153000D01*
X184522000Y-49152000D01*
X184524000Y-49150000D01*
X184527000Y-49149000D01*
X184529000Y-49148000D01*
X184532000Y-49147000D01*
X184534000Y-49147000D01*
X184537000Y-49146000D01*
X184539000Y-49146000D01*
X184542000Y-49145000D01*
X184544000Y-49145000D01*
X184547000Y-49145000D01*
X185187000Y-49145000D01*
X185190000Y-49145000D01*
X185192000Y-49145000D01*
X185195000Y-49146000D01*
G37*
X185195000Y-54546000D02*
X185197000Y-54546000D01*
X185200000Y-54547000D01*
X185202000Y-54547000D01*
X185205000Y-54548000D01*
X185207000Y-54549000D01*
X185210000Y-54550000D01*
X185212000Y-54552000D01*
X185214000Y-54553000D01*
X185216000Y-54555000D01*
X185218000Y-54556000D01*
X185220000Y-54558000D01*
X185222000Y-54560000D01*
X185224000Y-54562000D01*
X185226000Y-54564000D01*
X185227000Y-54566000D01*
X185229000Y-54568000D01*
X185230000Y-54570000D01*
X185232000Y-54572000D01*
X185233000Y-54575000D01*
X185234000Y-54577000D01*
X185235000Y-54580000D01*
X185235000Y-54582000D01*
X185236000Y-54585000D01*
X185236000Y-54587000D01*
X185237000Y-54590000D01*
X185237000Y-54592000D01*
X185237000Y-54595000D01*
X185237000Y-56185000D01*
X185237000Y-56188000D01*
X185237000Y-56190000D01*
X185236000Y-56193000D01*
X185236000Y-56195000D01*
X185235000Y-56198000D01*
X185235000Y-56200000D01*
X185234000Y-56203000D01*
X185233000Y-56205000D01*
X185232000Y-56208000D01*
X185230000Y-56210000D01*
X185229000Y-56212000D01*
X185227000Y-56214000D01*
X185226000Y-56216000D01*
X185224000Y-56218000D01*
X185222000Y-56220000D01*
X185220000Y-56222000D01*
X185218000Y-56224000D01*
X185216000Y-56225000D01*
X185214000Y-56227000D01*
X185212000Y-56228000D01*
X185210000Y-56230000D01*
X185207000Y-56231000D01*
X185205000Y-56232000D01*
X185202000Y-56233000D01*
X185200000Y-56233000D01*
X185197000Y-56234000D01*
X185195000Y-56234000D01*
X185192000Y-56235000D01*
X185190000Y-56235000D01*
X185187000Y-56235000D01*
X184547000Y-56235000D01*
X184544000Y-56235000D01*
X184542000Y-56235000D01*
X184539000Y-56234000D01*
X184537000Y-56234000D01*
X184534000Y-56233000D01*
X184532000Y-56233000D01*
X184529000Y-56232000D01*
X184527000Y-56231000D01*
X184524000Y-56230000D01*
X184522000Y-56228000D01*
X184520000Y-56227000D01*
X184518000Y-56225000D01*
X184516000Y-56224000D01*
X184514000Y-56222000D01*
X184512000Y-56220000D01*
X184510000Y-56218000D01*
X184508000Y-56216000D01*
X184507000Y-56214000D01*
X184505000Y-56212000D01*
X184504000Y-56210000D01*
X184502000Y-56208000D01*
X184501000Y-56205000D01*
X184500000Y-56203000D01*
X184499000Y-56200000D01*
X184499000Y-56198000D01*
X184498000Y-56195000D01*
X184498000Y-56193000D01*
X184497000Y-56190000D01*
X184497000Y-56188000D01*
X184497000Y-56185000D01*
X184497000Y-54595000D01*
X184497000Y-54592000D01*
X184497000Y-54590000D01*
X184498000Y-54587000D01*
X184498000Y-54585000D01*
X184499000Y-54582000D01*
X184499000Y-54580000D01*
X184500000Y-54577000D01*
X184501000Y-54575000D01*
X184502000Y-54572000D01*
X184504000Y-54570000D01*
X184505000Y-54568000D01*
X184507000Y-54566000D01*
X184508000Y-54564000D01*
X184510000Y-54562000D01*
X184512000Y-54560000D01*
X184514000Y-54558000D01*
X184516000Y-54556000D01*
X184518000Y-54555000D01*
X184520000Y-54553000D01*
X184522000Y-54552000D01*
X184524000Y-54550000D01*
X184527000Y-54549000D01*
X184529000Y-54548000D01*
X184532000Y-54547000D01*
X184534000Y-54547000D01*
X184537000Y-54546000D01*
X184539000Y-54546000D01*
X184542000Y-54545000D01*
X184544000Y-54545000D01*
X184547000Y-54545000D01*
X185187000Y-54545000D01*
X185190000Y-54545000D01*
X185192000Y-54545000D01*
X185195000Y-54546000D01*
G36*
X185195000Y-54546000D02*
G01*
X185197000Y-54546000D01*
X185200000Y-54547000D01*
X185202000Y-54547000D01*
X185205000Y-54548000D01*
X185207000Y-54549000D01*
X185210000Y-54550000D01*
X185212000Y-54552000D01*
X185214000Y-54553000D01*
X185216000Y-54555000D01*
X185218000Y-54556000D01*
X185220000Y-54558000D01*
X185222000Y-54560000D01*
X185224000Y-54562000D01*
X185226000Y-54564000D01*
X185227000Y-54566000D01*
X185229000Y-54568000D01*
X185230000Y-54570000D01*
X185232000Y-54572000D01*
X185233000Y-54575000D01*
X185234000Y-54577000D01*
X185235000Y-54580000D01*
X185235000Y-54582000D01*
X185236000Y-54585000D01*
X185236000Y-54587000D01*
X185237000Y-54590000D01*
X185237000Y-54592000D01*
X185237000Y-54595000D01*
X185237000Y-56185000D01*
X185237000Y-56188000D01*
X185237000Y-56190000D01*
X185236000Y-56193000D01*
X185236000Y-56195000D01*
X185235000Y-56198000D01*
X185235000Y-56200000D01*
X185234000Y-56203000D01*
X185233000Y-56205000D01*
X185232000Y-56208000D01*
X185230000Y-56210000D01*
X185229000Y-56212000D01*
X185227000Y-56214000D01*
X185226000Y-56216000D01*
X185224000Y-56218000D01*
X185222000Y-56220000D01*
X185220000Y-56222000D01*
X185218000Y-56224000D01*
X185216000Y-56225000D01*
X185214000Y-56227000D01*
X185212000Y-56228000D01*
X185210000Y-56230000D01*
X185207000Y-56231000D01*
X185205000Y-56232000D01*
X185202000Y-56233000D01*
X185200000Y-56233000D01*
X185197000Y-56234000D01*
X185195000Y-56234000D01*
X185192000Y-56235000D01*
X185190000Y-56235000D01*
X185187000Y-56235000D01*
X184547000Y-56235000D01*
X184544000Y-56235000D01*
X184542000Y-56235000D01*
X184539000Y-56234000D01*
X184537000Y-56234000D01*
X184534000Y-56233000D01*
X184532000Y-56233000D01*
X184529000Y-56232000D01*
X184527000Y-56231000D01*
X184524000Y-56230000D01*
X184522000Y-56228000D01*
X184520000Y-56227000D01*
X184518000Y-56225000D01*
X184516000Y-56224000D01*
X184514000Y-56222000D01*
X184512000Y-56220000D01*
X184510000Y-56218000D01*
X184508000Y-56216000D01*
X184507000Y-56214000D01*
X184505000Y-56212000D01*
X184504000Y-56210000D01*
X184502000Y-56208000D01*
X184501000Y-56205000D01*
X184500000Y-56203000D01*
X184499000Y-56200000D01*
X184499000Y-56198000D01*
X184498000Y-56195000D01*
X184498000Y-56193000D01*
X184497000Y-56190000D01*
X184497000Y-56188000D01*
X184497000Y-56185000D01*
X184497000Y-54595000D01*
X184497000Y-54592000D01*
X184497000Y-54590000D01*
X184498000Y-54587000D01*
X184498000Y-54585000D01*
X184499000Y-54582000D01*
X184499000Y-54580000D01*
X184500000Y-54577000D01*
X184501000Y-54575000D01*
X184502000Y-54572000D01*
X184504000Y-54570000D01*
X184505000Y-54568000D01*
X184507000Y-54566000D01*
X184508000Y-54564000D01*
X184510000Y-54562000D01*
X184512000Y-54560000D01*
X184514000Y-54558000D01*
X184516000Y-54556000D01*
X184518000Y-54555000D01*
X184520000Y-54553000D01*
X184522000Y-54552000D01*
X184524000Y-54550000D01*
X184527000Y-54549000D01*
X184529000Y-54548000D01*
X184532000Y-54547000D01*
X184534000Y-54547000D01*
X184537000Y-54546000D01*
X184539000Y-54546000D01*
X184542000Y-54545000D01*
X184544000Y-54545000D01*
X184547000Y-54545000D01*
X185187000Y-54545000D01*
X185190000Y-54545000D01*
X185192000Y-54545000D01*
X185195000Y-54546000D01*
G37*
D11*
X260634000Y-41715000D03*
X260634000Y-45715000D03*
D12*
X182764319Y-59110988D03*
X181039319Y-59110988D03*
D13*
X180848000Y-41402000D03*
D14*
X251490000Y-65051000D03*
X251490000Y-63226000D03*
D15*
X264521000Y-51589000D03*
D16*
X264521000Y-55399000D03*
D17*
X184912000Y-52040000D03*
X184912000Y-53340000D03*
X183612000Y-52040000D03*
X183612000Y-53340000D03*
X182312000Y-52040000D03*
X182312000Y-53340000D03*
X181012000Y-52040000D03*
X181012000Y-53340000D03*
D18*
X255300000Y-72673500D03*
X255300000Y-74573500D03*
X257175000Y-73623500D03*
D19*
X244124000Y-52412290D03*
D20*
X242219000Y-55287290D03*
X243489000Y-55287290D03*
X244759000Y-55287290D03*
X246029000Y-55287290D03*
X246029000Y-49537290D03*
X244759000Y-49537290D03*
X243489000Y-49537290D03*
X242219000Y-49537290D03*
D21*
X242824000Y-53062290D03*
X244124000Y-53062290D03*
X245424000Y-53062290D03*
X242824000Y-51762290D03*
X244124000Y-51762290D03*
X245424000Y-51762290D03*
D11*
X260634000Y-61019000D03*
X260634000Y-65019000D03*
D22*
X193753000Y-56612000D03*
X190803000Y-56612000D03*
D23*
X243459674Y-83007482D03*
X241634674Y-83007482D03*
D18*
X255300000Y-63122500D03*
X255300000Y-65022500D03*
X257175000Y-64072500D03*
D15*
X264521000Y-80444000D03*
D16*
X264521000Y-84254000D03*
D24*
X188751309Y-87610500D03*
X188751309Y-85885500D03*
X201690000Y-43940500D03*
X201690000Y-42215500D03*
D25*
X182323352Y-75665519D03*
X182323352Y-77390519D03*
D24*
X195967901Y-86041132D03*
X195967901Y-84316132D03*
D26*
X181039319Y-57433321D03*
X182764319Y-57433321D03*
D27*
X247374000Y-42902290D03*
X240874000Y-42902290D03*
D14*
X251490000Y-84254000D03*
X251490000Y-82429000D03*
D12*
X182770010Y-71026349D03*
X181045010Y-71026349D03*
D25*
X190739099Y-90622868D03*
X190739099Y-92347868D03*
D28*
X221488000Y-52578000D03*
D22*
X193753000Y-52802000D03*
X190803000Y-52802000D03*
D29*
X179951000Y-94114000D03*
X179951000Y-91574000D03*
X179951000Y-89034000D03*
X179951000Y-86494000D03*
X179951000Y-83954000D03*
X179951000Y-81414000D03*
D30*
X253268000Y-82429000D03*
X253268000Y-84254000D03*
D15*
X264521000Y-70792000D03*
D16*
X264521000Y-74602000D03*
D29*
X206756000Y-82550000D03*
X206756000Y-85090000D03*
X206756000Y-87630000D03*
X206756000Y-90170000D03*
X206756000Y-92710000D03*
X206756000Y-95250000D03*
D15*
X242089000Y-35790290D03*
D16*
X245899000Y-35790290D03*
D30*
X253268000Y-53574000D03*
X253268000Y-55399000D03*
D31*
X197358000Y-79196000D03*
D25*
X220726000Y-40084500D03*
X220726000Y-41809500D03*
D30*
X253268000Y-43922000D03*
X253268000Y-45747000D03*
D12*
X185320488Y-44727987D03*
X183595488Y-44727987D03*
D14*
X189095000Y-94168859D03*
X189095000Y-92343859D03*
D25*
X199251634Y-63238801D03*
X199251634Y-64963801D03*
D32*
X187317000Y-87608822D03*
X187317000Y-86473822D03*
D15*
X264521000Y-90096000D03*
D16*
X264521000Y-93906000D03*
D23*
X248481769Y-90550873D03*
X246656769Y-90550873D03*
D33*
X199390000Y-89055178D03*
X199390000Y-90190178D03*
D30*
X253268000Y-63226000D03*
X253268000Y-65051000D03*
D18*
X255300000Y-53470500D03*
X255300000Y-55370500D03*
X257175000Y-54420500D03*
X255300000Y-82325500D03*
X255300000Y-84225500D03*
X257175000Y-83275500D03*
D28*
X181610000Y-34798000D03*
D11*
X260634000Y-80222000D03*
X260634000Y-84222000D03*
D34*
X187706000Y-56834000D03*
X187706000Y-52834000D03*
D35*
X239724798Y-94204000D03*
X239724798Y-92934000D03*
X239724798Y-91664000D03*
X239724798Y-90394000D03*
X239724798Y-89124000D03*
X239724798Y-87854000D03*
X239724798Y-86584000D03*
X239724798Y-85314000D03*
X239724798Y-84044000D03*
X239724798Y-82774000D03*
X239724798Y-81504000D03*
X239724798Y-80234000D03*
X239724798Y-78964000D03*
X239724798Y-77694000D03*
D36*
X237959798Y-76444000D03*
X236689798Y-76444000D03*
X235419798Y-76444000D03*
X234149798Y-76444000D03*
X232879798Y-76444000D03*
X231609798Y-76444000D03*
X230339798Y-76444000D03*
X229069798Y-76444000D03*
X227799798Y-76444000D03*
X226529798Y-76444000D03*
X225259798Y-76444000D03*
X223989798Y-76444000D03*
D35*
X222224798Y-77694000D03*
X222224798Y-78964000D03*
X222224798Y-80234000D03*
X222224798Y-81504000D03*
X222224798Y-82774000D03*
X222224798Y-84044000D03*
X222224798Y-85314000D03*
X222224798Y-86584000D03*
X222224798Y-87854000D03*
X222224798Y-89124000D03*
X222224798Y-90394000D03*
X222224798Y-91664000D03*
X222224798Y-92934000D03*
X222224798Y-94204000D03*
D37*
X233874798Y-87884000D03*
X232474798Y-87884000D03*
X231074798Y-87884000D03*
X233874798Y-86484000D03*
X232474798Y-86484000D03*
X231074798Y-86484000D03*
X233874798Y-85084000D03*
X232474798Y-85084000D03*
X231074798Y-85084000D03*
D15*
X230404000Y-35790290D03*
D16*
X234214000Y-35790290D03*
D13*
X256286000Y-34798000D03*
D27*
X235689000Y-42902290D03*
X229189000Y-42902290D03*
D30*
X197612000Y-82495141D03*
X197612000Y-84320141D03*
D38*
X246048645Y-57831500D03*
X246048645Y-59831500D03*
D39*
X243713783Y-95018265D03*
X243713783Y-92943265D03*
D31*
X192024000Y-84328000D03*
D40*
X201158546Y-66839453D03*
X200208546Y-66839453D03*
X199258546Y-66839453D03*
X199258546Y-69114453D03*
X201158546Y-69114453D03*
D14*
X251490000Y-55399000D03*
X251490000Y-53574000D03*
D25*
X187413414Y-92393859D03*
X187413414Y-94118859D03*
D24*
X199293586Y-84270141D03*
X199293586Y-82545141D03*
D11*
X260634000Y-89874000D03*
X260634000Y-93874000D03*
D31*
X194683000Y-92336000D03*
D24*
X220726000Y-45466000D03*
X220726000Y-43741000D03*
D11*
X260634000Y-51367000D03*
X260634000Y-55367000D03*
D18*
X255300000Y-43818500D03*
X255300000Y-45718500D03*
X257175000Y-44768500D03*
D41*
X203976000Y-46380000D03*
X201676000Y-46380000D03*
D42*
X201676000Y-52680000D03*
D41*
X199376000Y-46380000D03*
D15*
X202697288Y-35680802D03*
D16*
X206507288Y-35680802D03*
X210317288Y-35680802D03*
D32*
X199261412Y-71855171D03*
X199261412Y-70720171D03*
D24*
X194519076Y-74899282D03*
X194519076Y-73174282D03*
D30*
X253268000Y-92081000D03*
X253268000Y-93906000D03*
D39*
X208794038Y-43770556D03*
X208794038Y-41695556D03*
D24*
X199404000Y-43940500D03*
X199404000Y-42215500D03*
D13*
X214630000Y-95250000D03*
D43*
X219202000Y-41301500D03*
X218702000Y-41301500D03*
X218202000Y-41301500D03*
X217702000Y-41301500D03*
X217702000Y-44101500D03*
X218202000Y-44101500D03*
X218702000Y-44101500D03*
X219202000Y-44101500D03*
D15*
X264521000Y-41937000D03*
D16*
X264521000Y-45747000D03*
D44*
X183603500Y-46960000D03*
X186728500Y-46960000D03*
D28*
X265430000Y-34798000D03*
D11*
X260634000Y-70570000D03*
X260634000Y-74570000D03*
D25*
X245024427Y-88799500D03*
X245024427Y-90524500D03*
D30*
X194525883Y-76546710D03*
X194525883Y-78371710D03*
D45*
X220218000Y-66294000D03*
X220218000Y-63754000D03*
X222758000Y-66294000D03*
X222758000Y-63754000D03*
X225298000Y-66294000D03*
X225298000Y-63754000D03*
D25*
X236219000Y-48897790D03*
X236219000Y-50622790D03*
D15*
X264521000Y-61241000D03*
D16*
X264521000Y-65051000D03*
D30*
X253268000Y-72777000D03*
X253268000Y-74602000D03*
D15*
X216159288Y-35680802D03*
D16*
X219969288Y-35680802D03*
X223779288Y-35680802D03*
D23*
X243482500Y-81280000D03*
X241657500Y-81280000D03*
D14*
X251490000Y-74602000D03*
X251490000Y-72777000D03*
D24*
X241742798Y-94652829D03*
X241742798Y-92927829D03*
D14*
X251490000Y-93906000D03*
X251490000Y-92081000D03*
D39*
X211102395Y-43725733D03*
X211102395Y-41650733D03*
D46*
X192532000Y-41560000D03*
D47*
X192532000Y-35560000D03*
D48*
X187832000Y-38560000D03*
D38*
X234363645Y-57831500D03*
X234363645Y-59831500D03*
D24*
X201168000Y-72744500D03*
X201168000Y-71019500D03*
D49*
X187729000Y-62413317D03*
X193779000Y-62413317D03*
D25*
X247904000Y-48897790D03*
X247904000Y-50622790D03*
D50*
X185107000Y-71030000D03*
X185107000Y-71680000D03*
X185107000Y-72330000D03*
X185107000Y-72980000D03*
X185107000Y-73630000D03*
X185107000Y-74280000D03*
X185107000Y-74930000D03*
X185107000Y-75580000D03*
X185107000Y-76230000D03*
X185107000Y-76880000D03*
X185107000Y-77530000D03*
X185107000Y-78180000D03*
X192532000Y-78180000D03*
X192532000Y-77530000D03*
X192532000Y-76880000D03*
X192532000Y-76230000D03*
X192532000Y-75580000D03*
X192532000Y-74930000D03*
X192532000Y-74280000D03*
X192532000Y-73630000D03*
X192532000Y-72980000D03*
X192532000Y-72330000D03*
X192532000Y-71680000D03*
X192532000Y-71030000D03*
D19*
X232439000Y-52412290D03*
D20*
X230534000Y-55287290D03*
X231804000Y-55287290D03*
X233074000Y-55287290D03*
X234344000Y-55287290D03*
X234344000Y-49537290D03*
X233074000Y-49537290D03*
X231804000Y-49537290D03*
X230534000Y-49537290D03*
D21*
X231139000Y-53062290D03*
X232439000Y-53062290D03*
X233739000Y-53062290D03*
X231139000Y-51762290D03*
X232439000Y-51762290D03*
X233739000Y-51762290D03*
D14*
X251490000Y-45747000D03*
X251490000Y-43922000D03*
D26*
X186843500Y-49754000D03*
X188568500Y-49754000D03*
D18*
X255300000Y-91977500D03*
X255300000Y-93877500D03*
X257175000Y-92927500D03*
D25*
X197955691Y-89053500D03*
X197955691Y-90778500D03*
D23*
X197936456Y-76542997D03*
X196111456Y-76542997D03*
D41*
X213388000Y-46482000D03*
X211088000Y-46482000D03*
D42*
X211088000Y-52782000D03*
D41*
X208788000Y-46482000D03*
D12*
X181015475Y-48053842D03*
X179290475Y-48053842D03*
M02*
