G04 #@! TF.GenerationSoftware,KiCad,Pcbnew,9.0.0*
G04 #@! TF.CreationDate,2025-03-05T08:43:44-06:00*
G04 #@! TF.ProjectId,PCB,5043422e-6b69-4636-9164-5f7063625858,rev?*
G04 #@! TF.SameCoordinates,Original*
G04 #@! TF.FileFunction,Legend,Bot*
G04 #@! TF.FilePolarity,Positive*
%FSLAX46Y46*%
G04 Gerber Fmt 4.6, Leading zero omitted, Abs format (unit mm)*
G04 Created by KiCad (PCBNEW 9.0.0) date 2025-03-05 08:43:44*
%MOMM*%
%LPD*%
G01*
G04 APERTURE LIST*
G04 Aperture macros list*
%AMRoundRect*
0 Rectangle with rounded corners*
0 $1 Rounding radius*
0 $2 $3 $4 $5 $6 $7 $8 $9 X,Y pos of 4 corners*
0 Add a 4 corners polygon primitive as box body*
4,1,4,$2,$3,$4,$5,$6,$7,$8,$9,$2,$3,0*
0 Add four circle primitives for the rounded corners*
1,1,$1+$1,$2,$3*
1,1,$1+$1,$4,$5*
1,1,$1+$1,$6,$7*
1,1,$1+$1,$8,$9*
0 Add four rect primitives between the rounded corners*
20,1,$1+$1,$2,$3,$4,$5,0*
20,1,$1+$1,$4,$5,$6,$7,0*
20,1,$1+$1,$6,$7,$8,$9,0*
20,1,$1+$1,$8,$9,$2,$3,0*%
G04 Aperture macros list end*
%ADD10C,0.150000*%
%ADD11C,0.120000*%
%ADD12C,0.200000*%
%ADD13R,2.100000X2.100000*%
%ADD14C,2.100000*%
%ADD15C,0.600000*%
%ADD16C,0.740000*%
%ADD17C,3.200000*%
%ADD18C,1.695000*%
%ADD19C,2.000000*%
%ADD20C,1.650000*%
%ADD21R,3.500000X3.500000*%
%ADD22RoundRect,0.750000X-1.000000X0.750000X-1.000000X-0.750000X1.000000X-0.750000X1.000000X0.750000X0*%
%ADD23RoundRect,0.875000X-0.875000X0.875000X-0.875000X-0.875000X0.875000X-0.875000X0.875000X0.875000X0*%
%ADD24RoundRect,0.237500X-0.237500X0.300000X-0.237500X-0.300000X0.237500X-0.300000X0.237500X0.300000X0*%
%ADD25R,0.600000X1.700000*%
%ADD26R,2.500000X2.800000*%
G04 APERTURE END LIST*
D10*
X222101580Y-83685142D02*
X222149200Y-83637523D01*
X222149200Y-83637523D02*
X222196819Y-83494666D01*
X222196819Y-83494666D02*
X222196819Y-83399428D01*
X222196819Y-83399428D02*
X222149200Y-83256571D01*
X222149200Y-83256571D02*
X222053961Y-83161333D01*
X222053961Y-83161333D02*
X221958723Y-83113714D01*
X221958723Y-83113714D02*
X221768247Y-83066095D01*
X221768247Y-83066095D02*
X221625390Y-83066095D01*
X221625390Y-83066095D02*
X221434914Y-83113714D01*
X221434914Y-83113714D02*
X221339676Y-83161333D01*
X221339676Y-83161333D02*
X221244438Y-83256571D01*
X221244438Y-83256571D02*
X221196819Y-83399428D01*
X221196819Y-83399428D02*
X221196819Y-83494666D01*
X221196819Y-83494666D02*
X221244438Y-83637523D01*
X221244438Y-83637523D02*
X221292057Y-83685142D01*
X222196819Y-84637523D02*
X222196819Y-84066095D01*
X222196819Y-84351809D02*
X221196819Y-84351809D01*
X221196819Y-84351809D02*
X221339676Y-84256571D01*
X221339676Y-84256571D02*
X221434914Y-84161333D01*
X221434914Y-84161333D02*
X221482533Y-84066095D01*
X221196819Y-85494666D02*
X221196819Y-85304190D01*
X221196819Y-85304190D02*
X221244438Y-85208952D01*
X221244438Y-85208952D02*
X221292057Y-85161333D01*
X221292057Y-85161333D02*
X221434914Y-85066095D01*
X221434914Y-85066095D02*
X221625390Y-85018476D01*
X221625390Y-85018476D02*
X222006342Y-85018476D01*
X222006342Y-85018476D02*
X222101580Y-85066095D01*
X222101580Y-85066095D02*
X222149200Y-85113714D01*
X222149200Y-85113714D02*
X222196819Y-85208952D01*
X222196819Y-85208952D02*
X222196819Y-85399428D01*
X222196819Y-85399428D02*
X222149200Y-85494666D01*
X222149200Y-85494666D02*
X222101580Y-85542285D01*
X222101580Y-85542285D02*
X222006342Y-85589904D01*
X222006342Y-85589904D02*
X221768247Y-85589904D01*
X221768247Y-85589904D02*
X221673009Y-85542285D01*
X221673009Y-85542285D02*
X221625390Y-85494666D01*
X221625390Y-85494666D02*
X221577771Y-85399428D01*
X221577771Y-85399428D02*
X221577771Y-85208952D01*
X221577771Y-85208952D02*
X221625390Y-85113714D01*
X221625390Y-85113714D02*
X221673009Y-85066095D01*
X221673009Y-85066095D02*
X221768247Y-85018476D01*
X220440623Y-82923142D02*
X220488243Y-82875523D01*
X220488243Y-82875523D02*
X220535862Y-82732666D01*
X220535862Y-82732666D02*
X220535862Y-82637428D01*
X220535862Y-82637428D02*
X220488243Y-82494571D01*
X220488243Y-82494571D02*
X220393004Y-82399333D01*
X220393004Y-82399333D02*
X220297766Y-82351714D01*
X220297766Y-82351714D02*
X220107290Y-82304095D01*
X220107290Y-82304095D02*
X219964433Y-82304095D01*
X219964433Y-82304095D02*
X219773957Y-82351714D01*
X219773957Y-82351714D02*
X219678719Y-82399333D01*
X219678719Y-82399333D02*
X219583481Y-82494571D01*
X219583481Y-82494571D02*
X219535862Y-82637428D01*
X219535862Y-82637428D02*
X219535862Y-82732666D01*
X219535862Y-82732666D02*
X219583481Y-82875523D01*
X219583481Y-82875523D02*
X219631100Y-82923142D01*
X219631100Y-83304095D02*
X219583481Y-83351714D01*
X219583481Y-83351714D02*
X219535862Y-83446952D01*
X219535862Y-83446952D02*
X219535862Y-83685047D01*
X219535862Y-83685047D02*
X219583481Y-83780285D01*
X219583481Y-83780285D02*
X219631100Y-83827904D01*
X219631100Y-83827904D02*
X219726338Y-83875523D01*
X219726338Y-83875523D02*
X219821576Y-83875523D01*
X219821576Y-83875523D02*
X219964433Y-83827904D01*
X219964433Y-83827904D02*
X220535862Y-83256476D01*
X220535862Y-83256476D02*
X220535862Y-83875523D01*
X219535862Y-84208857D02*
X219535862Y-84827904D01*
X219535862Y-84827904D02*
X219916814Y-84494571D01*
X219916814Y-84494571D02*
X219916814Y-84637428D01*
X219916814Y-84637428D02*
X219964433Y-84732666D01*
X219964433Y-84732666D02*
X220012052Y-84780285D01*
X220012052Y-84780285D02*
X220107290Y-84827904D01*
X220107290Y-84827904D02*
X220345385Y-84827904D01*
X220345385Y-84827904D02*
X220440623Y-84780285D01*
X220440623Y-84780285D02*
X220488243Y-84732666D01*
X220488243Y-84732666D02*
X220535862Y-84637428D01*
X220535862Y-84637428D02*
X220535862Y-84351714D01*
X220535862Y-84351714D02*
X220488243Y-84256476D01*
X220488243Y-84256476D02*
X220440623Y-84208857D01*
X259912904Y-87743819D02*
X259912904Y-88553342D01*
X259912904Y-88553342D02*
X259865285Y-88648580D01*
X259865285Y-88648580D02*
X259817666Y-88696200D01*
X259817666Y-88696200D02*
X259722428Y-88743819D01*
X259722428Y-88743819D02*
X259531952Y-88743819D01*
X259531952Y-88743819D02*
X259436714Y-88696200D01*
X259436714Y-88696200D02*
X259389095Y-88648580D01*
X259389095Y-88648580D02*
X259341476Y-88553342D01*
X259341476Y-88553342D02*
X259341476Y-87743819D01*
X258341476Y-88743819D02*
X258912904Y-88743819D01*
X258627190Y-88743819D02*
X258627190Y-87743819D01*
X258627190Y-87743819D02*
X258722428Y-87886676D01*
X258722428Y-87886676D02*
X258817666Y-87981914D01*
X258817666Y-87981914D02*
X258912904Y-88029533D01*
D11*
X221223699Y-87369238D02*
X221223699Y-87661772D01*
X222243699Y-87369238D02*
X222243699Y-87661772D01*
X219571043Y-87390425D02*
X219571043Y-87682959D01*
X220591043Y-87390425D02*
X220591043Y-87682959D01*
D12*
X215076000Y-96824000D02*
X215076000Y-94674000D01*
X262076000Y-94674000D02*
X262076000Y-96824000D01*
X262076000Y-96824000D02*
X215076000Y-96824000D01*
X219176000Y-88824000D02*
G75*
G02*
X218976000Y-88824000I-100000J0D01*
G01*
X218976000Y-88824000D02*
G75*
G02*
X219176000Y-88824000I100000J0D01*
G01*
%LPC*%
D13*
X264521000Y-51589000D03*
D14*
X264521000Y-55399000D03*
D15*
X184912000Y-52040000D03*
X184912000Y-53340000D03*
X183612000Y-52040000D03*
X183612000Y-53340000D03*
X182312000Y-52040000D03*
X182312000Y-53340000D03*
X181012000Y-52040000D03*
X181012000Y-53340000D03*
D16*
X242824000Y-53062290D03*
X244124000Y-53062290D03*
X245424000Y-53062290D03*
X242824000Y-51762290D03*
X244124000Y-51762290D03*
X245424000Y-51762290D03*
D13*
X264521000Y-80444000D03*
D14*
X264521000Y-84254000D03*
D17*
X221488000Y-52578000D03*
D18*
X179951000Y-94114000D03*
X179951000Y-91574000D03*
X179951000Y-89034000D03*
X179951000Y-86494000D03*
X179951000Y-83954000D03*
X179951000Y-81414000D03*
D13*
X264521000Y-70792000D03*
D14*
X264521000Y-74602000D03*
D18*
X206756000Y-82550000D03*
X206756000Y-85090000D03*
X206756000Y-87630000D03*
X206756000Y-90170000D03*
X206756000Y-92710000D03*
X206756000Y-95250000D03*
D13*
X242089000Y-35790290D03*
D14*
X245899000Y-35790290D03*
D19*
X197358000Y-79196000D03*
D13*
X264521000Y-90096000D03*
D14*
X264521000Y-93906000D03*
D17*
X181610000Y-34798000D03*
D13*
X230404000Y-35790290D03*
D14*
X234214000Y-35790290D03*
D19*
X192024000Y-84328000D03*
X194683000Y-92336000D03*
D13*
X202697288Y-35680802D03*
D14*
X206507288Y-35680802D03*
X210317288Y-35680802D03*
D13*
X264521000Y-41937000D03*
D14*
X264521000Y-45747000D03*
D17*
X265430000Y-34798000D03*
D20*
X220218000Y-66294000D03*
X220218000Y-63754000D03*
X222758000Y-66294000D03*
X222758000Y-63754000D03*
X225298000Y-66294000D03*
X225298000Y-63754000D03*
D13*
X264521000Y-61241000D03*
D14*
X264521000Y-65051000D03*
D13*
X216159288Y-35680802D03*
D14*
X219969288Y-35680802D03*
X223779288Y-35680802D03*
D21*
X192532000Y-41560000D03*
D22*
X192532000Y-35560000D03*
D23*
X187832000Y-38560000D03*
D16*
X231139000Y-53062290D03*
X232439000Y-53062290D03*
X233739000Y-53062290D03*
X231139000Y-51762290D03*
X232439000Y-51762290D03*
X233739000Y-51762290D03*
D24*
X221733699Y-86653005D03*
X221733699Y-88378005D03*
X220081043Y-86674192D03*
X220081043Y-88399192D03*
D25*
X219076000Y-90424000D03*
X220076000Y-90424000D03*
X221076000Y-90424000D03*
X222076000Y-90424000D03*
X223076000Y-90424000D03*
X224076000Y-90424000D03*
X225076000Y-90424000D03*
X226076000Y-90424000D03*
X227076000Y-90424000D03*
X228076000Y-90424000D03*
X229076000Y-90424000D03*
X230076000Y-90424000D03*
X231076000Y-90424000D03*
X232076000Y-90424000D03*
X233076000Y-90424000D03*
X234076000Y-90424000D03*
X235076000Y-90424000D03*
X236076000Y-90424000D03*
X237076000Y-90424000D03*
X238076000Y-90424000D03*
X239076000Y-90424000D03*
X240076000Y-90424000D03*
X241076000Y-90424000D03*
X242076000Y-90424000D03*
X243076000Y-90424000D03*
X244076000Y-90424000D03*
X245076000Y-90424000D03*
X246076000Y-90424000D03*
X247076000Y-90424000D03*
X248076000Y-90424000D03*
X249076000Y-90424000D03*
X250076000Y-90424000D03*
X251076000Y-90424000D03*
X252076000Y-90424000D03*
X253076000Y-90424000D03*
X254076000Y-90424000D03*
X255076000Y-90424000D03*
X256076000Y-90424000D03*
X257076000Y-90424000D03*
X258076000Y-90424000D03*
D26*
X216326000Y-92874000D03*
X260826000Y-92874000D03*
%LPD*%
M02*
