G04 #@! TF.GenerationSoftware,KiCad,Pcbnew,9.0.0*
G04 #@! TF.CreationDate,2025-03-04T23:57:34-06:00*
G04 #@! TF.ProjectId,PCB,5043422e-6b69-4636-9164-5f7063625858,rev?*
G04 #@! TF.SameCoordinates,Original*
G04 #@! TF.FileFunction,Soldermask,Bot*
G04 #@! TF.FilePolarity,Negative*
%FSLAX46Y46*%
G04 Gerber Fmt 4.6, Leading zero omitted, Abs format (unit mm)*
G04 Created by KiCad (PCBNEW 9.0.0) date 2025-03-04 23:57:34*
%MOMM*%
%LPD*%
G01*
G04 APERTURE LIST*
G04 Aperture macros list*
%AMRoundRect*
0 Rectangle with rounded corners*
0 $1 Rounding radius*
0 $2 $3 $4 $5 $6 $7 $8 $9 X,Y pos of 4 corners*
0 Add a 4 corners polygon primitive as box body*
4,1,4,$2,$3,$4,$5,$6,$7,$8,$9,$2,$3,0*
0 Add four circle primitives for the rounded corners*
1,1,$1+$1,$2,$3*
1,1,$1+$1,$4,$5*
1,1,$1+$1,$6,$7*
1,1,$1+$1,$8,$9*
0 Add four rect primitives between the rounded corners*
20,1,$1+$1,$2,$3,$4,$5,0*
20,1,$1+$1,$4,$5,$6,$7,0*
20,1,$1+$1,$6,$7,$8,$9,0*
20,1,$1+$1,$8,$9,$2,$3,0*%
G04 Aperture macros list end*
%ADD10C,1.695000*%
%ADD11C,2.000000*%
%ADD12R,2.100000X2.100000*%
%ADD13C,2.100000*%
%ADD14C,0.770000*%
%ADD15C,3.200000*%
%ADD16RoundRect,0.237500X-0.237500X0.300000X-0.237500X-0.300000X0.237500X-0.300000X0.237500X0.300000X0*%
%ADD17C,1.650000*%
%ADD18R,3.500000X3.500000*%
%ADD19RoundRect,0.750000X-1.000000X0.750000X-1.000000X-0.750000X1.000000X-0.750000X1.000000X0.750000X0*%
%ADD20RoundRect,0.875000X-0.875000X0.875000X-0.875000X-0.875000X0.875000X-0.875000X0.875000X0.875000X0*%
%ADD21R,0.600000X1.700000*%
%ADD22R,2.500000X2.800000*%
%ADD23C,0.300000*%
G04 APERTURE END LIST*
D10*
X206756000Y-82550000D03*
X206756000Y-85090000D03*
X206756000Y-87630000D03*
X206756000Y-90170000D03*
X206756000Y-92710000D03*
X206756000Y-95250000D03*
X179951000Y-81414000D03*
X179951000Y-83954000D03*
X179951000Y-86494000D03*
X179951000Y-89034000D03*
X179951000Y-91574000D03*
X179951000Y-94114000D03*
D11*
X192024000Y-84328000D03*
D12*
X264521000Y-51589000D03*
D13*
X264521000Y-55399000D03*
D14*
X242824000Y-53062290D03*
X244124000Y-53062290D03*
X245424000Y-53062290D03*
X242824000Y-51762290D03*
X244124000Y-51762290D03*
X245424000Y-51762290D03*
D12*
X264521000Y-80444000D03*
D13*
X264521000Y-84254000D03*
D15*
X221488000Y-52578000D03*
D16*
X221733699Y-86653005D03*
X221733699Y-88378005D03*
D12*
X264521000Y-70792000D03*
D13*
X264521000Y-74602000D03*
D12*
X242089000Y-35790290D03*
D13*
X245899000Y-35790290D03*
D11*
X197358000Y-79196000D03*
D12*
X264521000Y-90096000D03*
D13*
X264521000Y-93906000D03*
D15*
X181610000Y-34798000D03*
D12*
X230404000Y-35790290D03*
D13*
X234214000Y-35790290D03*
D11*
X194683000Y-92336000D03*
D12*
X202697288Y-35680802D03*
D13*
X206507288Y-35680802D03*
X210317288Y-35680802D03*
D12*
X264521000Y-41937000D03*
D13*
X264521000Y-45747000D03*
D15*
X265430000Y-34798000D03*
D16*
X220081043Y-86674192D03*
X220081043Y-88399192D03*
D17*
X220218000Y-66294000D03*
X220218000Y-63754000D03*
X222758000Y-66294000D03*
X222758000Y-63754000D03*
X225298000Y-66294000D03*
X225298000Y-63754000D03*
D12*
X264521000Y-61241000D03*
D13*
X264521000Y-65051000D03*
D12*
X216159288Y-35680802D03*
D13*
X219969288Y-35680802D03*
X223779288Y-35680802D03*
D18*
X192532000Y-41560000D03*
D19*
X192532000Y-35560000D03*
D20*
X187832000Y-38560000D03*
D14*
X231139000Y-53062290D03*
X232439000Y-53062290D03*
X233739000Y-53062290D03*
X231139000Y-51762290D03*
X232439000Y-51762290D03*
X233739000Y-51762290D03*
D21*
X219076000Y-90424000D03*
X220076000Y-90424000D03*
X221076000Y-90424000D03*
X222076000Y-90424000D03*
X223076000Y-90424000D03*
X224076000Y-90424000D03*
X225076000Y-90424000D03*
X226076000Y-90424000D03*
X227076000Y-90424000D03*
X228076000Y-90424000D03*
X229076000Y-90424000D03*
X230076000Y-90424000D03*
X231076000Y-90424000D03*
X232076000Y-90424000D03*
X233076000Y-90424000D03*
X234076000Y-90424000D03*
X235076000Y-90424000D03*
X236076000Y-90424000D03*
X237076000Y-90424000D03*
X238076000Y-90424000D03*
X239076000Y-90424000D03*
X240076000Y-90424000D03*
X241076000Y-90424000D03*
X242076000Y-90424000D03*
X243076000Y-90424000D03*
X244076000Y-90424000D03*
X245076000Y-90424000D03*
X246076000Y-90424000D03*
X247076000Y-90424000D03*
X248076000Y-90424000D03*
X249076000Y-90424000D03*
X250076000Y-90424000D03*
X251076000Y-90424000D03*
X252076000Y-90424000D03*
X253076000Y-90424000D03*
X254076000Y-90424000D03*
X255076000Y-90424000D03*
X256076000Y-90424000D03*
X257076000Y-90424000D03*
X258076000Y-90424000D03*
D22*
X216326000Y-92874000D03*
X260826000Y-92874000D03*
D23*
X184912000Y-52040000D03*
X184912000Y-53340000D03*
X183612000Y-52040000D03*
X183612000Y-53340000D03*
X182312000Y-52040000D03*
X182312000Y-53340000D03*
X181012000Y-52040000D03*
X181012000Y-53340000D03*
M02*
