%TF.GenerationSoftware,KiCad,Pcbnew,9.0.0*%
%TF.CreationDate,2025-03-04T23:57:36-06:00*%
%TF.ProjectId,PCB,5043422e-6b69-4636-9164-5f7063625858,rev?*%
%TF.SameCoordinates,Original*%
%TF.FileFunction,Drillmap*%
%TF.FilePolarity,Positive*%
%FSLAX45Y45*%
G04 Gerber Fmt 4.5, Leading zero omitted, Abs format (unit mm)*
G04 Created by KiCad (PCBNEW 9.0.0) date 2025-03-04 23:57:36*
%MOMM*%
%LPD*%
G01*
G04 APERTURE LIST*
%ADD10C,0.050000*%
%ADD11C,0.200000*%
%ADD12C,0.100000*%
%ADD13C,0.110000*%
%ADD14C,0.113000*%
%ADD15C,0.140000*%
G04 APERTURE END LIST*
D10*
X17551400Y-2971800D02*
X27051000Y-2971800D01*
X27051000Y-10021800D01*
X17551400Y-10021800D01*
X17551400Y-2971800D01*
D11*
D12*
X18091200Y-5194000D02*
X18111200Y-5214000D01*
X18111200Y-5194000D02*
X18091200Y-5214000D01*
X18091200Y-5324000D02*
X18111200Y-5344000D01*
X18111200Y-5324000D02*
X18091200Y-5344000D01*
X18221200Y-5194000D02*
X18241200Y-5214000D01*
X18241200Y-5194000D02*
X18221200Y-5214000D01*
X18221200Y-5324000D02*
X18241200Y-5344000D01*
X18241200Y-5324000D02*
X18221200Y-5344000D01*
X18351200Y-5194000D02*
X18371200Y-5214000D01*
X18371200Y-5194000D02*
X18351200Y-5214000D01*
X18351200Y-5324000D02*
X18371200Y-5344000D01*
X18371200Y-5324000D02*
X18351200Y-5344000D01*
X18481200Y-5194000D02*
X18501200Y-5214000D01*
X18501200Y-5194000D02*
X18481200Y-5214000D01*
X18481200Y-5324000D02*
X18501200Y-5344000D01*
X18501200Y-5324000D02*
X18481200Y-5344000D01*
X17871200Y-4622800D02*
G75*
G02*
X17841200Y-4622800I-15000J0D01*
G01*
X17841200Y-4622800D02*
G75*
G02*
X17871200Y-4622800I15000J0D01*
G01*
X17871200Y-5029200D02*
G75*
G02*
X17841200Y-5029200I-15000J0D01*
G01*
X17841200Y-5029200D02*
G75*
G02*
X17871200Y-5029200I15000J0D01*
G01*
X17871200Y-5207000D02*
G75*
G02*
X17841200Y-5207000I-15000J0D01*
G01*
X17841200Y-5207000D02*
G75*
G02*
X17871200Y-5207000I15000J0D01*
G01*
X17896600Y-5359400D02*
G75*
G02*
X17866600Y-5359400I-15000J0D01*
G01*
X17866600Y-5359400D02*
G75*
G02*
X17896600Y-5359400I15000J0D01*
G01*
X17947400Y-4470400D02*
G75*
G02*
X17917400Y-4470400I-15000J0D01*
G01*
X17917400Y-4470400D02*
G75*
G02*
X17947400Y-4470400I15000J0D01*
G01*
X17947400Y-4673600D02*
G75*
G02*
X17917400Y-4673600I-15000J0D01*
G01*
X17917400Y-4673600D02*
G75*
G02*
X17947400Y-4673600I15000J0D01*
G01*
X17947400Y-4927600D02*
G75*
G02*
X17917400Y-4927600I-15000J0D01*
G01*
X17917400Y-4927600D02*
G75*
G02*
X17947400Y-4927600I15000J0D01*
G01*
X17947400Y-5105400D02*
G75*
G02*
X17917400Y-5105400I-15000J0D01*
G01*
X17917400Y-5105400D02*
G75*
G02*
X17947400Y-5105400I15000J0D01*
G01*
X17947400Y-5283200D02*
G75*
G02*
X17917400Y-5283200I-15000J0D01*
G01*
X17917400Y-5283200D02*
G75*
G02*
X17947400Y-5283200I15000J0D01*
G01*
X18119501Y-6832600D02*
G75*
G02*
X18089501Y-6832600I-15000J0D01*
G01*
X18089501Y-6832600D02*
G75*
G02*
X18119501Y-6832600I15000J0D01*
G01*
X18403198Y-5915200D02*
G75*
G02*
X18373198Y-5915200I-15000J0D01*
G01*
X18373198Y-5915200D02*
G75*
G02*
X18403198Y-5915200I15000J0D01*
G01*
X18455400Y-6832600D02*
G75*
G02*
X18425400Y-6832600I-15000J0D01*
G01*
X18425400Y-6832600D02*
G75*
G02*
X18455400Y-6832600I15000J0D01*
G01*
X18501853Y-5686600D02*
G75*
G02*
X18471853Y-5686600I-15000J0D01*
G01*
X18471853Y-5686600D02*
G75*
G02*
X18501853Y-5686600I15000J0D01*
G01*
X18617922Y-8760963D02*
G75*
G02*
X18587922Y-8760963I-15000J0D01*
G01*
X18587922Y-8760963D02*
G75*
G02*
X18617922Y-8760963I15000J0D01*
G01*
X18681944Y-7754469D02*
G75*
G02*
X18651944Y-7754469I-15000J0D01*
G01*
X18651944Y-7754469D02*
G75*
G02*
X18681944Y-7754469I15000J0D01*
G01*
X18684000Y-4470400D02*
G75*
G02*
X18654000Y-4470400I-15000J0D01*
G01*
X18654000Y-4470400D02*
G75*
G02*
X18684000Y-4470400I15000J0D01*
G01*
X18684000Y-6934200D02*
G75*
G02*
X18654000Y-6934200I-15000J0D01*
G01*
X18654000Y-6934200D02*
G75*
G02*
X18684000Y-6934200I15000J0D01*
G01*
X18785600Y-6934200D02*
G75*
G02*
X18755600Y-6934200I-15000J0D01*
G01*
X18755600Y-6934200D02*
G75*
G02*
X18785600Y-6934200I15000J0D01*
G01*
X18811000Y-4470400D02*
G75*
G02*
X18781000Y-4470400I-15000J0D01*
G01*
X18781000Y-4470400D02*
G75*
G02*
X18811000Y-4470400I15000J0D01*
G01*
X18872710Y-4860371D02*
G75*
G02*
X18842710Y-4860371I-15000J0D01*
G01*
X18842710Y-4860371D02*
G75*
G02*
X18872710Y-4860371I15000J0D01*
G01*
X18887200Y-6934200D02*
G75*
G02*
X18857200Y-6934200I-15000J0D01*
G01*
X18857200Y-6934200D02*
G75*
G02*
X18887200Y-6934200I15000J0D01*
G01*
X18938000Y-4470400D02*
G75*
G02*
X18908000Y-4470400I-15000J0D01*
G01*
X18908000Y-4470400D02*
G75*
G02*
X18938000Y-4470400I15000J0D01*
G01*
X18961412Y-5357412D02*
G75*
G02*
X18931412Y-5357412I-15000J0D01*
G01*
X18931412Y-5357412D02*
G75*
G02*
X18961412Y-5357412I15000J0D01*
G01*
X18963400Y-5207000D02*
G75*
G02*
X18933400Y-5207000I-15000J0D01*
G01*
X18933400Y-5207000D02*
G75*
G02*
X18963400Y-5207000I15000J0D01*
G01*
X18988800Y-4597400D02*
G75*
G02*
X18958800Y-4597400I-15000J0D01*
G01*
X18958800Y-4597400D02*
G75*
G02*
X18988800Y-4597400I15000J0D01*
G01*
X18988800Y-8763000D02*
G75*
G02*
X18958800Y-8763000I-15000J0D01*
G01*
X18958800Y-8763000D02*
G75*
G02*
X18988800Y-8763000I15000J0D01*
G01*
X19090400Y-4749800D02*
G75*
G02*
X19060400Y-4749800I-15000J0D01*
G01*
X19060400Y-4749800D02*
G75*
G02*
X19090400Y-4749800I15000J0D01*
G01*
X19097979Y-5469485D02*
G75*
G02*
X19067979Y-5469485I-15000J0D01*
G01*
X19067979Y-5469485D02*
G75*
G02*
X19097979Y-5469485I15000J0D01*
G01*
X19115800Y-4927600D02*
G75*
G02*
X19085800Y-4927600I-15000J0D01*
G01*
X19085800Y-4927600D02*
G75*
G02*
X19115800Y-4927600I15000J0D01*
G01*
X19115800Y-5029200D02*
G75*
G02*
X19085800Y-5029200I-15000J0D01*
G01*
X19085800Y-5029200D02*
G75*
G02*
X19115800Y-5029200I15000J0D01*
G01*
X19128574Y-7752885D02*
G75*
G02*
X19098574Y-7752885I-15000J0D01*
G01*
X19098574Y-7752885D02*
G75*
G02*
X19128574Y-7752885I15000J0D01*
G01*
X19390957Y-5058171D02*
G75*
G02*
X19360957Y-5058171I-15000J0D01*
G01*
X19360957Y-5058171D02*
G75*
G02*
X19390957Y-5058171I15000J0D01*
G01*
X19649200Y-6934200D02*
G75*
G02*
X19619200Y-6934200I-15000J0D01*
G01*
X19619200Y-6934200D02*
G75*
G02*
X19649200Y-6934200I15000J0D01*
G01*
X19696476Y-8904253D02*
G75*
G02*
X19666476Y-8904253I-15000J0D01*
G01*
X19666476Y-8904253D02*
G75*
G02*
X19696476Y-8904253I15000J0D01*
G01*
X19940419Y-6203711D02*
G75*
G02*
X19910419Y-6203711I-15000J0D01*
G01*
X19910419Y-6203711D02*
G75*
G02*
X19940419Y-6203711I15000J0D01*
G01*
X19940496Y-7651889D02*
G75*
G02*
X19910496Y-7651889I-15000J0D01*
G01*
X19910496Y-7651889D02*
G75*
G02*
X19940496Y-7651889I15000J0D01*
G01*
X20034678Y-6798059D02*
G75*
G02*
X20004678Y-6798059I-15000J0D01*
G01*
X20004678Y-6798059D02*
G75*
G02*
X20034678Y-6798059I15000J0D01*
G01*
X20047251Y-8906425D02*
G75*
G02*
X20017251Y-8906425I-15000J0D01*
G01*
X20017251Y-8906425D02*
G75*
G02*
X20047251Y-8906425I15000J0D01*
G01*
X20260422Y-7102822D02*
G75*
G02*
X20230422Y-7102822I-15000J0D01*
G01*
X20230422Y-7102822D02*
G75*
G02*
X20260422Y-7102822I15000J0D01*
G01*
X20322245Y-4222549D02*
G75*
G02*
X20292245Y-4222549I-15000J0D01*
G01*
X20292245Y-4222549D02*
G75*
G02*
X20322245Y-4222549I15000J0D01*
G01*
X20335000Y-5562600D02*
G75*
G02*
X20305000Y-5562600I-15000J0D01*
G01*
X20305000Y-5562600D02*
G75*
G02*
X20335000Y-5562600I15000J0D01*
G01*
X20411879Y-4450708D02*
G75*
G02*
X20381879Y-4450708I-15000J0D01*
G01*
X20381879Y-4450708D02*
G75*
G02*
X20411879Y-4450708I15000J0D01*
G01*
X20744611Y-4168904D02*
G75*
G02*
X20714611Y-4168904I-15000J0D01*
G01*
X20714611Y-4168904D02*
G75*
G02*
X20744611Y-4168904I15000J0D01*
G01*
X20826767Y-5278171D02*
G75*
G02*
X20796767Y-5278171I-15000J0D01*
G01*
X20796767Y-5278171D02*
G75*
G02*
X20826767Y-5278171I15000J0D01*
G01*
X21354392Y-4466326D02*
G75*
G02*
X21324392Y-4466326I-15000J0D01*
G01*
X21324392Y-4466326D02*
G75*
G02*
X21354392Y-4466326I15000J0D01*
G01*
X21681200Y-8763000D02*
G75*
G02*
X21651200Y-8763000I-15000J0D01*
G01*
X21651200Y-8763000D02*
G75*
G02*
X21681200Y-8763000I15000J0D01*
G01*
X21681200Y-8991600D02*
G75*
G02*
X21651200Y-8991600I-15000J0D01*
G01*
X21651200Y-8991600D02*
G75*
G02*
X21681200Y-8991600I15000J0D01*
G01*
X21782800Y-8763000D02*
G75*
G02*
X21752800Y-8763000I-15000J0D01*
G01*
X21752800Y-8763000D02*
G75*
G02*
X21782800Y-8763000I15000J0D01*
G01*
X21782800Y-8991600D02*
G75*
G02*
X21752800Y-8991600I-15000J0D01*
G01*
X21752800Y-8991600D02*
G75*
G02*
X21782800Y-8991600I15000J0D01*
G01*
X21785200Y-4267200D02*
G75*
G02*
X21755200Y-4267200I-15000J0D01*
G01*
X21755200Y-4267200D02*
G75*
G02*
X21785200Y-4267200I15000J0D01*
G01*
X21859000Y-8610600D02*
G75*
G02*
X21829000Y-8610600I-15000J0D01*
G01*
X21829000Y-8610600D02*
G75*
G02*
X21859000Y-8610600I15000J0D01*
G01*
X21866194Y-8832960D02*
G75*
G02*
X21836194Y-8832960I-15000J0D01*
G01*
X21836194Y-8832960D02*
G75*
G02*
X21866194Y-8832960I15000J0D01*
G01*
X22023472Y-8543655D02*
G75*
G02*
X21993472Y-8543655I-15000J0D01*
G01*
X21993472Y-8543655D02*
G75*
G02*
X22023472Y-8543655I15000J0D01*
G01*
X22087600Y-3886200D02*
G75*
G02*
X22057600Y-3886200I-15000J0D01*
G01*
X22057600Y-3886200D02*
G75*
G02*
X22087600Y-3886200I15000J0D01*
G01*
X22204641Y-4277159D02*
G75*
G02*
X22174641Y-4277159I-15000J0D01*
G01*
X22174641Y-4277159D02*
G75*
G02*
X22204641Y-4277159I15000J0D01*
G01*
X22240000Y-7620000D02*
G75*
G02*
X22210000Y-7620000I-15000J0D01*
G01*
X22210000Y-7620000D02*
G75*
G02*
X22240000Y-7620000I15000J0D01*
G01*
X22380599Y-8530910D02*
G75*
G02*
X22350599Y-8530910I-15000J0D01*
G01*
X22350599Y-8530910D02*
G75*
G02*
X22380599Y-8530910I15000J0D01*
G01*
X22383891Y-8404792D02*
G75*
G02*
X22353891Y-8404792I-15000J0D01*
G01*
X22353891Y-8404792D02*
G75*
G02*
X22383891Y-8404792I15000J0D01*
G01*
X22384215Y-8276910D02*
G75*
G02*
X22354215Y-8276910I-15000J0D01*
G01*
X22354215Y-8276910D02*
G75*
G02*
X22384215Y-8276910I15000J0D01*
G01*
X22390397Y-9418353D02*
G75*
G02*
X22360397Y-9418353I-15000J0D01*
G01*
X22360397Y-9418353D02*
G75*
G02*
X22390397Y-9418353I15000J0D01*
G01*
X22392922Y-8658270D02*
G75*
G02*
X22362922Y-8658270I-15000J0D01*
G01*
X22362922Y-8658270D02*
G75*
G02*
X22392922Y-8658270I15000J0D01*
G01*
X22414279Y-7406987D02*
G75*
G02*
X22384279Y-7406987I-15000J0D01*
G01*
X22384279Y-7406987D02*
G75*
G02*
X22414279Y-7406987I15000J0D01*
G01*
X22519400Y-8737600D02*
G75*
G02*
X22489400Y-8737600I-15000J0D01*
G01*
X22489400Y-8737600D02*
G75*
G02*
X22519400Y-8737600I15000J0D01*
G01*
X22644666Y-9245600D02*
G75*
G02*
X22614666Y-9245600I-15000J0D01*
G01*
X22614666Y-9245600D02*
G75*
G02*
X22644666Y-9245600I15000J0D01*
G01*
X22671800Y-8636000D02*
G75*
G02*
X22641800Y-8636000I-15000J0D01*
G01*
X22641800Y-8636000D02*
G75*
G02*
X22671800Y-8636000I15000J0D01*
G01*
X22933269Y-4513289D02*
G75*
G02*
X22903269Y-4513289I-15000J0D01*
G01*
X22903269Y-4513289D02*
G75*
G02*
X22933269Y-4513289I15000J0D01*
G01*
X22933545Y-4077856D02*
G75*
G02*
X22903545Y-4077856I-15000J0D01*
G01*
X22903545Y-4077856D02*
G75*
G02*
X22933545Y-4077856I15000J0D01*
G01*
X23006919Y-8645488D02*
G75*
G02*
X22976919Y-8645488I-15000J0D01*
G01*
X22976919Y-8645488D02*
G75*
G02*
X23006919Y-8645488I15000J0D01*
G01*
X23007598Y-8508321D02*
G75*
G02*
X22977598Y-8508321I-15000J0D01*
G01*
X22977598Y-8508321D02*
G75*
G02*
X23007598Y-8508321I15000J0D01*
G01*
X23008956Y-8786729D02*
G75*
G02*
X22978956Y-8786729I-15000J0D01*
G01*
X22978956Y-8786729D02*
G75*
G02*
X23008956Y-8786729I15000J0D01*
G01*
X23048726Y-7803911D02*
G75*
G02*
X23018726Y-7803911I-15000J0D01*
G01*
X23018726Y-7803911D02*
G75*
G02*
X23048726Y-7803911I15000J0D01*
G01*
X23068014Y-5852461D02*
G75*
G02*
X23038014Y-5852461I-15000J0D01*
G01*
X23038014Y-5852461D02*
G75*
G02*
X23068014Y-5852461I15000J0D01*
G01*
X23179800Y-7874000D02*
G75*
G02*
X23149800Y-7874000I-15000J0D01*
G01*
X23149800Y-7874000D02*
G75*
G02*
X23179800Y-7874000I15000J0D01*
G01*
X23195693Y-4768979D02*
G75*
G02*
X23165693Y-4768979I-15000J0D01*
G01*
X23165693Y-4768979D02*
G75*
G02*
X23195693Y-4768979I15000J0D01*
G01*
X23196331Y-5717157D02*
G75*
G02*
X23166331Y-5717157I-15000J0D01*
G01*
X23166331Y-5717157D02*
G75*
G02*
X23196331Y-5717157I15000J0D01*
G01*
X23261561Y-8399674D02*
G75*
G02*
X23231561Y-8399674I-15000J0D01*
G01*
X23231561Y-8399674D02*
G75*
G02*
X23261561Y-8399674I15000J0D01*
G01*
X23303231Y-7883031D02*
G75*
G02*
X23273231Y-7883031I-15000J0D01*
G01*
X23273231Y-7883031D02*
G75*
G02*
X23303231Y-7883031I15000J0D01*
G01*
X23322972Y-5722141D02*
G75*
G02*
X23292972Y-5722141I-15000J0D01*
G01*
X23292972Y-5722141D02*
G75*
G02*
X23322972Y-5722141I15000J0D01*
G01*
X23524351Y-8788766D02*
G75*
G02*
X23494351Y-8788766I-15000J0D01*
G01*
X23494351Y-8788766D02*
G75*
G02*
X23524351Y-8788766I15000J0D01*
G01*
X23529783Y-8647525D02*
G75*
G02*
X23499783Y-8647525I-15000J0D01*
G01*
X23499783Y-8647525D02*
G75*
G02*
X23529783Y-8647525I15000J0D01*
G01*
X23531141Y-8558570D02*
G75*
G02*
X23501141Y-8558570I-15000J0D01*
G01*
X23501141Y-8558570D02*
G75*
G02*
X23531141Y-8558570I15000J0D01*
G01*
X23611030Y-5983260D02*
G75*
G02*
X23581030Y-5983260I-15000J0D01*
G01*
X23581030Y-5983260D02*
G75*
G02*
X23611030Y-5983260I15000J0D01*
G01*
X23754946Y-8331200D02*
G75*
G02*
X23724946Y-8331200I-15000J0D01*
G01*
X23724946Y-8331200D02*
G75*
G02*
X23754946Y-8331200I15000J0D01*
G01*
X23770092Y-5061666D02*
G75*
G02*
X23740092Y-5061666I-15000J0D01*
G01*
X23740092Y-5061666D02*
G75*
G02*
X23770092Y-5061666I15000J0D01*
G01*
X23774250Y-8023344D02*
G75*
G02*
X23744250Y-8023344I-15000J0D01*
G01*
X23744250Y-8023344D02*
G75*
G02*
X23774250Y-8023344I15000J0D01*
G01*
X23838566Y-9417289D02*
G75*
G02*
X23808566Y-9417289I-15000J0D01*
G01*
X23808566Y-9417289D02*
G75*
G02*
X23838566Y-9417289I15000J0D01*
G01*
X23847945Y-8275647D02*
G75*
G02*
X23817945Y-8275647I-15000J0D01*
G01*
X23817945Y-8275647D02*
G75*
G02*
X23847945Y-8275647I15000J0D01*
G01*
X24100990Y-4520925D02*
G75*
G02*
X24070990Y-4520925I-15000J0D01*
G01*
X24070990Y-4520925D02*
G75*
G02*
X24100990Y-4520925I15000J0D01*
G01*
X24103303Y-4066716D02*
G75*
G02*
X24073303Y-4066716I-15000J0D01*
G01*
X24073303Y-4066716D02*
G75*
G02*
X24103303Y-4066716I15000J0D01*
G01*
X24170400Y-8712200D02*
G75*
G02*
X24140400Y-8712200I-15000J0D01*
G01*
X24140400Y-8712200D02*
G75*
G02*
X24170400Y-8712200I15000J0D01*
G01*
X24235056Y-5725295D02*
G75*
G02*
X24205056Y-5725295I-15000J0D01*
G01*
X24205056Y-5725295D02*
G75*
G02*
X24235056Y-5725295I15000J0D01*
G01*
X24322800Y-8661400D02*
G75*
G02*
X24292800Y-8661400I-15000J0D01*
G01*
X24292800Y-8661400D02*
G75*
G02*
X24322800Y-8661400I15000J0D01*
G01*
X24363139Y-4757839D02*
G75*
G02*
X24333139Y-4757839I-15000J0D01*
G01*
X24333139Y-4757839D02*
G75*
G02*
X24363139Y-4757839I15000J0D01*
G01*
X24363250Y-7711250D02*
G75*
G02*
X24333250Y-7711250I-15000J0D01*
G01*
X24333250Y-7711250D02*
G75*
G02*
X24363250Y-7711250I15000J0D01*
G01*
X24414075Y-8876507D02*
G75*
G02*
X24384075Y-8876507I-15000J0D01*
G01*
X24384075Y-8876507D02*
G75*
G02*
X24414075Y-8876507I15000J0D01*
G01*
X24722134Y-9450158D02*
G75*
G02*
X24692134Y-9450158I-15000J0D01*
G01*
X24692134Y-9450158D02*
G75*
G02*
X24722134Y-9450158I15000J0D01*
G01*
X24754600Y-9296400D02*
G75*
G02*
X24724600Y-9296400I-15000J0D01*
G01*
X24724600Y-9296400D02*
G75*
G02*
X24754600Y-9296400I15000J0D01*
G01*
X24775473Y-5982581D02*
G75*
G02*
X24745473Y-5982581I-15000J0D01*
G01*
X24745473Y-5982581D02*
G75*
G02*
X24775473Y-5982581I15000J0D01*
G01*
X24805400Y-8153400D02*
G75*
G02*
X24775400Y-8153400I-15000J0D01*
G01*
X24775400Y-8153400D02*
G75*
G02*
X24805400Y-8153400I15000J0D01*
G01*
X24907000Y-7874000D02*
G75*
G02*
X24877000Y-7874000I-15000J0D01*
G01*
X24877000Y-7874000D02*
G75*
G02*
X24907000Y-7874000I15000J0D01*
G01*
X24907000Y-8270820D02*
G75*
G02*
X24877000Y-8270820I-15000J0D01*
G01*
X24877000Y-8270820D02*
G75*
G02*
X24907000Y-8270820I15000J0D01*
G01*
X24932853Y-5063201D02*
G75*
G02*
X24902853Y-5063201I-15000J0D01*
G01*
X24902853Y-5063201D02*
G75*
G02*
X24932853Y-5063201I15000J0D01*
G01*
X25033217Y-9525000D02*
G75*
G02*
X25003217Y-9525000I-15000J0D01*
G01*
X25003217Y-9525000D02*
G75*
G02*
X25033217Y-9525000I15000J0D01*
G01*
X25034000Y-9448800D02*
G75*
G02*
X25004000Y-9448800I-15000J0D01*
G01*
X25004000Y-9448800D02*
G75*
G02*
X25034000Y-9448800I15000J0D01*
G01*
X25038869Y-6505182D02*
G75*
G02*
X25008869Y-6505182I-15000J0D01*
G01*
X25008869Y-6505182D02*
G75*
G02*
X25038869Y-6505182I15000J0D01*
G01*
X25052262Y-7460557D02*
G75*
G02*
X25022262Y-7460557I-15000J0D01*
G01*
X25022262Y-7460557D02*
G75*
G02*
X25052262Y-7460557I15000J0D01*
G01*
X25161000Y-5689600D02*
G75*
G02*
X25131000Y-5689600I-15000J0D01*
G01*
X25131000Y-5689600D02*
G75*
G02*
X25161000Y-5689600I15000J0D01*
G01*
X25161000Y-8585200D02*
G75*
G02*
X25131000Y-8585200I-15000J0D01*
G01*
X25131000Y-8585200D02*
G75*
G02*
X25161000Y-8585200I15000J0D01*
G01*
X25164000Y-4696000D02*
G75*
G02*
X25134000Y-4696000I-15000J0D01*
G01*
X25134000Y-4696000D02*
G75*
G02*
X25164000Y-4696000I15000J0D01*
G01*
X25339705Y-8585151D02*
G75*
G02*
X25309705Y-8585151I-15000J0D01*
G01*
X25309705Y-8585151D02*
G75*
G02*
X25339705Y-8585151I15000J0D01*
G01*
X25339763Y-5678425D02*
G75*
G02*
X25309763Y-5678425I-15000J0D01*
G01*
X25309763Y-5678425D02*
G75*
G02*
X25339763Y-5678425I15000J0D01*
G01*
X25340442Y-6646794D02*
G75*
G02*
X25310442Y-6646794I-15000J0D01*
G01*
X25310442Y-6646794D02*
G75*
G02*
X25340442Y-6646794I15000J0D01*
G01*
X25340709Y-9520632D02*
G75*
G02*
X25310709Y-9520632I-15000J0D01*
G01*
X25310709Y-9520632D02*
G75*
G02*
X25340709Y-9520632I15000J0D01*
G01*
X25340837Y-7611833D02*
G75*
G02*
X25310837Y-7611833I-15000J0D01*
G01*
X25310837Y-7611833D02*
G75*
G02*
X25340837Y-7611833I15000J0D01*
G01*
X25341112Y-4706322D02*
G75*
G02*
X25311112Y-4706322I-15000J0D01*
G01*
X25311112Y-4706322D02*
G75*
G02*
X25341112Y-4706322I15000J0D01*
G01*
X25824569Y-8907251D02*
G75*
G02*
X25794569Y-8907251I-15000J0D01*
G01*
X25794569Y-8907251D02*
G75*
G02*
X25824569Y-8907251I15000J0D01*
G01*
X23113900Y-5159729D02*
X23113900Y-5192729D01*
X23097400Y-5176229D02*
X23130400Y-5176229D01*
X23113900Y-5289729D02*
X23113900Y-5322729D01*
X23097400Y-5306229D02*
X23130400Y-5306229D01*
X23243900Y-5159729D02*
X23243900Y-5192729D01*
X23227400Y-5176229D02*
X23260400Y-5176229D01*
X23243900Y-5289729D02*
X23243900Y-5322729D01*
X23227400Y-5306229D02*
X23260400Y-5306229D01*
X23373900Y-5159729D02*
X23373900Y-5192729D01*
X23357400Y-5176229D02*
X23390400Y-5176229D01*
X23373900Y-5289729D02*
X23373900Y-5322729D01*
X23357400Y-5306229D02*
X23390400Y-5306229D01*
X24282400Y-5159729D02*
X24282400Y-5192729D01*
X24265900Y-5176229D02*
X24298900Y-5176229D01*
X24282400Y-5289729D02*
X24282400Y-5322729D01*
X24265900Y-5306229D02*
X24298900Y-5306229D01*
X24412400Y-5159729D02*
X24412400Y-5192729D01*
X24395900Y-5176229D02*
X24428900Y-5176229D01*
X24412400Y-5289729D02*
X24412400Y-5322729D01*
X24395900Y-5306229D02*
X24428900Y-5306229D01*
X24542400Y-5159729D02*
X24542400Y-5192729D01*
X24525900Y-5176229D02*
X24558900Y-5176229D01*
X24542400Y-5289729D02*
X24542400Y-5322729D01*
X24525900Y-5306229D02*
X24558900Y-5306229D01*
X18818556Y-3891356D02*
X18818556Y-3820644D01*
X18747844Y-3820644D01*
X18747844Y-3891356D01*
X18818556Y-3891356D01*
X18733200Y-3756000D02*
X18733200Y-3956000D01*
X18833200Y-3956000D02*
G75*
G02*
X18733200Y-3956000I-50000J0D01*
G01*
X18833200Y-3956000D02*
X18833200Y-3756000D01*
X18833200Y-3756000D02*
G75*
G03*
X18733200Y-3756000I-50000J0D01*
G01*
X19237756Y-8468156D02*
X19237756Y-8397444D01*
X19167044Y-8397444D01*
X19167044Y-8468156D01*
X19237756Y-8468156D01*
X19288556Y-3591356D02*
X19288556Y-3520644D01*
X19217844Y-3520644D01*
X19217844Y-3591356D01*
X19288556Y-3591356D01*
X19353200Y-3506000D02*
X19153200Y-3506000D01*
X19153200Y-3606000D02*
G75*
G02*
X19153200Y-3506000I0J50000D01*
G01*
X19153200Y-3606000D02*
X19353200Y-3606000D01*
X19353200Y-3606000D02*
G75*
G03*
X19353200Y-3506000I0J50000D01*
G01*
X19288556Y-4191356D02*
X19288556Y-4120644D01*
X19217844Y-4120644D01*
X19217844Y-4191356D01*
X19288556Y-4191356D01*
X19353200Y-4106000D02*
X19153200Y-4106000D01*
X19153200Y-4206000D02*
G75*
G02*
X19153200Y-4106000I0J50000D01*
G01*
X19153200Y-4206000D02*
X19353200Y-4206000D01*
X19353200Y-4206000D02*
G75*
G03*
X19353200Y-4106000I0J50000D01*
G01*
X19503656Y-9268956D02*
X19503656Y-9198244D01*
X19432944Y-9198244D01*
X19432944Y-9268956D01*
X19503656Y-9268956D01*
X19771156Y-7954956D02*
X19771156Y-7884244D01*
X19700444Y-7884244D01*
X19700444Y-7954956D01*
X19771156Y-7954956D01*
D13*
X22021800Y-6430400D02*
X22076800Y-6375400D01*
X22021800Y-6320400D01*
X21966800Y-6375400D01*
X22021800Y-6430400D01*
X22021800Y-6684400D02*
X22076800Y-6629400D01*
X22021800Y-6574400D01*
X21966800Y-6629400D01*
X22021800Y-6684400D01*
X22275800Y-6430400D02*
X22330800Y-6375400D01*
X22275800Y-6320400D01*
X22220800Y-6375400D01*
X22275800Y-6430400D01*
X22275800Y-6684400D02*
X22330800Y-6629400D01*
X22275800Y-6574400D01*
X22220800Y-6629400D01*
X22275800Y-6684400D01*
X22529800Y-6430400D02*
X22584800Y-6375400D01*
X22529800Y-6320400D01*
X22474800Y-6375400D01*
X22529800Y-6430400D01*
X22529800Y-6684400D02*
X22584800Y-6629400D01*
X22529800Y-6574400D01*
X22474800Y-6629400D01*
X22529800Y-6684400D01*
D14*
X17938600Y-8084900D02*
X18051600Y-8197900D01*
X18051600Y-8084900D02*
X17938600Y-8197900D01*
X18051600Y-8141400D02*
G75*
G02*
X17938600Y-8141400I-56500J0D01*
G01*
X17938600Y-8141400D02*
G75*
G02*
X18051600Y-8141400I56500J0D01*
G01*
X17938600Y-8338900D02*
X18051600Y-8451900D01*
X18051600Y-8338900D02*
X17938600Y-8451900D01*
X18051600Y-8395400D02*
G75*
G02*
X17938600Y-8395400I-56500J0D01*
G01*
X17938600Y-8395400D02*
G75*
G02*
X18051600Y-8395400I56500J0D01*
G01*
X17938600Y-8592900D02*
X18051600Y-8705900D01*
X18051600Y-8592900D02*
X17938600Y-8705900D01*
X18051600Y-8649400D02*
G75*
G02*
X17938600Y-8649400I-56500J0D01*
G01*
X17938600Y-8649400D02*
G75*
G02*
X18051600Y-8649400I56500J0D01*
G01*
X17938600Y-8846900D02*
X18051600Y-8959900D01*
X18051600Y-8846900D02*
X17938600Y-8959900D01*
X18051600Y-8903400D02*
G75*
G02*
X17938600Y-8903400I-56500J0D01*
G01*
X17938600Y-8903400D02*
G75*
G02*
X18051600Y-8903400I56500J0D01*
G01*
X17938600Y-9100900D02*
X18051600Y-9213900D01*
X18051600Y-9100900D02*
X17938600Y-9213900D01*
X18051600Y-9157400D02*
G75*
G02*
X17938600Y-9157400I-56500J0D01*
G01*
X17938600Y-9157400D02*
G75*
G02*
X18051600Y-9157400I56500J0D01*
G01*
X17938600Y-9354900D02*
X18051600Y-9467900D01*
X18051600Y-9354900D02*
X17938600Y-9467900D01*
X18051600Y-9411400D02*
G75*
G02*
X17938600Y-9411400I-56500J0D01*
G01*
X17938600Y-9411400D02*
G75*
G02*
X18051600Y-9411400I56500J0D01*
G01*
X20619100Y-8198500D02*
X20732100Y-8311500D01*
X20732100Y-8198500D02*
X20619100Y-8311500D01*
X20732100Y-8255000D02*
G75*
G02*
X20619100Y-8255000I-56500J0D01*
G01*
X20619100Y-8255000D02*
G75*
G02*
X20732100Y-8255000I56500J0D01*
G01*
X20619100Y-8452500D02*
X20732100Y-8565500D01*
X20732100Y-8452500D02*
X20619100Y-8565500D01*
X20732100Y-8509000D02*
G75*
G02*
X20619100Y-8509000I-56500J0D01*
G01*
X20619100Y-8509000D02*
G75*
G02*
X20732100Y-8509000I56500J0D01*
G01*
X20619100Y-8706500D02*
X20732100Y-8819500D01*
X20732100Y-8706500D02*
X20619100Y-8819500D01*
X20732100Y-8763000D02*
G75*
G02*
X20619100Y-8763000I-56500J0D01*
G01*
X20619100Y-8763000D02*
G75*
G02*
X20732100Y-8763000I56500J0D01*
G01*
X20619100Y-8960500D02*
X20732100Y-9073500D01*
X20732100Y-8960500D02*
X20619100Y-9073500D01*
X20732100Y-9017000D02*
G75*
G02*
X20619100Y-9017000I-56500J0D01*
G01*
X20619100Y-9017000D02*
G75*
G02*
X20732100Y-9017000I56500J0D01*
G01*
X20619100Y-9214500D02*
X20732100Y-9327500D01*
X20732100Y-9214500D02*
X20619100Y-9327500D01*
X20732100Y-9271000D02*
G75*
G02*
X20619100Y-9271000I-56500J0D01*
G01*
X20619100Y-9271000D02*
G75*
G02*
X20732100Y-9271000I56500J0D01*
G01*
X20619100Y-9468500D02*
X20732100Y-9581500D01*
X20732100Y-9468500D02*
X20619100Y-9581500D01*
X20732100Y-9525000D02*
G75*
G02*
X20619100Y-9525000I-56500J0D01*
G01*
X20619100Y-9525000D02*
G75*
G02*
X20732100Y-9525000I56500J0D01*
G01*
D15*
X20199729Y-3498080D02*
X20339729Y-3638080D01*
X20339729Y-3498080D02*
X20199729Y-3638080D01*
X20269729Y-3498080D02*
X20269729Y-3638080D01*
X20199729Y-3568080D02*
X20339729Y-3568080D01*
X20580729Y-3498080D02*
X20720729Y-3638080D01*
X20720729Y-3498080D02*
X20580729Y-3638080D01*
X20650729Y-3498080D02*
X20650729Y-3638080D01*
X20580729Y-3568080D02*
X20720729Y-3568080D01*
X20961729Y-3498080D02*
X21101729Y-3638080D01*
X21101729Y-3498080D02*
X20961729Y-3638080D01*
X21031729Y-3498080D02*
X21031729Y-3638080D01*
X20961729Y-3568080D02*
X21101729Y-3568080D01*
X21545929Y-3498080D02*
X21685929Y-3638080D01*
X21685929Y-3498080D02*
X21545929Y-3638080D01*
X21615929Y-3498080D02*
X21615929Y-3638080D01*
X21545929Y-3568080D02*
X21685929Y-3568080D01*
X21926929Y-3498080D02*
X22066929Y-3638080D01*
X22066929Y-3498080D02*
X21926929Y-3638080D01*
X21996929Y-3498080D02*
X21996929Y-3638080D01*
X21926929Y-3568080D02*
X22066929Y-3568080D01*
X22307929Y-3498080D02*
X22447929Y-3638080D01*
X22447929Y-3498080D02*
X22307929Y-3638080D01*
X22377929Y-3498080D02*
X22377929Y-3638080D01*
X22307929Y-3568080D02*
X22447929Y-3568080D01*
X22970400Y-3509029D02*
X23110400Y-3649029D01*
X23110400Y-3509029D02*
X22970400Y-3649029D01*
X23040400Y-3509029D02*
X23040400Y-3649029D01*
X22970400Y-3579029D02*
X23110400Y-3579029D01*
X23351400Y-3509029D02*
X23491400Y-3649029D01*
X23491400Y-3509029D02*
X23351400Y-3649029D01*
X23421400Y-3509029D02*
X23421400Y-3649029D01*
X23351400Y-3579029D02*
X23491400Y-3579029D01*
X24138900Y-3509029D02*
X24278900Y-3649029D01*
X24278900Y-3509029D02*
X24138900Y-3649029D01*
X24208900Y-3509029D02*
X24208900Y-3649029D01*
X24138900Y-3579029D02*
X24278900Y-3579029D01*
X24519900Y-3509029D02*
X24659900Y-3649029D01*
X24659900Y-3509029D02*
X24519900Y-3649029D01*
X24589900Y-3509029D02*
X24589900Y-3649029D01*
X24519900Y-3579029D02*
X24659900Y-3579029D01*
X26382100Y-4123700D02*
X26522100Y-4263700D01*
X26522100Y-4123700D02*
X26382100Y-4263700D01*
X26452100Y-4123700D02*
X26452100Y-4263700D01*
X26382100Y-4193700D02*
X26522100Y-4193700D01*
X26382100Y-4504700D02*
X26522100Y-4644700D01*
X26522100Y-4504700D02*
X26382100Y-4644700D01*
X26452100Y-4504700D02*
X26452100Y-4644700D01*
X26382100Y-4574700D02*
X26522100Y-4574700D01*
X26382100Y-5088900D02*
X26522100Y-5228900D01*
X26522100Y-5088900D02*
X26382100Y-5228900D01*
X26452100Y-5088900D02*
X26452100Y-5228900D01*
X26382100Y-5158900D02*
X26522100Y-5158900D01*
X26382100Y-5469900D02*
X26522100Y-5609900D01*
X26522100Y-5469900D02*
X26382100Y-5609900D01*
X26452100Y-5469900D02*
X26452100Y-5609900D01*
X26382100Y-5539900D02*
X26522100Y-5539900D01*
X26382100Y-6054100D02*
X26522100Y-6194100D01*
X26522100Y-6054100D02*
X26382100Y-6194100D01*
X26452100Y-6054100D02*
X26452100Y-6194100D01*
X26382100Y-6124100D02*
X26522100Y-6124100D01*
X26382100Y-6435100D02*
X26522100Y-6575100D01*
X26522100Y-6435100D02*
X26382100Y-6575100D01*
X26452100Y-6435100D02*
X26452100Y-6575100D01*
X26382100Y-6505100D02*
X26522100Y-6505100D01*
X26382100Y-7009200D02*
X26522100Y-7149200D01*
X26522100Y-7009200D02*
X26382100Y-7149200D01*
X26452100Y-7009200D02*
X26452100Y-7149200D01*
X26382100Y-7079200D02*
X26522100Y-7079200D01*
X26382100Y-7390200D02*
X26522100Y-7530200D01*
X26522100Y-7390200D02*
X26382100Y-7530200D01*
X26452100Y-7390200D02*
X26452100Y-7530200D01*
X26382100Y-7460200D02*
X26522100Y-7460200D01*
X26382100Y-7974400D02*
X26522100Y-8114400D01*
X26522100Y-7974400D02*
X26382100Y-8114400D01*
X26452100Y-7974400D02*
X26452100Y-8114400D01*
X26382100Y-8044400D02*
X26522100Y-8044400D01*
X26382100Y-8355400D02*
X26522100Y-8495400D01*
X26522100Y-8355400D02*
X26382100Y-8495400D01*
X26452100Y-8355400D02*
X26452100Y-8495400D01*
X26382100Y-8425400D02*
X26522100Y-8425400D01*
X26382100Y-8939600D02*
X26522100Y-9079600D01*
X26522100Y-8939600D02*
X26382100Y-9079600D01*
X26452100Y-8939600D02*
X26452100Y-9079600D01*
X26382100Y-9009600D02*
X26522100Y-9009600D01*
X26382100Y-9320600D02*
X26522100Y-9460600D01*
X26522100Y-9320600D02*
X26382100Y-9460600D01*
X26452100Y-9320600D02*
X26452100Y-9460600D01*
X26382100Y-9390600D02*
X26522100Y-9390600D01*
D11*
X17809677Y-10335784D02*
X17809677Y-10135784D01*
X17809677Y-10135784D02*
X17857296Y-10135784D01*
X17857296Y-10135784D02*
X17885867Y-10145308D01*
X17885867Y-10145308D02*
X17904915Y-10164355D01*
X17904915Y-10164355D02*
X17914439Y-10183403D01*
X17914439Y-10183403D02*
X17923963Y-10221498D01*
X17923963Y-10221498D02*
X17923963Y-10250070D01*
X17923963Y-10250070D02*
X17914439Y-10288165D01*
X17914439Y-10288165D02*
X17904915Y-10307212D01*
X17904915Y-10307212D02*
X17885867Y-10326260D01*
X17885867Y-10326260D02*
X17857296Y-10335784D01*
X17857296Y-10335784D02*
X17809677Y-10335784D01*
X18009677Y-10335784D02*
X18009677Y-10202450D01*
X18009677Y-10240546D02*
X18019201Y-10221498D01*
X18019201Y-10221498D02*
X18028724Y-10211974D01*
X18028724Y-10211974D02*
X18047772Y-10202450D01*
X18047772Y-10202450D02*
X18066820Y-10202450D01*
X18133486Y-10335784D02*
X18133486Y-10202450D01*
X18133486Y-10135784D02*
X18123963Y-10145308D01*
X18123963Y-10145308D02*
X18133486Y-10154831D01*
X18133486Y-10154831D02*
X18143010Y-10145308D01*
X18143010Y-10145308D02*
X18133486Y-10135784D01*
X18133486Y-10135784D02*
X18133486Y-10154831D01*
X18257296Y-10335784D02*
X18238248Y-10326260D01*
X18238248Y-10326260D02*
X18228724Y-10307212D01*
X18228724Y-10307212D02*
X18228724Y-10135784D01*
X18362058Y-10335784D02*
X18343010Y-10326260D01*
X18343010Y-10326260D02*
X18333486Y-10307212D01*
X18333486Y-10307212D02*
X18333486Y-10135784D01*
X18590629Y-10335784D02*
X18590629Y-10135784D01*
X18590629Y-10135784D02*
X18657296Y-10278641D01*
X18657296Y-10278641D02*
X18723963Y-10135784D01*
X18723963Y-10135784D02*
X18723963Y-10335784D01*
X18904915Y-10335784D02*
X18904915Y-10231022D01*
X18904915Y-10231022D02*
X18895391Y-10211974D01*
X18895391Y-10211974D02*
X18876344Y-10202450D01*
X18876344Y-10202450D02*
X18838248Y-10202450D01*
X18838248Y-10202450D02*
X18819201Y-10211974D01*
X18904915Y-10326260D02*
X18885867Y-10335784D01*
X18885867Y-10335784D02*
X18838248Y-10335784D01*
X18838248Y-10335784D02*
X18819201Y-10326260D01*
X18819201Y-10326260D02*
X18809677Y-10307212D01*
X18809677Y-10307212D02*
X18809677Y-10288165D01*
X18809677Y-10288165D02*
X18819201Y-10269117D01*
X18819201Y-10269117D02*
X18838248Y-10259593D01*
X18838248Y-10259593D02*
X18885867Y-10259593D01*
X18885867Y-10259593D02*
X18904915Y-10250070D01*
X19000153Y-10202450D02*
X19000153Y-10402450D01*
X19000153Y-10211974D02*
X19019201Y-10202450D01*
X19019201Y-10202450D02*
X19057296Y-10202450D01*
X19057296Y-10202450D02*
X19076344Y-10211974D01*
X19076344Y-10211974D02*
X19085867Y-10221498D01*
X19085867Y-10221498D02*
X19095391Y-10240546D01*
X19095391Y-10240546D02*
X19095391Y-10297689D01*
X19095391Y-10297689D02*
X19085867Y-10316736D01*
X19085867Y-10316736D02*
X19076344Y-10326260D01*
X19076344Y-10326260D02*
X19057296Y-10335784D01*
X19057296Y-10335784D02*
X19019201Y-10335784D01*
X19019201Y-10335784D02*
X19000153Y-10326260D01*
X19181105Y-10316736D02*
X19190629Y-10326260D01*
X19190629Y-10326260D02*
X19181105Y-10335784D01*
X19181105Y-10335784D02*
X19171582Y-10326260D01*
X19171582Y-10326260D02*
X19181105Y-10316736D01*
X19181105Y-10316736D02*
X19181105Y-10335784D01*
X19181105Y-10211974D02*
X19190629Y-10221498D01*
X19190629Y-10221498D02*
X19181105Y-10231022D01*
X19181105Y-10231022D02*
X19171582Y-10221498D01*
X19171582Y-10221498D02*
X19181105Y-10211974D01*
X19181105Y-10211974D02*
X19181105Y-10231022D01*
D12*
X17528900Y-10654300D02*
X17548900Y-10674300D01*
X17548900Y-10654300D02*
X17528900Y-10674300D01*
D11*
X17847772Y-10555784D02*
X17866820Y-10555784D01*
X17866820Y-10555784D02*
X17885867Y-10565308D01*
X17885867Y-10565308D02*
X17895391Y-10574831D01*
X17895391Y-10574831D02*
X17904915Y-10593879D01*
X17904915Y-10593879D02*
X17914439Y-10631974D01*
X17914439Y-10631974D02*
X17914439Y-10679593D01*
X17914439Y-10679593D02*
X17904915Y-10717689D01*
X17904915Y-10717689D02*
X17895391Y-10736736D01*
X17895391Y-10736736D02*
X17885867Y-10746260D01*
X17885867Y-10746260D02*
X17866820Y-10755784D01*
X17866820Y-10755784D02*
X17847772Y-10755784D01*
X17847772Y-10755784D02*
X17828724Y-10746260D01*
X17828724Y-10746260D02*
X17819201Y-10736736D01*
X17819201Y-10736736D02*
X17809677Y-10717689D01*
X17809677Y-10717689D02*
X17800153Y-10679593D01*
X17800153Y-10679593D02*
X17800153Y-10631974D01*
X17800153Y-10631974D02*
X17809677Y-10593879D01*
X17809677Y-10593879D02*
X17819201Y-10574831D01*
X17819201Y-10574831D02*
X17828724Y-10565308D01*
X17828724Y-10565308D02*
X17847772Y-10555784D01*
X18000153Y-10736736D02*
X18009677Y-10746260D01*
X18009677Y-10746260D02*
X18000153Y-10755784D01*
X18000153Y-10755784D02*
X17990629Y-10746260D01*
X17990629Y-10746260D02*
X18000153Y-10736736D01*
X18000153Y-10736736D02*
X18000153Y-10755784D01*
X18085867Y-10574831D02*
X18095391Y-10565308D01*
X18095391Y-10565308D02*
X18114439Y-10555784D01*
X18114439Y-10555784D02*
X18162058Y-10555784D01*
X18162058Y-10555784D02*
X18181105Y-10565308D01*
X18181105Y-10565308D02*
X18190629Y-10574831D01*
X18190629Y-10574831D02*
X18200153Y-10593879D01*
X18200153Y-10593879D02*
X18200153Y-10612927D01*
X18200153Y-10612927D02*
X18190629Y-10641498D01*
X18190629Y-10641498D02*
X18076344Y-10755784D01*
X18076344Y-10755784D02*
X18200153Y-10755784D01*
X18323963Y-10555784D02*
X18343010Y-10555784D01*
X18343010Y-10555784D02*
X18362058Y-10565308D01*
X18362058Y-10565308D02*
X18371582Y-10574831D01*
X18371582Y-10574831D02*
X18381105Y-10593879D01*
X18381105Y-10593879D02*
X18390629Y-10631974D01*
X18390629Y-10631974D02*
X18390629Y-10679593D01*
X18390629Y-10679593D02*
X18381105Y-10717689D01*
X18381105Y-10717689D02*
X18371582Y-10736736D01*
X18371582Y-10736736D02*
X18362058Y-10746260D01*
X18362058Y-10746260D02*
X18343010Y-10755784D01*
X18343010Y-10755784D02*
X18323963Y-10755784D01*
X18323963Y-10755784D02*
X18304915Y-10746260D01*
X18304915Y-10746260D02*
X18295391Y-10736736D01*
X18295391Y-10736736D02*
X18285867Y-10717689D01*
X18285867Y-10717689D02*
X18276344Y-10679593D01*
X18276344Y-10679593D02*
X18276344Y-10631974D01*
X18276344Y-10631974D02*
X18285867Y-10593879D01*
X18285867Y-10593879D02*
X18295391Y-10574831D01*
X18295391Y-10574831D02*
X18304915Y-10565308D01*
X18304915Y-10565308D02*
X18323963Y-10555784D01*
X18514439Y-10555784D02*
X18533486Y-10555784D01*
X18533486Y-10555784D02*
X18552534Y-10565308D01*
X18552534Y-10565308D02*
X18562058Y-10574831D01*
X18562058Y-10574831D02*
X18571582Y-10593879D01*
X18571582Y-10593879D02*
X18581105Y-10631974D01*
X18581105Y-10631974D02*
X18581105Y-10679593D01*
X18581105Y-10679593D02*
X18571582Y-10717689D01*
X18571582Y-10717689D02*
X18562058Y-10736736D01*
X18562058Y-10736736D02*
X18552534Y-10746260D01*
X18552534Y-10746260D02*
X18533486Y-10755784D01*
X18533486Y-10755784D02*
X18514439Y-10755784D01*
X18514439Y-10755784D02*
X18495391Y-10746260D01*
X18495391Y-10746260D02*
X18485867Y-10736736D01*
X18485867Y-10736736D02*
X18476344Y-10717689D01*
X18476344Y-10717689D02*
X18466820Y-10679593D01*
X18466820Y-10679593D02*
X18466820Y-10631974D01*
X18466820Y-10631974D02*
X18476344Y-10593879D01*
X18476344Y-10593879D02*
X18485867Y-10574831D01*
X18485867Y-10574831D02*
X18495391Y-10565308D01*
X18495391Y-10565308D02*
X18514439Y-10555784D01*
X18666820Y-10755784D02*
X18666820Y-10622450D01*
X18666820Y-10641498D02*
X18676344Y-10631974D01*
X18676344Y-10631974D02*
X18695391Y-10622450D01*
X18695391Y-10622450D02*
X18723963Y-10622450D01*
X18723963Y-10622450D02*
X18743010Y-10631974D01*
X18743010Y-10631974D02*
X18752534Y-10651022D01*
X18752534Y-10651022D02*
X18752534Y-10755784D01*
X18752534Y-10651022D02*
X18762058Y-10631974D01*
X18762058Y-10631974D02*
X18781105Y-10622450D01*
X18781105Y-10622450D02*
X18809677Y-10622450D01*
X18809677Y-10622450D02*
X18828725Y-10631974D01*
X18828725Y-10631974D02*
X18838248Y-10651022D01*
X18838248Y-10651022D02*
X18838248Y-10755784D01*
X18933486Y-10755784D02*
X18933486Y-10622450D01*
X18933486Y-10641498D02*
X18943010Y-10631974D01*
X18943010Y-10631974D02*
X18962058Y-10622450D01*
X18962058Y-10622450D02*
X18990629Y-10622450D01*
X18990629Y-10622450D02*
X19009677Y-10631974D01*
X19009677Y-10631974D02*
X19019201Y-10651022D01*
X19019201Y-10651022D02*
X19019201Y-10755784D01*
X19019201Y-10651022D02*
X19028725Y-10631974D01*
X19028725Y-10631974D02*
X19047772Y-10622450D01*
X19047772Y-10622450D02*
X19076344Y-10622450D01*
X19076344Y-10622450D02*
X19095391Y-10631974D01*
X19095391Y-10631974D02*
X19104915Y-10651022D01*
X19104915Y-10651022D02*
X19104915Y-10755784D01*
X19495391Y-10546260D02*
X19323963Y-10803403D01*
X19752534Y-10555784D02*
X19771582Y-10555784D01*
X19771582Y-10555784D02*
X19790629Y-10565308D01*
X19790629Y-10565308D02*
X19800153Y-10574831D01*
X19800153Y-10574831D02*
X19809677Y-10593879D01*
X19809677Y-10593879D02*
X19819201Y-10631974D01*
X19819201Y-10631974D02*
X19819201Y-10679593D01*
X19819201Y-10679593D02*
X19809677Y-10717689D01*
X19809677Y-10717689D02*
X19800153Y-10736736D01*
X19800153Y-10736736D02*
X19790629Y-10746260D01*
X19790629Y-10746260D02*
X19771582Y-10755784D01*
X19771582Y-10755784D02*
X19752534Y-10755784D01*
X19752534Y-10755784D02*
X19733487Y-10746260D01*
X19733487Y-10746260D02*
X19723963Y-10736736D01*
X19723963Y-10736736D02*
X19714439Y-10717689D01*
X19714439Y-10717689D02*
X19704915Y-10679593D01*
X19704915Y-10679593D02*
X19704915Y-10631974D01*
X19704915Y-10631974D02*
X19714439Y-10593879D01*
X19714439Y-10593879D02*
X19723963Y-10574831D01*
X19723963Y-10574831D02*
X19733487Y-10565308D01*
X19733487Y-10565308D02*
X19752534Y-10555784D01*
X19904915Y-10736736D02*
X19914439Y-10746260D01*
X19914439Y-10746260D02*
X19904915Y-10755784D01*
X19904915Y-10755784D02*
X19895391Y-10746260D01*
X19895391Y-10746260D02*
X19904915Y-10736736D01*
X19904915Y-10736736D02*
X19904915Y-10755784D01*
X20038248Y-10555784D02*
X20057296Y-10555784D01*
X20057296Y-10555784D02*
X20076344Y-10565308D01*
X20076344Y-10565308D02*
X20085868Y-10574831D01*
X20085868Y-10574831D02*
X20095391Y-10593879D01*
X20095391Y-10593879D02*
X20104915Y-10631974D01*
X20104915Y-10631974D02*
X20104915Y-10679593D01*
X20104915Y-10679593D02*
X20095391Y-10717689D01*
X20095391Y-10717689D02*
X20085868Y-10736736D01*
X20085868Y-10736736D02*
X20076344Y-10746260D01*
X20076344Y-10746260D02*
X20057296Y-10755784D01*
X20057296Y-10755784D02*
X20038248Y-10755784D01*
X20038248Y-10755784D02*
X20019201Y-10746260D01*
X20019201Y-10746260D02*
X20009677Y-10736736D01*
X20009677Y-10736736D02*
X20000153Y-10717689D01*
X20000153Y-10717689D02*
X19990629Y-10679593D01*
X19990629Y-10679593D02*
X19990629Y-10631974D01*
X19990629Y-10631974D02*
X20000153Y-10593879D01*
X20000153Y-10593879D02*
X20009677Y-10574831D01*
X20009677Y-10574831D02*
X20019201Y-10565308D01*
X20019201Y-10565308D02*
X20038248Y-10555784D01*
X20228725Y-10555784D02*
X20247772Y-10555784D01*
X20247772Y-10555784D02*
X20266820Y-10565308D01*
X20266820Y-10565308D02*
X20276344Y-10574831D01*
X20276344Y-10574831D02*
X20285868Y-10593879D01*
X20285868Y-10593879D02*
X20295391Y-10631974D01*
X20295391Y-10631974D02*
X20295391Y-10679593D01*
X20295391Y-10679593D02*
X20285868Y-10717689D01*
X20285868Y-10717689D02*
X20276344Y-10736736D01*
X20276344Y-10736736D02*
X20266820Y-10746260D01*
X20266820Y-10746260D02*
X20247772Y-10755784D01*
X20247772Y-10755784D02*
X20228725Y-10755784D01*
X20228725Y-10755784D02*
X20209677Y-10746260D01*
X20209677Y-10746260D02*
X20200153Y-10736736D01*
X20200153Y-10736736D02*
X20190629Y-10717689D01*
X20190629Y-10717689D02*
X20181106Y-10679593D01*
X20181106Y-10679593D02*
X20181106Y-10631974D01*
X20181106Y-10631974D02*
X20190629Y-10593879D01*
X20190629Y-10593879D02*
X20200153Y-10574831D01*
X20200153Y-10574831D02*
X20209677Y-10565308D01*
X20209677Y-10565308D02*
X20228725Y-10555784D01*
X20362058Y-10555784D02*
X20495391Y-10555784D01*
X20495391Y-10555784D02*
X20409677Y-10755784D01*
X20581106Y-10755784D02*
X20619201Y-10755784D01*
X20619201Y-10755784D02*
X20638249Y-10746260D01*
X20638249Y-10746260D02*
X20647772Y-10736736D01*
X20647772Y-10736736D02*
X20666820Y-10708165D01*
X20666820Y-10708165D02*
X20676344Y-10670070D01*
X20676344Y-10670070D02*
X20676344Y-10593879D01*
X20676344Y-10593879D02*
X20666820Y-10574831D01*
X20666820Y-10574831D02*
X20657296Y-10565308D01*
X20657296Y-10565308D02*
X20638249Y-10555784D01*
X20638249Y-10555784D02*
X20600153Y-10555784D01*
X20600153Y-10555784D02*
X20581106Y-10565308D01*
X20581106Y-10565308D02*
X20571582Y-10574831D01*
X20571582Y-10574831D02*
X20562058Y-10593879D01*
X20562058Y-10593879D02*
X20562058Y-10641498D01*
X20562058Y-10641498D02*
X20571582Y-10660546D01*
X20571582Y-10660546D02*
X20581106Y-10670070D01*
X20581106Y-10670070D02*
X20600153Y-10679593D01*
X20600153Y-10679593D02*
X20638249Y-10679593D01*
X20638249Y-10679593D02*
X20657296Y-10670070D01*
X20657296Y-10670070D02*
X20666820Y-10660546D01*
X20666820Y-10660546D02*
X20676344Y-10641498D01*
X20752534Y-10555784D02*
X20752534Y-10593879D01*
X20828725Y-10555784D02*
X20828725Y-10593879D01*
X21123963Y-10831974D02*
X21114439Y-10822450D01*
X21114439Y-10822450D02*
X21095391Y-10793879D01*
X21095391Y-10793879D02*
X21085868Y-10774831D01*
X21085868Y-10774831D02*
X21076344Y-10746260D01*
X21076344Y-10746260D02*
X21066820Y-10698641D01*
X21066820Y-10698641D02*
X21066820Y-10660546D01*
X21066820Y-10660546D02*
X21076344Y-10612927D01*
X21076344Y-10612927D02*
X21085868Y-10584355D01*
X21085868Y-10584355D02*
X21095391Y-10565308D01*
X21095391Y-10565308D02*
X21114439Y-10536736D01*
X21114439Y-10536736D02*
X21123963Y-10527212D01*
X21228725Y-10641498D02*
X21209677Y-10631974D01*
X21209677Y-10631974D02*
X21200153Y-10622450D01*
X21200153Y-10622450D02*
X21190630Y-10603403D01*
X21190630Y-10603403D02*
X21190630Y-10593879D01*
X21190630Y-10593879D02*
X21200153Y-10574831D01*
X21200153Y-10574831D02*
X21209677Y-10565308D01*
X21209677Y-10565308D02*
X21228725Y-10555784D01*
X21228725Y-10555784D02*
X21266820Y-10555784D01*
X21266820Y-10555784D02*
X21285868Y-10565308D01*
X21285868Y-10565308D02*
X21295391Y-10574831D01*
X21295391Y-10574831D02*
X21304915Y-10593879D01*
X21304915Y-10593879D02*
X21304915Y-10603403D01*
X21304915Y-10603403D02*
X21295391Y-10622450D01*
X21295391Y-10622450D02*
X21285868Y-10631974D01*
X21285868Y-10631974D02*
X21266820Y-10641498D01*
X21266820Y-10641498D02*
X21228725Y-10641498D01*
X21228725Y-10641498D02*
X21209677Y-10651022D01*
X21209677Y-10651022D02*
X21200153Y-10660546D01*
X21200153Y-10660546D02*
X21190630Y-10679593D01*
X21190630Y-10679593D02*
X21190630Y-10717689D01*
X21190630Y-10717689D02*
X21200153Y-10736736D01*
X21200153Y-10736736D02*
X21209677Y-10746260D01*
X21209677Y-10746260D02*
X21228725Y-10755784D01*
X21228725Y-10755784D02*
X21266820Y-10755784D01*
X21266820Y-10755784D02*
X21285868Y-10746260D01*
X21285868Y-10746260D02*
X21295391Y-10736736D01*
X21295391Y-10736736D02*
X21304915Y-10717689D01*
X21304915Y-10717689D02*
X21304915Y-10679593D01*
X21304915Y-10679593D02*
X21295391Y-10660546D01*
X21295391Y-10660546D02*
X21285868Y-10651022D01*
X21285868Y-10651022D02*
X21266820Y-10641498D01*
X21543011Y-10755784D02*
X21543011Y-10555784D01*
X21628725Y-10755784D02*
X21628725Y-10651022D01*
X21628725Y-10651022D02*
X21619201Y-10631974D01*
X21619201Y-10631974D02*
X21600153Y-10622450D01*
X21600153Y-10622450D02*
X21571582Y-10622450D01*
X21571582Y-10622450D02*
X21552534Y-10631974D01*
X21552534Y-10631974D02*
X21543011Y-10641498D01*
X21752534Y-10755784D02*
X21733487Y-10746260D01*
X21733487Y-10746260D02*
X21723963Y-10736736D01*
X21723963Y-10736736D02*
X21714439Y-10717689D01*
X21714439Y-10717689D02*
X21714439Y-10660546D01*
X21714439Y-10660546D02*
X21723963Y-10641498D01*
X21723963Y-10641498D02*
X21733487Y-10631974D01*
X21733487Y-10631974D02*
X21752534Y-10622450D01*
X21752534Y-10622450D02*
X21781106Y-10622450D01*
X21781106Y-10622450D02*
X21800153Y-10631974D01*
X21800153Y-10631974D02*
X21809677Y-10641498D01*
X21809677Y-10641498D02*
X21819201Y-10660546D01*
X21819201Y-10660546D02*
X21819201Y-10717689D01*
X21819201Y-10717689D02*
X21809677Y-10736736D01*
X21809677Y-10736736D02*
X21800153Y-10746260D01*
X21800153Y-10746260D02*
X21781106Y-10755784D01*
X21781106Y-10755784D02*
X21752534Y-10755784D01*
X21933487Y-10755784D02*
X21914439Y-10746260D01*
X21914439Y-10746260D02*
X21904915Y-10727212D01*
X21904915Y-10727212D02*
X21904915Y-10555784D01*
X22085868Y-10746260D02*
X22066820Y-10755784D01*
X22066820Y-10755784D02*
X22028725Y-10755784D01*
X22028725Y-10755784D02*
X22009677Y-10746260D01*
X22009677Y-10746260D02*
X22000153Y-10727212D01*
X22000153Y-10727212D02*
X22000153Y-10651022D01*
X22000153Y-10651022D02*
X22009677Y-10631974D01*
X22009677Y-10631974D02*
X22028725Y-10622450D01*
X22028725Y-10622450D02*
X22066820Y-10622450D01*
X22066820Y-10622450D02*
X22085868Y-10631974D01*
X22085868Y-10631974D02*
X22095392Y-10651022D01*
X22095392Y-10651022D02*
X22095392Y-10670070D01*
X22095392Y-10670070D02*
X22000153Y-10689117D01*
X22171582Y-10746260D02*
X22190630Y-10755784D01*
X22190630Y-10755784D02*
X22228725Y-10755784D01*
X22228725Y-10755784D02*
X22247773Y-10746260D01*
X22247773Y-10746260D02*
X22257296Y-10727212D01*
X22257296Y-10727212D02*
X22257296Y-10717689D01*
X22257296Y-10717689D02*
X22247773Y-10698641D01*
X22247773Y-10698641D02*
X22228725Y-10689117D01*
X22228725Y-10689117D02*
X22200153Y-10689117D01*
X22200153Y-10689117D02*
X22181106Y-10679593D01*
X22181106Y-10679593D02*
X22171582Y-10660546D01*
X22171582Y-10660546D02*
X22171582Y-10651022D01*
X22171582Y-10651022D02*
X22181106Y-10631974D01*
X22181106Y-10631974D02*
X22200153Y-10622450D01*
X22200153Y-10622450D02*
X22228725Y-10622450D01*
X22228725Y-10622450D02*
X22247773Y-10631974D01*
X22323963Y-10831974D02*
X22333487Y-10822450D01*
X22333487Y-10822450D02*
X22352534Y-10793879D01*
X22352534Y-10793879D02*
X22362058Y-10774831D01*
X22362058Y-10774831D02*
X22371582Y-10746260D01*
X22371582Y-10746260D02*
X22381106Y-10698641D01*
X22381106Y-10698641D02*
X22381106Y-10660546D01*
X22381106Y-10660546D02*
X22371582Y-10612927D01*
X22371582Y-10612927D02*
X22362058Y-10584355D01*
X22362058Y-10584355D02*
X22352534Y-10565308D01*
X22352534Y-10565308D02*
X22333487Y-10536736D01*
X22333487Y-10536736D02*
X22323963Y-10527212D01*
D12*
X17548900Y-10928300D02*
G75*
G02*
X17518900Y-10928300I-15000J0D01*
G01*
X17518900Y-10928300D02*
G75*
G02*
X17548900Y-10928300I15000J0D01*
G01*
D11*
X17847772Y-10819784D02*
X17866820Y-10819784D01*
X17866820Y-10819784D02*
X17885867Y-10829308D01*
X17885867Y-10829308D02*
X17895391Y-10838831D01*
X17895391Y-10838831D02*
X17904915Y-10857879D01*
X17904915Y-10857879D02*
X17914439Y-10895974D01*
X17914439Y-10895974D02*
X17914439Y-10943593D01*
X17914439Y-10943593D02*
X17904915Y-10981689D01*
X17904915Y-10981689D02*
X17895391Y-11000736D01*
X17895391Y-11000736D02*
X17885867Y-11010260D01*
X17885867Y-11010260D02*
X17866820Y-11019784D01*
X17866820Y-11019784D02*
X17847772Y-11019784D01*
X17847772Y-11019784D02*
X17828724Y-11010260D01*
X17828724Y-11010260D02*
X17819201Y-11000736D01*
X17819201Y-11000736D02*
X17809677Y-10981689D01*
X17809677Y-10981689D02*
X17800153Y-10943593D01*
X17800153Y-10943593D02*
X17800153Y-10895974D01*
X17800153Y-10895974D02*
X17809677Y-10857879D01*
X17809677Y-10857879D02*
X17819201Y-10838831D01*
X17819201Y-10838831D02*
X17828724Y-10829308D01*
X17828724Y-10829308D02*
X17847772Y-10819784D01*
X18000153Y-11000736D02*
X18009677Y-11010260D01*
X18009677Y-11010260D02*
X18000153Y-11019784D01*
X18000153Y-11019784D02*
X17990629Y-11010260D01*
X17990629Y-11010260D02*
X18000153Y-11000736D01*
X18000153Y-11000736D02*
X18000153Y-11019784D01*
X18076344Y-10819784D02*
X18200153Y-10819784D01*
X18200153Y-10819784D02*
X18133486Y-10895974D01*
X18133486Y-10895974D02*
X18162058Y-10895974D01*
X18162058Y-10895974D02*
X18181105Y-10905498D01*
X18181105Y-10905498D02*
X18190629Y-10915022D01*
X18190629Y-10915022D02*
X18200153Y-10934070D01*
X18200153Y-10934070D02*
X18200153Y-10981689D01*
X18200153Y-10981689D02*
X18190629Y-11000736D01*
X18190629Y-11000736D02*
X18181105Y-11010260D01*
X18181105Y-11010260D02*
X18162058Y-11019784D01*
X18162058Y-11019784D02*
X18104915Y-11019784D01*
X18104915Y-11019784D02*
X18085867Y-11010260D01*
X18085867Y-11010260D02*
X18076344Y-11000736D01*
X18323963Y-10819784D02*
X18343010Y-10819784D01*
X18343010Y-10819784D02*
X18362058Y-10829308D01*
X18362058Y-10829308D02*
X18371582Y-10838831D01*
X18371582Y-10838831D02*
X18381105Y-10857879D01*
X18381105Y-10857879D02*
X18390629Y-10895974D01*
X18390629Y-10895974D02*
X18390629Y-10943593D01*
X18390629Y-10943593D02*
X18381105Y-10981689D01*
X18381105Y-10981689D02*
X18371582Y-11000736D01*
X18371582Y-11000736D02*
X18362058Y-11010260D01*
X18362058Y-11010260D02*
X18343010Y-11019784D01*
X18343010Y-11019784D02*
X18323963Y-11019784D01*
X18323963Y-11019784D02*
X18304915Y-11010260D01*
X18304915Y-11010260D02*
X18295391Y-11000736D01*
X18295391Y-11000736D02*
X18285867Y-10981689D01*
X18285867Y-10981689D02*
X18276344Y-10943593D01*
X18276344Y-10943593D02*
X18276344Y-10895974D01*
X18276344Y-10895974D02*
X18285867Y-10857879D01*
X18285867Y-10857879D02*
X18295391Y-10838831D01*
X18295391Y-10838831D02*
X18304915Y-10829308D01*
X18304915Y-10829308D02*
X18323963Y-10819784D01*
X18514439Y-10819784D02*
X18533486Y-10819784D01*
X18533486Y-10819784D02*
X18552534Y-10829308D01*
X18552534Y-10829308D02*
X18562058Y-10838831D01*
X18562058Y-10838831D02*
X18571582Y-10857879D01*
X18571582Y-10857879D02*
X18581105Y-10895974D01*
X18581105Y-10895974D02*
X18581105Y-10943593D01*
X18581105Y-10943593D02*
X18571582Y-10981689D01*
X18571582Y-10981689D02*
X18562058Y-11000736D01*
X18562058Y-11000736D02*
X18552534Y-11010260D01*
X18552534Y-11010260D02*
X18533486Y-11019784D01*
X18533486Y-11019784D02*
X18514439Y-11019784D01*
X18514439Y-11019784D02*
X18495391Y-11010260D01*
X18495391Y-11010260D02*
X18485867Y-11000736D01*
X18485867Y-11000736D02*
X18476344Y-10981689D01*
X18476344Y-10981689D02*
X18466820Y-10943593D01*
X18466820Y-10943593D02*
X18466820Y-10895974D01*
X18466820Y-10895974D02*
X18476344Y-10857879D01*
X18476344Y-10857879D02*
X18485867Y-10838831D01*
X18485867Y-10838831D02*
X18495391Y-10829308D01*
X18495391Y-10829308D02*
X18514439Y-10819784D01*
X18666820Y-11019784D02*
X18666820Y-10886450D01*
X18666820Y-10905498D02*
X18676344Y-10895974D01*
X18676344Y-10895974D02*
X18695391Y-10886450D01*
X18695391Y-10886450D02*
X18723963Y-10886450D01*
X18723963Y-10886450D02*
X18743010Y-10895974D01*
X18743010Y-10895974D02*
X18752534Y-10915022D01*
X18752534Y-10915022D02*
X18752534Y-11019784D01*
X18752534Y-10915022D02*
X18762058Y-10895974D01*
X18762058Y-10895974D02*
X18781105Y-10886450D01*
X18781105Y-10886450D02*
X18809677Y-10886450D01*
X18809677Y-10886450D02*
X18828725Y-10895974D01*
X18828725Y-10895974D02*
X18838248Y-10915022D01*
X18838248Y-10915022D02*
X18838248Y-11019784D01*
X18933486Y-11019784D02*
X18933486Y-10886450D01*
X18933486Y-10905498D02*
X18943010Y-10895974D01*
X18943010Y-10895974D02*
X18962058Y-10886450D01*
X18962058Y-10886450D02*
X18990629Y-10886450D01*
X18990629Y-10886450D02*
X19009677Y-10895974D01*
X19009677Y-10895974D02*
X19019201Y-10915022D01*
X19019201Y-10915022D02*
X19019201Y-11019784D01*
X19019201Y-10915022D02*
X19028725Y-10895974D01*
X19028725Y-10895974D02*
X19047772Y-10886450D01*
X19047772Y-10886450D02*
X19076344Y-10886450D01*
X19076344Y-10886450D02*
X19095391Y-10895974D01*
X19095391Y-10895974D02*
X19104915Y-10915022D01*
X19104915Y-10915022D02*
X19104915Y-11019784D01*
X19495391Y-10810260D02*
X19323963Y-11067403D01*
X19752534Y-10819784D02*
X19771582Y-10819784D01*
X19771582Y-10819784D02*
X19790629Y-10829308D01*
X19790629Y-10829308D02*
X19800153Y-10838831D01*
X19800153Y-10838831D02*
X19809677Y-10857879D01*
X19809677Y-10857879D02*
X19819201Y-10895974D01*
X19819201Y-10895974D02*
X19819201Y-10943593D01*
X19819201Y-10943593D02*
X19809677Y-10981689D01*
X19809677Y-10981689D02*
X19800153Y-11000736D01*
X19800153Y-11000736D02*
X19790629Y-11010260D01*
X19790629Y-11010260D02*
X19771582Y-11019784D01*
X19771582Y-11019784D02*
X19752534Y-11019784D01*
X19752534Y-11019784D02*
X19733487Y-11010260D01*
X19733487Y-11010260D02*
X19723963Y-11000736D01*
X19723963Y-11000736D02*
X19714439Y-10981689D01*
X19714439Y-10981689D02*
X19704915Y-10943593D01*
X19704915Y-10943593D02*
X19704915Y-10895974D01*
X19704915Y-10895974D02*
X19714439Y-10857879D01*
X19714439Y-10857879D02*
X19723963Y-10838831D01*
X19723963Y-10838831D02*
X19733487Y-10829308D01*
X19733487Y-10829308D02*
X19752534Y-10819784D01*
X19904915Y-11000736D02*
X19914439Y-11010260D01*
X19914439Y-11010260D02*
X19904915Y-11019784D01*
X19904915Y-11019784D02*
X19895391Y-11010260D01*
X19895391Y-11010260D02*
X19904915Y-11000736D01*
X19904915Y-11000736D02*
X19904915Y-11019784D01*
X20038248Y-10819784D02*
X20057296Y-10819784D01*
X20057296Y-10819784D02*
X20076344Y-10829308D01*
X20076344Y-10829308D02*
X20085868Y-10838831D01*
X20085868Y-10838831D02*
X20095391Y-10857879D01*
X20095391Y-10857879D02*
X20104915Y-10895974D01*
X20104915Y-10895974D02*
X20104915Y-10943593D01*
X20104915Y-10943593D02*
X20095391Y-10981689D01*
X20095391Y-10981689D02*
X20085868Y-11000736D01*
X20085868Y-11000736D02*
X20076344Y-11010260D01*
X20076344Y-11010260D02*
X20057296Y-11019784D01*
X20057296Y-11019784D02*
X20038248Y-11019784D01*
X20038248Y-11019784D02*
X20019201Y-11010260D01*
X20019201Y-11010260D02*
X20009677Y-11000736D01*
X20009677Y-11000736D02*
X20000153Y-10981689D01*
X20000153Y-10981689D02*
X19990629Y-10943593D01*
X19990629Y-10943593D02*
X19990629Y-10895974D01*
X19990629Y-10895974D02*
X20000153Y-10857879D01*
X20000153Y-10857879D02*
X20009677Y-10838831D01*
X20009677Y-10838831D02*
X20019201Y-10829308D01*
X20019201Y-10829308D02*
X20038248Y-10819784D01*
X20295391Y-11019784D02*
X20181106Y-11019784D01*
X20238248Y-11019784D02*
X20238248Y-10819784D01*
X20238248Y-10819784D02*
X20219201Y-10848355D01*
X20219201Y-10848355D02*
X20200153Y-10867403D01*
X20200153Y-10867403D02*
X20181106Y-10876927D01*
X20485868Y-11019784D02*
X20371582Y-11019784D01*
X20428725Y-11019784D02*
X20428725Y-10819784D01*
X20428725Y-10819784D02*
X20409677Y-10848355D01*
X20409677Y-10848355D02*
X20390629Y-10867403D01*
X20390629Y-10867403D02*
X20371582Y-10876927D01*
X20600153Y-10905498D02*
X20581106Y-10895974D01*
X20581106Y-10895974D02*
X20571582Y-10886450D01*
X20571582Y-10886450D02*
X20562058Y-10867403D01*
X20562058Y-10867403D02*
X20562058Y-10857879D01*
X20562058Y-10857879D02*
X20571582Y-10838831D01*
X20571582Y-10838831D02*
X20581106Y-10829308D01*
X20581106Y-10829308D02*
X20600153Y-10819784D01*
X20600153Y-10819784D02*
X20638249Y-10819784D01*
X20638249Y-10819784D02*
X20657296Y-10829308D01*
X20657296Y-10829308D02*
X20666820Y-10838831D01*
X20666820Y-10838831D02*
X20676344Y-10857879D01*
X20676344Y-10857879D02*
X20676344Y-10867403D01*
X20676344Y-10867403D02*
X20666820Y-10886450D01*
X20666820Y-10886450D02*
X20657296Y-10895974D01*
X20657296Y-10895974D02*
X20638249Y-10905498D01*
X20638249Y-10905498D02*
X20600153Y-10905498D01*
X20600153Y-10905498D02*
X20581106Y-10915022D01*
X20581106Y-10915022D02*
X20571582Y-10924546D01*
X20571582Y-10924546D02*
X20562058Y-10943593D01*
X20562058Y-10943593D02*
X20562058Y-10981689D01*
X20562058Y-10981689D02*
X20571582Y-11000736D01*
X20571582Y-11000736D02*
X20581106Y-11010260D01*
X20581106Y-11010260D02*
X20600153Y-11019784D01*
X20600153Y-11019784D02*
X20638249Y-11019784D01*
X20638249Y-11019784D02*
X20657296Y-11010260D01*
X20657296Y-11010260D02*
X20666820Y-11000736D01*
X20666820Y-11000736D02*
X20676344Y-10981689D01*
X20676344Y-10981689D02*
X20676344Y-10943593D01*
X20676344Y-10943593D02*
X20666820Y-10924546D01*
X20666820Y-10924546D02*
X20657296Y-10915022D01*
X20657296Y-10915022D02*
X20638249Y-10905498D01*
X20752534Y-10819784D02*
X20752534Y-10857879D01*
X20828725Y-10819784D02*
X20828725Y-10857879D01*
X21123963Y-11095974D02*
X21114439Y-11086450D01*
X21114439Y-11086450D02*
X21095391Y-11057879D01*
X21095391Y-11057879D02*
X21085868Y-11038831D01*
X21085868Y-11038831D02*
X21076344Y-11010260D01*
X21076344Y-11010260D02*
X21066820Y-10962641D01*
X21066820Y-10962641D02*
X21066820Y-10924546D01*
X21066820Y-10924546D02*
X21076344Y-10876927D01*
X21076344Y-10876927D02*
X21085868Y-10848355D01*
X21085868Y-10848355D02*
X21095391Y-10829308D01*
X21095391Y-10829308D02*
X21114439Y-10800736D01*
X21114439Y-10800736D02*
X21123963Y-10791212D01*
X21304915Y-11019784D02*
X21190630Y-11019784D01*
X21247772Y-11019784D02*
X21247772Y-10819784D01*
X21247772Y-10819784D02*
X21228725Y-10848355D01*
X21228725Y-10848355D02*
X21209677Y-10867403D01*
X21209677Y-10867403D02*
X21190630Y-10876927D01*
X21495391Y-11019784D02*
X21381106Y-11019784D01*
X21438249Y-11019784D02*
X21438249Y-10819784D01*
X21438249Y-10819784D02*
X21419201Y-10848355D01*
X21419201Y-10848355D02*
X21400153Y-10867403D01*
X21400153Y-10867403D02*
X21381106Y-10876927D01*
X21666820Y-10819784D02*
X21628725Y-10819784D01*
X21628725Y-10819784D02*
X21609677Y-10829308D01*
X21609677Y-10829308D02*
X21600153Y-10838831D01*
X21600153Y-10838831D02*
X21581106Y-10867403D01*
X21581106Y-10867403D02*
X21571582Y-10905498D01*
X21571582Y-10905498D02*
X21571582Y-10981689D01*
X21571582Y-10981689D02*
X21581106Y-11000736D01*
X21581106Y-11000736D02*
X21590630Y-11010260D01*
X21590630Y-11010260D02*
X21609677Y-11019784D01*
X21609677Y-11019784D02*
X21647772Y-11019784D01*
X21647772Y-11019784D02*
X21666820Y-11010260D01*
X21666820Y-11010260D02*
X21676344Y-11000736D01*
X21676344Y-11000736D02*
X21685868Y-10981689D01*
X21685868Y-10981689D02*
X21685868Y-10934070D01*
X21685868Y-10934070D02*
X21676344Y-10915022D01*
X21676344Y-10915022D02*
X21666820Y-10905498D01*
X21666820Y-10905498D02*
X21647772Y-10895974D01*
X21647772Y-10895974D02*
X21609677Y-10895974D01*
X21609677Y-10895974D02*
X21590630Y-10905498D01*
X21590630Y-10905498D02*
X21581106Y-10915022D01*
X21581106Y-10915022D02*
X21571582Y-10934070D01*
X21923963Y-11019784D02*
X21923963Y-10819784D01*
X22009677Y-11019784D02*
X22009677Y-10915022D01*
X22009677Y-10915022D02*
X22000153Y-10895974D01*
X22000153Y-10895974D02*
X21981106Y-10886450D01*
X21981106Y-10886450D02*
X21952534Y-10886450D01*
X21952534Y-10886450D02*
X21933487Y-10895974D01*
X21933487Y-10895974D02*
X21923963Y-10905498D01*
X22133487Y-11019784D02*
X22114439Y-11010260D01*
X22114439Y-11010260D02*
X22104915Y-11000736D01*
X22104915Y-11000736D02*
X22095392Y-10981689D01*
X22095392Y-10981689D02*
X22095392Y-10924546D01*
X22095392Y-10924546D02*
X22104915Y-10905498D01*
X22104915Y-10905498D02*
X22114439Y-10895974D01*
X22114439Y-10895974D02*
X22133487Y-10886450D01*
X22133487Y-10886450D02*
X22162058Y-10886450D01*
X22162058Y-10886450D02*
X22181106Y-10895974D01*
X22181106Y-10895974D02*
X22190630Y-10905498D01*
X22190630Y-10905498D02*
X22200153Y-10924546D01*
X22200153Y-10924546D02*
X22200153Y-10981689D01*
X22200153Y-10981689D02*
X22190630Y-11000736D01*
X22190630Y-11000736D02*
X22181106Y-11010260D01*
X22181106Y-11010260D02*
X22162058Y-11019784D01*
X22162058Y-11019784D02*
X22133487Y-11019784D01*
X22314439Y-11019784D02*
X22295392Y-11010260D01*
X22295392Y-11010260D02*
X22285868Y-10991212D01*
X22285868Y-10991212D02*
X22285868Y-10819784D01*
X22466820Y-11010260D02*
X22447772Y-11019784D01*
X22447772Y-11019784D02*
X22409677Y-11019784D01*
X22409677Y-11019784D02*
X22390630Y-11010260D01*
X22390630Y-11010260D02*
X22381106Y-10991212D01*
X22381106Y-10991212D02*
X22381106Y-10915022D01*
X22381106Y-10915022D02*
X22390630Y-10895974D01*
X22390630Y-10895974D02*
X22409677Y-10886450D01*
X22409677Y-10886450D02*
X22447772Y-10886450D01*
X22447772Y-10886450D02*
X22466820Y-10895974D01*
X22466820Y-10895974D02*
X22476344Y-10915022D01*
X22476344Y-10915022D02*
X22476344Y-10934070D01*
X22476344Y-10934070D02*
X22381106Y-10953117D01*
X22552534Y-11010260D02*
X22571582Y-11019784D01*
X22571582Y-11019784D02*
X22609677Y-11019784D01*
X22609677Y-11019784D02*
X22628725Y-11010260D01*
X22628725Y-11010260D02*
X22638249Y-10991212D01*
X22638249Y-10991212D02*
X22638249Y-10981689D01*
X22638249Y-10981689D02*
X22628725Y-10962641D01*
X22628725Y-10962641D02*
X22609677Y-10953117D01*
X22609677Y-10953117D02*
X22581106Y-10953117D01*
X22581106Y-10953117D02*
X22562058Y-10943593D01*
X22562058Y-10943593D02*
X22552534Y-10924546D01*
X22552534Y-10924546D02*
X22552534Y-10915022D01*
X22552534Y-10915022D02*
X22562058Y-10895974D01*
X22562058Y-10895974D02*
X22581106Y-10886450D01*
X22581106Y-10886450D02*
X22609677Y-10886450D01*
X22609677Y-10886450D02*
X22628725Y-10895974D01*
X22704915Y-11095974D02*
X22714439Y-11086450D01*
X22714439Y-11086450D02*
X22733487Y-11057879D01*
X22733487Y-11057879D02*
X22743011Y-11038831D01*
X22743011Y-11038831D02*
X22752534Y-11010260D01*
X22752534Y-11010260D02*
X22762058Y-10962641D01*
X22762058Y-10962641D02*
X22762058Y-10924546D01*
X22762058Y-10924546D02*
X22752534Y-10876927D01*
X22752534Y-10876927D02*
X22743011Y-10848355D01*
X22743011Y-10848355D02*
X22733487Y-10829308D01*
X22733487Y-10829308D02*
X22714439Y-10800736D01*
X22714439Y-10800736D02*
X22704915Y-10791212D01*
D12*
X17532400Y-11175800D02*
X17532400Y-11208800D01*
X17515900Y-11192300D02*
X17548900Y-11192300D01*
D11*
X17847772Y-11083784D02*
X17866820Y-11083784D01*
X17866820Y-11083784D02*
X17885867Y-11093308D01*
X17885867Y-11093308D02*
X17895391Y-11102831D01*
X17895391Y-11102831D02*
X17904915Y-11121879D01*
X17904915Y-11121879D02*
X17914439Y-11159974D01*
X17914439Y-11159974D02*
X17914439Y-11207593D01*
X17914439Y-11207593D02*
X17904915Y-11245688D01*
X17904915Y-11245688D02*
X17895391Y-11264736D01*
X17895391Y-11264736D02*
X17885867Y-11274260D01*
X17885867Y-11274260D02*
X17866820Y-11283784D01*
X17866820Y-11283784D02*
X17847772Y-11283784D01*
X17847772Y-11283784D02*
X17828724Y-11274260D01*
X17828724Y-11274260D02*
X17819201Y-11264736D01*
X17819201Y-11264736D02*
X17809677Y-11245688D01*
X17809677Y-11245688D02*
X17800153Y-11207593D01*
X17800153Y-11207593D02*
X17800153Y-11159974D01*
X17800153Y-11159974D02*
X17809677Y-11121879D01*
X17809677Y-11121879D02*
X17819201Y-11102831D01*
X17819201Y-11102831D02*
X17828724Y-11093308D01*
X17828724Y-11093308D02*
X17847772Y-11083784D01*
X18000153Y-11264736D02*
X18009677Y-11274260D01*
X18009677Y-11274260D02*
X18000153Y-11283784D01*
X18000153Y-11283784D02*
X17990629Y-11274260D01*
X17990629Y-11274260D02*
X18000153Y-11264736D01*
X18000153Y-11264736D02*
X18000153Y-11283784D01*
X18076344Y-11083784D02*
X18200153Y-11083784D01*
X18200153Y-11083784D02*
X18133486Y-11159974D01*
X18133486Y-11159974D02*
X18162058Y-11159974D01*
X18162058Y-11159974D02*
X18181105Y-11169498D01*
X18181105Y-11169498D02*
X18190629Y-11179022D01*
X18190629Y-11179022D02*
X18200153Y-11198069D01*
X18200153Y-11198069D02*
X18200153Y-11245688D01*
X18200153Y-11245688D02*
X18190629Y-11264736D01*
X18190629Y-11264736D02*
X18181105Y-11274260D01*
X18181105Y-11274260D02*
X18162058Y-11283784D01*
X18162058Y-11283784D02*
X18104915Y-11283784D01*
X18104915Y-11283784D02*
X18085867Y-11274260D01*
X18085867Y-11274260D02*
X18076344Y-11264736D01*
X18266820Y-11083784D02*
X18390629Y-11083784D01*
X18390629Y-11083784D02*
X18323963Y-11159974D01*
X18323963Y-11159974D02*
X18352534Y-11159974D01*
X18352534Y-11159974D02*
X18371582Y-11169498D01*
X18371582Y-11169498D02*
X18381105Y-11179022D01*
X18381105Y-11179022D02*
X18390629Y-11198069D01*
X18390629Y-11198069D02*
X18390629Y-11245688D01*
X18390629Y-11245688D02*
X18381105Y-11264736D01*
X18381105Y-11264736D02*
X18371582Y-11274260D01*
X18371582Y-11274260D02*
X18352534Y-11283784D01*
X18352534Y-11283784D02*
X18295391Y-11283784D01*
X18295391Y-11283784D02*
X18276344Y-11274260D01*
X18276344Y-11274260D02*
X18266820Y-11264736D01*
X18514439Y-11083784D02*
X18533486Y-11083784D01*
X18533486Y-11083784D02*
X18552534Y-11093308D01*
X18552534Y-11093308D02*
X18562058Y-11102831D01*
X18562058Y-11102831D02*
X18571582Y-11121879D01*
X18571582Y-11121879D02*
X18581105Y-11159974D01*
X18581105Y-11159974D02*
X18581105Y-11207593D01*
X18581105Y-11207593D02*
X18571582Y-11245688D01*
X18571582Y-11245688D02*
X18562058Y-11264736D01*
X18562058Y-11264736D02*
X18552534Y-11274260D01*
X18552534Y-11274260D02*
X18533486Y-11283784D01*
X18533486Y-11283784D02*
X18514439Y-11283784D01*
X18514439Y-11283784D02*
X18495391Y-11274260D01*
X18495391Y-11274260D02*
X18485867Y-11264736D01*
X18485867Y-11264736D02*
X18476344Y-11245688D01*
X18476344Y-11245688D02*
X18466820Y-11207593D01*
X18466820Y-11207593D02*
X18466820Y-11159974D01*
X18466820Y-11159974D02*
X18476344Y-11121879D01*
X18476344Y-11121879D02*
X18485867Y-11102831D01*
X18485867Y-11102831D02*
X18495391Y-11093308D01*
X18495391Y-11093308D02*
X18514439Y-11083784D01*
X18666820Y-11283784D02*
X18666820Y-11150450D01*
X18666820Y-11169498D02*
X18676344Y-11159974D01*
X18676344Y-11159974D02*
X18695391Y-11150450D01*
X18695391Y-11150450D02*
X18723963Y-11150450D01*
X18723963Y-11150450D02*
X18743010Y-11159974D01*
X18743010Y-11159974D02*
X18752534Y-11179022D01*
X18752534Y-11179022D02*
X18752534Y-11283784D01*
X18752534Y-11179022D02*
X18762058Y-11159974D01*
X18762058Y-11159974D02*
X18781105Y-11150450D01*
X18781105Y-11150450D02*
X18809677Y-11150450D01*
X18809677Y-11150450D02*
X18828725Y-11159974D01*
X18828725Y-11159974D02*
X18838248Y-11179022D01*
X18838248Y-11179022D02*
X18838248Y-11283784D01*
X18933486Y-11283784D02*
X18933486Y-11150450D01*
X18933486Y-11169498D02*
X18943010Y-11159974D01*
X18943010Y-11159974D02*
X18962058Y-11150450D01*
X18962058Y-11150450D02*
X18990629Y-11150450D01*
X18990629Y-11150450D02*
X19009677Y-11159974D01*
X19009677Y-11159974D02*
X19019201Y-11179022D01*
X19019201Y-11179022D02*
X19019201Y-11283784D01*
X19019201Y-11179022D02*
X19028725Y-11159974D01*
X19028725Y-11159974D02*
X19047772Y-11150450D01*
X19047772Y-11150450D02*
X19076344Y-11150450D01*
X19076344Y-11150450D02*
X19095391Y-11159974D01*
X19095391Y-11159974D02*
X19104915Y-11179022D01*
X19104915Y-11179022D02*
X19104915Y-11283784D01*
X19495391Y-11074260D02*
X19323963Y-11331403D01*
X19752534Y-11083784D02*
X19771582Y-11083784D01*
X19771582Y-11083784D02*
X19790629Y-11093308D01*
X19790629Y-11093308D02*
X19800153Y-11102831D01*
X19800153Y-11102831D02*
X19809677Y-11121879D01*
X19809677Y-11121879D02*
X19819201Y-11159974D01*
X19819201Y-11159974D02*
X19819201Y-11207593D01*
X19819201Y-11207593D02*
X19809677Y-11245688D01*
X19809677Y-11245688D02*
X19800153Y-11264736D01*
X19800153Y-11264736D02*
X19790629Y-11274260D01*
X19790629Y-11274260D02*
X19771582Y-11283784D01*
X19771582Y-11283784D02*
X19752534Y-11283784D01*
X19752534Y-11283784D02*
X19733487Y-11274260D01*
X19733487Y-11274260D02*
X19723963Y-11264736D01*
X19723963Y-11264736D02*
X19714439Y-11245688D01*
X19714439Y-11245688D02*
X19704915Y-11207593D01*
X19704915Y-11207593D02*
X19704915Y-11159974D01*
X19704915Y-11159974D02*
X19714439Y-11121879D01*
X19714439Y-11121879D02*
X19723963Y-11102831D01*
X19723963Y-11102831D02*
X19733487Y-11093308D01*
X19733487Y-11093308D02*
X19752534Y-11083784D01*
X19904915Y-11264736D02*
X19914439Y-11274260D01*
X19914439Y-11274260D02*
X19904915Y-11283784D01*
X19904915Y-11283784D02*
X19895391Y-11274260D01*
X19895391Y-11274260D02*
X19904915Y-11264736D01*
X19904915Y-11264736D02*
X19904915Y-11283784D01*
X20038248Y-11083784D02*
X20057296Y-11083784D01*
X20057296Y-11083784D02*
X20076344Y-11093308D01*
X20076344Y-11093308D02*
X20085868Y-11102831D01*
X20085868Y-11102831D02*
X20095391Y-11121879D01*
X20095391Y-11121879D02*
X20104915Y-11159974D01*
X20104915Y-11159974D02*
X20104915Y-11207593D01*
X20104915Y-11207593D02*
X20095391Y-11245688D01*
X20095391Y-11245688D02*
X20085868Y-11264736D01*
X20085868Y-11264736D02*
X20076344Y-11274260D01*
X20076344Y-11274260D02*
X20057296Y-11283784D01*
X20057296Y-11283784D02*
X20038248Y-11283784D01*
X20038248Y-11283784D02*
X20019201Y-11274260D01*
X20019201Y-11274260D02*
X20009677Y-11264736D01*
X20009677Y-11264736D02*
X20000153Y-11245688D01*
X20000153Y-11245688D02*
X19990629Y-11207593D01*
X19990629Y-11207593D02*
X19990629Y-11159974D01*
X19990629Y-11159974D02*
X20000153Y-11121879D01*
X20000153Y-11121879D02*
X20009677Y-11102831D01*
X20009677Y-11102831D02*
X20019201Y-11093308D01*
X20019201Y-11093308D02*
X20038248Y-11083784D01*
X20295391Y-11283784D02*
X20181106Y-11283784D01*
X20238248Y-11283784D02*
X20238248Y-11083784D01*
X20238248Y-11083784D02*
X20219201Y-11112355D01*
X20219201Y-11112355D02*
X20200153Y-11131403D01*
X20200153Y-11131403D02*
X20181106Y-11140927D01*
X20362058Y-11083784D02*
X20485868Y-11083784D01*
X20485868Y-11083784D02*
X20419201Y-11159974D01*
X20419201Y-11159974D02*
X20447772Y-11159974D01*
X20447772Y-11159974D02*
X20466820Y-11169498D01*
X20466820Y-11169498D02*
X20476344Y-11179022D01*
X20476344Y-11179022D02*
X20485868Y-11198069D01*
X20485868Y-11198069D02*
X20485868Y-11245688D01*
X20485868Y-11245688D02*
X20476344Y-11264736D01*
X20476344Y-11264736D02*
X20466820Y-11274260D01*
X20466820Y-11274260D02*
X20447772Y-11283784D01*
X20447772Y-11283784D02*
X20390629Y-11283784D01*
X20390629Y-11283784D02*
X20371582Y-11274260D01*
X20371582Y-11274260D02*
X20362058Y-11264736D01*
X20609677Y-11083784D02*
X20628725Y-11083784D01*
X20628725Y-11083784D02*
X20647772Y-11093308D01*
X20647772Y-11093308D02*
X20657296Y-11102831D01*
X20657296Y-11102831D02*
X20666820Y-11121879D01*
X20666820Y-11121879D02*
X20676344Y-11159974D01*
X20676344Y-11159974D02*
X20676344Y-11207593D01*
X20676344Y-11207593D02*
X20666820Y-11245688D01*
X20666820Y-11245688D02*
X20657296Y-11264736D01*
X20657296Y-11264736D02*
X20647772Y-11274260D01*
X20647772Y-11274260D02*
X20628725Y-11283784D01*
X20628725Y-11283784D02*
X20609677Y-11283784D01*
X20609677Y-11283784D02*
X20590629Y-11274260D01*
X20590629Y-11274260D02*
X20581106Y-11264736D01*
X20581106Y-11264736D02*
X20571582Y-11245688D01*
X20571582Y-11245688D02*
X20562058Y-11207593D01*
X20562058Y-11207593D02*
X20562058Y-11159974D01*
X20562058Y-11159974D02*
X20571582Y-11121879D01*
X20571582Y-11121879D02*
X20581106Y-11102831D01*
X20581106Y-11102831D02*
X20590629Y-11093308D01*
X20590629Y-11093308D02*
X20609677Y-11083784D01*
X20752534Y-11083784D02*
X20752534Y-11121879D01*
X20828725Y-11083784D02*
X20828725Y-11121879D01*
X21123963Y-11359974D02*
X21114439Y-11350450D01*
X21114439Y-11350450D02*
X21095391Y-11321879D01*
X21095391Y-11321879D02*
X21085868Y-11302831D01*
X21085868Y-11302831D02*
X21076344Y-11274260D01*
X21076344Y-11274260D02*
X21066820Y-11226641D01*
X21066820Y-11226641D02*
X21066820Y-11188546D01*
X21066820Y-11188546D02*
X21076344Y-11140927D01*
X21076344Y-11140927D02*
X21085868Y-11112355D01*
X21085868Y-11112355D02*
X21095391Y-11093308D01*
X21095391Y-11093308D02*
X21114439Y-11064736D01*
X21114439Y-11064736D02*
X21123963Y-11055212D01*
X21304915Y-11283784D02*
X21190630Y-11283784D01*
X21247772Y-11283784D02*
X21247772Y-11083784D01*
X21247772Y-11083784D02*
X21228725Y-11112355D01*
X21228725Y-11112355D02*
X21209677Y-11131403D01*
X21209677Y-11131403D02*
X21190630Y-11140927D01*
X21381106Y-11102831D02*
X21390630Y-11093308D01*
X21390630Y-11093308D02*
X21409677Y-11083784D01*
X21409677Y-11083784D02*
X21457296Y-11083784D01*
X21457296Y-11083784D02*
X21476344Y-11093308D01*
X21476344Y-11093308D02*
X21485868Y-11102831D01*
X21485868Y-11102831D02*
X21495391Y-11121879D01*
X21495391Y-11121879D02*
X21495391Y-11140927D01*
X21495391Y-11140927D02*
X21485868Y-11169498D01*
X21485868Y-11169498D02*
X21371582Y-11283784D01*
X21371582Y-11283784D02*
X21495391Y-11283784D01*
X21733487Y-11283784D02*
X21733487Y-11083784D01*
X21819201Y-11283784D02*
X21819201Y-11179022D01*
X21819201Y-11179022D02*
X21809677Y-11159974D01*
X21809677Y-11159974D02*
X21790630Y-11150450D01*
X21790630Y-11150450D02*
X21762058Y-11150450D01*
X21762058Y-11150450D02*
X21743011Y-11159974D01*
X21743011Y-11159974D02*
X21733487Y-11169498D01*
X21943011Y-11283784D02*
X21923963Y-11274260D01*
X21923963Y-11274260D02*
X21914439Y-11264736D01*
X21914439Y-11264736D02*
X21904915Y-11245688D01*
X21904915Y-11245688D02*
X21904915Y-11188546D01*
X21904915Y-11188546D02*
X21914439Y-11169498D01*
X21914439Y-11169498D02*
X21923963Y-11159974D01*
X21923963Y-11159974D02*
X21943011Y-11150450D01*
X21943011Y-11150450D02*
X21971582Y-11150450D01*
X21971582Y-11150450D02*
X21990630Y-11159974D01*
X21990630Y-11159974D02*
X22000153Y-11169498D01*
X22000153Y-11169498D02*
X22009677Y-11188546D01*
X22009677Y-11188546D02*
X22009677Y-11245688D01*
X22009677Y-11245688D02*
X22000153Y-11264736D01*
X22000153Y-11264736D02*
X21990630Y-11274260D01*
X21990630Y-11274260D02*
X21971582Y-11283784D01*
X21971582Y-11283784D02*
X21943011Y-11283784D01*
X22123963Y-11283784D02*
X22104915Y-11274260D01*
X22104915Y-11274260D02*
X22095392Y-11255212D01*
X22095392Y-11255212D02*
X22095392Y-11083784D01*
X22276344Y-11274260D02*
X22257296Y-11283784D01*
X22257296Y-11283784D02*
X22219201Y-11283784D01*
X22219201Y-11283784D02*
X22200153Y-11274260D01*
X22200153Y-11274260D02*
X22190630Y-11255212D01*
X22190630Y-11255212D02*
X22190630Y-11179022D01*
X22190630Y-11179022D02*
X22200153Y-11159974D01*
X22200153Y-11159974D02*
X22219201Y-11150450D01*
X22219201Y-11150450D02*
X22257296Y-11150450D01*
X22257296Y-11150450D02*
X22276344Y-11159974D01*
X22276344Y-11159974D02*
X22285868Y-11179022D01*
X22285868Y-11179022D02*
X22285868Y-11198069D01*
X22285868Y-11198069D02*
X22190630Y-11217117D01*
X22362058Y-11274260D02*
X22381106Y-11283784D01*
X22381106Y-11283784D02*
X22419201Y-11283784D01*
X22419201Y-11283784D02*
X22438249Y-11274260D01*
X22438249Y-11274260D02*
X22447772Y-11255212D01*
X22447772Y-11255212D02*
X22447772Y-11245688D01*
X22447772Y-11245688D02*
X22438249Y-11226641D01*
X22438249Y-11226641D02*
X22419201Y-11217117D01*
X22419201Y-11217117D02*
X22390630Y-11217117D01*
X22390630Y-11217117D02*
X22371582Y-11207593D01*
X22371582Y-11207593D02*
X22362058Y-11188546D01*
X22362058Y-11188546D02*
X22362058Y-11179022D01*
X22362058Y-11179022D02*
X22371582Y-11159974D01*
X22371582Y-11159974D02*
X22390630Y-11150450D01*
X22390630Y-11150450D02*
X22419201Y-11150450D01*
X22419201Y-11150450D02*
X22438249Y-11159974D01*
X22514439Y-11359974D02*
X22523963Y-11350450D01*
X22523963Y-11350450D02*
X22543011Y-11321879D01*
X22543011Y-11321879D02*
X22552534Y-11302831D01*
X22552534Y-11302831D02*
X22562058Y-11274260D01*
X22562058Y-11274260D02*
X22571582Y-11226641D01*
X22571582Y-11226641D02*
X22571582Y-11188546D01*
X22571582Y-11188546D02*
X22562058Y-11140927D01*
X22562058Y-11140927D02*
X22552534Y-11112355D01*
X22552534Y-11112355D02*
X22543011Y-11093308D01*
X22543011Y-11093308D02*
X22523963Y-11064736D01*
X22523963Y-11064736D02*
X22514439Y-11055212D01*
D12*
X17534256Y-11491656D02*
X17534256Y-11420944D01*
X17463544Y-11420944D01*
X17463544Y-11491656D01*
X17534256Y-11491656D01*
D11*
X17914439Y-11547784D02*
X17800153Y-11547784D01*
X17857296Y-11547784D02*
X17857296Y-11347784D01*
X17857296Y-11347784D02*
X17838248Y-11376355D01*
X17838248Y-11376355D02*
X17819201Y-11395403D01*
X17819201Y-11395403D02*
X17800153Y-11404927D01*
X18000153Y-11528736D02*
X18009677Y-11538260D01*
X18009677Y-11538260D02*
X18000153Y-11547784D01*
X18000153Y-11547784D02*
X17990629Y-11538260D01*
X17990629Y-11538260D02*
X18000153Y-11528736D01*
X18000153Y-11528736D02*
X18000153Y-11547784D01*
X18133486Y-11347784D02*
X18152534Y-11347784D01*
X18152534Y-11347784D02*
X18171582Y-11357308D01*
X18171582Y-11357308D02*
X18181105Y-11366831D01*
X18181105Y-11366831D02*
X18190629Y-11385879D01*
X18190629Y-11385879D02*
X18200153Y-11423974D01*
X18200153Y-11423974D02*
X18200153Y-11471593D01*
X18200153Y-11471593D02*
X18190629Y-11509688D01*
X18190629Y-11509688D02*
X18181105Y-11528736D01*
X18181105Y-11528736D02*
X18171582Y-11538260D01*
X18171582Y-11538260D02*
X18152534Y-11547784D01*
X18152534Y-11547784D02*
X18133486Y-11547784D01*
X18133486Y-11547784D02*
X18114439Y-11538260D01*
X18114439Y-11538260D02*
X18104915Y-11528736D01*
X18104915Y-11528736D02*
X18095391Y-11509688D01*
X18095391Y-11509688D02*
X18085867Y-11471593D01*
X18085867Y-11471593D02*
X18085867Y-11423974D01*
X18085867Y-11423974D02*
X18095391Y-11385879D01*
X18095391Y-11385879D02*
X18104915Y-11366831D01*
X18104915Y-11366831D02*
X18114439Y-11357308D01*
X18114439Y-11357308D02*
X18133486Y-11347784D01*
X18323963Y-11347784D02*
X18343010Y-11347784D01*
X18343010Y-11347784D02*
X18362058Y-11357308D01*
X18362058Y-11357308D02*
X18371582Y-11366831D01*
X18371582Y-11366831D02*
X18381105Y-11385879D01*
X18381105Y-11385879D02*
X18390629Y-11423974D01*
X18390629Y-11423974D02*
X18390629Y-11471593D01*
X18390629Y-11471593D02*
X18381105Y-11509688D01*
X18381105Y-11509688D02*
X18371582Y-11528736D01*
X18371582Y-11528736D02*
X18362058Y-11538260D01*
X18362058Y-11538260D02*
X18343010Y-11547784D01*
X18343010Y-11547784D02*
X18323963Y-11547784D01*
X18323963Y-11547784D02*
X18304915Y-11538260D01*
X18304915Y-11538260D02*
X18295391Y-11528736D01*
X18295391Y-11528736D02*
X18285867Y-11509688D01*
X18285867Y-11509688D02*
X18276344Y-11471593D01*
X18276344Y-11471593D02*
X18276344Y-11423974D01*
X18276344Y-11423974D02*
X18285867Y-11385879D01*
X18285867Y-11385879D02*
X18295391Y-11366831D01*
X18295391Y-11366831D02*
X18304915Y-11357308D01*
X18304915Y-11357308D02*
X18323963Y-11347784D01*
X18514439Y-11347784D02*
X18533486Y-11347784D01*
X18533486Y-11347784D02*
X18552534Y-11357308D01*
X18552534Y-11357308D02*
X18562058Y-11366831D01*
X18562058Y-11366831D02*
X18571582Y-11385879D01*
X18571582Y-11385879D02*
X18581105Y-11423974D01*
X18581105Y-11423974D02*
X18581105Y-11471593D01*
X18581105Y-11471593D02*
X18571582Y-11509688D01*
X18571582Y-11509688D02*
X18562058Y-11528736D01*
X18562058Y-11528736D02*
X18552534Y-11538260D01*
X18552534Y-11538260D02*
X18533486Y-11547784D01*
X18533486Y-11547784D02*
X18514439Y-11547784D01*
X18514439Y-11547784D02*
X18495391Y-11538260D01*
X18495391Y-11538260D02*
X18485867Y-11528736D01*
X18485867Y-11528736D02*
X18476344Y-11509688D01*
X18476344Y-11509688D02*
X18466820Y-11471593D01*
X18466820Y-11471593D02*
X18466820Y-11423974D01*
X18466820Y-11423974D02*
X18476344Y-11385879D01*
X18476344Y-11385879D02*
X18485867Y-11366831D01*
X18485867Y-11366831D02*
X18495391Y-11357308D01*
X18495391Y-11357308D02*
X18514439Y-11347784D01*
X18666820Y-11547784D02*
X18666820Y-11414450D01*
X18666820Y-11433498D02*
X18676344Y-11423974D01*
X18676344Y-11423974D02*
X18695391Y-11414450D01*
X18695391Y-11414450D02*
X18723963Y-11414450D01*
X18723963Y-11414450D02*
X18743010Y-11423974D01*
X18743010Y-11423974D02*
X18752534Y-11443022D01*
X18752534Y-11443022D02*
X18752534Y-11547784D01*
X18752534Y-11443022D02*
X18762058Y-11423974D01*
X18762058Y-11423974D02*
X18781105Y-11414450D01*
X18781105Y-11414450D02*
X18809677Y-11414450D01*
X18809677Y-11414450D02*
X18828725Y-11423974D01*
X18828725Y-11423974D02*
X18838248Y-11443022D01*
X18838248Y-11443022D02*
X18838248Y-11547784D01*
X18933486Y-11547784D02*
X18933486Y-11414450D01*
X18933486Y-11433498D02*
X18943010Y-11423974D01*
X18943010Y-11423974D02*
X18962058Y-11414450D01*
X18962058Y-11414450D02*
X18990629Y-11414450D01*
X18990629Y-11414450D02*
X19009677Y-11423974D01*
X19009677Y-11423974D02*
X19019201Y-11443022D01*
X19019201Y-11443022D02*
X19019201Y-11547784D01*
X19019201Y-11443022D02*
X19028725Y-11423974D01*
X19028725Y-11423974D02*
X19047772Y-11414450D01*
X19047772Y-11414450D02*
X19076344Y-11414450D01*
X19076344Y-11414450D02*
X19095391Y-11423974D01*
X19095391Y-11423974D02*
X19104915Y-11443022D01*
X19104915Y-11443022D02*
X19104915Y-11547784D01*
X19495391Y-11338260D02*
X19323963Y-11595403D01*
X19752534Y-11347784D02*
X19771582Y-11347784D01*
X19771582Y-11347784D02*
X19790629Y-11357308D01*
X19790629Y-11357308D02*
X19800153Y-11366831D01*
X19800153Y-11366831D02*
X19809677Y-11385879D01*
X19809677Y-11385879D02*
X19819201Y-11423974D01*
X19819201Y-11423974D02*
X19819201Y-11471593D01*
X19819201Y-11471593D02*
X19809677Y-11509688D01*
X19809677Y-11509688D02*
X19800153Y-11528736D01*
X19800153Y-11528736D02*
X19790629Y-11538260D01*
X19790629Y-11538260D02*
X19771582Y-11547784D01*
X19771582Y-11547784D02*
X19752534Y-11547784D01*
X19752534Y-11547784D02*
X19733487Y-11538260D01*
X19733487Y-11538260D02*
X19723963Y-11528736D01*
X19723963Y-11528736D02*
X19714439Y-11509688D01*
X19714439Y-11509688D02*
X19704915Y-11471593D01*
X19704915Y-11471593D02*
X19704915Y-11423974D01*
X19704915Y-11423974D02*
X19714439Y-11385879D01*
X19714439Y-11385879D02*
X19723963Y-11366831D01*
X19723963Y-11366831D02*
X19733487Y-11357308D01*
X19733487Y-11357308D02*
X19752534Y-11347784D01*
X19904915Y-11528736D02*
X19914439Y-11538260D01*
X19914439Y-11538260D02*
X19904915Y-11547784D01*
X19904915Y-11547784D02*
X19895391Y-11538260D01*
X19895391Y-11538260D02*
X19904915Y-11528736D01*
X19904915Y-11528736D02*
X19904915Y-11547784D01*
X20038248Y-11347784D02*
X20057296Y-11347784D01*
X20057296Y-11347784D02*
X20076344Y-11357308D01*
X20076344Y-11357308D02*
X20085868Y-11366831D01*
X20085868Y-11366831D02*
X20095391Y-11385879D01*
X20095391Y-11385879D02*
X20104915Y-11423974D01*
X20104915Y-11423974D02*
X20104915Y-11471593D01*
X20104915Y-11471593D02*
X20095391Y-11509688D01*
X20095391Y-11509688D02*
X20085868Y-11528736D01*
X20085868Y-11528736D02*
X20076344Y-11538260D01*
X20076344Y-11538260D02*
X20057296Y-11547784D01*
X20057296Y-11547784D02*
X20038248Y-11547784D01*
X20038248Y-11547784D02*
X20019201Y-11538260D01*
X20019201Y-11538260D02*
X20009677Y-11528736D01*
X20009677Y-11528736D02*
X20000153Y-11509688D01*
X20000153Y-11509688D02*
X19990629Y-11471593D01*
X19990629Y-11471593D02*
X19990629Y-11423974D01*
X19990629Y-11423974D02*
X20000153Y-11385879D01*
X20000153Y-11385879D02*
X20009677Y-11366831D01*
X20009677Y-11366831D02*
X20019201Y-11357308D01*
X20019201Y-11357308D02*
X20038248Y-11347784D01*
X20171582Y-11347784D02*
X20295391Y-11347784D01*
X20295391Y-11347784D02*
X20228725Y-11423974D01*
X20228725Y-11423974D02*
X20257296Y-11423974D01*
X20257296Y-11423974D02*
X20276344Y-11433498D01*
X20276344Y-11433498D02*
X20285868Y-11443022D01*
X20285868Y-11443022D02*
X20295391Y-11462069D01*
X20295391Y-11462069D02*
X20295391Y-11509688D01*
X20295391Y-11509688D02*
X20285868Y-11528736D01*
X20285868Y-11528736D02*
X20276344Y-11538260D01*
X20276344Y-11538260D02*
X20257296Y-11547784D01*
X20257296Y-11547784D02*
X20200153Y-11547784D01*
X20200153Y-11547784D02*
X20181106Y-11538260D01*
X20181106Y-11538260D02*
X20171582Y-11528736D01*
X20390629Y-11547784D02*
X20428725Y-11547784D01*
X20428725Y-11547784D02*
X20447772Y-11538260D01*
X20447772Y-11538260D02*
X20457296Y-11528736D01*
X20457296Y-11528736D02*
X20476344Y-11500165D01*
X20476344Y-11500165D02*
X20485868Y-11462069D01*
X20485868Y-11462069D02*
X20485868Y-11385879D01*
X20485868Y-11385879D02*
X20476344Y-11366831D01*
X20476344Y-11366831D02*
X20466820Y-11357308D01*
X20466820Y-11357308D02*
X20447772Y-11347784D01*
X20447772Y-11347784D02*
X20409677Y-11347784D01*
X20409677Y-11347784D02*
X20390629Y-11357308D01*
X20390629Y-11357308D02*
X20381106Y-11366831D01*
X20381106Y-11366831D02*
X20371582Y-11385879D01*
X20371582Y-11385879D02*
X20371582Y-11433498D01*
X20371582Y-11433498D02*
X20381106Y-11452546D01*
X20381106Y-11452546D02*
X20390629Y-11462069D01*
X20390629Y-11462069D02*
X20409677Y-11471593D01*
X20409677Y-11471593D02*
X20447772Y-11471593D01*
X20447772Y-11471593D02*
X20466820Y-11462069D01*
X20466820Y-11462069D02*
X20476344Y-11452546D01*
X20476344Y-11452546D02*
X20485868Y-11433498D01*
X20657296Y-11414450D02*
X20657296Y-11547784D01*
X20609677Y-11338260D02*
X20562058Y-11481117D01*
X20562058Y-11481117D02*
X20685868Y-11481117D01*
X20752534Y-11347784D02*
X20752534Y-11385879D01*
X20828725Y-11347784D02*
X20828725Y-11385879D01*
X21123963Y-11623974D02*
X21114439Y-11614450D01*
X21114439Y-11614450D02*
X21095391Y-11585879D01*
X21095391Y-11585879D02*
X21085868Y-11566831D01*
X21085868Y-11566831D02*
X21076344Y-11538260D01*
X21076344Y-11538260D02*
X21066820Y-11490641D01*
X21066820Y-11490641D02*
X21066820Y-11452546D01*
X21066820Y-11452546D02*
X21076344Y-11404927D01*
X21076344Y-11404927D02*
X21085868Y-11376355D01*
X21085868Y-11376355D02*
X21095391Y-11357308D01*
X21095391Y-11357308D02*
X21114439Y-11328736D01*
X21114439Y-11328736D02*
X21123963Y-11319212D01*
X21181106Y-11347784D02*
X21304915Y-11347784D01*
X21304915Y-11347784D02*
X21238249Y-11423974D01*
X21238249Y-11423974D02*
X21266820Y-11423974D01*
X21266820Y-11423974D02*
X21285868Y-11433498D01*
X21285868Y-11433498D02*
X21295391Y-11443022D01*
X21295391Y-11443022D02*
X21304915Y-11462069D01*
X21304915Y-11462069D02*
X21304915Y-11509688D01*
X21304915Y-11509688D02*
X21295391Y-11528736D01*
X21295391Y-11528736D02*
X21285868Y-11538260D01*
X21285868Y-11538260D02*
X21266820Y-11547784D01*
X21266820Y-11547784D02*
X21209677Y-11547784D01*
X21209677Y-11547784D02*
X21190630Y-11538260D01*
X21190630Y-11538260D02*
X21181106Y-11528736D01*
X21543011Y-11547784D02*
X21543011Y-11347784D01*
X21628725Y-11547784D02*
X21628725Y-11443022D01*
X21628725Y-11443022D02*
X21619201Y-11423974D01*
X21619201Y-11423974D02*
X21600153Y-11414450D01*
X21600153Y-11414450D02*
X21571582Y-11414450D01*
X21571582Y-11414450D02*
X21552534Y-11423974D01*
X21552534Y-11423974D02*
X21543011Y-11433498D01*
X21752534Y-11547784D02*
X21733487Y-11538260D01*
X21733487Y-11538260D02*
X21723963Y-11528736D01*
X21723963Y-11528736D02*
X21714439Y-11509688D01*
X21714439Y-11509688D02*
X21714439Y-11452546D01*
X21714439Y-11452546D02*
X21723963Y-11433498D01*
X21723963Y-11433498D02*
X21733487Y-11423974D01*
X21733487Y-11423974D02*
X21752534Y-11414450D01*
X21752534Y-11414450D02*
X21781106Y-11414450D01*
X21781106Y-11414450D02*
X21800153Y-11423974D01*
X21800153Y-11423974D02*
X21809677Y-11433498D01*
X21809677Y-11433498D02*
X21819201Y-11452546D01*
X21819201Y-11452546D02*
X21819201Y-11509688D01*
X21819201Y-11509688D02*
X21809677Y-11528736D01*
X21809677Y-11528736D02*
X21800153Y-11538260D01*
X21800153Y-11538260D02*
X21781106Y-11547784D01*
X21781106Y-11547784D02*
X21752534Y-11547784D01*
X21933487Y-11547784D02*
X21914439Y-11538260D01*
X21914439Y-11538260D02*
X21904915Y-11519212D01*
X21904915Y-11519212D02*
X21904915Y-11347784D01*
X22085868Y-11538260D02*
X22066820Y-11547784D01*
X22066820Y-11547784D02*
X22028725Y-11547784D01*
X22028725Y-11547784D02*
X22009677Y-11538260D01*
X22009677Y-11538260D02*
X22000153Y-11519212D01*
X22000153Y-11519212D02*
X22000153Y-11443022D01*
X22000153Y-11443022D02*
X22009677Y-11423974D01*
X22009677Y-11423974D02*
X22028725Y-11414450D01*
X22028725Y-11414450D02*
X22066820Y-11414450D01*
X22066820Y-11414450D02*
X22085868Y-11423974D01*
X22085868Y-11423974D02*
X22095392Y-11443022D01*
X22095392Y-11443022D02*
X22095392Y-11462069D01*
X22095392Y-11462069D02*
X22000153Y-11481117D01*
X22171582Y-11538260D02*
X22190630Y-11547784D01*
X22190630Y-11547784D02*
X22228725Y-11547784D01*
X22228725Y-11547784D02*
X22247773Y-11538260D01*
X22247773Y-11538260D02*
X22257296Y-11519212D01*
X22257296Y-11519212D02*
X22257296Y-11509688D01*
X22257296Y-11509688D02*
X22247773Y-11490641D01*
X22247773Y-11490641D02*
X22228725Y-11481117D01*
X22228725Y-11481117D02*
X22200153Y-11481117D01*
X22200153Y-11481117D02*
X22181106Y-11471593D01*
X22181106Y-11471593D02*
X22171582Y-11452546D01*
X22171582Y-11452546D02*
X22171582Y-11443022D01*
X22171582Y-11443022D02*
X22181106Y-11423974D01*
X22181106Y-11423974D02*
X22200153Y-11414450D01*
X22200153Y-11414450D02*
X22228725Y-11414450D01*
X22228725Y-11414450D02*
X22247773Y-11423974D01*
X22495392Y-11471593D02*
X22647773Y-11471593D01*
X22571582Y-11547784D02*
X22571582Y-11395403D01*
X22876344Y-11347784D02*
X23000153Y-11347784D01*
X23000153Y-11347784D02*
X22933487Y-11423974D01*
X22933487Y-11423974D02*
X22962058Y-11423974D01*
X22962058Y-11423974D02*
X22981106Y-11433498D01*
X22981106Y-11433498D02*
X22990630Y-11443022D01*
X22990630Y-11443022D02*
X23000153Y-11462069D01*
X23000153Y-11462069D02*
X23000153Y-11509688D01*
X23000153Y-11509688D02*
X22990630Y-11528736D01*
X22990630Y-11528736D02*
X22981106Y-11538260D01*
X22981106Y-11538260D02*
X22962058Y-11547784D01*
X22962058Y-11547784D02*
X22904915Y-11547784D01*
X22904915Y-11547784D02*
X22885868Y-11538260D01*
X22885868Y-11538260D02*
X22876344Y-11528736D01*
X23228725Y-11538260D02*
X23247773Y-11547784D01*
X23247773Y-11547784D02*
X23285868Y-11547784D01*
X23285868Y-11547784D02*
X23304915Y-11538260D01*
X23304915Y-11538260D02*
X23314439Y-11519212D01*
X23314439Y-11519212D02*
X23314439Y-11509688D01*
X23314439Y-11509688D02*
X23304915Y-11490641D01*
X23304915Y-11490641D02*
X23285868Y-11481117D01*
X23285868Y-11481117D02*
X23257296Y-11481117D01*
X23257296Y-11481117D02*
X23238249Y-11471593D01*
X23238249Y-11471593D02*
X23228725Y-11452546D01*
X23228725Y-11452546D02*
X23228725Y-11443022D01*
X23228725Y-11443022D02*
X23238249Y-11423974D01*
X23238249Y-11423974D02*
X23257296Y-11414450D01*
X23257296Y-11414450D02*
X23285868Y-11414450D01*
X23285868Y-11414450D02*
X23304915Y-11423974D01*
X23428725Y-11547784D02*
X23409677Y-11538260D01*
X23409677Y-11538260D02*
X23400154Y-11519212D01*
X23400154Y-11519212D02*
X23400154Y-11347784D01*
X23533487Y-11547784D02*
X23514439Y-11538260D01*
X23514439Y-11538260D02*
X23504915Y-11528736D01*
X23504915Y-11528736D02*
X23495392Y-11509688D01*
X23495392Y-11509688D02*
X23495392Y-11452546D01*
X23495392Y-11452546D02*
X23504915Y-11433498D01*
X23504915Y-11433498D02*
X23514439Y-11423974D01*
X23514439Y-11423974D02*
X23533487Y-11414450D01*
X23533487Y-11414450D02*
X23562058Y-11414450D01*
X23562058Y-11414450D02*
X23581106Y-11423974D01*
X23581106Y-11423974D02*
X23590630Y-11433498D01*
X23590630Y-11433498D02*
X23600154Y-11452546D01*
X23600154Y-11452546D02*
X23600154Y-11509688D01*
X23600154Y-11509688D02*
X23590630Y-11528736D01*
X23590630Y-11528736D02*
X23581106Y-11538260D01*
X23581106Y-11538260D02*
X23562058Y-11547784D01*
X23562058Y-11547784D02*
X23533487Y-11547784D01*
X23657296Y-11414450D02*
X23733487Y-11414450D01*
X23685868Y-11347784D02*
X23685868Y-11519212D01*
X23685868Y-11519212D02*
X23695392Y-11538260D01*
X23695392Y-11538260D02*
X23714439Y-11547784D01*
X23714439Y-11547784D02*
X23733487Y-11547784D01*
X23790630Y-11538260D02*
X23809677Y-11547784D01*
X23809677Y-11547784D02*
X23847773Y-11547784D01*
X23847773Y-11547784D02*
X23866820Y-11538260D01*
X23866820Y-11538260D02*
X23876344Y-11519212D01*
X23876344Y-11519212D02*
X23876344Y-11509688D01*
X23876344Y-11509688D02*
X23866820Y-11490641D01*
X23866820Y-11490641D02*
X23847773Y-11481117D01*
X23847773Y-11481117D02*
X23819201Y-11481117D01*
X23819201Y-11481117D02*
X23800154Y-11471593D01*
X23800154Y-11471593D02*
X23790630Y-11452546D01*
X23790630Y-11452546D02*
X23790630Y-11443022D01*
X23790630Y-11443022D02*
X23800154Y-11423974D01*
X23800154Y-11423974D02*
X23819201Y-11414450D01*
X23819201Y-11414450D02*
X23847773Y-11414450D01*
X23847773Y-11414450D02*
X23866820Y-11423974D01*
X23943011Y-11623974D02*
X23952535Y-11614450D01*
X23952535Y-11614450D02*
X23971582Y-11585879D01*
X23971582Y-11585879D02*
X23981106Y-11566831D01*
X23981106Y-11566831D02*
X23990630Y-11538260D01*
X23990630Y-11538260D02*
X24000154Y-11490641D01*
X24000154Y-11490641D02*
X24000154Y-11452546D01*
X24000154Y-11452546D02*
X23990630Y-11404927D01*
X23990630Y-11404927D02*
X23981106Y-11376355D01*
X23981106Y-11376355D02*
X23971582Y-11357308D01*
X23971582Y-11357308D02*
X23952535Y-11328736D01*
X23952535Y-11328736D02*
X23943011Y-11319212D01*
D13*
X17493900Y-11775300D02*
X17548900Y-11720300D01*
X17493900Y-11665300D01*
X17438900Y-11720300D01*
X17493900Y-11775300D01*
D11*
X17914439Y-11811784D02*
X17800153Y-11811784D01*
X17857296Y-11811784D02*
X17857296Y-11611784D01*
X17857296Y-11611784D02*
X17838248Y-11640355D01*
X17838248Y-11640355D02*
X17819201Y-11659403D01*
X17819201Y-11659403D02*
X17800153Y-11668927D01*
X18000153Y-11792736D02*
X18009677Y-11802260D01*
X18009677Y-11802260D02*
X18000153Y-11811784D01*
X18000153Y-11811784D02*
X17990629Y-11802260D01*
X17990629Y-11802260D02*
X18000153Y-11792736D01*
X18000153Y-11792736D02*
X18000153Y-11811784D01*
X18200153Y-11811784D02*
X18085867Y-11811784D01*
X18143010Y-11811784D02*
X18143010Y-11611784D01*
X18143010Y-11611784D02*
X18123963Y-11640355D01*
X18123963Y-11640355D02*
X18104915Y-11659403D01*
X18104915Y-11659403D02*
X18085867Y-11668927D01*
X18323963Y-11611784D02*
X18343010Y-11611784D01*
X18343010Y-11611784D02*
X18362058Y-11621308D01*
X18362058Y-11621308D02*
X18371582Y-11630831D01*
X18371582Y-11630831D02*
X18381105Y-11649879D01*
X18381105Y-11649879D02*
X18390629Y-11687974D01*
X18390629Y-11687974D02*
X18390629Y-11735593D01*
X18390629Y-11735593D02*
X18381105Y-11773688D01*
X18381105Y-11773688D02*
X18371582Y-11792736D01*
X18371582Y-11792736D02*
X18362058Y-11802260D01*
X18362058Y-11802260D02*
X18343010Y-11811784D01*
X18343010Y-11811784D02*
X18323963Y-11811784D01*
X18323963Y-11811784D02*
X18304915Y-11802260D01*
X18304915Y-11802260D02*
X18295391Y-11792736D01*
X18295391Y-11792736D02*
X18285867Y-11773688D01*
X18285867Y-11773688D02*
X18276344Y-11735593D01*
X18276344Y-11735593D02*
X18276344Y-11687974D01*
X18276344Y-11687974D02*
X18285867Y-11649879D01*
X18285867Y-11649879D02*
X18295391Y-11630831D01*
X18295391Y-11630831D02*
X18304915Y-11621308D01*
X18304915Y-11621308D02*
X18323963Y-11611784D01*
X18514439Y-11611784D02*
X18533486Y-11611784D01*
X18533486Y-11611784D02*
X18552534Y-11621308D01*
X18552534Y-11621308D02*
X18562058Y-11630831D01*
X18562058Y-11630831D02*
X18571582Y-11649879D01*
X18571582Y-11649879D02*
X18581105Y-11687974D01*
X18581105Y-11687974D02*
X18581105Y-11735593D01*
X18581105Y-11735593D02*
X18571582Y-11773688D01*
X18571582Y-11773688D02*
X18562058Y-11792736D01*
X18562058Y-11792736D02*
X18552534Y-11802260D01*
X18552534Y-11802260D02*
X18533486Y-11811784D01*
X18533486Y-11811784D02*
X18514439Y-11811784D01*
X18514439Y-11811784D02*
X18495391Y-11802260D01*
X18495391Y-11802260D02*
X18485867Y-11792736D01*
X18485867Y-11792736D02*
X18476344Y-11773688D01*
X18476344Y-11773688D02*
X18466820Y-11735593D01*
X18466820Y-11735593D02*
X18466820Y-11687974D01*
X18466820Y-11687974D02*
X18476344Y-11649879D01*
X18476344Y-11649879D02*
X18485867Y-11630831D01*
X18485867Y-11630831D02*
X18495391Y-11621308D01*
X18495391Y-11621308D02*
X18514439Y-11611784D01*
X18666820Y-11811784D02*
X18666820Y-11678450D01*
X18666820Y-11697498D02*
X18676344Y-11687974D01*
X18676344Y-11687974D02*
X18695391Y-11678450D01*
X18695391Y-11678450D02*
X18723963Y-11678450D01*
X18723963Y-11678450D02*
X18743010Y-11687974D01*
X18743010Y-11687974D02*
X18752534Y-11707022D01*
X18752534Y-11707022D02*
X18752534Y-11811784D01*
X18752534Y-11707022D02*
X18762058Y-11687974D01*
X18762058Y-11687974D02*
X18781105Y-11678450D01*
X18781105Y-11678450D02*
X18809677Y-11678450D01*
X18809677Y-11678450D02*
X18828725Y-11687974D01*
X18828725Y-11687974D02*
X18838248Y-11707022D01*
X18838248Y-11707022D02*
X18838248Y-11811784D01*
X18933486Y-11811784D02*
X18933486Y-11678450D01*
X18933486Y-11697498D02*
X18943010Y-11687974D01*
X18943010Y-11687974D02*
X18962058Y-11678450D01*
X18962058Y-11678450D02*
X18990629Y-11678450D01*
X18990629Y-11678450D02*
X19009677Y-11687974D01*
X19009677Y-11687974D02*
X19019201Y-11707022D01*
X19019201Y-11707022D02*
X19019201Y-11811784D01*
X19019201Y-11707022D02*
X19028725Y-11687974D01*
X19028725Y-11687974D02*
X19047772Y-11678450D01*
X19047772Y-11678450D02*
X19076344Y-11678450D01*
X19076344Y-11678450D02*
X19095391Y-11687974D01*
X19095391Y-11687974D02*
X19104915Y-11707022D01*
X19104915Y-11707022D02*
X19104915Y-11811784D01*
X19495391Y-11602260D02*
X19323963Y-11859403D01*
X19752534Y-11611784D02*
X19771582Y-11611784D01*
X19771582Y-11611784D02*
X19790629Y-11621308D01*
X19790629Y-11621308D02*
X19800153Y-11630831D01*
X19800153Y-11630831D02*
X19809677Y-11649879D01*
X19809677Y-11649879D02*
X19819201Y-11687974D01*
X19819201Y-11687974D02*
X19819201Y-11735593D01*
X19819201Y-11735593D02*
X19809677Y-11773688D01*
X19809677Y-11773688D02*
X19800153Y-11792736D01*
X19800153Y-11792736D02*
X19790629Y-11802260D01*
X19790629Y-11802260D02*
X19771582Y-11811784D01*
X19771582Y-11811784D02*
X19752534Y-11811784D01*
X19752534Y-11811784D02*
X19733487Y-11802260D01*
X19733487Y-11802260D02*
X19723963Y-11792736D01*
X19723963Y-11792736D02*
X19714439Y-11773688D01*
X19714439Y-11773688D02*
X19704915Y-11735593D01*
X19704915Y-11735593D02*
X19704915Y-11687974D01*
X19704915Y-11687974D02*
X19714439Y-11649879D01*
X19714439Y-11649879D02*
X19723963Y-11630831D01*
X19723963Y-11630831D02*
X19733487Y-11621308D01*
X19733487Y-11621308D02*
X19752534Y-11611784D01*
X19904915Y-11792736D02*
X19914439Y-11802260D01*
X19914439Y-11802260D02*
X19904915Y-11811784D01*
X19904915Y-11811784D02*
X19895391Y-11802260D01*
X19895391Y-11802260D02*
X19904915Y-11792736D01*
X19904915Y-11792736D02*
X19904915Y-11811784D01*
X20038248Y-11611784D02*
X20057296Y-11611784D01*
X20057296Y-11611784D02*
X20076344Y-11621308D01*
X20076344Y-11621308D02*
X20085868Y-11630831D01*
X20085868Y-11630831D02*
X20095391Y-11649879D01*
X20095391Y-11649879D02*
X20104915Y-11687974D01*
X20104915Y-11687974D02*
X20104915Y-11735593D01*
X20104915Y-11735593D02*
X20095391Y-11773688D01*
X20095391Y-11773688D02*
X20085868Y-11792736D01*
X20085868Y-11792736D02*
X20076344Y-11802260D01*
X20076344Y-11802260D02*
X20057296Y-11811784D01*
X20057296Y-11811784D02*
X20038248Y-11811784D01*
X20038248Y-11811784D02*
X20019201Y-11802260D01*
X20019201Y-11802260D02*
X20009677Y-11792736D01*
X20009677Y-11792736D02*
X20000153Y-11773688D01*
X20000153Y-11773688D02*
X19990629Y-11735593D01*
X19990629Y-11735593D02*
X19990629Y-11687974D01*
X19990629Y-11687974D02*
X20000153Y-11649879D01*
X20000153Y-11649879D02*
X20009677Y-11630831D01*
X20009677Y-11630831D02*
X20019201Y-11621308D01*
X20019201Y-11621308D02*
X20038248Y-11611784D01*
X20276344Y-11678450D02*
X20276344Y-11811784D01*
X20228725Y-11602260D02*
X20181106Y-11745117D01*
X20181106Y-11745117D02*
X20304915Y-11745117D01*
X20362058Y-11611784D02*
X20485868Y-11611784D01*
X20485868Y-11611784D02*
X20419201Y-11687974D01*
X20419201Y-11687974D02*
X20447772Y-11687974D01*
X20447772Y-11687974D02*
X20466820Y-11697498D01*
X20466820Y-11697498D02*
X20476344Y-11707022D01*
X20476344Y-11707022D02*
X20485868Y-11726069D01*
X20485868Y-11726069D02*
X20485868Y-11773688D01*
X20485868Y-11773688D02*
X20476344Y-11792736D01*
X20476344Y-11792736D02*
X20466820Y-11802260D01*
X20466820Y-11802260D02*
X20447772Y-11811784D01*
X20447772Y-11811784D02*
X20390629Y-11811784D01*
X20390629Y-11811784D02*
X20371582Y-11802260D01*
X20371582Y-11802260D02*
X20362058Y-11792736D01*
X20552534Y-11611784D02*
X20676344Y-11611784D01*
X20676344Y-11611784D02*
X20609677Y-11687974D01*
X20609677Y-11687974D02*
X20638249Y-11687974D01*
X20638249Y-11687974D02*
X20657296Y-11697498D01*
X20657296Y-11697498D02*
X20666820Y-11707022D01*
X20666820Y-11707022D02*
X20676344Y-11726069D01*
X20676344Y-11726069D02*
X20676344Y-11773688D01*
X20676344Y-11773688D02*
X20666820Y-11792736D01*
X20666820Y-11792736D02*
X20657296Y-11802260D01*
X20657296Y-11802260D02*
X20638249Y-11811784D01*
X20638249Y-11811784D02*
X20581106Y-11811784D01*
X20581106Y-11811784D02*
X20562058Y-11802260D01*
X20562058Y-11802260D02*
X20552534Y-11792736D01*
X20752534Y-11611784D02*
X20752534Y-11649879D01*
X20828725Y-11611784D02*
X20828725Y-11649879D01*
X21123963Y-11887974D02*
X21114439Y-11878450D01*
X21114439Y-11878450D02*
X21095391Y-11849879D01*
X21095391Y-11849879D02*
X21085868Y-11830831D01*
X21085868Y-11830831D02*
X21076344Y-11802260D01*
X21076344Y-11802260D02*
X21066820Y-11754641D01*
X21066820Y-11754641D02*
X21066820Y-11716546D01*
X21066820Y-11716546D02*
X21076344Y-11668927D01*
X21076344Y-11668927D02*
X21085868Y-11640355D01*
X21085868Y-11640355D02*
X21095391Y-11621308D01*
X21095391Y-11621308D02*
X21114439Y-11592736D01*
X21114439Y-11592736D02*
X21123963Y-11583212D01*
X21285868Y-11611784D02*
X21247772Y-11611784D01*
X21247772Y-11611784D02*
X21228725Y-11621308D01*
X21228725Y-11621308D02*
X21219201Y-11630831D01*
X21219201Y-11630831D02*
X21200153Y-11659403D01*
X21200153Y-11659403D02*
X21190630Y-11697498D01*
X21190630Y-11697498D02*
X21190630Y-11773688D01*
X21190630Y-11773688D02*
X21200153Y-11792736D01*
X21200153Y-11792736D02*
X21209677Y-11802260D01*
X21209677Y-11802260D02*
X21228725Y-11811784D01*
X21228725Y-11811784D02*
X21266820Y-11811784D01*
X21266820Y-11811784D02*
X21285868Y-11802260D01*
X21285868Y-11802260D02*
X21295391Y-11792736D01*
X21295391Y-11792736D02*
X21304915Y-11773688D01*
X21304915Y-11773688D02*
X21304915Y-11726069D01*
X21304915Y-11726069D02*
X21295391Y-11707022D01*
X21295391Y-11707022D02*
X21285868Y-11697498D01*
X21285868Y-11697498D02*
X21266820Y-11687974D01*
X21266820Y-11687974D02*
X21228725Y-11687974D01*
X21228725Y-11687974D02*
X21209677Y-11697498D01*
X21209677Y-11697498D02*
X21200153Y-11707022D01*
X21200153Y-11707022D02*
X21190630Y-11726069D01*
X21543011Y-11811784D02*
X21543011Y-11611784D01*
X21628725Y-11811784D02*
X21628725Y-11707022D01*
X21628725Y-11707022D02*
X21619201Y-11687974D01*
X21619201Y-11687974D02*
X21600153Y-11678450D01*
X21600153Y-11678450D02*
X21571582Y-11678450D01*
X21571582Y-11678450D02*
X21552534Y-11687974D01*
X21552534Y-11687974D02*
X21543011Y-11697498D01*
X21752534Y-11811784D02*
X21733487Y-11802260D01*
X21733487Y-11802260D02*
X21723963Y-11792736D01*
X21723963Y-11792736D02*
X21714439Y-11773688D01*
X21714439Y-11773688D02*
X21714439Y-11716546D01*
X21714439Y-11716546D02*
X21723963Y-11697498D01*
X21723963Y-11697498D02*
X21733487Y-11687974D01*
X21733487Y-11687974D02*
X21752534Y-11678450D01*
X21752534Y-11678450D02*
X21781106Y-11678450D01*
X21781106Y-11678450D02*
X21800153Y-11687974D01*
X21800153Y-11687974D02*
X21809677Y-11697498D01*
X21809677Y-11697498D02*
X21819201Y-11716546D01*
X21819201Y-11716546D02*
X21819201Y-11773688D01*
X21819201Y-11773688D02*
X21809677Y-11792736D01*
X21809677Y-11792736D02*
X21800153Y-11802260D01*
X21800153Y-11802260D02*
X21781106Y-11811784D01*
X21781106Y-11811784D02*
X21752534Y-11811784D01*
X21933487Y-11811784D02*
X21914439Y-11802260D01*
X21914439Y-11802260D02*
X21904915Y-11783212D01*
X21904915Y-11783212D02*
X21904915Y-11611784D01*
X22085868Y-11802260D02*
X22066820Y-11811784D01*
X22066820Y-11811784D02*
X22028725Y-11811784D01*
X22028725Y-11811784D02*
X22009677Y-11802260D01*
X22009677Y-11802260D02*
X22000153Y-11783212D01*
X22000153Y-11783212D02*
X22000153Y-11707022D01*
X22000153Y-11707022D02*
X22009677Y-11687974D01*
X22009677Y-11687974D02*
X22028725Y-11678450D01*
X22028725Y-11678450D02*
X22066820Y-11678450D01*
X22066820Y-11678450D02*
X22085868Y-11687974D01*
X22085868Y-11687974D02*
X22095392Y-11707022D01*
X22095392Y-11707022D02*
X22095392Y-11726069D01*
X22095392Y-11726069D02*
X22000153Y-11745117D01*
X22171582Y-11802260D02*
X22190630Y-11811784D01*
X22190630Y-11811784D02*
X22228725Y-11811784D01*
X22228725Y-11811784D02*
X22247773Y-11802260D01*
X22247773Y-11802260D02*
X22257296Y-11783212D01*
X22257296Y-11783212D02*
X22257296Y-11773688D01*
X22257296Y-11773688D02*
X22247773Y-11754641D01*
X22247773Y-11754641D02*
X22228725Y-11745117D01*
X22228725Y-11745117D02*
X22200153Y-11745117D01*
X22200153Y-11745117D02*
X22181106Y-11735593D01*
X22181106Y-11735593D02*
X22171582Y-11716546D01*
X22171582Y-11716546D02*
X22171582Y-11707022D01*
X22171582Y-11707022D02*
X22181106Y-11687974D01*
X22181106Y-11687974D02*
X22200153Y-11678450D01*
X22200153Y-11678450D02*
X22228725Y-11678450D01*
X22228725Y-11678450D02*
X22247773Y-11687974D01*
X22323963Y-11887974D02*
X22333487Y-11878450D01*
X22333487Y-11878450D02*
X22352534Y-11849879D01*
X22352534Y-11849879D02*
X22362058Y-11830831D01*
X22362058Y-11830831D02*
X22371582Y-11802260D01*
X22371582Y-11802260D02*
X22381106Y-11754641D01*
X22381106Y-11754641D02*
X22381106Y-11716546D01*
X22381106Y-11716546D02*
X22371582Y-11668927D01*
X22371582Y-11668927D02*
X22362058Y-11640355D01*
X22362058Y-11640355D02*
X22352534Y-11621308D01*
X22352534Y-11621308D02*
X22333487Y-11592736D01*
X22333487Y-11592736D02*
X22323963Y-11583212D01*
D14*
X17435900Y-11927800D02*
X17548900Y-12040800D01*
X17548900Y-11927800D02*
X17435900Y-12040800D01*
X17548900Y-11984300D02*
G75*
G02*
X17435900Y-11984300I-56500J0D01*
G01*
X17435900Y-11984300D02*
G75*
G02*
X17548900Y-11984300I56500J0D01*
G01*
D11*
X17914439Y-12075784D02*
X17800153Y-12075784D01*
X17857296Y-12075784D02*
X17857296Y-11875784D01*
X17857296Y-11875784D02*
X17838248Y-11904355D01*
X17838248Y-11904355D02*
X17819201Y-11923403D01*
X17819201Y-11923403D02*
X17800153Y-11932927D01*
X18000153Y-12056736D02*
X18009677Y-12066260D01*
X18009677Y-12066260D02*
X18000153Y-12075784D01*
X18000153Y-12075784D02*
X17990629Y-12066260D01*
X17990629Y-12066260D02*
X18000153Y-12056736D01*
X18000153Y-12056736D02*
X18000153Y-12075784D01*
X18200153Y-12075784D02*
X18085867Y-12075784D01*
X18143010Y-12075784D02*
X18143010Y-11875784D01*
X18143010Y-11875784D02*
X18123963Y-11904355D01*
X18123963Y-11904355D02*
X18104915Y-11923403D01*
X18104915Y-11923403D02*
X18085867Y-11932927D01*
X18266820Y-11875784D02*
X18390629Y-11875784D01*
X18390629Y-11875784D02*
X18323963Y-11951974D01*
X18323963Y-11951974D02*
X18352534Y-11951974D01*
X18352534Y-11951974D02*
X18371582Y-11961498D01*
X18371582Y-11961498D02*
X18381105Y-11971022D01*
X18381105Y-11971022D02*
X18390629Y-11990069D01*
X18390629Y-11990069D02*
X18390629Y-12037688D01*
X18390629Y-12037688D02*
X18381105Y-12056736D01*
X18381105Y-12056736D02*
X18371582Y-12066260D01*
X18371582Y-12066260D02*
X18352534Y-12075784D01*
X18352534Y-12075784D02*
X18295391Y-12075784D01*
X18295391Y-12075784D02*
X18276344Y-12066260D01*
X18276344Y-12066260D02*
X18266820Y-12056736D01*
X18514439Y-11875784D02*
X18533486Y-11875784D01*
X18533486Y-11875784D02*
X18552534Y-11885308D01*
X18552534Y-11885308D02*
X18562058Y-11894831D01*
X18562058Y-11894831D02*
X18571582Y-11913879D01*
X18571582Y-11913879D02*
X18581105Y-11951974D01*
X18581105Y-11951974D02*
X18581105Y-11999593D01*
X18581105Y-11999593D02*
X18571582Y-12037688D01*
X18571582Y-12037688D02*
X18562058Y-12056736D01*
X18562058Y-12056736D02*
X18552534Y-12066260D01*
X18552534Y-12066260D02*
X18533486Y-12075784D01*
X18533486Y-12075784D02*
X18514439Y-12075784D01*
X18514439Y-12075784D02*
X18495391Y-12066260D01*
X18495391Y-12066260D02*
X18485867Y-12056736D01*
X18485867Y-12056736D02*
X18476344Y-12037688D01*
X18476344Y-12037688D02*
X18466820Y-11999593D01*
X18466820Y-11999593D02*
X18466820Y-11951974D01*
X18466820Y-11951974D02*
X18476344Y-11913879D01*
X18476344Y-11913879D02*
X18485867Y-11894831D01*
X18485867Y-11894831D02*
X18495391Y-11885308D01*
X18495391Y-11885308D02*
X18514439Y-11875784D01*
X18666820Y-12075784D02*
X18666820Y-11942450D01*
X18666820Y-11961498D02*
X18676344Y-11951974D01*
X18676344Y-11951974D02*
X18695391Y-11942450D01*
X18695391Y-11942450D02*
X18723963Y-11942450D01*
X18723963Y-11942450D02*
X18743010Y-11951974D01*
X18743010Y-11951974D02*
X18752534Y-11971022D01*
X18752534Y-11971022D02*
X18752534Y-12075784D01*
X18752534Y-11971022D02*
X18762058Y-11951974D01*
X18762058Y-11951974D02*
X18781105Y-11942450D01*
X18781105Y-11942450D02*
X18809677Y-11942450D01*
X18809677Y-11942450D02*
X18828725Y-11951974D01*
X18828725Y-11951974D02*
X18838248Y-11971022D01*
X18838248Y-11971022D02*
X18838248Y-12075784D01*
X18933486Y-12075784D02*
X18933486Y-11942450D01*
X18933486Y-11961498D02*
X18943010Y-11951974D01*
X18943010Y-11951974D02*
X18962058Y-11942450D01*
X18962058Y-11942450D02*
X18990629Y-11942450D01*
X18990629Y-11942450D02*
X19009677Y-11951974D01*
X19009677Y-11951974D02*
X19019201Y-11971022D01*
X19019201Y-11971022D02*
X19019201Y-12075784D01*
X19019201Y-11971022D02*
X19028725Y-11951974D01*
X19028725Y-11951974D02*
X19047772Y-11942450D01*
X19047772Y-11942450D02*
X19076344Y-11942450D01*
X19076344Y-11942450D02*
X19095391Y-11951974D01*
X19095391Y-11951974D02*
X19104915Y-11971022D01*
X19104915Y-11971022D02*
X19104915Y-12075784D01*
X19495391Y-11866260D02*
X19323963Y-12123403D01*
X19752534Y-11875784D02*
X19771582Y-11875784D01*
X19771582Y-11875784D02*
X19790629Y-11885308D01*
X19790629Y-11885308D02*
X19800153Y-11894831D01*
X19800153Y-11894831D02*
X19809677Y-11913879D01*
X19809677Y-11913879D02*
X19819201Y-11951974D01*
X19819201Y-11951974D02*
X19819201Y-11999593D01*
X19819201Y-11999593D02*
X19809677Y-12037688D01*
X19809677Y-12037688D02*
X19800153Y-12056736D01*
X19800153Y-12056736D02*
X19790629Y-12066260D01*
X19790629Y-12066260D02*
X19771582Y-12075784D01*
X19771582Y-12075784D02*
X19752534Y-12075784D01*
X19752534Y-12075784D02*
X19733487Y-12066260D01*
X19733487Y-12066260D02*
X19723963Y-12056736D01*
X19723963Y-12056736D02*
X19714439Y-12037688D01*
X19714439Y-12037688D02*
X19704915Y-11999593D01*
X19704915Y-11999593D02*
X19704915Y-11951974D01*
X19704915Y-11951974D02*
X19714439Y-11913879D01*
X19714439Y-11913879D02*
X19723963Y-11894831D01*
X19723963Y-11894831D02*
X19733487Y-11885308D01*
X19733487Y-11885308D02*
X19752534Y-11875784D01*
X19904915Y-12056736D02*
X19914439Y-12066260D01*
X19914439Y-12066260D02*
X19904915Y-12075784D01*
X19904915Y-12075784D02*
X19895391Y-12066260D01*
X19895391Y-12066260D02*
X19904915Y-12056736D01*
X19904915Y-12056736D02*
X19904915Y-12075784D01*
X20038248Y-11875784D02*
X20057296Y-11875784D01*
X20057296Y-11875784D02*
X20076344Y-11885308D01*
X20076344Y-11885308D02*
X20085868Y-11894831D01*
X20085868Y-11894831D02*
X20095391Y-11913879D01*
X20095391Y-11913879D02*
X20104915Y-11951974D01*
X20104915Y-11951974D02*
X20104915Y-11999593D01*
X20104915Y-11999593D02*
X20095391Y-12037688D01*
X20095391Y-12037688D02*
X20085868Y-12056736D01*
X20085868Y-12056736D02*
X20076344Y-12066260D01*
X20076344Y-12066260D02*
X20057296Y-12075784D01*
X20057296Y-12075784D02*
X20038248Y-12075784D01*
X20038248Y-12075784D02*
X20019201Y-12066260D01*
X20019201Y-12066260D02*
X20009677Y-12056736D01*
X20009677Y-12056736D02*
X20000153Y-12037688D01*
X20000153Y-12037688D02*
X19990629Y-11999593D01*
X19990629Y-11999593D02*
X19990629Y-11951974D01*
X19990629Y-11951974D02*
X20000153Y-11913879D01*
X20000153Y-11913879D02*
X20009677Y-11894831D01*
X20009677Y-11894831D02*
X20019201Y-11885308D01*
X20019201Y-11885308D02*
X20038248Y-11875784D01*
X20276344Y-11942450D02*
X20276344Y-12075784D01*
X20228725Y-11866260D02*
X20181106Y-12009117D01*
X20181106Y-12009117D02*
X20304915Y-12009117D01*
X20466820Y-11942450D02*
X20466820Y-12075784D01*
X20419201Y-11866260D02*
X20371582Y-12009117D01*
X20371582Y-12009117D02*
X20495391Y-12009117D01*
X20666820Y-11875784D02*
X20571582Y-11875784D01*
X20571582Y-11875784D02*
X20562058Y-11971022D01*
X20562058Y-11971022D02*
X20571582Y-11961498D01*
X20571582Y-11961498D02*
X20590629Y-11951974D01*
X20590629Y-11951974D02*
X20638249Y-11951974D01*
X20638249Y-11951974D02*
X20657296Y-11961498D01*
X20657296Y-11961498D02*
X20666820Y-11971022D01*
X20666820Y-11971022D02*
X20676344Y-11990069D01*
X20676344Y-11990069D02*
X20676344Y-12037688D01*
X20676344Y-12037688D02*
X20666820Y-12056736D01*
X20666820Y-12056736D02*
X20657296Y-12066260D01*
X20657296Y-12066260D02*
X20638249Y-12075784D01*
X20638249Y-12075784D02*
X20590629Y-12075784D01*
X20590629Y-12075784D02*
X20571582Y-12066260D01*
X20571582Y-12066260D02*
X20562058Y-12056736D01*
X20752534Y-11875784D02*
X20752534Y-11913879D01*
X20828725Y-11875784D02*
X20828725Y-11913879D01*
X21123963Y-12151974D02*
X21114439Y-12142450D01*
X21114439Y-12142450D02*
X21095391Y-12113879D01*
X21095391Y-12113879D02*
X21085868Y-12094831D01*
X21085868Y-12094831D02*
X21076344Y-12066260D01*
X21076344Y-12066260D02*
X21066820Y-12018641D01*
X21066820Y-12018641D02*
X21066820Y-11980546D01*
X21066820Y-11980546D02*
X21076344Y-11932927D01*
X21076344Y-11932927D02*
X21085868Y-11904355D01*
X21085868Y-11904355D02*
X21095391Y-11885308D01*
X21095391Y-11885308D02*
X21114439Y-11856736D01*
X21114439Y-11856736D02*
X21123963Y-11847212D01*
X21304915Y-12075784D02*
X21190630Y-12075784D01*
X21247772Y-12075784D02*
X21247772Y-11875784D01*
X21247772Y-11875784D02*
X21228725Y-11904355D01*
X21228725Y-11904355D02*
X21209677Y-11923403D01*
X21209677Y-11923403D02*
X21190630Y-11932927D01*
X21381106Y-11894831D02*
X21390630Y-11885308D01*
X21390630Y-11885308D02*
X21409677Y-11875784D01*
X21409677Y-11875784D02*
X21457296Y-11875784D01*
X21457296Y-11875784D02*
X21476344Y-11885308D01*
X21476344Y-11885308D02*
X21485868Y-11894831D01*
X21485868Y-11894831D02*
X21495391Y-11913879D01*
X21495391Y-11913879D02*
X21495391Y-11932927D01*
X21495391Y-11932927D02*
X21485868Y-11961498D01*
X21485868Y-11961498D02*
X21371582Y-12075784D01*
X21371582Y-12075784D02*
X21495391Y-12075784D01*
X21733487Y-12075784D02*
X21733487Y-11875784D01*
X21819201Y-12075784D02*
X21819201Y-11971022D01*
X21819201Y-11971022D02*
X21809677Y-11951974D01*
X21809677Y-11951974D02*
X21790630Y-11942450D01*
X21790630Y-11942450D02*
X21762058Y-11942450D01*
X21762058Y-11942450D02*
X21743011Y-11951974D01*
X21743011Y-11951974D02*
X21733487Y-11961498D01*
X21943011Y-12075784D02*
X21923963Y-12066260D01*
X21923963Y-12066260D02*
X21914439Y-12056736D01*
X21914439Y-12056736D02*
X21904915Y-12037688D01*
X21904915Y-12037688D02*
X21904915Y-11980546D01*
X21904915Y-11980546D02*
X21914439Y-11961498D01*
X21914439Y-11961498D02*
X21923963Y-11951974D01*
X21923963Y-11951974D02*
X21943011Y-11942450D01*
X21943011Y-11942450D02*
X21971582Y-11942450D01*
X21971582Y-11942450D02*
X21990630Y-11951974D01*
X21990630Y-11951974D02*
X22000153Y-11961498D01*
X22000153Y-11961498D02*
X22009677Y-11980546D01*
X22009677Y-11980546D02*
X22009677Y-12037688D01*
X22009677Y-12037688D02*
X22000153Y-12056736D01*
X22000153Y-12056736D02*
X21990630Y-12066260D01*
X21990630Y-12066260D02*
X21971582Y-12075784D01*
X21971582Y-12075784D02*
X21943011Y-12075784D01*
X22123963Y-12075784D02*
X22104915Y-12066260D01*
X22104915Y-12066260D02*
X22095392Y-12047212D01*
X22095392Y-12047212D02*
X22095392Y-11875784D01*
X22276344Y-12066260D02*
X22257296Y-12075784D01*
X22257296Y-12075784D02*
X22219201Y-12075784D01*
X22219201Y-12075784D02*
X22200153Y-12066260D01*
X22200153Y-12066260D02*
X22190630Y-12047212D01*
X22190630Y-12047212D02*
X22190630Y-11971022D01*
X22190630Y-11971022D02*
X22200153Y-11951974D01*
X22200153Y-11951974D02*
X22219201Y-11942450D01*
X22219201Y-11942450D02*
X22257296Y-11942450D01*
X22257296Y-11942450D02*
X22276344Y-11951974D01*
X22276344Y-11951974D02*
X22285868Y-11971022D01*
X22285868Y-11971022D02*
X22285868Y-11990069D01*
X22285868Y-11990069D02*
X22190630Y-12009117D01*
X22362058Y-12066260D02*
X22381106Y-12075784D01*
X22381106Y-12075784D02*
X22419201Y-12075784D01*
X22419201Y-12075784D02*
X22438249Y-12066260D01*
X22438249Y-12066260D02*
X22447772Y-12047212D01*
X22447772Y-12047212D02*
X22447772Y-12037688D01*
X22447772Y-12037688D02*
X22438249Y-12018641D01*
X22438249Y-12018641D02*
X22419201Y-12009117D01*
X22419201Y-12009117D02*
X22390630Y-12009117D01*
X22390630Y-12009117D02*
X22371582Y-11999593D01*
X22371582Y-11999593D02*
X22362058Y-11980546D01*
X22362058Y-11980546D02*
X22362058Y-11971022D01*
X22362058Y-11971022D02*
X22371582Y-11951974D01*
X22371582Y-11951974D02*
X22390630Y-11942450D01*
X22390630Y-11942450D02*
X22419201Y-11942450D01*
X22419201Y-11942450D02*
X22438249Y-11951974D01*
X22514439Y-12151974D02*
X22523963Y-12142450D01*
X22523963Y-12142450D02*
X22543011Y-12113879D01*
X22543011Y-12113879D02*
X22552534Y-12094831D01*
X22552534Y-12094831D02*
X22562058Y-12066260D01*
X22562058Y-12066260D02*
X22571582Y-12018641D01*
X22571582Y-12018641D02*
X22571582Y-11980546D01*
X22571582Y-11980546D02*
X22562058Y-11932927D01*
X22562058Y-11932927D02*
X22552534Y-11904355D01*
X22552534Y-11904355D02*
X22543011Y-11885308D01*
X22543011Y-11885308D02*
X22523963Y-11856736D01*
X22523963Y-11856736D02*
X22514439Y-11847212D01*
D15*
X17408900Y-12178300D02*
X17548900Y-12318300D01*
X17548900Y-12178300D02*
X17408900Y-12318300D01*
X17478900Y-12178300D02*
X17478900Y-12318300D01*
X17408900Y-12248300D02*
X17548900Y-12248300D01*
D11*
X17914439Y-12339784D02*
X17800153Y-12339784D01*
X17857296Y-12339784D02*
X17857296Y-12139784D01*
X17857296Y-12139784D02*
X17838248Y-12168355D01*
X17838248Y-12168355D02*
X17819201Y-12187403D01*
X17819201Y-12187403D02*
X17800153Y-12196927D01*
X18000153Y-12320736D02*
X18009677Y-12330260D01*
X18009677Y-12330260D02*
X18000153Y-12339784D01*
X18000153Y-12339784D02*
X17990629Y-12330260D01*
X17990629Y-12330260D02*
X18000153Y-12320736D01*
X18000153Y-12320736D02*
X18000153Y-12339784D01*
X18181105Y-12206450D02*
X18181105Y-12339784D01*
X18133486Y-12130260D02*
X18085867Y-12273117D01*
X18085867Y-12273117D02*
X18209677Y-12273117D01*
X18323963Y-12139784D02*
X18343010Y-12139784D01*
X18343010Y-12139784D02*
X18362058Y-12149308D01*
X18362058Y-12149308D02*
X18371582Y-12158831D01*
X18371582Y-12158831D02*
X18381105Y-12177879D01*
X18381105Y-12177879D02*
X18390629Y-12215974D01*
X18390629Y-12215974D02*
X18390629Y-12263593D01*
X18390629Y-12263593D02*
X18381105Y-12301688D01*
X18381105Y-12301688D02*
X18371582Y-12320736D01*
X18371582Y-12320736D02*
X18362058Y-12330260D01*
X18362058Y-12330260D02*
X18343010Y-12339784D01*
X18343010Y-12339784D02*
X18323963Y-12339784D01*
X18323963Y-12339784D02*
X18304915Y-12330260D01*
X18304915Y-12330260D02*
X18295391Y-12320736D01*
X18295391Y-12320736D02*
X18285867Y-12301688D01*
X18285867Y-12301688D02*
X18276344Y-12263593D01*
X18276344Y-12263593D02*
X18276344Y-12215974D01*
X18276344Y-12215974D02*
X18285867Y-12177879D01*
X18285867Y-12177879D02*
X18295391Y-12158831D01*
X18295391Y-12158831D02*
X18304915Y-12149308D01*
X18304915Y-12149308D02*
X18323963Y-12139784D01*
X18514439Y-12139784D02*
X18533486Y-12139784D01*
X18533486Y-12139784D02*
X18552534Y-12149308D01*
X18552534Y-12149308D02*
X18562058Y-12158831D01*
X18562058Y-12158831D02*
X18571582Y-12177879D01*
X18571582Y-12177879D02*
X18581105Y-12215974D01*
X18581105Y-12215974D02*
X18581105Y-12263593D01*
X18581105Y-12263593D02*
X18571582Y-12301688D01*
X18571582Y-12301688D02*
X18562058Y-12320736D01*
X18562058Y-12320736D02*
X18552534Y-12330260D01*
X18552534Y-12330260D02*
X18533486Y-12339784D01*
X18533486Y-12339784D02*
X18514439Y-12339784D01*
X18514439Y-12339784D02*
X18495391Y-12330260D01*
X18495391Y-12330260D02*
X18485867Y-12320736D01*
X18485867Y-12320736D02*
X18476344Y-12301688D01*
X18476344Y-12301688D02*
X18466820Y-12263593D01*
X18466820Y-12263593D02*
X18466820Y-12215974D01*
X18466820Y-12215974D02*
X18476344Y-12177879D01*
X18476344Y-12177879D02*
X18485867Y-12158831D01*
X18485867Y-12158831D02*
X18495391Y-12149308D01*
X18495391Y-12149308D02*
X18514439Y-12139784D01*
X18666820Y-12339784D02*
X18666820Y-12206450D01*
X18666820Y-12225498D02*
X18676344Y-12215974D01*
X18676344Y-12215974D02*
X18695391Y-12206450D01*
X18695391Y-12206450D02*
X18723963Y-12206450D01*
X18723963Y-12206450D02*
X18743010Y-12215974D01*
X18743010Y-12215974D02*
X18752534Y-12235022D01*
X18752534Y-12235022D02*
X18752534Y-12339784D01*
X18752534Y-12235022D02*
X18762058Y-12215974D01*
X18762058Y-12215974D02*
X18781105Y-12206450D01*
X18781105Y-12206450D02*
X18809677Y-12206450D01*
X18809677Y-12206450D02*
X18828725Y-12215974D01*
X18828725Y-12215974D02*
X18838248Y-12235022D01*
X18838248Y-12235022D02*
X18838248Y-12339784D01*
X18933486Y-12339784D02*
X18933486Y-12206450D01*
X18933486Y-12225498D02*
X18943010Y-12215974D01*
X18943010Y-12215974D02*
X18962058Y-12206450D01*
X18962058Y-12206450D02*
X18990629Y-12206450D01*
X18990629Y-12206450D02*
X19009677Y-12215974D01*
X19009677Y-12215974D02*
X19019201Y-12235022D01*
X19019201Y-12235022D02*
X19019201Y-12339784D01*
X19019201Y-12235022D02*
X19028725Y-12215974D01*
X19028725Y-12215974D02*
X19047772Y-12206450D01*
X19047772Y-12206450D02*
X19076344Y-12206450D01*
X19076344Y-12206450D02*
X19095391Y-12215974D01*
X19095391Y-12215974D02*
X19104915Y-12235022D01*
X19104915Y-12235022D02*
X19104915Y-12339784D01*
X19495391Y-12130260D02*
X19323963Y-12387403D01*
X19752534Y-12139784D02*
X19771582Y-12139784D01*
X19771582Y-12139784D02*
X19790629Y-12149308D01*
X19790629Y-12149308D02*
X19800153Y-12158831D01*
X19800153Y-12158831D02*
X19809677Y-12177879D01*
X19809677Y-12177879D02*
X19819201Y-12215974D01*
X19819201Y-12215974D02*
X19819201Y-12263593D01*
X19819201Y-12263593D02*
X19809677Y-12301688D01*
X19809677Y-12301688D02*
X19800153Y-12320736D01*
X19800153Y-12320736D02*
X19790629Y-12330260D01*
X19790629Y-12330260D02*
X19771582Y-12339784D01*
X19771582Y-12339784D02*
X19752534Y-12339784D01*
X19752534Y-12339784D02*
X19733487Y-12330260D01*
X19733487Y-12330260D02*
X19723963Y-12320736D01*
X19723963Y-12320736D02*
X19714439Y-12301688D01*
X19714439Y-12301688D02*
X19704915Y-12263593D01*
X19704915Y-12263593D02*
X19704915Y-12215974D01*
X19704915Y-12215974D02*
X19714439Y-12177879D01*
X19714439Y-12177879D02*
X19723963Y-12158831D01*
X19723963Y-12158831D02*
X19733487Y-12149308D01*
X19733487Y-12149308D02*
X19752534Y-12139784D01*
X19904915Y-12320736D02*
X19914439Y-12330260D01*
X19914439Y-12330260D02*
X19904915Y-12339784D01*
X19904915Y-12339784D02*
X19895391Y-12330260D01*
X19895391Y-12330260D02*
X19904915Y-12320736D01*
X19904915Y-12320736D02*
X19904915Y-12339784D01*
X20038248Y-12139784D02*
X20057296Y-12139784D01*
X20057296Y-12139784D02*
X20076344Y-12149308D01*
X20076344Y-12149308D02*
X20085868Y-12158831D01*
X20085868Y-12158831D02*
X20095391Y-12177879D01*
X20095391Y-12177879D02*
X20104915Y-12215974D01*
X20104915Y-12215974D02*
X20104915Y-12263593D01*
X20104915Y-12263593D02*
X20095391Y-12301688D01*
X20095391Y-12301688D02*
X20085868Y-12320736D01*
X20085868Y-12320736D02*
X20076344Y-12330260D01*
X20076344Y-12330260D02*
X20057296Y-12339784D01*
X20057296Y-12339784D02*
X20038248Y-12339784D01*
X20038248Y-12339784D02*
X20019201Y-12330260D01*
X20019201Y-12330260D02*
X20009677Y-12320736D01*
X20009677Y-12320736D02*
X20000153Y-12301688D01*
X20000153Y-12301688D02*
X19990629Y-12263593D01*
X19990629Y-12263593D02*
X19990629Y-12215974D01*
X19990629Y-12215974D02*
X20000153Y-12177879D01*
X20000153Y-12177879D02*
X20009677Y-12158831D01*
X20009677Y-12158831D02*
X20019201Y-12149308D01*
X20019201Y-12149308D02*
X20038248Y-12139784D01*
X20285868Y-12139784D02*
X20190629Y-12139784D01*
X20190629Y-12139784D02*
X20181106Y-12235022D01*
X20181106Y-12235022D02*
X20190629Y-12225498D01*
X20190629Y-12225498D02*
X20209677Y-12215974D01*
X20209677Y-12215974D02*
X20257296Y-12215974D01*
X20257296Y-12215974D02*
X20276344Y-12225498D01*
X20276344Y-12225498D02*
X20285868Y-12235022D01*
X20285868Y-12235022D02*
X20295391Y-12254069D01*
X20295391Y-12254069D02*
X20295391Y-12301688D01*
X20295391Y-12301688D02*
X20285868Y-12320736D01*
X20285868Y-12320736D02*
X20276344Y-12330260D01*
X20276344Y-12330260D02*
X20257296Y-12339784D01*
X20257296Y-12339784D02*
X20209677Y-12339784D01*
X20209677Y-12339784D02*
X20190629Y-12330260D01*
X20190629Y-12330260D02*
X20181106Y-12320736D01*
X20476344Y-12139784D02*
X20381106Y-12139784D01*
X20381106Y-12139784D02*
X20371582Y-12235022D01*
X20371582Y-12235022D02*
X20381106Y-12225498D01*
X20381106Y-12225498D02*
X20400153Y-12215974D01*
X20400153Y-12215974D02*
X20447772Y-12215974D01*
X20447772Y-12215974D02*
X20466820Y-12225498D01*
X20466820Y-12225498D02*
X20476344Y-12235022D01*
X20476344Y-12235022D02*
X20485868Y-12254069D01*
X20485868Y-12254069D02*
X20485868Y-12301688D01*
X20485868Y-12301688D02*
X20476344Y-12320736D01*
X20476344Y-12320736D02*
X20466820Y-12330260D01*
X20466820Y-12330260D02*
X20447772Y-12339784D01*
X20447772Y-12339784D02*
X20400153Y-12339784D01*
X20400153Y-12339784D02*
X20381106Y-12330260D01*
X20381106Y-12330260D02*
X20371582Y-12320736D01*
X20676344Y-12339784D02*
X20562058Y-12339784D01*
X20619201Y-12339784D02*
X20619201Y-12139784D01*
X20619201Y-12139784D02*
X20600153Y-12168355D01*
X20600153Y-12168355D02*
X20581106Y-12187403D01*
X20581106Y-12187403D02*
X20562058Y-12196927D01*
X20752534Y-12139784D02*
X20752534Y-12177879D01*
X20828725Y-12139784D02*
X20828725Y-12177879D01*
X21123963Y-12415974D02*
X21114439Y-12406450D01*
X21114439Y-12406450D02*
X21095391Y-12377879D01*
X21095391Y-12377879D02*
X21085868Y-12358831D01*
X21085868Y-12358831D02*
X21076344Y-12330260D01*
X21076344Y-12330260D02*
X21066820Y-12282641D01*
X21066820Y-12282641D02*
X21066820Y-12244546D01*
X21066820Y-12244546D02*
X21076344Y-12196927D01*
X21076344Y-12196927D02*
X21085868Y-12168355D01*
X21085868Y-12168355D02*
X21095391Y-12149308D01*
X21095391Y-12149308D02*
X21114439Y-12120736D01*
X21114439Y-12120736D02*
X21123963Y-12111212D01*
X21190630Y-12158831D02*
X21200153Y-12149308D01*
X21200153Y-12149308D02*
X21219201Y-12139784D01*
X21219201Y-12139784D02*
X21266820Y-12139784D01*
X21266820Y-12139784D02*
X21285868Y-12149308D01*
X21285868Y-12149308D02*
X21295391Y-12158831D01*
X21295391Y-12158831D02*
X21304915Y-12177879D01*
X21304915Y-12177879D02*
X21304915Y-12196927D01*
X21304915Y-12196927D02*
X21295391Y-12225498D01*
X21295391Y-12225498D02*
X21181106Y-12339784D01*
X21181106Y-12339784D02*
X21304915Y-12339784D01*
X21381106Y-12158831D02*
X21390630Y-12149308D01*
X21390630Y-12149308D02*
X21409677Y-12139784D01*
X21409677Y-12139784D02*
X21457296Y-12139784D01*
X21457296Y-12139784D02*
X21476344Y-12149308D01*
X21476344Y-12149308D02*
X21485868Y-12158831D01*
X21485868Y-12158831D02*
X21495391Y-12177879D01*
X21495391Y-12177879D02*
X21495391Y-12196927D01*
X21495391Y-12196927D02*
X21485868Y-12225498D01*
X21485868Y-12225498D02*
X21371582Y-12339784D01*
X21371582Y-12339784D02*
X21495391Y-12339784D01*
X21733487Y-12339784D02*
X21733487Y-12139784D01*
X21819201Y-12339784D02*
X21819201Y-12235022D01*
X21819201Y-12235022D02*
X21809677Y-12215974D01*
X21809677Y-12215974D02*
X21790630Y-12206450D01*
X21790630Y-12206450D02*
X21762058Y-12206450D01*
X21762058Y-12206450D02*
X21743011Y-12215974D01*
X21743011Y-12215974D02*
X21733487Y-12225498D01*
X21943011Y-12339784D02*
X21923963Y-12330260D01*
X21923963Y-12330260D02*
X21914439Y-12320736D01*
X21914439Y-12320736D02*
X21904915Y-12301688D01*
X21904915Y-12301688D02*
X21904915Y-12244546D01*
X21904915Y-12244546D02*
X21914439Y-12225498D01*
X21914439Y-12225498D02*
X21923963Y-12215974D01*
X21923963Y-12215974D02*
X21943011Y-12206450D01*
X21943011Y-12206450D02*
X21971582Y-12206450D01*
X21971582Y-12206450D02*
X21990630Y-12215974D01*
X21990630Y-12215974D02*
X22000153Y-12225498D01*
X22000153Y-12225498D02*
X22009677Y-12244546D01*
X22009677Y-12244546D02*
X22009677Y-12301688D01*
X22009677Y-12301688D02*
X22000153Y-12320736D01*
X22000153Y-12320736D02*
X21990630Y-12330260D01*
X21990630Y-12330260D02*
X21971582Y-12339784D01*
X21971582Y-12339784D02*
X21943011Y-12339784D01*
X22123963Y-12339784D02*
X22104915Y-12330260D01*
X22104915Y-12330260D02*
X22095392Y-12311212D01*
X22095392Y-12311212D02*
X22095392Y-12139784D01*
X22276344Y-12330260D02*
X22257296Y-12339784D01*
X22257296Y-12339784D02*
X22219201Y-12339784D01*
X22219201Y-12339784D02*
X22200153Y-12330260D01*
X22200153Y-12330260D02*
X22190630Y-12311212D01*
X22190630Y-12311212D02*
X22190630Y-12235022D01*
X22190630Y-12235022D02*
X22200153Y-12215974D01*
X22200153Y-12215974D02*
X22219201Y-12206450D01*
X22219201Y-12206450D02*
X22257296Y-12206450D01*
X22257296Y-12206450D02*
X22276344Y-12215974D01*
X22276344Y-12215974D02*
X22285868Y-12235022D01*
X22285868Y-12235022D02*
X22285868Y-12254069D01*
X22285868Y-12254069D02*
X22190630Y-12273117D01*
X22362058Y-12330260D02*
X22381106Y-12339784D01*
X22381106Y-12339784D02*
X22419201Y-12339784D01*
X22419201Y-12339784D02*
X22438249Y-12330260D01*
X22438249Y-12330260D02*
X22447772Y-12311212D01*
X22447772Y-12311212D02*
X22447772Y-12301688D01*
X22447772Y-12301688D02*
X22438249Y-12282641D01*
X22438249Y-12282641D02*
X22419201Y-12273117D01*
X22419201Y-12273117D02*
X22390630Y-12273117D01*
X22390630Y-12273117D02*
X22371582Y-12263593D01*
X22371582Y-12263593D02*
X22362058Y-12244546D01*
X22362058Y-12244546D02*
X22362058Y-12235022D01*
X22362058Y-12235022D02*
X22371582Y-12215974D01*
X22371582Y-12215974D02*
X22390630Y-12206450D01*
X22390630Y-12206450D02*
X22419201Y-12206450D01*
X22419201Y-12206450D02*
X22438249Y-12215974D01*
X22514439Y-12415974D02*
X22523963Y-12406450D01*
X22523963Y-12406450D02*
X22543011Y-12377879D01*
X22543011Y-12377879D02*
X22552534Y-12358831D01*
X22552534Y-12358831D02*
X22562058Y-12330260D01*
X22562058Y-12330260D02*
X22571582Y-12282641D01*
X22571582Y-12282641D02*
X22571582Y-12244546D01*
X22571582Y-12244546D02*
X22562058Y-12196927D01*
X22562058Y-12196927D02*
X22552534Y-12168355D01*
X22552534Y-12168355D02*
X22543011Y-12149308D01*
X22543011Y-12149308D02*
X22523963Y-12120736D01*
X22523963Y-12120736D02*
X22514439Y-12111212D01*
M02*
