G04 #@! TF.GenerationSoftware,KiCad,Pcbnew,9.0.0*
G04 #@! TF.CreationDate,2025-03-05T08:43:44-06:00*
G04 #@! TF.ProjectId,PCB,5043422e-6b69-4636-9164-5f7063625858,rev?*
G04 #@! TF.SameCoordinates,Original*
G04 #@! TF.FileFunction,Paste,Top*
G04 #@! TF.FilePolarity,Positive*
%FSLAX46Y46*%
G04 Gerber Fmt 4.6, Leading zero omitted, Abs format (unit mm)*
G04 Created by KiCad (PCBNEW 9.0.0) date 2025-03-05 08:43:44*
%MOMM*%
%LPD*%
G01*
G04 APERTURE LIST*
G04 Aperture macros list*
%AMRoundRect*
0 Rectangle with rounded corners*
0 $1 Rounding radius*
0 $2 $3 $4 $5 $6 $7 $8 $9 X,Y pos of 4 corners*
0 Add a 4 corners polygon primitive as box body*
4,1,4,$2,$3,$4,$5,$6,$7,$8,$9,$2,$3,0*
0 Add four circle primitives for the rounded corners*
1,1,$1+$1,$2,$3*
1,1,$1+$1,$4,$5*
1,1,$1+$1,$6,$7*
1,1,$1+$1,$8,$9*
0 Add four rect primitives between the rounded corners*
20,1,$1+$1,$2,$3,$4,$5,0*
20,1,$1+$1,$4,$5,$6,$7,0*
20,1,$1+$1,$6,$7,$8,$9,0*
20,1,$1+$1,$8,$9,$2,$3,0*%
G04 Aperture macros list end*
%ADD10C,0.010000*%
%ADD11RoundRect,0.250000X-0.650000X1.000000X-0.650000X-1.000000X0.650000X-1.000000X0.650000X1.000000X0*%
%ADD12RoundRect,0.237500X0.300000X0.237500X-0.300000X0.237500X-0.300000X-0.237500X0.300000X-0.237500X0*%
%ADD13RoundRect,0.237500X0.237500X-0.250000X0.237500X0.250000X-0.237500X0.250000X-0.237500X-0.250000X0*%
%ADD14RoundRect,0.015000X-0.285000X0.760000X-0.285000X-0.760000X0.285000X-0.760000X0.285000X0.760000X0*%
%ADD15RoundRect,0.150000X-0.587500X-0.150000X0.587500X-0.150000X0.587500X0.150000X-0.587500X0.150000X0*%
%ADD16R,3.100000X2.400000*%
%ADD17R,0.500000X2.200000*%
%ADD18RoundRect,0.250000X0.325000X1.100000X-0.325000X1.100000X-0.325000X-1.100000X0.325000X-1.100000X0*%
%ADD19RoundRect,0.237500X0.250000X0.237500X-0.250000X0.237500X-0.250000X-0.237500X0.250000X-0.237500X0*%
%ADD20RoundRect,0.237500X0.237500X-0.300000X0.237500X0.300000X-0.237500X0.300000X-0.237500X-0.300000X0*%
%ADD21RoundRect,0.237500X-0.237500X0.300000X-0.237500X-0.300000X0.237500X-0.300000X0.237500X0.300000X0*%
%ADD22RoundRect,0.237500X-0.300000X-0.237500X0.300000X-0.237500X0.300000X0.237500X-0.300000X0.237500X0*%
%ADD23RoundRect,0.250000X1.500000X1.000000X-1.500000X1.000000X-1.500000X-1.000000X1.500000X-1.000000X0*%
%ADD24RoundRect,0.237500X-0.237500X0.250000X-0.237500X-0.250000X0.237500X-0.250000X0.237500X0.250000X0*%
%ADD25RoundRect,0.155000X0.155000X-0.212500X0.155000X0.212500X-0.155000X0.212500X-0.155000X-0.212500X0*%
%ADD26RoundRect,0.155000X-0.155000X0.212500X-0.155000X-0.212500X0.155000X-0.212500X0.155000X0.212500X0*%
%ADD27RoundRect,0.250000X0.650000X-1.000000X0.650000X1.000000X-0.650000X1.000000X-0.650000X-1.000000X0*%
%ADD28R,1.500000X0.900000*%
%ADD29R,0.900000X1.500000*%
%ADD30R,0.900000X0.900000*%
%ADD31RoundRect,0.250000X-0.450000X0.350000X-0.450000X-0.350000X0.450000X-0.350000X0.450000X0.350000X0*%
%ADD32RoundRect,0.250000X0.475000X-0.337500X0.475000X0.337500X-0.475000X0.337500X-0.475000X-0.337500X0*%
%ADD33RoundRect,0.150000X-0.150000X0.512500X-0.150000X-0.512500X0.150000X-0.512500X0.150000X0.512500X0*%
%ADD34RoundRect,0.375000X-0.375000X0.625000X-0.375000X-0.625000X0.375000X-0.625000X0.375000X0.625000X0*%
%ADD35RoundRect,0.500000X-1.400000X0.500000X-1.400000X-0.500000X1.400000X-0.500000X1.400000X0.500000X0*%
%ADD36RoundRect,0.087500X-0.087500X0.537500X-0.087500X-0.537500X0.087500X-0.537500X0.087500X0.537500X0*%
%ADD37RoundRect,0.250000X-0.412500X-0.650000X0.412500X-0.650000X0.412500X0.650000X-0.412500X0.650000X0*%
%ADD38RoundRect,0.250000X-0.925000X-1.500000X0.925000X-1.500000X0.925000X1.500000X-0.925000X1.500000X0*%
%ADD39RoundRect,0.100000X-0.637500X-0.100000X0.637500X-0.100000X0.637500X0.100000X-0.637500X0.100000X0*%
G04 APERTURE END LIST*
D10*
X184662000Y-54045000D02*
X181262000Y-54045000D01*
X181262000Y-51335000D01*
X184662000Y-51335000D01*
X184662000Y-54045000D01*
G36*
X184662000Y-54045000D02*
G01*
X181262000Y-54045000D01*
X181262000Y-51335000D01*
X184662000Y-51335000D01*
X184662000Y-54045000D01*
G37*
D11*
X260634000Y-41715000D03*
X260634000Y-45715000D03*
D12*
X182764319Y-59110988D03*
X181039319Y-59110988D03*
D13*
X251490000Y-65051000D03*
X251490000Y-63226000D03*
D14*
X184867000Y-49990000D03*
X183597000Y-49990000D03*
X182327000Y-49990000D03*
X181057000Y-49990000D03*
X181057000Y-55390000D03*
X182327000Y-55390000D03*
X183597000Y-55390000D03*
X184867000Y-55390000D03*
D15*
X255300000Y-72673500D03*
X255300000Y-74573500D03*
X257175000Y-73623500D03*
D16*
X244124000Y-52412290D03*
D17*
X242219000Y-55287290D03*
X243489000Y-55287290D03*
X244759000Y-55287290D03*
X246029000Y-55287290D03*
X246029000Y-49537290D03*
X244759000Y-49537290D03*
X243489000Y-49537290D03*
X242219000Y-49537290D03*
D11*
X260634000Y-61019000D03*
X260634000Y-65019000D03*
D18*
X193753000Y-56612000D03*
X190803000Y-56612000D03*
D19*
X243459674Y-83007482D03*
X241634674Y-83007482D03*
D15*
X255300000Y-63122500D03*
X255300000Y-65022500D03*
X257175000Y-64072500D03*
D20*
X188751309Y-87610500D03*
X188751309Y-85885500D03*
X201690000Y-43940500D03*
X201690000Y-42215500D03*
D21*
X182323352Y-75665519D03*
X182323352Y-77390519D03*
D20*
X195967901Y-86041132D03*
X195967901Y-84316132D03*
D22*
X181039319Y-57433321D03*
X182764319Y-57433321D03*
D23*
X247374000Y-42902290D03*
X240874000Y-42902290D03*
D13*
X251490000Y-84254000D03*
X251490000Y-82429000D03*
D12*
X182770010Y-71026349D03*
X181045010Y-71026349D03*
D21*
X190739099Y-90622868D03*
X190739099Y-92347868D03*
D18*
X193753000Y-52802000D03*
X190803000Y-52802000D03*
D24*
X253268000Y-82429000D03*
X253268000Y-84254000D03*
X253268000Y-53574000D03*
X253268000Y-55399000D03*
D21*
X220726000Y-40084500D03*
X220726000Y-41809500D03*
D24*
X253268000Y-43922000D03*
X253268000Y-45747000D03*
D12*
X185320488Y-44727987D03*
X183595488Y-44727987D03*
D13*
X189095000Y-94168859D03*
X189095000Y-92343859D03*
D21*
X199251634Y-63238801D03*
X199251634Y-64963801D03*
D25*
X187317000Y-87608822D03*
X187317000Y-86473822D03*
D19*
X248481769Y-90550873D03*
X246656769Y-90550873D03*
D26*
X199390000Y-89055178D03*
X199390000Y-90190178D03*
D24*
X253268000Y-63226000D03*
X253268000Y-65051000D03*
D15*
X255300000Y-53470500D03*
X255300000Y-55370500D03*
X257175000Y-54420500D03*
X255300000Y-82325500D03*
X255300000Y-84225500D03*
X257175000Y-83275500D03*
D11*
X260634000Y-80222000D03*
X260634000Y-84222000D03*
D27*
X187706000Y-56834000D03*
X187706000Y-52834000D03*
D28*
X239724798Y-94204000D03*
X239724798Y-92934000D03*
X239724798Y-91664000D03*
X239724798Y-90394000D03*
X239724798Y-89124000D03*
X239724798Y-87854000D03*
X239724798Y-86584000D03*
X239724798Y-85314000D03*
X239724798Y-84044000D03*
X239724798Y-82774000D03*
X239724798Y-81504000D03*
X239724798Y-80234000D03*
X239724798Y-78964000D03*
X239724798Y-77694000D03*
D29*
X237959798Y-76444000D03*
X236689798Y-76444000D03*
X235419798Y-76444000D03*
X234149798Y-76444000D03*
X232879798Y-76444000D03*
X231609798Y-76444000D03*
X230339798Y-76444000D03*
X229069798Y-76444000D03*
X227799798Y-76444000D03*
X226529798Y-76444000D03*
X225259798Y-76444000D03*
X223989798Y-76444000D03*
D28*
X222224798Y-77694000D03*
X222224798Y-78964000D03*
X222224798Y-80234000D03*
X222224798Y-81504000D03*
X222224798Y-82774000D03*
X222224798Y-84044000D03*
X222224798Y-85314000D03*
X222224798Y-86584000D03*
X222224798Y-87854000D03*
X222224798Y-89124000D03*
X222224798Y-90394000D03*
X222224798Y-91664000D03*
X222224798Y-92934000D03*
X222224798Y-94204000D03*
D30*
X233874798Y-87884000D03*
X232474798Y-87884000D03*
X231074798Y-87884000D03*
X233874798Y-86484000D03*
X232474798Y-86484000D03*
X231074798Y-86484000D03*
X233874798Y-85084000D03*
X232474798Y-85084000D03*
X231074798Y-85084000D03*
D23*
X235689000Y-42902290D03*
X229189000Y-42902290D03*
D24*
X197612000Y-82495141D03*
X197612000Y-84320141D03*
D31*
X246048645Y-57831500D03*
X246048645Y-59831500D03*
D32*
X243713783Y-95018265D03*
X243713783Y-92943265D03*
D33*
X201158546Y-66839453D03*
X200208546Y-66839453D03*
X199258546Y-66839453D03*
X199258546Y-69114453D03*
X201158546Y-69114453D03*
D13*
X251490000Y-55399000D03*
X251490000Y-53574000D03*
D21*
X187413414Y-92393859D03*
X187413414Y-94118859D03*
D20*
X199293586Y-84270141D03*
X199293586Y-82545141D03*
D11*
X260634000Y-89874000D03*
X260634000Y-93874000D03*
D20*
X220726000Y-45466000D03*
X220726000Y-43741000D03*
D11*
X260634000Y-51367000D03*
X260634000Y-55367000D03*
D15*
X255300000Y-43818500D03*
X255300000Y-45718500D03*
X257175000Y-44768500D03*
D34*
X203976000Y-46380000D03*
X201676000Y-46380000D03*
D35*
X201676000Y-52680000D03*
D34*
X199376000Y-46380000D03*
D25*
X199261412Y-71855171D03*
X199261412Y-70720171D03*
D20*
X194519076Y-74899282D03*
X194519076Y-73174282D03*
D24*
X253268000Y-92081000D03*
X253268000Y-93906000D03*
D32*
X208794038Y-43770556D03*
X208794038Y-41695556D03*
D20*
X199404000Y-43940500D03*
X199404000Y-42215500D03*
D36*
X219202000Y-41301500D03*
X218702000Y-41301500D03*
X218202000Y-41301500D03*
X217702000Y-41301500D03*
X217702000Y-44101500D03*
X218202000Y-44101500D03*
X218702000Y-44101500D03*
X219202000Y-44101500D03*
D37*
X183603500Y-46960000D03*
X186728500Y-46960000D03*
D11*
X260634000Y-70570000D03*
X260634000Y-74570000D03*
D21*
X245024427Y-88799500D03*
X245024427Y-90524500D03*
D24*
X194525883Y-76546710D03*
X194525883Y-78371710D03*
D21*
X236219000Y-48897790D03*
X236219000Y-50622790D03*
D24*
X253268000Y-72777000D03*
X253268000Y-74602000D03*
D19*
X243482500Y-81280000D03*
X241657500Y-81280000D03*
D13*
X251490000Y-74602000D03*
X251490000Y-72777000D03*
D20*
X241742798Y-94652829D03*
X241742798Y-92927829D03*
D13*
X251490000Y-93906000D03*
X251490000Y-92081000D03*
D32*
X211102395Y-43725733D03*
X211102395Y-41650733D03*
D31*
X234363645Y-57831500D03*
X234363645Y-59831500D03*
D20*
X201168000Y-72744500D03*
X201168000Y-71019500D03*
D38*
X187729000Y-62413317D03*
X193779000Y-62413317D03*
D21*
X247904000Y-48897790D03*
X247904000Y-50622790D03*
D39*
X185107000Y-71030000D03*
X185107000Y-71680000D03*
X185107000Y-72330000D03*
X185107000Y-72980000D03*
X185107000Y-73630000D03*
X185107000Y-74280000D03*
X185107000Y-74930000D03*
X185107000Y-75580000D03*
X185107000Y-76230000D03*
X185107000Y-76880000D03*
X185107000Y-77530000D03*
X185107000Y-78180000D03*
X192532000Y-78180000D03*
X192532000Y-77530000D03*
X192532000Y-76880000D03*
X192532000Y-76230000D03*
X192532000Y-75580000D03*
X192532000Y-74930000D03*
X192532000Y-74280000D03*
X192532000Y-73630000D03*
X192532000Y-72980000D03*
X192532000Y-72330000D03*
X192532000Y-71680000D03*
X192532000Y-71030000D03*
D16*
X232439000Y-52412290D03*
D17*
X230534000Y-55287290D03*
X231804000Y-55287290D03*
X233074000Y-55287290D03*
X234344000Y-55287290D03*
X234344000Y-49537290D03*
X233074000Y-49537290D03*
X231804000Y-49537290D03*
X230534000Y-49537290D03*
D13*
X251490000Y-45747000D03*
X251490000Y-43922000D03*
D22*
X186843500Y-49754000D03*
X188568500Y-49754000D03*
D15*
X255300000Y-91977500D03*
X255300000Y-93877500D03*
X257175000Y-92927500D03*
D21*
X197955691Y-89053500D03*
X197955691Y-90778500D03*
D19*
X197936456Y-76542997D03*
X196111456Y-76542997D03*
D34*
X213388000Y-46482000D03*
X211088000Y-46482000D03*
D35*
X211088000Y-52782000D03*
D34*
X208788000Y-46482000D03*
D12*
X181015475Y-48053842D03*
X179290475Y-48053842D03*
M02*
