G04 #@! TF.GenerationSoftware,KiCad,Pcbnew,9.0.0*
G04 #@! TF.CreationDate,2025-03-04T12:56:27-06:00*
G04 #@! TF.ProjectId,PCB,5043422e-6b69-4636-9164-5f7063625858,rev?*
G04 #@! TF.SameCoordinates,Original*
G04 #@! TF.FileFunction,Paste,Top*
G04 #@! TF.FilePolarity,Positive*
%FSLAX46Y46*%
G04 Gerber Fmt 4.6, Leading zero omitted, Abs format (unit mm)*
G04 Created by KiCad (PCBNEW 9.0.0) date 2025-03-04 12:56:27*
%MOMM*%
%LPD*%
G01*
G04 APERTURE LIST*
G04 Aperture macros list*
%AMRoundRect*
0 Rectangle with rounded corners*
0 $1 Rounding radius*
0 $2 $3 $4 $5 $6 $7 $8 $9 X,Y pos of 4 corners*
0 Add a 4 corners polygon primitive as box body*
4,1,4,$2,$3,$4,$5,$6,$7,$8,$9,$2,$3,0*
0 Add four circle primitives for the rounded corners*
1,1,$1+$1,$2,$3*
1,1,$1+$1,$4,$5*
1,1,$1+$1,$6,$7*
1,1,$1+$1,$8,$9*
0 Add four rect primitives between the rounded corners*
20,1,$1+$1,$2,$3,$4,$5,0*
20,1,$1+$1,$4,$5,$6,$7,0*
20,1,$1+$1,$6,$7,$8,$9,0*
20,1,$1+$1,$8,$9,$2,$3,0*%
G04 Aperture macros list end*
%ADD10C,0.010000*%
%ADD11RoundRect,0.150000X-0.150000X0.587500X-0.150000X-0.587500X0.150000X-0.587500X0.150000X0.587500X0*%
%ADD12RoundRect,0.250000X1.000000X-1.500000X1.000000X1.500000X-1.000000X1.500000X-1.000000X-1.500000X0*%
%ADD13RoundRect,0.237500X-0.300000X-0.237500X0.300000X-0.237500X0.300000X0.237500X-0.300000X0.237500X0*%
%ADD14RoundRect,0.250000X0.412500X0.650000X-0.412500X0.650000X-0.412500X-0.650000X0.412500X-0.650000X0*%
%ADD15RoundRect,0.237500X-0.237500X0.250000X-0.237500X-0.250000X0.237500X-0.250000X0.237500X0.250000X0*%
%ADD16RoundRect,0.051250X-0.153750X0.733750X-0.153750X-0.733750X0.153750X-0.733750X0.153750X0.733750X0*%
%ADD17RoundRect,0.237500X-0.250000X-0.237500X0.250000X-0.237500X0.250000X0.237500X-0.250000X0.237500X0*%
%ADD18RoundRect,0.237500X0.250000X0.237500X-0.250000X0.237500X-0.250000X-0.237500X0.250000X-0.237500X0*%
%ADD19RoundRect,0.237500X-0.237500X0.300000X-0.237500X-0.300000X0.237500X-0.300000X0.237500X0.300000X0*%
%ADD20RoundRect,0.375000X0.625000X0.375000X-0.625000X0.375000X-0.625000X-0.375000X0.625000X-0.375000X0*%
%ADD21RoundRect,0.500000X0.500000X1.400000X-0.500000X1.400000X-0.500000X-1.400000X0.500000X-1.400000X0*%
%ADD22RoundRect,0.250000X0.650000X-0.412500X0.650000X0.412500X-0.650000X0.412500X-0.650000X-0.412500X0*%
%ADD23RoundRect,0.237500X0.237500X-0.300000X0.237500X0.300000X-0.237500X0.300000X-0.237500X-0.300000X0*%
%ADD24R,2.400000X3.100000*%
%ADD25R,2.200000X0.500000*%
%ADD26R,2.600000X3.600000*%
%ADD27RoundRect,0.250000X-0.300000X-0.300000X0.300000X-0.300000X0.300000X0.300000X-0.300000X0.300000X0*%
%ADD28RoundRect,0.250000X-0.475000X0.337500X-0.475000X-0.337500X0.475000X-0.337500X0.475000X0.337500X0*%
%ADD29RoundRect,0.237500X0.300000X0.237500X-0.300000X0.237500X-0.300000X-0.237500X0.300000X-0.237500X0*%
%ADD30RoundRect,0.237500X0.237500X-0.287500X0.237500X0.287500X-0.237500X0.287500X-0.237500X-0.287500X0*%
%ADD31RoundRect,0.155000X-0.155000X0.212500X-0.155000X-0.212500X0.155000X-0.212500X0.155000X0.212500X0*%
%ADD32RoundRect,0.050000X-0.350000X-0.075000X0.350000X-0.075000X0.350000X0.075000X-0.350000X0.075000X0*%
%ADD33RoundRect,0.049500X-0.100500X-0.225500X0.100500X-0.225500X0.100500X0.225500X-0.100500X0.225500X0*%
%ADD34RoundRect,0.237500X0.237500X-0.250000X0.237500X0.250000X-0.237500X0.250000X-0.237500X-0.250000X0*%
%ADD35RoundRect,0.250000X0.475000X-0.337500X0.475000X0.337500X-0.475000X0.337500X-0.475000X-0.337500X0*%
%ADD36RoundRect,0.087500X0.537500X0.087500X-0.537500X0.087500X-0.537500X-0.087500X0.537500X-0.087500X0*%
%ADD37RoundRect,0.250000X-0.400000X-0.625000X0.400000X-0.625000X0.400000X0.625000X-0.400000X0.625000X0*%
%ADD38RoundRect,0.150000X-0.512500X-0.150000X0.512500X-0.150000X0.512500X0.150000X-0.512500X0.150000X0*%
%ADD39RoundRect,0.150000X-0.825000X-0.150000X0.825000X-0.150000X0.825000X0.150000X-0.825000X0.150000X0*%
%ADD40RoundRect,0.375000X-0.625000X-0.375000X0.625000X-0.375000X0.625000X0.375000X-0.625000X0.375000X0*%
%ADD41RoundRect,0.500000X-0.500000X-1.400000X0.500000X-1.400000X0.500000X1.400000X-0.500000X1.400000X0*%
%ADD42R,1.700000X0.600000*%
%ADD43R,2.800000X2.500000*%
%ADD44R,1.550000X1.000000*%
%ADD45R,1.500000X0.900000*%
%ADD46R,0.900000X1.500000*%
%ADD47R,0.900000X0.900000*%
G04 APERTURE END LIST*
D10*
X169246000Y-94775000D02*
X169248000Y-94775000D01*
X169251000Y-94776000D01*
X169253000Y-94776000D01*
X169256000Y-94777000D01*
X169258000Y-94778000D01*
X169261000Y-94779000D01*
X169263000Y-94781000D01*
X169265000Y-94782000D01*
X169267000Y-94784000D01*
X169269000Y-94785000D01*
X169271000Y-94787000D01*
X169273000Y-94789000D01*
X169275000Y-94791000D01*
X169277000Y-94793000D01*
X169278000Y-94795000D01*
X169280000Y-94797000D01*
X169281000Y-94799000D01*
X169283000Y-94801000D01*
X169284000Y-94804000D01*
X169285000Y-94806000D01*
X169286000Y-94809000D01*
X169286000Y-94811000D01*
X169287000Y-94814000D01*
X169287000Y-94816000D01*
X169288000Y-94819000D01*
X169288000Y-94821000D01*
X169288000Y-94824000D01*
X169288000Y-94974000D01*
X169288000Y-94977000D01*
X169288000Y-94979000D01*
X169287000Y-94982000D01*
X169287000Y-94984000D01*
X169286000Y-94987000D01*
X169286000Y-94989000D01*
X169285000Y-94992000D01*
X169284000Y-94994000D01*
X169283000Y-94997000D01*
X169281000Y-94999000D01*
X169280000Y-95001000D01*
X169278000Y-95003000D01*
X169277000Y-95005000D01*
X169275000Y-95007000D01*
X169273000Y-95009000D01*
X169271000Y-95011000D01*
X169269000Y-95013000D01*
X169267000Y-95014000D01*
X169265000Y-95016000D01*
X169263000Y-95017000D01*
X169261000Y-95019000D01*
X169258000Y-95020000D01*
X169256000Y-95021000D01*
X169253000Y-95022000D01*
X169251000Y-95022000D01*
X169248000Y-95023000D01*
X169246000Y-95023000D01*
X169243000Y-95024000D01*
X169241000Y-95024000D01*
X169238000Y-95024000D01*
X168888000Y-95024000D01*
X168885000Y-95024000D01*
X168883000Y-95024000D01*
X168880000Y-95023000D01*
X168878000Y-95023000D01*
X168875000Y-95022000D01*
X168873000Y-95022000D01*
X168870000Y-95021000D01*
X168868000Y-95020000D01*
X168865000Y-95019000D01*
X168863000Y-95017000D01*
X168861000Y-95016000D01*
X168859000Y-95014000D01*
X168857000Y-95013000D01*
X168855000Y-95011000D01*
X168853000Y-95009000D01*
X168851000Y-95007000D01*
X168849000Y-95005000D01*
X168848000Y-95003000D01*
X168846000Y-95001000D01*
X168845000Y-94999000D01*
X168843000Y-94997000D01*
X168842000Y-94994000D01*
X168841000Y-94992000D01*
X168840000Y-94989000D01*
X168840000Y-94987000D01*
X168839000Y-94984000D01*
X168839000Y-94982000D01*
X168838000Y-94979000D01*
X168838000Y-94977000D01*
X168838000Y-94974000D01*
X168838000Y-94824000D01*
X168838000Y-94821000D01*
X168838000Y-94819000D01*
X168839000Y-94816000D01*
X168839000Y-94814000D01*
X168840000Y-94811000D01*
X168840000Y-94809000D01*
X168841000Y-94806000D01*
X168842000Y-94804000D01*
X168843000Y-94801000D01*
X168845000Y-94799000D01*
X168846000Y-94797000D01*
X168848000Y-94795000D01*
X168849000Y-94793000D01*
X168851000Y-94791000D01*
X168853000Y-94789000D01*
X168855000Y-94787000D01*
X168857000Y-94785000D01*
X168859000Y-94784000D01*
X168861000Y-94782000D01*
X168863000Y-94781000D01*
X168865000Y-94779000D01*
X168868000Y-94778000D01*
X168870000Y-94777000D01*
X168873000Y-94776000D01*
X168875000Y-94776000D01*
X168878000Y-94775000D01*
X168880000Y-94775000D01*
X168883000Y-94774000D01*
X168885000Y-94774000D01*
X168888000Y-94774000D01*
X169238000Y-94774000D01*
X169241000Y-94774000D01*
X169243000Y-94774000D01*
X169246000Y-94775000D01*
G36*
X169246000Y-94775000D02*
G01*
X169248000Y-94775000D01*
X169251000Y-94776000D01*
X169253000Y-94776000D01*
X169256000Y-94777000D01*
X169258000Y-94778000D01*
X169261000Y-94779000D01*
X169263000Y-94781000D01*
X169265000Y-94782000D01*
X169267000Y-94784000D01*
X169269000Y-94785000D01*
X169271000Y-94787000D01*
X169273000Y-94789000D01*
X169275000Y-94791000D01*
X169277000Y-94793000D01*
X169278000Y-94795000D01*
X169280000Y-94797000D01*
X169281000Y-94799000D01*
X169283000Y-94801000D01*
X169284000Y-94804000D01*
X169285000Y-94806000D01*
X169286000Y-94809000D01*
X169286000Y-94811000D01*
X169287000Y-94814000D01*
X169287000Y-94816000D01*
X169288000Y-94819000D01*
X169288000Y-94821000D01*
X169288000Y-94824000D01*
X169288000Y-94974000D01*
X169288000Y-94977000D01*
X169288000Y-94979000D01*
X169287000Y-94982000D01*
X169287000Y-94984000D01*
X169286000Y-94987000D01*
X169286000Y-94989000D01*
X169285000Y-94992000D01*
X169284000Y-94994000D01*
X169283000Y-94997000D01*
X169281000Y-94999000D01*
X169280000Y-95001000D01*
X169278000Y-95003000D01*
X169277000Y-95005000D01*
X169275000Y-95007000D01*
X169273000Y-95009000D01*
X169271000Y-95011000D01*
X169269000Y-95013000D01*
X169267000Y-95014000D01*
X169265000Y-95016000D01*
X169263000Y-95017000D01*
X169261000Y-95019000D01*
X169258000Y-95020000D01*
X169256000Y-95021000D01*
X169253000Y-95022000D01*
X169251000Y-95022000D01*
X169248000Y-95023000D01*
X169246000Y-95023000D01*
X169243000Y-95024000D01*
X169241000Y-95024000D01*
X169238000Y-95024000D01*
X168888000Y-95024000D01*
X168885000Y-95024000D01*
X168883000Y-95024000D01*
X168880000Y-95023000D01*
X168878000Y-95023000D01*
X168875000Y-95022000D01*
X168873000Y-95022000D01*
X168870000Y-95021000D01*
X168868000Y-95020000D01*
X168865000Y-95019000D01*
X168863000Y-95017000D01*
X168861000Y-95016000D01*
X168859000Y-95014000D01*
X168857000Y-95013000D01*
X168855000Y-95011000D01*
X168853000Y-95009000D01*
X168851000Y-95007000D01*
X168849000Y-95005000D01*
X168848000Y-95003000D01*
X168846000Y-95001000D01*
X168845000Y-94999000D01*
X168843000Y-94997000D01*
X168842000Y-94994000D01*
X168841000Y-94992000D01*
X168840000Y-94989000D01*
X168840000Y-94987000D01*
X168839000Y-94984000D01*
X168839000Y-94982000D01*
X168838000Y-94979000D01*
X168838000Y-94977000D01*
X168838000Y-94974000D01*
X168838000Y-94824000D01*
X168838000Y-94821000D01*
X168838000Y-94819000D01*
X168839000Y-94816000D01*
X168839000Y-94814000D01*
X168840000Y-94811000D01*
X168840000Y-94809000D01*
X168841000Y-94806000D01*
X168842000Y-94804000D01*
X168843000Y-94801000D01*
X168845000Y-94799000D01*
X168846000Y-94797000D01*
X168848000Y-94795000D01*
X168849000Y-94793000D01*
X168851000Y-94791000D01*
X168853000Y-94789000D01*
X168855000Y-94787000D01*
X168857000Y-94785000D01*
X168859000Y-94784000D01*
X168861000Y-94782000D01*
X168863000Y-94781000D01*
X168865000Y-94779000D01*
X168868000Y-94778000D01*
X168870000Y-94777000D01*
X168873000Y-94776000D01*
X168875000Y-94776000D01*
X168878000Y-94775000D01*
X168880000Y-94775000D01*
X168883000Y-94774000D01*
X168885000Y-94774000D01*
X168888000Y-94774000D01*
X169238000Y-94774000D01*
X169241000Y-94774000D01*
X169243000Y-94774000D01*
X169246000Y-94775000D01*
G37*
X169246000Y-95275000D02*
X169248000Y-95275000D01*
X169251000Y-95276000D01*
X169253000Y-95276000D01*
X169256000Y-95277000D01*
X169258000Y-95278000D01*
X169261000Y-95279000D01*
X169263000Y-95281000D01*
X169265000Y-95282000D01*
X169267000Y-95284000D01*
X169269000Y-95285000D01*
X169271000Y-95287000D01*
X169273000Y-95289000D01*
X169275000Y-95291000D01*
X169277000Y-95293000D01*
X169278000Y-95295000D01*
X169280000Y-95297000D01*
X169281000Y-95299000D01*
X169283000Y-95301000D01*
X169284000Y-95304000D01*
X169285000Y-95306000D01*
X169286000Y-95309000D01*
X169286000Y-95311000D01*
X169287000Y-95314000D01*
X169287000Y-95316000D01*
X169288000Y-95319000D01*
X169288000Y-95321000D01*
X169288000Y-95324000D01*
X169288000Y-95474000D01*
X169288000Y-95477000D01*
X169288000Y-95479000D01*
X169287000Y-95482000D01*
X169287000Y-95484000D01*
X169286000Y-95487000D01*
X169286000Y-95489000D01*
X169285000Y-95492000D01*
X169284000Y-95494000D01*
X169283000Y-95497000D01*
X169281000Y-95499000D01*
X169280000Y-95501000D01*
X169278000Y-95503000D01*
X169277000Y-95505000D01*
X169275000Y-95507000D01*
X169273000Y-95509000D01*
X169271000Y-95511000D01*
X169269000Y-95513000D01*
X169267000Y-95514000D01*
X169265000Y-95516000D01*
X169263000Y-95517000D01*
X169261000Y-95519000D01*
X169258000Y-95520000D01*
X169256000Y-95521000D01*
X169253000Y-95522000D01*
X169251000Y-95522000D01*
X169248000Y-95523000D01*
X169246000Y-95523000D01*
X169243000Y-95524000D01*
X169241000Y-95524000D01*
X169238000Y-95524000D01*
X168888000Y-95524000D01*
X168885000Y-95524000D01*
X168883000Y-95524000D01*
X168880000Y-95523000D01*
X168878000Y-95523000D01*
X168875000Y-95522000D01*
X168873000Y-95522000D01*
X168870000Y-95521000D01*
X168868000Y-95520000D01*
X168865000Y-95519000D01*
X168863000Y-95517000D01*
X168861000Y-95516000D01*
X168859000Y-95514000D01*
X168857000Y-95513000D01*
X168855000Y-95511000D01*
X168853000Y-95509000D01*
X168851000Y-95507000D01*
X168849000Y-95505000D01*
X168848000Y-95503000D01*
X168846000Y-95501000D01*
X168845000Y-95499000D01*
X168843000Y-95497000D01*
X168842000Y-95494000D01*
X168841000Y-95492000D01*
X168840000Y-95489000D01*
X168840000Y-95487000D01*
X168839000Y-95484000D01*
X168839000Y-95482000D01*
X168838000Y-95479000D01*
X168838000Y-95477000D01*
X168838000Y-95474000D01*
X168838000Y-95324000D01*
X168838000Y-95321000D01*
X168838000Y-95319000D01*
X168839000Y-95316000D01*
X168839000Y-95314000D01*
X168840000Y-95311000D01*
X168840000Y-95309000D01*
X168841000Y-95306000D01*
X168842000Y-95304000D01*
X168843000Y-95301000D01*
X168845000Y-95299000D01*
X168846000Y-95297000D01*
X168848000Y-95295000D01*
X168849000Y-95293000D01*
X168851000Y-95291000D01*
X168853000Y-95289000D01*
X168855000Y-95287000D01*
X168857000Y-95285000D01*
X168859000Y-95284000D01*
X168861000Y-95282000D01*
X168863000Y-95281000D01*
X168865000Y-95279000D01*
X168868000Y-95278000D01*
X168870000Y-95277000D01*
X168873000Y-95276000D01*
X168875000Y-95276000D01*
X168878000Y-95275000D01*
X168880000Y-95275000D01*
X168883000Y-95274000D01*
X168885000Y-95274000D01*
X168888000Y-95274000D01*
X169238000Y-95274000D01*
X169241000Y-95274000D01*
X169243000Y-95274000D01*
X169246000Y-95275000D01*
G36*
X169246000Y-95275000D02*
G01*
X169248000Y-95275000D01*
X169251000Y-95276000D01*
X169253000Y-95276000D01*
X169256000Y-95277000D01*
X169258000Y-95278000D01*
X169261000Y-95279000D01*
X169263000Y-95281000D01*
X169265000Y-95282000D01*
X169267000Y-95284000D01*
X169269000Y-95285000D01*
X169271000Y-95287000D01*
X169273000Y-95289000D01*
X169275000Y-95291000D01*
X169277000Y-95293000D01*
X169278000Y-95295000D01*
X169280000Y-95297000D01*
X169281000Y-95299000D01*
X169283000Y-95301000D01*
X169284000Y-95304000D01*
X169285000Y-95306000D01*
X169286000Y-95309000D01*
X169286000Y-95311000D01*
X169287000Y-95314000D01*
X169287000Y-95316000D01*
X169288000Y-95319000D01*
X169288000Y-95321000D01*
X169288000Y-95324000D01*
X169288000Y-95474000D01*
X169288000Y-95477000D01*
X169288000Y-95479000D01*
X169287000Y-95482000D01*
X169287000Y-95484000D01*
X169286000Y-95487000D01*
X169286000Y-95489000D01*
X169285000Y-95492000D01*
X169284000Y-95494000D01*
X169283000Y-95497000D01*
X169281000Y-95499000D01*
X169280000Y-95501000D01*
X169278000Y-95503000D01*
X169277000Y-95505000D01*
X169275000Y-95507000D01*
X169273000Y-95509000D01*
X169271000Y-95511000D01*
X169269000Y-95513000D01*
X169267000Y-95514000D01*
X169265000Y-95516000D01*
X169263000Y-95517000D01*
X169261000Y-95519000D01*
X169258000Y-95520000D01*
X169256000Y-95521000D01*
X169253000Y-95522000D01*
X169251000Y-95522000D01*
X169248000Y-95523000D01*
X169246000Y-95523000D01*
X169243000Y-95524000D01*
X169241000Y-95524000D01*
X169238000Y-95524000D01*
X168888000Y-95524000D01*
X168885000Y-95524000D01*
X168883000Y-95524000D01*
X168880000Y-95523000D01*
X168878000Y-95523000D01*
X168875000Y-95522000D01*
X168873000Y-95522000D01*
X168870000Y-95521000D01*
X168868000Y-95520000D01*
X168865000Y-95519000D01*
X168863000Y-95517000D01*
X168861000Y-95516000D01*
X168859000Y-95514000D01*
X168857000Y-95513000D01*
X168855000Y-95511000D01*
X168853000Y-95509000D01*
X168851000Y-95507000D01*
X168849000Y-95505000D01*
X168848000Y-95503000D01*
X168846000Y-95501000D01*
X168845000Y-95499000D01*
X168843000Y-95497000D01*
X168842000Y-95494000D01*
X168841000Y-95492000D01*
X168840000Y-95489000D01*
X168840000Y-95487000D01*
X168839000Y-95484000D01*
X168839000Y-95482000D01*
X168838000Y-95479000D01*
X168838000Y-95477000D01*
X168838000Y-95474000D01*
X168838000Y-95324000D01*
X168838000Y-95321000D01*
X168838000Y-95319000D01*
X168839000Y-95316000D01*
X168839000Y-95314000D01*
X168840000Y-95311000D01*
X168840000Y-95309000D01*
X168841000Y-95306000D01*
X168842000Y-95304000D01*
X168843000Y-95301000D01*
X168845000Y-95299000D01*
X168846000Y-95297000D01*
X168848000Y-95295000D01*
X168849000Y-95293000D01*
X168851000Y-95291000D01*
X168853000Y-95289000D01*
X168855000Y-95287000D01*
X168857000Y-95285000D01*
X168859000Y-95284000D01*
X168861000Y-95282000D01*
X168863000Y-95281000D01*
X168865000Y-95279000D01*
X168868000Y-95278000D01*
X168870000Y-95277000D01*
X168873000Y-95276000D01*
X168875000Y-95276000D01*
X168878000Y-95275000D01*
X168880000Y-95275000D01*
X168883000Y-95274000D01*
X168885000Y-95274000D01*
X168888000Y-95274000D01*
X169238000Y-95274000D01*
X169241000Y-95274000D01*
X169243000Y-95274000D01*
X169246000Y-95275000D01*
G37*
X169246000Y-95775000D02*
X169248000Y-95775000D01*
X169251000Y-95776000D01*
X169253000Y-95776000D01*
X169256000Y-95777000D01*
X169258000Y-95778000D01*
X169261000Y-95779000D01*
X169263000Y-95781000D01*
X169265000Y-95782000D01*
X169267000Y-95784000D01*
X169269000Y-95785000D01*
X169271000Y-95787000D01*
X169273000Y-95789000D01*
X169275000Y-95791000D01*
X169277000Y-95793000D01*
X169278000Y-95795000D01*
X169280000Y-95797000D01*
X169281000Y-95799000D01*
X169283000Y-95801000D01*
X169284000Y-95804000D01*
X169285000Y-95806000D01*
X169286000Y-95809000D01*
X169286000Y-95811000D01*
X169287000Y-95814000D01*
X169287000Y-95816000D01*
X169288000Y-95819000D01*
X169288000Y-95821000D01*
X169288000Y-95824000D01*
X169288000Y-95974000D01*
X169288000Y-95977000D01*
X169288000Y-95979000D01*
X169287000Y-95982000D01*
X169287000Y-95984000D01*
X169286000Y-95987000D01*
X169286000Y-95989000D01*
X169285000Y-95992000D01*
X169284000Y-95994000D01*
X169283000Y-95997000D01*
X169281000Y-95999000D01*
X169280000Y-96001000D01*
X169278000Y-96003000D01*
X169277000Y-96005000D01*
X169275000Y-96007000D01*
X169273000Y-96009000D01*
X169271000Y-96011000D01*
X169269000Y-96013000D01*
X169267000Y-96014000D01*
X169265000Y-96016000D01*
X169263000Y-96017000D01*
X169261000Y-96019000D01*
X169258000Y-96020000D01*
X169256000Y-96021000D01*
X169253000Y-96022000D01*
X169251000Y-96022000D01*
X169248000Y-96023000D01*
X169246000Y-96023000D01*
X169243000Y-96024000D01*
X169241000Y-96024000D01*
X169238000Y-96024000D01*
X168888000Y-96024000D01*
X168885000Y-96024000D01*
X168883000Y-96024000D01*
X168880000Y-96023000D01*
X168878000Y-96023000D01*
X168875000Y-96022000D01*
X168873000Y-96022000D01*
X168870000Y-96021000D01*
X168868000Y-96020000D01*
X168865000Y-96019000D01*
X168863000Y-96017000D01*
X168861000Y-96016000D01*
X168859000Y-96014000D01*
X168857000Y-96013000D01*
X168855000Y-96011000D01*
X168853000Y-96009000D01*
X168851000Y-96007000D01*
X168849000Y-96005000D01*
X168848000Y-96003000D01*
X168846000Y-96001000D01*
X168845000Y-95999000D01*
X168843000Y-95997000D01*
X168842000Y-95994000D01*
X168841000Y-95992000D01*
X168840000Y-95989000D01*
X168840000Y-95987000D01*
X168839000Y-95984000D01*
X168839000Y-95982000D01*
X168838000Y-95979000D01*
X168838000Y-95977000D01*
X168838000Y-95974000D01*
X168838000Y-95824000D01*
X168838000Y-95821000D01*
X168838000Y-95819000D01*
X168839000Y-95816000D01*
X168839000Y-95814000D01*
X168840000Y-95811000D01*
X168840000Y-95809000D01*
X168841000Y-95806000D01*
X168842000Y-95804000D01*
X168843000Y-95801000D01*
X168845000Y-95799000D01*
X168846000Y-95797000D01*
X168848000Y-95795000D01*
X168849000Y-95793000D01*
X168851000Y-95791000D01*
X168853000Y-95789000D01*
X168855000Y-95787000D01*
X168857000Y-95785000D01*
X168859000Y-95784000D01*
X168861000Y-95782000D01*
X168863000Y-95781000D01*
X168865000Y-95779000D01*
X168868000Y-95778000D01*
X168870000Y-95777000D01*
X168873000Y-95776000D01*
X168875000Y-95776000D01*
X168878000Y-95775000D01*
X168880000Y-95775000D01*
X168883000Y-95774000D01*
X168885000Y-95774000D01*
X168888000Y-95774000D01*
X169238000Y-95774000D01*
X169241000Y-95774000D01*
X169243000Y-95774000D01*
X169246000Y-95775000D01*
G36*
X169246000Y-95775000D02*
G01*
X169248000Y-95775000D01*
X169251000Y-95776000D01*
X169253000Y-95776000D01*
X169256000Y-95777000D01*
X169258000Y-95778000D01*
X169261000Y-95779000D01*
X169263000Y-95781000D01*
X169265000Y-95782000D01*
X169267000Y-95784000D01*
X169269000Y-95785000D01*
X169271000Y-95787000D01*
X169273000Y-95789000D01*
X169275000Y-95791000D01*
X169277000Y-95793000D01*
X169278000Y-95795000D01*
X169280000Y-95797000D01*
X169281000Y-95799000D01*
X169283000Y-95801000D01*
X169284000Y-95804000D01*
X169285000Y-95806000D01*
X169286000Y-95809000D01*
X169286000Y-95811000D01*
X169287000Y-95814000D01*
X169287000Y-95816000D01*
X169288000Y-95819000D01*
X169288000Y-95821000D01*
X169288000Y-95824000D01*
X169288000Y-95974000D01*
X169288000Y-95977000D01*
X169288000Y-95979000D01*
X169287000Y-95982000D01*
X169287000Y-95984000D01*
X169286000Y-95987000D01*
X169286000Y-95989000D01*
X169285000Y-95992000D01*
X169284000Y-95994000D01*
X169283000Y-95997000D01*
X169281000Y-95999000D01*
X169280000Y-96001000D01*
X169278000Y-96003000D01*
X169277000Y-96005000D01*
X169275000Y-96007000D01*
X169273000Y-96009000D01*
X169271000Y-96011000D01*
X169269000Y-96013000D01*
X169267000Y-96014000D01*
X169265000Y-96016000D01*
X169263000Y-96017000D01*
X169261000Y-96019000D01*
X169258000Y-96020000D01*
X169256000Y-96021000D01*
X169253000Y-96022000D01*
X169251000Y-96022000D01*
X169248000Y-96023000D01*
X169246000Y-96023000D01*
X169243000Y-96024000D01*
X169241000Y-96024000D01*
X169238000Y-96024000D01*
X168888000Y-96024000D01*
X168885000Y-96024000D01*
X168883000Y-96024000D01*
X168880000Y-96023000D01*
X168878000Y-96023000D01*
X168875000Y-96022000D01*
X168873000Y-96022000D01*
X168870000Y-96021000D01*
X168868000Y-96020000D01*
X168865000Y-96019000D01*
X168863000Y-96017000D01*
X168861000Y-96016000D01*
X168859000Y-96014000D01*
X168857000Y-96013000D01*
X168855000Y-96011000D01*
X168853000Y-96009000D01*
X168851000Y-96007000D01*
X168849000Y-96005000D01*
X168848000Y-96003000D01*
X168846000Y-96001000D01*
X168845000Y-95999000D01*
X168843000Y-95997000D01*
X168842000Y-95994000D01*
X168841000Y-95992000D01*
X168840000Y-95989000D01*
X168840000Y-95987000D01*
X168839000Y-95984000D01*
X168839000Y-95982000D01*
X168838000Y-95979000D01*
X168838000Y-95977000D01*
X168838000Y-95974000D01*
X168838000Y-95824000D01*
X168838000Y-95821000D01*
X168838000Y-95819000D01*
X168839000Y-95816000D01*
X168839000Y-95814000D01*
X168840000Y-95811000D01*
X168840000Y-95809000D01*
X168841000Y-95806000D01*
X168842000Y-95804000D01*
X168843000Y-95801000D01*
X168845000Y-95799000D01*
X168846000Y-95797000D01*
X168848000Y-95795000D01*
X168849000Y-95793000D01*
X168851000Y-95791000D01*
X168853000Y-95789000D01*
X168855000Y-95787000D01*
X168857000Y-95785000D01*
X168859000Y-95784000D01*
X168861000Y-95782000D01*
X168863000Y-95781000D01*
X168865000Y-95779000D01*
X168868000Y-95778000D01*
X168870000Y-95777000D01*
X168873000Y-95776000D01*
X168875000Y-95776000D01*
X168878000Y-95775000D01*
X168880000Y-95775000D01*
X168883000Y-95774000D01*
X168885000Y-95774000D01*
X168888000Y-95774000D01*
X169238000Y-95774000D01*
X169241000Y-95774000D01*
X169243000Y-95774000D01*
X169246000Y-95775000D01*
G37*
X170521000Y-92585000D02*
X170523000Y-92585000D01*
X170526000Y-92586000D01*
X170528000Y-92586000D01*
X170531000Y-92587000D01*
X170533000Y-92588000D01*
X170536000Y-92589000D01*
X170538000Y-92591000D01*
X170540000Y-92592000D01*
X170542000Y-92594000D01*
X170544000Y-92595000D01*
X170546000Y-92597000D01*
X170548000Y-92599000D01*
X170550000Y-92601000D01*
X170552000Y-92603000D01*
X170553000Y-92605000D01*
X170555000Y-92607000D01*
X170556000Y-92609000D01*
X170558000Y-92611000D01*
X170559000Y-92614000D01*
X170560000Y-92616000D01*
X170561000Y-92619000D01*
X170561000Y-92621000D01*
X170562000Y-92624000D01*
X170562000Y-92626000D01*
X170563000Y-92629000D01*
X170563000Y-92631000D01*
X170563000Y-92634000D01*
X170563000Y-93859000D01*
X170563000Y-93862000D01*
X170563000Y-93864000D01*
X170562000Y-93867000D01*
X170562000Y-93869000D01*
X170561000Y-93872000D01*
X170561000Y-93874000D01*
X170560000Y-93877000D01*
X170559000Y-93879000D01*
X170558000Y-93882000D01*
X170556000Y-93884000D01*
X170555000Y-93886000D01*
X170553000Y-93888000D01*
X170552000Y-93890000D01*
X170550000Y-93892000D01*
X170548000Y-93894000D01*
X170546000Y-93896000D01*
X170544000Y-93898000D01*
X170542000Y-93899000D01*
X170540000Y-93901000D01*
X170538000Y-93902000D01*
X170536000Y-93904000D01*
X170533000Y-93905000D01*
X170531000Y-93906000D01*
X170528000Y-93907000D01*
X170526000Y-93907000D01*
X170523000Y-93908000D01*
X170521000Y-93908000D01*
X170518000Y-93909000D01*
X170516000Y-93909000D01*
X170513000Y-93909000D01*
X170363000Y-93909000D01*
X170360000Y-93909000D01*
X170358000Y-93909000D01*
X170355000Y-93908000D01*
X170353000Y-93908000D01*
X170350000Y-93907000D01*
X170348000Y-93907000D01*
X170345000Y-93906000D01*
X170343000Y-93905000D01*
X170340000Y-93904000D01*
X170338000Y-93902000D01*
X170336000Y-93901000D01*
X170334000Y-93899000D01*
X170332000Y-93898000D01*
X170330000Y-93896000D01*
X170328000Y-93894000D01*
X170326000Y-93892000D01*
X170324000Y-93890000D01*
X170323000Y-93888000D01*
X170321000Y-93886000D01*
X170320000Y-93884000D01*
X170318000Y-93882000D01*
X170317000Y-93879000D01*
X170316000Y-93877000D01*
X170315000Y-93874000D01*
X170315000Y-93872000D01*
X170314000Y-93869000D01*
X170314000Y-93867000D01*
X170313000Y-93864000D01*
X170313000Y-93862000D01*
X170313000Y-93859000D01*
X170313000Y-92634000D01*
X170313000Y-92631000D01*
X170313000Y-92629000D01*
X170314000Y-92626000D01*
X170314000Y-92624000D01*
X170315000Y-92621000D01*
X170315000Y-92619000D01*
X170316000Y-92616000D01*
X170317000Y-92614000D01*
X170318000Y-92611000D01*
X170320000Y-92609000D01*
X170321000Y-92607000D01*
X170323000Y-92605000D01*
X170324000Y-92603000D01*
X170326000Y-92601000D01*
X170328000Y-92599000D01*
X170330000Y-92597000D01*
X170332000Y-92595000D01*
X170334000Y-92594000D01*
X170336000Y-92592000D01*
X170338000Y-92591000D01*
X170340000Y-92589000D01*
X170343000Y-92588000D01*
X170345000Y-92587000D01*
X170348000Y-92586000D01*
X170350000Y-92586000D01*
X170353000Y-92585000D01*
X170355000Y-92585000D01*
X170358000Y-92584000D01*
X170360000Y-92584000D01*
X170363000Y-92584000D01*
X170513000Y-92584000D01*
X170516000Y-92584000D01*
X170518000Y-92584000D01*
X170521000Y-92585000D01*
G36*
X170521000Y-92585000D02*
G01*
X170523000Y-92585000D01*
X170526000Y-92586000D01*
X170528000Y-92586000D01*
X170531000Y-92587000D01*
X170533000Y-92588000D01*
X170536000Y-92589000D01*
X170538000Y-92591000D01*
X170540000Y-92592000D01*
X170542000Y-92594000D01*
X170544000Y-92595000D01*
X170546000Y-92597000D01*
X170548000Y-92599000D01*
X170550000Y-92601000D01*
X170552000Y-92603000D01*
X170553000Y-92605000D01*
X170555000Y-92607000D01*
X170556000Y-92609000D01*
X170558000Y-92611000D01*
X170559000Y-92614000D01*
X170560000Y-92616000D01*
X170561000Y-92619000D01*
X170561000Y-92621000D01*
X170562000Y-92624000D01*
X170562000Y-92626000D01*
X170563000Y-92629000D01*
X170563000Y-92631000D01*
X170563000Y-92634000D01*
X170563000Y-93859000D01*
X170563000Y-93862000D01*
X170563000Y-93864000D01*
X170562000Y-93867000D01*
X170562000Y-93869000D01*
X170561000Y-93872000D01*
X170561000Y-93874000D01*
X170560000Y-93877000D01*
X170559000Y-93879000D01*
X170558000Y-93882000D01*
X170556000Y-93884000D01*
X170555000Y-93886000D01*
X170553000Y-93888000D01*
X170552000Y-93890000D01*
X170550000Y-93892000D01*
X170548000Y-93894000D01*
X170546000Y-93896000D01*
X170544000Y-93898000D01*
X170542000Y-93899000D01*
X170540000Y-93901000D01*
X170538000Y-93902000D01*
X170536000Y-93904000D01*
X170533000Y-93905000D01*
X170531000Y-93906000D01*
X170528000Y-93907000D01*
X170526000Y-93907000D01*
X170523000Y-93908000D01*
X170521000Y-93908000D01*
X170518000Y-93909000D01*
X170516000Y-93909000D01*
X170513000Y-93909000D01*
X170363000Y-93909000D01*
X170360000Y-93909000D01*
X170358000Y-93909000D01*
X170355000Y-93908000D01*
X170353000Y-93908000D01*
X170350000Y-93907000D01*
X170348000Y-93907000D01*
X170345000Y-93906000D01*
X170343000Y-93905000D01*
X170340000Y-93904000D01*
X170338000Y-93902000D01*
X170336000Y-93901000D01*
X170334000Y-93899000D01*
X170332000Y-93898000D01*
X170330000Y-93896000D01*
X170328000Y-93894000D01*
X170326000Y-93892000D01*
X170324000Y-93890000D01*
X170323000Y-93888000D01*
X170321000Y-93886000D01*
X170320000Y-93884000D01*
X170318000Y-93882000D01*
X170317000Y-93879000D01*
X170316000Y-93877000D01*
X170315000Y-93874000D01*
X170315000Y-93872000D01*
X170314000Y-93869000D01*
X170314000Y-93867000D01*
X170313000Y-93864000D01*
X170313000Y-93862000D01*
X170313000Y-93859000D01*
X170313000Y-92634000D01*
X170313000Y-92631000D01*
X170313000Y-92629000D01*
X170314000Y-92626000D01*
X170314000Y-92624000D01*
X170315000Y-92621000D01*
X170315000Y-92619000D01*
X170316000Y-92616000D01*
X170317000Y-92614000D01*
X170318000Y-92611000D01*
X170320000Y-92609000D01*
X170321000Y-92607000D01*
X170323000Y-92605000D01*
X170324000Y-92603000D01*
X170326000Y-92601000D01*
X170328000Y-92599000D01*
X170330000Y-92597000D01*
X170332000Y-92595000D01*
X170334000Y-92594000D01*
X170336000Y-92592000D01*
X170338000Y-92591000D01*
X170340000Y-92589000D01*
X170343000Y-92588000D01*
X170345000Y-92587000D01*
X170348000Y-92586000D01*
X170350000Y-92586000D01*
X170353000Y-92585000D01*
X170355000Y-92585000D01*
X170358000Y-92584000D01*
X170360000Y-92584000D01*
X170363000Y-92584000D01*
X170513000Y-92584000D01*
X170516000Y-92584000D01*
X170518000Y-92584000D01*
X170521000Y-92585000D01*
G37*
X172496000Y-94775000D02*
X172498000Y-94775000D01*
X172501000Y-94776000D01*
X172503000Y-94776000D01*
X172506000Y-94777000D01*
X172508000Y-94778000D01*
X172511000Y-94779000D01*
X172513000Y-94781000D01*
X172515000Y-94782000D01*
X172517000Y-94784000D01*
X172519000Y-94785000D01*
X172521000Y-94787000D01*
X172523000Y-94789000D01*
X172525000Y-94791000D01*
X172527000Y-94793000D01*
X172528000Y-94795000D01*
X172530000Y-94797000D01*
X172531000Y-94799000D01*
X172533000Y-94801000D01*
X172534000Y-94804000D01*
X172535000Y-94806000D01*
X172536000Y-94809000D01*
X172536000Y-94811000D01*
X172537000Y-94814000D01*
X172537000Y-94816000D01*
X172538000Y-94819000D01*
X172538000Y-94821000D01*
X172538000Y-94824000D01*
X172538000Y-94974000D01*
X172538000Y-94977000D01*
X172538000Y-94979000D01*
X172537000Y-94982000D01*
X172537000Y-94984000D01*
X172536000Y-94987000D01*
X172536000Y-94989000D01*
X172535000Y-94992000D01*
X172534000Y-94994000D01*
X172533000Y-94997000D01*
X172531000Y-94999000D01*
X172530000Y-95001000D01*
X172528000Y-95003000D01*
X172527000Y-95005000D01*
X172525000Y-95007000D01*
X172523000Y-95009000D01*
X172521000Y-95011000D01*
X172519000Y-95013000D01*
X172517000Y-95014000D01*
X172515000Y-95016000D01*
X172513000Y-95017000D01*
X172511000Y-95019000D01*
X172508000Y-95020000D01*
X172506000Y-95021000D01*
X172503000Y-95022000D01*
X172501000Y-95022000D01*
X172498000Y-95023000D01*
X172496000Y-95023000D01*
X172493000Y-95024000D01*
X172491000Y-95024000D01*
X172488000Y-95024000D01*
X172138000Y-95024000D01*
X172135000Y-95024000D01*
X172133000Y-95024000D01*
X172130000Y-95023000D01*
X172128000Y-95023000D01*
X172125000Y-95022000D01*
X172123000Y-95022000D01*
X172120000Y-95021000D01*
X172118000Y-95020000D01*
X172115000Y-95019000D01*
X172113000Y-95017000D01*
X172111000Y-95016000D01*
X172109000Y-95014000D01*
X172107000Y-95013000D01*
X172105000Y-95011000D01*
X172103000Y-95009000D01*
X172101000Y-95007000D01*
X172099000Y-95005000D01*
X172098000Y-95003000D01*
X172096000Y-95001000D01*
X172095000Y-94999000D01*
X172093000Y-94997000D01*
X172092000Y-94994000D01*
X172091000Y-94992000D01*
X172090000Y-94989000D01*
X172090000Y-94987000D01*
X172089000Y-94984000D01*
X172089000Y-94982000D01*
X172088000Y-94979000D01*
X172088000Y-94977000D01*
X172088000Y-94974000D01*
X172088000Y-94824000D01*
X172088000Y-94821000D01*
X172088000Y-94819000D01*
X172089000Y-94816000D01*
X172089000Y-94814000D01*
X172090000Y-94811000D01*
X172090000Y-94809000D01*
X172091000Y-94806000D01*
X172092000Y-94804000D01*
X172093000Y-94801000D01*
X172095000Y-94799000D01*
X172096000Y-94797000D01*
X172098000Y-94795000D01*
X172099000Y-94793000D01*
X172101000Y-94791000D01*
X172103000Y-94789000D01*
X172105000Y-94787000D01*
X172107000Y-94785000D01*
X172109000Y-94784000D01*
X172111000Y-94782000D01*
X172113000Y-94781000D01*
X172115000Y-94779000D01*
X172118000Y-94778000D01*
X172120000Y-94777000D01*
X172123000Y-94776000D01*
X172125000Y-94776000D01*
X172128000Y-94775000D01*
X172130000Y-94775000D01*
X172133000Y-94774000D01*
X172135000Y-94774000D01*
X172138000Y-94774000D01*
X172488000Y-94774000D01*
X172491000Y-94774000D01*
X172493000Y-94774000D01*
X172496000Y-94775000D01*
G36*
X172496000Y-94775000D02*
G01*
X172498000Y-94775000D01*
X172501000Y-94776000D01*
X172503000Y-94776000D01*
X172506000Y-94777000D01*
X172508000Y-94778000D01*
X172511000Y-94779000D01*
X172513000Y-94781000D01*
X172515000Y-94782000D01*
X172517000Y-94784000D01*
X172519000Y-94785000D01*
X172521000Y-94787000D01*
X172523000Y-94789000D01*
X172525000Y-94791000D01*
X172527000Y-94793000D01*
X172528000Y-94795000D01*
X172530000Y-94797000D01*
X172531000Y-94799000D01*
X172533000Y-94801000D01*
X172534000Y-94804000D01*
X172535000Y-94806000D01*
X172536000Y-94809000D01*
X172536000Y-94811000D01*
X172537000Y-94814000D01*
X172537000Y-94816000D01*
X172538000Y-94819000D01*
X172538000Y-94821000D01*
X172538000Y-94824000D01*
X172538000Y-94974000D01*
X172538000Y-94977000D01*
X172538000Y-94979000D01*
X172537000Y-94982000D01*
X172537000Y-94984000D01*
X172536000Y-94987000D01*
X172536000Y-94989000D01*
X172535000Y-94992000D01*
X172534000Y-94994000D01*
X172533000Y-94997000D01*
X172531000Y-94999000D01*
X172530000Y-95001000D01*
X172528000Y-95003000D01*
X172527000Y-95005000D01*
X172525000Y-95007000D01*
X172523000Y-95009000D01*
X172521000Y-95011000D01*
X172519000Y-95013000D01*
X172517000Y-95014000D01*
X172515000Y-95016000D01*
X172513000Y-95017000D01*
X172511000Y-95019000D01*
X172508000Y-95020000D01*
X172506000Y-95021000D01*
X172503000Y-95022000D01*
X172501000Y-95022000D01*
X172498000Y-95023000D01*
X172496000Y-95023000D01*
X172493000Y-95024000D01*
X172491000Y-95024000D01*
X172488000Y-95024000D01*
X172138000Y-95024000D01*
X172135000Y-95024000D01*
X172133000Y-95024000D01*
X172130000Y-95023000D01*
X172128000Y-95023000D01*
X172125000Y-95022000D01*
X172123000Y-95022000D01*
X172120000Y-95021000D01*
X172118000Y-95020000D01*
X172115000Y-95019000D01*
X172113000Y-95017000D01*
X172111000Y-95016000D01*
X172109000Y-95014000D01*
X172107000Y-95013000D01*
X172105000Y-95011000D01*
X172103000Y-95009000D01*
X172101000Y-95007000D01*
X172099000Y-95005000D01*
X172098000Y-95003000D01*
X172096000Y-95001000D01*
X172095000Y-94999000D01*
X172093000Y-94997000D01*
X172092000Y-94994000D01*
X172091000Y-94992000D01*
X172090000Y-94989000D01*
X172090000Y-94987000D01*
X172089000Y-94984000D01*
X172089000Y-94982000D01*
X172088000Y-94979000D01*
X172088000Y-94977000D01*
X172088000Y-94974000D01*
X172088000Y-94824000D01*
X172088000Y-94821000D01*
X172088000Y-94819000D01*
X172089000Y-94816000D01*
X172089000Y-94814000D01*
X172090000Y-94811000D01*
X172090000Y-94809000D01*
X172091000Y-94806000D01*
X172092000Y-94804000D01*
X172093000Y-94801000D01*
X172095000Y-94799000D01*
X172096000Y-94797000D01*
X172098000Y-94795000D01*
X172099000Y-94793000D01*
X172101000Y-94791000D01*
X172103000Y-94789000D01*
X172105000Y-94787000D01*
X172107000Y-94785000D01*
X172109000Y-94784000D01*
X172111000Y-94782000D01*
X172113000Y-94781000D01*
X172115000Y-94779000D01*
X172118000Y-94778000D01*
X172120000Y-94777000D01*
X172123000Y-94776000D01*
X172125000Y-94776000D01*
X172128000Y-94775000D01*
X172130000Y-94775000D01*
X172133000Y-94774000D01*
X172135000Y-94774000D01*
X172138000Y-94774000D01*
X172488000Y-94774000D01*
X172491000Y-94774000D01*
X172493000Y-94774000D01*
X172496000Y-94775000D01*
G37*
X172496000Y-95275000D02*
X172498000Y-95275000D01*
X172501000Y-95276000D01*
X172503000Y-95276000D01*
X172506000Y-95277000D01*
X172508000Y-95278000D01*
X172511000Y-95279000D01*
X172513000Y-95281000D01*
X172515000Y-95282000D01*
X172517000Y-95284000D01*
X172519000Y-95285000D01*
X172521000Y-95287000D01*
X172523000Y-95289000D01*
X172525000Y-95291000D01*
X172527000Y-95293000D01*
X172528000Y-95295000D01*
X172530000Y-95297000D01*
X172531000Y-95299000D01*
X172533000Y-95301000D01*
X172534000Y-95304000D01*
X172535000Y-95306000D01*
X172536000Y-95309000D01*
X172536000Y-95311000D01*
X172537000Y-95314000D01*
X172537000Y-95316000D01*
X172538000Y-95319000D01*
X172538000Y-95321000D01*
X172538000Y-95324000D01*
X172538000Y-95474000D01*
X172538000Y-95477000D01*
X172538000Y-95479000D01*
X172537000Y-95482000D01*
X172537000Y-95484000D01*
X172536000Y-95487000D01*
X172536000Y-95489000D01*
X172535000Y-95492000D01*
X172534000Y-95494000D01*
X172533000Y-95497000D01*
X172531000Y-95499000D01*
X172530000Y-95501000D01*
X172528000Y-95503000D01*
X172527000Y-95505000D01*
X172525000Y-95507000D01*
X172523000Y-95509000D01*
X172521000Y-95511000D01*
X172519000Y-95513000D01*
X172517000Y-95514000D01*
X172515000Y-95516000D01*
X172513000Y-95517000D01*
X172511000Y-95519000D01*
X172508000Y-95520000D01*
X172506000Y-95521000D01*
X172503000Y-95522000D01*
X172501000Y-95522000D01*
X172498000Y-95523000D01*
X172496000Y-95523000D01*
X172493000Y-95524000D01*
X172491000Y-95524000D01*
X172488000Y-95524000D01*
X172138000Y-95524000D01*
X172135000Y-95524000D01*
X172133000Y-95524000D01*
X172130000Y-95523000D01*
X172128000Y-95523000D01*
X172125000Y-95522000D01*
X172123000Y-95522000D01*
X172120000Y-95521000D01*
X172118000Y-95520000D01*
X172115000Y-95519000D01*
X172113000Y-95517000D01*
X172111000Y-95516000D01*
X172109000Y-95514000D01*
X172107000Y-95513000D01*
X172105000Y-95511000D01*
X172103000Y-95509000D01*
X172101000Y-95507000D01*
X172099000Y-95505000D01*
X172098000Y-95503000D01*
X172096000Y-95501000D01*
X172095000Y-95499000D01*
X172093000Y-95497000D01*
X172092000Y-95494000D01*
X172091000Y-95492000D01*
X172090000Y-95489000D01*
X172090000Y-95487000D01*
X172089000Y-95484000D01*
X172089000Y-95482000D01*
X172088000Y-95479000D01*
X172088000Y-95477000D01*
X172088000Y-95474000D01*
X172088000Y-95324000D01*
X172088000Y-95321000D01*
X172088000Y-95319000D01*
X172089000Y-95316000D01*
X172089000Y-95314000D01*
X172090000Y-95311000D01*
X172090000Y-95309000D01*
X172091000Y-95306000D01*
X172092000Y-95304000D01*
X172093000Y-95301000D01*
X172095000Y-95299000D01*
X172096000Y-95297000D01*
X172098000Y-95295000D01*
X172099000Y-95293000D01*
X172101000Y-95291000D01*
X172103000Y-95289000D01*
X172105000Y-95287000D01*
X172107000Y-95285000D01*
X172109000Y-95284000D01*
X172111000Y-95282000D01*
X172113000Y-95281000D01*
X172115000Y-95279000D01*
X172118000Y-95278000D01*
X172120000Y-95277000D01*
X172123000Y-95276000D01*
X172125000Y-95276000D01*
X172128000Y-95275000D01*
X172130000Y-95275000D01*
X172133000Y-95274000D01*
X172135000Y-95274000D01*
X172138000Y-95274000D01*
X172488000Y-95274000D01*
X172491000Y-95274000D01*
X172493000Y-95274000D01*
X172496000Y-95275000D01*
G36*
X172496000Y-95275000D02*
G01*
X172498000Y-95275000D01*
X172501000Y-95276000D01*
X172503000Y-95276000D01*
X172506000Y-95277000D01*
X172508000Y-95278000D01*
X172511000Y-95279000D01*
X172513000Y-95281000D01*
X172515000Y-95282000D01*
X172517000Y-95284000D01*
X172519000Y-95285000D01*
X172521000Y-95287000D01*
X172523000Y-95289000D01*
X172525000Y-95291000D01*
X172527000Y-95293000D01*
X172528000Y-95295000D01*
X172530000Y-95297000D01*
X172531000Y-95299000D01*
X172533000Y-95301000D01*
X172534000Y-95304000D01*
X172535000Y-95306000D01*
X172536000Y-95309000D01*
X172536000Y-95311000D01*
X172537000Y-95314000D01*
X172537000Y-95316000D01*
X172538000Y-95319000D01*
X172538000Y-95321000D01*
X172538000Y-95324000D01*
X172538000Y-95474000D01*
X172538000Y-95477000D01*
X172538000Y-95479000D01*
X172537000Y-95482000D01*
X172537000Y-95484000D01*
X172536000Y-95487000D01*
X172536000Y-95489000D01*
X172535000Y-95492000D01*
X172534000Y-95494000D01*
X172533000Y-95497000D01*
X172531000Y-95499000D01*
X172530000Y-95501000D01*
X172528000Y-95503000D01*
X172527000Y-95505000D01*
X172525000Y-95507000D01*
X172523000Y-95509000D01*
X172521000Y-95511000D01*
X172519000Y-95513000D01*
X172517000Y-95514000D01*
X172515000Y-95516000D01*
X172513000Y-95517000D01*
X172511000Y-95519000D01*
X172508000Y-95520000D01*
X172506000Y-95521000D01*
X172503000Y-95522000D01*
X172501000Y-95522000D01*
X172498000Y-95523000D01*
X172496000Y-95523000D01*
X172493000Y-95524000D01*
X172491000Y-95524000D01*
X172488000Y-95524000D01*
X172138000Y-95524000D01*
X172135000Y-95524000D01*
X172133000Y-95524000D01*
X172130000Y-95523000D01*
X172128000Y-95523000D01*
X172125000Y-95522000D01*
X172123000Y-95522000D01*
X172120000Y-95521000D01*
X172118000Y-95520000D01*
X172115000Y-95519000D01*
X172113000Y-95517000D01*
X172111000Y-95516000D01*
X172109000Y-95514000D01*
X172107000Y-95513000D01*
X172105000Y-95511000D01*
X172103000Y-95509000D01*
X172101000Y-95507000D01*
X172099000Y-95505000D01*
X172098000Y-95503000D01*
X172096000Y-95501000D01*
X172095000Y-95499000D01*
X172093000Y-95497000D01*
X172092000Y-95494000D01*
X172091000Y-95492000D01*
X172090000Y-95489000D01*
X172090000Y-95487000D01*
X172089000Y-95484000D01*
X172089000Y-95482000D01*
X172088000Y-95479000D01*
X172088000Y-95477000D01*
X172088000Y-95474000D01*
X172088000Y-95324000D01*
X172088000Y-95321000D01*
X172088000Y-95319000D01*
X172089000Y-95316000D01*
X172089000Y-95314000D01*
X172090000Y-95311000D01*
X172090000Y-95309000D01*
X172091000Y-95306000D01*
X172092000Y-95304000D01*
X172093000Y-95301000D01*
X172095000Y-95299000D01*
X172096000Y-95297000D01*
X172098000Y-95295000D01*
X172099000Y-95293000D01*
X172101000Y-95291000D01*
X172103000Y-95289000D01*
X172105000Y-95287000D01*
X172107000Y-95285000D01*
X172109000Y-95284000D01*
X172111000Y-95282000D01*
X172113000Y-95281000D01*
X172115000Y-95279000D01*
X172118000Y-95278000D01*
X172120000Y-95277000D01*
X172123000Y-95276000D01*
X172125000Y-95276000D01*
X172128000Y-95275000D01*
X172130000Y-95275000D01*
X172133000Y-95274000D01*
X172135000Y-95274000D01*
X172138000Y-95274000D01*
X172488000Y-95274000D01*
X172491000Y-95274000D01*
X172493000Y-95274000D01*
X172496000Y-95275000D01*
G37*
X172496000Y-95775000D02*
X172498000Y-95775000D01*
X172501000Y-95776000D01*
X172503000Y-95776000D01*
X172506000Y-95777000D01*
X172508000Y-95778000D01*
X172511000Y-95779000D01*
X172513000Y-95781000D01*
X172515000Y-95782000D01*
X172517000Y-95784000D01*
X172519000Y-95785000D01*
X172521000Y-95787000D01*
X172523000Y-95789000D01*
X172525000Y-95791000D01*
X172527000Y-95793000D01*
X172528000Y-95795000D01*
X172530000Y-95797000D01*
X172531000Y-95799000D01*
X172533000Y-95801000D01*
X172534000Y-95804000D01*
X172535000Y-95806000D01*
X172536000Y-95809000D01*
X172536000Y-95811000D01*
X172537000Y-95814000D01*
X172537000Y-95816000D01*
X172538000Y-95819000D01*
X172538000Y-95821000D01*
X172538000Y-95824000D01*
X172538000Y-95974000D01*
X172538000Y-95977000D01*
X172538000Y-95979000D01*
X172537000Y-95982000D01*
X172537000Y-95984000D01*
X172536000Y-95987000D01*
X172536000Y-95989000D01*
X172535000Y-95992000D01*
X172534000Y-95994000D01*
X172533000Y-95997000D01*
X172531000Y-95999000D01*
X172530000Y-96001000D01*
X172528000Y-96003000D01*
X172527000Y-96005000D01*
X172525000Y-96007000D01*
X172523000Y-96009000D01*
X172521000Y-96011000D01*
X172519000Y-96013000D01*
X172517000Y-96014000D01*
X172515000Y-96016000D01*
X172513000Y-96017000D01*
X172511000Y-96019000D01*
X172508000Y-96020000D01*
X172506000Y-96021000D01*
X172503000Y-96022000D01*
X172501000Y-96022000D01*
X172498000Y-96023000D01*
X172496000Y-96023000D01*
X172493000Y-96024000D01*
X172491000Y-96024000D01*
X172488000Y-96024000D01*
X172138000Y-96024000D01*
X172135000Y-96024000D01*
X172133000Y-96024000D01*
X172130000Y-96023000D01*
X172128000Y-96023000D01*
X172125000Y-96022000D01*
X172123000Y-96022000D01*
X172120000Y-96021000D01*
X172118000Y-96020000D01*
X172115000Y-96019000D01*
X172113000Y-96017000D01*
X172111000Y-96016000D01*
X172109000Y-96014000D01*
X172107000Y-96013000D01*
X172105000Y-96011000D01*
X172103000Y-96009000D01*
X172101000Y-96007000D01*
X172099000Y-96005000D01*
X172098000Y-96003000D01*
X172096000Y-96001000D01*
X172095000Y-95999000D01*
X172093000Y-95997000D01*
X172092000Y-95994000D01*
X172091000Y-95992000D01*
X172090000Y-95989000D01*
X172090000Y-95987000D01*
X172089000Y-95984000D01*
X172089000Y-95982000D01*
X172088000Y-95979000D01*
X172088000Y-95977000D01*
X172088000Y-95974000D01*
X172088000Y-95824000D01*
X172088000Y-95821000D01*
X172088000Y-95819000D01*
X172089000Y-95816000D01*
X172089000Y-95814000D01*
X172090000Y-95811000D01*
X172090000Y-95809000D01*
X172091000Y-95806000D01*
X172092000Y-95804000D01*
X172093000Y-95801000D01*
X172095000Y-95799000D01*
X172096000Y-95797000D01*
X172098000Y-95795000D01*
X172099000Y-95793000D01*
X172101000Y-95791000D01*
X172103000Y-95789000D01*
X172105000Y-95787000D01*
X172107000Y-95785000D01*
X172109000Y-95784000D01*
X172111000Y-95782000D01*
X172113000Y-95781000D01*
X172115000Y-95779000D01*
X172118000Y-95778000D01*
X172120000Y-95777000D01*
X172123000Y-95776000D01*
X172125000Y-95776000D01*
X172128000Y-95775000D01*
X172130000Y-95775000D01*
X172133000Y-95774000D01*
X172135000Y-95774000D01*
X172138000Y-95774000D01*
X172488000Y-95774000D01*
X172491000Y-95774000D01*
X172493000Y-95774000D01*
X172496000Y-95775000D01*
G36*
X172496000Y-95775000D02*
G01*
X172498000Y-95775000D01*
X172501000Y-95776000D01*
X172503000Y-95776000D01*
X172506000Y-95777000D01*
X172508000Y-95778000D01*
X172511000Y-95779000D01*
X172513000Y-95781000D01*
X172515000Y-95782000D01*
X172517000Y-95784000D01*
X172519000Y-95785000D01*
X172521000Y-95787000D01*
X172523000Y-95789000D01*
X172525000Y-95791000D01*
X172527000Y-95793000D01*
X172528000Y-95795000D01*
X172530000Y-95797000D01*
X172531000Y-95799000D01*
X172533000Y-95801000D01*
X172534000Y-95804000D01*
X172535000Y-95806000D01*
X172536000Y-95809000D01*
X172536000Y-95811000D01*
X172537000Y-95814000D01*
X172537000Y-95816000D01*
X172538000Y-95819000D01*
X172538000Y-95821000D01*
X172538000Y-95824000D01*
X172538000Y-95974000D01*
X172538000Y-95977000D01*
X172538000Y-95979000D01*
X172537000Y-95982000D01*
X172537000Y-95984000D01*
X172536000Y-95987000D01*
X172536000Y-95989000D01*
X172535000Y-95992000D01*
X172534000Y-95994000D01*
X172533000Y-95997000D01*
X172531000Y-95999000D01*
X172530000Y-96001000D01*
X172528000Y-96003000D01*
X172527000Y-96005000D01*
X172525000Y-96007000D01*
X172523000Y-96009000D01*
X172521000Y-96011000D01*
X172519000Y-96013000D01*
X172517000Y-96014000D01*
X172515000Y-96016000D01*
X172513000Y-96017000D01*
X172511000Y-96019000D01*
X172508000Y-96020000D01*
X172506000Y-96021000D01*
X172503000Y-96022000D01*
X172501000Y-96022000D01*
X172498000Y-96023000D01*
X172496000Y-96023000D01*
X172493000Y-96024000D01*
X172491000Y-96024000D01*
X172488000Y-96024000D01*
X172138000Y-96024000D01*
X172135000Y-96024000D01*
X172133000Y-96024000D01*
X172130000Y-96023000D01*
X172128000Y-96023000D01*
X172125000Y-96022000D01*
X172123000Y-96022000D01*
X172120000Y-96021000D01*
X172118000Y-96020000D01*
X172115000Y-96019000D01*
X172113000Y-96017000D01*
X172111000Y-96016000D01*
X172109000Y-96014000D01*
X172107000Y-96013000D01*
X172105000Y-96011000D01*
X172103000Y-96009000D01*
X172101000Y-96007000D01*
X172099000Y-96005000D01*
X172098000Y-96003000D01*
X172096000Y-96001000D01*
X172095000Y-95999000D01*
X172093000Y-95997000D01*
X172092000Y-95994000D01*
X172091000Y-95992000D01*
X172090000Y-95989000D01*
X172090000Y-95987000D01*
X172089000Y-95984000D01*
X172089000Y-95982000D01*
X172088000Y-95979000D01*
X172088000Y-95977000D01*
X172088000Y-95974000D01*
X172088000Y-95824000D01*
X172088000Y-95821000D01*
X172088000Y-95819000D01*
X172089000Y-95816000D01*
X172089000Y-95814000D01*
X172090000Y-95811000D01*
X172090000Y-95809000D01*
X172091000Y-95806000D01*
X172092000Y-95804000D01*
X172093000Y-95801000D01*
X172095000Y-95799000D01*
X172096000Y-95797000D01*
X172098000Y-95795000D01*
X172099000Y-95793000D01*
X172101000Y-95791000D01*
X172103000Y-95789000D01*
X172105000Y-95787000D01*
X172107000Y-95785000D01*
X172109000Y-95784000D01*
X172111000Y-95782000D01*
X172113000Y-95781000D01*
X172115000Y-95779000D01*
X172118000Y-95778000D01*
X172120000Y-95777000D01*
X172123000Y-95776000D01*
X172125000Y-95776000D01*
X172128000Y-95775000D01*
X172130000Y-95775000D01*
X172133000Y-95774000D01*
X172135000Y-95774000D01*
X172138000Y-95774000D01*
X172488000Y-95774000D01*
X172491000Y-95774000D01*
X172493000Y-95774000D01*
X172496000Y-95775000D01*
G37*
X170066000Y-93634000D02*
X170068000Y-93634000D01*
X170071000Y-93634000D01*
X170073000Y-93635000D01*
X170076000Y-93635000D01*
X170078000Y-93636000D01*
X170081000Y-93637000D01*
X170083000Y-93638000D01*
X170086000Y-93639000D01*
X170088000Y-93640000D01*
X170090000Y-93642000D01*
X170092000Y-93643000D01*
X170094000Y-93645000D01*
X170096000Y-93646000D01*
X170098000Y-93648000D01*
X170100000Y-93650000D01*
X170102000Y-93652000D01*
X170103000Y-93654000D01*
X170105000Y-93656000D01*
X170106000Y-93658000D01*
X170108000Y-93661000D01*
X170109000Y-93663000D01*
X170110000Y-93666000D01*
X170111000Y-93668000D01*
X170111000Y-93671000D01*
X170112000Y-93673000D01*
X170112000Y-93676000D01*
X170113000Y-93678000D01*
X170113000Y-93681000D01*
X170113000Y-93684000D01*
X170113000Y-93858000D01*
X170113000Y-93861000D01*
X170113000Y-93864000D01*
X170112000Y-93866000D01*
X170112000Y-93869000D01*
X170111000Y-93871000D01*
X170111000Y-93874000D01*
X170110000Y-93876000D01*
X170109000Y-93879000D01*
X170108000Y-93881000D01*
X170106000Y-93883000D01*
X170105000Y-93886000D01*
X170103000Y-93888000D01*
X170102000Y-93890000D01*
X170100000Y-93892000D01*
X170098000Y-93894000D01*
X170096000Y-93896000D01*
X170094000Y-93897000D01*
X170092000Y-93899000D01*
X170090000Y-93900000D01*
X170088000Y-93902000D01*
X170086000Y-93903000D01*
X170083000Y-93904000D01*
X170081000Y-93905000D01*
X170078000Y-93906000D01*
X170076000Y-93907000D01*
X170073000Y-93907000D01*
X170071000Y-93908000D01*
X170068000Y-93908000D01*
X170066000Y-93908000D01*
X170063000Y-93908000D01*
X168888000Y-93908500D01*
X168888000Y-93908000D01*
X168885000Y-93908000D01*
X168883000Y-93908000D01*
X168880000Y-93908000D01*
X168878000Y-93907000D01*
X168875000Y-93907000D01*
X168873000Y-93906000D01*
X168870000Y-93905000D01*
X168868000Y-93904000D01*
X168865000Y-93903000D01*
X168863000Y-93902000D01*
X168861000Y-93900000D01*
X168859000Y-93899000D01*
X168857000Y-93897000D01*
X168855000Y-93896000D01*
X168853000Y-93894000D01*
X168851000Y-93892000D01*
X168849000Y-93890000D01*
X168848000Y-93888000D01*
X168846000Y-93886000D01*
X168845000Y-93883000D01*
X168843000Y-93881000D01*
X168842000Y-93879000D01*
X168841000Y-93876000D01*
X168840000Y-93874000D01*
X168840000Y-93871000D01*
X168839000Y-93869000D01*
X168839000Y-93866000D01*
X168838000Y-93864000D01*
X168838000Y-93861000D01*
X168838000Y-93858000D01*
X168838000Y-93684000D01*
X168838000Y-93681000D01*
X168838000Y-93678000D01*
X168839000Y-93676000D01*
X168839000Y-93673000D01*
X168840000Y-93671000D01*
X168840000Y-93668000D01*
X168841000Y-93666000D01*
X168842000Y-93663000D01*
X168843000Y-93661000D01*
X168845000Y-93658000D01*
X168846000Y-93656000D01*
X168848000Y-93654000D01*
X168849000Y-93652000D01*
X168851000Y-93650000D01*
X168853000Y-93648000D01*
X168855000Y-93646000D01*
X168857000Y-93645000D01*
X168859000Y-93643000D01*
X168861000Y-93642000D01*
X168863000Y-93640000D01*
X168865000Y-93639000D01*
X168868000Y-93638000D01*
X168870000Y-93637000D01*
X168873000Y-93636000D01*
X168875000Y-93635000D01*
X168878000Y-93635000D01*
X168880000Y-93634000D01*
X168883000Y-93634000D01*
X168885000Y-93634000D01*
X168888000Y-93633000D01*
X170063000Y-93633000D01*
X170066000Y-93634000D01*
G36*
X170066000Y-93634000D02*
G01*
X170068000Y-93634000D01*
X170071000Y-93634000D01*
X170073000Y-93635000D01*
X170076000Y-93635000D01*
X170078000Y-93636000D01*
X170081000Y-93637000D01*
X170083000Y-93638000D01*
X170086000Y-93639000D01*
X170088000Y-93640000D01*
X170090000Y-93642000D01*
X170092000Y-93643000D01*
X170094000Y-93645000D01*
X170096000Y-93646000D01*
X170098000Y-93648000D01*
X170100000Y-93650000D01*
X170102000Y-93652000D01*
X170103000Y-93654000D01*
X170105000Y-93656000D01*
X170106000Y-93658000D01*
X170108000Y-93661000D01*
X170109000Y-93663000D01*
X170110000Y-93666000D01*
X170111000Y-93668000D01*
X170111000Y-93671000D01*
X170112000Y-93673000D01*
X170112000Y-93676000D01*
X170113000Y-93678000D01*
X170113000Y-93681000D01*
X170113000Y-93684000D01*
X170113000Y-93858000D01*
X170113000Y-93861000D01*
X170113000Y-93864000D01*
X170112000Y-93866000D01*
X170112000Y-93869000D01*
X170111000Y-93871000D01*
X170111000Y-93874000D01*
X170110000Y-93876000D01*
X170109000Y-93879000D01*
X170108000Y-93881000D01*
X170106000Y-93883000D01*
X170105000Y-93886000D01*
X170103000Y-93888000D01*
X170102000Y-93890000D01*
X170100000Y-93892000D01*
X170098000Y-93894000D01*
X170096000Y-93896000D01*
X170094000Y-93897000D01*
X170092000Y-93899000D01*
X170090000Y-93900000D01*
X170088000Y-93902000D01*
X170086000Y-93903000D01*
X170083000Y-93904000D01*
X170081000Y-93905000D01*
X170078000Y-93906000D01*
X170076000Y-93907000D01*
X170073000Y-93907000D01*
X170071000Y-93908000D01*
X170068000Y-93908000D01*
X170066000Y-93908000D01*
X170063000Y-93908000D01*
X168888000Y-93908500D01*
X168888000Y-93908000D01*
X168885000Y-93908000D01*
X168883000Y-93908000D01*
X168880000Y-93908000D01*
X168878000Y-93907000D01*
X168875000Y-93907000D01*
X168873000Y-93906000D01*
X168870000Y-93905000D01*
X168868000Y-93904000D01*
X168865000Y-93903000D01*
X168863000Y-93902000D01*
X168861000Y-93900000D01*
X168859000Y-93899000D01*
X168857000Y-93897000D01*
X168855000Y-93896000D01*
X168853000Y-93894000D01*
X168851000Y-93892000D01*
X168849000Y-93890000D01*
X168848000Y-93888000D01*
X168846000Y-93886000D01*
X168845000Y-93883000D01*
X168843000Y-93881000D01*
X168842000Y-93879000D01*
X168841000Y-93876000D01*
X168840000Y-93874000D01*
X168840000Y-93871000D01*
X168839000Y-93869000D01*
X168839000Y-93866000D01*
X168838000Y-93864000D01*
X168838000Y-93861000D01*
X168838000Y-93858000D01*
X168838000Y-93684000D01*
X168838000Y-93681000D01*
X168838000Y-93678000D01*
X168839000Y-93676000D01*
X168839000Y-93673000D01*
X168840000Y-93671000D01*
X168840000Y-93668000D01*
X168841000Y-93666000D01*
X168842000Y-93663000D01*
X168843000Y-93661000D01*
X168845000Y-93658000D01*
X168846000Y-93656000D01*
X168848000Y-93654000D01*
X168849000Y-93652000D01*
X168851000Y-93650000D01*
X168853000Y-93648000D01*
X168855000Y-93646000D01*
X168857000Y-93645000D01*
X168859000Y-93643000D01*
X168861000Y-93642000D01*
X168863000Y-93640000D01*
X168865000Y-93639000D01*
X168868000Y-93638000D01*
X168870000Y-93637000D01*
X168873000Y-93636000D01*
X168875000Y-93635000D01*
X168878000Y-93635000D01*
X168880000Y-93634000D01*
X168883000Y-93634000D01*
X168885000Y-93634000D01*
X168888000Y-93633000D01*
X170063000Y-93633000D01*
X170066000Y-93634000D01*
G37*
X170165000Y-94387000D02*
X170168000Y-94387000D01*
X170170000Y-94387000D01*
X170173000Y-94388000D01*
X170175000Y-94388000D01*
X170178000Y-94389000D01*
X170180000Y-94390000D01*
X170183000Y-94391000D01*
X170185000Y-94392000D01*
X170188000Y-94393000D01*
X170190000Y-94395000D01*
X170192000Y-94396000D01*
X170194000Y-94398000D01*
X170196000Y-94399000D01*
X170198000Y-94401000D01*
X170200000Y-94403000D01*
X170201000Y-94405000D01*
X170203000Y-94407000D01*
X170204000Y-94409000D01*
X170206000Y-94411000D01*
X170207000Y-94414000D01*
X170208000Y-94416000D01*
X170209000Y-94419000D01*
X170210000Y-94421000D01*
X170211000Y-94424000D01*
X170211000Y-94426000D01*
X170212000Y-94429000D01*
X170212000Y-94431000D01*
X170212000Y-94434000D01*
X170213000Y-94437000D01*
X170213000Y-96206000D01*
X170212000Y-96209000D01*
X170212000Y-96212000D01*
X170212000Y-96214000D01*
X170211000Y-96217000D01*
X170211000Y-96219000D01*
X170210000Y-96222000D01*
X170209000Y-96224000D01*
X170208000Y-96227000D01*
X170207000Y-96229000D01*
X170206000Y-96232000D01*
X170204000Y-96234000D01*
X170203000Y-96236000D01*
X170201000Y-96238000D01*
X170200000Y-96240000D01*
X170198000Y-96242000D01*
X170196000Y-96244000D01*
X170194000Y-96245000D01*
X170192000Y-96247000D01*
X170190000Y-96248000D01*
X170188000Y-96250000D01*
X170185000Y-96251000D01*
X170183000Y-96252000D01*
X170180000Y-96253000D01*
X170178000Y-96254000D01*
X170175000Y-96255000D01*
X170173000Y-96255000D01*
X170170000Y-96256000D01*
X170168000Y-96256000D01*
X170165000Y-96256000D01*
X170163000Y-96256000D01*
X169537500Y-96256500D01*
X169537000Y-96256000D01*
X169535000Y-96256000D01*
X169532000Y-96256000D01*
X169530000Y-96256000D01*
X169527000Y-96255000D01*
X169525000Y-96255000D01*
X169522000Y-96254000D01*
X169520000Y-96253000D01*
X169517000Y-96252000D01*
X169515000Y-96251000D01*
X169513000Y-96250000D01*
X169510000Y-96248000D01*
X169508000Y-96247000D01*
X169506000Y-96245000D01*
X169504000Y-96244000D01*
X169502000Y-96242000D01*
X169500000Y-96240000D01*
X169499000Y-96238000D01*
X169497000Y-96236000D01*
X169496000Y-96234000D01*
X169494000Y-96232000D01*
X169493000Y-96229000D01*
X169492000Y-96227000D01*
X169491000Y-96224000D01*
X169490000Y-96222000D01*
X169489000Y-96219000D01*
X169489000Y-96217000D01*
X169488000Y-96214000D01*
X169488000Y-96212000D01*
X169488000Y-96209000D01*
X169488000Y-96206000D01*
X169488000Y-94437000D01*
X169488000Y-94434000D01*
X169488000Y-94431000D01*
X169488000Y-94429000D01*
X169489000Y-94426000D01*
X169489000Y-94424000D01*
X169490000Y-94421000D01*
X169491000Y-94419000D01*
X169492000Y-94416000D01*
X169493000Y-94414000D01*
X169494000Y-94411000D01*
X169496000Y-94409000D01*
X169497000Y-94407000D01*
X169499000Y-94405000D01*
X169500000Y-94403000D01*
X169502000Y-94401000D01*
X169504000Y-94399000D01*
X169506000Y-94398000D01*
X169508000Y-94396000D01*
X169510000Y-94395000D01*
X169513000Y-94393000D01*
X169515000Y-94392000D01*
X169517000Y-94391000D01*
X169520000Y-94390000D01*
X169522000Y-94389000D01*
X169525000Y-94388000D01*
X169527000Y-94388000D01*
X169530000Y-94387000D01*
X169532000Y-94387000D01*
X169535000Y-94387000D01*
X169537000Y-94386000D01*
X170163000Y-94386000D01*
X170165000Y-94387000D01*
G36*
X170165000Y-94387000D02*
G01*
X170168000Y-94387000D01*
X170170000Y-94387000D01*
X170173000Y-94388000D01*
X170175000Y-94388000D01*
X170178000Y-94389000D01*
X170180000Y-94390000D01*
X170183000Y-94391000D01*
X170185000Y-94392000D01*
X170188000Y-94393000D01*
X170190000Y-94395000D01*
X170192000Y-94396000D01*
X170194000Y-94398000D01*
X170196000Y-94399000D01*
X170198000Y-94401000D01*
X170200000Y-94403000D01*
X170201000Y-94405000D01*
X170203000Y-94407000D01*
X170204000Y-94409000D01*
X170206000Y-94411000D01*
X170207000Y-94414000D01*
X170208000Y-94416000D01*
X170209000Y-94419000D01*
X170210000Y-94421000D01*
X170211000Y-94424000D01*
X170211000Y-94426000D01*
X170212000Y-94429000D01*
X170212000Y-94431000D01*
X170212000Y-94434000D01*
X170213000Y-94437000D01*
X170213000Y-96206000D01*
X170212000Y-96209000D01*
X170212000Y-96212000D01*
X170212000Y-96214000D01*
X170211000Y-96217000D01*
X170211000Y-96219000D01*
X170210000Y-96222000D01*
X170209000Y-96224000D01*
X170208000Y-96227000D01*
X170207000Y-96229000D01*
X170206000Y-96232000D01*
X170204000Y-96234000D01*
X170203000Y-96236000D01*
X170201000Y-96238000D01*
X170200000Y-96240000D01*
X170198000Y-96242000D01*
X170196000Y-96244000D01*
X170194000Y-96245000D01*
X170192000Y-96247000D01*
X170190000Y-96248000D01*
X170188000Y-96250000D01*
X170185000Y-96251000D01*
X170183000Y-96252000D01*
X170180000Y-96253000D01*
X170178000Y-96254000D01*
X170175000Y-96255000D01*
X170173000Y-96255000D01*
X170170000Y-96256000D01*
X170168000Y-96256000D01*
X170165000Y-96256000D01*
X170163000Y-96256000D01*
X169537500Y-96256500D01*
X169537000Y-96256000D01*
X169535000Y-96256000D01*
X169532000Y-96256000D01*
X169530000Y-96256000D01*
X169527000Y-96255000D01*
X169525000Y-96255000D01*
X169522000Y-96254000D01*
X169520000Y-96253000D01*
X169517000Y-96252000D01*
X169515000Y-96251000D01*
X169513000Y-96250000D01*
X169510000Y-96248000D01*
X169508000Y-96247000D01*
X169506000Y-96245000D01*
X169504000Y-96244000D01*
X169502000Y-96242000D01*
X169500000Y-96240000D01*
X169499000Y-96238000D01*
X169497000Y-96236000D01*
X169496000Y-96234000D01*
X169494000Y-96232000D01*
X169493000Y-96229000D01*
X169492000Y-96227000D01*
X169491000Y-96224000D01*
X169490000Y-96222000D01*
X169489000Y-96219000D01*
X169489000Y-96217000D01*
X169488000Y-96214000D01*
X169488000Y-96212000D01*
X169488000Y-96209000D01*
X169488000Y-96206000D01*
X169488000Y-94437000D01*
X169488000Y-94434000D01*
X169488000Y-94431000D01*
X169488000Y-94429000D01*
X169489000Y-94426000D01*
X169489000Y-94424000D01*
X169490000Y-94421000D01*
X169491000Y-94419000D01*
X169492000Y-94416000D01*
X169493000Y-94414000D01*
X169494000Y-94411000D01*
X169496000Y-94409000D01*
X169497000Y-94407000D01*
X169499000Y-94405000D01*
X169500000Y-94403000D01*
X169502000Y-94401000D01*
X169504000Y-94399000D01*
X169506000Y-94398000D01*
X169508000Y-94396000D01*
X169510000Y-94395000D01*
X169513000Y-94393000D01*
X169515000Y-94392000D01*
X169517000Y-94391000D01*
X169520000Y-94390000D01*
X169522000Y-94389000D01*
X169525000Y-94388000D01*
X169527000Y-94388000D01*
X169530000Y-94387000D01*
X169532000Y-94387000D01*
X169535000Y-94387000D01*
X169537000Y-94386000D01*
X170163000Y-94386000D01*
X170165000Y-94387000D01*
G37*
X171841000Y-94387000D02*
X171844000Y-94387000D01*
X171846000Y-94387000D01*
X171849000Y-94388000D01*
X171851000Y-94388000D01*
X171854000Y-94389000D01*
X171856000Y-94390000D01*
X171859000Y-94391000D01*
X171861000Y-94392000D01*
X171863000Y-94393000D01*
X171866000Y-94395000D01*
X171868000Y-94396000D01*
X171870000Y-94398000D01*
X171872000Y-94399000D01*
X171874000Y-94401000D01*
X171876000Y-94403000D01*
X171877000Y-94405000D01*
X171879000Y-94407000D01*
X171880000Y-94409000D01*
X171882000Y-94411000D01*
X171883000Y-94414000D01*
X171884000Y-94416000D01*
X171885000Y-94419000D01*
X171886000Y-94421000D01*
X171887000Y-94424000D01*
X171887000Y-94426000D01*
X171888000Y-94429000D01*
X171888000Y-94431000D01*
X171888000Y-94434000D01*
X171888000Y-94437000D01*
X171888000Y-96206000D01*
X171888000Y-96209000D01*
X171888000Y-96212000D01*
X171888000Y-96214000D01*
X171887000Y-96217000D01*
X171887000Y-96219000D01*
X171886000Y-96222000D01*
X171885000Y-96224000D01*
X171884000Y-96227000D01*
X171883000Y-96229000D01*
X171882000Y-96232000D01*
X171880000Y-96234000D01*
X171879000Y-96236000D01*
X171877000Y-96238000D01*
X171876000Y-96240000D01*
X171874000Y-96242000D01*
X171872000Y-96244000D01*
X171870000Y-96245000D01*
X171868000Y-96247000D01*
X171866000Y-96248000D01*
X171863000Y-96250000D01*
X171861000Y-96251000D01*
X171859000Y-96252000D01*
X171856000Y-96253000D01*
X171854000Y-96254000D01*
X171851000Y-96255000D01*
X171849000Y-96255000D01*
X171846000Y-96256000D01*
X171844000Y-96256000D01*
X171841000Y-96256000D01*
X171839000Y-96256000D01*
X171838500Y-96256500D01*
X171213000Y-96256000D01*
X171211000Y-96256000D01*
X171208000Y-96256000D01*
X171206000Y-96256000D01*
X171203000Y-96255000D01*
X171201000Y-96255000D01*
X171198000Y-96254000D01*
X171196000Y-96253000D01*
X171193000Y-96252000D01*
X171191000Y-96251000D01*
X171188000Y-96250000D01*
X171186000Y-96248000D01*
X171184000Y-96247000D01*
X171182000Y-96245000D01*
X171180000Y-96244000D01*
X171178000Y-96242000D01*
X171176000Y-96240000D01*
X171175000Y-96238000D01*
X171173000Y-96236000D01*
X171172000Y-96234000D01*
X171170000Y-96232000D01*
X171169000Y-96229000D01*
X171168000Y-96227000D01*
X171167000Y-96224000D01*
X171166000Y-96222000D01*
X171165000Y-96219000D01*
X171165000Y-96217000D01*
X171164000Y-96214000D01*
X171164000Y-96212000D01*
X171164000Y-96209000D01*
X171163000Y-96206000D01*
X171163000Y-94437000D01*
X171164000Y-94434000D01*
X171164000Y-94431000D01*
X171164000Y-94429000D01*
X171165000Y-94426000D01*
X171165000Y-94424000D01*
X171166000Y-94421000D01*
X171167000Y-94419000D01*
X171168000Y-94416000D01*
X171169000Y-94414000D01*
X171170000Y-94411000D01*
X171172000Y-94409000D01*
X171173000Y-94407000D01*
X171175000Y-94405000D01*
X171176000Y-94403000D01*
X171178000Y-94401000D01*
X171180000Y-94399000D01*
X171182000Y-94398000D01*
X171184000Y-94396000D01*
X171186000Y-94395000D01*
X171188000Y-94393000D01*
X171191000Y-94392000D01*
X171193000Y-94391000D01*
X171196000Y-94390000D01*
X171198000Y-94389000D01*
X171201000Y-94388000D01*
X171203000Y-94388000D01*
X171206000Y-94387000D01*
X171208000Y-94387000D01*
X171211000Y-94387000D01*
X171213000Y-94386000D01*
X171839000Y-94386000D01*
X171841000Y-94387000D01*
G36*
X171841000Y-94387000D02*
G01*
X171844000Y-94387000D01*
X171846000Y-94387000D01*
X171849000Y-94388000D01*
X171851000Y-94388000D01*
X171854000Y-94389000D01*
X171856000Y-94390000D01*
X171859000Y-94391000D01*
X171861000Y-94392000D01*
X171863000Y-94393000D01*
X171866000Y-94395000D01*
X171868000Y-94396000D01*
X171870000Y-94398000D01*
X171872000Y-94399000D01*
X171874000Y-94401000D01*
X171876000Y-94403000D01*
X171877000Y-94405000D01*
X171879000Y-94407000D01*
X171880000Y-94409000D01*
X171882000Y-94411000D01*
X171883000Y-94414000D01*
X171884000Y-94416000D01*
X171885000Y-94419000D01*
X171886000Y-94421000D01*
X171887000Y-94424000D01*
X171887000Y-94426000D01*
X171888000Y-94429000D01*
X171888000Y-94431000D01*
X171888000Y-94434000D01*
X171888000Y-94437000D01*
X171888000Y-96206000D01*
X171888000Y-96209000D01*
X171888000Y-96212000D01*
X171888000Y-96214000D01*
X171887000Y-96217000D01*
X171887000Y-96219000D01*
X171886000Y-96222000D01*
X171885000Y-96224000D01*
X171884000Y-96227000D01*
X171883000Y-96229000D01*
X171882000Y-96232000D01*
X171880000Y-96234000D01*
X171879000Y-96236000D01*
X171877000Y-96238000D01*
X171876000Y-96240000D01*
X171874000Y-96242000D01*
X171872000Y-96244000D01*
X171870000Y-96245000D01*
X171868000Y-96247000D01*
X171866000Y-96248000D01*
X171863000Y-96250000D01*
X171861000Y-96251000D01*
X171859000Y-96252000D01*
X171856000Y-96253000D01*
X171854000Y-96254000D01*
X171851000Y-96255000D01*
X171849000Y-96255000D01*
X171846000Y-96256000D01*
X171844000Y-96256000D01*
X171841000Y-96256000D01*
X171839000Y-96256000D01*
X171838500Y-96256500D01*
X171213000Y-96256000D01*
X171211000Y-96256000D01*
X171208000Y-96256000D01*
X171206000Y-96256000D01*
X171203000Y-96255000D01*
X171201000Y-96255000D01*
X171198000Y-96254000D01*
X171196000Y-96253000D01*
X171193000Y-96252000D01*
X171191000Y-96251000D01*
X171188000Y-96250000D01*
X171186000Y-96248000D01*
X171184000Y-96247000D01*
X171182000Y-96245000D01*
X171180000Y-96244000D01*
X171178000Y-96242000D01*
X171176000Y-96240000D01*
X171175000Y-96238000D01*
X171173000Y-96236000D01*
X171172000Y-96234000D01*
X171170000Y-96232000D01*
X171169000Y-96229000D01*
X171168000Y-96227000D01*
X171167000Y-96224000D01*
X171166000Y-96222000D01*
X171165000Y-96219000D01*
X171165000Y-96217000D01*
X171164000Y-96214000D01*
X171164000Y-96212000D01*
X171164000Y-96209000D01*
X171163000Y-96206000D01*
X171163000Y-94437000D01*
X171164000Y-94434000D01*
X171164000Y-94431000D01*
X171164000Y-94429000D01*
X171165000Y-94426000D01*
X171165000Y-94424000D01*
X171166000Y-94421000D01*
X171167000Y-94419000D01*
X171168000Y-94416000D01*
X171169000Y-94414000D01*
X171170000Y-94411000D01*
X171172000Y-94409000D01*
X171173000Y-94407000D01*
X171175000Y-94405000D01*
X171176000Y-94403000D01*
X171178000Y-94401000D01*
X171180000Y-94399000D01*
X171182000Y-94398000D01*
X171184000Y-94396000D01*
X171186000Y-94395000D01*
X171188000Y-94393000D01*
X171191000Y-94392000D01*
X171193000Y-94391000D01*
X171196000Y-94390000D01*
X171198000Y-94389000D01*
X171201000Y-94388000D01*
X171203000Y-94388000D01*
X171206000Y-94387000D01*
X171208000Y-94387000D01*
X171211000Y-94387000D01*
X171213000Y-94386000D01*
X171839000Y-94386000D01*
X171841000Y-94387000D01*
G37*
X170021000Y-91785000D02*
X170023000Y-91785000D01*
X170026000Y-91786000D01*
X170028000Y-91786000D01*
X170031000Y-91787000D01*
X170033000Y-91788000D01*
X170036000Y-91789000D01*
X170038000Y-91791000D01*
X170040000Y-91792000D01*
X170042000Y-91794000D01*
X170044000Y-91795000D01*
X170046000Y-91797000D01*
X170048000Y-91799000D01*
X170050000Y-91801000D01*
X170052000Y-91803000D01*
X170053000Y-91805000D01*
X170055000Y-91807000D01*
X170056000Y-91809000D01*
X170058000Y-91811000D01*
X170059000Y-91814000D01*
X170060000Y-91816000D01*
X170061000Y-91819000D01*
X170061000Y-91821000D01*
X170062000Y-91824000D01*
X170062000Y-91826000D01*
X170063000Y-91829000D01*
X170063000Y-91831000D01*
X170063000Y-91834000D01*
X170063000Y-92334000D01*
X170063000Y-92337000D01*
X170063000Y-92339000D01*
X170062000Y-92342000D01*
X170062000Y-92344000D01*
X170061000Y-92347000D01*
X170061000Y-92349000D01*
X170060000Y-92352000D01*
X170059000Y-92354000D01*
X170058000Y-92357000D01*
X170056000Y-92359000D01*
X170055000Y-92361000D01*
X170053000Y-92363000D01*
X170052000Y-92365000D01*
X170050000Y-92367000D01*
X170048000Y-92369000D01*
X170046000Y-92371000D01*
X170044000Y-92373000D01*
X170042000Y-92374000D01*
X170040000Y-92376000D01*
X170038000Y-92377000D01*
X170036000Y-92379000D01*
X170033000Y-92380000D01*
X170031000Y-92381000D01*
X170028000Y-92382000D01*
X170026000Y-92382000D01*
X170023000Y-92383000D01*
X170021000Y-92383000D01*
X170018000Y-92384000D01*
X170016000Y-92384000D01*
X170013000Y-92384000D01*
X168888000Y-92384000D01*
X168885000Y-92384000D01*
X168883000Y-92384000D01*
X168880000Y-92383000D01*
X168878000Y-92383000D01*
X168875000Y-92382000D01*
X168873000Y-92382000D01*
X168870000Y-92381000D01*
X168868000Y-92380000D01*
X168865000Y-92379000D01*
X168863000Y-92377000D01*
X168861000Y-92376000D01*
X168859000Y-92374000D01*
X168857000Y-92373000D01*
X168855000Y-92371000D01*
X168853000Y-92369000D01*
X168851000Y-92367000D01*
X168849000Y-92365000D01*
X168848000Y-92363000D01*
X168846000Y-92361000D01*
X168845000Y-92359000D01*
X168843000Y-92357000D01*
X168842000Y-92354000D01*
X168841000Y-92352000D01*
X168840000Y-92349000D01*
X168840000Y-92347000D01*
X168839000Y-92344000D01*
X168839000Y-92342000D01*
X168838000Y-92339000D01*
X168838000Y-92337000D01*
X168838000Y-92334000D01*
X168838000Y-92184000D01*
X168838000Y-92181000D01*
X168838000Y-92179000D01*
X168839000Y-92176000D01*
X168839000Y-92174000D01*
X168840000Y-92171000D01*
X168840000Y-92169000D01*
X168841000Y-92166000D01*
X168842000Y-92164000D01*
X168843000Y-92161000D01*
X168845000Y-92159000D01*
X168846000Y-92157000D01*
X168848000Y-92155000D01*
X168849000Y-92153000D01*
X168851000Y-92151000D01*
X168853000Y-92149000D01*
X168855000Y-92147000D01*
X168857000Y-92145000D01*
X168859000Y-92144000D01*
X168861000Y-92142000D01*
X168863000Y-92141000D01*
X168865000Y-92139000D01*
X168868000Y-92138000D01*
X168870000Y-92137000D01*
X168873000Y-92136000D01*
X168875000Y-92136000D01*
X168878000Y-92135000D01*
X168880000Y-92135000D01*
X168883000Y-92134000D01*
X168885000Y-92134000D01*
X168888000Y-92134000D01*
X169613000Y-92134000D01*
X169618000Y-92134000D01*
X169623000Y-92133000D01*
X169629000Y-92133000D01*
X169634000Y-92132000D01*
X169639000Y-92131000D01*
X169644000Y-92129000D01*
X169649000Y-92127000D01*
X169654000Y-92125000D01*
X169658000Y-92123000D01*
X169663000Y-92121000D01*
X169667000Y-92118000D01*
X169672000Y-92115000D01*
X169676000Y-92112000D01*
X169680000Y-92108000D01*
X169684000Y-92105000D01*
X169687000Y-92101000D01*
X169691000Y-92097000D01*
X169694000Y-92093000D01*
X169697000Y-92088000D01*
X169700000Y-92084000D01*
X169702000Y-92079000D01*
X169704000Y-92075000D01*
X169706000Y-92070000D01*
X169708000Y-92065000D01*
X169710000Y-92060000D01*
X169711000Y-92055000D01*
X169712000Y-92050000D01*
X169712000Y-92044000D01*
X169713000Y-92039000D01*
X169713000Y-92034000D01*
X169713000Y-91834000D01*
X169713000Y-91831000D01*
X169713000Y-91829000D01*
X169714000Y-91826000D01*
X169714000Y-91824000D01*
X169715000Y-91821000D01*
X169715000Y-91819000D01*
X169716000Y-91816000D01*
X169717000Y-91814000D01*
X169718000Y-91811000D01*
X169720000Y-91809000D01*
X169721000Y-91807000D01*
X169723000Y-91805000D01*
X169724000Y-91803000D01*
X169726000Y-91801000D01*
X169728000Y-91799000D01*
X169730000Y-91797000D01*
X169732000Y-91795000D01*
X169734000Y-91794000D01*
X169736000Y-91792000D01*
X169738000Y-91791000D01*
X169740000Y-91789000D01*
X169743000Y-91788000D01*
X169745000Y-91787000D01*
X169748000Y-91786000D01*
X169750000Y-91786000D01*
X169753000Y-91785000D01*
X169755000Y-91785000D01*
X169758000Y-91784000D01*
X169760000Y-91784000D01*
X169763000Y-91784000D01*
X170013000Y-91784000D01*
X170016000Y-91784000D01*
X170018000Y-91784000D01*
X170021000Y-91785000D01*
G36*
X170021000Y-91785000D02*
G01*
X170023000Y-91785000D01*
X170026000Y-91786000D01*
X170028000Y-91786000D01*
X170031000Y-91787000D01*
X170033000Y-91788000D01*
X170036000Y-91789000D01*
X170038000Y-91791000D01*
X170040000Y-91792000D01*
X170042000Y-91794000D01*
X170044000Y-91795000D01*
X170046000Y-91797000D01*
X170048000Y-91799000D01*
X170050000Y-91801000D01*
X170052000Y-91803000D01*
X170053000Y-91805000D01*
X170055000Y-91807000D01*
X170056000Y-91809000D01*
X170058000Y-91811000D01*
X170059000Y-91814000D01*
X170060000Y-91816000D01*
X170061000Y-91819000D01*
X170061000Y-91821000D01*
X170062000Y-91824000D01*
X170062000Y-91826000D01*
X170063000Y-91829000D01*
X170063000Y-91831000D01*
X170063000Y-91834000D01*
X170063000Y-92334000D01*
X170063000Y-92337000D01*
X170063000Y-92339000D01*
X170062000Y-92342000D01*
X170062000Y-92344000D01*
X170061000Y-92347000D01*
X170061000Y-92349000D01*
X170060000Y-92352000D01*
X170059000Y-92354000D01*
X170058000Y-92357000D01*
X170056000Y-92359000D01*
X170055000Y-92361000D01*
X170053000Y-92363000D01*
X170052000Y-92365000D01*
X170050000Y-92367000D01*
X170048000Y-92369000D01*
X170046000Y-92371000D01*
X170044000Y-92373000D01*
X170042000Y-92374000D01*
X170040000Y-92376000D01*
X170038000Y-92377000D01*
X170036000Y-92379000D01*
X170033000Y-92380000D01*
X170031000Y-92381000D01*
X170028000Y-92382000D01*
X170026000Y-92382000D01*
X170023000Y-92383000D01*
X170021000Y-92383000D01*
X170018000Y-92384000D01*
X170016000Y-92384000D01*
X170013000Y-92384000D01*
X168888000Y-92384000D01*
X168885000Y-92384000D01*
X168883000Y-92384000D01*
X168880000Y-92383000D01*
X168878000Y-92383000D01*
X168875000Y-92382000D01*
X168873000Y-92382000D01*
X168870000Y-92381000D01*
X168868000Y-92380000D01*
X168865000Y-92379000D01*
X168863000Y-92377000D01*
X168861000Y-92376000D01*
X168859000Y-92374000D01*
X168857000Y-92373000D01*
X168855000Y-92371000D01*
X168853000Y-92369000D01*
X168851000Y-92367000D01*
X168849000Y-92365000D01*
X168848000Y-92363000D01*
X168846000Y-92361000D01*
X168845000Y-92359000D01*
X168843000Y-92357000D01*
X168842000Y-92354000D01*
X168841000Y-92352000D01*
X168840000Y-92349000D01*
X168840000Y-92347000D01*
X168839000Y-92344000D01*
X168839000Y-92342000D01*
X168838000Y-92339000D01*
X168838000Y-92337000D01*
X168838000Y-92334000D01*
X168838000Y-92184000D01*
X168838000Y-92181000D01*
X168838000Y-92179000D01*
X168839000Y-92176000D01*
X168839000Y-92174000D01*
X168840000Y-92171000D01*
X168840000Y-92169000D01*
X168841000Y-92166000D01*
X168842000Y-92164000D01*
X168843000Y-92161000D01*
X168845000Y-92159000D01*
X168846000Y-92157000D01*
X168848000Y-92155000D01*
X168849000Y-92153000D01*
X168851000Y-92151000D01*
X168853000Y-92149000D01*
X168855000Y-92147000D01*
X168857000Y-92145000D01*
X168859000Y-92144000D01*
X168861000Y-92142000D01*
X168863000Y-92141000D01*
X168865000Y-92139000D01*
X168868000Y-92138000D01*
X168870000Y-92137000D01*
X168873000Y-92136000D01*
X168875000Y-92136000D01*
X168878000Y-92135000D01*
X168880000Y-92135000D01*
X168883000Y-92134000D01*
X168885000Y-92134000D01*
X168888000Y-92134000D01*
X169613000Y-92134000D01*
X169618000Y-92134000D01*
X169623000Y-92133000D01*
X169629000Y-92133000D01*
X169634000Y-92132000D01*
X169639000Y-92131000D01*
X169644000Y-92129000D01*
X169649000Y-92127000D01*
X169654000Y-92125000D01*
X169658000Y-92123000D01*
X169663000Y-92121000D01*
X169667000Y-92118000D01*
X169672000Y-92115000D01*
X169676000Y-92112000D01*
X169680000Y-92108000D01*
X169684000Y-92105000D01*
X169687000Y-92101000D01*
X169691000Y-92097000D01*
X169694000Y-92093000D01*
X169697000Y-92088000D01*
X169700000Y-92084000D01*
X169702000Y-92079000D01*
X169704000Y-92075000D01*
X169706000Y-92070000D01*
X169708000Y-92065000D01*
X169710000Y-92060000D01*
X169711000Y-92055000D01*
X169712000Y-92050000D01*
X169712000Y-92044000D01*
X169713000Y-92039000D01*
X169713000Y-92034000D01*
X169713000Y-91834000D01*
X169713000Y-91831000D01*
X169713000Y-91829000D01*
X169714000Y-91826000D01*
X169714000Y-91824000D01*
X169715000Y-91821000D01*
X169715000Y-91819000D01*
X169716000Y-91816000D01*
X169717000Y-91814000D01*
X169718000Y-91811000D01*
X169720000Y-91809000D01*
X169721000Y-91807000D01*
X169723000Y-91805000D01*
X169724000Y-91803000D01*
X169726000Y-91801000D01*
X169728000Y-91799000D01*
X169730000Y-91797000D01*
X169732000Y-91795000D01*
X169734000Y-91794000D01*
X169736000Y-91792000D01*
X169738000Y-91791000D01*
X169740000Y-91789000D01*
X169743000Y-91788000D01*
X169745000Y-91787000D01*
X169748000Y-91786000D01*
X169750000Y-91786000D01*
X169753000Y-91785000D01*
X169755000Y-91785000D01*
X169758000Y-91784000D01*
X169760000Y-91784000D01*
X169763000Y-91784000D01*
X170013000Y-91784000D01*
X170016000Y-91784000D01*
X170018000Y-91784000D01*
X170021000Y-91785000D01*
G37*
X171621000Y-91785000D02*
X171623000Y-91785000D01*
X171626000Y-91786000D01*
X171628000Y-91786000D01*
X171631000Y-91787000D01*
X171633000Y-91788000D01*
X171636000Y-91789000D01*
X171638000Y-91791000D01*
X171640000Y-91792000D01*
X171642000Y-91794000D01*
X171644000Y-91795000D01*
X171646000Y-91797000D01*
X171648000Y-91799000D01*
X171650000Y-91801000D01*
X171652000Y-91803000D01*
X171653000Y-91805000D01*
X171655000Y-91807000D01*
X171656000Y-91809000D01*
X171658000Y-91811000D01*
X171659000Y-91814000D01*
X171660000Y-91816000D01*
X171661000Y-91819000D01*
X171661000Y-91821000D01*
X171662000Y-91824000D01*
X171662000Y-91826000D01*
X171663000Y-91829000D01*
X171663000Y-91831000D01*
X171663000Y-91834000D01*
X171663000Y-92034000D01*
X171663000Y-92039000D01*
X171664000Y-92044000D01*
X171664000Y-92050000D01*
X171665000Y-92055000D01*
X171666000Y-92060000D01*
X171668000Y-92065000D01*
X171670000Y-92070000D01*
X171672000Y-92075000D01*
X171674000Y-92079000D01*
X171676000Y-92084000D01*
X171679000Y-92088000D01*
X171682000Y-92093000D01*
X171685000Y-92097000D01*
X171689000Y-92101000D01*
X171692000Y-92105000D01*
X171696000Y-92108000D01*
X171700000Y-92112000D01*
X171704000Y-92115000D01*
X171709000Y-92118000D01*
X171713000Y-92121000D01*
X171718000Y-92123000D01*
X171722000Y-92125000D01*
X171727000Y-92127000D01*
X171732000Y-92129000D01*
X171737000Y-92131000D01*
X171742000Y-92132000D01*
X171747000Y-92133000D01*
X171753000Y-92133000D01*
X171758000Y-92134000D01*
X171763000Y-92134000D01*
X172488000Y-92134000D01*
X172491000Y-92134000D01*
X172493000Y-92134000D01*
X172496000Y-92135000D01*
X172498000Y-92135000D01*
X172501000Y-92136000D01*
X172503000Y-92136000D01*
X172506000Y-92137000D01*
X172508000Y-92138000D01*
X172511000Y-92139000D01*
X172513000Y-92141000D01*
X172515000Y-92142000D01*
X172517000Y-92144000D01*
X172519000Y-92145000D01*
X172521000Y-92147000D01*
X172523000Y-92149000D01*
X172525000Y-92151000D01*
X172527000Y-92153000D01*
X172528000Y-92155000D01*
X172530000Y-92157000D01*
X172531000Y-92159000D01*
X172533000Y-92161000D01*
X172534000Y-92164000D01*
X172535000Y-92166000D01*
X172536000Y-92169000D01*
X172536000Y-92171000D01*
X172537000Y-92174000D01*
X172537000Y-92176000D01*
X172538000Y-92179000D01*
X172538000Y-92181000D01*
X172538000Y-92184000D01*
X172538000Y-92334000D01*
X172538000Y-92337000D01*
X172538000Y-92339000D01*
X172537000Y-92342000D01*
X172537000Y-92344000D01*
X172536000Y-92347000D01*
X172536000Y-92349000D01*
X172535000Y-92352000D01*
X172534000Y-92354000D01*
X172533000Y-92357000D01*
X172531000Y-92359000D01*
X172530000Y-92361000D01*
X172528000Y-92363000D01*
X172527000Y-92365000D01*
X172525000Y-92367000D01*
X172523000Y-92369000D01*
X172521000Y-92371000D01*
X172519000Y-92373000D01*
X172517000Y-92374000D01*
X172515000Y-92376000D01*
X172513000Y-92377000D01*
X172511000Y-92379000D01*
X172508000Y-92380000D01*
X172506000Y-92381000D01*
X172503000Y-92382000D01*
X172501000Y-92382000D01*
X172498000Y-92383000D01*
X172496000Y-92383000D01*
X172493000Y-92384000D01*
X172491000Y-92384000D01*
X172488000Y-92384000D01*
X171363000Y-92384000D01*
X171360000Y-92384000D01*
X171358000Y-92384000D01*
X171355000Y-92383000D01*
X171353000Y-92383000D01*
X171350000Y-92382000D01*
X171348000Y-92382000D01*
X171345000Y-92381000D01*
X171343000Y-92380000D01*
X171340000Y-92379000D01*
X171338000Y-92377000D01*
X171336000Y-92376000D01*
X171334000Y-92374000D01*
X171332000Y-92373000D01*
X171330000Y-92371000D01*
X171328000Y-92369000D01*
X171326000Y-92367000D01*
X171324000Y-92365000D01*
X171323000Y-92363000D01*
X171321000Y-92361000D01*
X171320000Y-92359000D01*
X171318000Y-92357000D01*
X171317000Y-92354000D01*
X171316000Y-92352000D01*
X171315000Y-92349000D01*
X171315000Y-92347000D01*
X171314000Y-92344000D01*
X171314000Y-92342000D01*
X171313000Y-92339000D01*
X171313000Y-92337000D01*
X171313000Y-92334000D01*
X171313000Y-91834000D01*
X171313000Y-91831000D01*
X171313000Y-91829000D01*
X171314000Y-91826000D01*
X171314000Y-91824000D01*
X171315000Y-91821000D01*
X171315000Y-91819000D01*
X171316000Y-91816000D01*
X171317000Y-91814000D01*
X171318000Y-91811000D01*
X171320000Y-91809000D01*
X171321000Y-91807000D01*
X171323000Y-91805000D01*
X171324000Y-91803000D01*
X171326000Y-91801000D01*
X171328000Y-91799000D01*
X171330000Y-91797000D01*
X171332000Y-91795000D01*
X171334000Y-91794000D01*
X171336000Y-91792000D01*
X171338000Y-91791000D01*
X171340000Y-91789000D01*
X171343000Y-91788000D01*
X171345000Y-91787000D01*
X171348000Y-91786000D01*
X171350000Y-91786000D01*
X171353000Y-91785000D01*
X171355000Y-91785000D01*
X171358000Y-91784000D01*
X171360000Y-91784000D01*
X171363000Y-91784000D01*
X171613000Y-91784000D01*
X171616000Y-91784000D01*
X171618000Y-91784000D01*
X171621000Y-91785000D01*
G36*
X171621000Y-91785000D02*
G01*
X171623000Y-91785000D01*
X171626000Y-91786000D01*
X171628000Y-91786000D01*
X171631000Y-91787000D01*
X171633000Y-91788000D01*
X171636000Y-91789000D01*
X171638000Y-91791000D01*
X171640000Y-91792000D01*
X171642000Y-91794000D01*
X171644000Y-91795000D01*
X171646000Y-91797000D01*
X171648000Y-91799000D01*
X171650000Y-91801000D01*
X171652000Y-91803000D01*
X171653000Y-91805000D01*
X171655000Y-91807000D01*
X171656000Y-91809000D01*
X171658000Y-91811000D01*
X171659000Y-91814000D01*
X171660000Y-91816000D01*
X171661000Y-91819000D01*
X171661000Y-91821000D01*
X171662000Y-91824000D01*
X171662000Y-91826000D01*
X171663000Y-91829000D01*
X171663000Y-91831000D01*
X171663000Y-91834000D01*
X171663000Y-92034000D01*
X171663000Y-92039000D01*
X171664000Y-92044000D01*
X171664000Y-92050000D01*
X171665000Y-92055000D01*
X171666000Y-92060000D01*
X171668000Y-92065000D01*
X171670000Y-92070000D01*
X171672000Y-92075000D01*
X171674000Y-92079000D01*
X171676000Y-92084000D01*
X171679000Y-92088000D01*
X171682000Y-92093000D01*
X171685000Y-92097000D01*
X171689000Y-92101000D01*
X171692000Y-92105000D01*
X171696000Y-92108000D01*
X171700000Y-92112000D01*
X171704000Y-92115000D01*
X171709000Y-92118000D01*
X171713000Y-92121000D01*
X171718000Y-92123000D01*
X171722000Y-92125000D01*
X171727000Y-92127000D01*
X171732000Y-92129000D01*
X171737000Y-92131000D01*
X171742000Y-92132000D01*
X171747000Y-92133000D01*
X171753000Y-92133000D01*
X171758000Y-92134000D01*
X171763000Y-92134000D01*
X172488000Y-92134000D01*
X172491000Y-92134000D01*
X172493000Y-92134000D01*
X172496000Y-92135000D01*
X172498000Y-92135000D01*
X172501000Y-92136000D01*
X172503000Y-92136000D01*
X172506000Y-92137000D01*
X172508000Y-92138000D01*
X172511000Y-92139000D01*
X172513000Y-92141000D01*
X172515000Y-92142000D01*
X172517000Y-92144000D01*
X172519000Y-92145000D01*
X172521000Y-92147000D01*
X172523000Y-92149000D01*
X172525000Y-92151000D01*
X172527000Y-92153000D01*
X172528000Y-92155000D01*
X172530000Y-92157000D01*
X172531000Y-92159000D01*
X172533000Y-92161000D01*
X172534000Y-92164000D01*
X172535000Y-92166000D01*
X172536000Y-92169000D01*
X172536000Y-92171000D01*
X172537000Y-92174000D01*
X172537000Y-92176000D01*
X172538000Y-92179000D01*
X172538000Y-92181000D01*
X172538000Y-92184000D01*
X172538000Y-92334000D01*
X172538000Y-92337000D01*
X172538000Y-92339000D01*
X172537000Y-92342000D01*
X172537000Y-92344000D01*
X172536000Y-92347000D01*
X172536000Y-92349000D01*
X172535000Y-92352000D01*
X172534000Y-92354000D01*
X172533000Y-92357000D01*
X172531000Y-92359000D01*
X172530000Y-92361000D01*
X172528000Y-92363000D01*
X172527000Y-92365000D01*
X172525000Y-92367000D01*
X172523000Y-92369000D01*
X172521000Y-92371000D01*
X172519000Y-92373000D01*
X172517000Y-92374000D01*
X172515000Y-92376000D01*
X172513000Y-92377000D01*
X172511000Y-92379000D01*
X172508000Y-92380000D01*
X172506000Y-92381000D01*
X172503000Y-92382000D01*
X172501000Y-92382000D01*
X172498000Y-92383000D01*
X172496000Y-92383000D01*
X172493000Y-92384000D01*
X172491000Y-92384000D01*
X172488000Y-92384000D01*
X171363000Y-92384000D01*
X171360000Y-92384000D01*
X171358000Y-92384000D01*
X171355000Y-92383000D01*
X171353000Y-92383000D01*
X171350000Y-92382000D01*
X171348000Y-92382000D01*
X171345000Y-92381000D01*
X171343000Y-92380000D01*
X171340000Y-92379000D01*
X171338000Y-92377000D01*
X171336000Y-92376000D01*
X171334000Y-92374000D01*
X171332000Y-92373000D01*
X171330000Y-92371000D01*
X171328000Y-92369000D01*
X171326000Y-92367000D01*
X171324000Y-92365000D01*
X171323000Y-92363000D01*
X171321000Y-92361000D01*
X171320000Y-92359000D01*
X171318000Y-92357000D01*
X171317000Y-92354000D01*
X171316000Y-92352000D01*
X171315000Y-92349000D01*
X171315000Y-92347000D01*
X171314000Y-92344000D01*
X171314000Y-92342000D01*
X171313000Y-92339000D01*
X171313000Y-92337000D01*
X171313000Y-92334000D01*
X171313000Y-91834000D01*
X171313000Y-91831000D01*
X171313000Y-91829000D01*
X171314000Y-91826000D01*
X171314000Y-91824000D01*
X171315000Y-91821000D01*
X171315000Y-91819000D01*
X171316000Y-91816000D01*
X171317000Y-91814000D01*
X171318000Y-91811000D01*
X171320000Y-91809000D01*
X171321000Y-91807000D01*
X171323000Y-91805000D01*
X171324000Y-91803000D01*
X171326000Y-91801000D01*
X171328000Y-91799000D01*
X171330000Y-91797000D01*
X171332000Y-91795000D01*
X171334000Y-91794000D01*
X171336000Y-91792000D01*
X171338000Y-91791000D01*
X171340000Y-91789000D01*
X171343000Y-91788000D01*
X171345000Y-91787000D01*
X171348000Y-91786000D01*
X171350000Y-91786000D01*
X171353000Y-91785000D01*
X171355000Y-91785000D01*
X171358000Y-91784000D01*
X171360000Y-91784000D01*
X171363000Y-91784000D01*
X171613000Y-91784000D01*
X171616000Y-91784000D01*
X171618000Y-91784000D01*
X171621000Y-91785000D01*
G37*
X172496000Y-92635000D02*
X172498000Y-92635000D01*
X172501000Y-92636000D01*
X172503000Y-92636000D01*
X172506000Y-92637000D01*
X172508000Y-92638000D01*
X172511000Y-92639000D01*
X172513000Y-92641000D01*
X172515000Y-92642000D01*
X172517000Y-92644000D01*
X172519000Y-92645000D01*
X172521000Y-92647000D01*
X172523000Y-92649000D01*
X172525000Y-92651000D01*
X172527000Y-92653000D01*
X172528000Y-92655000D01*
X172530000Y-92657000D01*
X172531000Y-92659000D01*
X172533000Y-92661000D01*
X172534000Y-92664000D01*
X172535000Y-92666000D01*
X172536000Y-92669000D01*
X172536000Y-92671000D01*
X172537000Y-92674000D01*
X172537000Y-92676000D01*
X172538000Y-92679000D01*
X172538000Y-92681000D01*
X172538000Y-92684000D01*
X172538000Y-92834000D01*
X172538000Y-92837000D01*
X172538000Y-92839000D01*
X172537000Y-92842000D01*
X172537000Y-92844000D01*
X172536000Y-92847000D01*
X172536000Y-92849000D01*
X172535000Y-92852000D01*
X172534000Y-92854000D01*
X172533000Y-92857000D01*
X172531000Y-92859000D01*
X172530000Y-92861000D01*
X172528000Y-92863000D01*
X172527000Y-92865000D01*
X172525000Y-92867000D01*
X172523000Y-92869000D01*
X172521000Y-92871000D01*
X172519000Y-92873000D01*
X172517000Y-92874000D01*
X172515000Y-92876000D01*
X172513000Y-92877000D01*
X172511000Y-92879000D01*
X172508000Y-92880000D01*
X172506000Y-92881000D01*
X172503000Y-92882000D01*
X172501000Y-92882000D01*
X172498000Y-92883000D01*
X172496000Y-92883000D01*
X172493000Y-92884000D01*
X172491000Y-92884000D01*
X172488000Y-92884000D01*
X172188000Y-92884000D01*
X172185000Y-92884000D01*
X172183000Y-92884000D01*
X172180000Y-92885000D01*
X172178000Y-92885000D01*
X172175000Y-92886000D01*
X172173000Y-92886000D01*
X172170000Y-92887000D01*
X172168000Y-92888000D01*
X172165000Y-92889000D01*
X172163000Y-92891000D01*
X172161000Y-92892000D01*
X172159000Y-92894000D01*
X172157000Y-92895000D01*
X172155000Y-92897000D01*
X172153000Y-92899000D01*
X172151000Y-92901000D01*
X172149000Y-92903000D01*
X172148000Y-92905000D01*
X172146000Y-92907000D01*
X172145000Y-92909000D01*
X172143000Y-92911000D01*
X172142000Y-92914000D01*
X172141000Y-92916000D01*
X172140000Y-92919000D01*
X172140000Y-92921000D01*
X172139000Y-92924000D01*
X172139000Y-92926000D01*
X172138000Y-92929000D01*
X172138000Y-92931000D01*
X172138000Y-92934000D01*
X172138000Y-93084000D01*
X172138000Y-93087000D01*
X172138000Y-93089000D01*
X172139000Y-93092000D01*
X172139000Y-93094000D01*
X172140000Y-93097000D01*
X172140000Y-93099000D01*
X172141000Y-93102000D01*
X172142000Y-93104000D01*
X172143000Y-93107000D01*
X172145000Y-93109000D01*
X172146000Y-93111000D01*
X172148000Y-93113000D01*
X172149000Y-93115000D01*
X172151000Y-93117000D01*
X172153000Y-93119000D01*
X172155000Y-93121000D01*
X172157000Y-93123000D01*
X172159000Y-93124000D01*
X172161000Y-93126000D01*
X172163000Y-93127000D01*
X172165000Y-93129000D01*
X172168000Y-93130000D01*
X172170000Y-93131000D01*
X172173000Y-93132000D01*
X172175000Y-93132000D01*
X172178000Y-93133000D01*
X172180000Y-93133000D01*
X172183000Y-93134000D01*
X172185000Y-93134000D01*
X172188000Y-93134000D01*
X172488000Y-93134000D01*
X172491000Y-93134000D01*
X172493000Y-93134000D01*
X172496000Y-93135000D01*
X172498000Y-93135000D01*
X172501000Y-93136000D01*
X172503000Y-93136000D01*
X172506000Y-93137000D01*
X172508000Y-93138000D01*
X172511000Y-93139000D01*
X172513000Y-93141000D01*
X172515000Y-93142000D01*
X172517000Y-93144000D01*
X172519000Y-93145000D01*
X172521000Y-93147000D01*
X172523000Y-93149000D01*
X172525000Y-93151000D01*
X172527000Y-93153000D01*
X172528000Y-93155000D01*
X172530000Y-93157000D01*
X172531000Y-93159000D01*
X172533000Y-93161000D01*
X172534000Y-93164000D01*
X172535000Y-93166000D01*
X172536000Y-93169000D01*
X172536000Y-93171000D01*
X172537000Y-93174000D01*
X172537000Y-93176000D01*
X172538000Y-93179000D01*
X172538000Y-93181000D01*
X172538000Y-93184000D01*
X172538000Y-93334000D01*
X172538000Y-93337000D01*
X172538000Y-93339000D01*
X172537000Y-93342000D01*
X172537000Y-93344000D01*
X172536000Y-93347000D01*
X172536000Y-93349000D01*
X172535000Y-93352000D01*
X172534000Y-93354000D01*
X172533000Y-93357000D01*
X172531000Y-93359000D01*
X172530000Y-93361000D01*
X172528000Y-93363000D01*
X172527000Y-93365000D01*
X172525000Y-93367000D01*
X172523000Y-93369000D01*
X172521000Y-93371000D01*
X172519000Y-93373000D01*
X172517000Y-93374000D01*
X172515000Y-93376000D01*
X172513000Y-93377000D01*
X172511000Y-93379000D01*
X172508000Y-93380000D01*
X172506000Y-93381000D01*
X172503000Y-93382000D01*
X172501000Y-93382000D01*
X172498000Y-93383000D01*
X172496000Y-93383000D01*
X172493000Y-93384000D01*
X172491000Y-93384000D01*
X172488000Y-93384000D01*
X171388000Y-93384000D01*
X171385000Y-93384000D01*
X171383000Y-93384000D01*
X171380000Y-93383000D01*
X171378000Y-93383000D01*
X171375000Y-93382000D01*
X171373000Y-93382000D01*
X171370000Y-93381000D01*
X171368000Y-93380000D01*
X171365000Y-93379000D01*
X171363000Y-93377000D01*
X171361000Y-93376000D01*
X171359000Y-93374000D01*
X171357000Y-93373000D01*
X171355000Y-93371000D01*
X171353000Y-93369000D01*
X171351000Y-93367000D01*
X171349000Y-93365000D01*
X171348000Y-93363000D01*
X171346000Y-93361000D01*
X171345000Y-93359000D01*
X171343000Y-93357000D01*
X171342000Y-93354000D01*
X171341000Y-93352000D01*
X171340000Y-93349000D01*
X171340000Y-93347000D01*
X171339000Y-93344000D01*
X171339000Y-93342000D01*
X171338000Y-93339000D01*
X171338000Y-93337000D01*
X171338000Y-93334000D01*
X171338000Y-92684000D01*
X171338000Y-92681000D01*
X171338000Y-92679000D01*
X171339000Y-92676000D01*
X171339000Y-92674000D01*
X171340000Y-92671000D01*
X171340000Y-92669000D01*
X171341000Y-92666000D01*
X171342000Y-92664000D01*
X171343000Y-92661000D01*
X171345000Y-92659000D01*
X171346000Y-92657000D01*
X171348000Y-92655000D01*
X171349000Y-92653000D01*
X171351000Y-92651000D01*
X171353000Y-92649000D01*
X171355000Y-92647000D01*
X171357000Y-92645000D01*
X171359000Y-92644000D01*
X171361000Y-92642000D01*
X171363000Y-92641000D01*
X171365000Y-92639000D01*
X171368000Y-92638000D01*
X171370000Y-92637000D01*
X171373000Y-92636000D01*
X171375000Y-92636000D01*
X171378000Y-92635000D01*
X171380000Y-92635000D01*
X171383000Y-92634000D01*
X171385000Y-92634000D01*
X171388000Y-92634000D01*
X172488000Y-92634000D01*
X172491000Y-92634000D01*
X172493000Y-92634000D01*
X172496000Y-92635000D01*
G36*
X172496000Y-92635000D02*
G01*
X172498000Y-92635000D01*
X172501000Y-92636000D01*
X172503000Y-92636000D01*
X172506000Y-92637000D01*
X172508000Y-92638000D01*
X172511000Y-92639000D01*
X172513000Y-92641000D01*
X172515000Y-92642000D01*
X172517000Y-92644000D01*
X172519000Y-92645000D01*
X172521000Y-92647000D01*
X172523000Y-92649000D01*
X172525000Y-92651000D01*
X172527000Y-92653000D01*
X172528000Y-92655000D01*
X172530000Y-92657000D01*
X172531000Y-92659000D01*
X172533000Y-92661000D01*
X172534000Y-92664000D01*
X172535000Y-92666000D01*
X172536000Y-92669000D01*
X172536000Y-92671000D01*
X172537000Y-92674000D01*
X172537000Y-92676000D01*
X172538000Y-92679000D01*
X172538000Y-92681000D01*
X172538000Y-92684000D01*
X172538000Y-92834000D01*
X172538000Y-92837000D01*
X172538000Y-92839000D01*
X172537000Y-92842000D01*
X172537000Y-92844000D01*
X172536000Y-92847000D01*
X172536000Y-92849000D01*
X172535000Y-92852000D01*
X172534000Y-92854000D01*
X172533000Y-92857000D01*
X172531000Y-92859000D01*
X172530000Y-92861000D01*
X172528000Y-92863000D01*
X172527000Y-92865000D01*
X172525000Y-92867000D01*
X172523000Y-92869000D01*
X172521000Y-92871000D01*
X172519000Y-92873000D01*
X172517000Y-92874000D01*
X172515000Y-92876000D01*
X172513000Y-92877000D01*
X172511000Y-92879000D01*
X172508000Y-92880000D01*
X172506000Y-92881000D01*
X172503000Y-92882000D01*
X172501000Y-92882000D01*
X172498000Y-92883000D01*
X172496000Y-92883000D01*
X172493000Y-92884000D01*
X172491000Y-92884000D01*
X172488000Y-92884000D01*
X172188000Y-92884000D01*
X172185000Y-92884000D01*
X172183000Y-92884000D01*
X172180000Y-92885000D01*
X172178000Y-92885000D01*
X172175000Y-92886000D01*
X172173000Y-92886000D01*
X172170000Y-92887000D01*
X172168000Y-92888000D01*
X172165000Y-92889000D01*
X172163000Y-92891000D01*
X172161000Y-92892000D01*
X172159000Y-92894000D01*
X172157000Y-92895000D01*
X172155000Y-92897000D01*
X172153000Y-92899000D01*
X172151000Y-92901000D01*
X172149000Y-92903000D01*
X172148000Y-92905000D01*
X172146000Y-92907000D01*
X172145000Y-92909000D01*
X172143000Y-92911000D01*
X172142000Y-92914000D01*
X172141000Y-92916000D01*
X172140000Y-92919000D01*
X172140000Y-92921000D01*
X172139000Y-92924000D01*
X172139000Y-92926000D01*
X172138000Y-92929000D01*
X172138000Y-92931000D01*
X172138000Y-92934000D01*
X172138000Y-93084000D01*
X172138000Y-93087000D01*
X172138000Y-93089000D01*
X172139000Y-93092000D01*
X172139000Y-93094000D01*
X172140000Y-93097000D01*
X172140000Y-93099000D01*
X172141000Y-93102000D01*
X172142000Y-93104000D01*
X172143000Y-93107000D01*
X172145000Y-93109000D01*
X172146000Y-93111000D01*
X172148000Y-93113000D01*
X172149000Y-93115000D01*
X172151000Y-93117000D01*
X172153000Y-93119000D01*
X172155000Y-93121000D01*
X172157000Y-93123000D01*
X172159000Y-93124000D01*
X172161000Y-93126000D01*
X172163000Y-93127000D01*
X172165000Y-93129000D01*
X172168000Y-93130000D01*
X172170000Y-93131000D01*
X172173000Y-93132000D01*
X172175000Y-93132000D01*
X172178000Y-93133000D01*
X172180000Y-93133000D01*
X172183000Y-93134000D01*
X172185000Y-93134000D01*
X172188000Y-93134000D01*
X172488000Y-93134000D01*
X172491000Y-93134000D01*
X172493000Y-93134000D01*
X172496000Y-93135000D01*
X172498000Y-93135000D01*
X172501000Y-93136000D01*
X172503000Y-93136000D01*
X172506000Y-93137000D01*
X172508000Y-93138000D01*
X172511000Y-93139000D01*
X172513000Y-93141000D01*
X172515000Y-93142000D01*
X172517000Y-93144000D01*
X172519000Y-93145000D01*
X172521000Y-93147000D01*
X172523000Y-93149000D01*
X172525000Y-93151000D01*
X172527000Y-93153000D01*
X172528000Y-93155000D01*
X172530000Y-93157000D01*
X172531000Y-93159000D01*
X172533000Y-93161000D01*
X172534000Y-93164000D01*
X172535000Y-93166000D01*
X172536000Y-93169000D01*
X172536000Y-93171000D01*
X172537000Y-93174000D01*
X172537000Y-93176000D01*
X172538000Y-93179000D01*
X172538000Y-93181000D01*
X172538000Y-93184000D01*
X172538000Y-93334000D01*
X172538000Y-93337000D01*
X172538000Y-93339000D01*
X172537000Y-93342000D01*
X172537000Y-93344000D01*
X172536000Y-93347000D01*
X172536000Y-93349000D01*
X172535000Y-93352000D01*
X172534000Y-93354000D01*
X172533000Y-93357000D01*
X172531000Y-93359000D01*
X172530000Y-93361000D01*
X172528000Y-93363000D01*
X172527000Y-93365000D01*
X172525000Y-93367000D01*
X172523000Y-93369000D01*
X172521000Y-93371000D01*
X172519000Y-93373000D01*
X172517000Y-93374000D01*
X172515000Y-93376000D01*
X172513000Y-93377000D01*
X172511000Y-93379000D01*
X172508000Y-93380000D01*
X172506000Y-93381000D01*
X172503000Y-93382000D01*
X172501000Y-93382000D01*
X172498000Y-93383000D01*
X172496000Y-93383000D01*
X172493000Y-93384000D01*
X172491000Y-93384000D01*
X172488000Y-93384000D01*
X171388000Y-93384000D01*
X171385000Y-93384000D01*
X171383000Y-93384000D01*
X171380000Y-93383000D01*
X171378000Y-93383000D01*
X171375000Y-93382000D01*
X171373000Y-93382000D01*
X171370000Y-93381000D01*
X171368000Y-93380000D01*
X171365000Y-93379000D01*
X171363000Y-93377000D01*
X171361000Y-93376000D01*
X171359000Y-93374000D01*
X171357000Y-93373000D01*
X171355000Y-93371000D01*
X171353000Y-93369000D01*
X171351000Y-93367000D01*
X171349000Y-93365000D01*
X171348000Y-93363000D01*
X171346000Y-93361000D01*
X171345000Y-93359000D01*
X171343000Y-93357000D01*
X171342000Y-93354000D01*
X171341000Y-93352000D01*
X171340000Y-93349000D01*
X171340000Y-93347000D01*
X171339000Y-93344000D01*
X171339000Y-93342000D01*
X171338000Y-93339000D01*
X171338000Y-93337000D01*
X171338000Y-93334000D01*
X171338000Y-92684000D01*
X171338000Y-92681000D01*
X171338000Y-92679000D01*
X171339000Y-92676000D01*
X171339000Y-92674000D01*
X171340000Y-92671000D01*
X171340000Y-92669000D01*
X171341000Y-92666000D01*
X171342000Y-92664000D01*
X171343000Y-92661000D01*
X171345000Y-92659000D01*
X171346000Y-92657000D01*
X171348000Y-92655000D01*
X171349000Y-92653000D01*
X171351000Y-92651000D01*
X171353000Y-92649000D01*
X171355000Y-92647000D01*
X171357000Y-92645000D01*
X171359000Y-92644000D01*
X171361000Y-92642000D01*
X171363000Y-92641000D01*
X171365000Y-92639000D01*
X171368000Y-92638000D01*
X171370000Y-92637000D01*
X171373000Y-92636000D01*
X171375000Y-92636000D01*
X171378000Y-92635000D01*
X171380000Y-92635000D01*
X171383000Y-92634000D01*
X171385000Y-92634000D01*
X171388000Y-92634000D01*
X172488000Y-92634000D01*
X172491000Y-92634000D01*
X172493000Y-92634000D01*
X172496000Y-92635000D01*
G37*
D11*
X186920000Y-108311000D03*
X185020000Y-108311000D03*
X185970000Y-110186000D03*
D12*
X202942000Y-78395000D03*
X202942000Y-71895000D03*
D13*
X137424000Y-76454000D03*
X139149000Y-76454000D03*
X170333500Y-90678000D03*
X172058500Y-90678000D03*
D14*
X197138500Y-91147000D03*
X194013500Y-91147000D03*
D13*
X150548500Y-124255267D03*
X152273500Y-124255267D03*
D15*
X138430000Y-94083500D03*
X138430000Y-95908500D03*
D11*
X191746000Y-108311000D03*
X189846000Y-108311000D03*
X190796000Y-110186000D03*
D16*
X133329000Y-92083000D03*
X132679000Y-92083000D03*
X132029000Y-92083000D03*
X131379000Y-92083000D03*
X130729000Y-92083000D03*
X130079000Y-92083000D03*
X129429000Y-92083000D03*
X128779000Y-92083000D03*
X128779000Y-97823000D03*
X129429000Y-97823000D03*
X130079000Y-97823000D03*
X130729000Y-97823000D03*
X131379000Y-97823000D03*
X132029000Y-97823000D03*
X132679000Y-97823000D03*
X133329000Y-97823000D03*
D17*
X122270000Y-94115000D03*
X124095000Y-94115000D03*
D18*
X124095000Y-95893000D03*
X122270000Y-95893000D03*
D19*
X148617000Y-120852767D03*
X148617000Y-122577767D03*
D20*
X151232000Y-97296000D03*
X151232000Y-94996000D03*
D21*
X144932000Y-94996000D03*
D20*
X151232000Y-92696000D03*
D19*
X148617000Y-124408767D03*
X148617000Y-126133767D03*
D22*
X178308000Y-93002500D03*
X178308000Y-89877500D03*
D23*
X120523000Y-72898000D03*
X120523000Y-71173000D03*
D24*
X191370000Y-87113000D03*
D25*
X188495000Y-85208000D03*
X188495000Y-86478000D03*
X188495000Y-87748000D03*
X188495000Y-89018000D03*
X194245000Y-89018000D03*
X194245000Y-87748000D03*
X194245000Y-86478000D03*
X194245000Y-85208000D03*
D15*
X184954000Y-104447500D03*
X184954000Y-106272500D03*
D19*
X128680491Y-124205491D03*
X128680491Y-125930491D03*
D14*
X197138500Y-78701000D03*
X194013500Y-78701000D03*
D23*
X120642500Y-95840000D03*
X120642500Y-94115000D03*
D26*
X165608000Y-128768000D03*
X165608000Y-112978000D03*
D27*
X203835000Y-112472000D03*
X206635000Y-112472000D03*
D28*
X138430000Y-70336500D03*
X138430000Y-72411500D03*
X165205280Y-95736500D03*
X165205280Y-97811500D03*
D23*
X112776000Y-115162500D03*
X112776000Y-113437500D03*
D15*
X199432000Y-104447500D03*
X199432000Y-106272500D03*
D17*
X130561991Y-125829991D03*
X132386991Y-125829991D03*
X137374000Y-74676000D03*
X139199000Y-74676000D03*
D27*
X184570000Y-112472000D03*
X187370000Y-112472000D03*
D11*
X182094000Y-108311000D03*
X180194000Y-108311000D03*
X181144000Y-110186000D03*
D29*
X133936500Y-101693500D03*
X132211500Y-101693500D03*
D28*
X153924000Y-92688500D03*
X153924000Y-94763500D03*
D30*
X140208000Y-94055500D03*
X140208000Y-92305500D03*
D19*
X203454000Y-97509000D03*
X203454000Y-99234000D03*
D15*
X194606000Y-104447500D03*
X194606000Y-106272500D03*
D29*
X166978500Y-92202000D03*
X165253500Y-92202000D03*
D27*
X179744000Y-112472000D03*
X182544000Y-112472000D03*
D19*
X173736000Y-91339500D03*
X173736000Y-93064500D03*
D17*
X150498500Y-126033267D03*
X152323500Y-126033267D03*
D28*
X143154000Y-100040500D03*
X143154000Y-102115500D03*
D31*
X130204491Y-120690491D03*
X130204491Y-121825491D03*
D32*
X169238000Y-92759000D03*
X169238000Y-93259000D03*
D33*
X170463000Y-92059000D03*
D22*
X175768000Y-93002500D03*
X175768000Y-89877500D03*
D24*
X191370000Y-74667000D03*
D25*
X188495000Y-72762000D03*
X188495000Y-74032000D03*
X188495000Y-75302000D03*
X188495000Y-76572000D03*
X194245000Y-76572000D03*
X194245000Y-75302000D03*
X194245000Y-74032000D03*
X194245000Y-72762000D03*
D19*
X205994000Y-97509000D03*
X205994000Y-99234000D03*
D34*
X206251000Y-106272500D03*
X206251000Y-104447500D03*
D28*
X142240000Y-92284000D03*
X142240000Y-94359000D03*
D19*
X136398000Y-70765500D03*
X136398000Y-72490500D03*
D11*
X196572000Y-108311000D03*
X194672000Y-108311000D03*
X195622000Y-110186000D03*
D34*
X196638000Y-106272500D03*
X196638000Y-104447500D03*
D35*
X143154000Y-106179500D03*
X143154000Y-104104500D03*
D36*
X206120000Y-96073500D03*
X206120000Y-95573500D03*
X206120000Y-95073500D03*
X206120000Y-94573500D03*
X203320000Y-94573500D03*
X203320000Y-95073500D03*
X203320000Y-95573500D03*
X203320000Y-96073500D03*
D37*
X188438000Y-91147000D03*
X191538000Y-91147000D03*
D11*
X201398000Y-108311000D03*
X199498000Y-108311000D03*
X200448000Y-110186000D03*
D27*
X199048000Y-112472000D03*
X201848000Y-112472000D03*
D23*
X114800500Y-95840000D03*
X114800500Y-94115000D03*
D12*
X202942000Y-90841000D03*
X202942000Y-84341000D03*
D27*
X194222000Y-112472000D03*
X197022000Y-112472000D03*
D34*
X186986000Y-106272500D03*
X186986000Y-104447500D03*
D15*
X189780000Y-104447500D03*
X189780000Y-106272500D03*
D35*
X110744000Y-115591500D03*
X110744000Y-113516500D03*
D13*
X165761500Y-93980000D03*
X167486500Y-93980000D03*
D27*
X189396000Y-112472000D03*
X192196000Y-112472000D03*
D23*
X120650000Y-81126500D03*
X120650000Y-79401500D03*
D38*
X116578500Y-94115000D03*
X116578500Y-95065000D03*
X116578500Y-96015000D03*
X118853500Y-96015000D03*
X118853500Y-94115000D03*
D13*
X130611991Y-124051991D03*
X132336991Y-124051991D03*
D39*
X162493500Y-104320000D03*
X162493500Y-105590000D03*
X162493500Y-106860000D03*
X162493500Y-108130000D03*
X167443500Y-108130000D03*
X167443500Y-106860000D03*
X167443500Y-105590000D03*
X167443500Y-104320000D03*
D40*
X145694000Y-100824000D03*
X145694000Y-103124000D03*
D41*
X151994000Y-103124000D03*
D40*
X145694000Y-105424000D03*
D42*
X107696000Y-114582000D03*
X107696000Y-113582000D03*
X107696000Y-112582000D03*
X107696000Y-111582000D03*
X107696000Y-110582000D03*
X107696000Y-109582000D03*
X107696000Y-108582000D03*
X107696000Y-107582000D03*
X107696000Y-106582000D03*
X107696000Y-105582000D03*
X107696000Y-104582000D03*
X107696000Y-103582000D03*
X107696000Y-102582000D03*
X107696000Y-101582000D03*
X107696000Y-100582000D03*
X107696000Y-99582000D03*
X107696000Y-98582000D03*
X107696000Y-97582000D03*
X107696000Y-96582000D03*
X107696000Y-95582000D03*
X107696000Y-94582000D03*
X107696000Y-93582000D03*
X107696000Y-92582000D03*
X107696000Y-91582000D03*
X107696000Y-90582000D03*
X107696000Y-89582000D03*
X107696000Y-88582000D03*
X107696000Y-87582000D03*
X107696000Y-86582000D03*
X107696000Y-85582000D03*
X107696000Y-84582000D03*
X107696000Y-83582000D03*
X107696000Y-82582000D03*
X107696000Y-81582000D03*
X107696000Y-80582000D03*
X107696000Y-79582000D03*
X107696000Y-78582000D03*
X107696000Y-77582000D03*
X107696000Y-76582000D03*
X107696000Y-75582000D03*
D43*
X105246000Y-117332000D03*
X105246000Y-72832000D03*
D44*
X123359000Y-83388000D03*
X128609000Y-83388000D03*
X128609000Y-80188000D03*
X123359000Y-80188000D03*
X123232000Y-75159500D03*
X128482000Y-75159500D03*
X128482000Y-71959500D03*
X123232000Y-71959500D03*
D23*
X160274000Y-106426000D03*
X160274000Y-104701000D03*
D37*
X188438000Y-78701000D03*
X191538000Y-78701000D03*
D29*
X133936500Y-99915500D03*
X132211500Y-99915500D03*
D34*
X191812000Y-106272500D03*
X191812000Y-104447500D03*
D19*
X158496000Y-104701000D03*
X158496000Y-106426000D03*
D15*
X180128000Y-104447500D03*
X180128000Y-106272500D03*
D23*
X127397000Y-95891500D03*
X127397000Y-94166500D03*
D22*
X180848000Y-93002500D03*
X180848000Y-89877500D03*
D31*
X150141000Y-120893767D03*
X150141000Y-122028767D03*
D11*
X206185000Y-108311000D03*
X204285000Y-108311000D03*
X205235000Y-110186000D03*
D34*
X182160000Y-106272500D03*
X182160000Y-104447500D03*
D28*
X167386000Y-95736500D03*
X167386000Y-97811500D03*
D45*
X141320500Y-71040000D03*
X141320500Y-72310000D03*
X141320500Y-73580000D03*
X141320500Y-74850000D03*
X141320500Y-76120000D03*
X141320500Y-77390000D03*
X141320500Y-78660000D03*
X141320500Y-79930000D03*
X141320500Y-81200000D03*
X141320500Y-82470000D03*
X141320500Y-83740000D03*
X141320500Y-85010000D03*
X141320500Y-86280000D03*
X141320500Y-87550000D03*
D46*
X143085500Y-88800000D03*
X144355500Y-88800000D03*
X145625500Y-88800000D03*
X146895500Y-88800000D03*
X148165500Y-88800000D03*
X149435500Y-88800000D03*
X150705500Y-88800000D03*
X151975500Y-88800000D03*
X153245500Y-88800000D03*
X154515500Y-88800000D03*
X155785500Y-88800000D03*
X157055500Y-88800000D03*
D45*
X158820500Y-87550000D03*
X158820500Y-86280000D03*
X158820500Y-85010000D03*
X158820500Y-83740000D03*
X158820500Y-82470000D03*
X158820500Y-81200000D03*
X158820500Y-79930000D03*
X158820500Y-78660000D03*
X158820500Y-77390000D03*
X158820500Y-76120000D03*
X158820500Y-74850000D03*
X158820500Y-73580000D03*
X158820500Y-72310000D03*
X158820500Y-71040000D03*
D47*
X147170500Y-77360000D03*
X148570500Y-77360000D03*
X149970500Y-77360000D03*
X147170500Y-78760000D03*
X148570500Y-78760000D03*
X149970500Y-78760000D03*
X147170500Y-80160000D03*
X148570500Y-80160000D03*
X149970500Y-80160000D03*
D34*
X201464000Y-106272500D03*
X201464000Y-104447500D03*
D19*
X128680491Y-120649491D03*
X128680491Y-122374491D03*
D15*
X204219000Y-104447500D03*
X204219000Y-106272500D03*
M02*
