%TF.GenerationSoftware,KiCad,Pcbnew,9.0.0*%
%TF.CreationDate,2025-03-04T12:57:17-06:00*%
%TF.ProjectId,PCB,5043422e-6b69-4636-9164-5f7063625858,rev?*%
%TF.SameCoordinates,Original*%
%TF.FileFunction,Drillmap*%
%TF.FilePolarity,Positive*%
%FSLAX45Y45*%
G04 Gerber Fmt 4.5, Leading zero omitted, Abs format (unit mm)*
G04 Created by KiCad (PCBNEW 9.0.0) date 2025-03-04 12:57:17*
%MOMM*%
%LPD*%
G01*
G04 APERTURE LIST*
%ADD10C,0.050000*%
%ADD11C,0.010000*%
%ADD12C,0.200000*%
%ADD13C,0.100000*%
%ADD14C,0.110000*%
%ADD15C,0.113000*%
G04 APERTURE END LIST*
D10*
X10536200Y-13385800D02*
G75*
G02*
X10236200Y-13085800I0J300000D01*
G01*
X10236200Y-13085800D02*
X10236200Y-7183400D01*
X23241000Y-13085800D02*
G75*
G02*
X22941000Y-13385800I-300000J0D01*
G01*
X23241000Y-7183400D02*
X23241000Y-13085800D01*
X10536200Y-6883400D02*
X22941000Y-6883400D01*
X10236200Y-7183400D02*
G75*
G02*
X10536200Y-6883400I300000J0D01*
G01*
X22941000Y-13385800D02*
X10536200Y-13385800D01*
X22941000Y-6883400D02*
G75*
G02*
X23241000Y-7183400I0J-300000D01*
G01*
D11*
X17680000Y-7147400D02*
X17860000Y-7147400D01*
X17680000Y-7327400D02*
X17680000Y-7147400D01*
X17860000Y-7147400D02*
X17860000Y-7327400D01*
X17860000Y-7327400D02*
X17680000Y-7327400D01*
D12*
D13*
X10373600Y-9408400D02*
X10403600Y-9438400D01*
X10403600Y-9408400D02*
X10373600Y-9438400D01*
X10373600Y-10856200D02*
X10403600Y-10886200D01*
X10403600Y-10856200D02*
X10373600Y-10886200D01*
X10399000Y-10068800D02*
X10429000Y-10098800D01*
X10429000Y-10068800D02*
X10399000Y-10098800D01*
X10399000Y-12075400D02*
X10429000Y-12105400D01*
X10429000Y-12075400D02*
X10399000Y-12105400D01*
X10424400Y-7732000D02*
X10454400Y-7762000D01*
X10454400Y-7732000D02*
X10424400Y-7762000D01*
X10475200Y-7595859D02*
X10505200Y-7625859D01*
X10505200Y-7595859D02*
X10475200Y-7625859D01*
X10475200Y-12304000D02*
X10505200Y-12334000D01*
X10505200Y-12304000D02*
X10475200Y-12334000D01*
X10526000Y-9637000D02*
X10556000Y-9667000D01*
X10556000Y-9637000D02*
X10526000Y-9667000D01*
X10526000Y-10449800D02*
X10556000Y-10479800D01*
X10556000Y-10449800D02*
X10526000Y-10479800D01*
X10526000Y-11084800D02*
X10556000Y-11114800D01*
X10556000Y-11084800D02*
X10526000Y-11114800D01*
X10551400Y-7503400D02*
X10581400Y-7533400D01*
X10581400Y-7503400D02*
X10551400Y-7533400D01*
X10601140Y-9143200D02*
X10631140Y-9173200D01*
X10631140Y-9143200D02*
X10601140Y-9173200D01*
X10602200Y-8240000D02*
X10632200Y-8270000D01*
X10632200Y-8240000D02*
X10602200Y-8270000D01*
X10602862Y-9242334D02*
X10632862Y-9272334D01*
X10632862Y-9242334D02*
X10602862Y-9272334D01*
X10881600Y-13142200D02*
X10911600Y-13172200D01*
X10911600Y-13142200D02*
X10881600Y-13172200D01*
X10926882Y-8143306D02*
X10956882Y-8173306D01*
X10956882Y-8143306D02*
X10926882Y-8173306D01*
X10932400Y-8743919D02*
X10962400Y-8773919D01*
X10962400Y-8743919D02*
X10932400Y-8773919D01*
X10957800Y-7224000D02*
X10987800Y-7254000D01*
X10987800Y-7224000D02*
X10957800Y-7254000D01*
X10983200Y-12126200D02*
X11013200Y-12156200D01*
X11013200Y-12126200D02*
X10983200Y-12156200D01*
X11059400Y-7020800D02*
X11089400Y-7050800D01*
X11089400Y-7020800D02*
X11059400Y-7050800D01*
X11161000Y-7351000D02*
X11191000Y-7381000D01*
X11191000Y-7351000D02*
X11161000Y-7381000D01*
X11211800Y-12380200D02*
X11241800Y-12410200D01*
X11241800Y-12380200D02*
X11211800Y-12410200D01*
X11237200Y-7147800D02*
X11267200Y-7177800D01*
X11267200Y-7147800D02*
X11237200Y-7177800D01*
X11288000Y-9662400D02*
X11318000Y-9692400D01*
X11318000Y-9662400D02*
X11288000Y-9692400D01*
X11288000Y-9916400D02*
X11318000Y-9946400D01*
X11318000Y-9916400D02*
X11288000Y-9946400D01*
X11288000Y-10729200D02*
X11318000Y-10759200D01*
X11318000Y-10729200D02*
X11288000Y-10759200D01*
X11327550Y-9396862D02*
X11357550Y-9426862D01*
X11357550Y-9396862D02*
X11327550Y-9426862D01*
X11405028Y-11327697D02*
X11435028Y-11357697D01*
X11435028Y-11327697D02*
X11405028Y-11357697D01*
X11440400Y-7046200D02*
X11470400Y-7076200D01*
X11470400Y-7046200D02*
X11440400Y-7076200D01*
X11516600Y-7351000D02*
X11546600Y-7381000D01*
X11546600Y-7351000D02*
X11516600Y-7381000D01*
X11516600Y-9916400D02*
X11546600Y-9946400D01*
X11546600Y-9916400D02*
X11516600Y-9946400D01*
X11542000Y-10729200D02*
X11572000Y-10759200D01*
X11572000Y-10729200D02*
X11542000Y-10759200D01*
X11618200Y-7198600D02*
X11648200Y-7228600D01*
X11648200Y-7198600D02*
X11618200Y-7228600D01*
X11719800Y-7020800D02*
X11749800Y-7050800D01*
X11749800Y-7020800D02*
X11719800Y-7050800D01*
X11719800Y-9052800D02*
X11749800Y-9082800D01*
X11749800Y-9052800D02*
X11719800Y-9082800D01*
X11745200Y-7351000D02*
X11775200Y-7381000D01*
X11775200Y-7351000D02*
X11745200Y-7381000D01*
X11770600Y-9916400D02*
X11800600Y-9946400D01*
X11800600Y-9916400D02*
X11770600Y-9946400D01*
X11796000Y-10729200D02*
X11826000Y-10759200D01*
X11826000Y-10729200D02*
X11796000Y-10759200D01*
X11923000Y-9052800D02*
X11953000Y-9082800D01*
X11953000Y-9052800D02*
X11923000Y-9082800D01*
X12126200Y-9052800D02*
X12156200Y-9082800D01*
X12156200Y-9052800D02*
X12126200Y-9082800D01*
X12212035Y-9248294D02*
X12242035Y-9278294D01*
X12242035Y-9248294D02*
X12212035Y-9278294D01*
X12484953Y-8325659D02*
X12514953Y-8355659D01*
X12514953Y-8325659D02*
X12484953Y-8355659D01*
X12583400Y-9078200D02*
X12613400Y-9108200D01*
X12613400Y-9078200D02*
X12583400Y-9108200D01*
X12583400Y-9256000D02*
X12613400Y-9286000D01*
X12613400Y-9256000D02*
X12583400Y-9286000D01*
X12634200Y-7020800D02*
X12664200Y-7050800D01*
X12664200Y-7020800D02*
X12634200Y-7050800D01*
X12710400Y-9078200D02*
X12740400Y-9108200D01*
X12740400Y-9078200D02*
X12710400Y-9108200D01*
X12710400Y-9256000D02*
X12740400Y-9286000D01*
X12740400Y-9256000D02*
X12710400Y-9286000D01*
X12710400Y-12227800D02*
X12740400Y-12257800D01*
X12740400Y-12227800D02*
X12710400Y-12257800D01*
X12837400Y-7020800D02*
X12867400Y-7050800D01*
X12867400Y-7020800D02*
X12837400Y-7050800D01*
X12852771Y-11912484D02*
X12882771Y-11942484D01*
X12882771Y-11912484D02*
X12852771Y-11942484D01*
X12964400Y-7351000D02*
X12994400Y-7381000D01*
X12994400Y-7351000D02*
X12964400Y-7381000D01*
X12965364Y-12265812D02*
X12995364Y-12295812D01*
X12995364Y-12265812D02*
X12965364Y-12295812D01*
X12989800Y-8011400D02*
X13019800Y-8041400D01*
X13019800Y-8011400D02*
X12989800Y-8041400D01*
X12989800Y-10221200D02*
X13019800Y-10251200D01*
X13019800Y-10221200D02*
X12989800Y-10251200D01*
X13091400Y-7046200D02*
X13121400Y-7076200D01*
X13121400Y-7046200D02*
X13091400Y-7076200D01*
X13091400Y-7198600D02*
X13121400Y-7228600D01*
X13121400Y-7198600D02*
X13091400Y-7228600D01*
X13123808Y-8900400D02*
X13153808Y-8930400D01*
X13153808Y-8900400D02*
X13123808Y-8930400D01*
X13205000Y-10289518D02*
X13235000Y-10319518D01*
X13235000Y-10289518D02*
X13205000Y-10319518D01*
X13254441Y-8897423D02*
X13284441Y-8927423D01*
X13284441Y-8897423D02*
X13254441Y-8927423D01*
X13269200Y-8240000D02*
X13299200Y-8270000D01*
X13299200Y-8240000D02*
X13269200Y-8270000D01*
X13296889Y-9555585D02*
X13326889Y-9585585D01*
X13326889Y-9555585D02*
X13296889Y-9585585D01*
X13370800Y-9586200D02*
X13400800Y-9616200D01*
X13400800Y-9586200D02*
X13370800Y-9616200D01*
X13483999Y-7234050D02*
X13513999Y-7264050D01*
X13513999Y-7234050D02*
X13483999Y-7264050D01*
X13548226Y-10113415D02*
X13578226Y-10143415D01*
X13578226Y-10113415D02*
X13548226Y-10143415D01*
X13574000Y-9535400D02*
X13604000Y-9565400D01*
X13604000Y-9535400D02*
X13574000Y-9565400D01*
X13798015Y-10013415D02*
X13828015Y-10043415D01*
X13828015Y-10013415D02*
X13798015Y-10043415D01*
X13802600Y-8359000D02*
X13832600Y-8389000D01*
X13832600Y-8359000D02*
X13802600Y-8389000D01*
X13802600Y-10170400D02*
X13832600Y-10200400D01*
X13832600Y-10170400D02*
X13802600Y-10200400D01*
X13811800Y-9052800D02*
X13841800Y-9082800D01*
X13841800Y-9052800D02*
X13811800Y-9082800D01*
X13815300Y-9167100D02*
X13845300Y-9197100D01*
X13845300Y-9167100D02*
X13815300Y-9197100D01*
X13828000Y-8232000D02*
X13858000Y-8262000D01*
X13858000Y-8232000D02*
X13828000Y-8262000D01*
X13828000Y-8951200D02*
X13858000Y-8981200D01*
X13858000Y-8951200D02*
X13828000Y-8981200D01*
X13828000Y-9916400D02*
X13858000Y-9946400D01*
X13858000Y-9916400D02*
X13828000Y-9946400D01*
X13904200Y-10119600D02*
X13934200Y-10149600D01*
X13934200Y-10119600D02*
X13904200Y-10149600D01*
X13904200Y-10272000D02*
X13934200Y-10302000D01*
X13934200Y-10272000D02*
X13904200Y-10302000D01*
X13929600Y-9992600D02*
X13959600Y-10022600D01*
X13959600Y-9992600D02*
X13929600Y-10022600D01*
X13955000Y-9840200D02*
X13985000Y-9870200D01*
X13985000Y-9840200D02*
X13955000Y-9870200D01*
X13964167Y-7016901D02*
X13994167Y-7046901D01*
X13994167Y-7016901D02*
X13964167Y-7046901D01*
X13980400Y-10399000D02*
X14010400Y-10429000D01*
X14010400Y-10399000D02*
X13980400Y-10429000D01*
X14005800Y-10195800D02*
X14035800Y-10225800D01*
X14035800Y-10195800D02*
X14005800Y-10225800D01*
X14031200Y-9764000D02*
X14061200Y-9794000D01*
X14061200Y-9764000D02*
X14031200Y-9794000D01*
X14031200Y-9916400D02*
X14061200Y-9946400D01*
X14061200Y-9916400D02*
X14031200Y-9946400D01*
X14262517Y-8231246D02*
X14292517Y-8261246D01*
X14292517Y-8231246D02*
X14262517Y-8261246D01*
X14270940Y-7848168D02*
X14300940Y-7878168D01*
X14300940Y-7848168D02*
X14270940Y-7878168D01*
X14271185Y-7976540D02*
X14301185Y-8006540D01*
X14301185Y-7976540D02*
X14271185Y-8006540D01*
X14272412Y-8105906D02*
X14302412Y-8135906D01*
X14302412Y-8105906D02*
X14272412Y-8135906D01*
X14280983Y-7596739D02*
X14310983Y-7626739D01*
X14310983Y-7596739D02*
X14280983Y-7626739D01*
X14283486Y-7470287D02*
X14313486Y-7500287D01*
X14313486Y-7470287D02*
X14283486Y-7500287D01*
X14285200Y-7198600D02*
X14315200Y-7228600D01*
X14315200Y-7198600D02*
X14285200Y-7228600D01*
X14285200Y-7340168D02*
X14315200Y-7370168D01*
X14315200Y-7340168D02*
X14285200Y-7370168D01*
X14285200Y-7732000D02*
X14315200Y-7762000D01*
X14315200Y-7732000D02*
X14285200Y-7762000D01*
X14300177Y-10757753D02*
X14330177Y-10787753D01*
X14330177Y-10757753D02*
X14300177Y-10787753D01*
X14310600Y-6995400D02*
X14340600Y-7025400D01*
X14340600Y-6995400D02*
X14310600Y-7025400D01*
X14336000Y-7097000D02*
X14366000Y-7127000D01*
X14366000Y-7097000D02*
X14336000Y-7127000D01*
X14337920Y-8358153D02*
X14367920Y-8388153D01*
X14367920Y-8358153D02*
X14337920Y-8388153D01*
X14539200Y-9814800D02*
X14569200Y-9844800D01*
X14569200Y-9814800D02*
X14539200Y-9844800D01*
X14574525Y-7857148D02*
X14604525Y-7887148D01*
X14604525Y-7857148D02*
X14574525Y-7887148D01*
X14577563Y-7998437D02*
X14607563Y-8028437D01*
X14607563Y-7998437D02*
X14577563Y-8028437D01*
X14578323Y-7718138D02*
X14608323Y-7748138D01*
X14608323Y-7718138D02*
X14578323Y-7748138D01*
X14640800Y-9891000D02*
X14670800Y-9921000D01*
X14670800Y-9891000D02*
X14640800Y-9921000D01*
X14666200Y-9764000D02*
X14696200Y-9794000D01*
X14696200Y-9764000D02*
X14666200Y-9794000D01*
X14691600Y-12253200D02*
X14721600Y-12283200D01*
X14721600Y-12253200D02*
X14691600Y-12283200D01*
X14699861Y-7601157D02*
X14729861Y-7631157D01*
X14729861Y-7601157D02*
X14699861Y-7631157D01*
X14703659Y-8123773D02*
X14733659Y-8153773D01*
X14733659Y-8123773D02*
X14703659Y-8153773D01*
X14767800Y-10246600D02*
X14797800Y-10276600D01*
X14797800Y-10246600D02*
X14767800Y-10276600D01*
X14841910Y-8121494D02*
X14871910Y-8151494D01*
X14871910Y-8121494D02*
X14841910Y-8151494D01*
X14842669Y-7604196D02*
X14872669Y-7634196D01*
X14872669Y-7604196D02*
X14842669Y-7634196D01*
X14846977Y-11919536D02*
X14876977Y-11949536D01*
X14876977Y-11919536D02*
X14846977Y-11949536D01*
X14869400Y-9662400D02*
X14899400Y-9692400D01*
X14899400Y-9662400D02*
X14869400Y-9692400D01*
X14869400Y-9891000D02*
X14899400Y-9921000D01*
X14899400Y-9891000D02*
X14869400Y-9921000D01*
X14894800Y-10067400D02*
X14924800Y-10097400D01*
X14924800Y-10067400D02*
X14894800Y-10097400D01*
X14920200Y-9256000D02*
X14950200Y-9286000D01*
X14950200Y-9256000D02*
X14920200Y-9286000D01*
X14980919Y-7604196D02*
X15010919Y-7634196D01*
X15010919Y-7604196D02*
X14980919Y-7634196D01*
X14985477Y-8123014D02*
X15015477Y-8153014D01*
X15015477Y-8123014D02*
X14985477Y-8153014D01*
X14988688Y-12293141D02*
X15018688Y-12323141D01*
X15018688Y-12293141D02*
X14988688Y-12323141D01*
X15021800Y-8468600D02*
X15051800Y-8498600D01*
X15051800Y-8468600D02*
X15021800Y-8498600D01*
X15098000Y-8544800D02*
X15128000Y-8574800D01*
X15128000Y-8544800D02*
X15098000Y-8574800D01*
X15101698Y-7721936D02*
X15131698Y-7751936D01*
X15131698Y-7721936D02*
X15101698Y-7751936D01*
X15103977Y-7998437D02*
X15133977Y-8028437D01*
X15133977Y-7998437D02*
X15103977Y-8028437D01*
X15104737Y-7860186D02*
X15134737Y-7890186D01*
X15134737Y-7860186D02*
X15104737Y-7890186D01*
X15182550Y-8715185D02*
X15212550Y-8745185D01*
X15212550Y-8715185D02*
X15182550Y-8745185D01*
X15214400Y-12298658D02*
X15244400Y-12328658D01*
X15244400Y-12298658D02*
X15214400Y-12328658D01*
X15250400Y-9027400D02*
X15280400Y-9057400D01*
X15280400Y-9027400D02*
X15250400Y-9057400D01*
X15326600Y-8544800D02*
X15356600Y-8574800D01*
X15356600Y-8544800D02*
X15326600Y-8574800D01*
X15402800Y-8494000D02*
X15432800Y-8524000D01*
X15432800Y-8494000D02*
X15402800Y-8524000D01*
X15402800Y-10145000D02*
X15432800Y-10175000D01*
X15432800Y-10145000D02*
X15402800Y-10175000D01*
X15402800Y-10475200D02*
X15432800Y-10505200D01*
X15432800Y-10475200D02*
X15402800Y-10505200D01*
X15462800Y-8561547D02*
X15492800Y-8591547D01*
X15492800Y-8561547D02*
X15462800Y-8591547D01*
X15479000Y-10424400D02*
X15509000Y-10454400D01*
X15509000Y-10424400D02*
X15479000Y-10454400D01*
X15522800Y-8494000D02*
X15552800Y-8524000D01*
X15552800Y-8494000D02*
X15522800Y-8524000D01*
X15570965Y-10098404D02*
X15600965Y-10128404D01*
X15600965Y-10098404D02*
X15570965Y-10128404D01*
X15580600Y-10475200D02*
X15610600Y-10505200D01*
X15610600Y-10475200D02*
X15580600Y-10505200D01*
X15591635Y-8569149D02*
X15621635Y-8599149D01*
X15621635Y-8569149D02*
X15591635Y-8599149D01*
X15606000Y-10348200D02*
X15636000Y-10378200D01*
X15636000Y-10348200D02*
X15606000Y-10378200D01*
X15631400Y-10170400D02*
X15661400Y-10200400D01*
X15661400Y-10170400D02*
X15631400Y-10200400D01*
X15656800Y-7173200D02*
X15686800Y-7203200D01*
X15686800Y-7173200D02*
X15656800Y-7203200D01*
X15707600Y-10297400D02*
X15737600Y-10327400D01*
X15737600Y-10297400D02*
X15707600Y-10327400D01*
X16029689Y-7144957D02*
X16059689Y-7174957D01*
X16059689Y-7144957D02*
X16029689Y-7174957D01*
X16037800Y-6970000D02*
X16067800Y-7000000D01*
X16067800Y-6970000D02*
X16037800Y-7000000D01*
X16055577Y-10797341D02*
X16085577Y-10827341D01*
X16085577Y-10797341D02*
X16055577Y-10827341D01*
X16291800Y-9865600D02*
X16321800Y-9895600D01*
X16321800Y-9865600D02*
X16291800Y-9895600D01*
X16363453Y-9297635D02*
X16393453Y-9327635D01*
X16393453Y-9297635D02*
X16363453Y-9327635D01*
X16402211Y-10673384D02*
X16432211Y-10703384D01*
X16432211Y-10673384D02*
X16402211Y-10703384D01*
X16506161Y-9887912D02*
X16536161Y-9917912D01*
X16536161Y-9887912D02*
X16506161Y-9917912D01*
X16510818Y-9063673D02*
X16540818Y-9093673D01*
X16540818Y-9063673D02*
X16510818Y-9093673D01*
X16721132Y-9891710D02*
X16751132Y-9921710D01*
X16751132Y-9891710D02*
X16721132Y-9921710D01*
X16795675Y-9192048D02*
X16825675Y-9222048D01*
X16825675Y-9192048D02*
X16795675Y-9222048D01*
X16801752Y-9062154D02*
X16831752Y-9092154D01*
X16831752Y-9062154D02*
X16801752Y-9092154D01*
X16888348Y-8907192D02*
X16918348Y-8937192D01*
X16918348Y-8907192D02*
X16888348Y-8937192D01*
X16901400Y-9865600D02*
X16931400Y-9895600D01*
X16931400Y-9865600D02*
X16901400Y-9895600D01*
X17096522Y-9883397D02*
X17126522Y-9913397D01*
X17126522Y-9883397D02*
X17096522Y-9913397D01*
X17121721Y-9712878D02*
X17151721Y-9742878D01*
X17151721Y-9712878D02*
X17121721Y-9742878D01*
X17174723Y-8778057D02*
X17204723Y-8808057D01*
X17204723Y-8778057D02*
X17174723Y-8808057D01*
X17180800Y-10576800D02*
X17210800Y-10606800D01*
X17210800Y-10576800D02*
X17180800Y-10606800D01*
X17180800Y-10805400D02*
X17210800Y-10835400D01*
X17210800Y-10805400D02*
X17180800Y-10835400D01*
X17182201Y-9792678D02*
X17212201Y-9822678D01*
X17212201Y-9792678D02*
X17182201Y-9822678D01*
X17229241Y-9712878D02*
X17259241Y-9742878D01*
X17259241Y-9712878D02*
X17229241Y-9742878D01*
X17257000Y-10703800D02*
X17287000Y-10733800D01*
X17287000Y-10703800D02*
X17257000Y-10733800D01*
X17282400Y-10907000D02*
X17312400Y-10937000D01*
X17312400Y-10907000D02*
X17282400Y-10937000D01*
X17307800Y-10780000D02*
X17337800Y-10810000D01*
X17337800Y-10780000D02*
X17307800Y-10810000D01*
X17308479Y-9405638D02*
X17338479Y-9435638D01*
X17338479Y-9405638D02*
X17308479Y-9435638D01*
X17358600Y-10602200D02*
X17388600Y-10632200D01*
X17388600Y-10602200D02*
X17358600Y-10632200D01*
X17396113Y-8672087D02*
X17426113Y-8702087D01*
X17426113Y-8672087D02*
X17396113Y-8702087D01*
X17409400Y-10703800D02*
X17439400Y-10733800D01*
X17439400Y-10703800D02*
X17409400Y-10733800D01*
X17434800Y-9840200D02*
X17464800Y-9870200D01*
X17464800Y-9840200D02*
X17434800Y-9870200D01*
X17460200Y-10830800D02*
X17490200Y-10860800D01*
X17490200Y-10830800D02*
X17460200Y-10860800D01*
X17461061Y-8801981D02*
X17491061Y-8831981D01*
X17491061Y-8801981D02*
X17461061Y-8831981D01*
X17485600Y-10602200D02*
X17515600Y-10632200D01*
X17515600Y-10602200D02*
X17485600Y-10632200D01*
X17491680Y-9471592D02*
X17521680Y-9501592D01*
X17521680Y-9471592D02*
X17491680Y-9501592D01*
X17536400Y-9637000D02*
X17566400Y-9667000D01*
X17566400Y-9637000D02*
X17536400Y-9667000D01*
X17556772Y-9116462D02*
X17586772Y-9146462D01*
X17586772Y-9116462D02*
X17556772Y-9146462D01*
X17561800Y-10907000D02*
X17591800Y-10937000D01*
X17591800Y-10907000D02*
X17561800Y-10937000D01*
X17587200Y-9764000D02*
X17617200Y-9794000D01*
X17617200Y-9764000D02*
X17587200Y-9794000D01*
X17587200Y-10729200D02*
X17617200Y-10759200D01*
X17617200Y-10729200D02*
X17587200Y-10759200D01*
X17629550Y-9471592D02*
X17659550Y-9501592D01*
X17659550Y-9471592D02*
X17629550Y-9501592D01*
X17638000Y-10602200D02*
X17668000Y-10632200D01*
X17668000Y-10602200D02*
X17638000Y-10632200D01*
X17638000Y-10805400D02*
X17668000Y-10835400D01*
X17668000Y-10805400D02*
X17638000Y-10835400D01*
X17679830Y-8661832D02*
X17709830Y-8691832D01*
X17709830Y-8661832D02*
X17679830Y-8691832D01*
X17686667Y-8798563D02*
X17716667Y-8828563D01*
X17716667Y-8798563D02*
X17686667Y-8828563D01*
X17688800Y-9662400D02*
X17718800Y-9692400D01*
X17718800Y-9662400D02*
X17688800Y-9692400D01*
X17714200Y-10703800D02*
X17744200Y-10733800D01*
X17744200Y-10703800D02*
X17714200Y-10733800D01*
X17765000Y-7605000D02*
X17795000Y-7635000D01*
X17795000Y-7605000D02*
X17765000Y-7635000D01*
X17776536Y-9472732D02*
X17806536Y-9502732D01*
X17806536Y-9472732D02*
X17776536Y-9502732D01*
X17790400Y-9789400D02*
X17820400Y-9819400D01*
X17820400Y-9789400D02*
X17790400Y-9819400D01*
X17811434Y-9118171D02*
X17841434Y-9148171D01*
X17841434Y-9118171D02*
X17811434Y-9148171D01*
X17866600Y-10430354D02*
X17896600Y-10460354D01*
X17896600Y-10430354D02*
X17866600Y-10460354D01*
X17892000Y-9611600D02*
X17922000Y-9641600D01*
X17922000Y-9611600D02*
X17892000Y-9641600D01*
X17907242Y-10815181D02*
X17937242Y-10845181D01*
X17937242Y-10815181D02*
X17907242Y-10845181D01*
X17914406Y-9472732D02*
X17944406Y-9502732D01*
X17944406Y-9472732D02*
X17914406Y-9502732D01*
X17917400Y-7960600D02*
X17947400Y-7990600D01*
X17947400Y-7960600D02*
X17917400Y-7990600D01*
X17937910Y-8791726D02*
X17967910Y-8821726D01*
X17967910Y-8791726D02*
X17937910Y-8821726D01*
X17942800Y-7655800D02*
X17972800Y-7685800D01*
X17972800Y-7655800D02*
X17942800Y-7685800D01*
X17942800Y-7833600D02*
X17972800Y-7863600D01*
X17972800Y-7833600D02*
X17942800Y-7863600D01*
X17946455Y-8656705D02*
X17976455Y-8686705D01*
X17976455Y-8656705D02*
X17946455Y-8686705D01*
X18019000Y-9789400D02*
X18049000Y-9819400D01*
X18049000Y-9789400D02*
X18019000Y-9819400D01*
X18037464Y-9470453D02*
X18067464Y-9500453D01*
X18067464Y-9470453D02*
X18037464Y-9500453D01*
X18044400Y-7732000D02*
X18074400Y-7762000D01*
X18074400Y-7732000D02*
X18044400Y-7762000D01*
X18044400Y-7935200D02*
X18074400Y-7965200D01*
X18074400Y-7935200D02*
X18044400Y-7965200D01*
X18059258Y-9121590D02*
X18089258Y-9151590D01*
X18089258Y-9121590D02*
X18059258Y-9151590D01*
X18102717Y-10699213D02*
X18132717Y-10729213D01*
X18132717Y-10699213D02*
X18102717Y-10729213D01*
X18120600Y-7833600D02*
X18150600Y-7863600D01*
X18150600Y-7833600D02*
X18120600Y-7863600D01*
X18120600Y-9637000D02*
X18150600Y-9667000D01*
X18150600Y-9637000D02*
X18120600Y-9667000D01*
X18146000Y-7655800D02*
X18176000Y-7685800D01*
X18176000Y-7655800D02*
X18146000Y-7685800D01*
X18146000Y-7960600D02*
X18176000Y-7990600D01*
X18176000Y-7960600D02*
X18146000Y-7990600D01*
X18194704Y-9468174D02*
X18224704Y-9498174D01*
X18224704Y-9468174D02*
X18194704Y-9498174D01*
X18222200Y-9764000D02*
X18252200Y-9794000D01*
X18252200Y-9764000D02*
X18222200Y-9794000D01*
X18323800Y-7605000D02*
X18353800Y-7635000D01*
X18353800Y-7605000D02*
X18323800Y-7635000D01*
X18344831Y-10686140D02*
X18374831Y-10716140D01*
X18374831Y-10686140D02*
X18344831Y-10716140D01*
X18349200Y-9637000D02*
X18379200Y-9667000D01*
X18379200Y-9637000D02*
X18349200Y-9667000D01*
X18358504Y-10574477D02*
X18388504Y-10604477D01*
X18388504Y-10574477D02*
X18358504Y-10604477D01*
X18360783Y-10812237D02*
X18390783Y-10842237D01*
X18390783Y-10812237D02*
X18360783Y-10842237D01*
X18366013Y-10429389D02*
X18396013Y-10459389D01*
X18396013Y-10429389D02*
X18366013Y-10459389D01*
X18400000Y-9510000D02*
X18430000Y-9540000D01*
X18430000Y-9510000D02*
X18400000Y-9540000D01*
X18400000Y-11415000D02*
X18430000Y-11445000D01*
X18430000Y-11415000D02*
X18400000Y-11445000D01*
X18450800Y-9764000D02*
X18480800Y-9794000D01*
X18480800Y-9764000D02*
X18450800Y-9794000D01*
X18527000Y-11415000D02*
X18557000Y-11445000D01*
X18557000Y-11415000D02*
X18527000Y-11445000D01*
X18577800Y-9637000D02*
X18607800Y-9667000D01*
X18607800Y-9637000D02*
X18577800Y-9667000D01*
X18592466Y-10819073D02*
X18622466Y-10849073D01*
X18622466Y-10819073D02*
X18592466Y-10849073D01*
X18603200Y-7274800D02*
X18633200Y-7304800D01*
X18633200Y-7274800D02*
X18603200Y-7304800D01*
X18603720Y-8760788D02*
X18633720Y-8790788D01*
X18633720Y-8760788D02*
X18603720Y-8790788D01*
X18607132Y-8632212D02*
X18637132Y-8662212D01*
X18637132Y-8632212D02*
X18607132Y-8662212D01*
X18628600Y-7122400D02*
X18658600Y-7152400D01*
X18658600Y-7122400D02*
X18628600Y-7152400D01*
X18628600Y-9814800D02*
X18658600Y-9844800D01*
X18658600Y-9814800D02*
X18628600Y-9844800D01*
X18755600Y-9713200D02*
X18785600Y-9743200D01*
X18785600Y-9713200D02*
X18755600Y-9743200D01*
X18781000Y-7020800D02*
X18811000Y-7050800D01*
X18811000Y-7020800D02*
X18781000Y-7050800D01*
X18836378Y-10553733D02*
X18866378Y-10583733D01*
X18866378Y-10553733D02*
X18836378Y-10583733D01*
X18836378Y-10671663D02*
X18866378Y-10701663D01*
X18866378Y-10671663D02*
X18836378Y-10701663D01*
X18841505Y-10806685D02*
X18871505Y-10836685D01*
X18871505Y-10806685D02*
X18841505Y-10836685D01*
X18844051Y-10429473D02*
X18874051Y-10459473D01*
X18874051Y-10429473D02*
X18844051Y-10459473D01*
X18882600Y-7071600D02*
X18912600Y-7101600D01*
X18912600Y-7071600D02*
X18882600Y-7101600D01*
X18882600Y-11415000D02*
X18912600Y-11445000D01*
X18912600Y-11415000D02*
X18882600Y-11445000D01*
X18958800Y-7859000D02*
X18988800Y-7889000D01*
X18988800Y-7859000D02*
X18958800Y-7889000D01*
X19035000Y-8163800D02*
X19065000Y-8193800D01*
X19065000Y-8163800D02*
X19035000Y-8193800D01*
X19035000Y-11415000D02*
X19065000Y-11445000D01*
X19065000Y-11415000D02*
X19035000Y-11445000D01*
X19068820Y-10811812D02*
X19098820Y-10841812D01*
X19098820Y-10811812D02*
X19068820Y-10841812D01*
X19136600Y-8062200D02*
X19166600Y-8092200D01*
X19166600Y-8062200D02*
X19136600Y-8092200D01*
X19187400Y-8189200D02*
X19217400Y-8219200D01*
X19217400Y-8189200D02*
X19187400Y-8219200D01*
X19304681Y-10553733D02*
X19334681Y-10583733D01*
X19334681Y-10553733D02*
X19304681Y-10583733D01*
X19306390Y-10678500D02*
X19336390Y-10708500D01*
X19336390Y-10678500D02*
X19306390Y-10708500D01*
X19320063Y-10822067D02*
X19350063Y-10852067D01*
X19350063Y-10822067D02*
X19320063Y-10852067D01*
X19323330Y-10430395D02*
X19353330Y-10460395D01*
X19353330Y-10430395D02*
X19323330Y-10460395D01*
X19390600Y-8290800D02*
X19420600Y-8320800D01*
X19420600Y-8290800D02*
X19390600Y-8320800D01*
X19441400Y-7097000D02*
X19471400Y-7127000D01*
X19471400Y-7097000D02*
X19441400Y-7127000D01*
X19441400Y-11415000D02*
X19471400Y-11445000D01*
X19471400Y-11415000D02*
X19441400Y-11445000D01*
X19543000Y-8316200D02*
X19573000Y-8346200D01*
X19573000Y-8316200D02*
X19543000Y-8346200D01*
X19561052Y-10818649D02*
X19591052Y-10848649D01*
X19591052Y-10818649D02*
X19561052Y-10848649D01*
X19568400Y-11415000D02*
X19598400Y-11445000D01*
X19598400Y-11415000D02*
X19568400Y-11445000D01*
X19593800Y-7046200D02*
X19623800Y-7076200D01*
X19623800Y-7046200D02*
X19593800Y-7076200D01*
X19619200Y-7249400D02*
X19649200Y-7279400D01*
X19649200Y-7249400D02*
X19619200Y-7279400D01*
X19619200Y-8900400D02*
X19649200Y-8930400D01*
X19649200Y-8900400D02*
X19619200Y-8930400D01*
X19631000Y-7642200D02*
X19661000Y-7672200D01*
X19661000Y-7642200D02*
X19631000Y-7672200D01*
X19644600Y-8240000D02*
X19674600Y-8270000D01*
X19674600Y-8240000D02*
X19644600Y-8270000D01*
X19746200Y-8900400D02*
X19776200Y-8930400D01*
X19776200Y-8900400D02*
X19746200Y-8930400D01*
X19771600Y-7655800D02*
X19801600Y-7685800D01*
X19801600Y-7655800D02*
X19771600Y-7685800D01*
X19783239Y-10815231D02*
X19813239Y-10845231D01*
X19813239Y-10815231D02*
X19783239Y-10845231D01*
X19796912Y-10577661D02*
X19826912Y-10607661D01*
X19826912Y-10577661D02*
X19796912Y-10607661D01*
X19799977Y-10429389D02*
X19829977Y-10459389D01*
X19829977Y-10429389D02*
X19799977Y-10459389D01*
X19810586Y-10716101D02*
X19840586Y-10746101D01*
X19840586Y-10716101D02*
X19810586Y-10746101D01*
X19949400Y-7300200D02*
X19979400Y-7330200D01*
X19979400Y-7300200D02*
X19949400Y-7330200D01*
X19949400Y-7401800D02*
X19979400Y-7431800D01*
X19979400Y-7401800D02*
X19949400Y-7431800D01*
X19949400Y-8951200D02*
X19979400Y-8981200D01*
X19979400Y-8951200D02*
X19949400Y-8981200D01*
X19949400Y-11415000D02*
X19979400Y-11445000D01*
X19979400Y-11415000D02*
X19949400Y-11445000D01*
X19974800Y-7706600D02*
X20004800Y-7736600D01*
X20004800Y-7706600D02*
X19974800Y-7736600D01*
X20000200Y-9078200D02*
X20030200Y-9108200D01*
X20030200Y-9078200D02*
X20000200Y-9108200D01*
X20025600Y-7833600D02*
X20055600Y-7863600D01*
X20055600Y-7833600D02*
X20025600Y-7863600D01*
X20037901Y-10811812D02*
X20067901Y-10841812D01*
X20067901Y-10811812D02*
X20037901Y-10841812D01*
X20051000Y-7020800D02*
X20081000Y-7050800D01*
X20081000Y-7020800D02*
X20051000Y-7050800D01*
X20051000Y-7300200D02*
X20081000Y-7330200D01*
X20081000Y-7300200D02*
X20051000Y-7330200D01*
X20051000Y-7401800D02*
X20081000Y-7431800D01*
X20081000Y-7401800D02*
X20051000Y-7431800D01*
X20076400Y-11440400D02*
X20106400Y-11470400D01*
X20106400Y-11440400D02*
X20076400Y-11470400D01*
X20178000Y-9611600D02*
X20208000Y-9641600D01*
X20208000Y-9611600D02*
X20178000Y-9641600D01*
X20275471Y-10692173D02*
X20305471Y-10722173D01*
X20305471Y-10692173D02*
X20275471Y-10722173D01*
X20280598Y-10589625D02*
X20310598Y-10619625D01*
X20310598Y-10589625D02*
X20280598Y-10619625D01*
X20283717Y-10429918D02*
X20313717Y-10459918D01*
X20313717Y-10429918D02*
X20283717Y-10459918D01*
X20292562Y-10815231D02*
X20322562Y-10845231D01*
X20322562Y-10815231D02*
X20292562Y-10845231D01*
X20406600Y-11415000D02*
X20436600Y-11445000D01*
X20436600Y-11415000D02*
X20406600Y-11445000D01*
X20508200Y-7020800D02*
X20538200Y-7050800D01*
X20538200Y-7020800D02*
X20508200Y-7050800D01*
X20508200Y-7300200D02*
X20538200Y-7330200D01*
X20538200Y-7300200D02*
X20508200Y-7330200D01*
X20508200Y-7401800D02*
X20538200Y-7431800D01*
X20538200Y-7401800D02*
X20508200Y-7431800D01*
X20508200Y-7833600D02*
X20538200Y-7863600D01*
X20538200Y-7833600D02*
X20508200Y-7863600D01*
X20508200Y-9078200D02*
X20538200Y-9108200D01*
X20538200Y-9078200D02*
X20508200Y-9108200D01*
X20521586Y-10810103D02*
X20551586Y-10840103D01*
X20551586Y-10810103D02*
X20521586Y-10840103D01*
X20559000Y-8976600D02*
X20589000Y-9006600D01*
X20589000Y-8976600D02*
X20559000Y-9006600D01*
X20559000Y-11415000D02*
X20589000Y-11445000D01*
X20589000Y-11415000D02*
X20559000Y-11445000D01*
X20609800Y-7300200D02*
X20639800Y-7330200D01*
X20639800Y-7300200D02*
X20609800Y-7330200D01*
X20609800Y-7401800D02*
X20639800Y-7431800D01*
X20639800Y-7401800D02*
X20609800Y-7431800D01*
X20609800Y-7706600D02*
X20639800Y-7736600D01*
X20639800Y-7706600D02*
X20609800Y-7736600D01*
X20813000Y-10449800D02*
X20843000Y-10479800D01*
X20843000Y-10449800D02*
X20813000Y-10479800D01*
X20813000Y-10627600D02*
X20843000Y-10657600D01*
X20843000Y-10627600D02*
X20813000Y-10657600D01*
X20813000Y-10830800D02*
X20843000Y-10860800D01*
X20843000Y-10830800D02*
X20813000Y-10860800D01*
X20838400Y-9738600D02*
X20868400Y-9768600D01*
X20868400Y-9738600D02*
X20838400Y-9768600D01*
X16953800Y-9455900D02*
G75*
G02*
X16923800Y-9455900I-15000J0D01*
G01*
X16923800Y-9455900D02*
G75*
G02*
X16953800Y-9455900I15000J0D01*
G01*
X16953800Y-9534700D02*
G75*
G02*
X16923800Y-9534700I-15000J0D01*
G01*
X16923800Y-9534700D02*
G75*
G02*
X16953800Y-9534700I15000J0D01*
G01*
X16953800Y-9613400D02*
G75*
G02*
X16923800Y-9613400I-15000J0D01*
G01*
X16923800Y-9613400D02*
G75*
G02*
X16953800Y-9613400I15000J0D01*
G01*
X17018800Y-9455900D02*
G75*
G02*
X16988800Y-9455900I-15000J0D01*
G01*
X16988800Y-9455900D02*
G75*
G02*
X17018800Y-9455900I15000J0D01*
G01*
X17018800Y-9534700D02*
G75*
G02*
X16988800Y-9534700I-15000J0D01*
G01*
X16988800Y-9534700D02*
G75*
G02*
X17018800Y-9534700I15000J0D01*
G01*
X17018800Y-9613400D02*
G75*
G02*
X16988800Y-9613400I-15000J0D01*
G01*
X16988800Y-9613400D02*
G75*
G02*
X17018800Y-9613400I15000J0D01*
G01*
X17148800Y-9455900D02*
G75*
G02*
X17118800Y-9455900I-15000J0D01*
G01*
X17118800Y-9455900D02*
G75*
G02*
X17148800Y-9455900I15000J0D01*
G01*
X17148800Y-9534700D02*
G75*
G02*
X17118800Y-9534700I-15000J0D01*
G01*
X17118800Y-9534700D02*
G75*
G02*
X17148800Y-9534700I15000J0D01*
G01*
X17148800Y-9613400D02*
G75*
G02*
X17118800Y-9613400I-15000J0D01*
G01*
X17118800Y-9613400D02*
G75*
G02*
X17148800Y-9613400I15000J0D01*
G01*
X17213800Y-9455900D02*
G75*
G02*
X17183800Y-9455900I-15000J0D01*
G01*
X17183800Y-9455900D02*
G75*
G02*
X17213800Y-9455900I15000J0D01*
G01*
X17213800Y-9534700D02*
G75*
G02*
X17183800Y-9534700I-15000J0D01*
G01*
X17183800Y-9534700D02*
G75*
G02*
X17213800Y-9534700I15000J0D01*
G01*
X17213800Y-9613400D02*
G75*
G02*
X17183800Y-9613400I-15000J0D01*
G01*
X17183800Y-9613400D02*
G75*
G02*
X17213800Y-9613400I15000J0D01*
G01*
X19087000Y-7336700D02*
G75*
G02*
X19057000Y-7336700I-15000J0D01*
G01*
X19057000Y-7336700D02*
G75*
G02*
X19087000Y-7336700I15000J0D01*
G01*
X19087000Y-7466700D02*
G75*
G02*
X19057000Y-7466700I-15000J0D01*
G01*
X19057000Y-7466700D02*
G75*
G02*
X19087000Y-7466700I15000J0D01*
G01*
X19087000Y-7596700D02*
G75*
G02*
X19057000Y-7596700I-15000J0D01*
G01*
X19057000Y-7596700D02*
G75*
G02*
X19087000Y-7596700I15000J0D01*
G01*
X19217000Y-7336700D02*
G75*
G02*
X19187000Y-7336700I-15000J0D01*
G01*
X19187000Y-7336700D02*
G75*
G02*
X19217000Y-7336700I15000J0D01*
G01*
X19217000Y-7466700D02*
G75*
G02*
X19187000Y-7466700I-15000J0D01*
G01*
X19187000Y-7466700D02*
G75*
G02*
X19217000Y-7466700I15000J0D01*
G01*
X19217000Y-7596700D02*
G75*
G02*
X19187000Y-7596700I-15000J0D01*
G01*
X19187000Y-7596700D02*
G75*
G02*
X19217000Y-7596700I15000J0D01*
G01*
X19072000Y-8564800D02*
X19072000Y-8597800D01*
X19055500Y-8581300D02*
X19088500Y-8581300D01*
X19072000Y-8694800D02*
X19072000Y-8727800D01*
X19055500Y-8711300D02*
X19088500Y-8711300D01*
X19072000Y-8824800D02*
X19072000Y-8857800D01*
X19055500Y-8841300D02*
X19088500Y-8841300D01*
X19202000Y-8564800D02*
X19202000Y-8597800D01*
X19185500Y-8581300D02*
X19218500Y-8581300D01*
X19202000Y-8694800D02*
X19202000Y-8727800D01*
X19185500Y-8711300D02*
X19218500Y-8711300D01*
X19202000Y-8824800D02*
X19202000Y-8857800D01*
X19185500Y-8841300D02*
X19218500Y-8841300D01*
X17428285Y-7165684D02*
X17428285Y-7109115D01*
X17371716Y-7109115D01*
X17371716Y-7165684D01*
X17428285Y-7165684D01*
X17440000Y-7212400D02*
X17440000Y-7062400D01*
X17360000Y-7062400D02*
G75*
G02*
X17440000Y-7062400I40000J0D01*
G01*
X17360000Y-7062400D02*
X17360000Y-7212400D01*
X17360000Y-7212400D02*
G75*
G03*
X17440000Y-7212400I40000J0D01*
G01*
X17468285Y-7895684D02*
X17468285Y-7839115D01*
X17411716Y-7839115D01*
X17411716Y-7895684D01*
X17468285Y-7895684D01*
X17480000Y-7927400D02*
X17480000Y-7807400D01*
X17400000Y-7807400D02*
G75*
G02*
X17480000Y-7807400I40000J0D01*
G01*
X17400000Y-7807400D02*
X17400000Y-7927400D01*
X17400000Y-7927400D02*
G75*
G03*
X17480000Y-7927400I40000J0D01*
G01*
X17808285Y-7895684D02*
X17808285Y-7839115D01*
X17751716Y-7839115D01*
X17751716Y-7895684D01*
X17808285Y-7895684D01*
X17820000Y-7927400D02*
X17820000Y-7807400D01*
X17740000Y-7807400D02*
G75*
G02*
X17820000Y-7807400I40000J0D01*
G01*
X17740000Y-7807400D02*
X17740000Y-7927400D01*
X17740000Y-7927400D02*
G75*
G03*
X17820000Y-7927400I40000J0D01*
G01*
X18328285Y-7895684D02*
X18328285Y-7839115D01*
X18271716Y-7839115D01*
X18271716Y-7895684D01*
X18328285Y-7895684D01*
X18340000Y-7927400D02*
X18340000Y-7807400D01*
X18260000Y-7807400D02*
G75*
G02*
X18340000Y-7807400I40000J0D01*
G01*
X18260000Y-7807400D02*
X18260000Y-7927400D01*
X18260000Y-7927400D02*
G75*
G03*
X18340000Y-7927400I40000J0D01*
G01*
X18418285Y-7165684D02*
X18418285Y-7109115D01*
X18361716Y-7109115D01*
X18361716Y-7165684D01*
X18418285Y-7165684D01*
X18430000Y-7212400D02*
X18430000Y-7062400D01*
X18350000Y-7062400D02*
G75*
G02*
X18430000Y-7062400I40000J0D01*
G01*
X18350000Y-7062400D02*
X18350000Y-7212400D01*
X18350000Y-7212400D02*
G75*
G03*
X18430000Y-7212400I40000J0D01*
G01*
X11455400Y-10464000D02*
X11505400Y-10414000D01*
X11455400Y-10364000D01*
X11405400Y-10414000D01*
X11455400Y-10464000D01*
X11912600Y-10464000D02*
X11962600Y-10414000D01*
X11912600Y-10364000D01*
X11862600Y-10414000D01*
X11912600Y-10464000D01*
X12369800Y-10464000D02*
X12419800Y-10414000D01*
X12369800Y-10364000D01*
X12319800Y-10414000D01*
X12369800Y-10464000D01*
X12827000Y-10464000D02*
X12877000Y-10414000D01*
X12827000Y-10364000D01*
X12777000Y-10414000D01*
X12827000Y-10464000D01*
X18242400Y-11861000D02*
X18292400Y-11811000D01*
X18242400Y-11761000D01*
X18192400Y-11811000D01*
X18242400Y-11861000D01*
X18592400Y-12361000D02*
X18642400Y-12311000D01*
X18592400Y-12261000D01*
X18542400Y-12311000D01*
X18592400Y-12361000D01*
X18942400Y-11861000D02*
X18992400Y-11811000D01*
X18942400Y-11761000D01*
X18892400Y-11811000D01*
X18942400Y-11861000D01*
X19292400Y-12361000D02*
X19342400Y-12311000D01*
X19292400Y-12261000D01*
X19242400Y-12311000D01*
X19292400Y-12361000D01*
X19642400Y-11861000D02*
X19692400Y-11811000D01*
X19642400Y-11761000D01*
X19592400Y-11811000D01*
X19642400Y-11861000D01*
X19992400Y-12361000D02*
X20042400Y-12311000D01*
X19992400Y-12261000D01*
X19942400Y-12311000D01*
X19992400Y-12361000D01*
X20342400Y-11861000D02*
X20392400Y-11811000D01*
X20342400Y-11761000D01*
X20292400Y-11811000D01*
X20342400Y-11861000D01*
X20692400Y-12361000D02*
X20742400Y-12311000D01*
X20692400Y-12261000D01*
X20642400Y-12311000D01*
X20692400Y-12361000D01*
X21042400Y-11861000D02*
X21092400Y-11811000D01*
X21042400Y-11761000D01*
X20992400Y-11811000D01*
X21042400Y-11861000D01*
X21295800Y-7589800D02*
X21345800Y-7539800D01*
X21295800Y-7489800D01*
X21245800Y-7539800D01*
X21295800Y-7589800D01*
X21295800Y-8289800D02*
X21345800Y-8239800D01*
X21295800Y-8189800D01*
X21245800Y-8239800D01*
X21295800Y-8289800D01*
X21295800Y-9288800D02*
X21345800Y-9238800D01*
X21295800Y-9188800D01*
X21245800Y-9238800D01*
X21295800Y-9288800D01*
X21295800Y-10660400D02*
X21345800Y-10610400D01*
X21295800Y-10560400D01*
X21245800Y-10610400D01*
X21295800Y-10660400D01*
X21392400Y-12361000D02*
X21442400Y-12311000D01*
X21392400Y-12261000D01*
X21342400Y-12311000D01*
X21392400Y-12361000D01*
X21742400Y-11861000D02*
X21792400Y-11811000D01*
X21742400Y-11761000D01*
X21692400Y-11811000D01*
X21742400Y-11861000D01*
X21795800Y-7239800D02*
X21845800Y-7189800D01*
X21795800Y-7139800D01*
X21745800Y-7189800D01*
X21795800Y-7239800D01*
X21795800Y-7939800D02*
X21845800Y-7889800D01*
X21795800Y-7839800D01*
X21745800Y-7889800D01*
X21795800Y-7939800D01*
X21795800Y-8938800D02*
X21845800Y-8888800D01*
X21795800Y-8838800D01*
X21745800Y-8888800D01*
X21795800Y-8938800D01*
X21795800Y-9638800D02*
X21845800Y-9588800D01*
X21795800Y-9538800D01*
X21745800Y-9588800D01*
X21795800Y-9638800D01*
X21795800Y-10310400D02*
X21845800Y-10260400D01*
X21795800Y-10210400D01*
X21745800Y-10260400D01*
X21795800Y-10310400D01*
X21795800Y-11010400D02*
X21845800Y-10960400D01*
X21795800Y-10910400D01*
X21745800Y-10960400D01*
X21795800Y-11010400D01*
X22092400Y-12361000D02*
X22142400Y-12311000D01*
X22092400Y-12261000D01*
X22042400Y-12311000D01*
X22092400Y-12361000D01*
D14*
X16455000Y-7565000D02*
X16565000Y-7675000D01*
X16565000Y-7565000D02*
X16455000Y-7675000D01*
X16565000Y-7620000D02*
G75*
G02*
X16455000Y-7620000I-55000J0D01*
G01*
X16455000Y-7620000D02*
G75*
G02*
X16565000Y-7620000I55000J0D01*
G01*
X16455000Y-7819000D02*
X16565000Y-7929000D01*
X16565000Y-7819000D02*
X16455000Y-7929000D01*
X16565000Y-7874000D02*
G75*
G02*
X16455000Y-7874000I-55000J0D01*
G01*
X16455000Y-7874000D02*
G75*
G02*
X16565000Y-7874000I55000J0D01*
G01*
X16455000Y-8073000D02*
X16565000Y-8183000D01*
X16565000Y-8073000D02*
X16455000Y-8183000D01*
X16565000Y-8128000D02*
G75*
G02*
X16455000Y-8128000I-55000J0D01*
G01*
X16455000Y-8128000D02*
G75*
G02*
X16565000Y-8128000I55000J0D01*
G01*
X16709000Y-7565000D02*
X16819000Y-7675000D01*
X16819000Y-7565000D02*
X16709000Y-7675000D01*
X16819000Y-7620000D02*
G75*
G02*
X16709000Y-7620000I-55000J0D01*
G01*
X16709000Y-7620000D02*
G75*
G02*
X16819000Y-7620000I55000J0D01*
G01*
X16709000Y-7819000D02*
X16819000Y-7929000D01*
X16819000Y-7819000D02*
X16709000Y-7929000D01*
X16819000Y-7874000D02*
G75*
G02*
X16709000Y-7874000I-55000J0D01*
G01*
X16709000Y-7874000D02*
G75*
G02*
X16819000Y-7874000I55000J0D01*
G01*
X16709000Y-8073000D02*
X16819000Y-8183000D01*
X16819000Y-8073000D02*
X16709000Y-8183000D01*
X16819000Y-8128000D02*
G75*
G02*
X16709000Y-8128000I-55000J0D01*
G01*
X16709000Y-8128000D02*
G75*
G02*
X16819000Y-8128000I55000J0D01*
G01*
D15*
X12060349Y-11652951D02*
X12173349Y-11765951D01*
X12173349Y-11652951D02*
X12060349Y-11765951D01*
X12116849Y-11652951D02*
X12116849Y-11765951D01*
X12060349Y-11709451D02*
X12173349Y-11709451D01*
X12060349Y-11906951D02*
X12173349Y-12019951D01*
X12173349Y-11906951D02*
X12060349Y-12019951D01*
X12116849Y-11906951D02*
X12116849Y-12019951D01*
X12060349Y-11963451D02*
X12173349Y-11963451D01*
X12060349Y-12160951D02*
X12173349Y-12273951D01*
X12173349Y-12160951D02*
X12060349Y-12273951D01*
X12116849Y-12160951D02*
X12116849Y-12273951D01*
X12060349Y-12217451D02*
X12173349Y-12217451D01*
X12060349Y-12414951D02*
X12173349Y-12527951D01*
X12173349Y-12414951D02*
X12060349Y-12527951D01*
X12116849Y-12414951D02*
X12116849Y-12527951D01*
X12060349Y-12471451D02*
X12173349Y-12471451D01*
X12060349Y-12668951D02*
X12173349Y-12781951D01*
X12173349Y-12668951D02*
X12060349Y-12781951D01*
X12116849Y-12668951D02*
X12116849Y-12781951D01*
X12060349Y-12725451D02*
X12173349Y-12725451D01*
X12060349Y-12922951D02*
X12173349Y-13035951D01*
X12173349Y-12922951D02*
X12060349Y-13035951D01*
X12116849Y-12922951D02*
X12116849Y-13035951D01*
X12060349Y-12979451D02*
X12173349Y-12979451D01*
X14054000Y-11657100D02*
X14167000Y-11770100D01*
X14167000Y-11657100D02*
X14054000Y-11770100D01*
X14110500Y-11657100D02*
X14110500Y-11770100D01*
X14054000Y-11713600D02*
X14167000Y-11713600D01*
X14054000Y-11911100D02*
X14167000Y-12024100D01*
X14167000Y-11911100D02*
X14054000Y-12024100D01*
X14110500Y-11911100D02*
X14110500Y-12024100D01*
X14054000Y-11967600D02*
X14167000Y-11967600D01*
X14054000Y-12165100D02*
X14167000Y-12278100D01*
X14167000Y-12165100D02*
X14054000Y-12278100D01*
X14110500Y-12165100D02*
X14110500Y-12278100D01*
X14054000Y-12221600D02*
X14167000Y-12221600D01*
X14054000Y-12419100D02*
X14167000Y-12532100D01*
X14167000Y-12419100D02*
X14054000Y-12532100D01*
X14110500Y-12419100D02*
X14110500Y-12532100D01*
X14054000Y-12475600D02*
X14167000Y-12475600D01*
X14054000Y-12673100D02*
X14167000Y-12786100D01*
X14167000Y-12673100D02*
X14054000Y-12786100D01*
X14110500Y-12673100D02*
X14110500Y-12786100D01*
X14054000Y-12729600D02*
X14167000Y-12729600D01*
X14054000Y-12927100D02*
X14167000Y-13040100D01*
X14167000Y-12927100D02*
X14054000Y-13040100D01*
X14110500Y-12927100D02*
X14110500Y-13040100D01*
X14054000Y-12983600D02*
X14167000Y-12983600D01*
D12*
X10494477Y-13699784D02*
X10494477Y-13499784D01*
X10494477Y-13499784D02*
X10542096Y-13499784D01*
X10542096Y-13499784D02*
X10570667Y-13509308D01*
X10570667Y-13509308D02*
X10589715Y-13528355D01*
X10589715Y-13528355D02*
X10599239Y-13547403D01*
X10599239Y-13547403D02*
X10608763Y-13585498D01*
X10608763Y-13585498D02*
X10608763Y-13614069D01*
X10608763Y-13614069D02*
X10599239Y-13652165D01*
X10599239Y-13652165D02*
X10589715Y-13671212D01*
X10589715Y-13671212D02*
X10570667Y-13690260D01*
X10570667Y-13690260D02*
X10542096Y-13699784D01*
X10542096Y-13699784D02*
X10494477Y-13699784D01*
X10694477Y-13699784D02*
X10694477Y-13566450D01*
X10694477Y-13604546D02*
X10704001Y-13585498D01*
X10704001Y-13585498D02*
X10713524Y-13575974D01*
X10713524Y-13575974D02*
X10732572Y-13566450D01*
X10732572Y-13566450D02*
X10751620Y-13566450D01*
X10818286Y-13699784D02*
X10818286Y-13566450D01*
X10818286Y-13499784D02*
X10808763Y-13509308D01*
X10808763Y-13509308D02*
X10818286Y-13518831D01*
X10818286Y-13518831D02*
X10827810Y-13509308D01*
X10827810Y-13509308D02*
X10818286Y-13499784D01*
X10818286Y-13499784D02*
X10818286Y-13518831D01*
X10942096Y-13699784D02*
X10923048Y-13690260D01*
X10923048Y-13690260D02*
X10913524Y-13671212D01*
X10913524Y-13671212D02*
X10913524Y-13499784D01*
X11046858Y-13699784D02*
X11027810Y-13690260D01*
X11027810Y-13690260D02*
X11018286Y-13671212D01*
X11018286Y-13671212D02*
X11018286Y-13499784D01*
X11275429Y-13699784D02*
X11275429Y-13499784D01*
X11275429Y-13499784D02*
X11342096Y-13642641D01*
X11342096Y-13642641D02*
X11408762Y-13499784D01*
X11408762Y-13499784D02*
X11408762Y-13699784D01*
X11589715Y-13699784D02*
X11589715Y-13595022D01*
X11589715Y-13595022D02*
X11580191Y-13575974D01*
X11580191Y-13575974D02*
X11561143Y-13566450D01*
X11561143Y-13566450D02*
X11523048Y-13566450D01*
X11523048Y-13566450D02*
X11504001Y-13575974D01*
X11589715Y-13690260D02*
X11570667Y-13699784D01*
X11570667Y-13699784D02*
X11523048Y-13699784D01*
X11523048Y-13699784D02*
X11504001Y-13690260D01*
X11504001Y-13690260D02*
X11494477Y-13671212D01*
X11494477Y-13671212D02*
X11494477Y-13652165D01*
X11494477Y-13652165D02*
X11504001Y-13633117D01*
X11504001Y-13633117D02*
X11523048Y-13623593D01*
X11523048Y-13623593D02*
X11570667Y-13623593D01*
X11570667Y-13623593D02*
X11589715Y-13614069D01*
X11684953Y-13566450D02*
X11684953Y-13766450D01*
X11684953Y-13575974D02*
X11704001Y-13566450D01*
X11704001Y-13566450D02*
X11742096Y-13566450D01*
X11742096Y-13566450D02*
X11761143Y-13575974D01*
X11761143Y-13575974D02*
X11770667Y-13585498D01*
X11770667Y-13585498D02*
X11780191Y-13604546D01*
X11780191Y-13604546D02*
X11780191Y-13661688D01*
X11780191Y-13661688D02*
X11770667Y-13680736D01*
X11770667Y-13680736D02*
X11761143Y-13690260D01*
X11761143Y-13690260D02*
X11742096Y-13699784D01*
X11742096Y-13699784D02*
X11704001Y-13699784D01*
X11704001Y-13699784D02*
X11684953Y-13690260D01*
X11865905Y-13680736D02*
X11875429Y-13690260D01*
X11875429Y-13690260D02*
X11865905Y-13699784D01*
X11865905Y-13699784D02*
X11856382Y-13690260D01*
X11856382Y-13690260D02*
X11865905Y-13680736D01*
X11865905Y-13680736D02*
X11865905Y-13699784D01*
X11865905Y-13575974D02*
X11875429Y-13585498D01*
X11875429Y-13585498D02*
X11865905Y-13595022D01*
X11865905Y-13595022D02*
X11856382Y-13585498D01*
X11856382Y-13585498D02*
X11865905Y-13575974D01*
X11865905Y-13575974D02*
X11865905Y-13595022D01*
D13*
X10203700Y-14013300D02*
X10233700Y-14043300D01*
X10233700Y-14013300D02*
X10203700Y-14043300D01*
D12*
X10532572Y-13919784D02*
X10551620Y-13919784D01*
X10551620Y-13919784D02*
X10570667Y-13929308D01*
X10570667Y-13929308D02*
X10580191Y-13938831D01*
X10580191Y-13938831D02*
X10589715Y-13957879D01*
X10589715Y-13957879D02*
X10599239Y-13995974D01*
X10599239Y-13995974D02*
X10599239Y-14043593D01*
X10599239Y-14043593D02*
X10589715Y-14081688D01*
X10589715Y-14081688D02*
X10580191Y-14100736D01*
X10580191Y-14100736D02*
X10570667Y-14110260D01*
X10570667Y-14110260D02*
X10551620Y-14119784D01*
X10551620Y-14119784D02*
X10532572Y-14119784D01*
X10532572Y-14119784D02*
X10513524Y-14110260D01*
X10513524Y-14110260D02*
X10504001Y-14100736D01*
X10504001Y-14100736D02*
X10494477Y-14081688D01*
X10494477Y-14081688D02*
X10484953Y-14043593D01*
X10484953Y-14043593D02*
X10484953Y-13995974D01*
X10484953Y-13995974D02*
X10494477Y-13957879D01*
X10494477Y-13957879D02*
X10504001Y-13938831D01*
X10504001Y-13938831D02*
X10513524Y-13929308D01*
X10513524Y-13929308D02*
X10532572Y-13919784D01*
X10684953Y-14100736D02*
X10694477Y-14110260D01*
X10694477Y-14110260D02*
X10684953Y-14119784D01*
X10684953Y-14119784D02*
X10675429Y-14110260D01*
X10675429Y-14110260D02*
X10684953Y-14100736D01*
X10684953Y-14100736D02*
X10684953Y-14119784D01*
X10761144Y-13919784D02*
X10884953Y-13919784D01*
X10884953Y-13919784D02*
X10818286Y-13995974D01*
X10818286Y-13995974D02*
X10846858Y-13995974D01*
X10846858Y-13995974D02*
X10865905Y-14005498D01*
X10865905Y-14005498D02*
X10875429Y-14015022D01*
X10875429Y-14015022D02*
X10884953Y-14034069D01*
X10884953Y-14034069D02*
X10884953Y-14081688D01*
X10884953Y-14081688D02*
X10875429Y-14100736D01*
X10875429Y-14100736D02*
X10865905Y-14110260D01*
X10865905Y-14110260D02*
X10846858Y-14119784D01*
X10846858Y-14119784D02*
X10789715Y-14119784D01*
X10789715Y-14119784D02*
X10770667Y-14110260D01*
X10770667Y-14110260D02*
X10761144Y-14100736D01*
X11008763Y-13919784D02*
X11027810Y-13919784D01*
X11027810Y-13919784D02*
X11046858Y-13929308D01*
X11046858Y-13929308D02*
X11056382Y-13938831D01*
X11056382Y-13938831D02*
X11065905Y-13957879D01*
X11065905Y-13957879D02*
X11075429Y-13995974D01*
X11075429Y-13995974D02*
X11075429Y-14043593D01*
X11075429Y-14043593D02*
X11065905Y-14081688D01*
X11065905Y-14081688D02*
X11056382Y-14100736D01*
X11056382Y-14100736D02*
X11046858Y-14110260D01*
X11046858Y-14110260D02*
X11027810Y-14119784D01*
X11027810Y-14119784D02*
X11008763Y-14119784D01*
X11008763Y-14119784D02*
X10989715Y-14110260D01*
X10989715Y-14110260D02*
X10980191Y-14100736D01*
X10980191Y-14100736D02*
X10970667Y-14081688D01*
X10970667Y-14081688D02*
X10961144Y-14043593D01*
X10961144Y-14043593D02*
X10961144Y-13995974D01*
X10961144Y-13995974D02*
X10970667Y-13957879D01*
X10970667Y-13957879D02*
X10980191Y-13938831D01*
X10980191Y-13938831D02*
X10989715Y-13929308D01*
X10989715Y-13929308D02*
X11008763Y-13919784D01*
X11199239Y-13919784D02*
X11218286Y-13919784D01*
X11218286Y-13919784D02*
X11237334Y-13929308D01*
X11237334Y-13929308D02*
X11246858Y-13938831D01*
X11246858Y-13938831D02*
X11256382Y-13957879D01*
X11256382Y-13957879D02*
X11265905Y-13995974D01*
X11265905Y-13995974D02*
X11265905Y-14043593D01*
X11265905Y-14043593D02*
X11256382Y-14081688D01*
X11256382Y-14081688D02*
X11246858Y-14100736D01*
X11246858Y-14100736D02*
X11237334Y-14110260D01*
X11237334Y-14110260D02*
X11218286Y-14119784D01*
X11218286Y-14119784D02*
X11199239Y-14119784D01*
X11199239Y-14119784D02*
X11180191Y-14110260D01*
X11180191Y-14110260D02*
X11170667Y-14100736D01*
X11170667Y-14100736D02*
X11161144Y-14081688D01*
X11161144Y-14081688D02*
X11151620Y-14043593D01*
X11151620Y-14043593D02*
X11151620Y-13995974D01*
X11151620Y-13995974D02*
X11161144Y-13957879D01*
X11161144Y-13957879D02*
X11170667Y-13938831D01*
X11170667Y-13938831D02*
X11180191Y-13929308D01*
X11180191Y-13929308D02*
X11199239Y-13919784D01*
X11351620Y-14119784D02*
X11351620Y-13986450D01*
X11351620Y-14005498D02*
X11361143Y-13995974D01*
X11361143Y-13995974D02*
X11380191Y-13986450D01*
X11380191Y-13986450D02*
X11408763Y-13986450D01*
X11408763Y-13986450D02*
X11427810Y-13995974D01*
X11427810Y-13995974D02*
X11437334Y-14015022D01*
X11437334Y-14015022D02*
X11437334Y-14119784D01*
X11437334Y-14015022D02*
X11446858Y-13995974D01*
X11446858Y-13995974D02*
X11465905Y-13986450D01*
X11465905Y-13986450D02*
X11494477Y-13986450D01*
X11494477Y-13986450D02*
X11513524Y-13995974D01*
X11513524Y-13995974D02*
X11523048Y-14015022D01*
X11523048Y-14015022D02*
X11523048Y-14119784D01*
X11618286Y-14119784D02*
X11618286Y-13986450D01*
X11618286Y-14005498D02*
X11627810Y-13995974D01*
X11627810Y-13995974D02*
X11646858Y-13986450D01*
X11646858Y-13986450D02*
X11675429Y-13986450D01*
X11675429Y-13986450D02*
X11694477Y-13995974D01*
X11694477Y-13995974D02*
X11704001Y-14015022D01*
X11704001Y-14015022D02*
X11704001Y-14119784D01*
X11704001Y-14015022D02*
X11713524Y-13995974D01*
X11713524Y-13995974D02*
X11732572Y-13986450D01*
X11732572Y-13986450D02*
X11761143Y-13986450D01*
X11761143Y-13986450D02*
X11780191Y-13995974D01*
X11780191Y-13995974D02*
X11789715Y-14015022D01*
X11789715Y-14015022D02*
X11789715Y-14119784D01*
X12180191Y-13910260D02*
X12008763Y-14167403D01*
X12437334Y-13919784D02*
X12456382Y-13919784D01*
X12456382Y-13919784D02*
X12475429Y-13929308D01*
X12475429Y-13929308D02*
X12484953Y-13938831D01*
X12484953Y-13938831D02*
X12494477Y-13957879D01*
X12494477Y-13957879D02*
X12504001Y-13995974D01*
X12504001Y-13995974D02*
X12504001Y-14043593D01*
X12504001Y-14043593D02*
X12494477Y-14081688D01*
X12494477Y-14081688D02*
X12484953Y-14100736D01*
X12484953Y-14100736D02*
X12475429Y-14110260D01*
X12475429Y-14110260D02*
X12456382Y-14119784D01*
X12456382Y-14119784D02*
X12437334Y-14119784D01*
X12437334Y-14119784D02*
X12418286Y-14110260D01*
X12418286Y-14110260D02*
X12408763Y-14100736D01*
X12408763Y-14100736D02*
X12399239Y-14081688D01*
X12399239Y-14081688D02*
X12389715Y-14043593D01*
X12389715Y-14043593D02*
X12389715Y-13995974D01*
X12389715Y-13995974D02*
X12399239Y-13957879D01*
X12399239Y-13957879D02*
X12408763Y-13938831D01*
X12408763Y-13938831D02*
X12418286Y-13929308D01*
X12418286Y-13929308D02*
X12437334Y-13919784D01*
X12589715Y-14100736D02*
X12599239Y-14110260D01*
X12599239Y-14110260D02*
X12589715Y-14119784D01*
X12589715Y-14119784D02*
X12580191Y-14110260D01*
X12580191Y-14110260D02*
X12589715Y-14100736D01*
X12589715Y-14100736D02*
X12589715Y-14119784D01*
X12723048Y-13919784D02*
X12742096Y-13919784D01*
X12742096Y-13919784D02*
X12761144Y-13929308D01*
X12761144Y-13929308D02*
X12770667Y-13938831D01*
X12770667Y-13938831D02*
X12780191Y-13957879D01*
X12780191Y-13957879D02*
X12789715Y-13995974D01*
X12789715Y-13995974D02*
X12789715Y-14043593D01*
X12789715Y-14043593D02*
X12780191Y-14081688D01*
X12780191Y-14081688D02*
X12770667Y-14100736D01*
X12770667Y-14100736D02*
X12761144Y-14110260D01*
X12761144Y-14110260D02*
X12742096Y-14119784D01*
X12742096Y-14119784D02*
X12723048Y-14119784D01*
X12723048Y-14119784D02*
X12704001Y-14110260D01*
X12704001Y-14110260D02*
X12694477Y-14100736D01*
X12694477Y-14100736D02*
X12684953Y-14081688D01*
X12684953Y-14081688D02*
X12675429Y-14043593D01*
X12675429Y-14043593D02*
X12675429Y-13995974D01*
X12675429Y-13995974D02*
X12684953Y-13957879D01*
X12684953Y-13957879D02*
X12694477Y-13938831D01*
X12694477Y-13938831D02*
X12704001Y-13929308D01*
X12704001Y-13929308D02*
X12723048Y-13919784D01*
X12980191Y-14119784D02*
X12865906Y-14119784D01*
X12923048Y-14119784D02*
X12923048Y-13919784D01*
X12923048Y-13919784D02*
X12904001Y-13948355D01*
X12904001Y-13948355D02*
X12884953Y-13967403D01*
X12884953Y-13967403D02*
X12865906Y-13976927D01*
X13170667Y-14119784D02*
X13056382Y-14119784D01*
X13113525Y-14119784D02*
X13113525Y-13919784D01*
X13113525Y-13919784D02*
X13094477Y-13948355D01*
X13094477Y-13948355D02*
X13075429Y-13967403D01*
X13075429Y-13967403D02*
X13056382Y-13976927D01*
X13284953Y-14005498D02*
X13265906Y-13995974D01*
X13265906Y-13995974D02*
X13256382Y-13986450D01*
X13256382Y-13986450D02*
X13246858Y-13967403D01*
X13246858Y-13967403D02*
X13246858Y-13957879D01*
X13246858Y-13957879D02*
X13256382Y-13938831D01*
X13256382Y-13938831D02*
X13265906Y-13929308D01*
X13265906Y-13929308D02*
X13284953Y-13919784D01*
X13284953Y-13919784D02*
X13323048Y-13919784D01*
X13323048Y-13919784D02*
X13342096Y-13929308D01*
X13342096Y-13929308D02*
X13351620Y-13938831D01*
X13351620Y-13938831D02*
X13361144Y-13957879D01*
X13361144Y-13957879D02*
X13361144Y-13967403D01*
X13361144Y-13967403D02*
X13351620Y-13986450D01*
X13351620Y-13986450D02*
X13342096Y-13995974D01*
X13342096Y-13995974D02*
X13323048Y-14005498D01*
X13323048Y-14005498D02*
X13284953Y-14005498D01*
X13284953Y-14005498D02*
X13265906Y-14015022D01*
X13265906Y-14015022D02*
X13256382Y-14024546D01*
X13256382Y-14024546D02*
X13246858Y-14043593D01*
X13246858Y-14043593D02*
X13246858Y-14081688D01*
X13246858Y-14081688D02*
X13256382Y-14100736D01*
X13256382Y-14100736D02*
X13265906Y-14110260D01*
X13265906Y-14110260D02*
X13284953Y-14119784D01*
X13284953Y-14119784D02*
X13323048Y-14119784D01*
X13323048Y-14119784D02*
X13342096Y-14110260D01*
X13342096Y-14110260D02*
X13351620Y-14100736D01*
X13351620Y-14100736D02*
X13361144Y-14081688D01*
X13361144Y-14081688D02*
X13361144Y-14043593D01*
X13361144Y-14043593D02*
X13351620Y-14024546D01*
X13351620Y-14024546D02*
X13342096Y-14015022D01*
X13342096Y-14015022D02*
X13323048Y-14005498D01*
X13437334Y-13919784D02*
X13437334Y-13957879D01*
X13513525Y-13919784D02*
X13513525Y-13957879D01*
X13808763Y-14195974D02*
X13799239Y-14186450D01*
X13799239Y-14186450D02*
X13780191Y-14157879D01*
X13780191Y-14157879D02*
X13770668Y-14138831D01*
X13770668Y-14138831D02*
X13761144Y-14110260D01*
X13761144Y-14110260D02*
X13751620Y-14062641D01*
X13751620Y-14062641D02*
X13751620Y-14024546D01*
X13751620Y-14024546D02*
X13761144Y-13976927D01*
X13761144Y-13976927D02*
X13770668Y-13948355D01*
X13770668Y-13948355D02*
X13780191Y-13929308D01*
X13780191Y-13929308D02*
X13799239Y-13900736D01*
X13799239Y-13900736D02*
X13808763Y-13891212D01*
X13875429Y-13938831D02*
X13884953Y-13929308D01*
X13884953Y-13929308D02*
X13904001Y-13919784D01*
X13904001Y-13919784D02*
X13951620Y-13919784D01*
X13951620Y-13919784D02*
X13970668Y-13929308D01*
X13970668Y-13929308D02*
X13980191Y-13938831D01*
X13980191Y-13938831D02*
X13989715Y-13957879D01*
X13989715Y-13957879D02*
X13989715Y-13976927D01*
X13989715Y-13976927D02*
X13980191Y-14005498D01*
X13980191Y-14005498D02*
X13865906Y-14119784D01*
X13865906Y-14119784D02*
X13989715Y-14119784D01*
X14084953Y-14119784D02*
X14123048Y-14119784D01*
X14123048Y-14119784D02*
X14142096Y-14110260D01*
X14142096Y-14110260D02*
X14151620Y-14100736D01*
X14151620Y-14100736D02*
X14170668Y-14072165D01*
X14170668Y-14072165D02*
X14180191Y-14034069D01*
X14180191Y-14034069D02*
X14180191Y-13957879D01*
X14180191Y-13957879D02*
X14170668Y-13938831D01*
X14170668Y-13938831D02*
X14161144Y-13929308D01*
X14161144Y-13929308D02*
X14142096Y-13919784D01*
X14142096Y-13919784D02*
X14104001Y-13919784D01*
X14104001Y-13919784D02*
X14084953Y-13929308D01*
X14084953Y-13929308D02*
X14075429Y-13938831D01*
X14075429Y-13938831D02*
X14065906Y-13957879D01*
X14065906Y-13957879D02*
X14065906Y-14005498D01*
X14065906Y-14005498D02*
X14075429Y-14024546D01*
X14075429Y-14024546D02*
X14084953Y-14034069D01*
X14084953Y-14034069D02*
X14104001Y-14043593D01*
X14104001Y-14043593D02*
X14142096Y-14043593D01*
X14142096Y-14043593D02*
X14161144Y-14034069D01*
X14161144Y-14034069D02*
X14170668Y-14024546D01*
X14170668Y-14024546D02*
X14180191Y-14005498D01*
X14370668Y-14119784D02*
X14256382Y-14119784D01*
X14313525Y-14119784D02*
X14313525Y-13919784D01*
X14313525Y-13919784D02*
X14294477Y-13948355D01*
X14294477Y-13948355D02*
X14275429Y-13967403D01*
X14275429Y-13967403D02*
X14256382Y-13976927D01*
X14608763Y-14119784D02*
X14608763Y-13919784D01*
X14694477Y-14119784D02*
X14694477Y-14015022D01*
X14694477Y-14015022D02*
X14684953Y-13995974D01*
X14684953Y-13995974D02*
X14665906Y-13986450D01*
X14665906Y-13986450D02*
X14637334Y-13986450D01*
X14637334Y-13986450D02*
X14618287Y-13995974D01*
X14618287Y-13995974D02*
X14608763Y-14005498D01*
X14818287Y-14119784D02*
X14799239Y-14110260D01*
X14799239Y-14110260D02*
X14789715Y-14100736D01*
X14789715Y-14100736D02*
X14780191Y-14081688D01*
X14780191Y-14081688D02*
X14780191Y-14024546D01*
X14780191Y-14024546D02*
X14789715Y-14005498D01*
X14789715Y-14005498D02*
X14799239Y-13995974D01*
X14799239Y-13995974D02*
X14818287Y-13986450D01*
X14818287Y-13986450D02*
X14846858Y-13986450D01*
X14846858Y-13986450D02*
X14865906Y-13995974D01*
X14865906Y-13995974D02*
X14875430Y-14005498D01*
X14875430Y-14005498D02*
X14884953Y-14024546D01*
X14884953Y-14024546D02*
X14884953Y-14081688D01*
X14884953Y-14081688D02*
X14875430Y-14100736D01*
X14875430Y-14100736D02*
X14865906Y-14110260D01*
X14865906Y-14110260D02*
X14846858Y-14119784D01*
X14846858Y-14119784D02*
X14818287Y-14119784D01*
X14999239Y-14119784D02*
X14980191Y-14110260D01*
X14980191Y-14110260D02*
X14970668Y-14091212D01*
X14970668Y-14091212D02*
X14970668Y-13919784D01*
X15151620Y-14110260D02*
X15132572Y-14119784D01*
X15132572Y-14119784D02*
X15094477Y-14119784D01*
X15094477Y-14119784D02*
X15075430Y-14110260D01*
X15075430Y-14110260D02*
X15065906Y-14091212D01*
X15065906Y-14091212D02*
X15065906Y-14015022D01*
X15065906Y-14015022D02*
X15075430Y-13995974D01*
X15075430Y-13995974D02*
X15094477Y-13986450D01*
X15094477Y-13986450D02*
X15132572Y-13986450D01*
X15132572Y-13986450D02*
X15151620Y-13995974D01*
X15151620Y-13995974D02*
X15161144Y-14015022D01*
X15161144Y-14015022D02*
X15161144Y-14034069D01*
X15161144Y-14034069D02*
X15065906Y-14053117D01*
X15237334Y-14110260D02*
X15256382Y-14119784D01*
X15256382Y-14119784D02*
X15294477Y-14119784D01*
X15294477Y-14119784D02*
X15313525Y-14110260D01*
X15313525Y-14110260D02*
X15323049Y-14091212D01*
X15323049Y-14091212D02*
X15323049Y-14081688D01*
X15323049Y-14081688D02*
X15313525Y-14062641D01*
X15313525Y-14062641D02*
X15294477Y-14053117D01*
X15294477Y-14053117D02*
X15265906Y-14053117D01*
X15265906Y-14053117D02*
X15246858Y-14043593D01*
X15246858Y-14043593D02*
X15237334Y-14024546D01*
X15237334Y-14024546D02*
X15237334Y-14015022D01*
X15237334Y-14015022D02*
X15246858Y-13995974D01*
X15246858Y-13995974D02*
X15265906Y-13986450D01*
X15265906Y-13986450D02*
X15294477Y-13986450D01*
X15294477Y-13986450D02*
X15313525Y-13995974D01*
X15389715Y-14195974D02*
X15399239Y-14186450D01*
X15399239Y-14186450D02*
X15418287Y-14157879D01*
X15418287Y-14157879D02*
X15427811Y-14138831D01*
X15427811Y-14138831D02*
X15437334Y-14110260D01*
X15437334Y-14110260D02*
X15446858Y-14062641D01*
X15446858Y-14062641D02*
X15446858Y-14024546D01*
X15446858Y-14024546D02*
X15437334Y-13976927D01*
X15437334Y-13976927D02*
X15427811Y-13948355D01*
X15427811Y-13948355D02*
X15418287Y-13929308D01*
X15418287Y-13929308D02*
X15399239Y-13900736D01*
X15399239Y-13900736D02*
X15389715Y-13891212D01*
D13*
X10233700Y-14292300D02*
G75*
G02*
X10203700Y-14292300I-15000J0D01*
G01*
X10203700Y-14292300D02*
G75*
G02*
X10233700Y-14292300I15000J0D01*
G01*
D12*
X10532572Y-14183784D02*
X10551620Y-14183784D01*
X10551620Y-14183784D02*
X10570667Y-14193308D01*
X10570667Y-14193308D02*
X10580191Y-14202831D01*
X10580191Y-14202831D02*
X10589715Y-14221879D01*
X10589715Y-14221879D02*
X10599239Y-14259974D01*
X10599239Y-14259974D02*
X10599239Y-14307593D01*
X10599239Y-14307593D02*
X10589715Y-14345688D01*
X10589715Y-14345688D02*
X10580191Y-14364736D01*
X10580191Y-14364736D02*
X10570667Y-14374260D01*
X10570667Y-14374260D02*
X10551620Y-14383784D01*
X10551620Y-14383784D02*
X10532572Y-14383784D01*
X10532572Y-14383784D02*
X10513524Y-14374260D01*
X10513524Y-14374260D02*
X10504001Y-14364736D01*
X10504001Y-14364736D02*
X10494477Y-14345688D01*
X10494477Y-14345688D02*
X10484953Y-14307593D01*
X10484953Y-14307593D02*
X10484953Y-14259974D01*
X10484953Y-14259974D02*
X10494477Y-14221879D01*
X10494477Y-14221879D02*
X10504001Y-14202831D01*
X10504001Y-14202831D02*
X10513524Y-14193308D01*
X10513524Y-14193308D02*
X10532572Y-14183784D01*
X10684953Y-14364736D02*
X10694477Y-14374260D01*
X10694477Y-14374260D02*
X10684953Y-14383784D01*
X10684953Y-14383784D02*
X10675429Y-14374260D01*
X10675429Y-14374260D02*
X10684953Y-14364736D01*
X10684953Y-14364736D02*
X10684953Y-14383784D01*
X10761144Y-14183784D02*
X10884953Y-14183784D01*
X10884953Y-14183784D02*
X10818286Y-14259974D01*
X10818286Y-14259974D02*
X10846858Y-14259974D01*
X10846858Y-14259974D02*
X10865905Y-14269498D01*
X10865905Y-14269498D02*
X10875429Y-14279022D01*
X10875429Y-14279022D02*
X10884953Y-14298069D01*
X10884953Y-14298069D02*
X10884953Y-14345688D01*
X10884953Y-14345688D02*
X10875429Y-14364736D01*
X10875429Y-14364736D02*
X10865905Y-14374260D01*
X10865905Y-14374260D02*
X10846858Y-14383784D01*
X10846858Y-14383784D02*
X10789715Y-14383784D01*
X10789715Y-14383784D02*
X10770667Y-14374260D01*
X10770667Y-14374260D02*
X10761144Y-14364736D01*
X11008763Y-14183784D02*
X11027810Y-14183784D01*
X11027810Y-14183784D02*
X11046858Y-14193308D01*
X11046858Y-14193308D02*
X11056382Y-14202831D01*
X11056382Y-14202831D02*
X11065905Y-14221879D01*
X11065905Y-14221879D02*
X11075429Y-14259974D01*
X11075429Y-14259974D02*
X11075429Y-14307593D01*
X11075429Y-14307593D02*
X11065905Y-14345688D01*
X11065905Y-14345688D02*
X11056382Y-14364736D01*
X11056382Y-14364736D02*
X11046858Y-14374260D01*
X11046858Y-14374260D02*
X11027810Y-14383784D01*
X11027810Y-14383784D02*
X11008763Y-14383784D01*
X11008763Y-14383784D02*
X10989715Y-14374260D01*
X10989715Y-14374260D02*
X10980191Y-14364736D01*
X10980191Y-14364736D02*
X10970667Y-14345688D01*
X10970667Y-14345688D02*
X10961144Y-14307593D01*
X10961144Y-14307593D02*
X10961144Y-14259974D01*
X10961144Y-14259974D02*
X10970667Y-14221879D01*
X10970667Y-14221879D02*
X10980191Y-14202831D01*
X10980191Y-14202831D02*
X10989715Y-14193308D01*
X10989715Y-14193308D02*
X11008763Y-14183784D01*
X11199239Y-14183784D02*
X11218286Y-14183784D01*
X11218286Y-14183784D02*
X11237334Y-14193308D01*
X11237334Y-14193308D02*
X11246858Y-14202831D01*
X11246858Y-14202831D02*
X11256382Y-14221879D01*
X11256382Y-14221879D02*
X11265905Y-14259974D01*
X11265905Y-14259974D02*
X11265905Y-14307593D01*
X11265905Y-14307593D02*
X11256382Y-14345688D01*
X11256382Y-14345688D02*
X11246858Y-14364736D01*
X11246858Y-14364736D02*
X11237334Y-14374260D01*
X11237334Y-14374260D02*
X11218286Y-14383784D01*
X11218286Y-14383784D02*
X11199239Y-14383784D01*
X11199239Y-14383784D02*
X11180191Y-14374260D01*
X11180191Y-14374260D02*
X11170667Y-14364736D01*
X11170667Y-14364736D02*
X11161144Y-14345688D01*
X11161144Y-14345688D02*
X11151620Y-14307593D01*
X11151620Y-14307593D02*
X11151620Y-14259974D01*
X11151620Y-14259974D02*
X11161144Y-14221879D01*
X11161144Y-14221879D02*
X11170667Y-14202831D01*
X11170667Y-14202831D02*
X11180191Y-14193308D01*
X11180191Y-14193308D02*
X11199239Y-14183784D01*
X11351620Y-14383784D02*
X11351620Y-14250450D01*
X11351620Y-14269498D02*
X11361143Y-14259974D01*
X11361143Y-14259974D02*
X11380191Y-14250450D01*
X11380191Y-14250450D02*
X11408763Y-14250450D01*
X11408763Y-14250450D02*
X11427810Y-14259974D01*
X11427810Y-14259974D02*
X11437334Y-14279022D01*
X11437334Y-14279022D02*
X11437334Y-14383784D01*
X11437334Y-14279022D02*
X11446858Y-14259974D01*
X11446858Y-14259974D02*
X11465905Y-14250450D01*
X11465905Y-14250450D02*
X11494477Y-14250450D01*
X11494477Y-14250450D02*
X11513524Y-14259974D01*
X11513524Y-14259974D02*
X11523048Y-14279022D01*
X11523048Y-14279022D02*
X11523048Y-14383784D01*
X11618286Y-14383784D02*
X11618286Y-14250450D01*
X11618286Y-14269498D02*
X11627810Y-14259974D01*
X11627810Y-14259974D02*
X11646858Y-14250450D01*
X11646858Y-14250450D02*
X11675429Y-14250450D01*
X11675429Y-14250450D02*
X11694477Y-14259974D01*
X11694477Y-14259974D02*
X11704001Y-14279022D01*
X11704001Y-14279022D02*
X11704001Y-14383784D01*
X11704001Y-14279022D02*
X11713524Y-14259974D01*
X11713524Y-14259974D02*
X11732572Y-14250450D01*
X11732572Y-14250450D02*
X11761143Y-14250450D01*
X11761143Y-14250450D02*
X11780191Y-14259974D01*
X11780191Y-14259974D02*
X11789715Y-14279022D01*
X11789715Y-14279022D02*
X11789715Y-14383784D01*
X12180191Y-14174260D02*
X12008763Y-14431403D01*
X12437334Y-14183784D02*
X12456382Y-14183784D01*
X12456382Y-14183784D02*
X12475429Y-14193308D01*
X12475429Y-14193308D02*
X12484953Y-14202831D01*
X12484953Y-14202831D02*
X12494477Y-14221879D01*
X12494477Y-14221879D02*
X12504001Y-14259974D01*
X12504001Y-14259974D02*
X12504001Y-14307593D01*
X12504001Y-14307593D02*
X12494477Y-14345688D01*
X12494477Y-14345688D02*
X12484953Y-14364736D01*
X12484953Y-14364736D02*
X12475429Y-14374260D01*
X12475429Y-14374260D02*
X12456382Y-14383784D01*
X12456382Y-14383784D02*
X12437334Y-14383784D01*
X12437334Y-14383784D02*
X12418286Y-14374260D01*
X12418286Y-14374260D02*
X12408763Y-14364736D01*
X12408763Y-14364736D02*
X12399239Y-14345688D01*
X12399239Y-14345688D02*
X12389715Y-14307593D01*
X12389715Y-14307593D02*
X12389715Y-14259974D01*
X12389715Y-14259974D02*
X12399239Y-14221879D01*
X12399239Y-14221879D02*
X12408763Y-14202831D01*
X12408763Y-14202831D02*
X12418286Y-14193308D01*
X12418286Y-14193308D02*
X12437334Y-14183784D01*
X12589715Y-14364736D02*
X12599239Y-14374260D01*
X12599239Y-14374260D02*
X12589715Y-14383784D01*
X12589715Y-14383784D02*
X12580191Y-14374260D01*
X12580191Y-14374260D02*
X12589715Y-14364736D01*
X12589715Y-14364736D02*
X12589715Y-14383784D01*
X12723048Y-14183784D02*
X12742096Y-14183784D01*
X12742096Y-14183784D02*
X12761144Y-14193308D01*
X12761144Y-14193308D02*
X12770667Y-14202831D01*
X12770667Y-14202831D02*
X12780191Y-14221879D01*
X12780191Y-14221879D02*
X12789715Y-14259974D01*
X12789715Y-14259974D02*
X12789715Y-14307593D01*
X12789715Y-14307593D02*
X12780191Y-14345688D01*
X12780191Y-14345688D02*
X12770667Y-14364736D01*
X12770667Y-14364736D02*
X12761144Y-14374260D01*
X12761144Y-14374260D02*
X12742096Y-14383784D01*
X12742096Y-14383784D02*
X12723048Y-14383784D01*
X12723048Y-14383784D02*
X12704001Y-14374260D01*
X12704001Y-14374260D02*
X12694477Y-14364736D01*
X12694477Y-14364736D02*
X12684953Y-14345688D01*
X12684953Y-14345688D02*
X12675429Y-14307593D01*
X12675429Y-14307593D02*
X12675429Y-14259974D01*
X12675429Y-14259974D02*
X12684953Y-14221879D01*
X12684953Y-14221879D02*
X12694477Y-14202831D01*
X12694477Y-14202831D02*
X12704001Y-14193308D01*
X12704001Y-14193308D02*
X12723048Y-14183784D01*
X12980191Y-14383784D02*
X12865906Y-14383784D01*
X12923048Y-14383784D02*
X12923048Y-14183784D01*
X12923048Y-14183784D02*
X12904001Y-14212355D01*
X12904001Y-14212355D02*
X12884953Y-14231403D01*
X12884953Y-14231403D02*
X12865906Y-14240927D01*
X13170667Y-14383784D02*
X13056382Y-14383784D01*
X13113525Y-14383784D02*
X13113525Y-14183784D01*
X13113525Y-14183784D02*
X13094477Y-14212355D01*
X13094477Y-14212355D02*
X13075429Y-14231403D01*
X13075429Y-14231403D02*
X13056382Y-14240927D01*
X13284953Y-14269498D02*
X13265906Y-14259974D01*
X13265906Y-14259974D02*
X13256382Y-14250450D01*
X13256382Y-14250450D02*
X13246858Y-14231403D01*
X13246858Y-14231403D02*
X13246858Y-14221879D01*
X13246858Y-14221879D02*
X13256382Y-14202831D01*
X13256382Y-14202831D02*
X13265906Y-14193308D01*
X13265906Y-14193308D02*
X13284953Y-14183784D01*
X13284953Y-14183784D02*
X13323048Y-14183784D01*
X13323048Y-14183784D02*
X13342096Y-14193308D01*
X13342096Y-14193308D02*
X13351620Y-14202831D01*
X13351620Y-14202831D02*
X13361144Y-14221879D01*
X13361144Y-14221879D02*
X13361144Y-14231403D01*
X13361144Y-14231403D02*
X13351620Y-14250450D01*
X13351620Y-14250450D02*
X13342096Y-14259974D01*
X13342096Y-14259974D02*
X13323048Y-14269498D01*
X13323048Y-14269498D02*
X13284953Y-14269498D01*
X13284953Y-14269498D02*
X13265906Y-14279022D01*
X13265906Y-14279022D02*
X13256382Y-14288546D01*
X13256382Y-14288546D02*
X13246858Y-14307593D01*
X13246858Y-14307593D02*
X13246858Y-14345688D01*
X13246858Y-14345688D02*
X13256382Y-14364736D01*
X13256382Y-14364736D02*
X13265906Y-14374260D01*
X13265906Y-14374260D02*
X13284953Y-14383784D01*
X13284953Y-14383784D02*
X13323048Y-14383784D01*
X13323048Y-14383784D02*
X13342096Y-14374260D01*
X13342096Y-14374260D02*
X13351620Y-14364736D01*
X13351620Y-14364736D02*
X13361144Y-14345688D01*
X13361144Y-14345688D02*
X13361144Y-14307593D01*
X13361144Y-14307593D02*
X13351620Y-14288546D01*
X13351620Y-14288546D02*
X13342096Y-14279022D01*
X13342096Y-14279022D02*
X13323048Y-14269498D01*
X13437334Y-14183784D02*
X13437334Y-14221879D01*
X13513525Y-14183784D02*
X13513525Y-14221879D01*
X13808763Y-14459974D02*
X13799239Y-14450450D01*
X13799239Y-14450450D02*
X13780191Y-14421879D01*
X13780191Y-14421879D02*
X13770668Y-14402831D01*
X13770668Y-14402831D02*
X13761144Y-14374260D01*
X13761144Y-14374260D02*
X13751620Y-14326641D01*
X13751620Y-14326641D02*
X13751620Y-14288546D01*
X13751620Y-14288546D02*
X13761144Y-14240927D01*
X13761144Y-14240927D02*
X13770668Y-14212355D01*
X13770668Y-14212355D02*
X13780191Y-14193308D01*
X13780191Y-14193308D02*
X13799239Y-14164736D01*
X13799239Y-14164736D02*
X13808763Y-14155212D01*
X13989715Y-14383784D02*
X13875429Y-14383784D01*
X13932572Y-14383784D02*
X13932572Y-14183784D01*
X13932572Y-14183784D02*
X13913525Y-14212355D01*
X13913525Y-14212355D02*
X13894477Y-14231403D01*
X13894477Y-14231403D02*
X13875429Y-14240927D01*
X14104001Y-14269498D02*
X14084953Y-14259974D01*
X14084953Y-14259974D02*
X14075429Y-14250450D01*
X14075429Y-14250450D02*
X14065906Y-14231403D01*
X14065906Y-14231403D02*
X14065906Y-14221879D01*
X14065906Y-14221879D02*
X14075429Y-14202831D01*
X14075429Y-14202831D02*
X14084953Y-14193308D01*
X14084953Y-14193308D02*
X14104001Y-14183784D01*
X14104001Y-14183784D02*
X14142096Y-14183784D01*
X14142096Y-14183784D02*
X14161144Y-14193308D01*
X14161144Y-14193308D02*
X14170668Y-14202831D01*
X14170668Y-14202831D02*
X14180191Y-14221879D01*
X14180191Y-14221879D02*
X14180191Y-14231403D01*
X14180191Y-14231403D02*
X14170668Y-14250450D01*
X14170668Y-14250450D02*
X14161144Y-14259974D01*
X14161144Y-14259974D02*
X14142096Y-14269498D01*
X14142096Y-14269498D02*
X14104001Y-14269498D01*
X14104001Y-14269498D02*
X14084953Y-14279022D01*
X14084953Y-14279022D02*
X14075429Y-14288546D01*
X14075429Y-14288546D02*
X14065906Y-14307593D01*
X14065906Y-14307593D02*
X14065906Y-14345688D01*
X14065906Y-14345688D02*
X14075429Y-14364736D01*
X14075429Y-14364736D02*
X14084953Y-14374260D01*
X14084953Y-14374260D02*
X14104001Y-14383784D01*
X14104001Y-14383784D02*
X14142096Y-14383784D01*
X14142096Y-14383784D02*
X14161144Y-14374260D01*
X14161144Y-14374260D02*
X14170668Y-14364736D01*
X14170668Y-14364736D02*
X14180191Y-14345688D01*
X14180191Y-14345688D02*
X14180191Y-14307593D01*
X14180191Y-14307593D02*
X14170668Y-14288546D01*
X14170668Y-14288546D02*
X14161144Y-14279022D01*
X14161144Y-14279022D02*
X14142096Y-14269498D01*
X14418287Y-14383784D02*
X14418287Y-14183784D01*
X14504001Y-14383784D02*
X14504001Y-14279022D01*
X14504001Y-14279022D02*
X14494477Y-14259974D01*
X14494477Y-14259974D02*
X14475430Y-14250450D01*
X14475430Y-14250450D02*
X14446858Y-14250450D01*
X14446858Y-14250450D02*
X14427810Y-14259974D01*
X14427810Y-14259974D02*
X14418287Y-14269498D01*
X14627810Y-14383784D02*
X14608763Y-14374260D01*
X14608763Y-14374260D02*
X14599239Y-14364736D01*
X14599239Y-14364736D02*
X14589715Y-14345688D01*
X14589715Y-14345688D02*
X14589715Y-14288546D01*
X14589715Y-14288546D02*
X14599239Y-14269498D01*
X14599239Y-14269498D02*
X14608763Y-14259974D01*
X14608763Y-14259974D02*
X14627810Y-14250450D01*
X14627810Y-14250450D02*
X14656382Y-14250450D01*
X14656382Y-14250450D02*
X14675430Y-14259974D01*
X14675430Y-14259974D02*
X14684953Y-14269498D01*
X14684953Y-14269498D02*
X14694477Y-14288546D01*
X14694477Y-14288546D02*
X14694477Y-14345688D01*
X14694477Y-14345688D02*
X14684953Y-14364736D01*
X14684953Y-14364736D02*
X14675430Y-14374260D01*
X14675430Y-14374260D02*
X14656382Y-14383784D01*
X14656382Y-14383784D02*
X14627810Y-14383784D01*
X14808763Y-14383784D02*
X14789715Y-14374260D01*
X14789715Y-14374260D02*
X14780191Y-14355212D01*
X14780191Y-14355212D02*
X14780191Y-14183784D01*
X14961144Y-14374260D02*
X14942096Y-14383784D01*
X14942096Y-14383784D02*
X14904001Y-14383784D01*
X14904001Y-14383784D02*
X14884953Y-14374260D01*
X14884953Y-14374260D02*
X14875430Y-14355212D01*
X14875430Y-14355212D02*
X14875430Y-14279022D01*
X14875430Y-14279022D02*
X14884953Y-14259974D01*
X14884953Y-14259974D02*
X14904001Y-14250450D01*
X14904001Y-14250450D02*
X14942096Y-14250450D01*
X14942096Y-14250450D02*
X14961144Y-14259974D01*
X14961144Y-14259974D02*
X14970668Y-14279022D01*
X14970668Y-14279022D02*
X14970668Y-14298069D01*
X14970668Y-14298069D02*
X14875430Y-14317117D01*
X15046858Y-14374260D02*
X15065906Y-14383784D01*
X15065906Y-14383784D02*
X15104001Y-14383784D01*
X15104001Y-14383784D02*
X15123049Y-14374260D01*
X15123049Y-14374260D02*
X15132572Y-14355212D01*
X15132572Y-14355212D02*
X15132572Y-14345688D01*
X15132572Y-14345688D02*
X15123049Y-14326641D01*
X15123049Y-14326641D02*
X15104001Y-14317117D01*
X15104001Y-14317117D02*
X15075430Y-14317117D01*
X15075430Y-14317117D02*
X15056382Y-14307593D01*
X15056382Y-14307593D02*
X15046858Y-14288546D01*
X15046858Y-14288546D02*
X15046858Y-14279022D01*
X15046858Y-14279022D02*
X15056382Y-14259974D01*
X15056382Y-14259974D02*
X15075430Y-14250450D01*
X15075430Y-14250450D02*
X15104001Y-14250450D01*
X15104001Y-14250450D02*
X15123049Y-14259974D01*
X15199239Y-14459974D02*
X15208763Y-14450450D01*
X15208763Y-14450450D02*
X15227811Y-14421879D01*
X15227811Y-14421879D02*
X15237334Y-14402831D01*
X15237334Y-14402831D02*
X15246858Y-14374260D01*
X15246858Y-14374260D02*
X15256382Y-14326641D01*
X15256382Y-14326641D02*
X15256382Y-14288546D01*
X15256382Y-14288546D02*
X15246858Y-14240927D01*
X15246858Y-14240927D02*
X15237334Y-14212355D01*
X15237334Y-14212355D02*
X15227811Y-14193308D01*
X15227811Y-14193308D02*
X15208763Y-14164736D01*
X15208763Y-14164736D02*
X15199239Y-14155212D01*
D13*
X10217200Y-14539800D02*
X10217200Y-14572800D01*
X10200700Y-14556300D02*
X10233700Y-14556300D01*
D12*
X10532572Y-14447784D02*
X10551620Y-14447784D01*
X10551620Y-14447784D02*
X10570667Y-14457308D01*
X10570667Y-14457308D02*
X10580191Y-14466831D01*
X10580191Y-14466831D02*
X10589715Y-14485879D01*
X10589715Y-14485879D02*
X10599239Y-14523974D01*
X10599239Y-14523974D02*
X10599239Y-14571593D01*
X10599239Y-14571593D02*
X10589715Y-14609688D01*
X10589715Y-14609688D02*
X10580191Y-14628736D01*
X10580191Y-14628736D02*
X10570667Y-14638260D01*
X10570667Y-14638260D02*
X10551620Y-14647784D01*
X10551620Y-14647784D02*
X10532572Y-14647784D01*
X10532572Y-14647784D02*
X10513524Y-14638260D01*
X10513524Y-14638260D02*
X10504001Y-14628736D01*
X10504001Y-14628736D02*
X10494477Y-14609688D01*
X10494477Y-14609688D02*
X10484953Y-14571593D01*
X10484953Y-14571593D02*
X10484953Y-14523974D01*
X10484953Y-14523974D02*
X10494477Y-14485879D01*
X10494477Y-14485879D02*
X10504001Y-14466831D01*
X10504001Y-14466831D02*
X10513524Y-14457308D01*
X10513524Y-14457308D02*
X10532572Y-14447784D01*
X10684953Y-14628736D02*
X10694477Y-14638260D01*
X10694477Y-14638260D02*
X10684953Y-14647784D01*
X10684953Y-14647784D02*
X10675429Y-14638260D01*
X10675429Y-14638260D02*
X10684953Y-14628736D01*
X10684953Y-14628736D02*
X10684953Y-14647784D01*
X10761144Y-14447784D02*
X10884953Y-14447784D01*
X10884953Y-14447784D02*
X10818286Y-14523974D01*
X10818286Y-14523974D02*
X10846858Y-14523974D01*
X10846858Y-14523974D02*
X10865905Y-14533498D01*
X10865905Y-14533498D02*
X10875429Y-14543022D01*
X10875429Y-14543022D02*
X10884953Y-14562069D01*
X10884953Y-14562069D02*
X10884953Y-14609688D01*
X10884953Y-14609688D02*
X10875429Y-14628736D01*
X10875429Y-14628736D02*
X10865905Y-14638260D01*
X10865905Y-14638260D02*
X10846858Y-14647784D01*
X10846858Y-14647784D02*
X10789715Y-14647784D01*
X10789715Y-14647784D02*
X10770667Y-14638260D01*
X10770667Y-14638260D02*
X10761144Y-14628736D01*
X10951620Y-14447784D02*
X11075429Y-14447784D01*
X11075429Y-14447784D02*
X11008763Y-14523974D01*
X11008763Y-14523974D02*
X11037334Y-14523974D01*
X11037334Y-14523974D02*
X11056382Y-14533498D01*
X11056382Y-14533498D02*
X11065905Y-14543022D01*
X11065905Y-14543022D02*
X11075429Y-14562069D01*
X11075429Y-14562069D02*
X11075429Y-14609688D01*
X11075429Y-14609688D02*
X11065905Y-14628736D01*
X11065905Y-14628736D02*
X11056382Y-14638260D01*
X11056382Y-14638260D02*
X11037334Y-14647784D01*
X11037334Y-14647784D02*
X10980191Y-14647784D01*
X10980191Y-14647784D02*
X10961144Y-14638260D01*
X10961144Y-14638260D02*
X10951620Y-14628736D01*
X11199239Y-14447784D02*
X11218286Y-14447784D01*
X11218286Y-14447784D02*
X11237334Y-14457308D01*
X11237334Y-14457308D02*
X11246858Y-14466831D01*
X11246858Y-14466831D02*
X11256382Y-14485879D01*
X11256382Y-14485879D02*
X11265905Y-14523974D01*
X11265905Y-14523974D02*
X11265905Y-14571593D01*
X11265905Y-14571593D02*
X11256382Y-14609688D01*
X11256382Y-14609688D02*
X11246858Y-14628736D01*
X11246858Y-14628736D02*
X11237334Y-14638260D01*
X11237334Y-14638260D02*
X11218286Y-14647784D01*
X11218286Y-14647784D02*
X11199239Y-14647784D01*
X11199239Y-14647784D02*
X11180191Y-14638260D01*
X11180191Y-14638260D02*
X11170667Y-14628736D01*
X11170667Y-14628736D02*
X11161144Y-14609688D01*
X11161144Y-14609688D02*
X11151620Y-14571593D01*
X11151620Y-14571593D02*
X11151620Y-14523974D01*
X11151620Y-14523974D02*
X11161144Y-14485879D01*
X11161144Y-14485879D02*
X11170667Y-14466831D01*
X11170667Y-14466831D02*
X11180191Y-14457308D01*
X11180191Y-14457308D02*
X11199239Y-14447784D01*
X11351620Y-14647784D02*
X11351620Y-14514450D01*
X11351620Y-14533498D02*
X11361143Y-14523974D01*
X11361143Y-14523974D02*
X11380191Y-14514450D01*
X11380191Y-14514450D02*
X11408763Y-14514450D01*
X11408763Y-14514450D02*
X11427810Y-14523974D01*
X11427810Y-14523974D02*
X11437334Y-14543022D01*
X11437334Y-14543022D02*
X11437334Y-14647784D01*
X11437334Y-14543022D02*
X11446858Y-14523974D01*
X11446858Y-14523974D02*
X11465905Y-14514450D01*
X11465905Y-14514450D02*
X11494477Y-14514450D01*
X11494477Y-14514450D02*
X11513524Y-14523974D01*
X11513524Y-14523974D02*
X11523048Y-14543022D01*
X11523048Y-14543022D02*
X11523048Y-14647784D01*
X11618286Y-14647784D02*
X11618286Y-14514450D01*
X11618286Y-14533498D02*
X11627810Y-14523974D01*
X11627810Y-14523974D02*
X11646858Y-14514450D01*
X11646858Y-14514450D02*
X11675429Y-14514450D01*
X11675429Y-14514450D02*
X11694477Y-14523974D01*
X11694477Y-14523974D02*
X11704001Y-14543022D01*
X11704001Y-14543022D02*
X11704001Y-14647784D01*
X11704001Y-14543022D02*
X11713524Y-14523974D01*
X11713524Y-14523974D02*
X11732572Y-14514450D01*
X11732572Y-14514450D02*
X11761143Y-14514450D01*
X11761143Y-14514450D02*
X11780191Y-14523974D01*
X11780191Y-14523974D02*
X11789715Y-14543022D01*
X11789715Y-14543022D02*
X11789715Y-14647784D01*
X12180191Y-14438260D02*
X12008763Y-14695403D01*
X12437334Y-14447784D02*
X12456382Y-14447784D01*
X12456382Y-14447784D02*
X12475429Y-14457308D01*
X12475429Y-14457308D02*
X12484953Y-14466831D01*
X12484953Y-14466831D02*
X12494477Y-14485879D01*
X12494477Y-14485879D02*
X12504001Y-14523974D01*
X12504001Y-14523974D02*
X12504001Y-14571593D01*
X12504001Y-14571593D02*
X12494477Y-14609688D01*
X12494477Y-14609688D02*
X12484953Y-14628736D01*
X12484953Y-14628736D02*
X12475429Y-14638260D01*
X12475429Y-14638260D02*
X12456382Y-14647784D01*
X12456382Y-14647784D02*
X12437334Y-14647784D01*
X12437334Y-14647784D02*
X12418286Y-14638260D01*
X12418286Y-14638260D02*
X12408763Y-14628736D01*
X12408763Y-14628736D02*
X12399239Y-14609688D01*
X12399239Y-14609688D02*
X12389715Y-14571593D01*
X12389715Y-14571593D02*
X12389715Y-14523974D01*
X12389715Y-14523974D02*
X12399239Y-14485879D01*
X12399239Y-14485879D02*
X12408763Y-14466831D01*
X12408763Y-14466831D02*
X12418286Y-14457308D01*
X12418286Y-14457308D02*
X12437334Y-14447784D01*
X12589715Y-14628736D02*
X12599239Y-14638260D01*
X12599239Y-14638260D02*
X12589715Y-14647784D01*
X12589715Y-14647784D02*
X12580191Y-14638260D01*
X12580191Y-14638260D02*
X12589715Y-14628736D01*
X12589715Y-14628736D02*
X12589715Y-14647784D01*
X12723048Y-14447784D02*
X12742096Y-14447784D01*
X12742096Y-14447784D02*
X12761144Y-14457308D01*
X12761144Y-14457308D02*
X12770667Y-14466831D01*
X12770667Y-14466831D02*
X12780191Y-14485879D01*
X12780191Y-14485879D02*
X12789715Y-14523974D01*
X12789715Y-14523974D02*
X12789715Y-14571593D01*
X12789715Y-14571593D02*
X12780191Y-14609688D01*
X12780191Y-14609688D02*
X12770667Y-14628736D01*
X12770667Y-14628736D02*
X12761144Y-14638260D01*
X12761144Y-14638260D02*
X12742096Y-14647784D01*
X12742096Y-14647784D02*
X12723048Y-14647784D01*
X12723048Y-14647784D02*
X12704001Y-14638260D01*
X12704001Y-14638260D02*
X12694477Y-14628736D01*
X12694477Y-14628736D02*
X12684953Y-14609688D01*
X12684953Y-14609688D02*
X12675429Y-14571593D01*
X12675429Y-14571593D02*
X12675429Y-14523974D01*
X12675429Y-14523974D02*
X12684953Y-14485879D01*
X12684953Y-14485879D02*
X12694477Y-14466831D01*
X12694477Y-14466831D02*
X12704001Y-14457308D01*
X12704001Y-14457308D02*
X12723048Y-14447784D01*
X12980191Y-14647784D02*
X12865906Y-14647784D01*
X12923048Y-14647784D02*
X12923048Y-14447784D01*
X12923048Y-14447784D02*
X12904001Y-14476355D01*
X12904001Y-14476355D02*
X12884953Y-14495403D01*
X12884953Y-14495403D02*
X12865906Y-14504927D01*
X13046858Y-14447784D02*
X13170667Y-14447784D01*
X13170667Y-14447784D02*
X13104001Y-14523974D01*
X13104001Y-14523974D02*
X13132572Y-14523974D01*
X13132572Y-14523974D02*
X13151620Y-14533498D01*
X13151620Y-14533498D02*
X13161144Y-14543022D01*
X13161144Y-14543022D02*
X13170667Y-14562069D01*
X13170667Y-14562069D02*
X13170667Y-14609688D01*
X13170667Y-14609688D02*
X13161144Y-14628736D01*
X13161144Y-14628736D02*
X13151620Y-14638260D01*
X13151620Y-14638260D02*
X13132572Y-14647784D01*
X13132572Y-14647784D02*
X13075429Y-14647784D01*
X13075429Y-14647784D02*
X13056382Y-14638260D01*
X13056382Y-14638260D02*
X13046858Y-14628736D01*
X13294477Y-14447784D02*
X13313525Y-14447784D01*
X13313525Y-14447784D02*
X13332572Y-14457308D01*
X13332572Y-14457308D02*
X13342096Y-14466831D01*
X13342096Y-14466831D02*
X13351620Y-14485879D01*
X13351620Y-14485879D02*
X13361144Y-14523974D01*
X13361144Y-14523974D02*
X13361144Y-14571593D01*
X13361144Y-14571593D02*
X13351620Y-14609688D01*
X13351620Y-14609688D02*
X13342096Y-14628736D01*
X13342096Y-14628736D02*
X13332572Y-14638260D01*
X13332572Y-14638260D02*
X13313525Y-14647784D01*
X13313525Y-14647784D02*
X13294477Y-14647784D01*
X13294477Y-14647784D02*
X13275429Y-14638260D01*
X13275429Y-14638260D02*
X13265906Y-14628736D01*
X13265906Y-14628736D02*
X13256382Y-14609688D01*
X13256382Y-14609688D02*
X13246858Y-14571593D01*
X13246858Y-14571593D02*
X13246858Y-14523974D01*
X13246858Y-14523974D02*
X13256382Y-14485879D01*
X13256382Y-14485879D02*
X13265906Y-14466831D01*
X13265906Y-14466831D02*
X13275429Y-14457308D01*
X13275429Y-14457308D02*
X13294477Y-14447784D01*
X13437334Y-14447784D02*
X13437334Y-14485879D01*
X13513525Y-14447784D02*
X13513525Y-14485879D01*
X13808763Y-14723974D02*
X13799239Y-14714450D01*
X13799239Y-14714450D02*
X13780191Y-14685879D01*
X13780191Y-14685879D02*
X13770668Y-14666831D01*
X13770668Y-14666831D02*
X13761144Y-14638260D01*
X13761144Y-14638260D02*
X13751620Y-14590641D01*
X13751620Y-14590641D02*
X13751620Y-14552546D01*
X13751620Y-14552546D02*
X13761144Y-14504927D01*
X13761144Y-14504927D02*
X13770668Y-14476355D01*
X13770668Y-14476355D02*
X13780191Y-14457308D01*
X13780191Y-14457308D02*
X13799239Y-14428736D01*
X13799239Y-14428736D02*
X13808763Y-14419212D01*
X13970668Y-14447784D02*
X13932572Y-14447784D01*
X13932572Y-14447784D02*
X13913525Y-14457308D01*
X13913525Y-14457308D02*
X13904001Y-14466831D01*
X13904001Y-14466831D02*
X13884953Y-14495403D01*
X13884953Y-14495403D02*
X13875429Y-14533498D01*
X13875429Y-14533498D02*
X13875429Y-14609688D01*
X13875429Y-14609688D02*
X13884953Y-14628736D01*
X13884953Y-14628736D02*
X13894477Y-14638260D01*
X13894477Y-14638260D02*
X13913525Y-14647784D01*
X13913525Y-14647784D02*
X13951620Y-14647784D01*
X13951620Y-14647784D02*
X13970668Y-14638260D01*
X13970668Y-14638260D02*
X13980191Y-14628736D01*
X13980191Y-14628736D02*
X13989715Y-14609688D01*
X13989715Y-14609688D02*
X13989715Y-14562069D01*
X13989715Y-14562069D02*
X13980191Y-14543022D01*
X13980191Y-14543022D02*
X13970668Y-14533498D01*
X13970668Y-14533498D02*
X13951620Y-14523974D01*
X13951620Y-14523974D02*
X13913525Y-14523974D01*
X13913525Y-14523974D02*
X13894477Y-14533498D01*
X13894477Y-14533498D02*
X13884953Y-14543022D01*
X13884953Y-14543022D02*
X13875429Y-14562069D01*
X14227810Y-14647784D02*
X14227810Y-14447784D01*
X14313525Y-14647784D02*
X14313525Y-14543022D01*
X14313525Y-14543022D02*
X14304001Y-14523974D01*
X14304001Y-14523974D02*
X14284953Y-14514450D01*
X14284953Y-14514450D02*
X14256382Y-14514450D01*
X14256382Y-14514450D02*
X14237334Y-14523974D01*
X14237334Y-14523974D02*
X14227810Y-14533498D01*
X14437334Y-14647784D02*
X14418287Y-14638260D01*
X14418287Y-14638260D02*
X14408763Y-14628736D01*
X14408763Y-14628736D02*
X14399239Y-14609688D01*
X14399239Y-14609688D02*
X14399239Y-14552546D01*
X14399239Y-14552546D02*
X14408763Y-14533498D01*
X14408763Y-14533498D02*
X14418287Y-14523974D01*
X14418287Y-14523974D02*
X14437334Y-14514450D01*
X14437334Y-14514450D02*
X14465906Y-14514450D01*
X14465906Y-14514450D02*
X14484953Y-14523974D01*
X14484953Y-14523974D02*
X14494477Y-14533498D01*
X14494477Y-14533498D02*
X14504001Y-14552546D01*
X14504001Y-14552546D02*
X14504001Y-14609688D01*
X14504001Y-14609688D02*
X14494477Y-14628736D01*
X14494477Y-14628736D02*
X14484953Y-14638260D01*
X14484953Y-14638260D02*
X14465906Y-14647784D01*
X14465906Y-14647784D02*
X14437334Y-14647784D01*
X14618287Y-14647784D02*
X14599239Y-14638260D01*
X14599239Y-14638260D02*
X14589715Y-14619212D01*
X14589715Y-14619212D02*
X14589715Y-14447784D01*
X14770668Y-14638260D02*
X14751620Y-14647784D01*
X14751620Y-14647784D02*
X14713525Y-14647784D01*
X14713525Y-14647784D02*
X14694477Y-14638260D01*
X14694477Y-14638260D02*
X14684953Y-14619212D01*
X14684953Y-14619212D02*
X14684953Y-14543022D01*
X14684953Y-14543022D02*
X14694477Y-14523974D01*
X14694477Y-14523974D02*
X14713525Y-14514450D01*
X14713525Y-14514450D02*
X14751620Y-14514450D01*
X14751620Y-14514450D02*
X14770668Y-14523974D01*
X14770668Y-14523974D02*
X14780191Y-14543022D01*
X14780191Y-14543022D02*
X14780191Y-14562069D01*
X14780191Y-14562069D02*
X14684953Y-14581117D01*
X14856382Y-14638260D02*
X14875430Y-14647784D01*
X14875430Y-14647784D02*
X14913525Y-14647784D01*
X14913525Y-14647784D02*
X14932572Y-14638260D01*
X14932572Y-14638260D02*
X14942096Y-14619212D01*
X14942096Y-14619212D02*
X14942096Y-14609688D01*
X14942096Y-14609688D02*
X14932572Y-14590641D01*
X14932572Y-14590641D02*
X14913525Y-14581117D01*
X14913525Y-14581117D02*
X14884953Y-14581117D01*
X14884953Y-14581117D02*
X14865906Y-14571593D01*
X14865906Y-14571593D02*
X14856382Y-14552546D01*
X14856382Y-14552546D02*
X14856382Y-14543022D01*
X14856382Y-14543022D02*
X14865906Y-14523974D01*
X14865906Y-14523974D02*
X14884953Y-14514450D01*
X14884953Y-14514450D02*
X14913525Y-14514450D01*
X14913525Y-14514450D02*
X14932572Y-14523974D01*
X15008763Y-14723974D02*
X15018287Y-14714450D01*
X15018287Y-14714450D02*
X15037334Y-14685879D01*
X15037334Y-14685879D02*
X15046858Y-14666831D01*
X15046858Y-14666831D02*
X15056382Y-14638260D01*
X15056382Y-14638260D02*
X15065906Y-14590641D01*
X15065906Y-14590641D02*
X15065906Y-14552546D01*
X15065906Y-14552546D02*
X15056382Y-14504927D01*
X15056382Y-14504927D02*
X15046858Y-14476355D01*
X15046858Y-14476355D02*
X15037334Y-14457308D01*
X15037334Y-14457308D02*
X15018287Y-14428736D01*
X15018287Y-14428736D02*
X15008763Y-14419212D01*
D13*
X10221985Y-14848584D02*
X10221985Y-14792015D01*
X10165416Y-14792015D01*
X10165416Y-14848584D01*
X10221985Y-14848584D01*
D12*
X10532572Y-14711784D02*
X10551620Y-14711784D01*
X10551620Y-14711784D02*
X10570667Y-14721308D01*
X10570667Y-14721308D02*
X10580191Y-14730831D01*
X10580191Y-14730831D02*
X10589715Y-14749879D01*
X10589715Y-14749879D02*
X10599239Y-14787974D01*
X10599239Y-14787974D02*
X10599239Y-14835593D01*
X10599239Y-14835593D02*
X10589715Y-14873688D01*
X10589715Y-14873688D02*
X10580191Y-14892736D01*
X10580191Y-14892736D02*
X10570667Y-14902260D01*
X10570667Y-14902260D02*
X10551620Y-14911784D01*
X10551620Y-14911784D02*
X10532572Y-14911784D01*
X10532572Y-14911784D02*
X10513524Y-14902260D01*
X10513524Y-14902260D02*
X10504001Y-14892736D01*
X10504001Y-14892736D02*
X10494477Y-14873688D01*
X10494477Y-14873688D02*
X10484953Y-14835593D01*
X10484953Y-14835593D02*
X10484953Y-14787974D01*
X10484953Y-14787974D02*
X10494477Y-14749879D01*
X10494477Y-14749879D02*
X10504001Y-14730831D01*
X10504001Y-14730831D02*
X10513524Y-14721308D01*
X10513524Y-14721308D02*
X10532572Y-14711784D01*
X10684953Y-14892736D02*
X10694477Y-14902260D01*
X10694477Y-14902260D02*
X10684953Y-14911784D01*
X10684953Y-14911784D02*
X10675429Y-14902260D01*
X10675429Y-14902260D02*
X10684953Y-14892736D01*
X10684953Y-14892736D02*
X10684953Y-14911784D01*
X10808763Y-14797498D02*
X10789715Y-14787974D01*
X10789715Y-14787974D02*
X10780191Y-14778450D01*
X10780191Y-14778450D02*
X10770667Y-14759403D01*
X10770667Y-14759403D02*
X10770667Y-14749879D01*
X10770667Y-14749879D02*
X10780191Y-14730831D01*
X10780191Y-14730831D02*
X10789715Y-14721308D01*
X10789715Y-14721308D02*
X10808763Y-14711784D01*
X10808763Y-14711784D02*
X10846858Y-14711784D01*
X10846858Y-14711784D02*
X10865905Y-14721308D01*
X10865905Y-14721308D02*
X10875429Y-14730831D01*
X10875429Y-14730831D02*
X10884953Y-14749879D01*
X10884953Y-14749879D02*
X10884953Y-14759403D01*
X10884953Y-14759403D02*
X10875429Y-14778450D01*
X10875429Y-14778450D02*
X10865905Y-14787974D01*
X10865905Y-14787974D02*
X10846858Y-14797498D01*
X10846858Y-14797498D02*
X10808763Y-14797498D01*
X10808763Y-14797498D02*
X10789715Y-14807022D01*
X10789715Y-14807022D02*
X10780191Y-14816546D01*
X10780191Y-14816546D02*
X10770667Y-14835593D01*
X10770667Y-14835593D02*
X10770667Y-14873688D01*
X10770667Y-14873688D02*
X10780191Y-14892736D01*
X10780191Y-14892736D02*
X10789715Y-14902260D01*
X10789715Y-14902260D02*
X10808763Y-14911784D01*
X10808763Y-14911784D02*
X10846858Y-14911784D01*
X10846858Y-14911784D02*
X10865905Y-14902260D01*
X10865905Y-14902260D02*
X10875429Y-14892736D01*
X10875429Y-14892736D02*
X10884953Y-14873688D01*
X10884953Y-14873688D02*
X10884953Y-14835593D01*
X10884953Y-14835593D02*
X10875429Y-14816546D01*
X10875429Y-14816546D02*
X10865905Y-14807022D01*
X10865905Y-14807022D02*
X10846858Y-14797498D01*
X11008763Y-14711784D02*
X11027810Y-14711784D01*
X11027810Y-14711784D02*
X11046858Y-14721308D01*
X11046858Y-14721308D02*
X11056382Y-14730831D01*
X11056382Y-14730831D02*
X11065905Y-14749879D01*
X11065905Y-14749879D02*
X11075429Y-14787974D01*
X11075429Y-14787974D02*
X11075429Y-14835593D01*
X11075429Y-14835593D02*
X11065905Y-14873688D01*
X11065905Y-14873688D02*
X11056382Y-14892736D01*
X11056382Y-14892736D02*
X11046858Y-14902260D01*
X11046858Y-14902260D02*
X11027810Y-14911784D01*
X11027810Y-14911784D02*
X11008763Y-14911784D01*
X11008763Y-14911784D02*
X10989715Y-14902260D01*
X10989715Y-14902260D02*
X10980191Y-14892736D01*
X10980191Y-14892736D02*
X10970667Y-14873688D01*
X10970667Y-14873688D02*
X10961144Y-14835593D01*
X10961144Y-14835593D02*
X10961144Y-14787974D01*
X10961144Y-14787974D02*
X10970667Y-14749879D01*
X10970667Y-14749879D02*
X10980191Y-14730831D01*
X10980191Y-14730831D02*
X10989715Y-14721308D01*
X10989715Y-14721308D02*
X11008763Y-14711784D01*
X11199239Y-14711784D02*
X11218286Y-14711784D01*
X11218286Y-14711784D02*
X11237334Y-14721308D01*
X11237334Y-14721308D02*
X11246858Y-14730831D01*
X11246858Y-14730831D02*
X11256382Y-14749879D01*
X11256382Y-14749879D02*
X11265905Y-14787974D01*
X11265905Y-14787974D02*
X11265905Y-14835593D01*
X11265905Y-14835593D02*
X11256382Y-14873688D01*
X11256382Y-14873688D02*
X11246858Y-14892736D01*
X11246858Y-14892736D02*
X11237334Y-14902260D01*
X11237334Y-14902260D02*
X11218286Y-14911784D01*
X11218286Y-14911784D02*
X11199239Y-14911784D01*
X11199239Y-14911784D02*
X11180191Y-14902260D01*
X11180191Y-14902260D02*
X11170667Y-14892736D01*
X11170667Y-14892736D02*
X11161144Y-14873688D01*
X11161144Y-14873688D02*
X11151620Y-14835593D01*
X11151620Y-14835593D02*
X11151620Y-14787974D01*
X11151620Y-14787974D02*
X11161144Y-14749879D01*
X11161144Y-14749879D02*
X11170667Y-14730831D01*
X11170667Y-14730831D02*
X11180191Y-14721308D01*
X11180191Y-14721308D02*
X11199239Y-14711784D01*
X11351620Y-14911784D02*
X11351620Y-14778450D01*
X11351620Y-14797498D02*
X11361143Y-14787974D01*
X11361143Y-14787974D02*
X11380191Y-14778450D01*
X11380191Y-14778450D02*
X11408763Y-14778450D01*
X11408763Y-14778450D02*
X11427810Y-14787974D01*
X11427810Y-14787974D02*
X11437334Y-14807022D01*
X11437334Y-14807022D02*
X11437334Y-14911784D01*
X11437334Y-14807022D02*
X11446858Y-14787974D01*
X11446858Y-14787974D02*
X11465905Y-14778450D01*
X11465905Y-14778450D02*
X11494477Y-14778450D01*
X11494477Y-14778450D02*
X11513524Y-14787974D01*
X11513524Y-14787974D02*
X11523048Y-14807022D01*
X11523048Y-14807022D02*
X11523048Y-14911784D01*
X11618286Y-14911784D02*
X11618286Y-14778450D01*
X11618286Y-14797498D02*
X11627810Y-14787974D01*
X11627810Y-14787974D02*
X11646858Y-14778450D01*
X11646858Y-14778450D02*
X11675429Y-14778450D01*
X11675429Y-14778450D02*
X11694477Y-14787974D01*
X11694477Y-14787974D02*
X11704001Y-14807022D01*
X11704001Y-14807022D02*
X11704001Y-14911784D01*
X11704001Y-14807022D02*
X11713524Y-14787974D01*
X11713524Y-14787974D02*
X11732572Y-14778450D01*
X11732572Y-14778450D02*
X11761143Y-14778450D01*
X11761143Y-14778450D02*
X11780191Y-14787974D01*
X11780191Y-14787974D02*
X11789715Y-14807022D01*
X11789715Y-14807022D02*
X11789715Y-14911784D01*
X12180191Y-14702260D02*
X12008763Y-14959403D01*
X12437334Y-14711784D02*
X12456382Y-14711784D01*
X12456382Y-14711784D02*
X12475429Y-14721308D01*
X12475429Y-14721308D02*
X12484953Y-14730831D01*
X12484953Y-14730831D02*
X12494477Y-14749879D01*
X12494477Y-14749879D02*
X12504001Y-14787974D01*
X12504001Y-14787974D02*
X12504001Y-14835593D01*
X12504001Y-14835593D02*
X12494477Y-14873688D01*
X12494477Y-14873688D02*
X12484953Y-14892736D01*
X12484953Y-14892736D02*
X12475429Y-14902260D01*
X12475429Y-14902260D02*
X12456382Y-14911784D01*
X12456382Y-14911784D02*
X12437334Y-14911784D01*
X12437334Y-14911784D02*
X12418286Y-14902260D01*
X12418286Y-14902260D02*
X12408763Y-14892736D01*
X12408763Y-14892736D02*
X12399239Y-14873688D01*
X12399239Y-14873688D02*
X12389715Y-14835593D01*
X12389715Y-14835593D02*
X12389715Y-14787974D01*
X12389715Y-14787974D02*
X12399239Y-14749879D01*
X12399239Y-14749879D02*
X12408763Y-14730831D01*
X12408763Y-14730831D02*
X12418286Y-14721308D01*
X12418286Y-14721308D02*
X12437334Y-14711784D01*
X12589715Y-14892736D02*
X12599239Y-14902260D01*
X12599239Y-14902260D02*
X12589715Y-14911784D01*
X12589715Y-14911784D02*
X12580191Y-14902260D01*
X12580191Y-14902260D02*
X12589715Y-14892736D01*
X12589715Y-14892736D02*
X12589715Y-14911784D01*
X12723048Y-14711784D02*
X12742096Y-14711784D01*
X12742096Y-14711784D02*
X12761144Y-14721308D01*
X12761144Y-14721308D02*
X12770667Y-14730831D01*
X12770667Y-14730831D02*
X12780191Y-14749879D01*
X12780191Y-14749879D02*
X12789715Y-14787974D01*
X12789715Y-14787974D02*
X12789715Y-14835593D01*
X12789715Y-14835593D02*
X12780191Y-14873688D01*
X12780191Y-14873688D02*
X12770667Y-14892736D01*
X12770667Y-14892736D02*
X12761144Y-14902260D01*
X12761144Y-14902260D02*
X12742096Y-14911784D01*
X12742096Y-14911784D02*
X12723048Y-14911784D01*
X12723048Y-14911784D02*
X12704001Y-14902260D01*
X12704001Y-14902260D02*
X12694477Y-14892736D01*
X12694477Y-14892736D02*
X12684953Y-14873688D01*
X12684953Y-14873688D02*
X12675429Y-14835593D01*
X12675429Y-14835593D02*
X12675429Y-14787974D01*
X12675429Y-14787974D02*
X12684953Y-14749879D01*
X12684953Y-14749879D02*
X12694477Y-14730831D01*
X12694477Y-14730831D02*
X12704001Y-14721308D01*
X12704001Y-14721308D02*
X12723048Y-14711784D01*
X12856382Y-14711784D02*
X12980191Y-14711784D01*
X12980191Y-14711784D02*
X12913525Y-14787974D01*
X12913525Y-14787974D02*
X12942096Y-14787974D01*
X12942096Y-14787974D02*
X12961144Y-14797498D01*
X12961144Y-14797498D02*
X12970667Y-14807022D01*
X12970667Y-14807022D02*
X12980191Y-14826069D01*
X12980191Y-14826069D02*
X12980191Y-14873688D01*
X12980191Y-14873688D02*
X12970667Y-14892736D01*
X12970667Y-14892736D02*
X12961144Y-14902260D01*
X12961144Y-14902260D02*
X12942096Y-14911784D01*
X12942096Y-14911784D02*
X12884953Y-14911784D01*
X12884953Y-14911784D02*
X12865906Y-14902260D01*
X12865906Y-14902260D02*
X12856382Y-14892736D01*
X13170667Y-14911784D02*
X13056382Y-14911784D01*
X13113525Y-14911784D02*
X13113525Y-14711784D01*
X13113525Y-14711784D02*
X13094477Y-14740355D01*
X13094477Y-14740355D02*
X13075429Y-14759403D01*
X13075429Y-14759403D02*
X13056382Y-14768927D01*
X13351620Y-14711784D02*
X13256382Y-14711784D01*
X13256382Y-14711784D02*
X13246858Y-14807022D01*
X13246858Y-14807022D02*
X13256382Y-14797498D01*
X13256382Y-14797498D02*
X13275429Y-14787974D01*
X13275429Y-14787974D02*
X13323048Y-14787974D01*
X13323048Y-14787974D02*
X13342096Y-14797498D01*
X13342096Y-14797498D02*
X13351620Y-14807022D01*
X13351620Y-14807022D02*
X13361144Y-14826069D01*
X13361144Y-14826069D02*
X13361144Y-14873688D01*
X13361144Y-14873688D02*
X13351620Y-14892736D01*
X13351620Y-14892736D02*
X13342096Y-14902260D01*
X13342096Y-14902260D02*
X13323048Y-14911784D01*
X13323048Y-14911784D02*
X13275429Y-14911784D01*
X13275429Y-14911784D02*
X13256382Y-14902260D01*
X13256382Y-14902260D02*
X13246858Y-14892736D01*
X13437334Y-14711784D02*
X13437334Y-14749879D01*
X13513525Y-14711784D02*
X13513525Y-14749879D01*
X13808763Y-14987974D02*
X13799239Y-14978450D01*
X13799239Y-14978450D02*
X13780191Y-14949879D01*
X13780191Y-14949879D02*
X13770668Y-14930831D01*
X13770668Y-14930831D02*
X13761144Y-14902260D01*
X13761144Y-14902260D02*
X13751620Y-14854641D01*
X13751620Y-14854641D02*
X13751620Y-14816546D01*
X13751620Y-14816546D02*
X13761144Y-14768927D01*
X13761144Y-14768927D02*
X13770668Y-14740355D01*
X13770668Y-14740355D02*
X13780191Y-14721308D01*
X13780191Y-14721308D02*
X13799239Y-14692736D01*
X13799239Y-14692736D02*
X13808763Y-14683212D01*
X13923048Y-14711784D02*
X13942096Y-14711784D01*
X13942096Y-14711784D02*
X13961144Y-14721308D01*
X13961144Y-14721308D02*
X13970668Y-14730831D01*
X13970668Y-14730831D02*
X13980191Y-14749879D01*
X13980191Y-14749879D02*
X13989715Y-14787974D01*
X13989715Y-14787974D02*
X13989715Y-14835593D01*
X13989715Y-14835593D02*
X13980191Y-14873688D01*
X13980191Y-14873688D02*
X13970668Y-14892736D01*
X13970668Y-14892736D02*
X13961144Y-14902260D01*
X13961144Y-14902260D02*
X13942096Y-14911784D01*
X13942096Y-14911784D02*
X13923048Y-14911784D01*
X13923048Y-14911784D02*
X13904001Y-14902260D01*
X13904001Y-14902260D02*
X13894477Y-14892736D01*
X13894477Y-14892736D02*
X13884953Y-14873688D01*
X13884953Y-14873688D02*
X13875429Y-14835593D01*
X13875429Y-14835593D02*
X13875429Y-14787974D01*
X13875429Y-14787974D02*
X13884953Y-14749879D01*
X13884953Y-14749879D02*
X13894477Y-14730831D01*
X13894477Y-14730831D02*
X13904001Y-14721308D01*
X13904001Y-14721308D02*
X13923048Y-14711784D01*
X14227810Y-14911784D02*
X14227810Y-14711784D01*
X14313525Y-14911784D02*
X14313525Y-14807022D01*
X14313525Y-14807022D02*
X14304001Y-14787974D01*
X14304001Y-14787974D02*
X14284953Y-14778450D01*
X14284953Y-14778450D02*
X14256382Y-14778450D01*
X14256382Y-14778450D02*
X14237334Y-14787974D01*
X14237334Y-14787974D02*
X14227810Y-14797498D01*
X14437334Y-14911784D02*
X14418287Y-14902260D01*
X14418287Y-14902260D02*
X14408763Y-14892736D01*
X14408763Y-14892736D02*
X14399239Y-14873688D01*
X14399239Y-14873688D02*
X14399239Y-14816546D01*
X14399239Y-14816546D02*
X14408763Y-14797498D01*
X14408763Y-14797498D02*
X14418287Y-14787974D01*
X14418287Y-14787974D02*
X14437334Y-14778450D01*
X14437334Y-14778450D02*
X14465906Y-14778450D01*
X14465906Y-14778450D02*
X14484953Y-14787974D01*
X14484953Y-14787974D02*
X14494477Y-14797498D01*
X14494477Y-14797498D02*
X14504001Y-14816546D01*
X14504001Y-14816546D02*
X14504001Y-14873688D01*
X14504001Y-14873688D02*
X14494477Y-14892736D01*
X14494477Y-14892736D02*
X14484953Y-14902260D01*
X14484953Y-14902260D02*
X14465906Y-14911784D01*
X14465906Y-14911784D02*
X14437334Y-14911784D01*
X14618287Y-14911784D02*
X14599239Y-14902260D01*
X14599239Y-14902260D02*
X14589715Y-14883212D01*
X14589715Y-14883212D02*
X14589715Y-14711784D01*
X14770668Y-14902260D02*
X14751620Y-14911784D01*
X14751620Y-14911784D02*
X14713525Y-14911784D01*
X14713525Y-14911784D02*
X14694477Y-14902260D01*
X14694477Y-14902260D02*
X14684953Y-14883212D01*
X14684953Y-14883212D02*
X14684953Y-14807022D01*
X14684953Y-14807022D02*
X14694477Y-14787974D01*
X14694477Y-14787974D02*
X14713525Y-14778450D01*
X14713525Y-14778450D02*
X14751620Y-14778450D01*
X14751620Y-14778450D02*
X14770668Y-14787974D01*
X14770668Y-14787974D02*
X14780191Y-14807022D01*
X14780191Y-14807022D02*
X14780191Y-14826069D01*
X14780191Y-14826069D02*
X14684953Y-14845117D01*
X14856382Y-14902260D02*
X14875430Y-14911784D01*
X14875430Y-14911784D02*
X14913525Y-14911784D01*
X14913525Y-14911784D02*
X14932572Y-14902260D01*
X14932572Y-14902260D02*
X14942096Y-14883212D01*
X14942096Y-14883212D02*
X14942096Y-14873688D01*
X14942096Y-14873688D02*
X14932572Y-14854641D01*
X14932572Y-14854641D02*
X14913525Y-14845117D01*
X14913525Y-14845117D02*
X14884953Y-14845117D01*
X14884953Y-14845117D02*
X14865906Y-14835593D01*
X14865906Y-14835593D02*
X14856382Y-14816546D01*
X14856382Y-14816546D02*
X14856382Y-14807022D01*
X14856382Y-14807022D02*
X14865906Y-14787974D01*
X14865906Y-14787974D02*
X14884953Y-14778450D01*
X14884953Y-14778450D02*
X14913525Y-14778450D01*
X14913525Y-14778450D02*
X14932572Y-14787974D01*
X15180192Y-14835593D02*
X15332573Y-14835593D01*
X15256382Y-14911784D02*
X15256382Y-14759403D01*
X15675430Y-14711784D02*
X15580192Y-14711784D01*
X15580192Y-14711784D02*
X15570668Y-14807022D01*
X15570668Y-14807022D02*
X15580192Y-14797498D01*
X15580192Y-14797498D02*
X15599239Y-14787974D01*
X15599239Y-14787974D02*
X15646858Y-14787974D01*
X15646858Y-14787974D02*
X15665906Y-14797498D01*
X15665906Y-14797498D02*
X15675430Y-14807022D01*
X15675430Y-14807022D02*
X15684953Y-14826069D01*
X15684953Y-14826069D02*
X15684953Y-14873688D01*
X15684953Y-14873688D02*
X15675430Y-14892736D01*
X15675430Y-14892736D02*
X15665906Y-14902260D01*
X15665906Y-14902260D02*
X15646858Y-14911784D01*
X15646858Y-14911784D02*
X15599239Y-14911784D01*
X15599239Y-14911784D02*
X15580192Y-14902260D01*
X15580192Y-14902260D02*
X15570668Y-14892736D01*
X15913525Y-14902260D02*
X15932573Y-14911784D01*
X15932573Y-14911784D02*
X15970668Y-14911784D01*
X15970668Y-14911784D02*
X15989715Y-14902260D01*
X15989715Y-14902260D02*
X15999239Y-14883212D01*
X15999239Y-14883212D02*
X15999239Y-14873688D01*
X15999239Y-14873688D02*
X15989715Y-14854641D01*
X15989715Y-14854641D02*
X15970668Y-14845117D01*
X15970668Y-14845117D02*
X15942096Y-14845117D01*
X15942096Y-14845117D02*
X15923049Y-14835593D01*
X15923049Y-14835593D02*
X15913525Y-14816546D01*
X15913525Y-14816546D02*
X15913525Y-14807022D01*
X15913525Y-14807022D02*
X15923049Y-14787974D01*
X15923049Y-14787974D02*
X15942096Y-14778450D01*
X15942096Y-14778450D02*
X15970668Y-14778450D01*
X15970668Y-14778450D02*
X15989715Y-14787974D01*
X16113525Y-14911784D02*
X16094477Y-14902260D01*
X16094477Y-14902260D02*
X16084954Y-14883212D01*
X16084954Y-14883212D02*
X16084954Y-14711784D01*
X16218287Y-14911784D02*
X16199239Y-14902260D01*
X16199239Y-14902260D02*
X16189715Y-14892736D01*
X16189715Y-14892736D02*
X16180192Y-14873688D01*
X16180192Y-14873688D02*
X16180192Y-14816546D01*
X16180192Y-14816546D02*
X16189715Y-14797498D01*
X16189715Y-14797498D02*
X16199239Y-14787974D01*
X16199239Y-14787974D02*
X16218287Y-14778450D01*
X16218287Y-14778450D02*
X16246858Y-14778450D01*
X16246858Y-14778450D02*
X16265906Y-14787974D01*
X16265906Y-14787974D02*
X16275430Y-14797498D01*
X16275430Y-14797498D02*
X16284954Y-14816546D01*
X16284954Y-14816546D02*
X16284954Y-14873688D01*
X16284954Y-14873688D02*
X16275430Y-14892736D01*
X16275430Y-14892736D02*
X16265906Y-14902260D01*
X16265906Y-14902260D02*
X16246858Y-14911784D01*
X16246858Y-14911784D02*
X16218287Y-14911784D01*
X16342096Y-14778450D02*
X16418287Y-14778450D01*
X16370668Y-14711784D02*
X16370668Y-14883212D01*
X16370668Y-14883212D02*
X16380192Y-14902260D01*
X16380192Y-14902260D02*
X16399239Y-14911784D01*
X16399239Y-14911784D02*
X16418287Y-14911784D01*
X16475430Y-14902260D02*
X16494477Y-14911784D01*
X16494477Y-14911784D02*
X16532573Y-14911784D01*
X16532573Y-14911784D02*
X16551620Y-14902260D01*
X16551620Y-14902260D02*
X16561144Y-14883212D01*
X16561144Y-14883212D02*
X16561144Y-14873688D01*
X16561144Y-14873688D02*
X16551620Y-14854641D01*
X16551620Y-14854641D02*
X16532573Y-14845117D01*
X16532573Y-14845117D02*
X16504001Y-14845117D01*
X16504001Y-14845117D02*
X16484954Y-14835593D01*
X16484954Y-14835593D02*
X16475430Y-14816546D01*
X16475430Y-14816546D02*
X16475430Y-14807022D01*
X16475430Y-14807022D02*
X16484954Y-14787974D01*
X16484954Y-14787974D02*
X16504001Y-14778450D01*
X16504001Y-14778450D02*
X16532573Y-14778450D01*
X16532573Y-14778450D02*
X16551620Y-14787974D01*
X16627811Y-14987974D02*
X16637335Y-14978450D01*
X16637335Y-14978450D02*
X16656382Y-14949879D01*
X16656382Y-14949879D02*
X16665906Y-14930831D01*
X16665906Y-14930831D02*
X16675430Y-14902260D01*
X16675430Y-14902260D02*
X16684954Y-14854641D01*
X16684954Y-14854641D02*
X16684954Y-14816546D01*
X16684954Y-14816546D02*
X16675430Y-14768927D01*
X16675430Y-14768927D02*
X16665906Y-14740355D01*
X16665906Y-14740355D02*
X16656382Y-14721308D01*
X16656382Y-14721308D02*
X16637335Y-14692736D01*
X16637335Y-14692736D02*
X16627811Y-14683212D01*
D13*
X10183700Y-15134300D02*
X10233700Y-15084300D01*
X10183700Y-15034300D01*
X10133700Y-15084300D01*
X10183700Y-15134300D01*
D12*
X10599239Y-15175784D02*
X10484953Y-15175784D01*
X10542096Y-15175784D02*
X10542096Y-14975784D01*
X10542096Y-14975784D02*
X10523048Y-15004355D01*
X10523048Y-15004355D02*
X10504001Y-15023403D01*
X10504001Y-15023403D02*
X10484953Y-15032927D01*
X10684953Y-15156736D02*
X10694477Y-15166260D01*
X10694477Y-15166260D02*
X10684953Y-15175784D01*
X10684953Y-15175784D02*
X10675429Y-15166260D01*
X10675429Y-15166260D02*
X10684953Y-15156736D01*
X10684953Y-15156736D02*
X10684953Y-15175784D01*
X10818286Y-14975784D02*
X10837334Y-14975784D01*
X10837334Y-14975784D02*
X10856382Y-14985308D01*
X10856382Y-14985308D02*
X10865905Y-14994831D01*
X10865905Y-14994831D02*
X10875429Y-15013879D01*
X10875429Y-15013879D02*
X10884953Y-15051974D01*
X10884953Y-15051974D02*
X10884953Y-15099593D01*
X10884953Y-15099593D02*
X10875429Y-15137688D01*
X10875429Y-15137688D02*
X10865905Y-15156736D01*
X10865905Y-15156736D02*
X10856382Y-15166260D01*
X10856382Y-15166260D02*
X10837334Y-15175784D01*
X10837334Y-15175784D02*
X10818286Y-15175784D01*
X10818286Y-15175784D02*
X10799239Y-15166260D01*
X10799239Y-15166260D02*
X10789715Y-15156736D01*
X10789715Y-15156736D02*
X10780191Y-15137688D01*
X10780191Y-15137688D02*
X10770667Y-15099593D01*
X10770667Y-15099593D02*
X10770667Y-15051974D01*
X10770667Y-15051974D02*
X10780191Y-15013879D01*
X10780191Y-15013879D02*
X10789715Y-14994831D01*
X10789715Y-14994831D02*
X10799239Y-14985308D01*
X10799239Y-14985308D02*
X10818286Y-14975784D01*
X11008763Y-14975784D02*
X11027810Y-14975784D01*
X11027810Y-14975784D02*
X11046858Y-14985308D01*
X11046858Y-14985308D02*
X11056382Y-14994831D01*
X11056382Y-14994831D02*
X11065905Y-15013879D01*
X11065905Y-15013879D02*
X11075429Y-15051974D01*
X11075429Y-15051974D02*
X11075429Y-15099593D01*
X11075429Y-15099593D02*
X11065905Y-15137688D01*
X11065905Y-15137688D02*
X11056382Y-15156736D01*
X11056382Y-15156736D02*
X11046858Y-15166260D01*
X11046858Y-15166260D02*
X11027810Y-15175784D01*
X11027810Y-15175784D02*
X11008763Y-15175784D01*
X11008763Y-15175784D02*
X10989715Y-15166260D01*
X10989715Y-15166260D02*
X10980191Y-15156736D01*
X10980191Y-15156736D02*
X10970667Y-15137688D01*
X10970667Y-15137688D02*
X10961144Y-15099593D01*
X10961144Y-15099593D02*
X10961144Y-15051974D01*
X10961144Y-15051974D02*
X10970667Y-15013879D01*
X10970667Y-15013879D02*
X10980191Y-14994831D01*
X10980191Y-14994831D02*
X10989715Y-14985308D01*
X10989715Y-14985308D02*
X11008763Y-14975784D01*
X11199239Y-14975784D02*
X11218286Y-14975784D01*
X11218286Y-14975784D02*
X11237334Y-14985308D01*
X11237334Y-14985308D02*
X11246858Y-14994831D01*
X11246858Y-14994831D02*
X11256382Y-15013879D01*
X11256382Y-15013879D02*
X11265905Y-15051974D01*
X11265905Y-15051974D02*
X11265905Y-15099593D01*
X11265905Y-15099593D02*
X11256382Y-15137688D01*
X11256382Y-15137688D02*
X11246858Y-15156736D01*
X11246858Y-15156736D02*
X11237334Y-15166260D01*
X11237334Y-15166260D02*
X11218286Y-15175784D01*
X11218286Y-15175784D02*
X11199239Y-15175784D01*
X11199239Y-15175784D02*
X11180191Y-15166260D01*
X11180191Y-15166260D02*
X11170667Y-15156736D01*
X11170667Y-15156736D02*
X11161144Y-15137688D01*
X11161144Y-15137688D02*
X11151620Y-15099593D01*
X11151620Y-15099593D02*
X11151620Y-15051974D01*
X11151620Y-15051974D02*
X11161144Y-15013879D01*
X11161144Y-15013879D02*
X11170667Y-14994831D01*
X11170667Y-14994831D02*
X11180191Y-14985308D01*
X11180191Y-14985308D02*
X11199239Y-14975784D01*
X11351620Y-15175784D02*
X11351620Y-15042450D01*
X11351620Y-15061498D02*
X11361143Y-15051974D01*
X11361143Y-15051974D02*
X11380191Y-15042450D01*
X11380191Y-15042450D02*
X11408763Y-15042450D01*
X11408763Y-15042450D02*
X11427810Y-15051974D01*
X11427810Y-15051974D02*
X11437334Y-15071022D01*
X11437334Y-15071022D02*
X11437334Y-15175784D01*
X11437334Y-15071022D02*
X11446858Y-15051974D01*
X11446858Y-15051974D02*
X11465905Y-15042450D01*
X11465905Y-15042450D02*
X11494477Y-15042450D01*
X11494477Y-15042450D02*
X11513524Y-15051974D01*
X11513524Y-15051974D02*
X11523048Y-15071022D01*
X11523048Y-15071022D02*
X11523048Y-15175784D01*
X11618286Y-15175784D02*
X11618286Y-15042450D01*
X11618286Y-15061498D02*
X11627810Y-15051974D01*
X11627810Y-15051974D02*
X11646858Y-15042450D01*
X11646858Y-15042450D02*
X11675429Y-15042450D01*
X11675429Y-15042450D02*
X11694477Y-15051974D01*
X11694477Y-15051974D02*
X11704001Y-15071022D01*
X11704001Y-15071022D02*
X11704001Y-15175784D01*
X11704001Y-15071022D02*
X11713524Y-15051974D01*
X11713524Y-15051974D02*
X11732572Y-15042450D01*
X11732572Y-15042450D02*
X11761143Y-15042450D01*
X11761143Y-15042450D02*
X11780191Y-15051974D01*
X11780191Y-15051974D02*
X11789715Y-15071022D01*
X11789715Y-15071022D02*
X11789715Y-15175784D01*
X12180191Y-14966260D02*
X12008763Y-15223403D01*
X12437334Y-14975784D02*
X12456382Y-14975784D01*
X12456382Y-14975784D02*
X12475429Y-14985308D01*
X12475429Y-14985308D02*
X12484953Y-14994831D01*
X12484953Y-14994831D02*
X12494477Y-15013879D01*
X12494477Y-15013879D02*
X12504001Y-15051974D01*
X12504001Y-15051974D02*
X12504001Y-15099593D01*
X12504001Y-15099593D02*
X12494477Y-15137688D01*
X12494477Y-15137688D02*
X12484953Y-15156736D01*
X12484953Y-15156736D02*
X12475429Y-15166260D01*
X12475429Y-15166260D02*
X12456382Y-15175784D01*
X12456382Y-15175784D02*
X12437334Y-15175784D01*
X12437334Y-15175784D02*
X12418286Y-15166260D01*
X12418286Y-15166260D02*
X12408763Y-15156736D01*
X12408763Y-15156736D02*
X12399239Y-15137688D01*
X12399239Y-15137688D02*
X12389715Y-15099593D01*
X12389715Y-15099593D02*
X12389715Y-15051974D01*
X12389715Y-15051974D02*
X12399239Y-15013879D01*
X12399239Y-15013879D02*
X12408763Y-14994831D01*
X12408763Y-14994831D02*
X12418286Y-14985308D01*
X12418286Y-14985308D02*
X12437334Y-14975784D01*
X12589715Y-15156736D02*
X12599239Y-15166260D01*
X12599239Y-15166260D02*
X12589715Y-15175784D01*
X12589715Y-15175784D02*
X12580191Y-15166260D01*
X12580191Y-15166260D02*
X12589715Y-15156736D01*
X12589715Y-15156736D02*
X12589715Y-15175784D01*
X12723048Y-14975784D02*
X12742096Y-14975784D01*
X12742096Y-14975784D02*
X12761144Y-14985308D01*
X12761144Y-14985308D02*
X12770667Y-14994831D01*
X12770667Y-14994831D02*
X12780191Y-15013879D01*
X12780191Y-15013879D02*
X12789715Y-15051974D01*
X12789715Y-15051974D02*
X12789715Y-15099593D01*
X12789715Y-15099593D02*
X12780191Y-15137688D01*
X12780191Y-15137688D02*
X12770667Y-15156736D01*
X12770667Y-15156736D02*
X12761144Y-15166260D01*
X12761144Y-15166260D02*
X12742096Y-15175784D01*
X12742096Y-15175784D02*
X12723048Y-15175784D01*
X12723048Y-15175784D02*
X12704001Y-15166260D01*
X12704001Y-15166260D02*
X12694477Y-15156736D01*
X12694477Y-15156736D02*
X12684953Y-15137688D01*
X12684953Y-15137688D02*
X12675429Y-15099593D01*
X12675429Y-15099593D02*
X12675429Y-15051974D01*
X12675429Y-15051974D02*
X12684953Y-15013879D01*
X12684953Y-15013879D02*
X12694477Y-14994831D01*
X12694477Y-14994831D02*
X12704001Y-14985308D01*
X12704001Y-14985308D02*
X12723048Y-14975784D01*
X12856382Y-14975784D02*
X12980191Y-14975784D01*
X12980191Y-14975784D02*
X12913525Y-15051974D01*
X12913525Y-15051974D02*
X12942096Y-15051974D01*
X12942096Y-15051974D02*
X12961144Y-15061498D01*
X12961144Y-15061498D02*
X12970667Y-15071022D01*
X12970667Y-15071022D02*
X12980191Y-15090069D01*
X12980191Y-15090069D02*
X12980191Y-15137688D01*
X12980191Y-15137688D02*
X12970667Y-15156736D01*
X12970667Y-15156736D02*
X12961144Y-15166260D01*
X12961144Y-15166260D02*
X12942096Y-15175784D01*
X12942096Y-15175784D02*
X12884953Y-15175784D01*
X12884953Y-15175784D02*
X12865906Y-15166260D01*
X12865906Y-15166260D02*
X12856382Y-15156736D01*
X13075429Y-15175784D02*
X13113525Y-15175784D01*
X13113525Y-15175784D02*
X13132572Y-15166260D01*
X13132572Y-15166260D02*
X13142096Y-15156736D01*
X13142096Y-15156736D02*
X13161144Y-15128165D01*
X13161144Y-15128165D02*
X13170667Y-15090069D01*
X13170667Y-15090069D02*
X13170667Y-15013879D01*
X13170667Y-15013879D02*
X13161144Y-14994831D01*
X13161144Y-14994831D02*
X13151620Y-14985308D01*
X13151620Y-14985308D02*
X13132572Y-14975784D01*
X13132572Y-14975784D02*
X13094477Y-14975784D01*
X13094477Y-14975784D02*
X13075429Y-14985308D01*
X13075429Y-14985308D02*
X13065906Y-14994831D01*
X13065906Y-14994831D02*
X13056382Y-15013879D01*
X13056382Y-15013879D02*
X13056382Y-15061498D01*
X13056382Y-15061498D02*
X13065906Y-15080546D01*
X13065906Y-15080546D02*
X13075429Y-15090069D01*
X13075429Y-15090069D02*
X13094477Y-15099593D01*
X13094477Y-15099593D02*
X13132572Y-15099593D01*
X13132572Y-15099593D02*
X13151620Y-15090069D01*
X13151620Y-15090069D02*
X13161144Y-15080546D01*
X13161144Y-15080546D02*
X13170667Y-15061498D01*
X13342096Y-15042450D02*
X13342096Y-15175784D01*
X13294477Y-14966260D02*
X13246858Y-15109117D01*
X13246858Y-15109117D02*
X13370667Y-15109117D01*
X13437334Y-14975784D02*
X13437334Y-15013879D01*
X13513525Y-14975784D02*
X13513525Y-15013879D01*
X13808763Y-15251974D02*
X13799239Y-15242450D01*
X13799239Y-15242450D02*
X13780191Y-15213879D01*
X13780191Y-15213879D02*
X13770668Y-15194831D01*
X13770668Y-15194831D02*
X13761144Y-15166260D01*
X13761144Y-15166260D02*
X13751620Y-15118641D01*
X13751620Y-15118641D02*
X13751620Y-15080546D01*
X13751620Y-15080546D02*
X13761144Y-15032927D01*
X13761144Y-15032927D02*
X13770668Y-15004355D01*
X13770668Y-15004355D02*
X13780191Y-14985308D01*
X13780191Y-14985308D02*
X13799239Y-14956736D01*
X13799239Y-14956736D02*
X13808763Y-14947212D01*
X13875429Y-14994831D02*
X13884953Y-14985308D01*
X13884953Y-14985308D02*
X13904001Y-14975784D01*
X13904001Y-14975784D02*
X13951620Y-14975784D01*
X13951620Y-14975784D02*
X13970668Y-14985308D01*
X13970668Y-14985308D02*
X13980191Y-14994831D01*
X13980191Y-14994831D02*
X13989715Y-15013879D01*
X13989715Y-15013879D02*
X13989715Y-15032927D01*
X13989715Y-15032927D02*
X13980191Y-15061498D01*
X13980191Y-15061498D02*
X13865906Y-15175784D01*
X13865906Y-15175784D02*
X13989715Y-15175784D01*
X14161144Y-14975784D02*
X14123048Y-14975784D01*
X14123048Y-14975784D02*
X14104001Y-14985308D01*
X14104001Y-14985308D02*
X14094477Y-14994831D01*
X14094477Y-14994831D02*
X14075429Y-15023403D01*
X14075429Y-15023403D02*
X14065906Y-15061498D01*
X14065906Y-15061498D02*
X14065906Y-15137688D01*
X14065906Y-15137688D02*
X14075429Y-15156736D01*
X14075429Y-15156736D02*
X14084953Y-15166260D01*
X14084953Y-15166260D02*
X14104001Y-15175784D01*
X14104001Y-15175784D02*
X14142096Y-15175784D01*
X14142096Y-15175784D02*
X14161144Y-15166260D01*
X14161144Y-15166260D02*
X14170668Y-15156736D01*
X14170668Y-15156736D02*
X14180191Y-15137688D01*
X14180191Y-15137688D02*
X14180191Y-15090069D01*
X14180191Y-15090069D02*
X14170668Y-15071022D01*
X14170668Y-15071022D02*
X14161144Y-15061498D01*
X14161144Y-15061498D02*
X14142096Y-15051974D01*
X14142096Y-15051974D02*
X14104001Y-15051974D01*
X14104001Y-15051974D02*
X14084953Y-15061498D01*
X14084953Y-15061498D02*
X14075429Y-15071022D01*
X14075429Y-15071022D02*
X14065906Y-15090069D01*
X14418287Y-15175784D02*
X14418287Y-14975784D01*
X14504001Y-15175784D02*
X14504001Y-15071022D01*
X14504001Y-15071022D02*
X14494477Y-15051974D01*
X14494477Y-15051974D02*
X14475430Y-15042450D01*
X14475430Y-15042450D02*
X14446858Y-15042450D01*
X14446858Y-15042450D02*
X14427810Y-15051974D01*
X14427810Y-15051974D02*
X14418287Y-15061498D01*
X14627810Y-15175784D02*
X14608763Y-15166260D01*
X14608763Y-15166260D02*
X14599239Y-15156736D01*
X14599239Y-15156736D02*
X14589715Y-15137688D01*
X14589715Y-15137688D02*
X14589715Y-15080546D01*
X14589715Y-15080546D02*
X14599239Y-15061498D01*
X14599239Y-15061498D02*
X14608763Y-15051974D01*
X14608763Y-15051974D02*
X14627810Y-15042450D01*
X14627810Y-15042450D02*
X14656382Y-15042450D01*
X14656382Y-15042450D02*
X14675430Y-15051974D01*
X14675430Y-15051974D02*
X14684953Y-15061498D01*
X14684953Y-15061498D02*
X14694477Y-15080546D01*
X14694477Y-15080546D02*
X14694477Y-15137688D01*
X14694477Y-15137688D02*
X14684953Y-15156736D01*
X14684953Y-15156736D02*
X14675430Y-15166260D01*
X14675430Y-15166260D02*
X14656382Y-15175784D01*
X14656382Y-15175784D02*
X14627810Y-15175784D01*
X14808763Y-15175784D02*
X14789715Y-15166260D01*
X14789715Y-15166260D02*
X14780191Y-15147212D01*
X14780191Y-15147212D02*
X14780191Y-14975784D01*
X14961144Y-15166260D02*
X14942096Y-15175784D01*
X14942096Y-15175784D02*
X14904001Y-15175784D01*
X14904001Y-15175784D02*
X14884953Y-15166260D01*
X14884953Y-15166260D02*
X14875430Y-15147212D01*
X14875430Y-15147212D02*
X14875430Y-15071022D01*
X14875430Y-15071022D02*
X14884953Y-15051974D01*
X14884953Y-15051974D02*
X14904001Y-15042450D01*
X14904001Y-15042450D02*
X14942096Y-15042450D01*
X14942096Y-15042450D02*
X14961144Y-15051974D01*
X14961144Y-15051974D02*
X14970668Y-15071022D01*
X14970668Y-15071022D02*
X14970668Y-15090069D01*
X14970668Y-15090069D02*
X14875430Y-15109117D01*
X15046858Y-15166260D02*
X15065906Y-15175784D01*
X15065906Y-15175784D02*
X15104001Y-15175784D01*
X15104001Y-15175784D02*
X15123049Y-15166260D01*
X15123049Y-15166260D02*
X15132572Y-15147212D01*
X15132572Y-15147212D02*
X15132572Y-15137688D01*
X15132572Y-15137688D02*
X15123049Y-15118641D01*
X15123049Y-15118641D02*
X15104001Y-15109117D01*
X15104001Y-15109117D02*
X15075430Y-15109117D01*
X15075430Y-15109117D02*
X15056382Y-15099593D01*
X15056382Y-15099593D02*
X15046858Y-15080546D01*
X15046858Y-15080546D02*
X15046858Y-15071022D01*
X15046858Y-15071022D02*
X15056382Y-15051974D01*
X15056382Y-15051974D02*
X15075430Y-15042450D01*
X15075430Y-15042450D02*
X15104001Y-15042450D01*
X15104001Y-15042450D02*
X15123049Y-15051974D01*
X15199239Y-15251974D02*
X15208763Y-15242450D01*
X15208763Y-15242450D02*
X15227811Y-15213879D01*
X15227811Y-15213879D02*
X15237334Y-15194831D01*
X15237334Y-15194831D02*
X15246858Y-15166260D01*
X15246858Y-15166260D02*
X15256382Y-15118641D01*
X15256382Y-15118641D02*
X15256382Y-15080546D01*
X15256382Y-15080546D02*
X15246858Y-15032927D01*
X15246858Y-15032927D02*
X15237334Y-15004355D01*
X15237334Y-15004355D02*
X15227811Y-14985308D01*
X15227811Y-14985308D02*
X15208763Y-14956736D01*
X15208763Y-14956736D02*
X15199239Y-14947212D01*
D14*
X10123700Y-15293300D02*
X10233700Y-15403300D01*
X10233700Y-15293300D02*
X10123700Y-15403300D01*
X10233700Y-15348300D02*
G75*
G02*
X10123700Y-15348300I-55000J0D01*
G01*
X10123700Y-15348300D02*
G75*
G02*
X10233700Y-15348300I55000J0D01*
G01*
D12*
X10599239Y-15439784D02*
X10484953Y-15439784D01*
X10542096Y-15439784D02*
X10542096Y-15239784D01*
X10542096Y-15239784D02*
X10523048Y-15268355D01*
X10523048Y-15268355D02*
X10504001Y-15287403D01*
X10504001Y-15287403D02*
X10484953Y-15296927D01*
X10684953Y-15420736D02*
X10694477Y-15430260D01*
X10694477Y-15430260D02*
X10684953Y-15439784D01*
X10684953Y-15439784D02*
X10675429Y-15430260D01*
X10675429Y-15430260D02*
X10684953Y-15420736D01*
X10684953Y-15420736D02*
X10684953Y-15439784D01*
X10884953Y-15439784D02*
X10770667Y-15439784D01*
X10827810Y-15439784D02*
X10827810Y-15239784D01*
X10827810Y-15239784D02*
X10808763Y-15268355D01*
X10808763Y-15268355D02*
X10789715Y-15287403D01*
X10789715Y-15287403D02*
X10770667Y-15296927D01*
X11008763Y-15239784D02*
X11027810Y-15239784D01*
X11027810Y-15239784D02*
X11046858Y-15249308D01*
X11046858Y-15249308D02*
X11056382Y-15258831D01*
X11056382Y-15258831D02*
X11065905Y-15277879D01*
X11065905Y-15277879D02*
X11075429Y-15315974D01*
X11075429Y-15315974D02*
X11075429Y-15363593D01*
X11075429Y-15363593D02*
X11065905Y-15401688D01*
X11065905Y-15401688D02*
X11056382Y-15420736D01*
X11056382Y-15420736D02*
X11046858Y-15430260D01*
X11046858Y-15430260D02*
X11027810Y-15439784D01*
X11027810Y-15439784D02*
X11008763Y-15439784D01*
X11008763Y-15439784D02*
X10989715Y-15430260D01*
X10989715Y-15430260D02*
X10980191Y-15420736D01*
X10980191Y-15420736D02*
X10970667Y-15401688D01*
X10970667Y-15401688D02*
X10961144Y-15363593D01*
X10961144Y-15363593D02*
X10961144Y-15315974D01*
X10961144Y-15315974D02*
X10970667Y-15277879D01*
X10970667Y-15277879D02*
X10980191Y-15258831D01*
X10980191Y-15258831D02*
X10989715Y-15249308D01*
X10989715Y-15249308D02*
X11008763Y-15239784D01*
X11199239Y-15239784D02*
X11218286Y-15239784D01*
X11218286Y-15239784D02*
X11237334Y-15249308D01*
X11237334Y-15249308D02*
X11246858Y-15258831D01*
X11246858Y-15258831D02*
X11256382Y-15277879D01*
X11256382Y-15277879D02*
X11265905Y-15315974D01*
X11265905Y-15315974D02*
X11265905Y-15363593D01*
X11265905Y-15363593D02*
X11256382Y-15401688D01*
X11256382Y-15401688D02*
X11246858Y-15420736D01*
X11246858Y-15420736D02*
X11237334Y-15430260D01*
X11237334Y-15430260D02*
X11218286Y-15439784D01*
X11218286Y-15439784D02*
X11199239Y-15439784D01*
X11199239Y-15439784D02*
X11180191Y-15430260D01*
X11180191Y-15430260D02*
X11170667Y-15420736D01*
X11170667Y-15420736D02*
X11161144Y-15401688D01*
X11161144Y-15401688D02*
X11151620Y-15363593D01*
X11151620Y-15363593D02*
X11151620Y-15315974D01*
X11151620Y-15315974D02*
X11161144Y-15277879D01*
X11161144Y-15277879D02*
X11170667Y-15258831D01*
X11170667Y-15258831D02*
X11180191Y-15249308D01*
X11180191Y-15249308D02*
X11199239Y-15239784D01*
X11351620Y-15439784D02*
X11351620Y-15306450D01*
X11351620Y-15325498D02*
X11361143Y-15315974D01*
X11361143Y-15315974D02*
X11380191Y-15306450D01*
X11380191Y-15306450D02*
X11408763Y-15306450D01*
X11408763Y-15306450D02*
X11427810Y-15315974D01*
X11427810Y-15315974D02*
X11437334Y-15335022D01*
X11437334Y-15335022D02*
X11437334Y-15439784D01*
X11437334Y-15335022D02*
X11446858Y-15315974D01*
X11446858Y-15315974D02*
X11465905Y-15306450D01*
X11465905Y-15306450D02*
X11494477Y-15306450D01*
X11494477Y-15306450D02*
X11513524Y-15315974D01*
X11513524Y-15315974D02*
X11523048Y-15335022D01*
X11523048Y-15335022D02*
X11523048Y-15439784D01*
X11618286Y-15439784D02*
X11618286Y-15306450D01*
X11618286Y-15325498D02*
X11627810Y-15315974D01*
X11627810Y-15315974D02*
X11646858Y-15306450D01*
X11646858Y-15306450D02*
X11675429Y-15306450D01*
X11675429Y-15306450D02*
X11694477Y-15315974D01*
X11694477Y-15315974D02*
X11704001Y-15335022D01*
X11704001Y-15335022D02*
X11704001Y-15439784D01*
X11704001Y-15335022D02*
X11713524Y-15315974D01*
X11713524Y-15315974D02*
X11732572Y-15306450D01*
X11732572Y-15306450D02*
X11761143Y-15306450D01*
X11761143Y-15306450D02*
X11780191Y-15315974D01*
X11780191Y-15315974D02*
X11789715Y-15335022D01*
X11789715Y-15335022D02*
X11789715Y-15439784D01*
X12180191Y-15230260D02*
X12008763Y-15487403D01*
X12437334Y-15239784D02*
X12456382Y-15239784D01*
X12456382Y-15239784D02*
X12475429Y-15249308D01*
X12475429Y-15249308D02*
X12484953Y-15258831D01*
X12484953Y-15258831D02*
X12494477Y-15277879D01*
X12494477Y-15277879D02*
X12504001Y-15315974D01*
X12504001Y-15315974D02*
X12504001Y-15363593D01*
X12504001Y-15363593D02*
X12494477Y-15401688D01*
X12494477Y-15401688D02*
X12484953Y-15420736D01*
X12484953Y-15420736D02*
X12475429Y-15430260D01*
X12475429Y-15430260D02*
X12456382Y-15439784D01*
X12456382Y-15439784D02*
X12437334Y-15439784D01*
X12437334Y-15439784D02*
X12418286Y-15430260D01*
X12418286Y-15430260D02*
X12408763Y-15420736D01*
X12408763Y-15420736D02*
X12399239Y-15401688D01*
X12399239Y-15401688D02*
X12389715Y-15363593D01*
X12389715Y-15363593D02*
X12389715Y-15315974D01*
X12389715Y-15315974D02*
X12399239Y-15277879D01*
X12399239Y-15277879D02*
X12408763Y-15258831D01*
X12408763Y-15258831D02*
X12418286Y-15249308D01*
X12418286Y-15249308D02*
X12437334Y-15239784D01*
X12589715Y-15420736D02*
X12599239Y-15430260D01*
X12599239Y-15430260D02*
X12589715Y-15439784D01*
X12589715Y-15439784D02*
X12580191Y-15430260D01*
X12580191Y-15430260D02*
X12589715Y-15420736D01*
X12589715Y-15420736D02*
X12589715Y-15439784D01*
X12723048Y-15239784D02*
X12742096Y-15239784D01*
X12742096Y-15239784D02*
X12761144Y-15249308D01*
X12761144Y-15249308D02*
X12770667Y-15258831D01*
X12770667Y-15258831D02*
X12780191Y-15277879D01*
X12780191Y-15277879D02*
X12789715Y-15315974D01*
X12789715Y-15315974D02*
X12789715Y-15363593D01*
X12789715Y-15363593D02*
X12780191Y-15401688D01*
X12780191Y-15401688D02*
X12770667Y-15420736D01*
X12770667Y-15420736D02*
X12761144Y-15430260D01*
X12761144Y-15430260D02*
X12742096Y-15439784D01*
X12742096Y-15439784D02*
X12723048Y-15439784D01*
X12723048Y-15439784D02*
X12704001Y-15430260D01*
X12704001Y-15430260D02*
X12694477Y-15420736D01*
X12694477Y-15420736D02*
X12684953Y-15401688D01*
X12684953Y-15401688D02*
X12675429Y-15363593D01*
X12675429Y-15363593D02*
X12675429Y-15315974D01*
X12675429Y-15315974D02*
X12684953Y-15277879D01*
X12684953Y-15277879D02*
X12694477Y-15258831D01*
X12694477Y-15258831D02*
X12704001Y-15249308D01*
X12704001Y-15249308D02*
X12723048Y-15239784D01*
X12961144Y-15306450D02*
X12961144Y-15439784D01*
X12913525Y-15230260D02*
X12865906Y-15373117D01*
X12865906Y-15373117D02*
X12989715Y-15373117D01*
X13046858Y-15239784D02*
X13170667Y-15239784D01*
X13170667Y-15239784D02*
X13104001Y-15315974D01*
X13104001Y-15315974D02*
X13132572Y-15315974D01*
X13132572Y-15315974D02*
X13151620Y-15325498D01*
X13151620Y-15325498D02*
X13161144Y-15335022D01*
X13161144Y-15335022D02*
X13170667Y-15354069D01*
X13170667Y-15354069D02*
X13170667Y-15401688D01*
X13170667Y-15401688D02*
X13161144Y-15420736D01*
X13161144Y-15420736D02*
X13151620Y-15430260D01*
X13151620Y-15430260D02*
X13132572Y-15439784D01*
X13132572Y-15439784D02*
X13075429Y-15439784D01*
X13075429Y-15439784D02*
X13056382Y-15430260D01*
X13056382Y-15430260D02*
X13046858Y-15420736D01*
X13237334Y-15239784D02*
X13361144Y-15239784D01*
X13361144Y-15239784D02*
X13294477Y-15315974D01*
X13294477Y-15315974D02*
X13323048Y-15315974D01*
X13323048Y-15315974D02*
X13342096Y-15325498D01*
X13342096Y-15325498D02*
X13351620Y-15335022D01*
X13351620Y-15335022D02*
X13361144Y-15354069D01*
X13361144Y-15354069D02*
X13361144Y-15401688D01*
X13361144Y-15401688D02*
X13351620Y-15420736D01*
X13351620Y-15420736D02*
X13342096Y-15430260D01*
X13342096Y-15430260D02*
X13323048Y-15439784D01*
X13323048Y-15439784D02*
X13265906Y-15439784D01*
X13265906Y-15439784D02*
X13246858Y-15430260D01*
X13246858Y-15430260D02*
X13237334Y-15420736D01*
X13437334Y-15239784D02*
X13437334Y-15277879D01*
X13513525Y-15239784D02*
X13513525Y-15277879D01*
X13808763Y-15515974D02*
X13799239Y-15506450D01*
X13799239Y-15506450D02*
X13780191Y-15477879D01*
X13780191Y-15477879D02*
X13770668Y-15458831D01*
X13770668Y-15458831D02*
X13761144Y-15430260D01*
X13761144Y-15430260D02*
X13751620Y-15382641D01*
X13751620Y-15382641D02*
X13751620Y-15344546D01*
X13751620Y-15344546D02*
X13761144Y-15296927D01*
X13761144Y-15296927D02*
X13770668Y-15268355D01*
X13770668Y-15268355D02*
X13780191Y-15249308D01*
X13780191Y-15249308D02*
X13799239Y-15220736D01*
X13799239Y-15220736D02*
X13808763Y-15211212D01*
X13970668Y-15239784D02*
X13932572Y-15239784D01*
X13932572Y-15239784D02*
X13913525Y-15249308D01*
X13913525Y-15249308D02*
X13904001Y-15258831D01*
X13904001Y-15258831D02*
X13884953Y-15287403D01*
X13884953Y-15287403D02*
X13875429Y-15325498D01*
X13875429Y-15325498D02*
X13875429Y-15401688D01*
X13875429Y-15401688D02*
X13884953Y-15420736D01*
X13884953Y-15420736D02*
X13894477Y-15430260D01*
X13894477Y-15430260D02*
X13913525Y-15439784D01*
X13913525Y-15439784D02*
X13951620Y-15439784D01*
X13951620Y-15439784D02*
X13970668Y-15430260D01*
X13970668Y-15430260D02*
X13980191Y-15420736D01*
X13980191Y-15420736D02*
X13989715Y-15401688D01*
X13989715Y-15401688D02*
X13989715Y-15354069D01*
X13989715Y-15354069D02*
X13980191Y-15335022D01*
X13980191Y-15335022D02*
X13970668Y-15325498D01*
X13970668Y-15325498D02*
X13951620Y-15315974D01*
X13951620Y-15315974D02*
X13913525Y-15315974D01*
X13913525Y-15315974D02*
X13894477Y-15325498D01*
X13894477Y-15325498D02*
X13884953Y-15335022D01*
X13884953Y-15335022D02*
X13875429Y-15354069D01*
X14227810Y-15439784D02*
X14227810Y-15239784D01*
X14313525Y-15439784D02*
X14313525Y-15335022D01*
X14313525Y-15335022D02*
X14304001Y-15315974D01*
X14304001Y-15315974D02*
X14284953Y-15306450D01*
X14284953Y-15306450D02*
X14256382Y-15306450D01*
X14256382Y-15306450D02*
X14237334Y-15315974D01*
X14237334Y-15315974D02*
X14227810Y-15325498D01*
X14437334Y-15439784D02*
X14418287Y-15430260D01*
X14418287Y-15430260D02*
X14408763Y-15420736D01*
X14408763Y-15420736D02*
X14399239Y-15401688D01*
X14399239Y-15401688D02*
X14399239Y-15344546D01*
X14399239Y-15344546D02*
X14408763Y-15325498D01*
X14408763Y-15325498D02*
X14418287Y-15315974D01*
X14418287Y-15315974D02*
X14437334Y-15306450D01*
X14437334Y-15306450D02*
X14465906Y-15306450D01*
X14465906Y-15306450D02*
X14484953Y-15315974D01*
X14484953Y-15315974D02*
X14494477Y-15325498D01*
X14494477Y-15325498D02*
X14504001Y-15344546D01*
X14504001Y-15344546D02*
X14504001Y-15401688D01*
X14504001Y-15401688D02*
X14494477Y-15420736D01*
X14494477Y-15420736D02*
X14484953Y-15430260D01*
X14484953Y-15430260D02*
X14465906Y-15439784D01*
X14465906Y-15439784D02*
X14437334Y-15439784D01*
X14618287Y-15439784D02*
X14599239Y-15430260D01*
X14599239Y-15430260D02*
X14589715Y-15411212D01*
X14589715Y-15411212D02*
X14589715Y-15239784D01*
X14770668Y-15430260D02*
X14751620Y-15439784D01*
X14751620Y-15439784D02*
X14713525Y-15439784D01*
X14713525Y-15439784D02*
X14694477Y-15430260D01*
X14694477Y-15430260D02*
X14684953Y-15411212D01*
X14684953Y-15411212D02*
X14684953Y-15335022D01*
X14684953Y-15335022D02*
X14694477Y-15315974D01*
X14694477Y-15315974D02*
X14713525Y-15306450D01*
X14713525Y-15306450D02*
X14751620Y-15306450D01*
X14751620Y-15306450D02*
X14770668Y-15315974D01*
X14770668Y-15315974D02*
X14780191Y-15335022D01*
X14780191Y-15335022D02*
X14780191Y-15354069D01*
X14780191Y-15354069D02*
X14684953Y-15373117D01*
X14856382Y-15430260D02*
X14875430Y-15439784D01*
X14875430Y-15439784D02*
X14913525Y-15439784D01*
X14913525Y-15439784D02*
X14932572Y-15430260D01*
X14932572Y-15430260D02*
X14942096Y-15411212D01*
X14942096Y-15411212D02*
X14942096Y-15401688D01*
X14942096Y-15401688D02*
X14932572Y-15382641D01*
X14932572Y-15382641D02*
X14913525Y-15373117D01*
X14913525Y-15373117D02*
X14884953Y-15373117D01*
X14884953Y-15373117D02*
X14865906Y-15363593D01*
X14865906Y-15363593D02*
X14856382Y-15344546D01*
X14856382Y-15344546D02*
X14856382Y-15335022D01*
X14856382Y-15335022D02*
X14865906Y-15315974D01*
X14865906Y-15315974D02*
X14884953Y-15306450D01*
X14884953Y-15306450D02*
X14913525Y-15306450D01*
X14913525Y-15306450D02*
X14932572Y-15315974D01*
X15008763Y-15515974D02*
X15018287Y-15506450D01*
X15018287Y-15506450D02*
X15037334Y-15477879D01*
X15037334Y-15477879D02*
X15046858Y-15458831D01*
X15046858Y-15458831D02*
X15056382Y-15430260D01*
X15056382Y-15430260D02*
X15065906Y-15382641D01*
X15065906Y-15382641D02*
X15065906Y-15344546D01*
X15065906Y-15344546D02*
X15056382Y-15296927D01*
X15056382Y-15296927D02*
X15046858Y-15268355D01*
X15046858Y-15268355D02*
X15037334Y-15249308D01*
X15037334Y-15249308D02*
X15018287Y-15220736D01*
X15018287Y-15220736D02*
X15008763Y-15211212D01*
D15*
X10120700Y-15555800D02*
X10233700Y-15668800D01*
X10233700Y-15555800D02*
X10120700Y-15668800D01*
X10177200Y-15555800D02*
X10177200Y-15668800D01*
X10120700Y-15612300D02*
X10233700Y-15612300D01*
D12*
X10599239Y-15703784D02*
X10484953Y-15703784D01*
X10542096Y-15703784D02*
X10542096Y-15503784D01*
X10542096Y-15503784D02*
X10523048Y-15532355D01*
X10523048Y-15532355D02*
X10504001Y-15551403D01*
X10504001Y-15551403D02*
X10484953Y-15560927D01*
X10684953Y-15684736D02*
X10694477Y-15694260D01*
X10694477Y-15694260D02*
X10684953Y-15703784D01*
X10684953Y-15703784D02*
X10675429Y-15694260D01*
X10675429Y-15694260D02*
X10684953Y-15684736D01*
X10684953Y-15684736D02*
X10684953Y-15703784D01*
X10884953Y-15703784D02*
X10770667Y-15703784D01*
X10827810Y-15703784D02*
X10827810Y-15503784D01*
X10827810Y-15503784D02*
X10808763Y-15532355D01*
X10808763Y-15532355D02*
X10789715Y-15551403D01*
X10789715Y-15551403D02*
X10770667Y-15560927D01*
X10951620Y-15503784D02*
X11075429Y-15503784D01*
X11075429Y-15503784D02*
X11008763Y-15579974D01*
X11008763Y-15579974D02*
X11037334Y-15579974D01*
X11037334Y-15579974D02*
X11056382Y-15589498D01*
X11056382Y-15589498D02*
X11065905Y-15599022D01*
X11065905Y-15599022D02*
X11075429Y-15618069D01*
X11075429Y-15618069D02*
X11075429Y-15665688D01*
X11075429Y-15665688D02*
X11065905Y-15684736D01*
X11065905Y-15684736D02*
X11056382Y-15694260D01*
X11056382Y-15694260D02*
X11037334Y-15703784D01*
X11037334Y-15703784D02*
X10980191Y-15703784D01*
X10980191Y-15703784D02*
X10961144Y-15694260D01*
X10961144Y-15694260D02*
X10951620Y-15684736D01*
X11199239Y-15503784D02*
X11218286Y-15503784D01*
X11218286Y-15503784D02*
X11237334Y-15513308D01*
X11237334Y-15513308D02*
X11246858Y-15522831D01*
X11246858Y-15522831D02*
X11256382Y-15541879D01*
X11256382Y-15541879D02*
X11265905Y-15579974D01*
X11265905Y-15579974D02*
X11265905Y-15627593D01*
X11265905Y-15627593D02*
X11256382Y-15665688D01*
X11256382Y-15665688D02*
X11246858Y-15684736D01*
X11246858Y-15684736D02*
X11237334Y-15694260D01*
X11237334Y-15694260D02*
X11218286Y-15703784D01*
X11218286Y-15703784D02*
X11199239Y-15703784D01*
X11199239Y-15703784D02*
X11180191Y-15694260D01*
X11180191Y-15694260D02*
X11170667Y-15684736D01*
X11170667Y-15684736D02*
X11161144Y-15665688D01*
X11161144Y-15665688D02*
X11151620Y-15627593D01*
X11151620Y-15627593D02*
X11151620Y-15579974D01*
X11151620Y-15579974D02*
X11161144Y-15541879D01*
X11161144Y-15541879D02*
X11170667Y-15522831D01*
X11170667Y-15522831D02*
X11180191Y-15513308D01*
X11180191Y-15513308D02*
X11199239Y-15503784D01*
X11351620Y-15703784D02*
X11351620Y-15570450D01*
X11351620Y-15589498D02*
X11361143Y-15579974D01*
X11361143Y-15579974D02*
X11380191Y-15570450D01*
X11380191Y-15570450D02*
X11408763Y-15570450D01*
X11408763Y-15570450D02*
X11427810Y-15579974D01*
X11427810Y-15579974D02*
X11437334Y-15599022D01*
X11437334Y-15599022D02*
X11437334Y-15703784D01*
X11437334Y-15599022D02*
X11446858Y-15579974D01*
X11446858Y-15579974D02*
X11465905Y-15570450D01*
X11465905Y-15570450D02*
X11494477Y-15570450D01*
X11494477Y-15570450D02*
X11513524Y-15579974D01*
X11513524Y-15579974D02*
X11523048Y-15599022D01*
X11523048Y-15599022D02*
X11523048Y-15703784D01*
X11618286Y-15703784D02*
X11618286Y-15570450D01*
X11618286Y-15589498D02*
X11627810Y-15579974D01*
X11627810Y-15579974D02*
X11646858Y-15570450D01*
X11646858Y-15570450D02*
X11675429Y-15570450D01*
X11675429Y-15570450D02*
X11694477Y-15579974D01*
X11694477Y-15579974D02*
X11704001Y-15599022D01*
X11704001Y-15599022D02*
X11704001Y-15703784D01*
X11704001Y-15599022D02*
X11713524Y-15579974D01*
X11713524Y-15579974D02*
X11732572Y-15570450D01*
X11732572Y-15570450D02*
X11761143Y-15570450D01*
X11761143Y-15570450D02*
X11780191Y-15579974D01*
X11780191Y-15579974D02*
X11789715Y-15599022D01*
X11789715Y-15599022D02*
X11789715Y-15703784D01*
X12180191Y-15494260D02*
X12008763Y-15751403D01*
X12437334Y-15503784D02*
X12456382Y-15503784D01*
X12456382Y-15503784D02*
X12475429Y-15513308D01*
X12475429Y-15513308D02*
X12484953Y-15522831D01*
X12484953Y-15522831D02*
X12494477Y-15541879D01*
X12494477Y-15541879D02*
X12504001Y-15579974D01*
X12504001Y-15579974D02*
X12504001Y-15627593D01*
X12504001Y-15627593D02*
X12494477Y-15665688D01*
X12494477Y-15665688D02*
X12484953Y-15684736D01*
X12484953Y-15684736D02*
X12475429Y-15694260D01*
X12475429Y-15694260D02*
X12456382Y-15703784D01*
X12456382Y-15703784D02*
X12437334Y-15703784D01*
X12437334Y-15703784D02*
X12418286Y-15694260D01*
X12418286Y-15694260D02*
X12408763Y-15684736D01*
X12408763Y-15684736D02*
X12399239Y-15665688D01*
X12399239Y-15665688D02*
X12389715Y-15627593D01*
X12389715Y-15627593D02*
X12389715Y-15579974D01*
X12389715Y-15579974D02*
X12399239Y-15541879D01*
X12399239Y-15541879D02*
X12408763Y-15522831D01*
X12408763Y-15522831D02*
X12418286Y-15513308D01*
X12418286Y-15513308D02*
X12437334Y-15503784D01*
X12589715Y-15684736D02*
X12599239Y-15694260D01*
X12599239Y-15694260D02*
X12589715Y-15703784D01*
X12589715Y-15703784D02*
X12580191Y-15694260D01*
X12580191Y-15694260D02*
X12589715Y-15684736D01*
X12589715Y-15684736D02*
X12589715Y-15703784D01*
X12723048Y-15503784D02*
X12742096Y-15503784D01*
X12742096Y-15503784D02*
X12761144Y-15513308D01*
X12761144Y-15513308D02*
X12770667Y-15522831D01*
X12770667Y-15522831D02*
X12780191Y-15541879D01*
X12780191Y-15541879D02*
X12789715Y-15579974D01*
X12789715Y-15579974D02*
X12789715Y-15627593D01*
X12789715Y-15627593D02*
X12780191Y-15665688D01*
X12780191Y-15665688D02*
X12770667Y-15684736D01*
X12770667Y-15684736D02*
X12761144Y-15694260D01*
X12761144Y-15694260D02*
X12742096Y-15703784D01*
X12742096Y-15703784D02*
X12723048Y-15703784D01*
X12723048Y-15703784D02*
X12704001Y-15694260D01*
X12704001Y-15694260D02*
X12694477Y-15684736D01*
X12694477Y-15684736D02*
X12684953Y-15665688D01*
X12684953Y-15665688D02*
X12675429Y-15627593D01*
X12675429Y-15627593D02*
X12675429Y-15579974D01*
X12675429Y-15579974D02*
X12684953Y-15541879D01*
X12684953Y-15541879D02*
X12694477Y-15522831D01*
X12694477Y-15522831D02*
X12704001Y-15513308D01*
X12704001Y-15513308D02*
X12723048Y-15503784D01*
X12961144Y-15570450D02*
X12961144Y-15703784D01*
X12913525Y-15494260D02*
X12865906Y-15637117D01*
X12865906Y-15637117D02*
X12989715Y-15637117D01*
X13151620Y-15570450D02*
X13151620Y-15703784D01*
X13104001Y-15494260D02*
X13056382Y-15637117D01*
X13056382Y-15637117D02*
X13180191Y-15637117D01*
X13351620Y-15503784D02*
X13256382Y-15503784D01*
X13256382Y-15503784D02*
X13246858Y-15599022D01*
X13246858Y-15599022D02*
X13256382Y-15589498D01*
X13256382Y-15589498D02*
X13275429Y-15579974D01*
X13275429Y-15579974D02*
X13323048Y-15579974D01*
X13323048Y-15579974D02*
X13342096Y-15589498D01*
X13342096Y-15589498D02*
X13351620Y-15599022D01*
X13351620Y-15599022D02*
X13361144Y-15618069D01*
X13361144Y-15618069D02*
X13361144Y-15665688D01*
X13361144Y-15665688D02*
X13351620Y-15684736D01*
X13351620Y-15684736D02*
X13342096Y-15694260D01*
X13342096Y-15694260D02*
X13323048Y-15703784D01*
X13323048Y-15703784D02*
X13275429Y-15703784D01*
X13275429Y-15703784D02*
X13256382Y-15694260D01*
X13256382Y-15694260D02*
X13246858Y-15684736D01*
X13437334Y-15503784D02*
X13437334Y-15541879D01*
X13513525Y-15503784D02*
X13513525Y-15541879D01*
X13808763Y-15779974D02*
X13799239Y-15770450D01*
X13799239Y-15770450D02*
X13780191Y-15741879D01*
X13780191Y-15741879D02*
X13770668Y-15722831D01*
X13770668Y-15722831D02*
X13761144Y-15694260D01*
X13761144Y-15694260D02*
X13751620Y-15646641D01*
X13751620Y-15646641D02*
X13751620Y-15608546D01*
X13751620Y-15608546D02*
X13761144Y-15560927D01*
X13761144Y-15560927D02*
X13770668Y-15532355D01*
X13770668Y-15532355D02*
X13780191Y-15513308D01*
X13780191Y-15513308D02*
X13799239Y-15484736D01*
X13799239Y-15484736D02*
X13808763Y-15475212D01*
X13989715Y-15703784D02*
X13875429Y-15703784D01*
X13932572Y-15703784D02*
X13932572Y-15503784D01*
X13932572Y-15503784D02*
X13913525Y-15532355D01*
X13913525Y-15532355D02*
X13894477Y-15551403D01*
X13894477Y-15551403D02*
X13875429Y-15560927D01*
X14065906Y-15522831D02*
X14075429Y-15513308D01*
X14075429Y-15513308D02*
X14094477Y-15503784D01*
X14094477Y-15503784D02*
X14142096Y-15503784D01*
X14142096Y-15503784D02*
X14161144Y-15513308D01*
X14161144Y-15513308D02*
X14170668Y-15522831D01*
X14170668Y-15522831D02*
X14180191Y-15541879D01*
X14180191Y-15541879D02*
X14180191Y-15560927D01*
X14180191Y-15560927D02*
X14170668Y-15589498D01*
X14170668Y-15589498D02*
X14056382Y-15703784D01*
X14056382Y-15703784D02*
X14180191Y-15703784D01*
X14418287Y-15703784D02*
X14418287Y-15503784D01*
X14504001Y-15703784D02*
X14504001Y-15599022D01*
X14504001Y-15599022D02*
X14494477Y-15579974D01*
X14494477Y-15579974D02*
X14475430Y-15570450D01*
X14475430Y-15570450D02*
X14446858Y-15570450D01*
X14446858Y-15570450D02*
X14427810Y-15579974D01*
X14427810Y-15579974D02*
X14418287Y-15589498D01*
X14627810Y-15703784D02*
X14608763Y-15694260D01*
X14608763Y-15694260D02*
X14599239Y-15684736D01*
X14599239Y-15684736D02*
X14589715Y-15665688D01*
X14589715Y-15665688D02*
X14589715Y-15608546D01*
X14589715Y-15608546D02*
X14599239Y-15589498D01*
X14599239Y-15589498D02*
X14608763Y-15579974D01*
X14608763Y-15579974D02*
X14627810Y-15570450D01*
X14627810Y-15570450D02*
X14656382Y-15570450D01*
X14656382Y-15570450D02*
X14675430Y-15579974D01*
X14675430Y-15579974D02*
X14684953Y-15589498D01*
X14684953Y-15589498D02*
X14694477Y-15608546D01*
X14694477Y-15608546D02*
X14694477Y-15665688D01*
X14694477Y-15665688D02*
X14684953Y-15684736D01*
X14684953Y-15684736D02*
X14675430Y-15694260D01*
X14675430Y-15694260D02*
X14656382Y-15703784D01*
X14656382Y-15703784D02*
X14627810Y-15703784D01*
X14808763Y-15703784D02*
X14789715Y-15694260D01*
X14789715Y-15694260D02*
X14780191Y-15675212D01*
X14780191Y-15675212D02*
X14780191Y-15503784D01*
X14961144Y-15694260D02*
X14942096Y-15703784D01*
X14942096Y-15703784D02*
X14904001Y-15703784D01*
X14904001Y-15703784D02*
X14884953Y-15694260D01*
X14884953Y-15694260D02*
X14875430Y-15675212D01*
X14875430Y-15675212D02*
X14875430Y-15599022D01*
X14875430Y-15599022D02*
X14884953Y-15579974D01*
X14884953Y-15579974D02*
X14904001Y-15570450D01*
X14904001Y-15570450D02*
X14942096Y-15570450D01*
X14942096Y-15570450D02*
X14961144Y-15579974D01*
X14961144Y-15579974D02*
X14970668Y-15599022D01*
X14970668Y-15599022D02*
X14970668Y-15618069D01*
X14970668Y-15618069D02*
X14875430Y-15637117D01*
X15046858Y-15694260D02*
X15065906Y-15703784D01*
X15065906Y-15703784D02*
X15104001Y-15703784D01*
X15104001Y-15703784D02*
X15123049Y-15694260D01*
X15123049Y-15694260D02*
X15132572Y-15675212D01*
X15132572Y-15675212D02*
X15132572Y-15665688D01*
X15132572Y-15665688D02*
X15123049Y-15646641D01*
X15123049Y-15646641D02*
X15104001Y-15637117D01*
X15104001Y-15637117D02*
X15075430Y-15637117D01*
X15075430Y-15637117D02*
X15056382Y-15627593D01*
X15056382Y-15627593D02*
X15046858Y-15608546D01*
X15046858Y-15608546D02*
X15046858Y-15599022D01*
X15046858Y-15599022D02*
X15056382Y-15579974D01*
X15056382Y-15579974D02*
X15075430Y-15570450D01*
X15075430Y-15570450D02*
X15104001Y-15570450D01*
X15104001Y-15570450D02*
X15123049Y-15579974D01*
X15199239Y-15779974D02*
X15208763Y-15770450D01*
X15208763Y-15770450D02*
X15227811Y-15741879D01*
X15227811Y-15741879D02*
X15237334Y-15722831D01*
X15237334Y-15722831D02*
X15246858Y-15694260D01*
X15246858Y-15694260D02*
X15256382Y-15646641D01*
X15256382Y-15646641D02*
X15256382Y-15608546D01*
X15256382Y-15608546D02*
X15246858Y-15560927D01*
X15246858Y-15560927D02*
X15237334Y-15532355D01*
X15237334Y-15532355D02*
X15227811Y-15513308D01*
X15227811Y-15513308D02*
X15208763Y-15484736D01*
X15208763Y-15484736D02*
X15199239Y-15475212D01*
M02*
