M48
; DRILL file {KiCad 9.0.0} date 2025-03-04T23:57:36-0600
; FORMAT={-:-/ absolute / metric / decimal}
; #@! TF.CreationDate,2025-03-04T23:57:36-06:00
; #@! TF.GenerationSoftware,Kicad,Pcbnew,9.0.0
; #@! TF.FileFunction,Plated,1,4,PTH
FMAT,2
METRIC
; #@! TA.AperFunction,Plated,PTH,ComponentDrill
T1C0.200
; #@! TA.AperFunction,Plated,PTH,ViaDrill
T2C0.300
; #@! TA.AperFunction,Plated,PTH,ComponentDrill
T3C0.330
; #@! TA.AperFunction,Plated,PTH,ComponentDrill
T4C1.000
; #@! TA.AperFunction,Plated,PTH,ComponentDrill
T5C1.100
; #@! TA.AperFunction,Plated,PTH,ComponentDrill
T6C1.130
; #@! TA.AperFunction,Plated,PTH,ComponentDrill
T7C1.400
%
G90
G05
T1
X181.012Y-52.04
X181.012Y-53.34
X182.312Y-52.04
X182.312Y-53.34
X183.612Y-52.04
X183.612Y-53.34
X184.912Y-52.04
X184.912Y-53.34
T2
X178.562Y-46.228
X178.562Y-50.292
X178.562Y-52.07
X178.816Y-53.594
X179.324Y-44.704
X179.324Y-46.736
X179.324Y-49.276
X179.324Y-51.054
X179.324Y-52.832
X181.045Y-68.326
X183.882Y-59.152
X184.404Y-68.326
X184.869Y-56.866
X186.029Y-87.61
X186.669Y-77.545
X186.69Y-44.704
X186.69Y-69.342
X187.706Y-69.342
X187.96Y-44.704
X188.577Y-48.604
X188.722Y-69.342
X189.23Y-44.704
X189.464Y-53.574
X189.484Y-52.07
X189.738Y-45.974
X189.738Y-87.63
X190.754Y-47.498
X190.83Y-54.695
X191.008Y-49.276
X191.008Y-50.292
X191.136Y-77.529
X193.76Y-50.582
X196.342Y-69.342
X196.815Y-89.043
X199.254Y-62.037
X199.255Y-76.519
X200.197Y-67.981
X200.323Y-89.064
X202.454Y-71.028
X203.072Y-42.225
X203.2Y-55.626
X203.969Y-44.507
X207.296Y-41.689
X208.118Y-52.782
X213.394Y-44.663
X216.662Y-87.63
X216.662Y-89.916
X217.678Y-87.63
X217.678Y-89.916
X217.702Y-42.672
X218.44Y-86.106
X218.512Y-88.33
X220.085Y-85.437
X220.726Y-38.862
X221.896Y-42.772
X222.25Y-76.2
X223.656Y-85.309
X223.689Y-84.048
X223.692Y-82.769
X223.754Y-94.184
X223.779Y-86.583
X223.993Y-74.07
X225.044Y-87.376
X226.297Y-92.456
X226.568Y-86.36
X229.183Y-45.133
X229.185Y-40.779
X229.919Y-86.455
X229.926Y-85.083
X229.94Y-87.867
X230.337Y-78.039
X230.53Y-58.525
X231.648Y-78.74
X231.807Y-47.69
X231.813Y-57.172
X232.466Y-83.997
X232.882Y-78.83
X233.08Y-57.221
X235.094Y-87.888
X235.148Y-86.475
X235.161Y-85.586
X235.96Y-59.833
X237.399Y-83.312
X237.551Y-50.617
X237.592Y-80.233
X238.236Y-94.173
X238.329Y-82.756
X240.86Y-45.209
X240.883Y-40.667
X241.554Y-87.122
X242.201Y-57.253
X243.078Y-86.614
X243.481Y-47.578
X243.482Y-77.112
X243.991Y-88.765
X247.071Y-94.502
X247.396Y-92.964
X247.605Y-59.826
X247.904Y-81.534
X248.92Y-78.74
X248.92Y-82.708
X249.179Y-50.632
X250.182Y-95.25
X250.19Y-94.488
X250.239Y-65.052
X250.373Y-74.606
X251.46Y-56.896
X251.46Y-85.852
X251.49Y-46.96
X253.247Y-85.852
X253.248Y-56.784
X253.254Y-66.468
X253.257Y-95.206
X253.258Y-76.118
X253.261Y-47.063
X258.096Y-89.073
T3
X231.139Y-51.762
X231.139Y-53.062
X232.439Y-51.762
X232.439Y-53.062
X233.739Y-51.762
X233.739Y-53.062
X242.824Y-51.762
X242.824Y-53.062
X244.124Y-51.762
X244.124Y-53.062
X245.424Y-51.762
X245.424Y-53.062
T4
X192.024Y-84.328
X194.683Y-92.336
X197.358Y-79.196
T5
X220.218Y-63.754
X220.218Y-66.294
X222.758Y-63.754
X222.758Y-66.294
X225.298Y-63.754
X225.298Y-66.294
T6
X179.951Y-81.414
X179.951Y-83.954
X179.951Y-86.494
X179.951Y-89.034
X179.951Y-91.574
X179.951Y-94.114
X206.756Y-82.55
X206.756Y-85.09
X206.756Y-87.63
X206.756Y-90.17
X206.756Y-92.71
X206.756Y-95.25
T7
X202.697Y-35.681
X206.507Y-35.681
X210.317Y-35.681
X216.159Y-35.681
X219.969Y-35.681
X223.779Y-35.681
X230.404Y-35.79
X234.214Y-35.79
X242.089Y-35.79
X245.899Y-35.79
X264.521Y-41.937
X264.521Y-45.747
X264.521Y-51.589
X264.521Y-55.399
X264.521Y-61.241
X264.521Y-65.051
X264.521Y-70.792
X264.521Y-74.602
X264.521Y-80.444
X264.521Y-84.254
X264.521Y-90.096
X264.521Y-93.906
T4
X187.832Y-37.56G85X187.832Y-39.56
G05
X193.532Y-35.56G85X191.532Y-35.56
G05
X193.532Y-41.56G85X191.532Y-41.56
G05
M30
