M48
; DRILL file {KiCad 9.0.0} date 2025-03-05T08:43:47-0600
; FORMAT={-:-/ absolute / metric / decimal}
; #@! TF.CreationDate,2025-03-05T08:43:47-06:00
; #@! TF.GenerationSoftware,Kicad,Pcbnew,9.0.0
; #@! TF.FileFunction,Plated,1,4,PTH
FMAT,2
METRIC
; #@! TA.AperFunction,Plated,PTH,ViaDrill
T1C0.300
; #@! TA.AperFunction,Plated,PTH,ComponentDrill
T2C0.300
; #@! TA.AperFunction,Plated,PTH,ComponentDrill
T3C1.000
; #@! TA.AperFunction,Plated,PTH,ComponentDrill
T4C1.100
; #@! TA.AperFunction,Plated,PTH,ComponentDrill
T5C1.130
; #@! TA.AperFunction,Plated,PTH,ComponentDrill
T6C1.400
%
G90
G05
T1
X178.054Y-77.724
X178.562Y-46.228
X178.562Y-50.292
X178.562Y-52.07
X178.562Y-75.184
X178.816Y-53.594
X179.324Y-44.704
X179.324Y-46.736
X179.324Y-49.276
X179.324Y-51.054
X179.324Y-52.832
X179.324Y-73.406
X180.848Y-97.282
X181.045Y-68.326
X181.61Y-73.914
X183.134Y-84.836
X183.642Y-81.28
X183.882Y-59.152
X184.404Y-68.326
X184.404Y-89.916
X184.869Y-56.866
X185.166Y-83.566
X186.029Y-87.61
X186.669Y-77.545
X186.69Y-44.704
X186.69Y-67.818
X187.279Y-68.491
X187.785Y-67.863
X187.96Y-44.704
X188.214Y-97.028
X188.577Y-48.604
X188.722Y-67.831
X188.722Y-76.708
X188.722Y-80.264
X189.23Y-44.704
X189.484Y-52.07
X189.484Y-53.34
X189.484Y-67.818
X189.738Y-45.974
X189.738Y-77.978
X189.738Y-81.534
X189.738Y-87.63
X190.246Y-67.818
X190.246Y-75.946
X190.754Y-47.498
X190.83Y-54.695
X191.008Y-49.276
X191.008Y-50.292
X191.008Y-67.818
X191.008Y-94.996
X191.136Y-77.529
X192.532Y-67.818
X193.76Y-50.582
X194.056Y-82.804
X194.564Y-95.758
X194.818Y-71.628
X195.834Y-72.136
X196.342Y-69.342
X196.815Y-89.043
X197.104Y-72.898
X197.358Y-71.882
X198.12Y-73.914
X198.628Y-97.028
X199.254Y-62.037
X199.255Y-76.519
X200.152Y-72.136
X200.197Y-67.981
X200.323Y-89.064
X200.406Y-74.168
X201.168Y-94.996
X201.93Y-90.678
X202.184Y-84.836
X202.454Y-71.028
X202.692Y-74.93
X202.692Y-77.978
X203.072Y-42.225
X203.2Y-55.626
X203.454Y-73.914
X203.708Y-63.754
X203.708Y-64.77
X203.708Y-65.786
X203.708Y-68.072
X203.708Y-69.088
X203.708Y-92.71
X203.962Y-79.502
X203.962Y-84.074
X203.962Y-97.536
X203.969Y-44.507
X205.486Y-74.422
X206.502Y-79.756
X207.264Y-75.946
X207.296Y-41.689
X207.772Y-72.644
X208.118Y-52.782
X213.394Y-44.663
X216.662Y-87.63
X216.662Y-89.916
X217.678Y-87.63
X217.678Y-89.916
X217.702Y-42.672
X218.44Y-86.106
X218.512Y-88.33
X220.081Y-85.44
X220.726Y-38.862
X221.896Y-42.772
X222.25Y-76.2
X223.656Y-85.309
X223.689Y-84.048
X223.692Y-82.769
X223.754Y-94.184
X223.779Y-86.583
X223.993Y-74.07
X226.297Y-92.456
X226.568Y-86.36
X229.183Y-45.133
X229.185Y-40.779
X229.919Y-86.455
X229.926Y-85.083
X229.94Y-87.867
X230.337Y-78.039
X230.53Y-58.525
X231.066Y-83.962
X231.648Y-78.74
X231.807Y-47.69
X231.813Y-57.172
X232.466Y-83.997
X232.882Y-78.83
X233.08Y-57.221
X233.875Y-84.03
X235.054Y-85.084
X235.094Y-87.888
X235.148Y-86.475
X235.96Y-59.833
X237.551Y-50.617
X237.592Y-80.233
X237.978Y-81.503
X238.236Y-94.173
X238.329Y-82.756
X240.86Y-45.209
X240.883Y-40.667
X241.554Y-87.122
X242.201Y-57.253
X243.078Y-86.614
X243.481Y-47.578
X243.482Y-77.112
X243.991Y-88.765
X247.071Y-94.502
X247.396Y-92.964
X247.605Y-59.826
X247.904Y-81.534
X248.92Y-78.74
X248.92Y-82.708
X249.179Y-50.632
X250.182Y-95.25
X250.19Y-94.488
X250.239Y-65.052
X250.373Y-74.606
X251.46Y-56.896
X251.46Y-85.852
X251.49Y-46.96
X253.247Y-85.852
X253.248Y-56.784
X253.254Y-66.468
X253.257Y-95.206
X253.258Y-76.118
X253.261Y-47.063
X258.078Y-88.338
T2
X181.012Y-52.04
X181.012Y-53.34
X182.312Y-52.04
X182.312Y-53.34
X183.612Y-52.04
X183.612Y-53.34
X184.912Y-52.04
X184.912Y-53.34
X192.024Y-84.328
X194.683Y-92.336
X197.358Y-79.196
X231.139Y-51.762
X231.139Y-53.062
X232.439Y-51.762
X232.439Y-53.062
X233.739Y-51.762
X233.739Y-53.062
X242.824Y-51.762
X242.824Y-53.062
X244.124Y-51.762
X244.124Y-53.062
X245.424Y-51.762
X245.424Y-53.062
T4
X220.218Y-63.754
X220.218Y-66.294
X222.758Y-63.754
X222.758Y-66.294
X225.298Y-63.754
X225.298Y-66.294
T5
X179.951Y-81.414
X179.951Y-83.954
X179.951Y-86.494
X179.951Y-89.034
X179.951Y-91.574
X179.951Y-94.114
X206.756Y-82.55
X206.756Y-85.09
X206.756Y-87.63
X206.756Y-90.17
X206.756Y-92.71
X206.756Y-95.25
T6
X202.697Y-35.681
X206.507Y-35.681
X210.317Y-35.681
X216.159Y-35.681
X219.969Y-35.681
X223.779Y-35.681
X230.404Y-35.79
X234.214Y-35.79
X242.089Y-35.79
X245.899Y-35.79
X264.521Y-41.937
X264.521Y-45.747
X264.521Y-51.589
X264.521Y-55.399
X264.521Y-61.241
X264.521Y-65.051
X264.521Y-70.792
X264.521Y-74.602
X264.521Y-80.444
X264.521Y-84.254
X264.521Y-90.096
X264.521Y-93.906
T3
X187.832Y-37.56G85X187.832Y-39.56
G05
X193.532Y-35.56G85X191.532Y-35.56
G05
X193.532Y-41.56G85X191.532Y-41.56
G05
M30
