G04 #@! TF.GenerationSoftware,KiCad,Pcbnew,9.0.0*
G04 #@! TF.CreationDate,2025-03-04T12:56:27-06:00*
G04 #@! TF.ProjectId,PCB,5043422e-6b69-4636-9164-5f7063625858,rev?*
G04 #@! TF.SameCoordinates,Original*
G04 #@! TF.FileFunction,Soldermask,Top*
G04 #@! TF.FilePolarity,Negative*
%FSLAX46Y46*%
G04 Gerber Fmt 4.6, Leading zero omitted, Abs format (unit mm)*
G04 Created by KiCad (PCBNEW 9.0.0) date 2025-03-04 12:56:27*
%MOMM*%
%LPD*%
G01*
G04 APERTURE LIST*
G04 Aperture macros list*
%AMRoundRect*
0 Rectangle with rounded corners*
0 $1 Rounding radius*
0 $2 $3 $4 $5 $6 $7 $8 $9 X,Y pos of 4 corners*
0 Add a 4 corners polygon primitive as box body*
4,1,4,$2,$3,$4,$5,$6,$7,$8,$9,$2,$3,0*
0 Add four circle primitives for the rounded corners*
1,1,$1+$1,$2,$3*
1,1,$1+$1,$4,$5*
1,1,$1+$1,$6,$7*
1,1,$1+$1,$8,$9*
0 Add four rect primitives between the rounded corners*
20,1,$1+$1,$2,$3,$4,$5,0*
20,1,$1+$1,$4,$5,$6,$7,0*
20,1,$1+$1,$6,$7,$8,$9,0*
20,1,$1+$1,$8,$9,$2,$3,0*%
G04 Aperture macros list end*
%ADD10C,0.010000*%
%ADD11RoundRect,0.150000X-0.150000X0.587500X-0.150000X-0.587500X0.150000X-0.587500X0.150000X0.587500X0*%
%ADD12RoundRect,0.250000X1.000000X-1.500000X1.000000X1.500000X-1.000000X1.500000X-1.000000X-1.500000X0*%
%ADD13RoundRect,0.237500X-0.300000X-0.237500X0.300000X-0.237500X0.300000X0.237500X-0.300000X0.237500X0*%
%ADD14RoundRect,0.250000X0.412500X0.650000X-0.412500X0.650000X-0.412500X-0.650000X0.412500X-0.650000X0*%
%ADD15C,2.000000*%
%ADD16RoundRect,0.237500X-0.237500X0.250000X-0.237500X-0.250000X0.237500X-0.250000X0.237500X0.250000X0*%
%ADD17RoundRect,0.076750X-0.230250X0.810250X-0.230250X-0.810250X0.230250X-0.810250X0.230250X0.810250X0*%
%ADD18RoundRect,0.237500X-0.250000X-0.237500X0.250000X-0.237500X0.250000X0.237500X-0.250000X0.237500X0*%
%ADD19C,1.695000*%
%ADD20RoundRect,0.237500X0.250000X0.237500X-0.250000X0.237500X-0.250000X-0.237500X0.250000X-0.237500X0*%
%ADD21RoundRect,0.237500X-0.237500X0.300000X-0.237500X-0.300000X0.237500X-0.300000X0.237500X0.300000X0*%
%ADD22R,1.500000X1.500000*%
%ADD23C,1.500000*%
%ADD24RoundRect,0.375000X0.625000X0.375000X-0.625000X0.375000X-0.625000X-0.375000X0.625000X-0.375000X0*%
%ADD25RoundRect,0.500000X0.500000X1.400000X-0.500000X1.400000X-0.500000X-1.400000X0.500000X-1.400000X0*%
%ADD26RoundRect,0.250000X0.650000X-0.412500X0.650000X0.412500X-0.650000X0.412500X-0.650000X-0.412500X0*%
%ADD27RoundRect,0.237500X0.237500X-0.300000X0.237500X0.300000X-0.237500X0.300000X-0.237500X-0.300000X0*%
%ADD28R,2.400000X3.100000*%
%ADD29RoundRect,0.070000X-1.100000X-0.250000X1.100000X-0.250000X1.100000X0.250000X-1.100000X0.250000X0*%
%ADD30C,0.770000*%
%ADD31RoundRect,0.102000X0.754000X-0.754000X0.754000X0.754000X-0.754000X0.754000X-0.754000X-0.754000X0*%
%ADD32C,1.712000*%
%ADD33C,1.300000*%
%ADD34C,1.000000*%
%ADD35RoundRect,0.102000X-1.300000X1.800000X-1.300000X-1.800000X1.300000X-1.800000X1.300000X1.800000X0*%
%ADD36RoundRect,0.250000X-0.300000X-0.300000X0.300000X-0.300000X0.300000X0.300000X-0.300000X0.300000X0*%
%ADD37RoundRect,0.250000X-0.475000X0.337500X-0.475000X-0.337500X0.475000X-0.337500X0.475000X0.337500X0*%
%ADD38RoundRect,0.237500X0.300000X0.237500X-0.300000X0.237500X-0.300000X-0.237500X0.300000X-0.237500X0*%
%ADD39RoundRect,0.237500X0.237500X-0.287500X0.237500X0.287500X-0.237500X0.287500X-0.237500X-0.287500X0*%
%ADD40RoundRect,0.155000X-0.155000X0.212500X-0.155000X-0.212500X0.155000X-0.212500X0.155000X0.212500X0*%
%ADD41C,0.740000*%
%ADD42RoundRect,0.237500X0.237500X-0.250000X0.237500X0.250000X-0.237500X0.250000X-0.237500X-0.250000X0*%
%ADD43RoundRect,0.250000X0.475000X-0.337500X0.475000X0.337500X-0.475000X0.337500X-0.475000X-0.337500X0*%
%ADD44RoundRect,0.087500X0.537500X0.087500X-0.537500X0.087500X-0.537500X-0.087500X0.537500X-0.087500X0*%
%ADD45C,3.200000*%
%ADD46RoundRect,0.250000X-0.400000X-0.625000X0.400000X-0.625000X0.400000X0.625000X-0.400000X0.625000X0*%
%ADD47RoundRect,0.150000X-0.512500X-0.150000X0.512500X-0.150000X0.512500X0.150000X-0.512500X0.150000X0*%
%ADD48RoundRect,0.150000X-0.825000X-0.150000X0.825000X-0.150000X0.825000X0.150000X-0.825000X0.150000X0*%
%ADD49RoundRect,0.375000X-0.625000X-0.375000X0.625000X-0.375000X0.625000X0.375000X-0.625000X0.375000X0*%
%ADD50RoundRect,0.500000X-0.500000X-1.400000X0.500000X-1.400000X0.500000X1.400000X-0.500000X1.400000X0*%
%ADD51RoundRect,0.102000X-0.850000X0.300000X-0.850000X-0.300000X0.850000X-0.300000X0.850000X0.300000X0*%
%ADD52RoundRect,0.102000X-1.400000X1.250000X-1.400000X-1.250000X1.400000X-1.250000X1.400000X1.250000X0*%
%ADD53R,1.550000X1.000000*%
%ADD54C,1.854000*%
%ADD55RoundRect,0.102000X-0.750000X-0.450000X0.750000X-0.450000X0.750000X0.450000X-0.750000X0.450000X0*%
%ADD56RoundRect,0.102000X-0.450000X-0.750000X0.450000X-0.750000X0.450000X0.750000X-0.450000X0.750000X0*%
%ADD57RoundRect,0.102000X-0.450000X-0.450000X0.450000X-0.450000X0.450000X0.450000X-0.450000X0.450000X0*%
%ADD58O,1.512000X2.820000*%
%ADD59O,1.864000X3.524000*%
G04 APERTURE END LIST*
D10*
X169598000Y-92585000D02*
X169604000Y-92585000D01*
X169609000Y-92586000D01*
X169614000Y-92587000D01*
X169619000Y-92589000D01*
X169624000Y-92591000D01*
X169629000Y-92593000D01*
X169633000Y-92595000D01*
X169638000Y-92597000D01*
X169642000Y-92600000D01*
X169647000Y-92603000D01*
X169651000Y-92606000D01*
X169655000Y-92610000D01*
X169659000Y-92613000D01*
X169662000Y-92617000D01*
X169666000Y-92621000D01*
X169669000Y-92625000D01*
X169672000Y-92630000D01*
X169675000Y-92634000D01*
X169677000Y-92639000D01*
X169679000Y-92643000D01*
X169681000Y-92648000D01*
X169683000Y-92653000D01*
X169685000Y-92658000D01*
X169686000Y-92663000D01*
X169687000Y-92668000D01*
X169687000Y-92674000D01*
X169688000Y-92679000D01*
X169688000Y-92684000D01*
X169688000Y-92834000D01*
X169688000Y-92839000D01*
X169687000Y-92844000D01*
X169687000Y-92850000D01*
X169686000Y-92855000D01*
X169685000Y-92860000D01*
X169683000Y-92865000D01*
X169681000Y-92870000D01*
X169679000Y-92875000D01*
X169677000Y-92879000D01*
X169675000Y-92884000D01*
X169672000Y-92888000D01*
X169669000Y-92893000D01*
X169666000Y-92897000D01*
X169662000Y-92901000D01*
X169659000Y-92905000D01*
X169655000Y-92908000D01*
X169651000Y-92912000D01*
X169647000Y-92915000D01*
X169642000Y-92918000D01*
X169638000Y-92921000D01*
X169633000Y-92923000D01*
X169629000Y-92925000D01*
X169624000Y-92927000D01*
X169619000Y-92929000D01*
X169614000Y-92931000D01*
X169609000Y-92932000D01*
X169604000Y-92933000D01*
X169598000Y-92933000D01*
X169593000Y-92934000D01*
X169588000Y-92934000D01*
X168888000Y-92934000D01*
X168883000Y-92934000D01*
X168878000Y-92933000D01*
X168872000Y-92933000D01*
X168867000Y-92932000D01*
X168862000Y-92931000D01*
X168857000Y-92929000D01*
X168852000Y-92927000D01*
X168847000Y-92925000D01*
X168843000Y-92923000D01*
X168838000Y-92921000D01*
X168834000Y-92918000D01*
X168829000Y-92915000D01*
X168825000Y-92912000D01*
X168821000Y-92908000D01*
X168817000Y-92905000D01*
X168814000Y-92901000D01*
X168810000Y-92897000D01*
X168807000Y-92893000D01*
X168804000Y-92888000D01*
X168801000Y-92884000D01*
X168799000Y-92879000D01*
X168797000Y-92875000D01*
X168795000Y-92870000D01*
X168793000Y-92865000D01*
X168791000Y-92860000D01*
X168790000Y-92855000D01*
X168789000Y-92850000D01*
X168789000Y-92844000D01*
X168788000Y-92839000D01*
X168788000Y-92834000D01*
X168788000Y-92684000D01*
X168788000Y-92679000D01*
X168789000Y-92674000D01*
X168789000Y-92668000D01*
X168790000Y-92663000D01*
X168791000Y-92658000D01*
X168793000Y-92653000D01*
X168795000Y-92648000D01*
X168797000Y-92643000D01*
X168799000Y-92639000D01*
X168801000Y-92634000D01*
X168804000Y-92630000D01*
X168807000Y-92625000D01*
X168810000Y-92621000D01*
X168814000Y-92617000D01*
X168817000Y-92613000D01*
X168821000Y-92610000D01*
X168825000Y-92606000D01*
X168829000Y-92603000D01*
X168834000Y-92600000D01*
X168838000Y-92597000D01*
X168843000Y-92595000D01*
X168847000Y-92593000D01*
X168852000Y-92591000D01*
X168857000Y-92589000D01*
X168862000Y-92587000D01*
X168867000Y-92586000D01*
X168872000Y-92585000D01*
X168878000Y-92585000D01*
X168883000Y-92584000D01*
X168888000Y-92584000D01*
X169588000Y-92584000D01*
X169593000Y-92584000D01*
X169598000Y-92585000D01*
G36*
X169598000Y-92585000D02*
G01*
X169604000Y-92585000D01*
X169609000Y-92586000D01*
X169614000Y-92587000D01*
X169619000Y-92589000D01*
X169624000Y-92591000D01*
X169629000Y-92593000D01*
X169633000Y-92595000D01*
X169638000Y-92597000D01*
X169642000Y-92600000D01*
X169647000Y-92603000D01*
X169651000Y-92606000D01*
X169655000Y-92610000D01*
X169659000Y-92613000D01*
X169662000Y-92617000D01*
X169666000Y-92621000D01*
X169669000Y-92625000D01*
X169672000Y-92630000D01*
X169675000Y-92634000D01*
X169677000Y-92639000D01*
X169679000Y-92643000D01*
X169681000Y-92648000D01*
X169683000Y-92653000D01*
X169685000Y-92658000D01*
X169686000Y-92663000D01*
X169687000Y-92668000D01*
X169687000Y-92674000D01*
X169688000Y-92679000D01*
X169688000Y-92684000D01*
X169688000Y-92834000D01*
X169688000Y-92839000D01*
X169687000Y-92844000D01*
X169687000Y-92850000D01*
X169686000Y-92855000D01*
X169685000Y-92860000D01*
X169683000Y-92865000D01*
X169681000Y-92870000D01*
X169679000Y-92875000D01*
X169677000Y-92879000D01*
X169675000Y-92884000D01*
X169672000Y-92888000D01*
X169669000Y-92893000D01*
X169666000Y-92897000D01*
X169662000Y-92901000D01*
X169659000Y-92905000D01*
X169655000Y-92908000D01*
X169651000Y-92912000D01*
X169647000Y-92915000D01*
X169642000Y-92918000D01*
X169638000Y-92921000D01*
X169633000Y-92923000D01*
X169629000Y-92925000D01*
X169624000Y-92927000D01*
X169619000Y-92929000D01*
X169614000Y-92931000D01*
X169609000Y-92932000D01*
X169604000Y-92933000D01*
X169598000Y-92933000D01*
X169593000Y-92934000D01*
X169588000Y-92934000D01*
X168888000Y-92934000D01*
X168883000Y-92934000D01*
X168878000Y-92933000D01*
X168872000Y-92933000D01*
X168867000Y-92932000D01*
X168862000Y-92931000D01*
X168857000Y-92929000D01*
X168852000Y-92927000D01*
X168847000Y-92925000D01*
X168843000Y-92923000D01*
X168838000Y-92921000D01*
X168834000Y-92918000D01*
X168829000Y-92915000D01*
X168825000Y-92912000D01*
X168821000Y-92908000D01*
X168817000Y-92905000D01*
X168814000Y-92901000D01*
X168810000Y-92897000D01*
X168807000Y-92893000D01*
X168804000Y-92888000D01*
X168801000Y-92884000D01*
X168799000Y-92879000D01*
X168797000Y-92875000D01*
X168795000Y-92870000D01*
X168793000Y-92865000D01*
X168791000Y-92860000D01*
X168790000Y-92855000D01*
X168789000Y-92850000D01*
X168789000Y-92844000D01*
X168788000Y-92839000D01*
X168788000Y-92834000D01*
X168788000Y-92684000D01*
X168788000Y-92679000D01*
X168789000Y-92674000D01*
X168789000Y-92668000D01*
X168790000Y-92663000D01*
X168791000Y-92658000D01*
X168793000Y-92653000D01*
X168795000Y-92648000D01*
X168797000Y-92643000D01*
X168799000Y-92639000D01*
X168801000Y-92634000D01*
X168804000Y-92630000D01*
X168807000Y-92625000D01*
X168810000Y-92621000D01*
X168814000Y-92617000D01*
X168817000Y-92613000D01*
X168821000Y-92610000D01*
X168825000Y-92606000D01*
X168829000Y-92603000D01*
X168834000Y-92600000D01*
X168838000Y-92597000D01*
X168843000Y-92595000D01*
X168847000Y-92593000D01*
X168852000Y-92591000D01*
X168857000Y-92589000D01*
X168862000Y-92587000D01*
X168867000Y-92586000D01*
X168872000Y-92585000D01*
X168878000Y-92585000D01*
X168883000Y-92584000D01*
X168888000Y-92584000D01*
X169588000Y-92584000D01*
X169593000Y-92584000D01*
X169598000Y-92585000D01*
G37*
X169598000Y-93085000D02*
X169604000Y-93085000D01*
X169609000Y-93086000D01*
X169614000Y-93087000D01*
X169619000Y-93089000D01*
X169624000Y-93091000D01*
X169629000Y-93093000D01*
X169633000Y-93095000D01*
X169638000Y-93097000D01*
X169642000Y-93100000D01*
X169647000Y-93103000D01*
X169651000Y-93106000D01*
X169655000Y-93110000D01*
X169659000Y-93113000D01*
X169662000Y-93117000D01*
X169666000Y-93121000D01*
X169669000Y-93125000D01*
X169672000Y-93130000D01*
X169675000Y-93134000D01*
X169677000Y-93139000D01*
X169679000Y-93143000D01*
X169681000Y-93148000D01*
X169683000Y-93153000D01*
X169685000Y-93158000D01*
X169686000Y-93163000D01*
X169687000Y-93168000D01*
X169687000Y-93174000D01*
X169688000Y-93179000D01*
X169688000Y-93184000D01*
X169688000Y-93334000D01*
X169688000Y-93339000D01*
X169687000Y-93344000D01*
X169687000Y-93350000D01*
X169686000Y-93355000D01*
X169685000Y-93360000D01*
X169683000Y-93365000D01*
X169681000Y-93370000D01*
X169679000Y-93375000D01*
X169677000Y-93379000D01*
X169675000Y-93384000D01*
X169672000Y-93388000D01*
X169669000Y-93393000D01*
X169666000Y-93397000D01*
X169662000Y-93401000D01*
X169659000Y-93405000D01*
X169655000Y-93408000D01*
X169651000Y-93412000D01*
X169647000Y-93415000D01*
X169642000Y-93418000D01*
X169638000Y-93421000D01*
X169633000Y-93423000D01*
X169629000Y-93425000D01*
X169624000Y-93427000D01*
X169619000Y-93429000D01*
X169614000Y-93431000D01*
X169609000Y-93432000D01*
X169604000Y-93433000D01*
X169598000Y-93433000D01*
X169593000Y-93434000D01*
X169588000Y-93434000D01*
X168888000Y-93434000D01*
X168883000Y-93434000D01*
X168878000Y-93433000D01*
X168872000Y-93433000D01*
X168867000Y-93432000D01*
X168862000Y-93431000D01*
X168857000Y-93429000D01*
X168852000Y-93427000D01*
X168847000Y-93425000D01*
X168843000Y-93423000D01*
X168838000Y-93421000D01*
X168834000Y-93418000D01*
X168829000Y-93415000D01*
X168825000Y-93412000D01*
X168821000Y-93408000D01*
X168817000Y-93405000D01*
X168814000Y-93401000D01*
X168810000Y-93397000D01*
X168807000Y-93393000D01*
X168804000Y-93388000D01*
X168801000Y-93384000D01*
X168799000Y-93379000D01*
X168797000Y-93375000D01*
X168795000Y-93370000D01*
X168793000Y-93365000D01*
X168791000Y-93360000D01*
X168790000Y-93355000D01*
X168789000Y-93350000D01*
X168789000Y-93344000D01*
X168788000Y-93339000D01*
X168788000Y-93334000D01*
X168788000Y-93184000D01*
X168788000Y-93179000D01*
X168789000Y-93174000D01*
X168789000Y-93168000D01*
X168790000Y-93163000D01*
X168791000Y-93158000D01*
X168793000Y-93153000D01*
X168795000Y-93148000D01*
X168797000Y-93143000D01*
X168799000Y-93139000D01*
X168801000Y-93134000D01*
X168804000Y-93130000D01*
X168807000Y-93125000D01*
X168810000Y-93121000D01*
X168814000Y-93117000D01*
X168817000Y-93113000D01*
X168821000Y-93110000D01*
X168825000Y-93106000D01*
X168829000Y-93103000D01*
X168834000Y-93100000D01*
X168838000Y-93097000D01*
X168843000Y-93095000D01*
X168847000Y-93093000D01*
X168852000Y-93091000D01*
X168857000Y-93089000D01*
X168862000Y-93087000D01*
X168867000Y-93086000D01*
X168872000Y-93085000D01*
X168878000Y-93085000D01*
X168883000Y-93084000D01*
X168888000Y-93084000D01*
X169588000Y-93084000D01*
X169593000Y-93084000D01*
X169598000Y-93085000D01*
G36*
X169598000Y-93085000D02*
G01*
X169604000Y-93085000D01*
X169609000Y-93086000D01*
X169614000Y-93087000D01*
X169619000Y-93089000D01*
X169624000Y-93091000D01*
X169629000Y-93093000D01*
X169633000Y-93095000D01*
X169638000Y-93097000D01*
X169642000Y-93100000D01*
X169647000Y-93103000D01*
X169651000Y-93106000D01*
X169655000Y-93110000D01*
X169659000Y-93113000D01*
X169662000Y-93117000D01*
X169666000Y-93121000D01*
X169669000Y-93125000D01*
X169672000Y-93130000D01*
X169675000Y-93134000D01*
X169677000Y-93139000D01*
X169679000Y-93143000D01*
X169681000Y-93148000D01*
X169683000Y-93153000D01*
X169685000Y-93158000D01*
X169686000Y-93163000D01*
X169687000Y-93168000D01*
X169687000Y-93174000D01*
X169688000Y-93179000D01*
X169688000Y-93184000D01*
X169688000Y-93334000D01*
X169688000Y-93339000D01*
X169687000Y-93344000D01*
X169687000Y-93350000D01*
X169686000Y-93355000D01*
X169685000Y-93360000D01*
X169683000Y-93365000D01*
X169681000Y-93370000D01*
X169679000Y-93375000D01*
X169677000Y-93379000D01*
X169675000Y-93384000D01*
X169672000Y-93388000D01*
X169669000Y-93393000D01*
X169666000Y-93397000D01*
X169662000Y-93401000D01*
X169659000Y-93405000D01*
X169655000Y-93408000D01*
X169651000Y-93412000D01*
X169647000Y-93415000D01*
X169642000Y-93418000D01*
X169638000Y-93421000D01*
X169633000Y-93423000D01*
X169629000Y-93425000D01*
X169624000Y-93427000D01*
X169619000Y-93429000D01*
X169614000Y-93431000D01*
X169609000Y-93432000D01*
X169604000Y-93433000D01*
X169598000Y-93433000D01*
X169593000Y-93434000D01*
X169588000Y-93434000D01*
X168888000Y-93434000D01*
X168883000Y-93434000D01*
X168878000Y-93433000D01*
X168872000Y-93433000D01*
X168867000Y-93432000D01*
X168862000Y-93431000D01*
X168857000Y-93429000D01*
X168852000Y-93427000D01*
X168847000Y-93425000D01*
X168843000Y-93423000D01*
X168838000Y-93421000D01*
X168834000Y-93418000D01*
X168829000Y-93415000D01*
X168825000Y-93412000D01*
X168821000Y-93408000D01*
X168817000Y-93405000D01*
X168814000Y-93401000D01*
X168810000Y-93397000D01*
X168807000Y-93393000D01*
X168804000Y-93388000D01*
X168801000Y-93384000D01*
X168799000Y-93379000D01*
X168797000Y-93375000D01*
X168795000Y-93370000D01*
X168793000Y-93365000D01*
X168791000Y-93360000D01*
X168790000Y-93355000D01*
X168789000Y-93350000D01*
X168789000Y-93344000D01*
X168788000Y-93339000D01*
X168788000Y-93334000D01*
X168788000Y-93184000D01*
X168788000Y-93179000D01*
X168789000Y-93174000D01*
X168789000Y-93168000D01*
X168790000Y-93163000D01*
X168791000Y-93158000D01*
X168793000Y-93153000D01*
X168795000Y-93148000D01*
X168797000Y-93143000D01*
X168799000Y-93139000D01*
X168801000Y-93134000D01*
X168804000Y-93130000D01*
X168807000Y-93125000D01*
X168810000Y-93121000D01*
X168814000Y-93117000D01*
X168817000Y-93113000D01*
X168821000Y-93110000D01*
X168825000Y-93106000D01*
X168829000Y-93103000D01*
X168834000Y-93100000D01*
X168838000Y-93097000D01*
X168843000Y-93095000D01*
X168847000Y-93093000D01*
X168852000Y-93091000D01*
X168857000Y-93089000D01*
X168862000Y-93087000D01*
X168867000Y-93086000D01*
X168872000Y-93085000D01*
X168878000Y-93085000D01*
X168883000Y-93084000D01*
X168888000Y-93084000D01*
X169588000Y-93084000D01*
X169593000Y-93084000D01*
X169598000Y-93085000D01*
G37*
X170573000Y-91735000D02*
X170579000Y-91735000D01*
X170584000Y-91736000D01*
X170589000Y-91737000D01*
X170594000Y-91739000D01*
X170599000Y-91741000D01*
X170604000Y-91743000D01*
X170608000Y-91745000D01*
X170613000Y-91747000D01*
X170617000Y-91750000D01*
X170622000Y-91753000D01*
X170626000Y-91756000D01*
X170630000Y-91760000D01*
X170634000Y-91763000D01*
X170637000Y-91767000D01*
X170641000Y-91771000D01*
X170644000Y-91775000D01*
X170647000Y-91780000D01*
X170650000Y-91784000D01*
X170652000Y-91789000D01*
X170654000Y-91793000D01*
X170656000Y-91798000D01*
X170658000Y-91803000D01*
X170660000Y-91808000D01*
X170661000Y-91813000D01*
X170662000Y-91818000D01*
X170662000Y-91824000D01*
X170663000Y-91829000D01*
X170663000Y-91834000D01*
X170663000Y-92284000D01*
X170663000Y-92289000D01*
X170662000Y-92294000D01*
X170662000Y-92300000D01*
X170661000Y-92305000D01*
X170660000Y-92310000D01*
X170658000Y-92315000D01*
X170656000Y-92320000D01*
X170654000Y-92325000D01*
X170652000Y-92329000D01*
X170650000Y-92334000D01*
X170647000Y-92338000D01*
X170644000Y-92343000D01*
X170641000Y-92347000D01*
X170637000Y-92351000D01*
X170634000Y-92355000D01*
X170630000Y-92358000D01*
X170626000Y-92362000D01*
X170622000Y-92365000D01*
X170617000Y-92368000D01*
X170613000Y-92371000D01*
X170608000Y-92373000D01*
X170604000Y-92375000D01*
X170599000Y-92377000D01*
X170594000Y-92379000D01*
X170589000Y-92381000D01*
X170584000Y-92382000D01*
X170579000Y-92383000D01*
X170573000Y-92383000D01*
X170568000Y-92384000D01*
X170563000Y-92384000D01*
X170363000Y-92384000D01*
X170358000Y-92384000D01*
X170353000Y-92383000D01*
X170347000Y-92383000D01*
X170342000Y-92382000D01*
X170337000Y-92381000D01*
X170332000Y-92379000D01*
X170327000Y-92377000D01*
X170322000Y-92375000D01*
X170318000Y-92373000D01*
X170313000Y-92371000D01*
X170309000Y-92368000D01*
X170304000Y-92365000D01*
X170300000Y-92362000D01*
X170296000Y-92358000D01*
X170292000Y-92355000D01*
X170289000Y-92351000D01*
X170285000Y-92347000D01*
X170282000Y-92343000D01*
X170279000Y-92338000D01*
X170276000Y-92334000D01*
X170274000Y-92329000D01*
X170272000Y-92325000D01*
X170270000Y-92320000D01*
X170268000Y-92315000D01*
X170266000Y-92310000D01*
X170265000Y-92305000D01*
X170264000Y-92300000D01*
X170264000Y-92294000D01*
X170263000Y-92289000D01*
X170263000Y-92284000D01*
X170263000Y-91834000D01*
X170263000Y-91829000D01*
X170264000Y-91824000D01*
X170264000Y-91818000D01*
X170265000Y-91813000D01*
X170266000Y-91808000D01*
X170268000Y-91803000D01*
X170270000Y-91798000D01*
X170272000Y-91793000D01*
X170274000Y-91789000D01*
X170276000Y-91784000D01*
X170279000Y-91780000D01*
X170282000Y-91775000D01*
X170285000Y-91771000D01*
X170289000Y-91767000D01*
X170292000Y-91763000D01*
X170296000Y-91760000D01*
X170300000Y-91756000D01*
X170304000Y-91753000D01*
X170309000Y-91750000D01*
X170313000Y-91747000D01*
X170318000Y-91745000D01*
X170322000Y-91743000D01*
X170327000Y-91741000D01*
X170332000Y-91739000D01*
X170337000Y-91737000D01*
X170342000Y-91736000D01*
X170347000Y-91735000D01*
X170353000Y-91735000D01*
X170358000Y-91734000D01*
X170363000Y-91734000D01*
X170563000Y-91734000D01*
X170568000Y-91734000D01*
X170573000Y-91735000D01*
G36*
X170573000Y-91735000D02*
G01*
X170579000Y-91735000D01*
X170584000Y-91736000D01*
X170589000Y-91737000D01*
X170594000Y-91739000D01*
X170599000Y-91741000D01*
X170604000Y-91743000D01*
X170608000Y-91745000D01*
X170613000Y-91747000D01*
X170617000Y-91750000D01*
X170622000Y-91753000D01*
X170626000Y-91756000D01*
X170630000Y-91760000D01*
X170634000Y-91763000D01*
X170637000Y-91767000D01*
X170641000Y-91771000D01*
X170644000Y-91775000D01*
X170647000Y-91780000D01*
X170650000Y-91784000D01*
X170652000Y-91789000D01*
X170654000Y-91793000D01*
X170656000Y-91798000D01*
X170658000Y-91803000D01*
X170660000Y-91808000D01*
X170661000Y-91813000D01*
X170662000Y-91818000D01*
X170662000Y-91824000D01*
X170663000Y-91829000D01*
X170663000Y-91834000D01*
X170663000Y-92284000D01*
X170663000Y-92289000D01*
X170662000Y-92294000D01*
X170662000Y-92300000D01*
X170661000Y-92305000D01*
X170660000Y-92310000D01*
X170658000Y-92315000D01*
X170656000Y-92320000D01*
X170654000Y-92325000D01*
X170652000Y-92329000D01*
X170650000Y-92334000D01*
X170647000Y-92338000D01*
X170644000Y-92343000D01*
X170641000Y-92347000D01*
X170637000Y-92351000D01*
X170634000Y-92355000D01*
X170630000Y-92358000D01*
X170626000Y-92362000D01*
X170622000Y-92365000D01*
X170617000Y-92368000D01*
X170613000Y-92371000D01*
X170608000Y-92373000D01*
X170604000Y-92375000D01*
X170599000Y-92377000D01*
X170594000Y-92379000D01*
X170589000Y-92381000D01*
X170584000Y-92382000D01*
X170579000Y-92383000D01*
X170573000Y-92383000D01*
X170568000Y-92384000D01*
X170563000Y-92384000D01*
X170363000Y-92384000D01*
X170358000Y-92384000D01*
X170353000Y-92383000D01*
X170347000Y-92383000D01*
X170342000Y-92382000D01*
X170337000Y-92381000D01*
X170332000Y-92379000D01*
X170327000Y-92377000D01*
X170322000Y-92375000D01*
X170318000Y-92373000D01*
X170313000Y-92371000D01*
X170309000Y-92368000D01*
X170304000Y-92365000D01*
X170300000Y-92362000D01*
X170296000Y-92358000D01*
X170292000Y-92355000D01*
X170289000Y-92351000D01*
X170285000Y-92347000D01*
X170282000Y-92343000D01*
X170279000Y-92338000D01*
X170276000Y-92334000D01*
X170274000Y-92329000D01*
X170272000Y-92325000D01*
X170270000Y-92320000D01*
X170268000Y-92315000D01*
X170266000Y-92310000D01*
X170265000Y-92305000D01*
X170264000Y-92300000D01*
X170264000Y-92294000D01*
X170263000Y-92289000D01*
X170263000Y-92284000D01*
X170263000Y-91834000D01*
X170263000Y-91829000D01*
X170264000Y-91824000D01*
X170264000Y-91818000D01*
X170265000Y-91813000D01*
X170266000Y-91808000D01*
X170268000Y-91803000D01*
X170270000Y-91798000D01*
X170272000Y-91793000D01*
X170274000Y-91789000D01*
X170276000Y-91784000D01*
X170279000Y-91780000D01*
X170282000Y-91775000D01*
X170285000Y-91771000D01*
X170289000Y-91767000D01*
X170292000Y-91763000D01*
X170296000Y-91760000D01*
X170300000Y-91756000D01*
X170304000Y-91753000D01*
X170309000Y-91750000D01*
X170313000Y-91747000D01*
X170318000Y-91745000D01*
X170322000Y-91743000D01*
X170327000Y-91741000D01*
X170332000Y-91739000D01*
X170337000Y-91737000D01*
X170342000Y-91736000D01*
X170347000Y-91735000D01*
X170353000Y-91735000D01*
X170358000Y-91734000D01*
X170363000Y-91734000D01*
X170563000Y-91734000D01*
X170568000Y-91734000D01*
X170573000Y-91735000D01*
G37*
X170023000Y-91735000D02*
X170029000Y-91735000D01*
X170034000Y-91736000D01*
X170039000Y-91737000D01*
X170044000Y-91739000D01*
X170049000Y-91741000D01*
X170054000Y-91743000D01*
X170058000Y-91745000D01*
X170063000Y-91747000D01*
X170067000Y-91750000D01*
X170072000Y-91753000D01*
X170076000Y-91756000D01*
X170080000Y-91760000D01*
X170084000Y-91763000D01*
X170087000Y-91767000D01*
X170091000Y-91771000D01*
X170094000Y-91775000D01*
X170097000Y-91780000D01*
X170100000Y-91784000D01*
X170102000Y-91789000D01*
X170104000Y-91793000D01*
X170106000Y-91798000D01*
X170108000Y-91803000D01*
X170110000Y-91808000D01*
X170111000Y-91813000D01*
X170112000Y-91818000D01*
X170112000Y-91824000D01*
X170113000Y-91829000D01*
X170113000Y-91834000D01*
X170113000Y-92334000D01*
X170113000Y-92339000D01*
X170112000Y-92344000D01*
X170112000Y-92350000D01*
X170111000Y-92355000D01*
X170110000Y-92360000D01*
X170108000Y-92365000D01*
X170106000Y-92370000D01*
X170104000Y-92375000D01*
X170102000Y-92379000D01*
X170100000Y-92384000D01*
X170097000Y-92388000D01*
X170094000Y-92393000D01*
X170091000Y-92397000D01*
X170087000Y-92401000D01*
X170084000Y-92405000D01*
X170080000Y-92408000D01*
X170076000Y-92412000D01*
X170072000Y-92415000D01*
X170067000Y-92418000D01*
X170063000Y-92421000D01*
X170058000Y-92423000D01*
X170054000Y-92425000D01*
X170049000Y-92427000D01*
X170044000Y-92429000D01*
X170039000Y-92431000D01*
X170034000Y-92432000D01*
X170029000Y-92433000D01*
X170023000Y-92433000D01*
X170018000Y-92434000D01*
X170013000Y-92434000D01*
X168888000Y-92434000D01*
X168883000Y-92434000D01*
X168878000Y-92433000D01*
X168872000Y-92433000D01*
X168867000Y-92432000D01*
X168862000Y-92431000D01*
X168857000Y-92429000D01*
X168852000Y-92427000D01*
X168847000Y-92425000D01*
X168843000Y-92423000D01*
X168838000Y-92421000D01*
X168834000Y-92418000D01*
X168829000Y-92415000D01*
X168825000Y-92412000D01*
X168821000Y-92408000D01*
X168817000Y-92405000D01*
X168814000Y-92401000D01*
X168810000Y-92397000D01*
X168807000Y-92393000D01*
X168804000Y-92388000D01*
X168801000Y-92384000D01*
X168799000Y-92379000D01*
X168797000Y-92375000D01*
X168795000Y-92370000D01*
X168793000Y-92365000D01*
X168791000Y-92360000D01*
X168790000Y-92355000D01*
X168789000Y-92350000D01*
X168789000Y-92344000D01*
X168788000Y-92339000D01*
X168788000Y-92334000D01*
X168788000Y-92184000D01*
X168788000Y-92179000D01*
X168789000Y-92174000D01*
X168789000Y-92168000D01*
X168790000Y-92163000D01*
X168791000Y-92158000D01*
X168793000Y-92153000D01*
X168795000Y-92148000D01*
X168797000Y-92143000D01*
X168799000Y-92139000D01*
X168801000Y-92134000D01*
X168804000Y-92130000D01*
X168807000Y-92125000D01*
X168810000Y-92121000D01*
X168814000Y-92117000D01*
X168817000Y-92113000D01*
X168821000Y-92110000D01*
X168825000Y-92106000D01*
X168829000Y-92103000D01*
X168834000Y-92100000D01*
X168838000Y-92097000D01*
X168843000Y-92095000D01*
X168847000Y-92093000D01*
X168852000Y-92091000D01*
X168857000Y-92089000D01*
X168862000Y-92087000D01*
X168867000Y-92086000D01*
X168872000Y-92085000D01*
X168878000Y-92085000D01*
X168883000Y-92084000D01*
X168888000Y-92084000D01*
X169613000Y-92084000D01*
X169616000Y-92084000D01*
X169618000Y-92084000D01*
X169621000Y-92083000D01*
X169623000Y-92083000D01*
X169626000Y-92082000D01*
X169628000Y-92082000D01*
X169631000Y-92081000D01*
X169633000Y-92080000D01*
X169636000Y-92079000D01*
X169638000Y-92077000D01*
X169640000Y-92076000D01*
X169642000Y-92074000D01*
X169644000Y-92073000D01*
X169646000Y-92071000D01*
X169648000Y-92069000D01*
X169650000Y-92067000D01*
X169652000Y-92065000D01*
X169653000Y-92063000D01*
X169655000Y-92061000D01*
X169656000Y-92059000D01*
X169658000Y-92057000D01*
X169659000Y-92054000D01*
X169660000Y-92052000D01*
X169661000Y-92049000D01*
X169661000Y-92047000D01*
X169662000Y-92044000D01*
X169662000Y-92042000D01*
X169663000Y-92039000D01*
X169663000Y-92037000D01*
X169663000Y-92034000D01*
X169663000Y-91834000D01*
X169663000Y-91829000D01*
X169664000Y-91824000D01*
X169664000Y-91818000D01*
X169665000Y-91813000D01*
X169666000Y-91808000D01*
X169668000Y-91803000D01*
X169670000Y-91798000D01*
X169672000Y-91793000D01*
X169674000Y-91789000D01*
X169676000Y-91784000D01*
X169679000Y-91780000D01*
X169682000Y-91775000D01*
X169685000Y-91771000D01*
X169689000Y-91767000D01*
X169692000Y-91763000D01*
X169696000Y-91760000D01*
X169700000Y-91756000D01*
X169704000Y-91753000D01*
X169709000Y-91750000D01*
X169713000Y-91747000D01*
X169718000Y-91745000D01*
X169722000Y-91743000D01*
X169727000Y-91741000D01*
X169732000Y-91739000D01*
X169737000Y-91737000D01*
X169742000Y-91736000D01*
X169747000Y-91735000D01*
X169753000Y-91735000D01*
X169758000Y-91734000D01*
X169763000Y-91734000D01*
X170013000Y-91734000D01*
X170018000Y-91734000D01*
X170023000Y-91735000D01*
G36*
X170023000Y-91735000D02*
G01*
X170029000Y-91735000D01*
X170034000Y-91736000D01*
X170039000Y-91737000D01*
X170044000Y-91739000D01*
X170049000Y-91741000D01*
X170054000Y-91743000D01*
X170058000Y-91745000D01*
X170063000Y-91747000D01*
X170067000Y-91750000D01*
X170072000Y-91753000D01*
X170076000Y-91756000D01*
X170080000Y-91760000D01*
X170084000Y-91763000D01*
X170087000Y-91767000D01*
X170091000Y-91771000D01*
X170094000Y-91775000D01*
X170097000Y-91780000D01*
X170100000Y-91784000D01*
X170102000Y-91789000D01*
X170104000Y-91793000D01*
X170106000Y-91798000D01*
X170108000Y-91803000D01*
X170110000Y-91808000D01*
X170111000Y-91813000D01*
X170112000Y-91818000D01*
X170112000Y-91824000D01*
X170113000Y-91829000D01*
X170113000Y-91834000D01*
X170113000Y-92334000D01*
X170113000Y-92339000D01*
X170112000Y-92344000D01*
X170112000Y-92350000D01*
X170111000Y-92355000D01*
X170110000Y-92360000D01*
X170108000Y-92365000D01*
X170106000Y-92370000D01*
X170104000Y-92375000D01*
X170102000Y-92379000D01*
X170100000Y-92384000D01*
X170097000Y-92388000D01*
X170094000Y-92393000D01*
X170091000Y-92397000D01*
X170087000Y-92401000D01*
X170084000Y-92405000D01*
X170080000Y-92408000D01*
X170076000Y-92412000D01*
X170072000Y-92415000D01*
X170067000Y-92418000D01*
X170063000Y-92421000D01*
X170058000Y-92423000D01*
X170054000Y-92425000D01*
X170049000Y-92427000D01*
X170044000Y-92429000D01*
X170039000Y-92431000D01*
X170034000Y-92432000D01*
X170029000Y-92433000D01*
X170023000Y-92433000D01*
X170018000Y-92434000D01*
X170013000Y-92434000D01*
X168888000Y-92434000D01*
X168883000Y-92434000D01*
X168878000Y-92433000D01*
X168872000Y-92433000D01*
X168867000Y-92432000D01*
X168862000Y-92431000D01*
X168857000Y-92429000D01*
X168852000Y-92427000D01*
X168847000Y-92425000D01*
X168843000Y-92423000D01*
X168838000Y-92421000D01*
X168834000Y-92418000D01*
X168829000Y-92415000D01*
X168825000Y-92412000D01*
X168821000Y-92408000D01*
X168817000Y-92405000D01*
X168814000Y-92401000D01*
X168810000Y-92397000D01*
X168807000Y-92393000D01*
X168804000Y-92388000D01*
X168801000Y-92384000D01*
X168799000Y-92379000D01*
X168797000Y-92375000D01*
X168795000Y-92370000D01*
X168793000Y-92365000D01*
X168791000Y-92360000D01*
X168790000Y-92355000D01*
X168789000Y-92350000D01*
X168789000Y-92344000D01*
X168788000Y-92339000D01*
X168788000Y-92334000D01*
X168788000Y-92184000D01*
X168788000Y-92179000D01*
X168789000Y-92174000D01*
X168789000Y-92168000D01*
X168790000Y-92163000D01*
X168791000Y-92158000D01*
X168793000Y-92153000D01*
X168795000Y-92148000D01*
X168797000Y-92143000D01*
X168799000Y-92139000D01*
X168801000Y-92134000D01*
X168804000Y-92130000D01*
X168807000Y-92125000D01*
X168810000Y-92121000D01*
X168814000Y-92117000D01*
X168817000Y-92113000D01*
X168821000Y-92110000D01*
X168825000Y-92106000D01*
X168829000Y-92103000D01*
X168834000Y-92100000D01*
X168838000Y-92097000D01*
X168843000Y-92095000D01*
X168847000Y-92093000D01*
X168852000Y-92091000D01*
X168857000Y-92089000D01*
X168862000Y-92087000D01*
X168867000Y-92086000D01*
X168872000Y-92085000D01*
X168878000Y-92085000D01*
X168883000Y-92084000D01*
X168888000Y-92084000D01*
X169613000Y-92084000D01*
X169616000Y-92084000D01*
X169618000Y-92084000D01*
X169621000Y-92083000D01*
X169623000Y-92083000D01*
X169626000Y-92082000D01*
X169628000Y-92082000D01*
X169631000Y-92081000D01*
X169633000Y-92080000D01*
X169636000Y-92079000D01*
X169638000Y-92077000D01*
X169640000Y-92076000D01*
X169642000Y-92074000D01*
X169644000Y-92073000D01*
X169646000Y-92071000D01*
X169648000Y-92069000D01*
X169650000Y-92067000D01*
X169652000Y-92065000D01*
X169653000Y-92063000D01*
X169655000Y-92061000D01*
X169656000Y-92059000D01*
X169658000Y-92057000D01*
X169659000Y-92054000D01*
X169660000Y-92052000D01*
X169661000Y-92049000D01*
X169661000Y-92047000D01*
X169662000Y-92044000D01*
X169662000Y-92042000D01*
X169663000Y-92039000D01*
X169663000Y-92037000D01*
X169663000Y-92034000D01*
X169663000Y-91834000D01*
X169663000Y-91829000D01*
X169664000Y-91824000D01*
X169664000Y-91818000D01*
X169665000Y-91813000D01*
X169666000Y-91808000D01*
X169668000Y-91803000D01*
X169670000Y-91798000D01*
X169672000Y-91793000D01*
X169674000Y-91789000D01*
X169676000Y-91784000D01*
X169679000Y-91780000D01*
X169682000Y-91775000D01*
X169685000Y-91771000D01*
X169689000Y-91767000D01*
X169692000Y-91763000D01*
X169696000Y-91760000D01*
X169700000Y-91756000D01*
X169704000Y-91753000D01*
X169709000Y-91750000D01*
X169713000Y-91747000D01*
X169718000Y-91745000D01*
X169722000Y-91743000D01*
X169727000Y-91741000D01*
X169732000Y-91739000D01*
X169737000Y-91737000D01*
X169742000Y-91736000D01*
X169747000Y-91735000D01*
X169753000Y-91735000D01*
X169758000Y-91734000D01*
X169763000Y-91734000D01*
X170013000Y-91734000D01*
X170018000Y-91734000D01*
X170023000Y-91735000D01*
G37*
X171623000Y-91735000D02*
X171629000Y-91735000D01*
X171634000Y-91736000D01*
X171639000Y-91737000D01*
X171644000Y-91739000D01*
X171649000Y-91741000D01*
X171654000Y-91743000D01*
X171658000Y-91745000D01*
X171663000Y-91747000D01*
X171667000Y-91750000D01*
X171672000Y-91753000D01*
X171676000Y-91756000D01*
X171680000Y-91760000D01*
X171684000Y-91763000D01*
X171687000Y-91767000D01*
X171691000Y-91771000D01*
X171694000Y-91775000D01*
X171697000Y-91780000D01*
X171700000Y-91784000D01*
X171702000Y-91789000D01*
X171704000Y-91793000D01*
X171706000Y-91798000D01*
X171708000Y-91803000D01*
X171710000Y-91808000D01*
X171711000Y-91813000D01*
X171712000Y-91818000D01*
X171712000Y-91824000D01*
X171713000Y-91829000D01*
X171713000Y-91834000D01*
X171713000Y-92034000D01*
X171713000Y-92037000D01*
X171713000Y-92039000D01*
X171714000Y-92042000D01*
X171714000Y-92044000D01*
X171715000Y-92047000D01*
X171715000Y-92049000D01*
X171716000Y-92052000D01*
X171717000Y-92054000D01*
X171718000Y-92057000D01*
X171720000Y-92059000D01*
X171721000Y-92061000D01*
X171723000Y-92063000D01*
X171724000Y-92065000D01*
X171726000Y-92067000D01*
X171728000Y-92069000D01*
X171730000Y-92071000D01*
X171732000Y-92073000D01*
X171734000Y-92074000D01*
X171736000Y-92076000D01*
X171738000Y-92077000D01*
X171740000Y-92079000D01*
X171743000Y-92080000D01*
X171745000Y-92081000D01*
X171748000Y-92082000D01*
X171750000Y-92082000D01*
X171753000Y-92083000D01*
X171755000Y-92083000D01*
X171758000Y-92084000D01*
X171760000Y-92084000D01*
X171763000Y-92084000D01*
X172488000Y-92084000D01*
X172493000Y-92084000D01*
X172498000Y-92085000D01*
X172504000Y-92085000D01*
X172509000Y-92086000D01*
X172514000Y-92087000D01*
X172519000Y-92089000D01*
X172524000Y-92091000D01*
X172529000Y-92093000D01*
X172533000Y-92095000D01*
X172538000Y-92097000D01*
X172542000Y-92100000D01*
X172547000Y-92103000D01*
X172551000Y-92106000D01*
X172555000Y-92110000D01*
X172559000Y-92113000D01*
X172562000Y-92117000D01*
X172566000Y-92121000D01*
X172569000Y-92125000D01*
X172572000Y-92130000D01*
X172575000Y-92134000D01*
X172577000Y-92139000D01*
X172579000Y-92143000D01*
X172581000Y-92148000D01*
X172583000Y-92153000D01*
X172585000Y-92158000D01*
X172586000Y-92163000D01*
X172587000Y-92168000D01*
X172587000Y-92174000D01*
X172588000Y-92179000D01*
X172588000Y-92184000D01*
X172588000Y-92334000D01*
X172588000Y-92339000D01*
X172587000Y-92344000D01*
X172587000Y-92350000D01*
X172586000Y-92355000D01*
X172585000Y-92360000D01*
X172583000Y-92365000D01*
X172581000Y-92370000D01*
X172579000Y-92375000D01*
X172577000Y-92379000D01*
X172575000Y-92384000D01*
X172572000Y-92388000D01*
X172569000Y-92393000D01*
X172566000Y-92397000D01*
X172562000Y-92401000D01*
X172559000Y-92405000D01*
X172555000Y-92408000D01*
X172551000Y-92412000D01*
X172547000Y-92415000D01*
X172542000Y-92418000D01*
X172538000Y-92421000D01*
X172533000Y-92423000D01*
X172529000Y-92425000D01*
X172524000Y-92427000D01*
X172519000Y-92429000D01*
X172514000Y-92431000D01*
X172509000Y-92432000D01*
X172504000Y-92433000D01*
X172498000Y-92433000D01*
X172493000Y-92434000D01*
X172488000Y-92434000D01*
X171363000Y-92434000D01*
X171358000Y-92434000D01*
X171353000Y-92433000D01*
X171347000Y-92433000D01*
X171342000Y-92432000D01*
X171337000Y-92431000D01*
X171332000Y-92429000D01*
X171327000Y-92427000D01*
X171322000Y-92425000D01*
X171318000Y-92423000D01*
X171313000Y-92421000D01*
X171309000Y-92418000D01*
X171304000Y-92415000D01*
X171300000Y-92412000D01*
X171296000Y-92408000D01*
X171292000Y-92405000D01*
X171289000Y-92401000D01*
X171285000Y-92397000D01*
X171282000Y-92393000D01*
X171279000Y-92388000D01*
X171276000Y-92384000D01*
X171274000Y-92379000D01*
X171272000Y-92375000D01*
X171270000Y-92370000D01*
X171268000Y-92365000D01*
X171266000Y-92360000D01*
X171265000Y-92355000D01*
X171264000Y-92350000D01*
X171264000Y-92344000D01*
X171263000Y-92339000D01*
X171263000Y-92334000D01*
X171263000Y-91834000D01*
X171263000Y-91829000D01*
X171264000Y-91824000D01*
X171264000Y-91818000D01*
X171265000Y-91813000D01*
X171266000Y-91808000D01*
X171268000Y-91803000D01*
X171270000Y-91798000D01*
X171272000Y-91793000D01*
X171274000Y-91789000D01*
X171276000Y-91784000D01*
X171279000Y-91780000D01*
X171282000Y-91775000D01*
X171285000Y-91771000D01*
X171289000Y-91767000D01*
X171292000Y-91763000D01*
X171296000Y-91760000D01*
X171300000Y-91756000D01*
X171304000Y-91753000D01*
X171309000Y-91750000D01*
X171313000Y-91747000D01*
X171318000Y-91745000D01*
X171322000Y-91743000D01*
X171327000Y-91741000D01*
X171332000Y-91739000D01*
X171337000Y-91737000D01*
X171342000Y-91736000D01*
X171347000Y-91735000D01*
X171353000Y-91735000D01*
X171358000Y-91734000D01*
X171363000Y-91734000D01*
X171613000Y-91734000D01*
X171618000Y-91734000D01*
X171623000Y-91735000D01*
G36*
X171623000Y-91735000D02*
G01*
X171629000Y-91735000D01*
X171634000Y-91736000D01*
X171639000Y-91737000D01*
X171644000Y-91739000D01*
X171649000Y-91741000D01*
X171654000Y-91743000D01*
X171658000Y-91745000D01*
X171663000Y-91747000D01*
X171667000Y-91750000D01*
X171672000Y-91753000D01*
X171676000Y-91756000D01*
X171680000Y-91760000D01*
X171684000Y-91763000D01*
X171687000Y-91767000D01*
X171691000Y-91771000D01*
X171694000Y-91775000D01*
X171697000Y-91780000D01*
X171700000Y-91784000D01*
X171702000Y-91789000D01*
X171704000Y-91793000D01*
X171706000Y-91798000D01*
X171708000Y-91803000D01*
X171710000Y-91808000D01*
X171711000Y-91813000D01*
X171712000Y-91818000D01*
X171712000Y-91824000D01*
X171713000Y-91829000D01*
X171713000Y-91834000D01*
X171713000Y-92034000D01*
X171713000Y-92037000D01*
X171713000Y-92039000D01*
X171714000Y-92042000D01*
X171714000Y-92044000D01*
X171715000Y-92047000D01*
X171715000Y-92049000D01*
X171716000Y-92052000D01*
X171717000Y-92054000D01*
X171718000Y-92057000D01*
X171720000Y-92059000D01*
X171721000Y-92061000D01*
X171723000Y-92063000D01*
X171724000Y-92065000D01*
X171726000Y-92067000D01*
X171728000Y-92069000D01*
X171730000Y-92071000D01*
X171732000Y-92073000D01*
X171734000Y-92074000D01*
X171736000Y-92076000D01*
X171738000Y-92077000D01*
X171740000Y-92079000D01*
X171743000Y-92080000D01*
X171745000Y-92081000D01*
X171748000Y-92082000D01*
X171750000Y-92082000D01*
X171753000Y-92083000D01*
X171755000Y-92083000D01*
X171758000Y-92084000D01*
X171760000Y-92084000D01*
X171763000Y-92084000D01*
X172488000Y-92084000D01*
X172493000Y-92084000D01*
X172498000Y-92085000D01*
X172504000Y-92085000D01*
X172509000Y-92086000D01*
X172514000Y-92087000D01*
X172519000Y-92089000D01*
X172524000Y-92091000D01*
X172529000Y-92093000D01*
X172533000Y-92095000D01*
X172538000Y-92097000D01*
X172542000Y-92100000D01*
X172547000Y-92103000D01*
X172551000Y-92106000D01*
X172555000Y-92110000D01*
X172559000Y-92113000D01*
X172562000Y-92117000D01*
X172566000Y-92121000D01*
X172569000Y-92125000D01*
X172572000Y-92130000D01*
X172575000Y-92134000D01*
X172577000Y-92139000D01*
X172579000Y-92143000D01*
X172581000Y-92148000D01*
X172583000Y-92153000D01*
X172585000Y-92158000D01*
X172586000Y-92163000D01*
X172587000Y-92168000D01*
X172587000Y-92174000D01*
X172588000Y-92179000D01*
X172588000Y-92184000D01*
X172588000Y-92334000D01*
X172588000Y-92339000D01*
X172587000Y-92344000D01*
X172587000Y-92350000D01*
X172586000Y-92355000D01*
X172585000Y-92360000D01*
X172583000Y-92365000D01*
X172581000Y-92370000D01*
X172579000Y-92375000D01*
X172577000Y-92379000D01*
X172575000Y-92384000D01*
X172572000Y-92388000D01*
X172569000Y-92393000D01*
X172566000Y-92397000D01*
X172562000Y-92401000D01*
X172559000Y-92405000D01*
X172555000Y-92408000D01*
X172551000Y-92412000D01*
X172547000Y-92415000D01*
X172542000Y-92418000D01*
X172538000Y-92421000D01*
X172533000Y-92423000D01*
X172529000Y-92425000D01*
X172524000Y-92427000D01*
X172519000Y-92429000D01*
X172514000Y-92431000D01*
X172509000Y-92432000D01*
X172504000Y-92433000D01*
X172498000Y-92433000D01*
X172493000Y-92434000D01*
X172488000Y-92434000D01*
X171363000Y-92434000D01*
X171358000Y-92434000D01*
X171353000Y-92433000D01*
X171347000Y-92433000D01*
X171342000Y-92432000D01*
X171337000Y-92431000D01*
X171332000Y-92429000D01*
X171327000Y-92427000D01*
X171322000Y-92425000D01*
X171318000Y-92423000D01*
X171313000Y-92421000D01*
X171309000Y-92418000D01*
X171304000Y-92415000D01*
X171300000Y-92412000D01*
X171296000Y-92408000D01*
X171292000Y-92405000D01*
X171289000Y-92401000D01*
X171285000Y-92397000D01*
X171282000Y-92393000D01*
X171279000Y-92388000D01*
X171276000Y-92384000D01*
X171274000Y-92379000D01*
X171272000Y-92375000D01*
X171270000Y-92370000D01*
X171268000Y-92365000D01*
X171266000Y-92360000D01*
X171265000Y-92355000D01*
X171264000Y-92350000D01*
X171264000Y-92344000D01*
X171263000Y-92339000D01*
X171263000Y-92334000D01*
X171263000Y-91834000D01*
X171263000Y-91829000D01*
X171264000Y-91824000D01*
X171264000Y-91818000D01*
X171265000Y-91813000D01*
X171266000Y-91808000D01*
X171268000Y-91803000D01*
X171270000Y-91798000D01*
X171272000Y-91793000D01*
X171274000Y-91789000D01*
X171276000Y-91784000D01*
X171279000Y-91780000D01*
X171282000Y-91775000D01*
X171285000Y-91771000D01*
X171289000Y-91767000D01*
X171292000Y-91763000D01*
X171296000Y-91760000D01*
X171300000Y-91756000D01*
X171304000Y-91753000D01*
X171309000Y-91750000D01*
X171313000Y-91747000D01*
X171318000Y-91745000D01*
X171322000Y-91743000D01*
X171327000Y-91741000D01*
X171332000Y-91739000D01*
X171337000Y-91737000D01*
X171342000Y-91736000D01*
X171347000Y-91735000D01*
X171353000Y-91735000D01*
X171358000Y-91734000D01*
X171363000Y-91734000D01*
X171613000Y-91734000D01*
X171618000Y-91734000D01*
X171623000Y-91735000D01*
G37*
X170523000Y-92535000D02*
X170529000Y-92535000D01*
X170534000Y-92536000D01*
X170539000Y-92537000D01*
X170544000Y-92539000D01*
X170549000Y-92541000D01*
X170554000Y-92543000D01*
X170558000Y-92545000D01*
X170563000Y-92547000D01*
X170567000Y-92550000D01*
X170572000Y-92553000D01*
X170576000Y-92556000D01*
X170580000Y-92560000D01*
X170584000Y-92563000D01*
X170587000Y-92567000D01*
X170591000Y-92571000D01*
X170594000Y-92575000D01*
X170597000Y-92580000D01*
X170600000Y-92584000D01*
X170602000Y-92589000D01*
X170604000Y-92593000D01*
X170606000Y-92598000D01*
X170608000Y-92603000D01*
X170610000Y-92608000D01*
X170611000Y-92613000D01*
X170612000Y-92618000D01*
X170612000Y-92624000D01*
X170613000Y-92629000D01*
X170613000Y-92634000D01*
X170613000Y-93858000D01*
X170613000Y-93864000D01*
X170612000Y-93869000D01*
X170612000Y-93874000D01*
X170611000Y-93879000D01*
X170610000Y-93884000D01*
X170608000Y-93889000D01*
X170606000Y-93894000D01*
X170604000Y-93899000D01*
X170602000Y-93904000D01*
X170600000Y-93908000D01*
X170597000Y-93913000D01*
X170594000Y-93917000D01*
X170591000Y-93921000D01*
X170587000Y-93925000D01*
X170584000Y-93929000D01*
X170580000Y-93933000D01*
X170576000Y-93936000D01*
X170572000Y-93939000D01*
X170567000Y-93942000D01*
X170563000Y-93945000D01*
X170558000Y-93948000D01*
X170554000Y-93950000D01*
X170549000Y-93952000D01*
X170544000Y-93954000D01*
X170539000Y-93955000D01*
X170534000Y-93956000D01*
X170529000Y-93957000D01*
X170523000Y-93958000D01*
X170518000Y-93958000D01*
X170513000Y-93958000D01*
X168888000Y-93958000D01*
X168883000Y-93958000D01*
X168878000Y-93958000D01*
X168872000Y-93957000D01*
X168867000Y-93956000D01*
X168862000Y-93955000D01*
X168857000Y-93954000D01*
X168852000Y-93952000D01*
X168847000Y-93950000D01*
X168843000Y-93948000D01*
X168838000Y-93945000D01*
X168834000Y-93942000D01*
X168829000Y-93939000D01*
X168825000Y-93936000D01*
X168821000Y-93933000D01*
X168817000Y-93929000D01*
X168814000Y-93925000D01*
X168810000Y-93921000D01*
X168807000Y-93917000D01*
X168804000Y-93913000D01*
X168801000Y-93909000D01*
X168799000Y-93904000D01*
X168797000Y-93899000D01*
X168795000Y-93894000D01*
X168793000Y-93889000D01*
X168791000Y-93884000D01*
X168790000Y-93879000D01*
X168789000Y-93874000D01*
X168789000Y-93869000D01*
X168788000Y-93864000D01*
X168788000Y-93858000D01*
X168788000Y-93684000D01*
X168788000Y-93678000D01*
X168789000Y-93673000D01*
X168789000Y-93668000D01*
X168790000Y-93663000D01*
X168791000Y-93658000D01*
X168793000Y-93653000D01*
X168795000Y-93648000D01*
X168797000Y-93643000D01*
X168799000Y-93638000D01*
X168801000Y-93633000D01*
X168804000Y-93629000D01*
X168807000Y-93625000D01*
X168810000Y-93621000D01*
X168814000Y-93617000D01*
X168817000Y-93613000D01*
X168821000Y-93609000D01*
X168825000Y-93606000D01*
X168829000Y-93603000D01*
X168834000Y-93600000D01*
X168838000Y-93597000D01*
X168843000Y-93594000D01*
X168847000Y-93592000D01*
X168852000Y-93590000D01*
X168857000Y-93588000D01*
X168862000Y-93587000D01*
X168867000Y-93586000D01*
X168872000Y-93585000D01*
X168878000Y-93584000D01*
X168883000Y-93584000D01*
X168888000Y-93584000D01*
X170067000Y-93584000D01*
X170069000Y-93583000D01*
X170071000Y-93583000D01*
X170073000Y-93583000D01*
X170075000Y-93583000D01*
X170077000Y-93583000D01*
X170079000Y-93583000D01*
X170081000Y-93582000D01*
X170083000Y-93582000D01*
X170084000Y-93581000D01*
X170086000Y-93581000D01*
X170088000Y-93580000D01*
X170090000Y-93580000D01*
X170092000Y-93579000D01*
X170094000Y-93579000D01*
X170096000Y-93578000D01*
X170097000Y-93577000D01*
X170099000Y-93576000D01*
X170101000Y-93575000D01*
X170103000Y-93574000D01*
X170104000Y-93573000D01*
X170106000Y-93572000D01*
X170108000Y-93571000D01*
X170109000Y-93570000D01*
X170111000Y-93569000D01*
X170113000Y-93568000D01*
X170114000Y-93567000D01*
X170116000Y-93566000D01*
X170117000Y-93564000D01*
X170119000Y-93563000D01*
X170120000Y-93562000D01*
X170241000Y-93440000D01*
X170242000Y-93439000D01*
X170244000Y-93438000D01*
X170245000Y-93436000D01*
X170246000Y-93435000D01*
X170248000Y-93433000D01*
X170249000Y-93432000D01*
X170250000Y-93430000D01*
X170251000Y-93428000D01*
X170252000Y-93427000D01*
X170253000Y-93425000D01*
X170254000Y-93423000D01*
X170255000Y-93421000D01*
X170256000Y-93420000D01*
X170257000Y-93418000D01*
X170257000Y-93416000D01*
X170258000Y-93414000D01*
X170259000Y-93412000D01*
X170259000Y-93411000D01*
X170260000Y-93409000D01*
X170260000Y-93407000D01*
X170261000Y-93405000D01*
X170261000Y-93403000D01*
X170262000Y-93401000D01*
X170262000Y-93399000D01*
X170262000Y-93397000D01*
X170263000Y-93395000D01*
X170263000Y-93393000D01*
X170263000Y-93391000D01*
X170263000Y-93389000D01*
X170263000Y-93387000D01*
X170263000Y-92634000D01*
X170263000Y-92629000D01*
X170264000Y-92624000D01*
X170264000Y-92618000D01*
X170265000Y-92613000D01*
X170266000Y-92608000D01*
X170268000Y-92603000D01*
X170270000Y-92598000D01*
X170272000Y-92593000D01*
X170274000Y-92589000D01*
X170276000Y-92584000D01*
X170279000Y-92580000D01*
X170282000Y-92575000D01*
X170285000Y-92571000D01*
X170289000Y-92567000D01*
X170292000Y-92563000D01*
X170296000Y-92560000D01*
X170300000Y-92556000D01*
X170304000Y-92553000D01*
X170309000Y-92550000D01*
X170313000Y-92547000D01*
X170318000Y-92545000D01*
X170322000Y-92543000D01*
X170327000Y-92541000D01*
X170332000Y-92539000D01*
X170337000Y-92537000D01*
X170342000Y-92536000D01*
X170347000Y-92535000D01*
X170353000Y-92535000D01*
X170358000Y-92534000D01*
X170363000Y-92534000D01*
X170513000Y-92534000D01*
X170518000Y-92534000D01*
X170523000Y-92535000D01*
G36*
X170523000Y-92535000D02*
G01*
X170529000Y-92535000D01*
X170534000Y-92536000D01*
X170539000Y-92537000D01*
X170544000Y-92539000D01*
X170549000Y-92541000D01*
X170554000Y-92543000D01*
X170558000Y-92545000D01*
X170563000Y-92547000D01*
X170567000Y-92550000D01*
X170572000Y-92553000D01*
X170576000Y-92556000D01*
X170580000Y-92560000D01*
X170584000Y-92563000D01*
X170587000Y-92567000D01*
X170591000Y-92571000D01*
X170594000Y-92575000D01*
X170597000Y-92580000D01*
X170600000Y-92584000D01*
X170602000Y-92589000D01*
X170604000Y-92593000D01*
X170606000Y-92598000D01*
X170608000Y-92603000D01*
X170610000Y-92608000D01*
X170611000Y-92613000D01*
X170612000Y-92618000D01*
X170612000Y-92624000D01*
X170613000Y-92629000D01*
X170613000Y-92634000D01*
X170613000Y-93858000D01*
X170613000Y-93864000D01*
X170612000Y-93869000D01*
X170612000Y-93874000D01*
X170611000Y-93879000D01*
X170610000Y-93884000D01*
X170608000Y-93889000D01*
X170606000Y-93894000D01*
X170604000Y-93899000D01*
X170602000Y-93904000D01*
X170600000Y-93908000D01*
X170597000Y-93913000D01*
X170594000Y-93917000D01*
X170591000Y-93921000D01*
X170587000Y-93925000D01*
X170584000Y-93929000D01*
X170580000Y-93933000D01*
X170576000Y-93936000D01*
X170572000Y-93939000D01*
X170567000Y-93942000D01*
X170563000Y-93945000D01*
X170558000Y-93948000D01*
X170554000Y-93950000D01*
X170549000Y-93952000D01*
X170544000Y-93954000D01*
X170539000Y-93955000D01*
X170534000Y-93956000D01*
X170529000Y-93957000D01*
X170523000Y-93958000D01*
X170518000Y-93958000D01*
X170513000Y-93958000D01*
X168888000Y-93958000D01*
X168883000Y-93958000D01*
X168878000Y-93958000D01*
X168872000Y-93957000D01*
X168867000Y-93956000D01*
X168862000Y-93955000D01*
X168857000Y-93954000D01*
X168852000Y-93952000D01*
X168847000Y-93950000D01*
X168843000Y-93948000D01*
X168838000Y-93945000D01*
X168834000Y-93942000D01*
X168829000Y-93939000D01*
X168825000Y-93936000D01*
X168821000Y-93933000D01*
X168817000Y-93929000D01*
X168814000Y-93925000D01*
X168810000Y-93921000D01*
X168807000Y-93917000D01*
X168804000Y-93913000D01*
X168801000Y-93909000D01*
X168799000Y-93904000D01*
X168797000Y-93899000D01*
X168795000Y-93894000D01*
X168793000Y-93889000D01*
X168791000Y-93884000D01*
X168790000Y-93879000D01*
X168789000Y-93874000D01*
X168789000Y-93869000D01*
X168788000Y-93864000D01*
X168788000Y-93858000D01*
X168788000Y-93684000D01*
X168788000Y-93678000D01*
X168789000Y-93673000D01*
X168789000Y-93668000D01*
X168790000Y-93663000D01*
X168791000Y-93658000D01*
X168793000Y-93653000D01*
X168795000Y-93648000D01*
X168797000Y-93643000D01*
X168799000Y-93638000D01*
X168801000Y-93633000D01*
X168804000Y-93629000D01*
X168807000Y-93625000D01*
X168810000Y-93621000D01*
X168814000Y-93617000D01*
X168817000Y-93613000D01*
X168821000Y-93609000D01*
X168825000Y-93606000D01*
X168829000Y-93603000D01*
X168834000Y-93600000D01*
X168838000Y-93597000D01*
X168843000Y-93594000D01*
X168847000Y-93592000D01*
X168852000Y-93590000D01*
X168857000Y-93588000D01*
X168862000Y-93587000D01*
X168867000Y-93586000D01*
X168872000Y-93585000D01*
X168878000Y-93584000D01*
X168883000Y-93584000D01*
X168888000Y-93584000D01*
X170067000Y-93584000D01*
X170069000Y-93583000D01*
X170071000Y-93583000D01*
X170073000Y-93583000D01*
X170075000Y-93583000D01*
X170077000Y-93583000D01*
X170079000Y-93583000D01*
X170081000Y-93582000D01*
X170083000Y-93582000D01*
X170084000Y-93581000D01*
X170086000Y-93581000D01*
X170088000Y-93580000D01*
X170090000Y-93580000D01*
X170092000Y-93579000D01*
X170094000Y-93579000D01*
X170096000Y-93578000D01*
X170097000Y-93577000D01*
X170099000Y-93576000D01*
X170101000Y-93575000D01*
X170103000Y-93574000D01*
X170104000Y-93573000D01*
X170106000Y-93572000D01*
X170108000Y-93571000D01*
X170109000Y-93570000D01*
X170111000Y-93569000D01*
X170113000Y-93568000D01*
X170114000Y-93567000D01*
X170116000Y-93566000D01*
X170117000Y-93564000D01*
X170119000Y-93563000D01*
X170120000Y-93562000D01*
X170241000Y-93440000D01*
X170242000Y-93439000D01*
X170244000Y-93438000D01*
X170245000Y-93436000D01*
X170246000Y-93435000D01*
X170248000Y-93433000D01*
X170249000Y-93432000D01*
X170250000Y-93430000D01*
X170251000Y-93428000D01*
X170252000Y-93427000D01*
X170253000Y-93425000D01*
X170254000Y-93423000D01*
X170255000Y-93421000D01*
X170256000Y-93420000D01*
X170257000Y-93418000D01*
X170257000Y-93416000D01*
X170258000Y-93414000D01*
X170259000Y-93412000D01*
X170259000Y-93411000D01*
X170260000Y-93409000D01*
X170260000Y-93407000D01*
X170261000Y-93405000D01*
X170261000Y-93403000D01*
X170262000Y-93401000D01*
X170262000Y-93399000D01*
X170262000Y-93397000D01*
X170263000Y-93395000D01*
X170263000Y-93393000D01*
X170263000Y-93391000D01*
X170263000Y-93389000D01*
X170263000Y-93387000D01*
X170263000Y-92634000D01*
X170263000Y-92629000D01*
X170264000Y-92624000D01*
X170264000Y-92618000D01*
X170265000Y-92613000D01*
X170266000Y-92608000D01*
X170268000Y-92603000D01*
X170270000Y-92598000D01*
X170272000Y-92593000D01*
X170274000Y-92589000D01*
X170276000Y-92584000D01*
X170279000Y-92580000D01*
X170282000Y-92575000D01*
X170285000Y-92571000D01*
X170289000Y-92567000D01*
X170292000Y-92563000D01*
X170296000Y-92560000D01*
X170300000Y-92556000D01*
X170304000Y-92553000D01*
X170309000Y-92550000D01*
X170313000Y-92547000D01*
X170318000Y-92545000D01*
X170322000Y-92543000D01*
X170327000Y-92541000D01*
X170332000Y-92539000D01*
X170337000Y-92537000D01*
X170342000Y-92536000D01*
X170347000Y-92535000D01*
X170353000Y-92535000D01*
X170358000Y-92534000D01*
X170363000Y-92534000D01*
X170513000Y-92534000D01*
X170518000Y-92534000D01*
X170523000Y-92535000D01*
G37*
X172496000Y-92635000D02*
X172498000Y-92635000D01*
X172501000Y-92636000D01*
X172503000Y-92636000D01*
X172506000Y-92637000D01*
X172508000Y-92638000D01*
X172511000Y-92639000D01*
X172513000Y-92641000D01*
X172515000Y-92642000D01*
X172517000Y-92644000D01*
X172519000Y-92645000D01*
X172521000Y-92647000D01*
X172523000Y-92649000D01*
X172525000Y-92651000D01*
X172527000Y-92653000D01*
X172528000Y-92655000D01*
X172530000Y-92657000D01*
X172531000Y-92659000D01*
X172533000Y-92661000D01*
X172534000Y-92664000D01*
X172535000Y-92666000D01*
X172536000Y-92669000D01*
X172536000Y-92671000D01*
X172537000Y-92674000D01*
X172537000Y-92676000D01*
X172538000Y-92679000D01*
X172538000Y-92681000D01*
X172538000Y-92684000D01*
X172538000Y-92834000D01*
X172538000Y-92837000D01*
X172538000Y-92839000D01*
X172537000Y-92842000D01*
X172537000Y-92844000D01*
X172536000Y-92847000D01*
X172536000Y-92849000D01*
X172535000Y-92852000D01*
X172534000Y-92854000D01*
X172533000Y-92857000D01*
X172531000Y-92859000D01*
X172530000Y-92861000D01*
X172528000Y-92863000D01*
X172527000Y-92865000D01*
X172525000Y-92867000D01*
X172523000Y-92869000D01*
X172521000Y-92871000D01*
X172519000Y-92873000D01*
X172517000Y-92874000D01*
X172515000Y-92876000D01*
X172513000Y-92877000D01*
X172511000Y-92879000D01*
X172508000Y-92880000D01*
X172506000Y-92881000D01*
X172503000Y-92882000D01*
X172501000Y-92882000D01*
X172498000Y-92883000D01*
X172496000Y-92883000D01*
X172493000Y-92884000D01*
X172491000Y-92884000D01*
X172488000Y-92884000D01*
X172188000Y-92884000D01*
X172185000Y-92884000D01*
X172183000Y-92884000D01*
X172180000Y-92885000D01*
X172178000Y-92885000D01*
X172175000Y-92886000D01*
X172173000Y-92886000D01*
X172170000Y-92887000D01*
X172168000Y-92888000D01*
X172165000Y-92889000D01*
X172163000Y-92891000D01*
X172161000Y-92892000D01*
X172159000Y-92894000D01*
X172157000Y-92895000D01*
X172155000Y-92897000D01*
X172153000Y-92899000D01*
X172151000Y-92901000D01*
X172149000Y-92903000D01*
X172148000Y-92905000D01*
X172146000Y-92907000D01*
X172145000Y-92909000D01*
X172143000Y-92911000D01*
X172142000Y-92914000D01*
X172141000Y-92916000D01*
X172140000Y-92919000D01*
X172140000Y-92921000D01*
X172139000Y-92924000D01*
X172139000Y-92926000D01*
X172138000Y-92929000D01*
X172138000Y-92931000D01*
X172138000Y-92934000D01*
X172138000Y-93084000D01*
X172138000Y-93087000D01*
X172138000Y-93089000D01*
X172139000Y-93092000D01*
X172139000Y-93094000D01*
X172140000Y-93097000D01*
X172140000Y-93099000D01*
X172141000Y-93102000D01*
X172142000Y-93104000D01*
X172143000Y-93107000D01*
X172145000Y-93109000D01*
X172146000Y-93111000D01*
X172148000Y-93113000D01*
X172149000Y-93115000D01*
X172151000Y-93117000D01*
X172153000Y-93119000D01*
X172155000Y-93121000D01*
X172157000Y-93123000D01*
X172159000Y-93124000D01*
X172161000Y-93126000D01*
X172163000Y-93127000D01*
X172165000Y-93129000D01*
X172168000Y-93130000D01*
X172170000Y-93131000D01*
X172173000Y-93132000D01*
X172175000Y-93132000D01*
X172178000Y-93133000D01*
X172180000Y-93133000D01*
X172183000Y-93134000D01*
X172185000Y-93134000D01*
X172188000Y-93134000D01*
X172488000Y-93134000D01*
X172491000Y-93134000D01*
X172493000Y-93134000D01*
X172496000Y-93135000D01*
X172498000Y-93135000D01*
X172501000Y-93136000D01*
X172503000Y-93136000D01*
X172506000Y-93137000D01*
X172508000Y-93138000D01*
X172511000Y-93139000D01*
X172513000Y-93141000D01*
X172515000Y-93142000D01*
X172517000Y-93144000D01*
X172519000Y-93145000D01*
X172521000Y-93147000D01*
X172523000Y-93149000D01*
X172525000Y-93151000D01*
X172527000Y-93153000D01*
X172528000Y-93155000D01*
X172530000Y-93157000D01*
X172531000Y-93159000D01*
X172533000Y-93161000D01*
X172534000Y-93164000D01*
X172535000Y-93166000D01*
X172536000Y-93169000D01*
X172536000Y-93171000D01*
X172537000Y-93174000D01*
X172537000Y-93176000D01*
X172538000Y-93179000D01*
X172538000Y-93181000D01*
X172538000Y-93184000D01*
X172538000Y-93334000D01*
X172538000Y-93337000D01*
X172538000Y-93339000D01*
X172537000Y-93342000D01*
X172537000Y-93344000D01*
X172536000Y-93347000D01*
X172536000Y-93349000D01*
X172535000Y-93352000D01*
X172534000Y-93354000D01*
X172533000Y-93357000D01*
X172531000Y-93359000D01*
X172530000Y-93361000D01*
X172528000Y-93363000D01*
X172527000Y-93365000D01*
X172525000Y-93367000D01*
X172523000Y-93369000D01*
X172521000Y-93371000D01*
X172519000Y-93373000D01*
X172517000Y-93374000D01*
X172515000Y-93376000D01*
X172513000Y-93377000D01*
X172511000Y-93379000D01*
X172508000Y-93380000D01*
X172506000Y-93381000D01*
X172503000Y-93382000D01*
X172501000Y-93382000D01*
X172498000Y-93383000D01*
X172496000Y-93383000D01*
X172493000Y-93384000D01*
X172491000Y-93384000D01*
X172488000Y-93384000D01*
X171388000Y-93384000D01*
X171385000Y-93384000D01*
X171383000Y-93384000D01*
X171380000Y-93383000D01*
X171378000Y-93383000D01*
X171375000Y-93382000D01*
X171373000Y-93382000D01*
X171370000Y-93381000D01*
X171368000Y-93380000D01*
X171365000Y-93379000D01*
X171363000Y-93377000D01*
X171361000Y-93376000D01*
X171359000Y-93374000D01*
X171357000Y-93373000D01*
X171355000Y-93371000D01*
X171353000Y-93369000D01*
X171351000Y-93367000D01*
X171349000Y-93365000D01*
X171348000Y-93363000D01*
X171346000Y-93361000D01*
X171345000Y-93359000D01*
X171343000Y-93357000D01*
X171342000Y-93354000D01*
X171341000Y-93352000D01*
X171340000Y-93349000D01*
X171340000Y-93347000D01*
X171339000Y-93344000D01*
X171339000Y-93342000D01*
X171338000Y-93339000D01*
X171338000Y-93337000D01*
X171338000Y-93334000D01*
X171338000Y-92684000D01*
X171338000Y-92681000D01*
X171338000Y-92679000D01*
X171339000Y-92676000D01*
X171339000Y-92674000D01*
X171340000Y-92671000D01*
X171340000Y-92669000D01*
X171341000Y-92666000D01*
X171342000Y-92664000D01*
X171343000Y-92661000D01*
X171345000Y-92659000D01*
X171346000Y-92657000D01*
X171348000Y-92655000D01*
X171349000Y-92653000D01*
X171351000Y-92651000D01*
X171353000Y-92649000D01*
X171355000Y-92647000D01*
X171357000Y-92645000D01*
X171359000Y-92644000D01*
X171361000Y-92642000D01*
X171363000Y-92641000D01*
X171365000Y-92639000D01*
X171368000Y-92638000D01*
X171370000Y-92637000D01*
X171373000Y-92636000D01*
X171375000Y-92636000D01*
X171378000Y-92635000D01*
X171380000Y-92635000D01*
X171383000Y-92634000D01*
X171385000Y-92634000D01*
X171388000Y-92634000D01*
X172488000Y-92634000D01*
X172491000Y-92634000D01*
X172493000Y-92634000D01*
X172496000Y-92635000D01*
G36*
X172496000Y-92635000D02*
G01*
X172498000Y-92635000D01*
X172501000Y-92636000D01*
X172503000Y-92636000D01*
X172506000Y-92637000D01*
X172508000Y-92638000D01*
X172511000Y-92639000D01*
X172513000Y-92641000D01*
X172515000Y-92642000D01*
X172517000Y-92644000D01*
X172519000Y-92645000D01*
X172521000Y-92647000D01*
X172523000Y-92649000D01*
X172525000Y-92651000D01*
X172527000Y-92653000D01*
X172528000Y-92655000D01*
X172530000Y-92657000D01*
X172531000Y-92659000D01*
X172533000Y-92661000D01*
X172534000Y-92664000D01*
X172535000Y-92666000D01*
X172536000Y-92669000D01*
X172536000Y-92671000D01*
X172537000Y-92674000D01*
X172537000Y-92676000D01*
X172538000Y-92679000D01*
X172538000Y-92681000D01*
X172538000Y-92684000D01*
X172538000Y-92834000D01*
X172538000Y-92837000D01*
X172538000Y-92839000D01*
X172537000Y-92842000D01*
X172537000Y-92844000D01*
X172536000Y-92847000D01*
X172536000Y-92849000D01*
X172535000Y-92852000D01*
X172534000Y-92854000D01*
X172533000Y-92857000D01*
X172531000Y-92859000D01*
X172530000Y-92861000D01*
X172528000Y-92863000D01*
X172527000Y-92865000D01*
X172525000Y-92867000D01*
X172523000Y-92869000D01*
X172521000Y-92871000D01*
X172519000Y-92873000D01*
X172517000Y-92874000D01*
X172515000Y-92876000D01*
X172513000Y-92877000D01*
X172511000Y-92879000D01*
X172508000Y-92880000D01*
X172506000Y-92881000D01*
X172503000Y-92882000D01*
X172501000Y-92882000D01*
X172498000Y-92883000D01*
X172496000Y-92883000D01*
X172493000Y-92884000D01*
X172491000Y-92884000D01*
X172488000Y-92884000D01*
X172188000Y-92884000D01*
X172185000Y-92884000D01*
X172183000Y-92884000D01*
X172180000Y-92885000D01*
X172178000Y-92885000D01*
X172175000Y-92886000D01*
X172173000Y-92886000D01*
X172170000Y-92887000D01*
X172168000Y-92888000D01*
X172165000Y-92889000D01*
X172163000Y-92891000D01*
X172161000Y-92892000D01*
X172159000Y-92894000D01*
X172157000Y-92895000D01*
X172155000Y-92897000D01*
X172153000Y-92899000D01*
X172151000Y-92901000D01*
X172149000Y-92903000D01*
X172148000Y-92905000D01*
X172146000Y-92907000D01*
X172145000Y-92909000D01*
X172143000Y-92911000D01*
X172142000Y-92914000D01*
X172141000Y-92916000D01*
X172140000Y-92919000D01*
X172140000Y-92921000D01*
X172139000Y-92924000D01*
X172139000Y-92926000D01*
X172138000Y-92929000D01*
X172138000Y-92931000D01*
X172138000Y-92934000D01*
X172138000Y-93084000D01*
X172138000Y-93087000D01*
X172138000Y-93089000D01*
X172139000Y-93092000D01*
X172139000Y-93094000D01*
X172140000Y-93097000D01*
X172140000Y-93099000D01*
X172141000Y-93102000D01*
X172142000Y-93104000D01*
X172143000Y-93107000D01*
X172145000Y-93109000D01*
X172146000Y-93111000D01*
X172148000Y-93113000D01*
X172149000Y-93115000D01*
X172151000Y-93117000D01*
X172153000Y-93119000D01*
X172155000Y-93121000D01*
X172157000Y-93123000D01*
X172159000Y-93124000D01*
X172161000Y-93126000D01*
X172163000Y-93127000D01*
X172165000Y-93129000D01*
X172168000Y-93130000D01*
X172170000Y-93131000D01*
X172173000Y-93132000D01*
X172175000Y-93132000D01*
X172178000Y-93133000D01*
X172180000Y-93133000D01*
X172183000Y-93134000D01*
X172185000Y-93134000D01*
X172188000Y-93134000D01*
X172488000Y-93134000D01*
X172491000Y-93134000D01*
X172493000Y-93134000D01*
X172496000Y-93135000D01*
X172498000Y-93135000D01*
X172501000Y-93136000D01*
X172503000Y-93136000D01*
X172506000Y-93137000D01*
X172508000Y-93138000D01*
X172511000Y-93139000D01*
X172513000Y-93141000D01*
X172515000Y-93142000D01*
X172517000Y-93144000D01*
X172519000Y-93145000D01*
X172521000Y-93147000D01*
X172523000Y-93149000D01*
X172525000Y-93151000D01*
X172527000Y-93153000D01*
X172528000Y-93155000D01*
X172530000Y-93157000D01*
X172531000Y-93159000D01*
X172533000Y-93161000D01*
X172534000Y-93164000D01*
X172535000Y-93166000D01*
X172536000Y-93169000D01*
X172536000Y-93171000D01*
X172537000Y-93174000D01*
X172537000Y-93176000D01*
X172538000Y-93179000D01*
X172538000Y-93181000D01*
X172538000Y-93184000D01*
X172538000Y-93334000D01*
X172538000Y-93337000D01*
X172538000Y-93339000D01*
X172537000Y-93342000D01*
X172537000Y-93344000D01*
X172536000Y-93347000D01*
X172536000Y-93349000D01*
X172535000Y-93352000D01*
X172534000Y-93354000D01*
X172533000Y-93357000D01*
X172531000Y-93359000D01*
X172530000Y-93361000D01*
X172528000Y-93363000D01*
X172527000Y-93365000D01*
X172525000Y-93367000D01*
X172523000Y-93369000D01*
X172521000Y-93371000D01*
X172519000Y-93373000D01*
X172517000Y-93374000D01*
X172515000Y-93376000D01*
X172513000Y-93377000D01*
X172511000Y-93379000D01*
X172508000Y-93380000D01*
X172506000Y-93381000D01*
X172503000Y-93382000D01*
X172501000Y-93382000D01*
X172498000Y-93383000D01*
X172496000Y-93383000D01*
X172493000Y-93384000D01*
X172491000Y-93384000D01*
X172488000Y-93384000D01*
X171388000Y-93384000D01*
X171385000Y-93384000D01*
X171383000Y-93384000D01*
X171380000Y-93383000D01*
X171378000Y-93383000D01*
X171375000Y-93382000D01*
X171373000Y-93382000D01*
X171370000Y-93381000D01*
X171368000Y-93380000D01*
X171365000Y-93379000D01*
X171363000Y-93377000D01*
X171361000Y-93376000D01*
X171359000Y-93374000D01*
X171357000Y-93373000D01*
X171355000Y-93371000D01*
X171353000Y-93369000D01*
X171351000Y-93367000D01*
X171349000Y-93365000D01*
X171348000Y-93363000D01*
X171346000Y-93361000D01*
X171345000Y-93359000D01*
X171343000Y-93357000D01*
X171342000Y-93354000D01*
X171341000Y-93352000D01*
X171340000Y-93349000D01*
X171340000Y-93347000D01*
X171339000Y-93344000D01*
X171339000Y-93342000D01*
X171338000Y-93339000D01*
X171338000Y-93337000D01*
X171338000Y-93334000D01*
X171338000Y-92684000D01*
X171338000Y-92681000D01*
X171338000Y-92679000D01*
X171339000Y-92676000D01*
X171339000Y-92674000D01*
X171340000Y-92671000D01*
X171340000Y-92669000D01*
X171341000Y-92666000D01*
X171342000Y-92664000D01*
X171343000Y-92661000D01*
X171345000Y-92659000D01*
X171346000Y-92657000D01*
X171348000Y-92655000D01*
X171349000Y-92653000D01*
X171351000Y-92651000D01*
X171353000Y-92649000D01*
X171355000Y-92647000D01*
X171357000Y-92645000D01*
X171359000Y-92644000D01*
X171361000Y-92642000D01*
X171363000Y-92641000D01*
X171365000Y-92639000D01*
X171368000Y-92638000D01*
X171370000Y-92637000D01*
X171373000Y-92636000D01*
X171375000Y-92636000D01*
X171378000Y-92635000D01*
X171380000Y-92635000D01*
X171383000Y-92634000D01*
X171385000Y-92634000D01*
X171388000Y-92634000D01*
X172488000Y-92634000D01*
X172491000Y-92634000D01*
X172493000Y-92634000D01*
X172496000Y-92635000D01*
G37*
X170196000Y-94360000D02*
X170198000Y-94360000D01*
X170201000Y-94361000D01*
X170203000Y-94361000D01*
X170206000Y-94362000D01*
X170208000Y-94363000D01*
X170211000Y-94364000D01*
X170213000Y-94366000D01*
X170215000Y-94367000D01*
X170217000Y-94369000D01*
X170219000Y-94370000D01*
X170221000Y-94372000D01*
X170223000Y-94374000D01*
X170225000Y-94376000D01*
X170227000Y-94378000D01*
X170228000Y-94380000D01*
X170230000Y-94382000D01*
X170231000Y-94384000D01*
X170233000Y-94386000D01*
X170234000Y-94389000D01*
X170235000Y-94391000D01*
X170236000Y-94394000D01*
X170236000Y-94396000D01*
X170237000Y-94399000D01*
X170237000Y-94401000D01*
X170238000Y-94404000D01*
X170238000Y-94406000D01*
X170238000Y-94409000D01*
X170238000Y-96234000D01*
X170238000Y-96237000D01*
X170238000Y-96239000D01*
X170237000Y-96242000D01*
X170237000Y-96244000D01*
X170236000Y-96247000D01*
X170236000Y-96249000D01*
X170235000Y-96252000D01*
X170234000Y-96254000D01*
X170233000Y-96257000D01*
X170231000Y-96259000D01*
X170230000Y-96261000D01*
X170228000Y-96263000D01*
X170227000Y-96265000D01*
X170225000Y-96267000D01*
X170223000Y-96269000D01*
X170221000Y-96271000D01*
X170219000Y-96273000D01*
X170217000Y-96274000D01*
X170215000Y-96276000D01*
X170213000Y-96277000D01*
X170211000Y-96279000D01*
X170208000Y-96280000D01*
X170206000Y-96281000D01*
X170203000Y-96282000D01*
X170201000Y-96282000D01*
X170198000Y-96283000D01*
X170196000Y-96283000D01*
X170193000Y-96284000D01*
X170191000Y-96284000D01*
X170188000Y-96284000D01*
X169288000Y-96284000D01*
X169285000Y-96284000D01*
X169283000Y-96284000D01*
X169280000Y-96283000D01*
X169278000Y-96283000D01*
X169275000Y-96282000D01*
X169273000Y-96282000D01*
X169270000Y-96281000D01*
X169268000Y-96280000D01*
X169265000Y-96279000D01*
X169263000Y-96277000D01*
X169261000Y-96276000D01*
X169259000Y-96274000D01*
X169257000Y-96273000D01*
X169255000Y-96271000D01*
X169253000Y-96269000D01*
X169251000Y-96267000D01*
X169249000Y-96265000D01*
X169248000Y-96263000D01*
X169246000Y-96261000D01*
X169245000Y-96259000D01*
X169243000Y-96257000D01*
X169242000Y-96254000D01*
X169241000Y-96252000D01*
X169240000Y-96249000D01*
X169240000Y-96247000D01*
X169239000Y-96244000D01*
X169239000Y-96242000D01*
X169238000Y-96239000D01*
X169238000Y-96237000D01*
X169238000Y-96234000D01*
X169238000Y-96074000D01*
X169238000Y-96071000D01*
X169238000Y-96069000D01*
X169237000Y-96066000D01*
X169237000Y-96064000D01*
X169236000Y-96061000D01*
X169236000Y-96059000D01*
X169235000Y-96056000D01*
X169234000Y-96054000D01*
X169233000Y-96051000D01*
X169231000Y-96049000D01*
X169230000Y-96047000D01*
X169228000Y-96045000D01*
X169227000Y-96043000D01*
X169225000Y-96041000D01*
X169223000Y-96039000D01*
X169221000Y-96037000D01*
X169219000Y-96035000D01*
X169217000Y-96034000D01*
X169215000Y-96032000D01*
X169213000Y-96031000D01*
X169211000Y-96029000D01*
X169208000Y-96028000D01*
X169206000Y-96027000D01*
X169203000Y-96026000D01*
X169201000Y-96026000D01*
X169198000Y-96025000D01*
X169196000Y-96025000D01*
X169193000Y-96024000D01*
X169191000Y-96024000D01*
X169188000Y-96024000D01*
X168888000Y-96024000D01*
X168885000Y-96024000D01*
X168883000Y-96024000D01*
X168880000Y-96023000D01*
X168878000Y-96023000D01*
X168875000Y-96022000D01*
X168873000Y-96022000D01*
X168870000Y-96021000D01*
X168868000Y-96020000D01*
X168865000Y-96019000D01*
X168863000Y-96017000D01*
X168861000Y-96016000D01*
X168859000Y-96014000D01*
X168857000Y-96013000D01*
X168855000Y-96011000D01*
X168853000Y-96009000D01*
X168851000Y-96007000D01*
X168849000Y-96005000D01*
X168848000Y-96003000D01*
X168846000Y-96001000D01*
X168845000Y-95999000D01*
X168843000Y-95997000D01*
X168842000Y-95994000D01*
X168841000Y-95992000D01*
X168840000Y-95989000D01*
X168840000Y-95987000D01*
X168839000Y-95984000D01*
X168839000Y-95982000D01*
X168838000Y-95979000D01*
X168838000Y-95977000D01*
X168838000Y-95974000D01*
X168838000Y-95824000D01*
X168838000Y-95821000D01*
X168838000Y-95819000D01*
X168839000Y-95816000D01*
X168839000Y-95814000D01*
X168840000Y-95811000D01*
X168840000Y-95809000D01*
X168841000Y-95806000D01*
X168842000Y-95804000D01*
X168843000Y-95801000D01*
X168845000Y-95799000D01*
X168846000Y-95797000D01*
X168848000Y-95795000D01*
X168849000Y-95793000D01*
X168851000Y-95791000D01*
X168853000Y-95789000D01*
X168855000Y-95787000D01*
X168857000Y-95785000D01*
X168859000Y-95784000D01*
X168861000Y-95782000D01*
X168863000Y-95781000D01*
X168865000Y-95779000D01*
X168868000Y-95778000D01*
X168870000Y-95777000D01*
X168873000Y-95776000D01*
X168875000Y-95776000D01*
X168878000Y-95775000D01*
X168880000Y-95775000D01*
X168883000Y-95774000D01*
X168885000Y-95774000D01*
X168888000Y-95774000D01*
X169188000Y-95774000D01*
X169191000Y-95774000D01*
X169193000Y-95774000D01*
X169196000Y-95773000D01*
X169198000Y-95773000D01*
X169201000Y-95772000D01*
X169203000Y-95772000D01*
X169206000Y-95771000D01*
X169208000Y-95770000D01*
X169211000Y-95769000D01*
X169213000Y-95767000D01*
X169215000Y-95766000D01*
X169217000Y-95764000D01*
X169219000Y-95763000D01*
X169221000Y-95761000D01*
X169223000Y-95759000D01*
X169225000Y-95757000D01*
X169227000Y-95755000D01*
X169228000Y-95753000D01*
X169230000Y-95751000D01*
X169231000Y-95749000D01*
X169233000Y-95747000D01*
X169234000Y-95744000D01*
X169235000Y-95742000D01*
X169236000Y-95739000D01*
X169236000Y-95737000D01*
X169237000Y-95734000D01*
X169237000Y-95732000D01*
X169238000Y-95729000D01*
X169238000Y-95727000D01*
X169238000Y-95724000D01*
X169238000Y-95574000D01*
X169238000Y-95571000D01*
X169238000Y-95569000D01*
X169237000Y-95566000D01*
X169237000Y-95564000D01*
X169236000Y-95561000D01*
X169236000Y-95559000D01*
X169235000Y-95556000D01*
X169234000Y-95554000D01*
X169233000Y-95551000D01*
X169231000Y-95549000D01*
X169230000Y-95547000D01*
X169228000Y-95545000D01*
X169227000Y-95543000D01*
X169225000Y-95541000D01*
X169223000Y-95539000D01*
X169221000Y-95537000D01*
X169219000Y-95535000D01*
X169217000Y-95534000D01*
X169215000Y-95532000D01*
X169213000Y-95531000D01*
X169211000Y-95529000D01*
X169208000Y-95528000D01*
X169206000Y-95527000D01*
X169203000Y-95526000D01*
X169201000Y-95526000D01*
X169198000Y-95525000D01*
X169196000Y-95525000D01*
X169193000Y-95524000D01*
X169191000Y-95524000D01*
X169188000Y-95524000D01*
X168888000Y-95524000D01*
X168885000Y-95524000D01*
X168883000Y-95524000D01*
X168880000Y-95523000D01*
X168878000Y-95523000D01*
X168875000Y-95522000D01*
X168873000Y-95522000D01*
X168870000Y-95521000D01*
X168868000Y-95520000D01*
X168865000Y-95519000D01*
X168863000Y-95517000D01*
X168861000Y-95516000D01*
X168859000Y-95514000D01*
X168857000Y-95513000D01*
X168855000Y-95511000D01*
X168853000Y-95509000D01*
X168851000Y-95507000D01*
X168849000Y-95505000D01*
X168848000Y-95503000D01*
X168846000Y-95501000D01*
X168845000Y-95499000D01*
X168843000Y-95497000D01*
X168842000Y-95494000D01*
X168841000Y-95492000D01*
X168840000Y-95489000D01*
X168840000Y-95487000D01*
X168839000Y-95484000D01*
X168839000Y-95482000D01*
X168838000Y-95479000D01*
X168838000Y-95477000D01*
X168838000Y-95474000D01*
X168838000Y-95324000D01*
X168838000Y-95321000D01*
X168838000Y-95319000D01*
X168839000Y-95316000D01*
X168839000Y-95314000D01*
X168840000Y-95311000D01*
X168840000Y-95309000D01*
X168841000Y-95306000D01*
X168842000Y-95304000D01*
X168843000Y-95301000D01*
X168845000Y-95299000D01*
X168846000Y-95297000D01*
X168848000Y-95295000D01*
X168849000Y-95293000D01*
X168851000Y-95291000D01*
X168853000Y-95289000D01*
X168855000Y-95287000D01*
X168857000Y-95285000D01*
X168859000Y-95284000D01*
X168861000Y-95282000D01*
X168863000Y-95281000D01*
X168865000Y-95279000D01*
X168868000Y-95278000D01*
X168870000Y-95277000D01*
X168873000Y-95276000D01*
X168875000Y-95276000D01*
X168878000Y-95275000D01*
X168880000Y-95275000D01*
X168883000Y-95274000D01*
X168885000Y-95274000D01*
X168888000Y-95274000D01*
X169188000Y-95274000D01*
X169191000Y-95274000D01*
X169193000Y-95274000D01*
X169196000Y-95273000D01*
X169198000Y-95273000D01*
X169201000Y-95272000D01*
X169203000Y-95272000D01*
X169206000Y-95271000D01*
X169208000Y-95270000D01*
X169211000Y-95269000D01*
X169213000Y-95267000D01*
X169215000Y-95266000D01*
X169217000Y-95264000D01*
X169219000Y-95263000D01*
X169221000Y-95261000D01*
X169223000Y-95259000D01*
X169225000Y-95257000D01*
X169227000Y-95255000D01*
X169228000Y-95253000D01*
X169230000Y-95251000D01*
X169231000Y-95249000D01*
X169233000Y-95247000D01*
X169234000Y-95244000D01*
X169235000Y-95242000D01*
X169236000Y-95239000D01*
X169236000Y-95237000D01*
X169237000Y-95234000D01*
X169237000Y-95232000D01*
X169238000Y-95229000D01*
X169238000Y-95227000D01*
X169238000Y-95224000D01*
X169238000Y-95074000D01*
X169238000Y-95071000D01*
X169238000Y-95069000D01*
X169237000Y-95066000D01*
X169237000Y-95064000D01*
X169236000Y-95061000D01*
X169236000Y-95059000D01*
X169235000Y-95056000D01*
X169234000Y-95054000D01*
X169233000Y-95051000D01*
X169231000Y-95049000D01*
X169230000Y-95047000D01*
X169228000Y-95045000D01*
X169227000Y-95043000D01*
X169225000Y-95041000D01*
X169223000Y-95039000D01*
X169221000Y-95037000D01*
X169219000Y-95035000D01*
X169217000Y-95034000D01*
X169215000Y-95032000D01*
X169213000Y-95031000D01*
X169211000Y-95029000D01*
X169208000Y-95028000D01*
X169206000Y-95027000D01*
X169203000Y-95026000D01*
X169201000Y-95026000D01*
X169198000Y-95025000D01*
X169196000Y-95025000D01*
X169193000Y-95024000D01*
X169191000Y-95024000D01*
X169188000Y-95024000D01*
X168888000Y-95024000D01*
X168885000Y-95024000D01*
X168883000Y-95024000D01*
X168880000Y-95023000D01*
X168878000Y-95023000D01*
X168875000Y-95022000D01*
X168873000Y-95022000D01*
X168870000Y-95021000D01*
X168868000Y-95020000D01*
X168865000Y-95019000D01*
X168863000Y-95017000D01*
X168861000Y-95016000D01*
X168859000Y-95014000D01*
X168857000Y-95013000D01*
X168855000Y-95011000D01*
X168853000Y-95009000D01*
X168851000Y-95007000D01*
X168849000Y-95005000D01*
X168848000Y-95003000D01*
X168846000Y-95001000D01*
X168845000Y-94999000D01*
X168843000Y-94997000D01*
X168842000Y-94994000D01*
X168841000Y-94992000D01*
X168840000Y-94989000D01*
X168840000Y-94987000D01*
X168839000Y-94984000D01*
X168839000Y-94982000D01*
X168838000Y-94979000D01*
X168838000Y-94977000D01*
X168838000Y-94974000D01*
X168838000Y-94824000D01*
X168838000Y-94821000D01*
X168838000Y-94819000D01*
X168839000Y-94816000D01*
X168839000Y-94814000D01*
X168840000Y-94811000D01*
X168840000Y-94809000D01*
X168841000Y-94806000D01*
X168842000Y-94804000D01*
X168843000Y-94801000D01*
X168845000Y-94799000D01*
X168846000Y-94797000D01*
X168848000Y-94795000D01*
X168849000Y-94793000D01*
X168851000Y-94791000D01*
X168853000Y-94789000D01*
X168855000Y-94787000D01*
X168857000Y-94785000D01*
X168859000Y-94784000D01*
X168861000Y-94782000D01*
X168863000Y-94781000D01*
X168865000Y-94779000D01*
X168868000Y-94778000D01*
X168870000Y-94777000D01*
X168873000Y-94776000D01*
X168875000Y-94776000D01*
X168878000Y-94775000D01*
X168880000Y-94775000D01*
X168883000Y-94774000D01*
X168885000Y-94774000D01*
X168888000Y-94774000D01*
X169188000Y-94774000D01*
X169191000Y-94774000D01*
X169193000Y-94774000D01*
X169196000Y-94773000D01*
X169198000Y-94773000D01*
X169201000Y-94772000D01*
X169203000Y-94772000D01*
X169206000Y-94771000D01*
X169208000Y-94770000D01*
X169211000Y-94769000D01*
X169213000Y-94767000D01*
X169215000Y-94766000D01*
X169217000Y-94764000D01*
X169219000Y-94763000D01*
X169221000Y-94761000D01*
X169223000Y-94759000D01*
X169225000Y-94757000D01*
X169227000Y-94755000D01*
X169228000Y-94753000D01*
X169230000Y-94751000D01*
X169231000Y-94749000D01*
X169233000Y-94747000D01*
X169234000Y-94744000D01*
X169235000Y-94742000D01*
X169236000Y-94739000D01*
X169236000Y-94737000D01*
X169237000Y-94734000D01*
X169237000Y-94732000D01*
X169238000Y-94729000D01*
X169238000Y-94727000D01*
X169238000Y-94724000D01*
X169238000Y-94409000D01*
X169238000Y-94406000D01*
X169238000Y-94404000D01*
X169239000Y-94401000D01*
X169239000Y-94399000D01*
X169240000Y-94396000D01*
X169240000Y-94394000D01*
X169241000Y-94391000D01*
X169242000Y-94389000D01*
X169243000Y-94386000D01*
X169245000Y-94384000D01*
X169246000Y-94382000D01*
X169248000Y-94380000D01*
X169249000Y-94378000D01*
X169251000Y-94376000D01*
X169253000Y-94374000D01*
X169255000Y-94372000D01*
X169257000Y-94370000D01*
X169259000Y-94369000D01*
X169261000Y-94367000D01*
X169263000Y-94366000D01*
X169265000Y-94364000D01*
X169268000Y-94363000D01*
X169270000Y-94362000D01*
X169273000Y-94361000D01*
X169275000Y-94361000D01*
X169278000Y-94360000D01*
X169280000Y-94360000D01*
X169283000Y-94359000D01*
X169285000Y-94359000D01*
X169288000Y-94359000D01*
X170188000Y-94359000D01*
X170191000Y-94359000D01*
X170193000Y-94359000D01*
X170196000Y-94360000D01*
G36*
X170196000Y-94360000D02*
G01*
X170198000Y-94360000D01*
X170201000Y-94361000D01*
X170203000Y-94361000D01*
X170206000Y-94362000D01*
X170208000Y-94363000D01*
X170211000Y-94364000D01*
X170213000Y-94366000D01*
X170215000Y-94367000D01*
X170217000Y-94369000D01*
X170219000Y-94370000D01*
X170221000Y-94372000D01*
X170223000Y-94374000D01*
X170225000Y-94376000D01*
X170227000Y-94378000D01*
X170228000Y-94380000D01*
X170230000Y-94382000D01*
X170231000Y-94384000D01*
X170233000Y-94386000D01*
X170234000Y-94389000D01*
X170235000Y-94391000D01*
X170236000Y-94394000D01*
X170236000Y-94396000D01*
X170237000Y-94399000D01*
X170237000Y-94401000D01*
X170238000Y-94404000D01*
X170238000Y-94406000D01*
X170238000Y-94409000D01*
X170238000Y-96234000D01*
X170238000Y-96237000D01*
X170238000Y-96239000D01*
X170237000Y-96242000D01*
X170237000Y-96244000D01*
X170236000Y-96247000D01*
X170236000Y-96249000D01*
X170235000Y-96252000D01*
X170234000Y-96254000D01*
X170233000Y-96257000D01*
X170231000Y-96259000D01*
X170230000Y-96261000D01*
X170228000Y-96263000D01*
X170227000Y-96265000D01*
X170225000Y-96267000D01*
X170223000Y-96269000D01*
X170221000Y-96271000D01*
X170219000Y-96273000D01*
X170217000Y-96274000D01*
X170215000Y-96276000D01*
X170213000Y-96277000D01*
X170211000Y-96279000D01*
X170208000Y-96280000D01*
X170206000Y-96281000D01*
X170203000Y-96282000D01*
X170201000Y-96282000D01*
X170198000Y-96283000D01*
X170196000Y-96283000D01*
X170193000Y-96284000D01*
X170191000Y-96284000D01*
X170188000Y-96284000D01*
X169288000Y-96284000D01*
X169285000Y-96284000D01*
X169283000Y-96284000D01*
X169280000Y-96283000D01*
X169278000Y-96283000D01*
X169275000Y-96282000D01*
X169273000Y-96282000D01*
X169270000Y-96281000D01*
X169268000Y-96280000D01*
X169265000Y-96279000D01*
X169263000Y-96277000D01*
X169261000Y-96276000D01*
X169259000Y-96274000D01*
X169257000Y-96273000D01*
X169255000Y-96271000D01*
X169253000Y-96269000D01*
X169251000Y-96267000D01*
X169249000Y-96265000D01*
X169248000Y-96263000D01*
X169246000Y-96261000D01*
X169245000Y-96259000D01*
X169243000Y-96257000D01*
X169242000Y-96254000D01*
X169241000Y-96252000D01*
X169240000Y-96249000D01*
X169240000Y-96247000D01*
X169239000Y-96244000D01*
X169239000Y-96242000D01*
X169238000Y-96239000D01*
X169238000Y-96237000D01*
X169238000Y-96234000D01*
X169238000Y-96074000D01*
X169238000Y-96071000D01*
X169238000Y-96069000D01*
X169237000Y-96066000D01*
X169237000Y-96064000D01*
X169236000Y-96061000D01*
X169236000Y-96059000D01*
X169235000Y-96056000D01*
X169234000Y-96054000D01*
X169233000Y-96051000D01*
X169231000Y-96049000D01*
X169230000Y-96047000D01*
X169228000Y-96045000D01*
X169227000Y-96043000D01*
X169225000Y-96041000D01*
X169223000Y-96039000D01*
X169221000Y-96037000D01*
X169219000Y-96035000D01*
X169217000Y-96034000D01*
X169215000Y-96032000D01*
X169213000Y-96031000D01*
X169211000Y-96029000D01*
X169208000Y-96028000D01*
X169206000Y-96027000D01*
X169203000Y-96026000D01*
X169201000Y-96026000D01*
X169198000Y-96025000D01*
X169196000Y-96025000D01*
X169193000Y-96024000D01*
X169191000Y-96024000D01*
X169188000Y-96024000D01*
X168888000Y-96024000D01*
X168885000Y-96024000D01*
X168883000Y-96024000D01*
X168880000Y-96023000D01*
X168878000Y-96023000D01*
X168875000Y-96022000D01*
X168873000Y-96022000D01*
X168870000Y-96021000D01*
X168868000Y-96020000D01*
X168865000Y-96019000D01*
X168863000Y-96017000D01*
X168861000Y-96016000D01*
X168859000Y-96014000D01*
X168857000Y-96013000D01*
X168855000Y-96011000D01*
X168853000Y-96009000D01*
X168851000Y-96007000D01*
X168849000Y-96005000D01*
X168848000Y-96003000D01*
X168846000Y-96001000D01*
X168845000Y-95999000D01*
X168843000Y-95997000D01*
X168842000Y-95994000D01*
X168841000Y-95992000D01*
X168840000Y-95989000D01*
X168840000Y-95987000D01*
X168839000Y-95984000D01*
X168839000Y-95982000D01*
X168838000Y-95979000D01*
X168838000Y-95977000D01*
X168838000Y-95974000D01*
X168838000Y-95824000D01*
X168838000Y-95821000D01*
X168838000Y-95819000D01*
X168839000Y-95816000D01*
X168839000Y-95814000D01*
X168840000Y-95811000D01*
X168840000Y-95809000D01*
X168841000Y-95806000D01*
X168842000Y-95804000D01*
X168843000Y-95801000D01*
X168845000Y-95799000D01*
X168846000Y-95797000D01*
X168848000Y-95795000D01*
X168849000Y-95793000D01*
X168851000Y-95791000D01*
X168853000Y-95789000D01*
X168855000Y-95787000D01*
X168857000Y-95785000D01*
X168859000Y-95784000D01*
X168861000Y-95782000D01*
X168863000Y-95781000D01*
X168865000Y-95779000D01*
X168868000Y-95778000D01*
X168870000Y-95777000D01*
X168873000Y-95776000D01*
X168875000Y-95776000D01*
X168878000Y-95775000D01*
X168880000Y-95775000D01*
X168883000Y-95774000D01*
X168885000Y-95774000D01*
X168888000Y-95774000D01*
X169188000Y-95774000D01*
X169191000Y-95774000D01*
X169193000Y-95774000D01*
X169196000Y-95773000D01*
X169198000Y-95773000D01*
X169201000Y-95772000D01*
X169203000Y-95772000D01*
X169206000Y-95771000D01*
X169208000Y-95770000D01*
X169211000Y-95769000D01*
X169213000Y-95767000D01*
X169215000Y-95766000D01*
X169217000Y-95764000D01*
X169219000Y-95763000D01*
X169221000Y-95761000D01*
X169223000Y-95759000D01*
X169225000Y-95757000D01*
X169227000Y-95755000D01*
X169228000Y-95753000D01*
X169230000Y-95751000D01*
X169231000Y-95749000D01*
X169233000Y-95747000D01*
X169234000Y-95744000D01*
X169235000Y-95742000D01*
X169236000Y-95739000D01*
X169236000Y-95737000D01*
X169237000Y-95734000D01*
X169237000Y-95732000D01*
X169238000Y-95729000D01*
X169238000Y-95727000D01*
X169238000Y-95724000D01*
X169238000Y-95574000D01*
X169238000Y-95571000D01*
X169238000Y-95569000D01*
X169237000Y-95566000D01*
X169237000Y-95564000D01*
X169236000Y-95561000D01*
X169236000Y-95559000D01*
X169235000Y-95556000D01*
X169234000Y-95554000D01*
X169233000Y-95551000D01*
X169231000Y-95549000D01*
X169230000Y-95547000D01*
X169228000Y-95545000D01*
X169227000Y-95543000D01*
X169225000Y-95541000D01*
X169223000Y-95539000D01*
X169221000Y-95537000D01*
X169219000Y-95535000D01*
X169217000Y-95534000D01*
X169215000Y-95532000D01*
X169213000Y-95531000D01*
X169211000Y-95529000D01*
X169208000Y-95528000D01*
X169206000Y-95527000D01*
X169203000Y-95526000D01*
X169201000Y-95526000D01*
X169198000Y-95525000D01*
X169196000Y-95525000D01*
X169193000Y-95524000D01*
X169191000Y-95524000D01*
X169188000Y-95524000D01*
X168888000Y-95524000D01*
X168885000Y-95524000D01*
X168883000Y-95524000D01*
X168880000Y-95523000D01*
X168878000Y-95523000D01*
X168875000Y-95522000D01*
X168873000Y-95522000D01*
X168870000Y-95521000D01*
X168868000Y-95520000D01*
X168865000Y-95519000D01*
X168863000Y-95517000D01*
X168861000Y-95516000D01*
X168859000Y-95514000D01*
X168857000Y-95513000D01*
X168855000Y-95511000D01*
X168853000Y-95509000D01*
X168851000Y-95507000D01*
X168849000Y-95505000D01*
X168848000Y-95503000D01*
X168846000Y-95501000D01*
X168845000Y-95499000D01*
X168843000Y-95497000D01*
X168842000Y-95494000D01*
X168841000Y-95492000D01*
X168840000Y-95489000D01*
X168840000Y-95487000D01*
X168839000Y-95484000D01*
X168839000Y-95482000D01*
X168838000Y-95479000D01*
X168838000Y-95477000D01*
X168838000Y-95474000D01*
X168838000Y-95324000D01*
X168838000Y-95321000D01*
X168838000Y-95319000D01*
X168839000Y-95316000D01*
X168839000Y-95314000D01*
X168840000Y-95311000D01*
X168840000Y-95309000D01*
X168841000Y-95306000D01*
X168842000Y-95304000D01*
X168843000Y-95301000D01*
X168845000Y-95299000D01*
X168846000Y-95297000D01*
X168848000Y-95295000D01*
X168849000Y-95293000D01*
X168851000Y-95291000D01*
X168853000Y-95289000D01*
X168855000Y-95287000D01*
X168857000Y-95285000D01*
X168859000Y-95284000D01*
X168861000Y-95282000D01*
X168863000Y-95281000D01*
X168865000Y-95279000D01*
X168868000Y-95278000D01*
X168870000Y-95277000D01*
X168873000Y-95276000D01*
X168875000Y-95276000D01*
X168878000Y-95275000D01*
X168880000Y-95275000D01*
X168883000Y-95274000D01*
X168885000Y-95274000D01*
X168888000Y-95274000D01*
X169188000Y-95274000D01*
X169191000Y-95274000D01*
X169193000Y-95274000D01*
X169196000Y-95273000D01*
X169198000Y-95273000D01*
X169201000Y-95272000D01*
X169203000Y-95272000D01*
X169206000Y-95271000D01*
X169208000Y-95270000D01*
X169211000Y-95269000D01*
X169213000Y-95267000D01*
X169215000Y-95266000D01*
X169217000Y-95264000D01*
X169219000Y-95263000D01*
X169221000Y-95261000D01*
X169223000Y-95259000D01*
X169225000Y-95257000D01*
X169227000Y-95255000D01*
X169228000Y-95253000D01*
X169230000Y-95251000D01*
X169231000Y-95249000D01*
X169233000Y-95247000D01*
X169234000Y-95244000D01*
X169235000Y-95242000D01*
X169236000Y-95239000D01*
X169236000Y-95237000D01*
X169237000Y-95234000D01*
X169237000Y-95232000D01*
X169238000Y-95229000D01*
X169238000Y-95227000D01*
X169238000Y-95224000D01*
X169238000Y-95074000D01*
X169238000Y-95071000D01*
X169238000Y-95069000D01*
X169237000Y-95066000D01*
X169237000Y-95064000D01*
X169236000Y-95061000D01*
X169236000Y-95059000D01*
X169235000Y-95056000D01*
X169234000Y-95054000D01*
X169233000Y-95051000D01*
X169231000Y-95049000D01*
X169230000Y-95047000D01*
X169228000Y-95045000D01*
X169227000Y-95043000D01*
X169225000Y-95041000D01*
X169223000Y-95039000D01*
X169221000Y-95037000D01*
X169219000Y-95035000D01*
X169217000Y-95034000D01*
X169215000Y-95032000D01*
X169213000Y-95031000D01*
X169211000Y-95029000D01*
X169208000Y-95028000D01*
X169206000Y-95027000D01*
X169203000Y-95026000D01*
X169201000Y-95026000D01*
X169198000Y-95025000D01*
X169196000Y-95025000D01*
X169193000Y-95024000D01*
X169191000Y-95024000D01*
X169188000Y-95024000D01*
X168888000Y-95024000D01*
X168885000Y-95024000D01*
X168883000Y-95024000D01*
X168880000Y-95023000D01*
X168878000Y-95023000D01*
X168875000Y-95022000D01*
X168873000Y-95022000D01*
X168870000Y-95021000D01*
X168868000Y-95020000D01*
X168865000Y-95019000D01*
X168863000Y-95017000D01*
X168861000Y-95016000D01*
X168859000Y-95014000D01*
X168857000Y-95013000D01*
X168855000Y-95011000D01*
X168853000Y-95009000D01*
X168851000Y-95007000D01*
X168849000Y-95005000D01*
X168848000Y-95003000D01*
X168846000Y-95001000D01*
X168845000Y-94999000D01*
X168843000Y-94997000D01*
X168842000Y-94994000D01*
X168841000Y-94992000D01*
X168840000Y-94989000D01*
X168840000Y-94987000D01*
X168839000Y-94984000D01*
X168839000Y-94982000D01*
X168838000Y-94979000D01*
X168838000Y-94977000D01*
X168838000Y-94974000D01*
X168838000Y-94824000D01*
X168838000Y-94821000D01*
X168838000Y-94819000D01*
X168839000Y-94816000D01*
X168839000Y-94814000D01*
X168840000Y-94811000D01*
X168840000Y-94809000D01*
X168841000Y-94806000D01*
X168842000Y-94804000D01*
X168843000Y-94801000D01*
X168845000Y-94799000D01*
X168846000Y-94797000D01*
X168848000Y-94795000D01*
X168849000Y-94793000D01*
X168851000Y-94791000D01*
X168853000Y-94789000D01*
X168855000Y-94787000D01*
X168857000Y-94785000D01*
X168859000Y-94784000D01*
X168861000Y-94782000D01*
X168863000Y-94781000D01*
X168865000Y-94779000D01*
X168868000Y-94778000D01*
X168870000Y-94777000D01*
X168873000Y-94776000D01*
X168875000Y-94776000D01*
X168878000Y-94775000D01*
X168880000Y-94775000D01*
X168883000Y-94774000D01*
X168885000Y-94774000D01*
X168888000Y-94774000D01*
X169188000Y-94774000D01*
X169191000Y-94774000D01*
X169193000Y-94774000D01*
X169196000Y-94773000D01*
X169198000Y-94773000D01*
X169201000Y-94772000D01*
X169203000Y-94772000D01*
X169206000Y-94771000D01*
X169208000Y-94770000D01*
X169211000Y-94769000D01*
X169213000Y-94767000D01*
X169215000Y-94766000D01*
X169217000Y-94764000D01*
X169219000Y-94763000D01*
X169221000Y-94761000D01*
X169223000Y-94759000D01*
X169225000Y-94757000D01*
X169227000Y-94755000D01*
X169228000Y-94753000D01*
X169230000Y-94751000D01*
X169231000Y-94749000D01*
X169233000Y-94747000D01*
X169234000Y-94744000D01*
X169235000Y-94742000D01*
X169236000Y-94739000D01*
X169236000Y-94737000D01*
X169237000Y-94734000D01*
X169237000Y-94732000D01*
X169238000Y-94729000D01*
X169238000Y-94727000D01*
X169238000Y-94724000D01*
X169238000Y-94409000D01*
X169238000Y-94406000D01*
X169238000Y-94404000D01*
X169239000Y-94401000D01*
X169239000Y-94399000D01*
X169240000Y-94396000D01*
X169240000Y-94394000D01*
X169241000Y-94391000D01*
X169242000Y-94389000D01*
X169243000Y-94386000D01*
X169245000Y-94384000D01*
X169246000Y-94382000D01*
X169248000Y-94380000D01*
X169249000Y-94378000D01*
X169251000Y-94376000D01*
X169253000Y-94374000D01*
X169255000Y-94372000D01*
X169257000Y-94370000D01*
X169259000Y-94369000D01*
X169261000Y-94367000D01*
X169263000Y-94366000D01*
X169265000Y-94364000D01*
X169268000Y-94363000D01*
X169270000Y-94362000D01*
X169273000Y-94361000D01*
X169275000Y-94361000D01*
X169278000Y-94360000D01*
X169280000Y-94360000D01*
X169283000Y-94359000D01*
X169285000Y-94359000D01*
X169288000Y-94359000D01*
X170188000Y-94359000D01*
X170191000Y-94359000D01*
X170193000Y-94359000D01*
X170196000Y-94360000D01*
G37*
X172096000Y-94360000D02*
X172098000Y-94360000D01*
X172101000Y-94361000D01*
X172103000Y-94361000D01*
X172106000Y-94362000D01*
X172108000Y-94363000D01*
X172111000Y-94364000D01*
X172113000Y-94366000D01*
X172115000Y-94367000D01*
X172117000Y-94369000D01*
X172119000Y-94370000D01*
X172121000Y-94372000D01*
X172123000Y-94374000D01*
X172125000Y-94376000D01*
X172127000Y-94378000D01*
X172128000Y-94380000D01*
X172130000Y-94382000D01*
X172131000Y-94384000D01*
X172133000Y-94386000D01*
X172134000Y-94389000D01*
X172135000Y-94391000D01*
X172136000Y-94394000D01*
X172136000Y-94396000D01*
X172137000Y-94399000D01*
X172137000Y-94401000D01*
X172138000Y-94404000D01*
X172138000Y-94406000D01*
X172138000Y-94409000D01*
X172138000Y-94724000D01*
X172138000Y-94727000D01*
X172138000Y-94729000D01*
X172139000Y-94732000D01*
X172139000Y-94734000D01*
X172140000Y-94737000D01*
X172140000Y-94739000D01*
X172141000Y-94742000D01*
X172142000Y-94744000D01*
X172143000Y-94747000D01*
X172145000Y-94749000D01*
X172146000Y-94751000D01*
X172148000Y-94753000D01*
X172149000Y-94755000D01*
X172151000Y-94757000D01*
X172153000Y-94759000D01*
X172155000Y-94761000D01*
X172157000Y-94763000D01*
X172159000Y-94764000D01*
X172161000Y-94766000D01*
X172163000Y-94767000D01*
X172165000Y-94769000D01*
X172168000Y-94770000D01*
X172170000Y-94771000D01*
X172173000Y-94772000D01*
X172175000Y-94772000D01*
X172178000Y-94773000D01*
X172180000Y-94773000D01*
X172183000Y-94774000D01*
X172185000Y-94774000D01*
X172188000Y-94774000D01*
X172488000Y-94774000D01*
X172491000Y-94774000D01*
X172493000Y-94774000D01*
X172496000Y-94775000D01*
X172498000Y-94775000D01*
X172501000Y-94776000D01*
X172503000Y-94776000D01*
X172506000Y-94777000D01*
X172508000Y-94778000D01*
X172511000Y-94779000D01*
X172513000Y-94781000D01*
X172515000Y-94782000D01*
X172517000Y-94784000D01*
X172519000Y-94785000D01*
X172521000Y-94787000D01*
X172523000Y-94789000D01*
X172525000Y-94791000D01*
X172527000Y-94793000D01*
X172528000Y-94795000D01*
X172530000Y-94797000D01*
X172531000Y-94799000D01*
X172533000Y-94801000D01*
X172534000Y-94804000D01*
X172535000Y-94806000D01*
X172536000Y-94809000D01*
X172536000Y-94811000D01*
X172537000Y-94814000D01*
X172537000Y-94816000D01*
X172538000Y-94819000D01*
X172538000Y-94821000D01*
X172538000Y-94824000D01*
X172538000Y-94974000D01*
X172538000Y-94977000D01*
X172538000Y-94979000D01*
X172537000Y-94982000D01*
X172537000Y-94984000D01*
X172536000Y-94987000D01*
X172536000Y-94989000D01*
X172535000Y-94992000D01*
X172534000Y-94994000D01*
X172533000Y-94997000D01*
X172531000Y-94999000D01*
X172530000Y-95001000D01*
X172528000Y-95003000D01*
X172527000Y-95005000D01*
X172525000Y-95007000D01*
X172523000Y-95009000D01*
X172521000Y-95011000D01*
X172519000Y-95013000D01*
X172517000Y-95014000D01*
X172515000Y-95016000D01*
X172513000Y-95017000D01*
X172511000Y-95019000D01*
X172508000Y-95020000D01*
X172506000Y-95021000D01*
X172503000Y-95022000D01*
X172501000Y-95022000D01*
X172498000Y-95023000D01*
X172496000Y-95023000D01*
X172493000Y-95024000D01*
X172491000Y-95024000D01*
X172488000Y-95024000D01*
X172188000Y-95024000D01*
X172185000Y-95024000D01*
X172183000Y-95024000D01*
X172180000Y-95025000D01*
X172178000Y-95025000D01*
X172175000Y-95026000D01*
X172173000Y-95026000D01*
X172170000Y-95027000D01*
X172168000Y-95028000D01*
X172165000Y-95029000D01*
X172163000Y-95031000D01*
X172161000Y-95032000D01*
X172159000Y-95034000D01*
X172157000Y-95035000D01*
X172155000Y-95037000D01*
X172153000Y-95039000D01*
X172151000Y-95041000D01*
X172149000Y-95043000D01*
X172148000Y-95045000D01*
X172146000Y-95047000D01*
X172145000Y-95049000D01*
X172143000Y-95051000D01*
X172142000Y-95054000D01*
X172141000Y-95056000D01*
X172140000Y-95059000D01*
X172140000Y-95061000D01*
X172139000Y-95064000D01*
X172139000Y-95066000D01*
X172138000Y-95069000D01*
X172138000Y-95071000D01*
X172138000Y-95074000D01*
X172138000Y-95224000D01*
X172138000Y-95227000D01*
X172138000Y-95229000D01*
X172139000Y-95232000D01*
X172139000Y-95234000D01*
X172140000Y-95237000D01*
X172140000Y-95239000D01*
X172141000Y-95242000D01*
X172142000Y-95244000D01*
X172143000Y-95247000D01*
X172145000Y-95249000D01*
X172146000Y-95251000D01*
X172148000Y-95253000D01*
X172149000Y-95255000D01*
X172151000Y-95257000D01*
X172153000Y-95259000D01*
X172155000Y-95261000D01*
X172157000Y-95263000D01*
X172159000Y-95264000D01*
X172161000Y-95266000D01*
X172163000Y-95267000D01*
X172165000Y-95269000D01*
X172168000Y-95270000D01*
X172170000Y-95271000D01*
X172173000Y-95272000D01*
X172175000Y-95272000D01*
X172178000Y-95273000D01*
X172180000Y-95273000D01*
X172183000Y-95274000D01*
X172185000Y-95274000D01*
X172188000Y-95274000D01*
X172488000Y-95274000D01*
X172491000Y-95274000D01*
X172493000Y-95274000D01*
X172496000Y-95275000D01*
X172498000Y-95275000D01*
X172501000Y-95276000D01*
X172503000Y-95276000D01*
X172506000Y-95277000D01*
X172508000Y-95278000D01*
X172511000Y-95279000D01*
X172513000Y-95281000D01*
X172515000Y-95282000D01*
X172517000Y-95284000D01*
X172519000Y-95285000D01*
X172521000Y-95287000D01*
X172523000Y-95289000D01*
X172525000Y-95291000D01*
X172527000Y-95293000D01*
X172528000Y-95295000D01*
X172530000Y-95297000D01*
X172531000Y-95299000D01*
X172533000Y-95301000D01*
X172534000Y-95304000D01*
X172535000Y-95306000D01*
X172536000Y-95309000D01*
X172536000Y-95311000D01*
X172537000Y-95314000D01*
X172537000Y-95316000D01*
X172538000Y-95319000D01*
X172538000Y-95321000D01*
X172538000Y-95324000D01*
X172538000Y-95474000D01*
X172538000Y-95477000D01*
X172538000Y-95479000D01*
X172537000Y-95482000D01*
X172537000Y-95484000D01*
X172536000Y-95487000D01*
X172536000Y-95489000D01*
X172535000Y-95492000D01*
X172534000Y-95494000D01*
X172533000Y-95497000D01*
X172531000Y-95499000D01*
X172530000Y-95501000D01*
X172528000Y-95503000D01*
X172527000Y-95505000D01*
X172525000Y-95507000D01*
X172523000Y-95509000D01*
X172521000Y-95511000D01*
X172519000Y-95513000D01*
X172517000Y-95514000D01*
X172515000Y-95516000D01*
X172513000Y-95517000D01*
X172511000Y-95519000D01*
X172508000Y-95520000D01*
X172506000Y-95521000D01*
X172503000Y-95522000D01*
X172501000Y-95522000D01*
X172498000Y-95523000D01*
X172496000Y-95523000D01*
X172493000Y-95524000D01*
X172491000Y-95524000D01*
X172488000Y-95524000D01*
X172188000Y-95524000D01*
X172185000Y-95524000D01*
X172183000Y-95524000D01*
X172180000Y-95525000D01*
X172178000Y-95525000D01*
X172175000Y-95526000D01*
X172173000Y-95526000D01*
X172170000Y-95527000D01*
X172168000Y-95528000D01*
X172165000Y-95529000D01*
X172163000Y-95531000D01*
X172161000Y-95532000D01*
X172159000Y-95534000D01*
X172157000Y-95535000D01*
X172155000Y-95537000D01*
X172153000Y-95539000D01*
X172151000Y-95541000D01*
X172149000Y-95543000D01*
X172148000Y-95545000D01*
X172146000Y-95547000D01*
X172145000Y-95549000D01*
X172143000Y-95551000D01*
X172142000Y-95554000D01*
X172141000Y-95556000D01*
X172140000Y-95559000D01*
X172140000Y-95561000D01*
X172139000Y-95564000D01*
X172139000Y-95566000D01*
X172138000Y-95569000D01*
X172138000Y-95571000D01*
X172138000Y-95574000D01*
X172138000Y-95724000D01*
X172138000Y-95727000D01*
X172138000Y-95729000D01*
X172139000Y-95732000D01*
X172139000Y-95734000D01*
X172140000Y-95737000D01*
X172140000Y-95739000D01*
X172141000Y-95742000D01*
X172142000Y-95744000D01*
X172143000Y-95747000D01*
X172145000Y-95749000D01*
X172146000Y-95751000D01*
X172148000Y-95753000D01*
X172149000Y-95755000D01*
X172151000Y-95757000D01*
X172153000Y-95759000D01*
X172155000Y-95761000D01*
X172157000Y-95763000D01*
X172159000Y-95764000D01*
X172161000Y-95766000D01*
X172163000Y-95767000D01*
X172165000Y-95769000D01*
X172168000Y-95770000D01*
X172170000Y-95771000D01*
X172173000Y-95772000D01*
X172175000Y-95772000D01*
X172178000Y-95773000D01*
X172180000Y-95773000D01*
X172183000Y-95774000D01*
X172185000Y-95774000D01*
X172188000Y-95774000D01*
X172488000Y-95774000D01*
X172491000Y-95774000D01*
X172493000Y-95774000D01*
X172496000Y-95775000D01*
X172498000Y-95775000D01*
X172501000Y-95776000D01*
X172503000Y-95776000D01*
X172506000Y-95777000D01*
X172508000Y-95778000D01*
X172511000Y-95779000D01*
X172513000Y-95781000D01*
X172515000Y-95782000D01*
X172517000Y-95784000D01*
X172519000Y-95785000D01*
X172521000Y-95787000D01*
X172523000Y-95789000D01*
X172525000Y-95791000D01*
X172527000Y-95793000D01*
X172528000Y-95795000D01*
X172530000Y-95797000D01*
X172531000Y-95799000D01*
X172533000Y-95801000D01*
X172534000Y-95804000D01*
X172535000Y-95806000D01*
X172536000Y-95809000D01*
X172536000Y-95811000D01*
X172537000Y-95814000D01*
X172537000Y-95816000D01*
X172538000Y-95819000D01*
X172538000Y-95821000D01*
X172538000Y-95824000D01*
X172538000Y-95974000D01*
X172538000Y-95977000D01*
X172538000Y-95979000D01*
X172537000Y-95982000D01*
X172537000Y-95984000D01*
X172536000Y-95987000D01*
X172536000Y-95989000D01*
X172535000Y-95992000D01*
X172534000Y-95994000D01*
X172533000Y-95997000D01*
X172531000Y-95999000D01*
X172530000Y-96001000D01*
X172528000Y-96003000D01*
X172527000Y-96005000D01*
X172525000Y-96007000D01*
X172523000Y-96009000D01*
X172521000Y-96011000D01*
X172519000Y-96013000D01*
X172517000Y-96014000D01*
X172515000Y-96016000D01*
X172513000Y-96017000D01*
X172511000Y-96019000D01*
X172508000Y-96020000D01*
X172506000Y-96021000D01*
X172503000Y-96022000D01*
X172501000Y-96022000D01*
X172498000Y-96023000D01*
X172496000Y-96023000D01*
X172493000Y-96024000D01*
X172491000Y-96024000D01*
X172488000Y-96024000D01*
X172188000Y-96024000D01*
X172185000Y-96024000D01*
X172183000Y-96024000D01*
X172180000Y-96025000D01*
X172178000Y-96025000D01*
X172175000Y-96026000D01*
X172173000Y-96026000D01*
X172170000Y-96027000D01*
X172168000Y-96028000D01*
X172165000Y-96029000D01*
X172163000Y-96031000D01*
X172161000Y-96032000D01*
X172159000Y-96034000D01*
X172157000Y-96035000D01*
X172155000Y-96037000D01*
X172153000Y-96039000D01*
X172151000Y-96041000D01*
X172149000Y-96043000D01*
X172148000Y-96045000D01*
X172146000Y-96047000D01*
X172145000Y-96049000D01*
X172143000Y-96051000D01*
X172142000Y-96054000D01*
X172141000Y-96056000D01*
X172140000Y-96059000D01*
X172140000Y-96061000D01*
X172139000Y-96064000D01*
X172139000Y-96066000D01*
X172138000Y-96069000D01*
X172138000Y-96071000D01*
X172138000Y-96074000D01*
X172138000Y-96234000D01*
X172138000Y-96237000D01*
X172138000Y-96239000D01*
X172137000Y-96242000D01*
X172137000Y-96244000D01*
X172136000Y-96247000D01*
X172136000Y-96249000D01*
X172135000Y-96252000D01*
X172134000Y-96254000D01*
X172133000Y-96257000D01*
X172131000Y-96259000D01*
X172130000Y-96261000D01*
X172128000Y-96263000D01*
X172127000Y-96265000D01*
X172125000Y-96267000D01*
X172123000Y-96269000D01*
X172121000Y-96271000D01*
X172119000Y-96273000D01*
X172117000Y-96274000D01*
X172115000Y-96276000D01*
X172113000Y-96277000D01*
X172111000Y-96279000D01*
X172108000Y-96280000D01*
X172106000Y-96281000D01*
X172103000Y-96282000D01*
X172101000Y-96282000D01*
X172098000Y-96283000D01*
X172096000Y-96283000D01*
X172093000Y-96284000D01*
X172091000Y-96284000D01*
X172088000Y-96284000D01*
X171188000Y-96284000D01*
X171185000Y-96284000D01*
X171183000Y-96284000D01*
X171180000Y-96283000D01*
X171178000Y-96283000D01*
X171175000Y-96282000D01*
X171173000Y-96282000D01*
X171170000Y-96281000D01*
X171168000Y-96280000D01*
X171165000Y-96279000D01*
X171163000Y-96277000D01*
X171161000Y-96276000D01*
X171159000Y-96274000D01*
X171157000Y-96273000D01*
X171155000Y-96271000D01*
X171153000Y-96269000D01*
X171151000Y-96267000D01*
X171149000Y-96265000D01*
X171148000Y-96263000D01*
X171146000Y-96261000D01*
X171145000Y-96259000D01*
X171143000Y-96257000D01*
X171142000Y-96254000D01*
X171141000Y-96252000D01*
X171140000Y-96249000D01*
X171140000Y-96247000D01*
X171139000Y-96244000D01*
X171139000Y-96242000D01*
X171138000Y-96239000D01*
X171138000Y-96237000D01*
X171138000Y-96234000D01*
X171138000Y-94409000D01*
X171138000Y-94406000D01*
X171138000Y-94404000D01*
X171139000Y-94401000D01*
X171139000Y-94399000D01*
X171140000Y-94396000D01*
X171140000Y-94394000D01*
X171141000Y-94391000D01*
X171142000Y-94389000D01*
X171143000Y-94386000D01*
X171145000Y-94384000D01*
X171146000Y-94382000D01*
X171148000Y-94380000D01*
X171149000Y-94378000D01*
X171151000Y-94376000D01*
X171153000Y-94374000D01*
X171155000Y-94372000D01*
X171157000Y-94370000D01*
X171159000Y-94369000D01*
X171161000Y-94367000D01*
X171163000Y-94366000D01*
X171165000Y-94364000D01*
X171168000Y-94363000D01*
X171170000Y-94362000D01*
X171173000Y-94361000D01*
X171175000Y-94361000D01*
X171178000Y-94360000D01*
X171180000Y-94360000D01*
X171183000Y-94359000D01*
X171185000Y-94359000D01*
X171188000Y-94359000D01*
X172088000Y-94359000D01*
X172091000Y-94359000D01*
X172093000Y-94359000D01*
X172096000Y-94360000D01*
G36*
X172096000Y-94360000D02*
G01*
X172098000Y-94360000D01*
X172101000Y-94361000D01*
X172103000Y-94361000D01*
X172106000Y-94362000D01*
X172108000Y-94363000D01*
X172111000Y-94364000D01*
X172113000Y-94366000D01*
X172115000Y-94367000D01*
X172117000Y-94369000D01*
X172119000Y-94370000D01*
X172121000Y-94372000D01*
X172123000Y-94374000D01*
X172125000Y-94376000D01*
X172127000Y-94378000D01*
X172128000Y-94380000D01*
X172130000Y-94382000D01*
X172131000Y-94384000D01*
X172133000Y-94386000D01*
X172134000Y-94389000D01*
X172135000Y-94391000D01*
X172136000Y-94394000D01*
X172136000Y-94396000D01*
X172137000Y-94399000D01*
X172137000Y-94401000D01*
X172138000Y-94404000D01*
X172138000Y-94406000D01*
X172138000Y-94409000D01*
X172138000Y-94724000D01*
X172138000Y-94727000D01*
X172138000Y-94729000D01*
X172139000Y-94732000D01*
X172139000Y-94734000D01*
X172140000Y-94737000D01*
X172140000Y-94739000D01*
X172141000Y-94742000D01*
X172142000Y-94744000D01*
X172143000Y-94747000D01*
X172145000Y-94749000D01*
X172146000Y-94751000D01*
X172148000Y-94753000D01*
X172149000Y-94755000D01*
X172151000Y-94757000D01*
X172153000Y-94759000D01*
X172155000Y-94761000D01*
X172157000Y-94763000D01*
X172159000Y-94764000D01*
X172161000Y-94766000D01*
X172163000Y-94767000D01*
X172165000Y-94769000D01*
X172168000Y-94770000D01*
X172170000Y-94771000D01*
X172173000Y-94772000D01*
X172175000Y-94772000D01*
X172178000Y-94773000D01*
X172180000Y-94773000D01*
X172183000Y-94774000D01*
X172185000Y-94774000D01*
X172188000Y-94774000D01*
X172488000Y-94774000D01*
X172491000Y-94774000D01*
X172493000Y-94774000D01*
X172496000Y-94775000D01*
X172498000Y-94775000D01*
X172501000Y-94776000D01*
X172503000Y-94776000D01*
X172506000Y-94777000D01*
X172508000Y-94778000D01*
X172511000Y-94779000D01*
X172513000Y-94781000D01*
X172515000Y-94782000D01*
X172517000Y-94784000D01*
X172519000Y-94785000D01*
X172521000Y-94787000D01*
X172523000Y-94789000D01*
X172525000Y-94791000D01*
X172527000Y-94793000D01*
X172528000Y-94795000D01*
X172530000Y-94797000D01*
X172531000Y-94799000D01*
X172533000Y-94801000D01*
X172534000Y-94804000D01*
X172535000Y-94806000D01*
X172536000Y-94809000D01*
X172536000Y-94811000D01*
X172537000Y-94814000D01*
X172537000Y-94816000D01*
X172538000Y-94819000D01*
X172538000Y-94821000D01*
X172538000Y-94824000D01*
X172538000Y-94974000D01*
X172538000Y-94977000D01*
X172538000Y-94979000D01*
X172537000Y-94982000D01*
X172537000Y-94984000D01*
X172536000Y-94987000D01*
X172536000Y-94989000D01*
X172535000Y-94992000D01*
X172534000Y-94994000D01*
X172533000Y-94997000D01*
X172531000Y-94999000D01*
X172530000Y-95001000D01*
X172528000Y-95003000D01*
X172527000Y-95005000D01*
X172525000Y-95007000D01*
X172523000Y-95009000D01*
X172521000Y-95011000D01*
X172519000Y-95013000D01*
X172517000Y-95014000D01*
X172515000Y-95016000D01*
X172513000Y-95017000D01*
X172511000Y-95019000D01*
X172508000Y-95020000D01*
X172506000Y-95021000D01*
X172503000Y-95022000D01*
X172501000Y-95022000D01*
X172498000Y-95023000D01*
X172496000Y-95023000D01*
X172493000Y-95024000D01*
X172491000Y-95024000D01*
X172488000Y-95024000D01*
X172188000Y-95024000D01*
X172185000Y-95024000D01*
X172183000Y-95024000D01*
X172180000Y-95025000D01*
X172178000Y-95025000D01*
X172175000Y-95026000D01*
X172173000Y-95026000D01*
X172170000Y-95027000D01*
X172168000Y-95028000D01*
X172165000Y-95029000D01*
X172163000Y-95031000D01*
X172161000Y-95032000D01*
X172159000Y-95034000D01*
X172157000Y-95035000D01*
X172155000Y-95037000D01*
X172153000Y-95039000D01*
X172151000Y-95041000D01*
X172149000Y-95043000D01*
X172148000Y-95045000D01*
X172146000Y-95047000D01*
X172145000Y-95049000D01*
X172143000Y-95051000D01*
X172142000Y-95054000D01*
X172141000Y-95056000D01*
X172140000Y-95059000D01*
X172140000Y-95061000D01*
X172139000Y-95064000D01*
X172139000Y-95066000D01*
X172138000Y-95069000D01*
X172138000Y-95071000D01*
X172138000Y-95074000D01*
X172138000Y-95224000D01*
X172138000Y-95227000D01*
X172138000Y-95229000D01*
X172139000Y-95232000D01*
X172139000Y-95234000D01*
X172140000Y-95237000D01*
X172140000Y-95239000D01*
X172141000Y-95242000D01*
X172142000Y-95244000D01*
X172143000Y-95247000D01*
X172145000Y-95249000D01*
X172146000Y-95251000D01*
X172148000Y-95253000D01*
X172149000Y-95255000D01*
X172151000Y-95257000D01*
X172153000Y-95259000D01*
X172155000Y-95261000D01*
X172157000Y-95263000D01*
X172159000Y-95264000D01*
X172161000Y-95266000D01*
X172163000Y-95267000D01*
X172165000Y-95269000D01*
X172168000Y-95270000D01*
X172170000Y-95271000D01*
X172173000Y-95272000D01*
X172175000Y-95272000D01*
X172178000Y-95273000D01*
X172180000Y-95273000D01*
X172183000Y-95274000D01*
X172185000Y-95274000D01*
X172188000Y-95274000D01*
X172488000Y-95274000D01*
X172491000Y-95274000D01*
X172493000Y-95274000D01*
X172496000Y-95275000D01*
X172498000Y-95275000D01*
X172501000Y-95276000D01*
X172503000Y-95276000D01*
X172506000Y-95277000D01*
X172508000Y-95278000D01*
X172511000Y-95279000D01*
X172513000Y-95281000D01*
X172515000Y-95282000D01*
X172517000Y-95284000D01*
X172519000Y-95285000D01*
X172521000Y-95287000D01*
X172523000Y-95289000D01*
X172525000Y-95291000D01*
X172527000Y-95293000D01*
X172528000Y-95295000D01*
X172530000Y-95297000D01*
X172531000Y-95299000D01*
X172533000Y-95301000D01*
X172534000Y-95304000D01*
X172535000Y-95306000D01*
X172536000Y-95309000D01*
X172536000Y-95311000D01*
X172537000Y-95314000D01*
X172537000Y-95316000D01*
X172538000Y-95319000D01*
X172538000Y-95321000D01*
X172538000Y-95324000D01*
X172538000Y-95474000D01*
X172538000Y-95477000D01*
X172538000Y-95479000D01*
X172537000Y-95482000D01*
X172537000Y-95484000D01*
X172536000Y-95487000D01*
X172536000Y-95489000D01*
X172535000Y-95492000D01*
X172534000Y-95494000D01*
X172533000Y-95497000D01*
X172531000Y-95499000D01*
X172530000Y-95501000D01*
X172528000Y-95503000D01*
X172527000Y-95505000D01*
X172525000Y-95507000D01*
X172523000Y-95509000D01*
X172521000Y-95511000D01*
X172519000Y-95513000D01*
X172517000Y-95514000D01*
X172515000Y-95516000D01*
X172513000Y-95517000D01*
X172511000Y-95519000D01*
X172508000Y-95520000D01*
X172506000Y-95521000D01*
X172503000Y-95522000D01*
X172501000Y-95522000D01*
X172498000Y-95523000D01*
X172496000Y-95523000D01*
X172493000Y-95524000D01*
X172491000Y-95524000D01*
X172488000Y-95524000D01*
X172188000Y-95524000D01*
X172185000Y-95524000D01*
X172183000Y-95524000D01*
X172180000Y-95525000D01*
X172178000Y-95525000D01*
X172175000Y-95526000D01*
X172173000Y-95526000D01*
X172170000Y-95527000D01*
X172168000Y-95528000D01*
X172165000Y-95529000D01*
X172163000Y-95531000D01*
X172161000Y-95532000D01*
X172159000Y-95534000D01*
X172157000Y-95535000D01*
X172155000Y-95537000D01*
X172153000Y-95539000D01*
X172151000Y-95541000D01*
X172149000Y-95543000D01*
X172148000Y-95545000D01*
X172146000Y-95547000D01*
X172145000Y-95549000D01*
X172143000Y-95551000D01*
X172142000Y-95554000D01*
X172141000Y-95556000D01*
X172140000Y-95559000D01*
X172140000Y-95561000D01*
X172139000Y-95564000D01*
X172139000Y-95566000D01*
X172138000Y-95569000D01*
X172138000Y-95571000D01*
X172138000Y-95574000D01*
X172138000Y-95724000D01*
X172138000Y-95727000D01*
X172138000Y-95729000D01*
X172139000Y-95732000D01*
X172139000Y-95734000D01*
X172140000Y-95737000D01*
X172140000Y-95739000D01*
X172141000Y-95742000D01*
X172142000Y-95744000D01*
X172143000Y-95747000D01*
X172145000Y-95749000D01*
X172146000Y-95751000D01*
X172148000Y-95753000D01*
X172149000Y-95755000D01*
X172151000Y-95757000D01*
X172153000Y-95759000D01*
X172155000Y-95761000D01*
X172157000Y-95763000D01*
X172159000Y-95764000D01*
X172161000Y-95766000D01*
X172163000Y-95767000D01*
X172165000Y-95769000D01*
X172168000Y-95770000D01*
X172170000Y-95771000D01*
X172173000Y-95772000D01*
X172175000Y-95772000D01*
X172178000Y-95773000D01*
X172180000Y-95773000D01*
X172183000Y-95774000D01*
X172185000Y-95774000D01*
X172188000Y-95774000D01*
X172488000Y-95774000D01*
X172491000Y-95774000D01*
X172493000Y-95774000D01*
X172496000Y-95775000D01*
X172498000Y-95775000D01*
X172501000Y-95776000D01*
X172503000Y-95776000D01*
X172506000Y-95777000D01*
X172508000Y-95778000D01*
X172511000Y-95779000D01*
X172513000Y-95781000D01*
X172515000Y-95782000D01*
X172517000Y-95784000D01*
X172519000Y-95785000D01*
X172521000Y-95787000D01*
X172523000Y-95789000D01*
X172525000Y-95791000D01*
X172527000Y-95793000D01*
X172528000Y-95795000D01*
X172530000Y-95797000D01*
X172531000Y-95799000D01*
X172533000Y-95801000D01*
X172534000Y-95804000D01*
X172535000Y-95806000D01*
X172536000Y-95809000D01*
X172536000Y-95811000D01*
X172537000Y-95814000D01*
X172537000Y-95816000D01*
X172538000Y-95819000D01*
X172538000Y-95821000D01*
X172538000Y-95824000D01*
X172538000Y-95974000D01*
X172538000Y-95977000D01*
X172538000Y-95979000D01*
X172537000Y-95982000D01*
X172537000Y-95984000D01*
X172536000Y-95987000D01*
X172536000Y-95989000D01*
X172535000Y-95992000D01*
X172534000Y-95994000D01*
X172533000Y-95997000D01*
X172531000Y-95999000D01*
X172530000Y-96001000D01*
X172528000Y-96003000D01*
X172527000Y-96005000D01*
X172525000Y-96007000D01*
X172523000Y-96009000D01*
X172521000Y-96011000D01*
X172519000Y-96013000D01*
X172517000Y-96014000D01*
X172515000Y-96016000D01*
X172513000Y-96017000D01*
X172511000Y-96019000D01*
X172508000Y-96020000D01*
X172506000Y-96021000D01*
X172503000Y-96022000D01*
X172501000Y-96022000D01*
X172498000Y-96023000D01*
X172496000Y-96023000D01*
X172493000Y-96024000D01*
X172491000Y-96024000D01*
X172488000Y-96024000D01*
X172188000Y-96024000D01*
X172185000Y-96024000D01*
X172183000Y-96024000D01*
X172180000Y-96025000D01*
X172178000Y-96025000D01*
X172175000Y-96026000D01*
X172173000Y-96026000D01*
X172170000Y-96027000D01*
X172168000Y-96028000D01*
X172165000Y-96029000D01*
X172163000Y-96031000D01*
X172161000Y-96032000D01*
X172159000Y-96034000D01*
X172157000Y-96035000D01*
X172155000Y-96037000D01*
X172153000Y-96039000D01*
X172151000Y-96041000D01*
X172149000Y-96043000D01*
X172148000Y-96045000D01*
X172146000Y-96047000D01*
X172145000Y-96049000D01*
X172143000Y-96051000D01*
X172142000Y-96054000D01*
X172141000Y-96056000D01*
X172140000Y-96059000D01*
X172140000Y-96061000D01*
X172139000Y-96064000D01*
X172139000Y-96066000D01*
X172138000Y-96069000D01*
X172138000Y-96071000D01*
X172138000Y-96074000D01*
X172138000Y-96234000D01*
X172138000Y-96237000D01*
X172138000Y-96239000D01*
X172137000Y-96242000D01*
X172137000Y-96244000D01*
X172136000Y-96247000D01*
X172136000Y-96249000D01*
X172135000Y-96252000D01*
X172134000Y-96254000D01*
X172133000Y-96257000D01*
X172131000Y-96259000D01*
X172130000Y-96261000D01*
X172128000Y-96263000D01*
X172127000Y-96265000D01*
X172125000Y-96267000D01*
X172123000Y-96269000D01*
X172121000Y-96271000D01*
X172119000Y-96273000D01*
X172117000Y-96274000D01*
X172115000Y-96276000D01*
X172113000Y-96277000D01*
X172111000Y-96279000D01*
X172108000Y-96280000D01*
X172106000Y-96281000D01*
X172103000Y-96282000D01*
X172101000Y-96282000D01*
X172098000Y-96283000D01*
X172096000Y-96283000D01*
X172093000Y-96284000D01*
X172091000Y-96284000D01*
X172088000Y-96284000D01*
X171188000Y-96284000D01*
X171185000Y-96284000D01*
X171183000Y-96284000D01*
X171180000Y-96283000D01*
X171178000Y-96283000D01*
X171175000Y-96282000D01*
X171173000Y-96282000D01*
X171170000Y-96281000D01*
X171168000Y-96280000D01*
X171165000Y-96279000D01*
X171163000Y-96277000D01*
X171161000Y-96276000D01*
X171159000Y-96274000D01*
X171157000Y-96273000D01*
X171155000Y-96271000D01*
X171153000Y-96269000D01*
X171151000Y-96267000D01*
X171149000Y-96265000D01*
X171148000Y-96263000D01*
X171146000Y-96261000D01*
X171145000Y-96259000D01*
X171143000Y-96257000D01*
X171142000Y-96254000D01*
X171141000Y-96252000D01*
X171140000Y-96249000D01*
X171140000Y-96247000D01*
X171139000Y-96244000D01*
X171139000Y-96242000D01*
X171138000Y-96239000D01*
X171138000Y-96237000D01*
X171138000Y-96234000D01*
X171138000Y-94409000D01*
X171138000Y-94406000D01*
X171138000Y-94404000D01*
X171139000Y-94401000D01*
X171139000Y-94399000D01*
X171140000Y-94396000D01*
X171140000Y-94394000D01*
X171141000Y-94391000D01*
X171142000Y-94389000D01*
X171143000Y-94386000D01*
X171145000Y-94384000D01*
X171146000Y-94382000D01*
X171148000Y-94380000D01*
X171149000Y-94378000D01*
X171151000Y-94376000D01*
X171153000Y-94374000D01*
X171155000Y-94372000D01*
X171157000Y-94370000D01*
X171159000Y-94369000D01*
X171161000Y-94367000D01*
X171163000Y-94366000D01*
X171165000Y-94364000D01*
X171168000Y-94363000D01*
X171170000Y-94362000D01*
X171173000Y-94361000D01*
X171175000Y-94361000D01*
X171178000Y-94360000D01*
X171180000Y-94360000D01*
X171183000Y-94359000D01*
X171185000Y-94359000D01*
X171188000Y-94359000D01*
X172088000Y-94359000D01*
X172091000Y-94359000D01*
X172093000Y-94359000D01*
X172096000Y-94360000D01*
G37*
D11*
X186920000Y-108311000D03*
X185020000Y-108311000D03*
X185970000Y-110186000D03*
D12*
X202942000Y-78395000D03*
X202942000Y-71895000D03*
D13*
X137424000Y-76454000D03*
X139149000Y-76454000D03*
X170333500Y-90678000D03*
X172058500Y-90678000D03*
D14*
X197138500Y-91147000D03*
X194013500Y-91147000D03*
D13*
X150548500Y-124255267D03*
X152273500Y-124255267D03*
D15*
X123698000Y-104140000D03*
X114554000Y-104140000D03*
D16*
X138430000Y-94083500D03*
X138430000Y-95908500D03*
D11*
X191746000Y-108311000D03*
X189846000Y-108311000D03*
X190796000Y-110186000D03*
D17*
X133329000Y-92083000D03*
X132679000Y-92083000D03*
X132029000Y-92083000D03*
X131379000Y-92083000D03*
X130729000Y-92083000D03*
X130079000Y-92083000D03*
X129429000Y-92083000D03*
X128779000Y-92083000D03*
X128779000Y-97823000D03*
X129429000Y-97823000D03*
X130079000Y-97823000D03*
X130729000Y-97823000D03*
X131379000Y-97823000D03*
X132029000Y-97823000D03*
X132679000Y-97823000D03*
X133329000Y-97823000D03*
D18*
X122270000Y-94115000D03*
X124095000Y-94115000D03*
D19*
X121168491Y-129794508D03*
X121168491Y-127254508D03*
X121168491Y-124714508D03*
X121168491Y-122174508D03*
X121168491Y-119634508D03*
X121168491Y-117094508D03*
D20*
X124095000Y-95893000D03*
X122270000Y-95893000D03*
D21*
X148617000Y-120852767D03*
X148617000Y-122577767D03*
D22*
X182424000Y-118110000D03*
D23*
X185924000Y-123110000D03*
X189424000Y-118110000D03*
X192924000Y-123110000D03*
X196424000Y-118110000D03*
X199924000Y-123110000D03*
X203424000Y-118110000D03*
X206924000Y-123110000D03*
X210424000Y-118110000D03*
X213924000Y-123110000D03*
X217424000Y-118110000D03*
X220924000Y-123110000D03*
D24*
X151232000Y-97296000D03*
X151232000Y-94996000D03*
D25*
X144932000Y-94996000D03*
D24*
X151232000Y-92696000D03*
D21*
X148617000Y-124408767D03*
X148617000Y-126133767D03*
D26*
X178308000Y-93002500D03*
X178308000Y-89877500D03*
D27*
X120523000Y-72898000D03*
X120523000Y-71173000D03*
D28*
X191370000Y-87113000D03*
D29*
X188495000Y-85208000D03*
X188495000Y-86478000D03*
X188495000Y-87748000D03*
X188495000Y-89018000D03*
X194245000Y-89018000D03*
X194245000Y-87748000D03*
X194245000Y-86478000D03*
X194245000Y-85208000D03*
D30*
X190720000Y-85813000D03*
X190720000Y-87113000D03*
X190720000Y-88413000D03*
X192020000Y-85813000D03*
X192020000Y-87113000D03*
X192020000Y-88413000D03*
D16*
X184954000Y-104447500D03*
X184954000Y-106272500D03*
D21*
X128680491Y-124205491D03*
X128680491Y-125930491D03*
D14*
X197138500Y-78701000D03*
X194013500Y-78701000D03*
D31*
X217958000Y-109604000D03*
D32*
X212958000Y-106104000D03*
X217958000Y-102604000D03*
D27*
X120642500Y-95840000D03*
X120642500Y-94115000D03*
D33*
X165608000Y-117178000D03*
D34*
X165608000Y-124668000D03*
D35*
X165608000Y-128768000D03*
X165608000Y-112978000D03*
D36*
X203835000Y-112472000D03*
X206635000Y-112472000D03*
D37*
X138430000Y-70336500D03*
X138430000Y-72411500D03*
X165205280Y-95736500D03*
X165205280Y-97811500D03*
D27*
X112776000Y-115162500D03*
X112776000Y-113437500D03*
D16*
X199432000Y-104447500D03*
X199432000Y-106272500D03*
D18*
X130561991Y-125829991D03*
X132386991Y-125829991D03*
X137374000Y-74676000D03*
X139199000Y-74676000D03*
D36*
X184570000Y-112472000D03*
X187370000Y-112472000D03*
D11*
X182094000Y-108311000D03*
X180194000Y-108311000D03*
X181144000Y-110186000D03*
D38*
X133936500Y-101693500D03*
X132211500Y-101693500D03*
D37*
X153924000Y-92688500D03*
X153924000Y-94763500D03*
D39*
X140208000Y-94055500D03*
X140208000Y-92305500D03*
D21*
X203454000Y-97509000D03*
X203454000Y-99234000D03*
D16*
X194606000Y-104447500D03*
X194606000Y-106272500D03*
D38*
X166978500Y-92202000D03*
X165253500Y-92202000D03*
D36*
X179744000Y-112472000D03*
X182544000Y-112472000D03*
D21*
X173736000Y-91339500D03*
X173736000Y-93064500D03*
D18*
X150498500Y-126033267D03*
X152323500Y-126033267D03*
D37*
X143154000Y-100040500D03*
X143154000Y-102115500D03*
D40*
X130204491Y-120690491D03*
X130204491Y-121825491D03*
D26*
X175768000Y-93002500D03*
X175768000Y-89877500D03*
D28*
X191370000Y-74667000D03*
D29*
X188495000Y-72762000D03*
X188495000Y-74032000D03*
X188495000Y-75302000D03*
X188495000Y-76572000D03*
X194245000Y-76572000D03*
X194245000Y-75302000D03*
X194245000Y-74032000D03*
X194245000Y-72762000D03*
D41*
X190720000Y-73367000D03*
X190720000Y-74667000D03*
X190720000Y-75967000D03*
X192020000Y-73367000D03*
X192020000Y-74667000D03*
X192020000Y-75967000D03*
D21*
X205994000Y-97509000D03*
X205994000Y-99234000D03*
D42*
X206251000Y-106272500D03*
X206251000Y-104447500D03*
D31*
X217958000Y-95888000D03*
D32*
X212958000Y-92388000D03*
X217958000Y-88888000D03*
D37*
X142240000Y-92284000D03*
X142240000Y-94359000D03*
D19*
X141105000Y-129836000D03*
X141105000Y-127296000D03*
X141105000Y-124756000D03*
X141105000Y-122216000D03*
X141105000Y-119676000D03*
X141105000Y-117136000D03*
D21*
X136398000Y-70765500D03*
X136398000Y-72490500D03*
D11*
X196572000Y-108311000D03*
X194672000Y-108311000D03*
X195622000Y-110186000D03*
D42*
X196638000Y-106272500D03*
X196638000Y-104447500D03*
D43*
X143154000Y-106179500D03*
X143154000Y-104104500D03*
D44*
X206120000Y-96073500D03*
X206120000Y-95573500D03*
X206120000Y-95073500D03*
X206120000Y-94573500D03*
X203320000Y-94573500D03*
X203320000Y-95073500D03*
X203320000Y-95573500D03*
X203320000Y-96073500D03*
D45*
X227860300Y-129032000D03*
D46*
X188438000Y-91147000D03*
X191538000Y-91147000D03*
D15*
X128270000Y-104140000D03*
D11*
X201398000Y-108311000D03*
X199498000Y-108311000D03*
X200448000Y-110186000D03*
D36*
X199048000Y-112472000D03*
X201848000Y-112472000D03*
D27*
X114800500Y-95840000D03*
X114800500Y-94115000D03*
D12*
X202942000Y-90841000D03*
X202942000Y-84341000D03*
D36*
X194222000Y-112472000D03*
X197022000Y-112472000D03*
D42*
X186986000Y-106272500D03*
X186986000Y-104447500D03*
D16*
X189780000Y-104447500D03*
X189780000Y-106272500D03*
D43*
X110744000Y-115591500D03*
X110744000Y-113516500D03*
D13*
X165761500Y-93980000D03*
X167486500Y-93980000D03*
D36*
X189396000Y-112472000D03*
X192196000Y-112472000D03*
D27*
X120650000Y-81126500D03*
X120650000Y-79401500D03*
D45*
X114554000Y-81534000D03*
D47*
X116578500Y-94115000D03*
X116578500Y-95065000D03*
X116578500Y-96015000D03*
X118853500Y-96015000D03*
X118853500Y-94115000D03*
D13*
X130611991Y-124051991D03*
X132336991Y-124051991D03*
D48*
X162493500Y-104320000D03*
X162493500Y-105590000D03*
X162493500Y-106860000D03*
X162493500Y-108130000D03*
X167443500Y-108130000D03*
X167443500Y-106860000D03*
X167443500Y-105590000D03*
X167443500Y-104320000D03*
D49*
X145694000Y-100824000D03*
X145694000Y-103124000D03*
D50*
X151994000Y-103124000D03*
D49*
X145694000Y-105424000D03*
D45*
X108204000Y-126492000D03*
D51*
X107696000Y-114582000D03*
X107696000Y-113582000D03*
X107696000Y-112582000D03*
X107696000Y-111582000D03*
X107696000Y-110582000D03*
X107696000Y-109582000D03*
X107696000Y-108582000D03*
X107696000Y-107582000D03*
X107696000Y-106582000D03*
X107696000Y-105582000D03*
X107696000Y-104582000D03*
X107696000Y-103582000D03*
X107696000Y-102582000D03*
X107696000Y-101582000D03*
X107696000Y-100582000D03*
X107696000Y-99582000D03*
X107696000Y-98582000D03*
X107696000Y-97582000D03*
X107696000Y-96582000D03*
X107696000Y-95582000D03*
X107696000Y-94582000D03*
X107696000Y-93582000D03*
X107696000Y-92582000D03*
X107696000Y-91582000D03*
X107696000Y-90582000D03*
X107696000Y-89582000D03*
X107696000Y-88582000D03*
X107696000Y-87582000D03*
X107696000Y-86582000D03*
X107696000Y-85582000D03*
X107696000Y-84582000D03*
X107696000Y-83582000D03*
X107696000Y-82582000D03*
X107696000Y-81582000D03*
X107696000Y-80582000D03*
X107696000Y-79582000D03*
X107696000Y-78582000D03*
X107696000Y-77582000D03*
X107696000Y-76582000D03*
X107696000Y-75582000D03*
D52*
X105246000Y-117332000D03*
X105246000Y-72832000D03*
D15*
X119126000Y-104140000D03*
D53*
X123359000Y-83388000D03*
X128609000Y-83388000D03*
X128609000Y-80188000D03*
X123359000Y-80188000D03*
X123232000Y-75159500D03*
X128482000Y-75159500D03*
X128482000Y-71959500D03*
X123232000Y-71959500D03*
D27*
X160274000Y-106426000D03*
X160274000Y-104701000D03*
D46*
X188438000Y-78701000D03*
X191538000Y-78701000D03*
D38*
X133936500Y-99915500D03*
X132211500Y-99915500D03*
D42*
X191812000Y-106272500D03*
X191812000Y-104447500D03*
D21*
X158496000Y-104701000D03*
X158496000Y-106426000D03*
D54*
X165100000Y-76200000D03*
X167640000Y-76200000D03*
X165100000Y-78740000D03*
X167640000Y-78740000D03*
X165100000Y-81280000D03*
X167640000Y-81280000D03*
D16*
X180128000Y-104447500D03*
X180128000Y-106272500D03*
D27*
X127397000Y-95891500D03*
X127397000Y-94166500D03*
D26*
X180848000Y-93002500D03*
X180848000Y-89877500D03*
D40*
X150141000Y-120893767D03*
X150141000Y-122028767D03*
D11*
X206185000Y-108311000D03*
X204285000Y-108311000D03*
X205235000Y-110186000D03*
D42*
X182160000Y-106272500D03*
X182160000Y-104447500D03*
D31*
X212958000Y-82398000D03*
D32*
X217958000Y-78898000D03*
X212958000Y-75398000D03*
X217958000Y-71898000D03*
D37*
X167386000Y-95736500D03*
X167386000Y-97811500D03*
D55*
X141320500Y-71040000D03*
X141320500Y-72310000D03*
X141320500Y-73580000D03*
X141320500Y-74850000D03*
X141320500Y-76120000D03*
X141320500Y-77390000D03*
X141320500Y-78660000D03*
X141320500Y-79930000D03*
X141320500Y-81200000D03*
X141320500Y-82470000D03*
X141320500Y-83740000D03*
X141320500Y-85010000D03*
X141320500Y-86280000D03*
X141320500Y-87550000D03*
D56*
X143085500Y-88800000D03*
X144355500Y-88800000D03*
X145625500Y-88800000D03*
X146895500Y-88800000D03*
X148165500Y-88800000D03*
X149435500Y-88800000D03*
X150705500Y-88800000D03*
X151975500Y-88800000D03*
X153245500Y-88800000D03*
X154515500Y-88800000D03*
X155785500Y-88800000D03*
X157055500Y-88800000D03*
D55*
X158820500Y-87550000D03*
X158820500Y-86280000D03*
X158820500Y-85010000D03*
X158820500Y-83740000D03*
X158820500Y-82470000D03*
X158820500Y-81200000D03*
X158820500Y-79930000D03*
X158820500Y-78660000D03*
X158820500Y-77390000D03*
X158820500Y-76120000D03*
X158820500Y-74850000D03*
X158820500Y-73580000D03*
X158820500Y-72310000D03*
X158820500Y-71040000D03*
D57*
X147170500Y-77360000D03*
X148570500Y-77360000D03*
X149970500Y-77360000D03*
X147170500Y-78760000D03*
X148570500Y-78760000D03*
X149970500Y-78760000D03*
X147170500Y-80160000D03*
X148570500Y-80160000D03*
X149970500Y-80160000D03*
D42*
X201464000Y-106272500D03*
X201464000Y-104447500D03*
D21*
X128680491Y-120649491D03*
X128680491Y-122374491D03*
D16*
X204219000Y-104447500D03*
X204219000Y-106272500D03*
D58*
X174400000Y-78674000D03*
X183000000Y-78674000D03*
X177800000Y-78674000D03*
D59*
X183900000Y-71374000D03*
X174000000Y-71374000D03*
M02*
